<?xml version="1.0" encoding="UTF-8"?>
<svg xmlns="http://www.w3.org/2000/svg" width="72" height="216" viewBox="0 0 3 9" shape-rendering="crispEdges">
  <title>U+004F (O)</title>
  
  <g>
    <rect x="0" y="0" width="1" height="1" fill="rgb(67,139,142)" fill-opacity="0.500"/>
    <rect x="1" y="0" width="1" height="1" fill="rgb(89,181,151)" fill-opacity="0.500"/>
    <rect x="2" y="0" width="1" height="1" fill="rgb(97,177,46)" fill-opacity="0.500"/>
    <rect x="0" y="1" width="1" height="1" fill="rgb(18,216,165)" fill-opacity="0.500"/>
    <rect x="2" y="1" width="1" height="1" fill="rgb(95,177,147)" fill-opacity="0.500"/>
    <rect x="0" y="2" width="1" height="1" fill="rgb(113,231,110)" fill-opacity="0.500"/>
    <rect x="2" y="2" width="1" height="1" fill="rgb(124,249,170)" fill-opacity="0.500"/>
    <rect x="0" y="3" width="1" height="1" fill="rgb(95,199,147)" fill-opacity="0.500"/>
    <rect x="2" y="3" width="1" height="1" fill="rgb(40,222,104)" fill-opacity="0.500"/>
    <rect x="0" y="4" width="1" height="1" fill="rgb(16,252,145)" fill-opacity="0.500"/>
    <rect x="2" y="4" width="1" height="1" fill="rgb(92,180,68)" fill-opacity="0.500"/>
    <rect x="0" y="5" width="1" height="1" fill="rgb(85,225,190)" fill-opacity="0.500"/>
    <rect x="2" y="5" width="1" height="1" fill="rgb(72,189,45)" fill-opacity="0.500"/>
    <rect x="0" y="6" width="1" height="1" fill="rgb(52,141,159)" fill-opacity="0.500"/>
    <rect x="1" y="6" width="1" height="1" fill="rgb(104,201,115)" fill-opacity="0.500"/>
    <rect x="2" y="6" width="1" height="1" fill="rgb(86,238,165)" fill-opacity="0.500"/>
  </g>
</svg>
