<?xml version="1.0" encoding="UTF-8"?>
<svg xmlns="http://www.w3.org/2000/svg" width="72" height="216" viewBox="0 0 3 9" shape-rendering="crispEdges">
  <title>U+041E (О)</title>
  
  <g>
    <rect x="0" y="0" width="1" height="1" fill="rgb(71,191,74)" fill-opacity="0.500"/>
    <rect x="1" y="0" width="1" height="1" fill="rgb(87,176,48)" fill-opacity="0.500"/>
    <rect x="2" y="0" width="1" height="1" fill="rgb(27,189,77)" fill-opacity="0.500"/>
    <rect x="0" y="1" width="1" height="1" fill="rgb(53,206,140)" fill-opacity="0.500"/>
    <rect x="2" y="1" width="1" height="1" fill="rgb(96,211,158)" fill-opacity="0.500"/>
    <rect x="0" y="2" width="1" height="1" fill="rgb(24,236,91)" fill-opacity="0.500"/>
    <rect x="2" y="2" width="1" height="1" fill="rgb(124,167,20)" fill-opacity="0.500"/>
    <rect x="0" y="3" width="1" height="1" fill="rgb(7,172,68)" fill-opacity="0.500"/>
    <rect x="2" y="3" width="1" height="1" fill="rgb(78,214,178)" fill-opacity="0.500"/>
    <rect x="0" y="4" width="1" height="1" fill="rgb(125,192,61)" fill-opacity="0.500"/>
    <rect x="2" y="4" width="1" height="1" fill="rgb(27,226,183)" fill-opacity="0.500"/>
    <rect x="0" y="5" width="1" height="1" fill="rgb(26,173,85)" fill-opacity="0.500"/>
    <rect x="2" y="5" width="1" height="1" fill="rgb(96,196,84)" fill-opacity="0.500"/>
    <rect x="0" y="6" width="1" height="1" fill="rgb(111,171,95)" fill-opacity="0.500"/>
    <rect x="1" y="6" width="1" height="1" fill="rgb(56,224,10)" fill-opacity="0.500"/>
    <rect x="2" y="6" width="1" height="1" fill="rgb(92,181,7)" fill-opacity="0.500"/>
  </g>
</svg>
