<?xml version="1.0" encoding="UTF-8"?>
<svg xmlns="http://www.w3.org/2000/svg" width="120" height="216" viewBox="0 0 5 9" shape-rendering="crispEdges">
  <title>U+006D (m)</title>
  
  <g>
    <rect x="0" y="2" width="1" height="1" fill="rgb(42,162,101)" fill-opacity="0.500"/>
    <rect x="1" y="2" width="1" height="1" fill="rgb(64,242,136)" fill-opacity="0.500"/>
    <rect x="2" y="2" width="1" height="1" fill="rgb(109,209,60)" fill-opacity="0.500"/>
    <rect x="3" y="2" width="1" height="1" fill="rgb(59,239,51)" fill-opacity="0.500"/>
    <rect x="4" y="2" width="1" height="1" fill="rgb(79,147,128)" fill-opacity="0.500"/>
    <rect x="0" y="3" width="1" height="1" fill="rgb(53,135,56)" fill-opacity="0.500"/>
    <rect x="2" y="3" width="1" height="1" fill="rgb(120,204,152)" fill-opacity="0.500"/>
    <rect x="4" y="3" width="1" height="1" fill="rgb(71,141,109)" fill-opacity="0.500"/>
    <rect x="0" y="4" width="1" height="1" fill="rgb(19,197,150)" fill-opacity="0.500"/>
    <rect x="2" y="4" width="1" height="1" fill="rgb(56,158,24)" fill-opacity="0.500"/>
    <rect x="4" y="4" width="1" height="1" fill="rgb(25,168,43)" fill-opacity="0.500"/>
    <rect x="0" y="5" width="1" height="1" fill="rgb(116,205,14)" fill-opacity="0.500"/>
    <rect x="2" y="5" width="1" height="1" fill="rgb(125,216,13)" fill-opacity="0.500"/>
    <rect x="4" y="5" width="1" height="1" fill="rgb(122,167,74)" fill-opacity="0.500"/>
    <rect x="0" y="6" width="1" height="1" fill="rgb(12,200,102)" fill-opacity="0.500"/>
    <rect x="2" y="6" width="1" height="1" fill="rgb(33,209,119)" fill-opacity="0.500"/>
    <rect x="4" y="6" width="1" height="1" fill="rgb(19,204,115)" fill-opacity="0.500"/>
  </g>
</svg>
