<?xml version="1.0" encoding="UTF-8"?>
<svg xmlns="http://www.w3.org/2000/svg" width="72" height="216" viewBox="0 0 3 9" shape-rendering="crispEdges">
  <title>U+0411 (Б)</title>
  
  <g>
    <rect x="0" y="0" width="1" height="1" fill="rgb(76,214,21)" fill-opacity="0.500"/>
    <rect x="1" y="0" width="1" height="1" fill="rgb(42,175,183)" fill-opacity="0.500"/>
    <rect x="2" y="0" width="1" height="1" fill="rgb(55,219,59)" fill-opacity="0.500"/>
    <rect x="0" y="1" width="1" height="1" fill="rgb(46,173,56)" fill-opacity="0.500"/>
    <rect x="0" y="2" width="1" height="1" fill="rgb(45,130,150)" fill-opacity="0.500"/>
    <rect x="0" y="3" width="1" height="1" fill="rgb(44,212,71)" fill-opacity="0.500"/>
    <rect x="1" y="3" width="1" height="1" fill="rgb(126,246,21)" fill-opacity="0.500"/>
    <rect x="2" y="3" width="1" height="1" fill="rgb(54,194,80)" fill-opacity="0.500"/>
    <rect x="0" y="4" width="1" height="1" fill="rgb(76,255,108)" fill-opacity="0.500"/>
    <rect x="2" y="4" width="1" height="1" fill="rgb(18,130,114)" fill-opacity="0.500"/>
    <rect x="0" y="5" width="1" height="1" fill="rgb(56,131,145)" fill-opacity="0.500"/>
    <rect x="2" y="5" width="1" height="1" fill="rgb(6,132,122)" fill-opacity="0.500"/>
    <rect x="0" y="6" width="1" height="1" fill="rgb(97,165,190)" fill-opacity="0.500"/>
    <rect x="1" y="6" width="1" height="1" fill="rgb(14,210,10)" fill-opacity="0.500"/>
    <rect x="2" y="6" width="1" height="1" fill="rgb(57,180,119)" fill-opacity="0.500"/>
  </g>
</svg>
