<?xml version="1.0" encoding="UTF-8"?>
<svg xmlns="http://www.w3.org/2000/svg" width="120" height="216" viewBox="0 0 5 9" shape-rendering="crispEdges">
  <title>U+05D7 (ח)</title>
  
  <g>
    <rect x="0" y="0" width="1" height="1" fill="rgb(29,143,79)" fill-opacity="0.500"/>
    <rect x="1" y="0" width="1" height="1" fill="rgb(69,228,64)" fill-opacity="0.500"/>
    <rect x="2" y="0" width="1" height="1" fill="rgb(105,159,169)" fill-opacity="0.500"/>
    <rect x="3" y="0" width="1" height="1" fill="rgb(109,193,151)" fill-opacity="0.500"/>
    <rect x="4" y="0" width="1" height="1" fill="rgb(13,242,38)" fill-opacity="0.500"/>
    <rect x="0" y="1" width="1" height="1" fill="rgb(125,244,91)" fill-opacity="0.500"/>
    <rect x="4" y="1" width="1" height="1" fill="rgb(80,173,9)" fill-opacity="0.500"/>
    <rect x="0" y="2" width="1" height="1" fill="rgb(120,250,171)" fill-opacity="0.500"/>
    <rect x="4" y="2" width="1" height="1" fill="rgb(64,204,149)" fill-opacity="0.500"/>
    <rect x="0" y="3" width="1" height="1" fill="rgb(32,221,4)" fill-opacity="0.500"/>
    <rect x="4" y="3" width="1" height="1" fill="rgb(42,243,102)" fill-opacity="0.500"/>
    <rect x="0" y="4" width="1" height="1" fill="rgb(56,245,59)" fill-opacity="0.500"/>
    <rect x="4" y="4" width="1" height="1" fill="rgb(12,148,27)" fill-opacity="0.500"/>
    <rect x="0" y="5" width="1" height="1" fill="rgb(45,135,189)" fill-opacity="0.500"/>
    <rect x="4" y="5" width="1" height="1" fill="rgb(81,220,55)" fill-opacity="0.500"/>
    <rect x="0" y="6" width="1" height="1" fill="rgb(2,226,129)" fill-opacity="0.500"/>
    <rect x="4" y="6" width="1" height="1" fill="rgb(62,166,20)" fill-opacity="0.500"/>
  </g>
</svg>
