<?xml version="1.0" encoding="UTF-8"?>
<svg xmlns="http://www.w3.org/2000/svg" width="96" height="216" viewBox="0 0 4 9" shape-rendering="crispEdges">
  <title>U+0418 (И)</title>
  
  <g>
    <rect x="0" y="0" width="1" height="1" fill="rgb(79,247,177)" fill-opacity="0.500"/>
    <rect x="3" y="0" width="1" height="1" fill="rgb(36,146,149)" fill-opacity="0.500"/>
    <rect x="0" y="1" width="1" height="1" fill="rgb(55,191,110)" fill-opacity="0.500"/>
    <rect x="3" y="1" width="1" height="1" fill="rgb(83,165,126)" fill-opacity="0.500"/>
    <rect x="0" y="2" width="1" height="1" fill="rgb(84,223,51)" fill-opacity="0.500"/>
    <rect x="2" y="2" width="1" height="1" fill="rgb(19,245,182)" fill-opacity="0.500"/>
    <rect x="3" y="2" width="1" height="1" fill="rgb(6,220,9)" fill-opacity="0.500"/>
    <rect x="0" y="3" width="1" height="1" fill="rgb(33,240,116)" fill-opacity="0.500"/>
    <rect x="1" y="3" width="1" height="1" fill="rgb(88,166,54)" fill-opacity="0.500"/>
    <rect x="3" y="3" width="1" height="1" fill="rgb(110,192,113)" fill-opacity="0.500"/>
    <rect x="0" y="4" width="1" height="1" fill="rgb(91,239,15)" fill-opacity="0.500"/>
    <rect x="3" y="4" width="1" height="1" fill="rgb(126,189,166)" fill-opacity="0.500"/>
    <rect x="0" y="5" width="1" height="1" fill="rgb(34,218,85)" fill-opacity="0.500"/>
    <rect x="3" y="5" width="1" height="1" fill="rgb(99,181,55)" fill-opacity="0.500"/>
    <rect x="0" y="6" width="1" height="1" fill="rgb(110,182,92)" fill-opacity="0.500"/>
    <rect x="3" y="6" width="1" height="1" fill="rgb(44,156,130)" fill-opacity="0.500"/>
  </g>
</svg>
