<?xml version="1.0" encoding="UTF-8"?>
<svg xmlns="http://www.w3.org/2000/svg" width="120" height="216" viewBox="0 0 5 9" shape-rendering="crispEdges">
  <title>U+05E4 (פ)</title>
  
  <g>
    <rect x="0" y="0" width="1" height="1" fill="rgb(40,210,66)" fill-opacity="0.500"/>
    <rect x="1" y="0" width="1" height="1" fill="rgb(61,161,162)" fill-opacity="0.500"/>
    <rect x="2" y="0" width="1" height="1" fill="rgb(57,159,84)" fill-opacity="0.500"/>
    <rect x="3" y="0" width="1" height="1" fill="rgb(125,224,33)" fill-opacity="0.500"/>
    <rect x="0" y="1" width="1" height="1" fill="rgb(31,131,94)" fill-opacity="0.500"/>
    <rect x="4" y="1" width="1" height="1" fill="rgb(91,231,155)" fill-opacity="0.500"/>
    <rect x="0" y="2" width="1" height="1" fill="rgb(100,175,10)" fill-opacity="0.500"/>
    <rect x="4" y="2" width="1" height="1" fill="rgb(124,197,152)" fill-opacity="0.500"/>
    <rect x="0" y="3" width="1" height="1" fill="rgb(2,245,54)" fill-opacity="0.500"/>
    <rect x="1" y="3" width="1" height="1" fill="rgb(104,148,142)" fill-opacity="0.500"/>
    <rect x="2" y="3" width="1" height="1" fill="rgb(37,253,136)" fill-opacity="0.500"/>
    <rect x="3" y="3" width="1" height="1" fill="rgb(95,234,143)" fill-opacity="0.500"/>
    <rect x="0" y="4" width="1" height="1" fill="rgb(102,192,150)" fill-opacity="0.500"/>
    <rect x="0" y="5" width="1" height="1" fill="rgb(103,224,113)" fill-opacity="0.500"/>
    <rect x="0" y="6" width="1" height="1" fill="rgb(63,159,47)" fill-opacity="0.500"/>
  </g>
</svg>
