<?xml version="1.0" encoding="UTF-8"?>
<svg xmlns="http://www.w3.org/2000/svg" width="120" height="216" viewBox="0 0 5 9" shape-rendering="crispEdges">
  <title>U+05E5 (ץ)</title>
  
  <g>
    <rect x="2" y="0" width="1" height="1" fill="rgb(106,206,143)" fill-opacity="0.500"/>
    <rect x="2" y="1" width="1" height="1" fill="rgb(125,152,103)" fill-opacity="0.500"/>
    <rect x="3" y="1" width="1" height="1" fill="rgb(59,176,57)" fill-opacity="0.500"/>
    <rect x="1" y="2" width="1" height="1" fill="rgb(60,163,76)" fill-opacity="0.500"/>
    <rect x="3" y="2" width="1" height="1" fill="rgb(73,147,144)" fill-opacity="0.500"/>
    <rect x="0" y="3" width="1" height="1" fill="rgb(6,241,46)" fill-opacity="0.500"/>
    <rect x="3" y="3" width="1" height="1" fill="rgb(82,170,149)" fill-opacity="0.500"/>
    <rect x="0" y="4" width="1" height="1" fill="rgb(66,243,29)" fill-opacity="0.500"/>
    <rect x="3" y="4" width="1" height="1" fill="rgb(48,230,27)" fill-opacity="0.500"/>
    <rect x="0" y="5" width="1" height="1" fill="rgb(36,162,26)" fill-opacity="0.500"/>
    <rect x="3" y="5" width="1" height="1" fill="rgb(116,178,42)" fill-opacity="0.500"/>
    <rect x="0" y="6" width="1" height="1" fill="rgb(126,197,60)" fill-opacity="0.500"/>
    <rect x="1" y="6" width="1" height="1" fill="rgb(51,173,112)" fill-opacity="0.500"/>
    <rect x="2" y="6" width="1" height="1" fill="rgb(33,200,161)" fill-opacity="0.500"/>
    <rect x="3" y="6" width="1" height="1" fill="rgb(67,230,76)" fill-opacity="0.500"/>
    <rect x="2" y="7" width="1" height="1" fill="rgb(102,239,87)" fill-opacity="0.500"/>
    <rect x="2" y="8" width="1" height="1" fill="rgb(50,222,73)" fill-opacity="0.500"/>
  </g>
</svg>
