<?xml version="1.0" encoding="UTF-8"?>
<svg xmlns="http://www.w3.org/2000/svg" width="120" height="216" viewBox="0 0 5 9" shape-rendering="crispEdges">
  <title>U+05DE (מ)</title>
  
  <g>
    <rect x="0" y="0" width="1" height="1" fill="rgb(78,217,94)" fill-opacity="0.500"/>
    <rect x="1" y="0" width="1" height="1" fill="rgb(127,157,29)" fill-opacity="0.500"/>
    <rect x="2" y="0" width="1" height="1" fill="rgb(80,144,11)" fill-opacity="0.500"/>
    <rect x="3" y="0" width="1" height="1" fill="rgb(77,214,178)" fill-opacity="0.500"/>
    <rect x="4" y="0" width="1" height="1" fill="rgb(74,132,48)" fill-opacity="0.500"/>
    <rect x="0" y="1" width="1" height="1" fill="rgb(10,242,134)" fill-opacity="0.500"/>
    <rect x="4" y="1" width="1" height="1" fill="rgb(50,176,83)" fill-opacity="0.500"/>
    <rect x="0" y="2" width="1" height="1" fill="rgb(40,160,159)" fill-opacity="0.500"/>
    <rect x="2" y="2" width="1" height="1" fill="rgb(45,217,71)" fill-opacity="0.500"/>
    <rect x="4" y="2" width="1" height="1" fill="rgb(119,195,19)" fill-opacity="0.500"/>
    <rect x="0" y="3" width="1" height="1" fill="rgb(96,243,59)" fill-opacity="0.500"/>
    <rect x="4" y="3" width="1" height="1" fill="rgb(30,179,97)" fill-opacity="0.500"/>
    <rect x="0" y="4" width="1" height="1" fill="rgb(49,229,93)" fill-opacity="0.500"/>
    <rect x="4" y="4" width="1" height="1" fill="rgb(49,202,59)" fill-opacity="0.500"/>
    <rect x="0" y="5" width="1" height="1" fill="rgb(96,240,151)" fill-opacity="0.500"/>
    <rect x="4" y="5" width="1" height="1" fill="rgb(56,135,84)" fill-opacity="0.500"/>
    <rect x="1" y="6" width="1" height="1" fill="rgb(101,150,42)" fill-opacity="0.500"/>
    <rect x="2" y="6" width="1" height="1" fill="rgb(29,164,159)" fill-opacity="0.500"/>
    <rect x="3" y="6" width="1" height="1" fill="rgb(9,129,37)" fill-opacity="0.500"/>
    <rect x="4" y="6" width="1" height="1" fill="rgb(9,236,146)" fill-opacity="0.500"/>
  </g>
</svg>
