<?xml version="1.0" encoding="UTF-8"?>
<svg xmlns="http://www.w3.org/2000/svg" width="72" height="216" viewBox="0 0 3 9" shape-rendering="crispEdges">
  <title>U+041E (О)</title>
  
  <g>
    <rect x="0" y="0" width="1" height="1" fill="rgb(55,197,190)" fill-opacity="0.500"/>
    <rect x="1" y="0" width="1" height="1" fill="rgb(69,236,22)" fill-opacity="0.500"/>
    <rect x="2" y="0" width="1" height="1" fill="rgb(69,150,49)" fill-opacity="0.500"/>
    <rect x="0" y="1" width="1" height="1" fill="rgb(3,131,151)" fill-opacity="0.500"/>
    <rect x="2" y="1" width="1" height="1" fill="rgb(100,147,24)" fill-opacity="0.500"/>
    <rect x="0" y="2" width="1" height="1" fill="rgb(48,219,91)" fill-opacity="0.500"/>
    <rect x="2" y="2" width="1" height="1" fill="rgb(88,151,130)" fill-opacity="0.500"/>
    <rect x="0" y="3" width="1" height="1" fill="rgb(109,136,89)" fill-opacity="0.500"/>
    <rect x="2" y="3" width="1" height="1" fill="rgb(8,128,150)" fill-opacity="0.500"/>
    <rect x="0" y="4" width="1" height="1" fill="rgb(120,203,154)" fill-opacity="0.500"/>
    <rect x="2" y="4" width="1" height="1" fill="rgb(84,146,45)" fill-opacity="0.500"/>
    <rect x="0" y="5" width="1" height="1" fill="rgb(19,201,94)" fill-opacity="0.500"/>
    <rect x="2" y="5" width="1" height="1" fill="rgb(31,248,149)" fill-opacity="0.500"/>
    <rect x="0" y="6" width="1" height="1" fill="rgb(25,233,68)" fill-opacity="0.500"/>
    <rect x="1" y="6" width="1" height="1" fill="rgb(70,232,19)" fill-opacity="0.500"/>
    <rect x="2" y="6" width="1" height="1" fill="rgb(61,227,14)" fill-opacity="0.500"/>
  </g>
</svg>
