<?xml version="1.0" encoding="UTF-8"?>
<svg xmlns="http://www.w3.org/2000/svg" width="72" height="216" viewBox="0 0 3 9" shape-rendering="crispEdges">
  <title>U+0030 (0)</title>
  
  <g>
    <rect x="0" y="0" width="1" height="1" fill="rgb(74,139,2)" fill-opacity="0.500"/>
    <rect x="1" y="0" width="1" height="1" fill="rgb(83,241,182)" fill-opacity="0.500"/>
    <rect x="2" y="0" width="1" height="1" fill="rgb(11,221,64)" fill-opacity="0.500"/>
    <rect x="0" y="1" width="1" height="1" fill="rgb(62,162,79)" fill-opacity="0.500"/>
    <rect x="2" y="1" width="1" height="1" fill="rgb(106,208,14)" fill-opacity="0.500"/>
    <rect x="0" y="2" width="1" height="1" fill="rgb(56,206,53)" fill-opacity="0.500"/>
    <rect x="2" y="2" width="1" height="1" fill="rgb(38,137,28)" fill-opacity="0.500"/>
    <rect x="0" y="3" width="1" height="1" fill="rgb(11,203,27)" fill-opacity="0.500"/>
    <rect x="2" y="3" width="1" height="1" fill="rgb(87,196,155)" fill-opacity="0.500"/>
    <rect x="0" y="4" width="1" height="1" fill="rgb(69,169,170)" fill-opacity="0.500"/>
    <rect x="2" y="4" width="1" height="1" fill="rgb(66,242,67)" fill-opacity="0.500"/>
    <rect x="0" y="5" width="1" height="1" fill="rgb(109,235,83)" fill-opacity="0.500"/>
    <rect x="2" y="5" width="1" height="1" fill="rgb(15,208,16)" fill-opacity="0.500"/>
    <rect x="0" y="6" width="1" height="1" fill="rgb(82,156,88)" fill-opacity="0.500"/>
    <rect x="1" y="6" width="1" height="1" fill="rgb(114,168,176)" fill-opacity="0.500"/>
    <rect x="2" y="6" width="1" height="1" fill="rgb(69,153,106)" fill-opacity="0.500"/>
  </g>
</svg>
