<?xml version="1.0" encoding="UTF-8"?>
<svg xmlns="http://www.w3.org/2000/svg" width="120" height="216" viewBox="0 0 5 9" shape-rendering="crispEdges">
  <title>U+05E1 (ס)</title>
  
  <g>
    <rect x="1" y="0" width="1" height="1" fill="rgb(6,155,158)" fill-opacity="0.500"/>
    <rect x="2" y="0" width="1" height="1" fill="rgb(87,195,169)" fill-opacity="0.500"/>
    <rect x="3" y="0" width="1" height="1" fill="rgb(18,187,190)" fill-opacity="0.500"/>
    <rect x="0" y="1" width="1" height="1" fill="rgb(73,130,177)" fill-opacity="0.500"/>
    <rect x="4" y="1" width="1" height="1" fill="rgb(63,179,161)" fill-opacity="0.500"/>
    <rect x="0" y="2" width="1" height="1" fill="rgb(96,180,104)" fill-opacity="0.500"/>
    <rect x="4" y="2" width="1" height="1" fill="rgb(43,248,35)" fill-opacity="0.500"/>
    <rect x="0" y="3" width="1" height="1" fill="rgb(51,166,46)" fill-opacity="0.500"/>
    <rect x="4" y="3" width="1" height="1" fill="rgb(74,243,117)" fill-opacity="0.500"/>
    <rect x="0" y="4" width="1" height="1" fill="rgb(45,227,95)" fill-opacity="0.500"/>
    <rect x="4" y="4" width="1" height="1" fill="rgb(120,148,174)" fill-opacity="0.500"/>
    <rect x="0" y="5" width="1" height="1" fill="rgb(113,175,121)" fill-opacity="0.500"/>
    <rect x="4" y="5" width="1" height="1" fill="rgb(80,233,150)" fill-opacity="0.500"/>
    <rect x="1" y="6" width="1" height="1" fill="rgb(68,134,182)" fill-opacity="0.500"/>
    <rect x="2" y="6" width="1" height="1" fill="rgb(58,162,40)" fill-opacity="0.500"/>
    <rect x="3" y="6" width="1" height="1" fill="rgb(126,239,18)" fill-opacity="0.500"/>
  </g>
</svg>
