<?xml version="1.0" encoding="UTF-8"?>
<svg xmlns="http://www.w3.org/2000/svg" width="72" height="216" viewBox="0 0 3 9" shape-rendering="crispEdges">
  <title>U+0055 (U)</title>
  
  <g>
    <rect x="0" y="0" width="1" height="1" fill="rgb(65,226,142)" fill-opacity="0.500"/>
    <rect x="2" y="0" width="1" height="1" fill="rgb(44,242,47)" fill-opacity="0.500"/>
    <rect x="0" y="1" width="1" height="1" fill="rgb(12,198,6)" fill-opacity="0.500"/>
    <rect x="2" y="1" width="1" height="1" fill="rgb(101,141,94)" fill-opacity="0.500"/>
    <rect x="0" y="2" width="1" height="1" fill="rgb(109,181,3)" fill-opacity="0.500"/>
    <rect x="2" y="2" width="1" height="1" fill="rgb(28,247,10)" fill-opacity="0.500"/>
    <rect x="0" y="3" width="1" height="1" fill="rgb(22,171,70)" fill-opacity="0.500"/>
    <rect x="2" y="3" width="1" height="1" fill="rgb(15,252,188)" fill-opacity="0.500"/>
    <rect x="0" y="4" width="1" height="1" fill="rgb(32,134,80)" fill-opacity="0.500"/>
    <rect x="2" y="4" width="1" height="1" fill="rgb(57,217,78)" fill-opacity="0.500"/>
    <rect x="0" y="5" width="1" height="1" fill="rgb(68,151,172)" fill-opacity="0.500"/>
    <rect x="2" y="5" width="1" height="1" fill="rgb(37,170,54)" fill-opacity="0.500"/>
    <rect x="0" y="6" width="1" height="1" fill="rgb(22,234,67)" fill-opacity="0.500"/>
    <rect x="1" y="6" width="1" height="1" fill="rgb(42,154,3)" fill-opacity="0.500"/>
    <rect x="2" y="6" width="1" height="1" fill="rgb(84,171,188)" fill-opacity="0.500"/>
  </g>
</svg>
