<?xml version="1.0" encoding="UTF-8"?>
<svg xmlns="http://www.w3.org/2000/svg" width="72" height="216" viewBox="0 0 3 9" shape-rendering="crispEdges">
  <title>U+0067 (g)</title>
  
  <g>
    <rect x="0" y="2" width="1" height="1" fill="rgb(40,145,75)" fill-opacity="0.500"/>
    <rect x="1" y="2" width="1" height="1" fill="rgb(99,129,165)" fill-opacity="0.500"/>
    <rect x="2" y="2" width="1" height="1" fill="rgb(101,146,98)" fill-opacity="0.500"/>
    <rect x="0" y="3" width="1" height="1" fill="rgb(118,189,108)" fill-opacity="0.500"/>
    <rect x="2" y="3" width="1" height="1" fill="rgb(97,211,8)" fill-opacity="0.500"/>
    <rect x="0" y="4" width="1" height="1" fill="rgb(93,171,177)" fill-opacity="0.500"/>
    <rect x="2" y="4" width="1" height="1" fill="rgb(80,201,125)" fill-opacity="0.500"/>
    <rect x="0" y="5" width="1" height="1" fill="rgb(116,168,67)" fill-opacity="0.500"/>
    <rect x="2" y="5" width="1" height="1" fill="rgb(127,229,127)" fill-opacity="0.500"/>
    <rect x="0" y="6" width="1" height="1" fill="rgb(65,185,162)" fill-opacity="0.500"/>
    <rect x="1" y="6" width="1" height="1" fill="rgb(72,215,62)" fill-opacity="0.500"/>
    <rect x="2" y="6" width="1" height="1" fill="rgb(37,137,166)" fill-opacity="0.500"/>
    <rect x="2" y="7" width="1" height="1" fill="rgb(48,210,38)" fill-opacity="0.500"/>
    <rect x="0" y="8" width="1" height="1" fill="rgb(96,185,64)" fill-opacity="0.500"/>
    <rect x="1" y="8" width="1" height="1" fill="rgb(109,228,152)" fill-opacity="0.500"/>
    <rect x="2" y="8" width="1" height="1" fill="rgb(54,136,133)" fill-opacity="0.500"/>
  </g>
</svg>
