<?xml version="1.0" encoding="UTF-8"?>
<svg xmlns="http://www.w3.org/2000/svg" width="216" height="216" viewBox="0 0 9 9" shape-rendering="crispEdges">
  <title>U+2685 (⚅)</title>
  
  <g>
    <rect x="0" y="0" width="1" height="1" fill="rgb(8,187,108)" fill-opacity="0.500"/>
    <rect x="1" y="0" width="1" height="1" fill="rgb(95,162,77)" fill-opacity="0.500"/>
    <rect x="2" y="0" width="1" height="1" fill="rgb(11,236,174)" fill-opacity="0.500"/>
    <rect x="3" y="0" width="1" height="1" fill="rgb(79,168,84)" fill-opacity="0.500"/>
    <rect x="4" y="0" width="1" height="1" fill="rgb(36,183,15)" fill-opacity="0.500"/>
    <rect x="5" y="0" width="1" height="1" fill="rgb(37,161,66)" fill-opacity="0.500"/>
    <rect x="6" y="0" width="1" height="1" fill="rgb(84,189,34)" fill-opacity="0.500"/>
    <rect x="7" y="0" width="1" height="1" fill="rgb(45,162,57)" fill-opacity="0.500"/>
    <rect x="8" y="0" width="1" height="1" fill="rgb(85,221,59)" fill-opacity="0.500"/>
    <rect x="0" y="1" width="1" height="1" fill="rgb(98,247,190)" fill-opacity="0.500"/>
    <rect x="8" y="1" width="1" height="1" fill="rgb(48,145,77)" fill-opacity="0.500"/>
    <rect x="0" y="2" width="1" height="1" fill="rgb(68,218,40)" fill-opacity="0.500"/>
    <rect x="2" y="2" width="1" height="1" fill="rgb(11,140,111)" fill-opacity="0.500"/>
    <rect x="6" y="2" width="1" height="1" fill="rgb(24,190,112)" fill-opacity="0.500"/>
    <rect x="8" y="2" width="1" height="1" fill="rgb(59,244,36)" fill-opacity="0.500"/>
    <rect x="0" y="3" width="1" height="1" fill="rgb(72,144,88)" fill-opacity="0.500"/>
    <rect x="8" y="3" width="1" height="1" fill="rgb(25,202,9)" fill-opacity="0.500"/>
    <rect x="0" y="4" width="1" height="1" fill="rgb(77,197,33)" fill-opacity="0.500"/>
    <rect x="2" y="4" width="1" height="1" fill="rgb(117,156,32)" fill-opacity="0.500"/>
    <rect x="6" y="4" width="1" height="1" fill="rgb(81,138,9)" fill-opacity="0.500"/>
    <rect x="8" y="4" width="1" height="1" fill="rgb(32,210,73)" fill-opacity="0.500"/>
    <rect x="0" y="5" width="1" height="1" fill="rgb(27,132,99)" fill-opacity="0.500"/>
    <rect x="8" y="5" width="1" height="1" fill="rgb(62,202,167)" fill-opacity="0.500"/>
    <rect x="0" y="6" width="1" height="1" fill="rgb(125,212,112)" fill-opacity="0.500"/>
    <rect x="2" y="6" width="1" height="1" fill="rgb(41,133,104)" fill-opacity="0.500"/>
    <rect x="6" y="6" width="1" height="1" fill="rgb(111,187,73)" fill-opacity="0.500"/>
    <rect x="8" y="6" width="1" height="1" fill="rgb(44,185,53)" fill-opacity="0.500"/>
    <rect x="0" y="7" width="1" height="1" fill="rgb(65,231,33)" fill-opacity="0.500"/>
    <rect x="8" y="7" width="1" height="1" fill="rgb(83,231,2)" fill-opacity="0.500"/>
    <rect x="0" y="8" width="1" height="1" fill="rgb(70,159,189)" fill-opacity="0.500"/>
    <rect x="1" y="8" width="1" height="1" fill="rgb(107,243,95)" fill-opacity="0.500"/>
    <rect x="2" y="8" width="1" height="1" fill="rgb(117,129,66)" fill-opacity="0.500"/>
    <rect x="3" y="8" width="1" height="1" fill="rgb(37,199,136)" fill-opacity="0.500"/>
    <rect x="4" y="8" width="1" height="1" fill="rgb(27,228,161)" fill-opacity="0.500"/>
    <rect x="5" y="8" width="1" height="1" fill="rgb(86,226,71)" fill-opacity="0.500"/>
    <rect x="6" y="8" width="1" height="1" fill="rgb(8,224,189)" fill-opacity="0.500"/>
    <rect x="7" y="8" width="1" height="1" fill="rgb(64,156,33)" fill-opacity="0.500"/>
    <rect x="8" y="8" width="1" height="1" fill="rgb(49,229,126)" fill-opacity="0.500"/>
  </g>
</svg>
