<?xml version="1.0" encoding="UTF-8"?>
<svg xmlns="http://www.w3.org/2000/svg" width="72" height="216" viewBox="0 0 3 9" shape-rendering="crispEdges">
  <title>U+041E (О)</title>
  
  <g>
    <rect x="0" y="0" width="1" height="1" fill="rgb(110,150,115)" fill-opacity="0.500"/>
    <rect x="1" y="0" width="1" height="1" fill="rgb(44,167,62)" fill-opacity="0.500"/>
    <rect x="2" y="0" width="1" height="1" fill="rgb(52,139,7)" fill-opacity="0.500"/>
    <rect x="0" y="1" width="1" height="1" fill="rgb(125,248,171)" fill-opacity="0.500"/>
    <rect x="2" y="1" width="1" height="1" fill="rgb(16,236,180)" fill-opacity="0.500"/>
    <rect x="0" y="2" width="1" height="1" fill="rgb(94,247,30)" fill-opacity="0.500"/>
    <rect x="2" y="2" width="1" height="1" fill="rgb(1,226,143)" fill-opacity="0.500"/>
    <rect x="0" y="3" width="1" height="1" fill="rgb(109,202,90)" fill-opacity="0.500"/>
    <rect x="2" y="3" width="1" height="1" fill="rgb(65,198,138)" fill-opacity="0.500"/>
    <rect x="0" y="4" width="1" height="1" fill="rgb(18,137,34)" fill-opacity="0.500"/>
    <rect x="2" y="4" width="1" height="1" fill="rgb(87,236,42)" fill-opacity="0.500"/>
    <rect x="0" y="5" width="1" height="1" fill="rgb(63,137,171)" fill-opacity="0.500"/>
    <rect x="2" y="5" width="1" height="1" fill="rgb(42,131,186)" fill-opacity="0.500"/>
    <rect x="0" y="6" width="1" height="1" fill="rgb(69,146,49)" fill-opacity="0.500"/>
    <rect x="1" y="6" width="1" height="1" fill="rgb(110,204,182)" fill-opacity="0.500"/>
    <rect x="2" y="6" width="1" height="1" fill="rgb(9,189,165)" fill-opacity="0.500"/>
  </g>
</svg>
