<?xml version="1.0" encoding="UTF-8"?>
<svg xmlns="http://www.w3.org/2000/svg" width="120" height="216" viewBox="0 0 5 9" shape-rendering="crispEdges">
  <title>U+0077 (w)</title>
  
  <g>
    <rect x="0" y="2" width="1" height="1" fill="rgb(0,232,181)" fill-opacity="0.500"/>
    <rect x="2" y="2" width="1" height="1" fill="rgb(89,178,17)" fill-opacity="0.500"/>
    <rect x="4" y="2" width="1" height="1" fill="rgb(7,231,91)" fill-opacity="0.500"/>
    <rect x="0" y="3" width="1" height="1" fill="rgb(103,216,34)" fill-opacity="0.500"/>
    <rect x="2" y="3" width="1" height="1" fill="rgb(14,208,139)" fill-opacity="0.500"/>
    <rect x="4" y="3" width="1" height="1" fill="rgb(104,163,56)" fill-opacity="0.500"/>
    <rect x="0" y="4" width="1" height="1" fill="rgb(21,200,83)" fill-opacity="0.500"/>
    <rect x="2" y="4" width="1" height="1" fill="rgb(77,224,167)" fill-opacity="0.500"/>
    <rect x="4" y="4" width="1" height="1" fill="rgb(46,147,10)" fill-opacity="0.500"/>
    <rect x="0" y="5" width="1" height="1" fill="rgb(52,238,2)" fill-opacity="0.500"/>
    <rect x="2" y="5" width="1" height="1" fill="rgb(69,146,24)" fill-opacity="0.500"/>
    <rect x="4" y="5" width="1" height="1" fill="rgb(48,154,107)" fill-opacity="0.500"/>
    <rect x="0" y="6" width="1" height="1" fill="rgb(94,129,2)" fill-opacity="0.500"/>
    <rect x="1" y="6" width="1" height="1" fill="rgb(25,211,134)" fill-opacity="0.500"/>
    <rect x="2" y="6" width="1" height="1" fill="rgb(15,191,39)" fill-opacity="0.500"/>
    <rect x="3" y="6" width="1" height="1" fill="rgb(84,160,158)" fill-opacity="0.500"/>
    <rect x="4" y="6" width="1" height="1" fill="rgb(87,251,128)" fill-opacity="0.500"/>
  </g>
</svg>
