<?xml version="1.0" encoding="UTF-8"?>
<svg xmlns="http://www.w3.org/2000/svg" width="120" height="216" viewBox="0 0 5 9" shape-rendering="crispEdges">
  <title>U+05E7 (ק)</title>
  
  <g>
    <rect x="1" y="0" width="1" height="1" fill="rgb(22,253,40)" fill-opacity="0.500"/>
    <rect x="2" y="0" width="1" height="1" fill="rgb(87,181,75)" fill-opacity="0.500"/>
    <rect x="3" y="0" width="1" height="1" fill="rgb(16,236,80)" fill-opacity="0.500"/>
    <rect x="0" y="1" width="1" height="1" fill="rgb(23,145,162)" fill-opacity="0.500"/>
    <rect x="4" y="1" width="1" height="1" fill="rgb(1,237,4)" fill-opacity="0.500"/>
    <rect x="0" y="2" width="1" height="1" fill="rgb(84,172,12)" fill-opacity="0.500"/>
    <rect x="4" y="2" width="1" height="1" fill="rgb(100,148,59)" fill-opacity="0.500"/>
    <rect x="0" y="3" width="1" height="1" fill="rgb(40,254,31)" fill-opacity="0.500"/>
    <rect x="4" y="3" width="1" height="1" fill="rgb(98,212,1)" fill-opacity="0.500"/>
    <rect x="0" y="4" width="1" height="1" fill="rgb(13,151,147)" fill-opacity="0.500"/>
    <rect x="4" y="4" width="1" height="1" fill="rgb(99,132,123)" fill-opacity="0.500"/>
    <rect x="1" y="5" width="1" height="1" fill="rgb(72,255,185)" fill-opacity="0.500"/>
    <rect x="2" y="5" width="1" height="1" fill="rgb(6,142,151)" fill-opacity="0.500"/>
    <rect x="3" y="5" width="1" height="1" fill="rgb(22,205,168)" fill-opacity="0.500"/>
    <rect x="3" y="6" width="1" height="1" fill="rgb(52,177,143)" fill-opacity="0.500"/>
    <rect x="3" y="7" width="1" height="1" fill="rgb(3,182,107)" fill-opacity="0.500"/>
  </g>
</svg>
