<?xml version="1.0" encoding="UTF-8"?>
<svg xmlns="http://www.w3.org/2000/svg" width="168" height="216" viewBox="0 0 7 9" shape-rendering="crispEdges">
  <title>U+0040 (@)</title>
  
  <g>
    <rect x="0" y="0" width="1" height="1" fill="rgb(15,217,41)" fill-opacity="0.500"/>
    <rect x="1" y="0" width="1" height="1" fill="rgb(89,151,92)" fill-opacity="0.500"/>
    <rect x="2" y="0" width="1" height="1" fill="rgb(15,254,146)" fill-opacity="0.500"/>
    <rect x="3" y="0" width="1" height="1" fill="rgb(44,218,94)" fill-opacity="0.500"/>
    <rect x="4" y="0" width="1" height="1" fill="rgb(18,135,9)" fill-opacity="0.500"/>
    <rect x="5" y="0" width="1" height="1" fill="rgb(104,173,49)" fill-opacity="0.500"/>
    <rect x="6" y="0" width="1" height="1" fill="rgb(74,144,44)" fill-opacity="0.500"/>
    <rect x="6" y="1" width="1" height="1" fill="rgb(87,193,169)" fill-opacity="0.500"/>
    <rect x="0" y="2" width="1" height="1" fill="rgb(104,191,97)" fill-opacity="0.500"/>
    <rect x="1" y="2" width="1" height="1" fill="rgb(23,211,142)" fill-opacity="0.500"/>
    <rect x="2" y="2" width="1" height="1" fill="rgb(26,166,147)" fill-opacity="0.500"/>
    <rect x="3" y="2" width="1" height="1" fill="rgb(78,196,14)" fill-opacity="0.500"/>
    <rect x="4" y="2" width="1" height="1" fill="rgb(74,252,2)" fill-opacity="0.500"/>
    <rect x="6" y="2" width="1" height="1" fill="rgb(22,215,190)" fill-opacity="0.500"/>
    <rect x="0" y="3" width="1" height="1" fill="rgb(53,140,178)" fill-opacity="0.500"/>
    <rect x="4" y="3" width="1" height="1" fill="rgb(66,255,35)" fill-opacity="0.500"/>
    <rect x="6" y="3" width="1" height="1" fill="rgb(19,222,71)" fill-opacity="0.500"/>
    <rect x="0" y="4" width="1" height="1" fill="rgb(9,129,168)" fill-opacity="0.500"/>
    <rect x="2" y="4" width="1" height="1" fill="rgb(24,134,149)" fill-opacity="0.500"/>
    <rect x="3" y="4" width="1" height="1" fill="rgb(72,159,58)" fill-opacity="0.500"/>
    <rect x="4" y="4" width="1" height="1" fill="rgb(5,234,161)" fill-opacity="0.500"/>
    <rect x="6" y="4" width="1" height="1" fill="rgb(88,132,147)" fill-opacity="0.500"/>
    <rect x="0" y="5" width="1" height="1" fill="rgb(51,201,90)" fill-opacity="0.500"/>
    <rect x="2" y="5" width="1" height="1" fill="rgb(48,229,141)" fill-opacity="0.500"/>
    <rect x="4" y="5" width="1" height="1" fill="rgb(36,231,95)" fill-opacity="0.500"/>
    <rect x="6" y="5" width="1" height="1" fill="rgb(82,202,139)" fill-opacity="0.500"/>
    <rect x="0" y="6" width="1" height="1" fill="rgb(57,146,23)" fill-opacity="0.500"/>
    <rect x="2" y="6" width="1" height="1" fill="rgb(43,182,55)" fill-opacity="0.500"/>
    <rect x="3" y="6" width="1" height="1" fill="rgb(123,255,32)" fill-opacity="0.500"/>
    <rect x="4" y="6" width="1" height="1" fill="rgb(73,247,105)" fill-opacity="0.500"/>
    <rect x="6" y="6" width="1" height="1" fill="rgb(86,205,51)" fill-opacity="0.500"/>
    <rect x="0" y="7" width="1" height="1" fill="rgb(63,198,62)" fill-opacity="0.500"/>
    <rect x="6" y="7" width="1" height="1" fill="rgb(81,246,32)" fill-opacity="0.500"/>
    <rect x="0" y="8" width="1" height="1" fill="rgb(106,248,128)" fill-opacity="0.500"/>
    <rect x="1" y="8" width="1" height="1" fill="rgb(93,225,144)" fill-opacity="0.500"/>
    <rect x="2" y="8" width="1" height="1" fill="rgb(78,206,31)" fill-opacity="0.500"/>
    <rect x="3" y="8" width="1" height="1" fill="rgb(18,135,72)" fill-opacity="0.500"/>
    <rect x="4" y="8" width="1" height="1" fill="rgb(115,143,92)" fill-opacity="0.500"/>
    <rect x="5" y="8" width="1" height="1" fill="rgb(11,186,185)" fill-opacity="0.500"/>
    <rect x="6" y="8" width="1" height="1" fill="rgb(75,174,34)" fill-opacity="0.500"/>
  </g>
</svg>
