<?xml version="1.0" encoding="UTF-8"?>
<svg xmlns="http://www.w3.org/2000/svg" width="120" height="216" viewBox="0 0 5 9" shape-rendering="crispEdges">
  <title>U+2630 (☰)</title>
  
  <g>
    <rect x="0" y="1" width="1" height="1" fill="rgb(28,164,172)" fill-opacity="0.500"/>
    <rect x="1" y="1" width="1" height="1" fill="rgb(120,211,67)" fill-opacity="0.500"/>
    <rect x="2" y="1" width="1" height="1" fill="rgb(33,160,7)" fill-opacity="0.500"/>
    <rect x="3" y="1" width="1" height="1" fill="rgb(25,233,77)" fill-opacity="0.500"/>
    <rect x="4" y="1" width="1" height="1" fill="rgb(63,149,150)" fill-opacity="0.500"/>
    <rect x="0" y="4" width="1" height="1" fill="rgb(86,168,167)" fill-opacity="0.500"/>
    <rect x="1" y="4" width="1" height="1" fill="rgb(58,199,154)" fill-opacity="0.500"/>
    <rect x="2" y="4" width="1" height="1" fill="rgb(39,221,141)" fill-opacity="0.500"/>
    <rect x="3" y="4" width="1" height="1" fill="rgb(84,222,185)" fill-opacity="0.500"/>
    <rect x="4" y="4" width="1" height="1" fill="rgb(61,146,17)" fill-opacity="0.500"/>
    <rect x="0" y="7" width="1" height="1" fill="rgb(16,230,77)" fill-opacity="0.500"/>
    <rect x="1" y="7" width="1" height="1" fill="rgb(3,189,27)" fill-opacity="0.500"/>
    <rect x="2" y="7" width="1" height="1" fill="rgb(81,237,53)" fill-opacity="0.500"/>
    <rect x="3" y="7" width="1" height="1" fill="rgb(3,248,111)" fill-opacity="0.500"/>
    <rect x="4" y="7" width="1" height="1" fill="rgb(35,232,130)" fill-opacity="0.500"/>
  </g>
</svg>
