<?xml version="1.0" encoding="UTF-8"?>
<svg xmlns="http://www.w3.org/2000/svg" width="120" height="216" viewBox="0 0 5 9" shape-rendering="crispEdges">
  <title>U+05D4 (ה)</title>
  
  <g>
    <rect x="0" y="0" width="1" height="1" fill="rgb(81,229,69)" fill-opacity="0.500"/>
    <rect x="1" y="0" width="1" height="1" fill="rgb(46,219,25)" fill-opacity="0.500"/>
    <rect x="2" y="0" width="1" height="1" fill="rgb(82,163,26)" fill-opacity="0.500"/>
    <rect x="3" y="0" width="1" height="1" fill="rgb(86,229,141)" fill-opacity="0.500"/>
    <rect x="4" y="0" width="1" height="1" fill="rgb(118,243,6)" fill-opacity="0.500"/>
    <rect x="4" y="1" width="1" height="1" fill="rgb(117,249,160)" fill-opacity="0.500"/>
    <rect x="1" y="2" width="1" height="1" fill="rgb(86,225,72)" fill-opacity="0.500"/>
    <rect x="2" y="2" width="1" height="1" fill="rgb(127,229,134)" fill-opacity="0.500"/>
    <rect x="3" y="2" width="1" height="1" fill="rgb(121,141,178)" fill-opacity="0.500"/>
    <rect x="4" y="2" width="1" height="1" fill="rgb(15,178,8)" fill-opacity="0.500"/>
    <rect x="1" y="3" width="1" height="1" fill="rgb(80,243,25)" fill-opacity="0.500"/>
    <rect x="4" y="3" width="1" height="1" fill="rgb(89,184,58)" fill-opacity="0.500"/>
    <rect x="1" y="4" width="1" height="1" fill="rgb(4,213,111)" fill-opacity="0.500"/>
    <rect x="4" y="4" width="1" height="1" fill="rgb(70,252,152)" fill-opacity="0.500"/>
    <rect x="1" y="5" width="1" height="1" fill="rgb(36,196,174)" fill-opacity="0.500"/>
    <rect x="4" y="5" width="1" height="1" fill="rgb(79,216,102)" fill-opacity="0.500"/>
    <rect x="1" y="6" width="1" height="1" fill="rgb(115,199,100)" fill-opacity="0.500"/>
    <rect x="4" y="6" width="1" height="1" fill="rgb(63,229,169)" fill-opacity="0.500"/>
  </g>
</svg>
