<?xml version="1.0" encoding="UTF-8"?>
<svg xmlns="http://www.w3.org/2000/svg" width="96" height="216" viewBox="0 0 4 9" shape-rendering="crispEdges">
  <title>U+0426 (Ц)</title>
  
  <g>
    <rect x="0" y="0" width="1" height="1" fill="rgb(69,220,189)" fill-opacity="0.500"/>
    <rect x="2" y="0" width="1" height="1" fill="rgb(117,139,0)" fill-opacity="0.500"/>
    <rect x="0" y="1" width="1" height="1" fill="rgb(114,148,75)" fill-opacity="0.500"/>
    <rect x="2" y="1" width="1" height="1" fill="rgb(11,168,66)" fill-opacity="0.500"/>
    <rect x="0" y="2" width="1" height="1" fill="rgb(18,174,165)" fill-opacity="0.500"/>
    <rect x="2" y="2" width="1" height="1" fill="rgb(102,161,43)" fill-opacity="0.500"/>
    <rect x="0" y="3" width="1" height="1" fill="rgb(100,147,79)" fill-opacity="0.500"/>
    <rect x="2" y="3" width="1" height="1" fill="rgb(39,230,29)" fill-opacity="0.500"/>
    <rect x="0" y="4" width="1" height="1" fill="rgb(58,162,77)" fill-opacity="0.500"/>
    <rect x="2" y="4" width="1" height="1" fill="rgb(86,207,177)" fill-opacity="0.500"/>
    <rect x="0" y="5" width="1" height="1" fill="rgb(73,183,168)" fill-opacity="0.500"/>
    <rect x="2" y="5" width="1" height="1" fill="rgb(31,181,107)" fill-opacity="0.500"/>
    <rect x="0" y="6" width="1" height="1" fill="rgb(0,243,173)" fill-opacity="0.500"/>
    <rect x="1" y="6" width="1" height="1" fill="rgb(121,163,81)" fill-opacity="0.500"/>
    <rect x="2" y="6" width="1" height="1" fill="rgb(107,224,20)" fill-opacity="0.500"/>
    <rect x="2" y="7" width="1" height="1" fill="rgb(90,155,121)" fill-opacity="0.500"/>
    <rect x="3" y="7" width="1" height="1" fill="rgb(76,227,120)" fill-opacity="0.500"/>
  </g>
</svg>
