<?xml version="1.0" encoding="UTF-8"?>
<svg xmlns="http://www.w3.org/2000/svg" width="216" height="216" viewBox="0 0 9 9" shape-rendering="crispEdges">
  <title>U+2194 (↔)</title>
  
  <g>
    <rect x="2" y="2" width="1" height="1" fill="rgb(18,166,62)" fill-opacity="0.500"/>
    <rect x="6" y="2" width="1" height="1" fill="rgb(87,135,159)" fill-opacity="0.500"/>
    <rect x="1" y="3" width="1" height="1" fill="rgb(5,209,1)" fill-opacity="0.500"/>
    <rect x="7" y="3" width="1" height="1" fill="rgb(98,215,88)" fill-opacity="0.500"/>
    <rect x="0" y="4" width="1" height="1" fill="rgb(114,254,82)" fill-opacity="0.500"/>
    <rect x="1" y="4" width="1" height="1" fill="rgb(31,182,13)" fill-opacity="0.500"/>
    <rect x="2" y="4" width="1" height="1" fill="rgb(12,203,97)" fill-opacity="0.500"/>
    <rect x="3" y="4" width="1" height="1" fill="rgb(15,241,76)" fill-opacity="0.500"/>
    <rect x="4" y="4" width="1" height="1" fill="rgb(12,196,132)" fill-opacity="0.500"/>
    <rect x="5" y="4" width="1" height="1" fill="rgb(87,207,150)" fill-opacity="0.500"/>
    <rect x="6" y="4" width="1" height="1" fill="rgb(17,234,158)" fill-opacity="0.500"/>
    <rect x="7" y="4" width="1" height="1" fill="rgb(103,205,179)" fill-opacity="0.500"/>
    <rect x="8" y="4" width="1" height="1" fill="rgb(56,215,118)" fill-opacity="0.500"/>
    <rect x="1" y="5" width="1" height="1" fill="rgb(27,192,3)" fill-opacity="0.500"/>
    <rect x="7" y="5" width="1" height="1" fill="rgb(43,229,160)" fill-opacity="0.500"/>
    <rect x="2" y="6" width="1" height="1" fill="rgb(79,128,99)" fill-opacity="0.500"/>
    <rect x="6" y="6" width="1" height="1" fill="rgb(92,132,130)" fill-opacity="0.500"/>
  </g>
</svg>
