<?xml version="1.0" encoding="UTF-8"?>
<svg xmlns="http://www.w3.org/2000/svg" width="72" height="216" viewBox="0 0 3 9" shape-rendering="crispEdges">
  <title>U+0041 (A)</title>
  
  <g>
    <rect x="0" y="0" width="1" height="1" fill="rgb(94,136,8)" fill-opacity="0.500"/>
    <rect x="1" y="0" width="1" height="1" fill="rgb(39,198,185)" fill-opacity="0.500"/>
    <rect x="2" y="0" width="1" height="1" fill="rgb(34,175,107)" fill-opacity="0.500"/>
    <rect x="0" y="1" width="1" height="1" fill="rgb(82,214,95)" fill-opacity="0.500"/>
    <rect x="2" y="1" width="1" height="1" fill="rgb(26,202,121)" fill-opacity="0.500"/>
    <rect x="0" y="2" width="1" height="1" fill="rgb(38,205,45)" fill-opacity="0.500"/>
    <rect x="2" y="2" width="1" height="1" fill="rgb(101,138,111)" fill-opacity="0.500"/>
    <rect x="0" y="3" width="1" height="1" fill="rgb(101,214,17)" fill-opacity="0.500"/>
    <rect x="1" y="3" width="1" height="1" fill="rgb(41,174,114)" fill-opacity="0.500"/>
    <rect x="2" y="3" width="1" height="1" fill="rgb(118,146,143)" fill-opacity="0.500"/>
    <rect x="0" y="4" width="1" height="1" fill="rgb(69,198,107)" fill-opacity="0.500"/>
    <rect x="2" y="4" width="1" height="1" fill="rgb(116,230,93)" fill-opacity="0.500"/>
    <rect x="0" y="5" width="1" height="1" fill="rgb(56,214,148)" fill-opacity="0.500"/>
    <rect x="2" y="5" width="1" height="1" fill="rgb(11,149,14)" fill-opacity="0.500"/>
    <rect x="0" y="6" width="1" height="1" fill="rgb(71,224,183)" fill-opacity="0.500"/>
    <rect x="2" y="6" width="1" height="1" fill="rgb(18,168,64)" fill-opacity="0.500"/>
  </g>
</svg>
