<?xml version="1.0" encoding="UTF-8"?>
<svg xmlns="http://www.w3.org/2000/svg" width="120" height="216" viewBox="0 0 5 9" shape-rendering="crispEdges">
  <title>U+2665 (♥)</title>
  
  <g>
    <rect x="1" y="2" width="1" height="1" fill="rgb(36,183,155)" fill-opacity="0.500"/>
    <rect x="3" y="2" width="1" height="1" fill="rgb(29,170,81)" fill-opacity="0.500"/>
    <rect x="0" y="3" width="1" height="1" fill="rgb(114,141,20)" fill-opacity="0.500"/>
    <rect x="1" y="3" width="1" height="1" fill="rgb(76,244,145)" fill-opacity="0.500"/>
    <rect x="2" y="3" width="1" height="1" fill="rgb(28,252,35)" fill-opacity="0.500"/>
    <rect x="3" y="3" width="1" height="1" fill="rgb(15,250,83)" fill-opacity="0.500"/>
    <rect x="4" y="3" width="1" height="1" fill="rgb(110,225,74)" fill-opacity="0.500"/>
    <rect x="0" y="4" width="1" height="1" fill="rgb(2,175,23)" fill-opacity="0.500"/>
    <rect x="1" y="4" width="1" height="1" fill="rgb(115,164,92)" fill-opacity="0.500"/>
    <rect x="2" y="4" width="1" height="1" fill="rgb(4,146,140)" fill-opacity="0.500"/>
    <rect x="3" y="4" width="1" height="1" fill="rgb(51,244,191)" fill-opacity="0.500"/>
    <rect x="4" y="4" width="1" height="1" fill="rgb(21,194,90)" fill-opacity="0.500"/>
    <rect x="1" y="5" width="1" height="1" fill="rgb(44,159,174)" fill-opacity="0.500"/>
    <rect x="2" y="5" width="1" height="1" fill="rgb(41,203,118)" fill-opacity="0.500"/>
    <rect x="3" y="5" width="1" height="1" fill="rgb(8,206,68)" fill-opacity="0.500"/>
    <rect x="2" y="6" width="1" height="1" fill="rgb(22,248,112)" fill-opacity="0.500"/>
  </g>
</svg>
