<?xml version="1.0" encoding="UTF-8"?>
<svg xmlns="http://www.w3.org/2000/svg" width="72" height="216" viewBox="0 0 3 9" shape-rendering="crispEdges">
  <title>U+0041 (A)</title>
  
  <g>
    <rect x="0" y="0" width="1" height="1" fill="rgb(66,147,47)" fill-opacity="0.500"/>
    <rect x="1" y="0" width="1" height="1" fill="rgb(58,151,185)" fill-opacity="0.500"/>
    <rect x="2" y="0" width="1" height="1" fill="rgb(59,241,92)" fill-opacity="0.500"/>
    <rect x="0" y="1" width="1" height="1" fill="rgb(52,161,13)" fill-opacity="0.500"/>
    <rect x="2" y="1" width="1" height="1" fill="rgb(52,160,118)" fill-opacity="0.500"/>
    <rect x="0" y="2" width="1" height="1" fill="rgb(96,177,44)" fill-opacity="0.500"/>
    <rect x="2" y="2" width="1" height="1" fill="rgb(85,131,38)" fill-opacity="0.500"/>
    <rect x="0" y="3" width="1" height="1" fill="rgb(0,163,156)" fill-opacity="0.500"/>
    <rect x="1" y="3" width="1" height="1" fill="rgb(22,218,98)" fill-opacity="0.500"/>
    <rect x="2" y="3" width="1" height="1" fill="rgb(5,248,34)" fill-opacity="0.500"/>
    <rect x="0" y="4" width="1" height="1" fill="rgb(65,228,119)" fill-opacity="0.500"/>
    <rect x="2" y="4" width="1" height="1" fill="rgb(7,214,171)" fill-opacity="0.500"/>
    <rect x="0" y="5" width="1" height="1" fill="rgb(112,191,23)" fill-opacity="0.500"/>
    <rect x="2" y="5" width="1" height="1" fill="rgb(73,231,109)" fill-opacity="0.500"/>
    <rect x="0" y="6" width="1" height="1" fill="rgb(71,242,171)" fill-opacity="0.500"/>
    <rect x="2" y="6" width="1" height="1" fill="rgb(80,172,57)" fill-opacity="0.500"/>
  </g>
</svg>
