<?xml version="1.0" encoding="UTF-8"?>
<svg xmlns="http://www.w3.org/2000/svg" width="120" height="216" viewBox="0 0 5 9" shape-rendering="crispEdges">
  <title>U+042B (Ы)</title>
  
  <g>
    <rect x="0" y="0" width="1" height="1" fill="rgb(69,208,89)" fill-opacity="0.500"/>
    <rect x="4" y="0" width="1" height="1" fill="rgb(52,208,71)" fill-opacity="0.500"/>
    <rect x="0" y="1" width="1" height="1" fill="rgb(40,144,2)" fill-opacity="0.500"/>
    <rect x="4" y="1" width="1" height="1" fill="rgb(21,250,140)" fill-opacity="0.500"/>
    <rect x="0" y="2" width="1" height="1" fill="rgb(72,165,53)" fill-opacity="0.500"/>
    <rect x="4" y="2" width="1" height="1" fill="rgb(123,188,76)" fill-opacity="0.500"/>
    <rect x="0" y="3" width="1" height="1" fill="rgb(99,191,28)" fill-opacity="0.500"/>
    <rect x="1" y="3" width="1" height="1" fill="rgb(102,226,131)" fill-opacity="0.500"/>
    <rect x="4" y="3" width="1" height="1" fill="rgb(113,168,139)" fill-opacity="0.500"/>
    <rect x="0" y="4" width="1" height="1" fill="rgb(75,255,173)" fill-opacity="0.500"/>
    <rect x="2" y="4" width="1" height="1" fill="rgb(31,231,180)" fill-opacity="0.500"/>
    <rect x="4" y="4" width="1" height="1" fill="rgb(57,254,141)" fill-opacity="0.500"/>
    <rect x="0" y="5" width="1" height="1" fill="rgb(23,240,1)" fill-opacity="0.500"/>
    <rect x="2" y="5" width="1" height="1" fill="rgb(46,235,85)" fill-opacity="0.500"/>
    <rect x="4" y="5" width="1" height="1" fill="rgb(0,164,154)" fill-opacity="0.500"/>
    <rect x="0" y="6" width="1" height="1" fill="rgb(9,253,20)" fill-opacity="0.500"/>
    <rect x="1" y="6" width="1" height="1" fill="rgb(37,200,60)" fill-opacity="0.500"/>
    <rect x="4" y="6" width="1" height="1" fill="rgb(65,168,18)" fill-opacity="0.500"/>
  </g>
</svg>
