<?xml version="1.0" encoding="UTF-8"?>
<svg xmlns="http://www.w3.org/2000/svg" width="120" height="216" viewBox="0 0 5 9" shape-rendering="crispEdges">
  <title>U+0057 (W)</title>
  
  <g>
    <rect x="0" y="0" width="1" height="1" fill="rgb(126,174,158)" fill-opacity="0.500"/>
    <rect x="2" y="0" width="1" height="1" fill="rgb(6,169,120)" fill-opacity="0.500"/>
    <rect x="4" y="0" width="1" height="1" fill="rgb(8,153,154)" fill-opacity="0.500"/>
    <rect x="0" y="1" width="1" height="1" fill="rgb(60,151,59)" fill-opacity="0.500"/>
    <rect x="2" y="1" width="1" height="1" fill="rgb(47,233,84)" fill-opacity="0.500"/>
    <rect x="4" y="1" width="1" height="1" fill="rgb(119,148,62)" fill-opacity="0.500"/>
    <rect x="0" y="2" width="1" height="1" fill="rgb(48,246,88)" fill-opacity="0.500"/>
    <rect x="2" y="2" width="1" height="1" fill="rgb(118,160,122)" fill-opacity="0.500"/>
    <rect x="4" y="2" width="1" height="1" fill="rgb(54,159,31)" fill-opacity="0.500"/>
    <rect x="0" y="3" width="1" height="1" fill="rgb(58,208,27)" fill-opacity="0.500"/>
    <rect x="2" y="3" width="1" height="1" fill="rgb(66,201,2)" fill-opacity="0.500"/>
    <rect x="4" y="3" width="1" height="1" fill="rgb(116,214,60)" fill-opacity="0.500"/>
    <rect x="0" y="4" width="1" height="1" fill="rgb(27,244,119)" fill-opacity="0.500"/>
    <rect x="2" y="4" width="1" height="1" fill="rgb(62,199,65)" fill-opacity="0.500"/>
    <rect x="4" y="4" width="1" height="1" fill="rgb(87,167,150)" fill-opacity="0.500"/>
    <rect x="0" y="5" width="1" height="1" fill="rgb(100,159,32)" fill-opacity="0.500"/>
    <rect x="2" y="5" width="1" height="1" fill="rgb(1,223,16)" fill-opacity="0.500"/>
    <rect x="4" y="5" width="1" height="1" fill="rgb(111,234,127)" fill-opacity="0.500"/>
    <rect x="0" y="6" width="1" height="1" fill="rgb(15,186,158)" fill-opacity="0.500"/>
    <rect x="1" y="6" width="1" height="1" fill="rgb(100,175,111)" fill-opacity="0.500"/>
    <rect x="2" y="6" width="1" height="1" fill="rgb(26,167,6)" fill-opacity="0.500"/>
    <rect x="3" y="6" width="1" height="1" fill="rgb(103,211,122)" fill-opacity="0.500"/>
    <rect x="4" y="6" width="1" height="1" fill="rgb(94,159,135)" fill-opacity="0.500"/>
  </g>
</svg>
