<?xml version="1.0" encoding="UTF-8"?>
<svg xmlns="http://www.w3.org/2000/svg" width="96" height="216" viewBox="0 0 4 9" shape-rendering="crispEdges">
  <title>U+042D (Э)</title>
  
  <g>
    <rect x="0" y="0" width="1" height="1" fill="rgb(85,230,116)" fill-opacity="0.500"/>
    <rect x="1" y="0" width="1" height="1" fill="rgb(84,247,59)" fill-opacity="0.500"/>
    <rect x="2" y="0" width="1" height="1" fill="rgb(97,187,18)" fill-opacity="0.500"/>
    <rect x="3" y="0" width="1" height="1" fill="rgb(38,169,181)" fill-opacity="0.500"/>
    <rect x="3" y="1" width="1" height="1" fill="rgb(88,239,22)" fill-opacity="0.500"/>
    <rect x="3" y="2" width="1" height="1" fill="rgb(87,242,146)" fill-opacity="0.500"/>
    <rect x="1" y="3" width="1" height="1" fill="rgb(26,226,149)" fill-opacity="0.500"/>
    <rect x="2" y="3" width="1" height="1" fill="rgb(5,196,63)" fill-opacity="0.500"/>
    <rect x="3" y="3" width="1" height="1" fill="rgb(29,229,148)" fill-opacity="0.500"/>
    <rect x="3" y="4" width="1" height="1" fill="rgb(90,250,38)" fill-opacity="0.500"/>
    <rect x="3" y="5" width="1" height="1" fill="rgb(112,216,136)" fill-opacity="0.500"/>
    <rect x="0" y="6" width="1" height="1" fill="rgb(100,227,119)" fill-opacity="0.500"/>
    <rect x="1" y="6" width="1" height="1" fill="rgb(112,198,92)" fill-opacity="0.500"/>
    <rect x="2" y="6" width="1" height="1" fill="rgb(15,177,174)" fill-opacity="0.500"/>
    <rect x="3" y="6" width="1" height="1" fill="rgb(89,150,133)" fill-opacity="0.500"/>
  </g>
</svg>
