<?xml version="1.0" encoding="UTF-8"?>
<svg xmlns="http://www.w3.org/2000/svg" width="120" height="216" viewBox="0 0 5 9" shape-rendering="crispEdges">
  <title>U+05E1 (ס)</title>
  
  <g fill="black">
    <rect x="1" y="0" width="1" height="1"/>
    <rect x="2" y="0" width="1" height="1"/>
    <rect x="3" y="0" width="1" height="1"/>
    <rect x="0" y="1" width="1" height="1"/>
    <rect x="4" y="1" width="1" height="1"/>
    <rect x="0" y="2" width="1" height="1"/>
    <rect x="4" y="2" width="1" height="1"/>
    <rect x="0" y="3" width="1" height="1"/>
    <rect x="4" y="3" width="1" height="1"/>
    <rect x="0" y="4" width="1" height="1"/>
    <rect x="4" y="4" width="1" height="1"/>
    <rect x="0" y="5" width="1" height="1"/>
    <rect x="4" y="5" width="1" height="1"/>
    <rect x="1" y="6" width="1" height="1"/>
    <rect x="2" y="6" width="1" height="1"/>
    <rect x="3" y="6" width="1" height="1"/>
  </g>
</svg>
