<?xml version="1.0" encoding="UTF-8"?>
<svg xmlns="http://www.w3.org/2000/svg" width="96" height="216" viewBox="0 0 4 9" shape-rendering="crispEdges">
  <title>U+0414 (Д)</title>
  
  <g>
    <rect x="1" y="0" width="1" height="1" fill="rgb(127,218,74)" fill-opacity="0.500"/>
    <rect x="2" y="0" width="1" height="1" fill="rgb(26,194,40)" fill-opacity="0.500"/>
    <rect x="0" y="1" width="1" height="1" fill="rgb(126,209,121)" fill-opacity="0.500"/>
    <rect x="3" y="1" width="1" height="1" fill="rgb(120,164,93)" fill-opacity="0.500"/>
    <rect x="0" y="2" width="1" height="1" fill="rgb(92,249,138)" fill-opacity="0.500"/>
    <rect x="3" y="2" width="1" height="1" fill="rgb(58,246,117)" fill-opacity="0.500"/>
    <rect x="0" y="3" width="1" height="1" fill="rgb(53,208,44)" fill-opacity="0.500"/>
    <rect x="3" y="3" width="1" height="1" fill="rgb(63,171,79)" fill-opacity="0.500"/>
    <rect x="0" y="4" width="1" height="1" fill="rgb(55,243,98)" fill-opacity="0.500"/>
    <rect x="3" y="4" width="1" height="1" fill="rgb(83,145,109)" fill-opacity="0.500"/>
    <rect x="0" y="5" width="1" height="1" fill="rgb(126,178,185)" fill-opacity="0.500"/>
    <rect x="3" y="5" width="1" height="1" fill="rgb(20,240,188)" fill-opacity="0.500"/>
    <rect x="0" y="6" width="1" height="1" fill="rgb(89,192,66)" fill-opacity="0.500"/>
    <rect x="1" y="6" width="1" height="1" fill="rgb(40,183,141)" fill-opacity="0.500"/>
    <rect x="2" y="6" width="1" height="1" fill="rgb(94,149,84)" fill-opacity="0.500"/>
    <rect x="3" y="6" width="1" height="1" fill="rgb(21,149,134)" fill-opacity="0.500"/>
    <rect x="0" y="7" width="1" height="1" fill="rgb(100,150,109)" fill-opacity="0.500"/>
    <rect x="3" y="7" width="1" height="1" fill="rgb(84,201,137)" fill-opacity="0.500"/>
  </g>
</svg>
