<?xml version="1.0" encoding="UTF-8"?>
<svg xmlns="http://www.w3.org/2000/svg" width="120" height="216" viewBox="0 0 5 9" shape-rendering="crispEdges">
  <title>U+0647 (ه)</title>
  
  <g>
    <rect x="1" y="1" width="1" height="1" fill="rgb(122,180,135)" fill-opacity="0.500"/>
    <rect x="2" y="1" width="1" height="1" fill="rgb(87,192,80)" fill-opacity="0.500"/>
    <rect x="3" y="1" width="1" height="1" fill="rgb(2,136,93)" fill-opacity="0.500"/>
    <rect x="0" y="2" width="1" height="1" fill="rgb(118,231,120)" fill-opacity="0.500"/>
    <rect x="4" y="2" width="1" height="1" fill="rgb(68,245,144)" fill-opacity="0.500"/>
    <rect x="0" y="3" width="1" height="1" fill="rgb(8,247,66)" fill-opacity="0.500"/>
    <rect x="2" y="3" width="1" height="1" fill="rgb(51,130,168)" fill-opacity="0.500"/>
    <rect x="4" y="3" width="1" height="1" fill="rgb(41,253,157)" fill-opacity="0.500"/>
    <rect x="0" y="4" width="1" height="1" fill="rgb(98,191,182)" fill-opacity="0.500"/>
    <rect x="4" y="4" width="1" height="1" fill="rgb(0,240,120)" fill-opacity="0.500"/>
    <rect x="0" y="5" width="1" height="1" fill="rgb(6,253,22)" fill-opacity="0.500"/>
    <rect x="4" y="5" width="1" height="1" fill="rgb(62,170,190)" fill-opacity="0.500"/>
    <rect x="1" y="6" width="1" height="1" fill="rgb(71,150,113)" fill-opacity="0.500"/>
    <rect x="2" y="6" width="1" height="1" fill="rgb(41,219,89)" fill-opacity="0.500"/>
    <rect x="3" y="6" width="1" height="1" fill="rgb(62,167,175)" fill-opacity="0.500"/>
  </g>
</svg>
