<?xml version="1.0" encoding="UTF-8"?>
<svg xmlns="http://www.w3.org/2000/svg" width="168" height="216" viewBox="0 0 7 9" shape-rendering="crispEdges">
  <title>U+203B (※)</title>
  
  <g>
    <rect x="0" y="0" width="1" height="1" fill="rgb(23,201,78)" fill-opacity="0.500"/>
    <rect x="3" y="0" width="1" height="1" fill="rgb(40,160,15)" fill-opacity="0.500"/>
    <rect x="6" y="0" width="1" height="1" fill="rgb(53,215,93)" fill-opacity="0.500"/>
    <rect x="1" y="1" width="1" height="1" fill="rgb(122,223,175)" fill-opacity="0.500"/>
    <rect x="5" y="1" width="1" height="1" fill="rgb(35,201,180)" fill-opacity="0.500"/>
    <rect x="2" y="2" width="1" height="1" fill="rgb(13,171,15)" fill-opacity="0.500"/>
    <rect x="4" y="2" width="1" height="1" fill="rgb(107,249,132)" fill-opacity="0.500"/>
    <rect x="0" y="3" width="1" height="1" fill="rgb(50,209,183)" fill-opacity="0.500"/>
    <rect x="3" y="3" width="1" height="1" fill="rgb(39,130,111)" fill-opacity="0.500"/>
    <rect x="6" y="3" width="1" height="1" fill="rgb(115,244,92)" fill-opacity="0.500"/>
    <rect x="2" y="4" width="1" height="1" fill="rgb(64,200,59)" fill-opacity="0.500"/>
    <rect x="4" y="4" width="1" height="1" fill="rgb(79,158,110)" fill-opacity="0.500"/>
    <rect x="1" y="5" width="1" height="1" fill="rgb(56,166,161)" fill-opacity="0.500"/>
    <rect x="5" y="5" width="1" height="1" fill="rgb(93,130,42)" fill-opacity="0.500"/>
    <rect x="0" y="6" width="1" height="1" fill="rgb(48,143,126)" fill-opacity="0.500"/>
    <rect x="3" y="6" width="1" height="1" fill="rgb(116,219,13)" fill-opacity="0.500"/>
    <rect x="6" y="6" width="1" height="1" fill="rgb(97,169,48)" fill-opacity="0.500"/>
  </g>
</svg>
