<?xml version="1.0" encoding="UTF-8"?>
<svg xmlns="http://www.w3.org/2000/svg" width="120" height="216" viewBox="0 0 5 9" shape-rendering="crispEdges">
  <title>U+05D7 (ח)</title>
  
  <g>
    <rect x="0" y="0" width="1" height="1" fill="rgb(100,191,164)" fill-opacity="0.500"/>
    <rect x="1" y="0" width="1" height="1" fill="rgb(4,209,5)" fill-opacity="0.500"/>
    <rect x="2" y="0" width="1" height="1" fill="rgb(124,228,33)" fill-opacity="0.500"/>
    <rect x="3" y="0" width="1" height="1" fill="rgb(95,248,177)" fill-opacity="0.500"/>
    <rect x="4" y="0" width="1" height="1" fill="rgb(40,237,32)" fill-opacity="0.500"/>
    <rect x="0" y="1" width="1" height="1" fill="rgb(21,248,160)" fill-opacity="0.500"/>
    <rect x="4" y="1" width="1" height="1" fill="rgb(36,153,8)" fill-opacity="0.500"/>
    <rect x="0" y="2" width="1" height="1" fill="rgb(86,184,119)" fill-opacity="0.500"/>
    <rect x="4" y="2" width="1" height="1" fill="rgb(4,162,133)" fill-opacity="0.500"/>
    <rect x="0" y="3" width="1" height="1" fill="rgb(112,141,90)" fill-opacity="0.500"/>
    <rect x="4" y="3" width="1" height="1" fill="rgb(120,167,25)" fill-opacity="0.500"/>
    <rect x="0" y="4" width="1" height="1" fill="rgb(118,249,72)" fill-opacity="0.500"/>
    <rect x="4" y="4" width="1" height="1" fill="rgb(76,138,62)" fill-opacity="0.500"/>
    <rect x="0" y="5" width="1" height="1" fill="rgb(113,241,144)" fill-opacity="0.500"/>
    <rect x="4" y="5" width="1" height="1" fill="rgb(35,252,85)" fill-opacity="0.500"/>
    <rect x="0" y="6" width="1" height="1" fill="rgb(25,179,45)" fill-opacity="0.500"/>
    <rect x="4" y="6" width="1" height="1" fill="rgb(10,187,94)" fill-opacity="0.500"/>
  </g>
</svg>
