<?xml version="1.0" encoding="UTF-8"?>
<svg xmlns="http://www.w3.org/2000/svg" width="72" height="216" viewBox="0 0 3 9" shape-rendering="crispEdges">
  <title>U+041E (О)</title>
  
  <g>
    <rect x="0" y="0" width="1" height="1" fill="rgb(94,233,63)" fill-opacity="0.500"/>
    <rect x="1" y="0" width="1" height="1" fill="rgb(117,220,38)" fill-opacity="0.500"/>
    <rect x="2" y="0" width="1" height="1" fill="rgb(117,197,63)" fill-opacity="0.500"/>
    <rect x="0" y="1" width="1" height="1" fill="rgb(108,158,42)" fill-opacity="0.500"/>
    <rect x="2" y="1" width="1" height="1" fill="rgb(97,205,108)" fill-opacity="0.500"/>
    <rect x="0" y="2" width="1" height="1" fill="rgb(102,217,171)" fill-opacity="0.500"/>
    <rect x="2" y="2" width="1" height="1" fill="rgb(13,215,118)" fill-opacity="0.500"/>
    <rect x="0" y="3" width="1" height="1" fill="rgb(105,208,189)" fill-opacity="0.500"/>
    <rect x="2" y="3" width="1" height="1" fill="rgb(67,194,185)" fill-opacity="0.500"/>
    <rect x="0" y="4" width="1" height="1" fill="rgb(101,169,6)" fill-opacity="0.500"/>
    <rect x="2" y="4" width="1" height="1" fill="rgb(65,156,87)" fill-opacity="0.500"/>
    <rect x="0" y="5" width="1" height="1" fill="rgb(104,147,21)" fill-opacity="0.500"/>
    <rect x="2" y="5" width="1" height="1" fill="rgb(27,193,122)" fill-opacity="0.500"/>
    <rect x="0" y="6" width="1" height="1" fill="rgb(27,250,67)" fill-opacity="0.500"/>
    <rect x="1" y="6" width="1" height="1" fill="rgb(124,174,18)" fill-opacity="0.500"/>
    <rect x="2" y="6" width="1" height="1" fill="rgb(95,148,145)" fill-opacity="0.500"/>
  </g>
</svg>
