<?xml version="1.0" encoding="UTF-8"?>
<svg xmlns="http://www.w3.org/2000/svg" width="72" height="216" viewBox="0 0 3 9" shape-rendering="crispEdges">
  <title>.notdef</title>
  
  <g>
    <rect x="0" y="0" width="1" height="1" fill="rgb(122,167,124)" fill-opacity="0.500"/>
    <rect x="1" y="0" width="1" height="1" fill="rgb(72,190,105)" fill-opacity="0.500"/>
    <rect x="2" y="0" width="1" height="1" fill="rgb(19,227,127)" fill-opacity="0.500"/>
    <rect x="0" y="1" width="1" height="1" fill="rgb(95,248,161)" fill-opacity="0.500"/>
    <rect x="2" y="1" width="1" height="1" fill="rgb(77,192,103)" fill-opacity="0.500"/>
    <rect x="0" y="2" width="1" height="1" fill="rgb(19,214,87)" fill-opacity="0.500"/>
    <rect x="2" y="2" width="1" height="1" fill="rgb(83,175,58)" fill-opacity="0.500"/>
    <rect x="0" y="3" width="1" height="1" fill="rgb(4,158,72)" fill-opacity="0.500"/>
    <rect x="2" y="3" width="1" height="1" fill="rgb(94,198,155)" fill-opacity="0.500"/>
    <rect x="0" y="4" width="1" height="1" fill="rgb(33,236,22)" fill-opacity="0.500"/>
    <rect x="2" y="4" width="1" height="1" fill="rgb(93,160,96)" fill-opacity="0.500"/>
    <rect x="0" y="5" width="1" height="1" fill="rgb(49,189,20)" fill-opacity="0.500"/>
    <rect x="2" y="5" width="1" height="1" fill="rgb(20,220,115)" fill-opacity="0.500"/>
    <rect x="0" y="6" width="1" height="1" fill="rgb(104,168,27)" fill-opacity="0.500"/>
    <rect x="2" y="6" width="1" height="1" fill="rgb(31,218,9)" fill-opacity="0.500"/>
    <rect x="0" y="7" width="1" height="1" fill="rgb(31,194,120)" fill-opacity="0.500"/>
    <rect x="2" y="7" width="1" height="1" fill="rgb(79,155,181)" fill-opacity="0.500"/>
    <rect x="0" y="8" width="1" height="1" fill="rgb(57,164,155)" fill-opacity="0.500"/>
    <rect x="1" y="8" width="1" height="1" fill="rgb(58,128,7)" fill-opacity="0.500"/>
    <rect x="2" y="8" width="1" height="1" fill="rgb(67,182,27)" fill-opacity="0.500"/>
  </g>
</svg>
