<?xml version="1.0" encoding="UTF-8"?>
<svg xmlns="http://www.w3.org/2000/svg" width="72" height="216" viewBox="0 0 3 9" shape-rendering="crispEdges">
  <title>U+0067 (g)</title>
  
  <g>
    <rect x="0" y="2" width="1" height="1" fill="rgb(81,176,37)" fill-opacity="0.500"/>
    <rect x="1" y="2" width="1" height="1" fill="rgb(114,135,168)" fill-opacity="0.500"/>
    <rect x="2" y="2" width="1" height="1" fill="rgb(3,182,19)" fill-opacity="0.500"/>
    <rect x="0" y="3" width="1" height="1" fill="rgb(20,244,71)" fill-opacity="0.500"/>
    <rect x="2" y="3" width="1" height="1" fill="rgb(93,184,10)" fill-opacity="0.500"/>
    <rect x="0" y="4" width="1" height="1" fill="rgb(61,153,191)" fill-opacity="0.500"/>
    <rect x="2" y="4" width="1" height="1" fill="rgb(29,139,186)" fill-opacity="0.500"/>
    <rect x="0" y="5" width="1" height="1" fill="rgb(114,154,70)" fill-opacity="0.500"/>
    <rect x="2" y="5" width="1" height="1" fill="rgb(81,230,50)" fill-opacity="0.500"/>
    <rect x="0" y="6" width="1" height="1" fill="rgb(58,238,173)" fill-opacity="0.500"/>
    <rect x="1" y="6" width="1" height="1" fill="rgb(115,231,24)" fill-opacity="0.500"/>
    <rect x="2" y="6" width="1" height="1" fill="rgb(37,174,65)" fill-opacity="0.500"/>
    <rect x="2" y="7" width="1" height="1" fill="rgb(123,132,46)" fill-opacity="0.500"/>
    <rect x="0" y="8" width="1" height="1" fill="rgb(37,235,117)" fill-opacity="0.500"/>
    <rect x="1" y="8" width="1" height="1" fill="rgb(16,165,75)" fill-opacity="0.500"/>
    <rect x="2" y="8" width="1" height="1" fill="rgb(85,199,165)" fill-opacity="0.500"/>
  </g>
</svg>
