<?xml version="1.0" encoding="UTF-8"?>
<svg xmlns="http://www.w3.org/2000/svg" width="96" height="216" viewBox="0 0 4 9" shape-rendering="crispEdges">
  <title>U+042F (Я)</title>
  
  <g>
    <rect x="1" y="0" width="1" height="1" fill="rgb(6,231,185)" fill-opacity="0.500"/>
    <rect x="2" y="0" width="1" height="1" fill="rgb(40,155,136)" fill-opacity="0.500"/>
    <rect x="3" y="0" width="1" height="1" fill="rgb(39,227,29)" fill-opacity="0.500"/>
    <rect x="0" y="1" width="1" height="1" fill="rgb(121,251,38)" fill-opacity="0.500"/>
    <rect x="3" y="1" width="1" height="1" fill="rgb(55,182,186)" fill-opacity="0.500"/>
    <rect x="0" y="2" width="1" height="1" fill="rgb(85,245,81)" fill-opacity="0.500"/>
    <rect x="3" y="2" width="1" height="1" fill="rgb(31,200,178)" fill-opacity="0.500"/>
    <rect x="1" y="3" width="1" height="1" fill="rgb(61,206,27)" fill-opacity="0.500"/>
    <rect x="2" y="3" width="1" height="1" fill="rgb(97,216,16)" fill-opacity="0.500"/>
    <rect x="3" y="3" width="1" height="1" fill="rgb(45,184,83)" fill-opacity="0.500"/>
    <rect x="2" y="4" width="1" height="1" fill="rgb(18,232,87)" fill-opacity="0.500"/>
    <rect x="1" y="5" width="1" height="1" fill="rgb(92,137,36)" fill-opacity="0.500"/>
    <rect x="3" y="5" width="1" height="1" fill="rgb(112,180,52)" fill-opacity="0.500"/>
    <rect x="0" y="6" width="1" height="1" fill="rgb(7,226,134)" fill-opacity="0.500"/>
    <rect x="3" y="6" width="1" height="1" fill="rgb(88,254,188)" fill-opacity="0.500"/>
  </g>
</svg>
