<?xml version="1.0" encoding="UTF-8"?>
<svg xmlns="http://www.w3.org/2000/svg" width="120" height="216" viewBox="0 0 5 9" shape-rendering="crispEdges">
  <title>U+05D0 (א)</title>
  
  <g>
    <rect x="0" y="0" width="1" height="1" fill="rgb(70,170,190)" fill-opacity="0.500"/>
    <rect x="4" y="0" width="1" height="1" fill="rgb(41,179,84)" fill-opacity="0.500"/>
    <rect x="0" y="1" width="1" height="1" fill="rgb(25,215,142)" fill-opacity="0.500"/>
    <rect x="1" y="1" width="1" height="1" fill="rgb(83,137,182)" fill-opacity="0.500"/>
    <rect x="4" y="1" width="1" height="1" fill="rgb(83,247,24)" fill-opacity="0.500"/>
    <rect x="0" y="2" width="1" height="1" fill="rgb(95,140,177)" fill-opacity="0.500"/>
    <rect x="2" y="2" width="1" height="1" fill="rgb(89,140,63)" fill-opacity="0.500"/>
    <rect x="4" y="2" width="1" height="1" fill="rgb(112,220,27)" fill-opacity="0.500"/>
    <rect x="0" y="3" width="1" height="1" fill="rgb(21,252,159)" fill-opacity="0.500"/>
    <rect x="3" y="3" width="1" height="1" fill="rgb(124,220,13)" fill-opacity="0.500"/>
    <rect x="4" y="3" width="1" height="1" fill="rgb(127,207,76)" fill-opacity="0.500"/>
    <rect x="0" y="4" width="1" height="1" fill="rgb(80,218,156)" fill-opacity="0.500"/>
    <rect x="4" y="4" width="1" height="1" fill="rgb(39,225,78)" fill-opacity="0.500"/>
    <rect x="4" y="5" width="1" height="1" fill="rgb(97,146,136)" fill-opacity="0.500"/>
    <rect x="4" y="6" width="1" height="1" fill="rgb(66,142,110)" fill-opacity="0.500"/>
  </g>
</svg>
