<?xml version="1.0" encoding="UTF-8"?>
<svg xmlns="http://www.w3.org/2000/svg" width="120" height="216" viewBox="0 0 5 9" shape-rendering="crispEdges">
  <title>U+05D4 (ה)</title>
  
  <g>
    <rect x="0" y="0" width="1" height="1" fill="rgb(3,225,58)" fill-opacity="0.500"/>
    <rect x="1" y="0" width="1" height="1" fill="rgb(121,128,127)" fill-opacity="0.500"/>
    <rect x="2" y="0" width="1" height="1" fill="rgb(1,167,141)" fill-opacity="0.500"/>
    <rect x="3" y="0" width="1" height="1" fill="rgb(83,147,98)" fill-opacity="0.500"/>
    <rect x="4" y="0" width="1" height="1" fill="rgb(6,207,70)" fill-opacity="0.500"/>
    <rect x="4" y="1" width="1" height="1" fill="rgb(110,162,117)" fill-opacity="0.500"/>
    <rect x="1" y="2" width="1" height="1" fill="rgb(21,254,79)" fill-opacity="0.500"/>
    <rect x="2" y="2" width="1" height="1" fill="rgb(108,185,1)" fill-opacity="0.500"/>
    <rect x="3" y="2" width="1" height="1" fill="rgb(2,255,83)" fill-opacity="0.500"/>
    <rect x="4" y="2" width="1" height="1" fill="rgb(60,135,92)" fill-opacity="0.500"/>
    <rect x="1" y="3" width="1" height="1" fill="rgb(85,204,170)" fill-opacity="0.500"/>
    <rect x="4" y="3" width="1" height="1" fill="rgb(84,179,180)" fill-opacity="0.500"/>
    <rect x="1" y="4" width="1" height="1" fill="rgb(1,212,61)" fill-opacity="0.500"/>
    <rect x="4" y="4" width="1" height="1" fill="rgb(11,242,67)" fill-opacity="0.500"/>
    <rect x="1" y="5" width="1" height="1" fill="rgb(107,224,181)" fill-opacity="0.500"/>
    <rect x="4" y="5" width="1" height="1" fill="rgb(20,232,77)" fill-opacity="0.500"/>
    <rect x="1" y="6" width="1" height="1" fill="rgb(90,133,57)" fill-opacity="0.500"/>
    <rect x="4" y="6" width="1" height="1" fill="rgb(24,171,68)" fill-opacity="0.500"/>
  </g>
</svg>
