<?xml version="1.0" encoding="UTF-8"?>
<svg xmlns="http://www.w3.org/2000/svg" width="216" height="216" viewBox="0 0 9 9" shape-rendering="crispEdges">
  <title>U+2684 (⚄)</title>
  
  <g>
    <rect x="0" y="0" width="1" height="1" fill="rgb(25,237,13)" fill-opacity="0.500"/>
    <rect x="1" y="0" width="1" height="1" fill="rgb(66,217,14)" fill-opacity="0.500"/>
    <rect x="2" y="0" width="1" height="1" fill="rgb(10,188,32)" fill-opacity="0.500"/>
    <rect x="3" y="0" width="1" height="1" fill="rgb(55,176,73)" fill-opacity="0.500"/>
    <rect x="4" y="0" width="1" height="1" fill="rgb(119,174,72)" fill-opacity="0.500"/>
    <rect x="5" y="0" width="1" height="1" fill="rgb(84,144,36)" fill-opacity="0.500"/>
    <rect x="6" y="0" width="1" height="1" fill="rgb(65,234,83)" fill-opacity="0.500"/>
    <rect x="7" y="0" width="1" height="1" fill="rgb(29,227,9)" fill-opacity="0.500"/>
    <rect x="8" y="0" width="1" height="1" fill="rgb(123,240,131)" fill-opacity="0.500"/>
    <rect x="0" y="1" width="1" height="1" fill="rgb(118,167,107)" fill-opacity="0.500"/>
    <rect x="8" y="1" width="1" height="1" fill="rgb(11,203,106)" fill-opacity="0.500"/>
    <rect x="0" y="2" width="1" height="1" fill="rgb(53,207,155)" fill-opacity="0.500"/>
    <rect x="2" y="2" width="1" height="1" fill="rgb(121,187,100)" fill-opacity="0.500"/>
    <rect x="6" y="2" width="1" height="1" fill="rgb(21,186,156)" fill-opacity="0.500"/>
    <rect x="8" y="2" width="1" height="1" fill="rgb(75,241,6)" fill-opacity="0.500"/>
    <rect x="0" y="3" width="1" height="1" fill="rgb(72,213,103)" fill-opacity="0.500"/>
    <rect x="8" y="3" width="1" height="1" fill="rgb(36,188,163)" fill-opacity="0.500"/>
    <rect x="0" y="4" width="1" height="1" fill="rgb(70,185,140)" fill-opacity="0.500"/>
    <rect x="4" y="4" width="1" height="1" fill="rgb(53,189,109)" fill-opacity="0.500"/>
    <rect x="8" y="4" width="1" height="1" fill="rgb(120,157,64)" fill-opacity="0.500"/>
    <rect x="0" y="5" width="1" height="1" fill="rgb(38,210,177)" fill-opacity="0.500"/>
    <rect x="8" y="5" width="1" height="1" fill="rgb(124,180,98)" fill-opacity="0.500"/>
    <rect x="0" y="6" width="1" height="1" fill="rgb(99,153,83)" fill-opacity="0.500"/>
    <rect x="2" y="6" width="1" height="1" fill="rgb(79,253,108)" fill-opacity="0.500"/>
    <rect x="6" y="6" width="1" height="1" fill="rgb(51,152,36)" fill-opacity="0.500"/>
    <rect x="8" y="6" width="1" height="1" fill="rgb(12,180,139)" fill-opacity="0.500"/>
    <rect x="0" y="7" width="1" height="1" fill="rgb(101,196,55)" fill-opacity="0.500"/>
    <rect x="8" y="7" width="1" height="1" fill="rgb(19,191,145)" fill-opacity="0.500"/>
    <rect x="0" y="8" width="1" height="1" fill="rgb(111,178,158)" fill-opacity="0.500"/>
    <rect x="1" y="8" width="1" height="1" fill="rgb(17,162,8)" fill-opacity="0.500"/>
    <rect x="2" y="8" width="1" height="1" fill="rgb(126,228,124)" fill-opacity="0.500"/>
    <rect x="3" y="8" width="1" height="1" fill="rgb(43,240,31)" fill-opacity="0.500"/>
    <rect x="4" y="8" width="1" height="1" fill="rgb(43,244,130)" fill-opacity="0.500"/>
    <rect x="5" y="8" width="1" height="1" fill="rgb(25,186,41)" fill-opacity="0.500"/>
    <rect x="6" y="8" width="1" height="1" fill="rgb(85,245,111)" fill-opacity="0.500"/>
    <rect x="7" y="8" width="1" height="1" fill="rgb(122,217,168)" fill-opacity="0.500"/>
    <rect x="8" y="8" width="1" height="1" fill="rgb(50,248,15)" fill-opacity="0.500"/>
  </g>
</svg>
