<?xml version="1.0" encoding="UTF-8"?>
<svg xmlns="http://www.w3.org/2000/svg" width="120" height="216" viewBox="0 0 5 9" shape-rendering="crispEdges">
  <title>U+05D7 (ח)</title>
  
  <g>
    <rect x="0" y="0" width="1" height="1" fill="rgb(37,255,64)" fill-opacity="0.500"/>
    <rect x="1" y="0" width="1" height="1" fill="rgb(77,239,86)" fill-opacity="0.500"/>
    <rect x="2" y="0" width="1" height="1" fill="rgb(118,221,105)" fill-opacity="0.500"/>
    <rect x="3" y="0" width="1" height="1" fill="rgb(4,237,38)" fill-opacity="0.500"/>
    <rect x="4" y="0" width="1" height="1" fill="rgb(70,143,184)" fill-opacity="0.500"/>
    <rect x="0" y="1" width="1" height="1" fill="rgb(84,197,151)" fill-opacity="0.500"/>
    <rect x="4" y="1" width="1" height="1" fill="rgb(70,145,130)" fill-opacity="0.500"/>
    <rect x="0" y="2" width="1" height="1" fill="rgb(73,192,134)" fill-opacity="0.500"/>
    <rect x="4" y="2" width="1" height="1" fill="rgb(3,206,119)" fill-opacity="0.500"/>
    <rect x="0" y="3" width="1" height="1" fill="rgb(86,140,191)" fill-opacity="0.500"/>
    <rect x="4" y="3" width="1" height="1" fill="rgb(88,243,82)" fill-opacity="0.500"/>
    <rect x="0" y="4" width="1" height="1" fill="rgb(97,136,147)" fill-opacity="0.500"/>
    <rect x="4" y="4" width="1" height="1" fill="rgb(65,166,67)" fill-opacity="0.500"/>
    <rect x="0" y="5" width="1" height="1" fill="rgb(100,182,156)" fill-opacity="0.500"/>
    <rect x="4" y="5" width="1" height="1" fill="rgb(100,182,148)" fill-opacity="0.500"/>
    <rect x="0" y="6" width="1" height="1" fill="rgb(36,244,141)" fill-opacity="0.500"/>
    <rect x="4" y="6" width="1" height="1" fill="rgb(112,139,74)" fill-opacity="0.500"/>
  </g>
</svg>
