<?xml version="1.0" encoding="UTF-8"?>
<svg xmlns="http://www.w3.org/2000/svg" width="144" height="216" viewBox="0 0 6 9" shape-rendering="crispEdges">
  <title>U+0026 (&amp;)</title>
  
  <g>
    <rect x="4" y="0" width="1" height="1" fill="rgb(121,171,159)" fill-opacity="0.500"/>
    <rect x="4" y="1" width="1" height="1" fill="rgb(106,248,164)" fill-opacity="0.500"/>
    <rect x="0" y="2" width="1" height="1" fill="rgb(21,154,65)" fill-opacity="0.500"/>
    <rect x="1" y="2" width="1" height="1" fill="rgb(110,149,33)" fill-opacity="0.500"/>
    <rect x="2" y="2" width="1" height="1" fill="rgb(27,247,189)" fill-opacity="0.500"/>
    <rect x="4" y="2" width="1" height="1" fill="rgb(2,211,95)" fill-opacity="0.500"/>
    <rect x="5" y="2" width="1" height="1" fill="rgb(34,134,180)" fill-opacity="0.500"/>
    <rect x="0" y="3" width="1" height="1" fill="rgb(87,151,99)" fill-opacity="0.500"/>
    <rect x="2" y="3" width="1" height="1" fill="rgb(24,202,102)" fill-opacity="0.500"/>
    <rect x="4" y="3" width="1" height="1" fill="rgb(23,144,34)" fill-opacity="0.500"/>
    <rect x="0" y="4" width="1" height="1" fill="rgb(59,167,187)" fill-opacity="0.500"/>
    <rect x="1" y="4" width="1" height="1" fill="rgb(121,147,16)" fill-opacity="0.500"/>
    <rect x="2" y="4" width="1" height="1" fill="rgb(100,204,127)" fill-opacity="0.500"/>
    <rect x="4" y="4" width="1" height="1" fill="rgb(125,160,38)" fill-opacity="0.500"/>
    <rect x="0" y="5" width="1" height="1" fill="rgb(10,211,152)" fill-opacity="0.500"/>
    <rect x="4" y="5" width="1" height="1" fill="rgb(93,143,165)" fill-opacity="0.500"/>
    <rect x="0" y="6" width="1" height="1" fill="rgb(68,249,39)" fill-opacity="0.500"/>
    <rect x="1" y="6" width="1" height="1" fill="rgb(81,163,88)" fill-opacity="0.500"/>
    <rect x="2" y="6" width="1" height="1" fill="rgb(29,182,143)" fill-opacity="0.500"/>
    <rect x="3" y="6" width="1" height="1" fill="rgb(26,139,21)" fill-opacity="0.500"/>
    <rect x="4" y="6" width="1" height="1" fill="rgb(93,159,12)" fill-opacity="0.500"/>
  </g>
</svg>
