<?xml version="1.0" encoding="UTF-8"?>
<svg xmlns="http://www.w3.org/2000/svg" width="120" height="216" viewBox="0 0 5 9" shape-rendering="crispEdges">
  <title>U+05D1 (ב)</title>
  
  <g>
    <rect x="0" y="0" width="1" height="1" fill="rgb(88,192,63)" fill-opacity="0.500"/>
    <rect x="1" y="0" width="1" height="1" fill="rgb(61,177,156)" fill-opacity="0.500"/>
    <rect x="2" y="0" width="1" height="1" fill="rgb(12,144,162)" fill-opacity="0.500"/>
    <rect x="3" y="0" width="1" height="1" fill="rgb(82,233,45)" fill-opacity="0.500"/>
    <rect x="4" y="0" width="1" height="1" fill="rgb(121,193,117)" fill-opacity="0.500"/>
    <rect x="4" y="1" width="1" height="1" fill="rgb(14,166,75)" fill-opacity="0.500"/>
    <rect x="4" y="2" width="1" height="1" fill="rgb(21,156,105)" fill-opacity="0.500"/>
    <rect x="4" y="3" width="1" height="1" fill="rgb(63,159,179)" fill-opacity="0.500"/>
    <rect x="4" y="4" width="1" height="1" fill="rgb(67,195,21)" fill-opacity="0.500"/>
    <rect x="4" y="5" width="1" height="1" fill="rgb(46,147,28)" fill-opacity="0.500"/>
    <rect x="0" y="6" width="1" height="1" fill="rgb(20,128,58)" fill-opacity="0.500"/>
    <rect x="1" y="6" width="1" height="1" fill="rgb(34,170,145)" fill-opacity="0.500"/>
    <rect x="2" y="6" width="1" height="1" fill="rgb(80,183,109)" fill-opacity="0.500"/>
    <rect x="3" y="6" width="1" height="1" fill="rgb(24,228,41)" fill-opacity="0.500"/>
    <rect x="4" y="6" width="1" height="1" fill="rgb(17,178,14)" fill-opacity="0.500"/>
  </g>
</svg>
