<?xml version="1.0" encoding="UTF-8"?>
<svg xmlns="http://www.w3.org/2000/svg" width="120" height="216" viewBox="0 0 5 9" shape-rendering="crispEdges">
  <title>U+05E5 (ץ)</title>
  
  <g>
    <rect x="2" y="0" width="1" height="1" fill="rgb(32,165,47)" fill-opacity="0.500"/>
    <rect x="2" y="1" width="1" height="1" fill="rgb(126,217,186)" fill-opacity="0.500"/>
    <rect x="3" y="1" width="1" height="1" fill="rgb(100,232,189)" fill-opacity="0.500"/>
    <rect x="1" y="2" width="1" height="1" fill="rgb(82,133,1)" fill-opacity="0.500"/>
    <rect x="3" y="2" width="1" height="1" fill="rgb(101,192,151)" fill-opacity="0.500"/>
    <rect x="0" y="3" width="1" height="1" fill="rgb(103,219,128)" fill-opacity="0.500"/>
    <rect x="3" y="3" width="1" height="1" fill="rgb(43,204,118)" fill-opacity="0.500"/>
    <rect x="0" y="4" width="1" height="1" fill="rgb(40,164,91)" fill-opacity="0.500"/>
    <rect x="3" y="4" width="1" height="1" fill="rgb(37,233,152)" fill-opacity="0.500"/>
    <rect x="0" y="5" width="1" height="1" fill="rgb(86,153,183)" fill-opacity="0.500"/>
    <rect x="3" y="5" width="1" height="1" fill="rgb(24,235,177)" fill-opacity="0.500"/>
    <rect x="0" y="6" width="1" height="1" fill="rgb(3,139,134)" fill-opacity="0.500"/>
    <rect x="1" y="6" width="1" height="1" fill="rgb(96,168,6)" fill-opacity="0.500"/>
    <rect x="2" y="6" width="1" height="1" fill="rgb(78,231,116)" fill-opacity="0.500"/>
    <rect x="3" y="6" width="1" height="1" fill="rgb(119,166,69)" fill-opacity="0.500"/>
    <rect x="2" y="7" width="1" height="1" fill="rgb(43,216,174)" fill-opacity="0.500"/>
    <rect x="2" y="8" width="1" height="1" fill="rgb(65,142,129)" fill-opacity="0.500"/>
  </g>
</svg>
