<?xml version="1.0" encoding="UTF-8"?>
<svg xmlns="http://www.w3.org/2000/svg" width="120" height="216" viewBox="0 0 5 9" shape-rendering="crispEdges">
  <title>U+2630 (☰)</title>
  
  <g>
    <rect x="0" y="1" width="1" height="1" fill="rgb(95,226,101)" fill-opacity="0.500"/>
    <rect x="1" y="1" width="1" height="1" fill="rgb(114,253,46)" fill-opacity="0.500"/>
    <rect x="2" y="1" width="1" height="1" fill="rgb(84,175,63)" fill-opacity="0.500"/>
    <rect x="3" y="1" width="1" height="1" fill="rgb(16,192,78)" fill-opacity="0.500"/>
    <rect x="4" y="1" width="1" height="1" fill="rgb(122,251,120)" fill-opacity="0.500"/>
    <rect x="0" y="4" width="1" height="1" fill="rgb(113,174,143)" fill-opacity="0.500"/>
    <rect x="1" y="4" width="1" height="1" fill="rgb(12,234,18)" fill-opacity="0.500"/>
    <rect x="2" y="4" width="1" height="1" fill="rgb(107,224,72)" fill-opacity="0.500"/>
    <rect x="3" y="4" width="1" height="1" fill="rgb(88,170,3)" fill-opacity="0.500"/>
    <rect x="4" y="4" width="1" height="1" fill="rgb(124,205,157)" fill-opacity="0.500"/>
    <rect x="0" y="7" width="1" height="1" fill="rgb(19,214,72)" fill-opacity="0.500"/>
    <rect x="1" y="7" width="1" height="1" fill="rgb(111,150,169)" fill-opacity="0.500"/>
    <rect x="2" y="7" width="1" height="1" fill="rgb(37,245,128)" fill-opacity="0.500"/>
    <rect x="3" y="7" width="1" height="1" fill="rgb(101,178,138)" fill-opacity="0.500"/>
    <rect x="4" y="7" width="1" height="1" fill="rgb(76,243,135)" fill-opacity="0.500"/>
  </g>
</svg>
