<?xml version="1.0" encoding="UTF-8"?>
<svg xmlns="http://www.w3.org/2000/svg" width="216" height="216" viewBox="0 0 9 9" shape-rendering="crispEdges">
  <title>U+2684 (⚄)</title>
  
  <g>
    <rect x="0" y="0" width="1" height="1" fill="rgb(97,252,32)" fill-opacity="0.500"/>
    <rect x="1" y="0" width="1" height="1" fill="rgb(38,192,46)" fill-opacity="0.500"/>
    <rect x="2" y="0" width="1" height="1" fill="rgb(51,148,27)" fill-opacity="0.500"/>
    <rect x="3" y="0" width="1" height="1" fill="rgb(13,238,31)" fill-opacity="0.500"/>
    <rect x="4" y="0" width="1" height="1" fill="rgb(64,187,123)" fill-opacity="0.500"/>
    <rect x="5" y="0" width="1" height="1" fill="rgb(14,229,164)" fill-opacity="0.500"/>
    <rect x="6" y="0" width="1" height="1" fill="rgb(117,173,166)" fill-opacity="0.500"/>
    <rect x="7" y="0" width="1" height="1" fill="rgb(23,174,171)" fill-opacity="0.500"/>
    <rect x="8" y="0" width="1" height="1" fill="rgb(9,231,164)" fill-opacity="0.500"/>
    <rect x="0" y="1" width="1" height="1" fill="rgb(88,202,27)" fill-opacity="0.500"/>
    <rect x="8" y="1" width="1" height="1" fill="rgb(120,167,182)" fill-opacity="0.500"/>
    <rect x="0" y="2" width="1" height="1" fill="rgb(70,192,92)" fill-opacity="0.500"/>
    <rect x="2" y="2" width="1" height="1" fill="rgb(31,192,180)" fill-opacity="0.500"/>
    <rect x="6" y="2" width="1" height="1" fill="rgb(88,191,133)" fill-opacity="0.500"/>
    <rect x="8" y="2" width="1" height="1" fill="rgb(89,194,130)" fill-opacity="0.500"/>
    <rect x="0" y="3" width="1" height="1" fill="rgb(28,179,133)" fill-opacity="0.500"/>
    <rect x="8" y="3" width="1" height="1" fill="rgb(116,154,99)" fill-opacity="0.500"/>
    <rect x="0" y="4" width="1" height="1" fill="rgb(104,171,139)" fill-opacity="0.500"/>
    <rect x="4" y="4" width="1" height="1" fill="rgb(60,158,106)" fill-opacity="0.500"/>
    <rect x="8" y="4" width="1" height="1" fill="rgb(120,249,94)" fill-opacity="0.500"/>
    <rect x="0" y="5" width="1" height="1" fill="rgb(45,187,8)" fill-opacity="0.500"/>
    <rect x="8" y="5" width="1" height="1" fill="rgb(114,235,138)" fill-opacity="0.500"/>
    <rect x="0" y="6" width="1" height="1" fill="rgb(17,172,58)" fill-opacity="0.500"/>
    <rect x="2" y="6" width="1" height="1" fill="rgb(73,173,80)" fill-opacity="0.500"/>
    <rect x="6" y="6" width="1" height="1" fill="rgb(102,137,48)" fill-opacity="0.500"/>
    <rect x="8" y="6" width="1" height="1" fill="rgb(104,193,108)" fill-opacity="0.500"/>
    <rect x="0" y="7" width="1" height="1" fill="rgb(79,182,140)" fill-opacity="0.500"/>
    <rect x="8" y="7" width="1" height="1" fill="rgb(37,208,126)" fill-opacity="0.500"/>
    <rect x="0" y="8" width="1" height="1" fill="rgb(125,196,110)" fill-opacity="0.500"/>
    <rect x="1" y="8" width="1" height="1" fill="rgb(73,155,81)" fill-opacity="0.500"/>
    <rect x="2" y="8" width="1" height="1" fill="rgb(63,221,59)" fill-opacity="0.500"/>
    <rect x="3" y="8" width="1" height="1" fill="rgb(33,189,173)" fill-opacity="0.500"/>
    <rect x="4" y="8" width="1" height="1" fill="rgb(69,219,10)" fill-opacity="0.500"/>
    <rect x="5" y="8" width="1" height="1" fill="rgb(125,189,105)" fill-opacity="0.500"/>
    <rect x="6" y="8" width="1" height="1" fill="rgb(54,218,180)" fill-opacity="0.500"/>
    <rect x="7" y="8" width="1" height="1" fill="rgb(61,217,40)" fill-opacity="0.500"/>
    <rect x="8" y="8" width="1" height="1" fill="rgb(117,154,61)" fill-opacity="0.500"/>
  </g>
</svg>
