<?xml version="1.0" encoding="UTF-8"?>
<svg xmlns="http://www.w3.org/2000/svg" width="72" height="216" viewBox="0 0 3 9" shape-rendering="crispEdges">
  <title>U+004E (N)</title>
  
  <g>
    <rect x="0" y="0" width="1" height="1" fill="rgb(81,202,12)" fill-opacity="0.500"/>
    <rect x="1" y="0" width="1" height="1" fill="rgb(42,197,179)" fill-opacity="0.500"/>
    <rect x="2" y="0" width="1" height="1" fill="rgb(100,219,40)" fill-opacity="0.500"/>
    <rect x="0" y="1" width="1" height="1" fill="rgb(108,139,186)" fill-opacity="0.500"/>
    <rect x="2" y="1" width="1" height="1" fill="rgb(93,221,33)" fill-opacity="0.500"/>
    <rect x="0" y="2" width="1" height="1" fill="rgb(27,159,44)" fill-opacity="0.500"/>
    <rect x="2" y="2" width="1" height="1" fill="rgb(76,197,127)" fill-opacity="0.500"/>
    <rect x="0" y="3" width="1" height="1" fill="rgb(96,154,83)" fill-opacity="0.500"/>
    <rect x="2" y="3" width="1" height="1" fill="rgb(13,143,178)" fill-opacity="0.500"/>
    <rect x="0" y="4" width="1" height="1" fill="rgb(127,134,154)" fill-opacity="0.500"/>
    <rect x="2" y="4" width="1" height="1" fill="rgb(114,234,92)" fill-opacity="0.500"/>
    <rect x="0" y="5" width="1" height="1" fill="rgb(100,199,121)" fill-opacity="0.500"/>
    <rect x="2" y="5" width="1" height="1" fill="rgb(112,245,170)" fill-opacity="0.500"/>
    <rect x="0" y="6" width="1" height="1" fill="rgb(109,197,120)" fill-opacity="0.500"/>
    <rect x="2" y="6" width="1" height="1" fill="rgb(127,245,152)" fill-opacity="0.500"/>
  </g>
</svg>
