<?xml version="1.0" encoding="UTF-8"?>
<svg xmlns="http://www.w3.org/2000/svg" width="72" height="216" viewBox="0 0 3 9" shape-rendering="crispEdges">
  <title>U+041F (П)</title>
  
  <g>
    <rect x="0" y="0" width="1" height="1" fill="rgb(16,235,97)" fill-opacity="0.500"/>
    <rect x="1" y="0" width="1" height="1" fill="rgb(25,208,34)" fill-opacity="0.500"/>
    <rect x="2" y="0" width="1" height="1" fill="rgb(71,216,176)" fill-opacity="0.500"/>
    <rect x="0" y="1" width="1" height="1" fill="rgb(22,187,171)" fill-opacity="0.500"/>
    <rect x="2" y="1" width="1" height="1" fill="rgb(62,160,176)" fill-opacity="0.500"/>
    <rect x="0" y="2" width="1" height="1" fill="rgb(73,148,81)" fill-opacity="0.500"/>
    <rect x="2" y="2" width="1" height="1" fill="rgb(52,203,12)" fill-opacity="0.500"/>
    <rect x="0" y="3" width="1" height="1" fill="rgb(108,235,163)" fill-opacity="0.500"/>
    <rect x="2" y="3" width="1" height="1" fill="rgb(56,166,32)" fill-opacity="0.500"/>
    <rect x="0" y="4" width="1" height="1" fill="rgb(8,241,87)" fill-opacity="0.500"/>
    <rect x="2" y="4" width="1" height="1" fill="rgb(6,151,32)" fill-opacity="0.500"/>
    <rect x="0" y="5" width="1" height="1" fill="rgb(33,194,4)" fill-opacity="0.500"/>
    <rect x="2" y="5" width="1" height="1" fill="rgb(85,252,26)" fill-opacity="0.500"/>
    <rect x="0" y="6" width="1" height="1" fill="rgb(12,252,186)" fill-opacity="0.500"/>
    <rect x="2" y="6" width="1" height="1" fill="rgb(104,179,94)" fill-opacity="0.500"/>
  </g>
</svg>
