<?xml version="1.0" encoding="UTF-8"?>
<svg xmlns="http://www.w3.org/2000/svg" width="72" height="216" viewBox="0 0 3 9" shape-rendering="crispEdges">
  <title>U+0410 (А)</title>
  
  <g>
    <rect x="0" y="0" width="1" height="1" fill="rgb(26,161,50)" fill-opacity="0.500"/>
    <rect x="1" y="0" width="1" height="1" fill="rgb(96,241,138)" fill-opacity="0.500"/>
    <rect x="2" y="0" width="1" height="1" fill="rgb(64,144,183)" fill-opacity="0.500"/>
    <rect x="0" y="1" width="1" height="1" fill="rgb(124,180,176)" fill-opacity="0.500"/>
    <rect x="2" y="1" width="1" height="1" fill="rgb(3,234,62)" fill-opacity="0.500"/>
    <rect x="0" y="2" width="1" height="1" fill="rgb(114,173,49)" fill-opacity="0.500"/>
    <rect x="2" y="2" width="1" height="1" fill="rgb(16,225,13)" fill-opacity="0.500"/>
    <rect x="0" y="3" width="1" height="1" fill="rgb(25,232,13)" fill-opacity="0.500"/>
    <rect x="1" y="3" width="1" height="1" fill="rgb(41,180,17)" fill-opacity="0.500"/>
    <rect x="2" y="3" width="1" height="1" fill="rgb(46,232,102)" fill-opacity="0.500"/>
    <rect x="0" y="4" width="1" height="1" fill="rgb(17,176,92)" fill-opacity="0.500"/>
    <rect x="2" y="4" width="1" height="1" fill="rgb(15,176,113)" fill-opacity="0.500"/>
    <rect x="0" y="5" width="1" height="1" fill="rgb(10,160,89)" fill-opacity="0.500"/>
    <rect x="2" y="5" width="1" height="1" fill="rgb(68,227,132)" fill-opacity="0.500"/>
    <rect x="0" y="6" width="1" height="1" fill="rgb(91,142,46)" fill-opacity="0.500"/>
    <rect x="2" y="6" width="1" height="1" fill="rgb(81,249,14)" fill-opacity="0.500"/>
  </g>
</svg>
