<?xml version="1.0" encoding="UTF-8"?>
<svg xmlns="http://www.w3.org/2000/svg" width="72" height="216" viewBox="0 0 3 9" shape-rendering="crispEdges">
  <title>U+0052 (R)</title>
  
  <g>
    <rect x="0" y="0" width="1" height="1" fill="rgb(87,205,152)" fill-opacity="0.500"/>
    <rect x="1" y="0" width="1" height="1" fill="rgb(90,128,187)" fill-opacity="0.500"/>
    <rect x="2" y="0" width="1" height="1" fill="rgb(80,214,115)" fill-opacity="0.500"/>
    <rect x="0" y="1" width="1" height="1" fill="rgb(105,162,86)" fill-opacity="0.500"/>
    <rect x="2" y="1" width="1" height="1" fill="rgb(99,129,37)" fill-opacity="0.500"/>
    <rect x="0" y="2" width="1" height="1" fill="rgb(10,245,48)" fill-opacity="0.500"/>
    <rect x="2" y="2" width="1" height="1" fill="rgb(91,213,87)" fill-opacity="0.500"/>
    <rect x="0" y="3" width="1" height="1" fill="rgb(24,171,168)" fill-opacity="0.500"/>
    <rect x="1" y="3" width="1" height="1" fill="rgb(15,251,103)" fill-opacity="0.500"/>
    <rect x="0" y="4" width="1" height="1" fill="rgb(73,144,30)" fill-opacity="0.500"/>
    <rect x="2" y="4" width="1" height="1" fill="rgb(40,185,73)" fill-opacity="0.500"/>
    <rect x="0" y="5" width="1" height="1" fill="rgb(52,134,161)" fill-opacity="0.500"/>
    <rect x="2" y="5" width="1" height="1" fill="rgb(33,216,163)" fill-opacity="0.500"/>
    <rect x="0" y="6" width="1" height="1" fill="rgb(119,208,171)" fill-opacity="0.500"/>
    <rect x="2" y="6" width="1" height="1" fill="rgb(26,144,139)" fill-opacity="0.500"/>
  </g>
</svg>
