<?xml version="1.0" encoding="UTF-8"?>
<svg xmlns="http://www.w3.org/2000/svg" width="72" height="216" viewBox="0 0 3 9" shape-rendering="crispEdges">
  <title>U+0411 (Б)</title>
  
  <g>
    <rect x="0" y="0" width="1" height="1" fill="rgb(123,161,6)" fill-opacity="0.500"/>
    <rect x="1" y="0" width="1" height="1" fill="rgb(1,158,191)" fill-opacity="0.500"/>
    <rect x="2" y="0" width="1" height="1" fill="rgb(115,182,175)" fill-opacity="0.500"/>
    <rect x="0" y="1" width="1" height="1" fill="rgb(63,152,146)" fill-opacity="0.500"/>
    <rect x="0" y="2" width="1" height="1" fill="rgb(8,183,95)" fill-opacity="0.500"/>
    <rect x="0" y="3" width="1" height="1" fill="rgb(58,236,162)" fill-opacity="0.500"/>
    <rect x="1" y="3" width="1" height="1" fill="rgb(75,140,77)" fill-opacity="0.500"/>
    <rect x="2" y="3" width="1" height="1" fill="rgb(69,213,22)" fill-opacity="0.500"/>
    <rect x="0" y="4" width="1" height="1" fill="rgb(63,153,22)" fill-opacity="0.500"/>
    <rect x="2" y="4" width="1" height="1" fill="rgb(101,178,62)" fill-opacity="0.500"/>
    <rect x="0" y="5" width="1" height="1" fill="rgb(14,165,112)" fill-opacity="0.500"/>
    <rect x="2" y="5" width="1" height="1" fill="rgb(16,194,164)" fill-opacity="0.500"/>
    <rect x="0" y="6" width="1" height="1" fill="rgb(45,240,181)" fill-opacity="0.500"/>
    <rect x="1" y="6" width="1" height="1" fill="rgb(28,214,160)" fill-opacity="0.500"/>
    <rect x="2" y="6" width="1" height="1" fill="rgb(106,164,15)" fill-opacity="0.500"/>
  </g>
</svg>
