<?xml version="1.0" encoding="UTF-8"?>
<svg xmlns="http://www.w3.org/2000/svg" width="72" height="216" viewBox="0 0 3 9" shape-rendering="crispEdges">
  <title>U+0038 (8)</title>
  
  <g>
    <rect x="0" y="0" width="1" height="1" fill="rgb(55,236,137)" fill-opacity="0.500"/>
    <rect x="1" y="0" width="1" height="1" fill="rgb(39,131,8)" fill-opacity="0.500"/>
    <rect x="2" y="0" width="1" height="1" fill="rgb(51,173,103)" fill-opacity="0.500"/>
    <rect x="0" y="1" width="1" height="1" fill="rgb(58,237,98)" fill-opacity="0.500"/>
    <rect x="2" y="1" width="1" height="1" fill="rgb(70,240,160)" fill-opacity="0.500"/>
    <rect x="0" y="2" width="1" height="1" fill="rgb(75,255,103)" fill-opacity="0.500"/>
    <rect x="2" y="2" width="1" height="1" fill="rgb(121,202,22)" fill-opacity="0.500"/>
    <rect x="0" y="3" width="1" height="1" fill="rgb(61,152,125)" fill-opacity="0.500"/>
    <rect x="1" y="3" width="1" height="1" fill="rgb(69,203,144)" fill-opacity="0.500"/>
    <rect x="2" y="3" width="1" height="1" fill="rgb(108,231,29)" fill-opacity="0.500"/>
    <rect x="0" y="4" width="1" height="1" fill="rgb(87,199,14)" fill-opacity="0.500"/>
    <rect x="2" y="4" width="1" height="1" fill="rgb(68,231,189)" fill-opacity="0.500"/>
    <rect x="0" y="5" width="1" height="1" fill="rgb(80,131,80)" fill-opacity="0.500"/>
    <rect x="2" y="5" width="1" height="1" fill="rgb(62,225,43)" fill-opacity="0.500"/>
    <rect x="0" y="6" width="1" height="1" fill="rgb(119,193,165)" fill-opacity="0.500"/>
    <rect x="1" y="6" width="1" height="1" fill="rgb(119,253,147)" fill-opacity="0.500"/>
    <rect x="2" y="6" width="1" height="1" fill="rgb(91,239,66)" fill-opacity="0.500"/>
  </g>
</svg>
