<?xml version="1.0" encoding="UTF-8"?>
<svg xmlns="http://www.w3.org/2000/svg" width="120" height="216" viewBox="0 0 5 9" shape-rendering="crispEdges">
  <title>U+05D1 (ב)</title>
  
  <g>
    <rect x="0" y="0" width="1" height="1" fill="rgb(127,234,172)" fill-opacity="0.500"/>
    <rect x="1" y="0" width="1" height="1" fill="rgb(81,206,134)" fill-opacity="0.500"/>
    <rect x="2" y="0" width="1" height="1" fill="rgb(42,154,23)" fill-opacity="0.500"/>
    <rect x="3" y="0" width="1" height="1" fill="rgb(64,191,41)" fill-opacity="0.500"/>
    <rect x="4" y="0" width="1" height="1" fill="rgb(116,214,162)" fill-opacity="0.500"/>
    <rect x="4" y="1" width="1" height="1" fill="rgb(19,137,4)" fill-opacity="0.500"/>
    <rect x="4" y="2" width="1" height="1" fill="rgb(35,165,73)" fill-opacity="0.500"/>
    <rect x="4" y="3" width="1" height="1" fill="rgb(102,207,45)" fill-opacity="0.500"/>
    <rect x="4" y="4" width="1" height="1" fill="rgb(117,236,131)" fill-opacity="0.500"/>
    <rect x="4" y="5" width="1" height="1" fill="rgb(7,251,129)" fill-opacity="0.500"/>
    <rect x="0" y="6" width="1" height="1" fill="rgb(42,238,49)" fill-opacity="0.500"/>
    <rect x="1" y="6" width="1" height="1" fill="rgb(65,183,180)" fill-opacity="0.500"/>
    <rect x="2" y="6" width="1" height="1" fill="rgb(87,216,187)" fill-opacity="0.500"/>
    <rect x="3" y="6" width="1" height="1" fill="rgb(56,145,116)" fill-opacity="0.500"/>
    <rect x="4" y="6" width="1" height="1" fill="rgb(125,161,50)" fill-opacity="0.500"/>
  </g>
</svg>
