<?xml version="1.0" encoding="UTF-8"?>
<svg xmlns="http://www.w3.org/2000/svg" width="72" height="216" viewBox="0 0 3 9" shape-rendering="crispEdges">
  <title>U+041D (Н)</title>
  
  <g>
    <rect x="0" y="0" width="1" height="1" fill="rgb(24,151,39)" fill-opacity="0.500"/>
    <rect x="2" y="0" width="1" height="1" fill="rgb(93,192,62)" fill-opacity="0.500"/>
    <rect x="0" y="1" width="1" height="1" fill="rgb(9,203,168)" fill-opacity="0.500"/>
    <rect x="2" y="1" width="1" height="1" fill="rgb(38,155,141)" fill-opacity="0.500"/>
    <rect x="0" y="2" width="1" height="1" fill="rgb(124,229,80)" fill-opacity="0.500"/>
    <rect x="2" y="2" width="1" height="1" fill="rgb(107,249,155)" fill-opacity="0.500"/>
    <rect x="0" y="3" width="1" height="1" fill="rgb(96,169,75)" fill-opacity="0.500"/>
    <rect x="1" y="3" width="1" height="1" fill="rgb(34,239,101)" fill-opacity="0.500"/>
    <rect x="2" y="3" width="1" height="1" fill="rgb(57,197,58)" fill-opacity="0.500"/>
    <rect x="0" y="4" width="1" height="1" fill="rgb(2,211,138)" fill-opacity="0.500"/>
    <rect x="2" y="4" width="1" height="1" fill="rgb(0,173,78)" fill-opacity="0.500"/>
    <rect x="0" y="5" width="1" height="1" fill="rgb(82,148,56)" fill-opacity="0.500"/>
    <rect x="2" y="5" width="1" height="1" fill="rgb(3,245,140)" fill-opacity="0.500"/>
    <rect x="0" y="6" width="1" height="1" fill="rgb(80,131,184)" fill-opacity="0.500"/>
    <rect x="2" y="6" width="1" height="1" fill="rgb(40,142,48)" fill-opacity="0.500"/>
  </g>
</svg>
