<?xml version="1.0" encoding="UTF-8"?>
<svg xmlns="http://www.w3.org/2000/svg" width="120" height="216" viewBox="0 0 5 9" shape-rendering="crispEdges">
  <title>U+0023 (#)</title>
  
  <g>
    <rect x="1" y="2" width="1" height="1" fill="rgb(90,192,93)" fill-opacity="0.500"/>
    <rect x="3" y="2" width="1" height="1" fill="rgb(78,141,152)" fill-opacity="0.500"/>
    <rect x="0" y="3" width="1" height="1" fill="rgb(79,234,170)" fill-opacity="0.500"/>
    <rect x="1" y="3" width="1" height="1" fill="rgb(117,158,161)" fill-opacity="0.500"/>
    <rect x="2" y="3" width="1" height="1" fill="rgb(36,242,52)" fill-opacity="0.500"/>
    <rect x="3" y="3" width="1" height="1" fill="rgb(18,133,35)" fill-opacity="0.500"/>
    <rect x="4" y="3" width="1" height="1" fill="rgb(22,215,183)" fill-opacity="0.500"/>
    <rect x="1" y="4" width="1" height="1" fill="rgb(117,176,129)" fill-opacity="0.500"/>
    <rect x="3" y="4" width="1" height="1" fill="rgb(87,190,131)" fill-opacity="0.500"/>
    <rect x="0" y="5" width="1" height="1" fill="rgb(86,166,96)" fill-opacity="0.500"/>
    <rect x="1" y="5" width="1" height="1" fill="rgb(9,131,36)" fill-opacity="0.500"/>
    <rect x="2" y="5" width="1" height="1" fill="rgb(31,143,168)" fill-opacity="0.500"/>
    <rect x="3" y="5" width="1" height="1" fill="rgb(76,149,9)" fill-opacity="0.500"/>
    <rect x="4" y="5" width="1" height="1" fill="rgb(17,224,45)" fill-opacity="0.500"/>
    <rect x="1" y="6" width="1" height="1" fill="rgb(93,226,22)" fill-opacity="0.500"/>
    <rect x="3" y="6" width="1" height="1" fill="rgb(48,145,62)" fill-opacity="0.500"/>
  </g>
</svg>
