<?xml version="1.0" encoding="UTF-8"?>
<svg xmlns="http://www.w3.org/2000/svg" width="120" height="216" viewBox="0 0 5 9" shape-rendering="crispEdges">
  <title>U+05DD (ם)</title>
  
  <g>
    <rect x="0" y="0" width="1" height="1" fill="rgb(126,240,64)" fill-opacity="0.500"/>
    <rect x="1" y="0" width="1" height="1" fill="rgb(57,142,168)" fill-opacity="0.500"/>
    <rect x="2" y="0" width="1" height="1" fill="rgb(13,162,59)" fill-opacity="0.500"/>
    <rect x="3" y="0" width="1" height="1" fill="rgb(75,201,45)" fill-opacity="0.500"/>
    <rect x="4" y="0" width="1" height="1" fill="rgb(47,163,123)" fill-opacity="0.500"/>
    <rect x="0" y="1" width="1" height="1" fill="rgb(108,161,190)" fill-opacity="0.500"/>
    <rect x="4" y="1" width="1" height="1" fill="rgb(92,189,28)" fill-opacity="0.500"/>
    <rect x="0" y="2" width="1" height="1" fill="rgb(118,236,119)" fill-opacity="0.500"/>
    <rect x="2" y="2" width="1" height="1" fill="rgb(4,227,34)" fill-opacity="0.500"/>
    <rect x="4" y="2" width="1" height="1" fill="rgb(72,179,151)" fill-opacity="0.500"/>
    <rect x="0" y="3" width="1" height="1" fill="rgb(68,170,7)" fill-opacity="0.500"/>
    <rect x="4" y="3" width="1" height="1" fill="rgb(110,233,81)" fill-opacity="0.500"/>
    <rect x="0" y="4" width="1" height="1" fill="rgb(62,176,178)" fill-opacity="0.500"/>
    <rect x="4" y="4" width="1" height="1" fill="rgb(18,230,10)" fill-opacity="0.500"/>
    <rect x="0" y="5" width="1" height="1" fill="rgb(71,183,81)" fill-opacity="0.500"/>
    <rect x="4" y="5" width="1" height="1" fill="rgb(47,185,106)" fill-opacity="0.500"/>
    <rect x="0" y="6" width="1" height="1" fill="rgb(26,236,184)" fill-opacity="0.500"/>
    <rect x="1" y="6" width="1" height="1" fill="rgb(1,249,88)" fill-opacity="0.500"/>
    <rect x="2" y="6" width="1" height="1" fill="rgb(6,176,82)" fill-opacity="0.500"/>
    <rect x="3" y="6" width="1" height="1" fill="rgb(84,152,161)" fill-opacity="0.500"/>
    <rect x="4" y="6" width="1" height="1" fill="rgb(100,167,52)" fill-opacity="0.500"/>
  </g>
</svg>
