<?xml version="1.0" encoding="UTF-8"?>
<svg xmlns="http://www.w3.org/2000/svg" width="120" height="216" viewBox="0 0 5 9" shape-rendering="crispEdges">
  <title>U+05E6 (צ)</title>
  
  <g>
    <rect x="2" y="0" width="1" height="1" fill="rgb(44,192,27)" fill-opacity="0.500"/>
    <rect x="2" y="1" width="1" height="1" fill="rgb(94,197,31)" fill-opacity="0.500"/>
    <rect x="3" y="1" width="1" height="1" fill="rgb(99,136,17)" fill-opacity="0.500"/>
    <rect x="1" y="2" width="1" height="1" fill="rgb(120,213,139)" fill-opacity="0.500"/>
    <rect x="3" y="2" width="1" height="1" fill="rgb(95,207,71)" fill-opacity="0.500"/>
    <rect x="0" y="3" width="1" height="1" fill="rgb(34,246,32)" fill-opacity="0.500"/>
    <rect x="3" y="3" width="1" height="1" fill="rgb(109,246,111)" fill-opacity="0.500"/>
    <rect x="0" y="4" width="1" height="1" fill="rgb(127,155,21)" fill-opacity="0.500"/>
    <rect x="3" y="4" width="1" height="1" fill="rgb(27,187,155)" fill-opacity="0.500"/>
    <rect x="0" y="5" width="1" height="1" fill="rgb(76,244,3)" fill-opacity="0.500"/>
    <rect x="3" y="5" width="1" height="1" fill="rgb(115,198,156)" fill-opacity="0.500"/>
    <rect x="0" y="6" width="1" height="1" fill="rgb(83,214,53)" fill-opacity="0.500"/>
    <rect x="1" y="6" width="1" height="1" fill="rgb(101,237,177)" fill-opacity="0.500"/>
    <rect x="2" y="6" width="1" height="1" fill="rgb(73,162,58)" fill-opacity="0.500"/>
    <rect x="3" y="6" width="1" height="1" fill="rgb(70,146,51)" fill-opacity="0.500"/>
  </g>
</svg>
