<?xml version="1.0" encoding="UTF-8"?>
<svg xmlns="http://www.w3.org/2000/svg" width="120" height="216" viewBox="0 0 5 9" shape-rendering="crispEdges">
  <title>U+0424 (Ф)</title>
  
  <g>
    <rect x="2" y="0" width="1" height="1" fill="rgb(83,180,148)" fill-opacity="0.500"/>
    <rect x="1" y="1" width="1" height="1" fill="rgb(2,187,76)" fill-opacity="0.500"/>
    <rect x="2" y="1" width="1" height="1" fill="rgb(3,234,90)" fill-opacity="0.500"/>
    <rect x="3" y="1" width="1" height="1" fill="rgb(97,207,167)" fill-opacity="0.500"/>
    <rect x="0" y="2" width="1" height="1" fill="rgb(39,128,30)" fill-opacity="0.500"/>
    <rect x="2" y="2" width="1" height="1" fill="rgb(16,194,105)" fill-opacity="0.500"/>
    <rect x="4" y="2" width="1" height="1" fill="rgb(119,235,72)" fill-opacity="0.500"/>
    <rect x="0" y="3" width="1" height="1" fill="rgb(122,169,55)" fill-opacity="0.500"/>
    <rect x="2" y="3" width="1" height="1" fill="rgb(108,168,37)" fill-opacity="0.500"/>
    <rect x="4" y="3" width="1" height="1" fill="rgb(55,247,96)" fill-opacity="0.500"/>
    <rect x="1" y="4" width="1" height="1" fill="rgb(34,241,10)" fill-opacity="0.500"/>
    <rect x="2" y="4" width="1" height="1" fill="rgb(43,247,40)" fill-opacity="0.500"/>
    <rect x="3" y="4" width="1" height="1" fill="rgb(93,236,174)" fill-opacity="0.500"/>
    <rect x="2" y="5" width="1" height="1" fill="rgb(86,191,5)" fill-opacity="0.500"/>
    <rect x="2" y="6" width="1" height="1" fill="rgb(45,164,140)" fill-opacity="0.500"/>
  </g>
</svg>
