<?xml version="1.0" encoding="UTF-8"?>
<svg xmlns="http://www.w3.org/2000/svg" width="168" height="216" viewBox="0 0 7 9" shape-rendering="crispEdges">
  <title>U+203B (※)</title>
  
  <g>
    <rect x="0" y="0" width="1" height="1" fill="rgb(90,231,131)" fill-opacity="0.500"/>
    <rect x="3" y="0" width="1" height="1" fill="rgb(118,150,21)" fill-opacity="0.500"/>
    <rect x="6" y="0" width="1" height="1" fill="rgb(30,165,141)" fill-opacity="0.500"/>
    <rect x="1" y="1" width="1" height="1" fill="rgb(97,157,51)" fill-opacity="0.500"/>
    <rect x="5" y="1" width="1" height="1" fill="rgb(27,226,128)" fill-opacity="0.500"/>
    <rect x="2" y="2" width="1" height="1" fill="rgb(77,135,147)" fill-opacity="0.500"/>
    <rect x="4" y="2" width="1" height="1" fill="rgb(5,170,125)" fill-opacity="0.500"/>
    <rect x="0" y="3" width="1" height="1" fill="rgb(27,181,56)" fill-opacity="0.500"/>
    <rect x="3" y="3" width="1" height="1" fill="rgb(121,208,2)" fill-opacity="0.500"/>
    <rect x="6" y="3" width="1" height="1" fill="rgb(68,216,16)" fill-opacity="0.500"/>
    <rect x="2" y="4" width="1" height="1" fill="rgb(89,131,79)" fill-opacity="0.500"/>
    <rect x="4" y="4" width="1" height="1" fill="rgb(44,238,141)" fill-opacity="0.500"/>
    <rect x="1" y="5" width="1" height="1" fill="rgb(6,169,15)" fill-opacity="0.500"/>
    <rect x="5" y="5" width="1" height="1" fill="rgb(39,159,92)" fill-opacity="0.500"/>
    <rect x="0" y="6" width="1" height="1" fill="rgb(1,153,18)" fill-opacity="0.500"/>
    <rect x="3" y="6" width="1" height="1" fill="rgb(41,233,163)" fill-opacity="0.500"/>
    <rect x="6" y="6" width="1" height="1" fill="rgb(29,191,132)" fill-opacity="0.500"/>
  </g>
</svg>
