<?xml version="1.0" encoding="UTF-8"?>
<svg xmlns="http://www.w3.org/2000/svg" width="120" height="216" viewBox="0 0 5 9" shape-rendering="crispEdges">
  <title>U+05D1 (ב)</title>
  
  <g>
    <rect x="0" y="0" width="1" height="1" fill="rgb(123,141,126)" fill-opacity="0.500"/>
    <rect x="1" y="0" width="1" height="1" fill="rgb(58,149,159)" fill-opacity="0.500"/>
    <rect x="2" y="0" width="1" height="1" fill="rgb(119,168,120)" fill-opacity="0.500"/>
    <rect x="3" y="0" width="1" height="1" fill="rgb(4,253,163)" fill-opacity="0.500"/>
    <rect x="4" y="0" width="1" height="1" fill="rgb(112,215,26)" fill-opacity="0.500"/>
    <rect x="4" y="1" width="1" height="1" fill="rgb(28,194,188)" fill-opacity="0.500"/>
    <rect x="4" y="2" width="1" height="1" fill="rgb(86,165,36)" fill-opacity="0.500"/>
    <rect x="4" y="3" width="1" height="1" fill="rgb(61,203,131)" fill-opacity="0.500"/>
    <rect x="4" y="4" width="1" height="1" fill="rgb(50,152,124)" fill-opacity="0.500"/>
    <rect x="4" y="5" width="1" height="1" fill="rgb(57,168,89)" fill-opacity="0.500"/>
    <rect x="0" y="6" width="1" height="1" fill="rgb(61,182,190)" fill-opacity="0.500"/>
    <rect x="1" y="6" width="1" height="1" fill="rgb(98,207,85)" fill-opacity="0.500"/>
    <rect x="2" y="6" width="1" height="1" fill="rgb(62,139,85)" fill-opacity="0.500"/>
    <rect x="3" y="6" width="1" height="1" fill="rgb(59,214,127)" fill-opacity="0.500"/>
    <rect x="4" y="6" width="1" height="1" fill="rgb(65,229,30)" fill-opacity="0.500"/>
  </g>
</svg>
