<?xml version="1.0" encoding="UTF-8"?>
<svg xmlns="http://www.w3.org/2000/svg" width="120" height="216" viewBox="0 0 5 9" shape-rendering="crispEdges">
  <title>U+2628 (☨)</title>
  
  <g>
    <rect x="2" y="0" width="1" height="1" fill="rgb(5,146,169)" fill-opacity="0.500"/>
    <rect x="1" y="1" width="1" height="1" fill="rgb(121,217,66)" fill-opacity="0.500"/>
    <rect x="2" y="1" width="1" height="1" fill="rgb(9,176,82)" fill-opacity="0.500"/>
    <rect x="3" y="1" width="1" height="1" fill="rgb(78,209,125)" fill-opacity="0.500"/>
    <rect x="2" y="2" width="1" height="1" fill="rgb(108,185,60)" fill-opacity="0.500"/>
    <rect x="0" y="3" width="1" height="1" fill="rgb(74,247,107)" fill-opacity="0.500"/>
    <rect x="1" y="3" width="1" height="1" fill="rgb(81,154,152)" fill-opacity="0.500"/>
    <rect x="2" y="3" width="1" height="1" fill="rgb(63,158,180)" fill-opacity="0.500"/>
    <rect x="3" y="3" width="1" height="1" fill="rgb(119,235,164)" fill-opacity="0.500"/>
    <rect x="4" y="3" width="1" height="1" fill="rgb(19,148,1)" fill-opacity="0.500"/>
    <rect x="2" y="4" width="1" height="1" fill="rgb(74,135,41)" fill-opacity="0.500"/>
    <rect x="2" y="5" width="1" height="1" fill="rgb(47,132,150)" fill-opacity="0.500"/>
    <rect x="2" y="6" width="1" height="1" fill="rgb(29,203,167)" fill-opacity="0.500"/>
    <rect x="2" y="7" width="1" height="1" fill="rgb(75,221,98)" fill-opacity="0.500"/>
    <rect x="2" y="8" width="1" height="1" fill="rgb(94,151,128)" fill-opacity="0.500"/>
  </g>
</svg>
