<?xml version="1.0" encoding="UTF-8"?>
<svg xmlns="http://www.w3.org/2000/svg" width="120" height="216" viewBox="0 0 5 9" shape-rendering="crispEdges">
  <title>U+041C (М)</title>
  
  <g>
    <rect x="0" y="0" width="1" height="1" fill="rgb(118,176,185)" fill-opacity="0.500"/>
    <rect x="1" y="0" width="1" height="1" fill="rgb(85,133,98)" fill-opacity="0.500"/>
    <rect x="2" y="0" width="1" height="1" fill="rgb(27,238,60)" fill-opacity="0.500"/>
    <rect x="3" y="0" width="1" height="1" fill="rgb(82,228,139)" fill-opacity="0.500"/>
    <rect x="4" y="0" width="1" height="1" fill="rgb(100,191,21)" fill-opacity="0.500"/>
    <rect x="0" y="1" width="1" height="1" fill="rgb(18,187,157)" fill-opacity="0.500"/>
    <rect x="2" y="1" width="1" height="1" fill="rgb(122,205,36)" fill-opacity="0.500"/>
    <rect x="4" y="1" width="1" height="1" fill="rgb(112,162,90)" fill-opacity="0.500"/>
    <rect x="0" y="2" width="1" height="1" fill="rgb(9,168,28)" fill-opacity="0.500"/>
    <rect x="2" y="2" width="1" height="1" fill="rgb(39,247,162)" fill-opacity="0.500"/>
    <rect x="4" y="2" width="1" height="1" fill="rgb(86,134,112)" fill-opacity="0.500"/>
    <rect x="0" y="3" width="1" height="1" fill="rgb(99,132,185)" fill-opacity="0.500"/>
    <rect x="2" y="3" width="1" height="1" fill="rgb(88,171,64)" fill-opacity="0.500"/>
    <rect x="4" y="3" width="1" height="1" fill="rgb(63,203,12)" fill-opacity="0.500"/>
    <rect x="0" y="4" width="1" height="1" fill="rgb(63,138,58)" fill-opacity="0.500"/>
    <rect x="2" y="4" width="1" height="1" fill="rgb(83,235,134)" fill-opacity="0.500"/>
    <rect x="4" y="4" width="1" height="1" fill="rgb(82,221,26)" fill-opacity="0.500"/>
    <rect x="0" y="5" width="1" height="1" fill="rgb(21,228,99)" fill-opacity="0.500"/>
    <rect x="2" y="5" width="1" height="1" fill="rgb(74,205,111)" fill-opacity="0.500"/>
    <rect x="4" y="5" width="1" height="1" fill="rgb(14,151,128)" fill-opacity="0.500"/>
    <rect x="0" y="6" width="1" height="1" fill="rgb(102,177,69)" fill-opacity="0.500"/>
    <rect x="2" y="6" width="1" height="1" fill="rgb(7,203,67)" fill-opacity="0.500"/>
    <rect x="4" y="6" width="1" height="1" fill="rgb(50,143,72)" fill-opacity="0.500"/>
  </g>
</svg>
