<?xml version="1.0" encoding="UTF-8"?>
<svg xmlns="http://www.w3.org/2000/svg" width="168" height="216" viewBox="0 0 7 9" shape-rendering="crispEdges">
  <title>U+203B (※)</title>
  
  <g>
    <rect x="0" y="0" width="1" height="1" fill="rgb(44,131,158)" fill-opacity="0.500"/>
    <rect x="3" y="0" width="1" height="1" fill="rgb(67,141,117)" fill-opacity="0.500"/>
    <rect x="6" y="0" width="1" height="1" fill="rgb(22,235,31)" fill-opacity="0.500"/>
    <rect x="1" y="1" width="1" height="1" fill="rgb(0,244,143)" fill-opacity="0.500"/>
    <rect x="5" y="1" width="1" height="1" fill="rgb(29,138,5)" fill-opacity="0.500"/>
    <rect x="2" y="2" width="1" height="1" fill="rgb(127,174,93)" fill-opacity="0.500"/>
    <rect x="4" y="2" width="1" height="1" fill="rgb(32,196,35)" fill-opacity="0.500"/>
    <rect x="0" y="3" width="1" height="1" fill="rgb(108,202,4)" fill-opacity="0.500"/>
    <rect x="3" y="3" width="1" height="1" fill="rgb(95,191,174)" fill-opacity="0.500"/>
    <rect x="6" y="3" width="1" height="1" fill="rgb(114,191,65)" fill-opacity="0.500"/>
    <rect x="2" y="4" width="1" height="1" fill="rgb(116,164,158)" fill-opacity="0.500"/>
    <rect x="4" y="4" width="1" height="1" fill="rgb(114,136,68)" fill-opacity="0.500"/>
    <rect x="1" y="5" width="1" height="1" fill="rgb(62,182,47)" fill-opacity="0.500"/>
    <rect x="5" y="5" width="1" height="1" fill="rgb(77,238,158)" fill-opacity="0.500"/>
    <rect x="0" y="6" width="1" height="1" fill="rgb(83,174,168)" fill-opacity="0.500"/>
    <rect x="3" y="6" width="1" height="1" fill="rgb(19,157,37)" fill-opacity="0.500"/>
    <rect x="6" y="6" width="1" height="1" fill="rgb(12,141,185)" fill-opacity="0.500"/>
  </g>
</svg>
