<?xml version="1.0" encoding="UTF-8"?>
<svg xmlns="http://www.w3.org/2000/svg" width="96" height="216" viewBox="0 0 4 9" shape-rendering="crispEdges">
  <title>U+042A (ะช)</title>
  
  <g>
    <rect x="0" y="0" width="1" height="1" fill="rgb(126,219,147)" fill-opacity="0.500"/>
    <rect x="1" y="0" width="1" height="1" fill="rgb(62,193,37)" fill-opacity="0.500"/>
    <rect x="2" y="0" width="1" height="1" fill="rgb(58,148,99)" fill-opacity="0.500"/>
    <rect x="0" y="1" width="1" height="1" fill="rgb(5,168,168)" fill-opacity="0.500"/>
    <rect x="0" y="2" width="1" height="1" fill="rgb(116,129,180)" fill-opacity="0.500"/>
    <rect x="0" y="3" width="1" height="1" fill="rgb(48,174,122)" fill-opacity="0.500"/>
    <rect x="1" y="3" width="1" height="1" fill="rgb(108,177,132)" fill-opacity="0.500"/>
    <rect x="2" y="3" width="1" height="1" fill="rgb(28,231,44)" fill-opacity="0.500"/>
    <rect x="0" y="4" width="1" height="1" fill="rgb(37,212,49)" fill-opacity="0.500"/>
    <rect x="3" y="4" width="1" height="1" fill="rgb(86,153,184)" fill-opacity="0.500"/>
    <rect x="0" y="5" width="1" height="1" fill="rgb(55,203,15)" fill-opacity="0.500"/>
    <rect x="3" y="5" width="1" height="1" fill="rgb(124,232,66)" fill-opacity="0.500"/>
    <rect x="0" y="6" width="1" height="1" fill="rgb(127,238,149)" fill-opacity="0.500"/>
    <rect x="1" y="6" width="1" height="1" fill="rgb(97,224,24)" fill-opacity="0.500"/>
    <rect x="2" y="6" width="1" height="1" fill="rgb(15,186,55)" fill-opacity="0.500"/>
  </g>
</svg>
