<?xml version="1.0" encoding="UTF-8"?>
<svg xmlns="http://www.w3.org/2000/svg" width="72" height="216" viewBox="0 0 3 9" shape-rendering="crispEdges">
  <title>.notdef</title>
  
  <g>
    <rect x="0" y="0" width="1" height="1" fill="rgb(31,201,45)" fill-opacity="0.500"/>
    <rect x="1" y="0" width="1" height="1" fill="rgb(17,157,89)" fill-opacity="0.500"/>
    <rect x="2" y="0" width="1" height="1" fill="rgb(121,143,60)" fill-opacity="0.500"/>
    <rect x="0" y="1" width="1" height="1" fill="rgb(69,182,9)" fill-opacity="0.500"/>
    <rect x="2" y="1" width="1" height="1" fill="rgb(17,189,59)" fill-opacity="0.500"/>
    <rect x="0" y="2" width="1" height="1" fill="rgb(6,134,28)" fill-opacity="0.500"/>
    <rect x="2" y="2" width="1" height="1" fill="rgb(23,224,147)" fill-opacity="0.500"/>
    <rect x="0" y="3" width="1" height="1" fill="rgb(97,222,22)" fill-opacity="0.500"/>
    <rect x="2" y="3" width="1" height="1" fill="rgb(114,214,98)" fill-opacity="0.500"/>
    <rect x="0" y="4" width="1" height="1" fill="rgb(94,241,162)" fill-opacity="0.500"/>
    <rect x="2" y="4" width="1" height="1" fill="rgb(103,140,140)" fill-opacity="0.500"/>
    <rect x="0" y="5" width="1" height="1" fill="rgb(105,205,170)" fill-opacity="0.500"/>
    <rect x="2" y="5" width="1" height="1" fill="rgb(82,173,98)" fill-opacity="0.500"/>
    <rect x="0" y="6" width="1" height="1" fill="rgb(81,164,1)" fill-opacity="0.500"/>
    <rect x="2" y="6" width="1" height="1" fill="rgb(26,140,154)" fill-opacity="0.500"/>
    <rect x="0" y="7" width="1" height="1" fill="rgb(28,145,65)" fill-opacity="0.500"/>
    <rect x="2" y="7" width="1" height="1" fill="rgb(7,192,30)" fill-opacity="0.500"/>
    <rect x="0" y="8" width="1" height="1" fill="rgb(80,227,121)" fill-opacity="0.500"/>
    <rect x="1" y="8" width="1" height="1" fill="rgb(34,176,121)" fill-opacity="0.500"/>
    <rect x="2" y="8" width="1" height="1" fill="rgb(16,163,81)" fill-opacity="0.500"/>
  </g>
</svg>
