<?xml version="1.0" encoding="UTF-8"?>
<svg xmlns="http://www.w3.org/2000/svg" width="168" height="216" viewBox="0 0 7 9" shape-rendering="crispEdges">
  <title>U+0040 (@)</title>
  
  <g>
    <rect x="0" y="0" width="1" height="1" fill="rgb(109,209,3)" fill-opacity="0.500"/>
    <rect x="1" y="0" width="1" height="1" fill="rgb(47,177,105)" fill-opacity="0.500"/>
    <rect x="2" y="0" width="1" height="1" fill="rgb(5,160,183)" fill-opacity="0.500"/>
    <rect x="3" y="0" width="1" height="1" fill="rgb(50,166,96)" fill-opacity="0.500"/>
    <rect x="4" y="0" width="1" height="1" fill="rgb(76,133,86)" fill-opacity="0.500"/>
    <rect x="5" y="0" width="1" height="1" fill="rgb(80,182,142)" fill-opacity="0.500"/>
    <rect x="6" y="0" width="1" height="1" fill="rgb(78,142,74)" fill-opacity="0.500"/>
    <rect x="6" y="1" width="1" height="1" fill="rgb(48,251,19)" fill-opacity="0.500"/>
    <rect x="0" y="2" width="1" height="1" fill="rgb(49,181,187)" fill-opacity="0.500"/>
    <rect x="1" y="2" width="1" height="1" fill="rgb(126,134,96)" fill-opacity="0.500"/>
    <rect x="2" y="2" width="1" height="1" fill="rgb(123,194,97)" fill-opacity="0.500"/>
    <rect x="3" y="2" width="1" height="1" fill="rgb(99,168,125)" fill-opacity="0.500"/>
    <rect x="4" y="2" width="1" height="1" fill="rgb(94,213,95)" fill-opacity="0.500"/>
    <rect x="6" y="2" width="1" height="1" fill="rgb(87,249,187)" fill-opacity="0.500"/>
    <rect x="0" y="3" width="1" height="1" fill="rgb(60,144,148)" fill-opacity="0.500"/>
    <rect x="4" y="3" width="1" height="1" fill="rgb(7,206,118)" fill-opacity="0.500"/>
    <rect x="6" y="3" width="1" height="1" fill="rgb(38,158,81)" fill-opacity="0.500"/>
    <rect x="0" y="4" width="1" height="1" fill="rgb(17,198,101)" fill-opacity="0.500"/>
    <rect x="2" y="4" width="1" height="1" fill="rgb(13,225,127)" fill-opacity="0.500"/>
    <rect x="3" y="4" width="1" height="1" fill="rgb(118,218,184)" fill-opacity="0.500"/>
    <rect x="4" y="4" width="1" height="1" fill="rgb(85,196,80)" fill-opacity="0.500"/>
    <rect x="6" y="4" width="1" height="1" fill="rgb(78,147,16)" fill-opacity="0.500"/>
    <rect x="0" y="5" width="1" height="1" fill="rgb(102,250,51)" fill-opacity="0.500"/>
    <rect x="2" y="5" width="1" height="1" fill="rgb(28,224,164)" fill-opacity="0.500"/>
    <rect x="4" y="5" width="1" height="1" fill="rgb(90,132,138)" fill-opacity="0.500"/>
    <rect x="6" y="5" width="1" height="1" fill="rgb(91,232,176)" fill-opacity="0.500"/>
    <rect x="0" y="6" width="1" height="1" fill="rgb(44,221,98)" fill-opacity="0.500"/>
    <rect x="2" y="6" width="1" height="1" fill="rgb(102,249,47)" fill-opacity="0.500"/>
    <rect x="3" y="6" width="1" height="1" fill="rgb(40,211,106)" fill-opacity="0.500"/>
    <rect x="4" y="6" width="1" height="1" fill="rgb(14,197,66)" fill-opacity="0.500"/>
    <rect x="6" y="6" width="1" height="1" fill="rgb(73,226,133)" fill-opacity="0.500"/>
    <rect x="0" y="7" width="1" height="1" fill="rgb(72,149,10)" fill-opacity="0.500"/>
    <rect x="6" y="7" width="1" height="1" fill="rgb(118,221,151)" fill-opacity="0.500"/>
    <rect x="0" y="8" width="1" height="1" fill="rgb(14,175,171)" fill-opacity="0.500"/>
    <rect x="1" y="8" width="1" height="1" fill="rgb(77,161,46)" fill-opacity="0.500"/>
    <rect x="2" y="8" width="1" height="1" fill="rgb(60,197,69)" fill-opacity="0.500"/>
    <rect x="3" y="8" width="1" height="1" fill="rgb(111,213,119)" fill-opacity="0.500"/>
    <rect x="4" y="8" width="1" height="1" fill="rgb(11,233,151)" fill-opacity="0.500"/>
    <rect x="5" y="8" width="1" height="1" fill="rgb(8,181,26)" fill-opacity="0.500"/>
    <rect x="6" y="8" width="1" height="1" fill="rgb(123,145,186)" fill-opacity="0.500"/>
  </g>
</svg>
