<?xml version="1.0" encoding="UTF-8"?>
<svg xmlns="http://www.w3.org/2000/svg" width="72" height="216" viewBox="0 0 3 9" shape-rendering="crispEdges">
  <title>U+0048 (H)</title>
  
  <g>
    <rect x="0" y="0" width="1" height="1" fill="rgb(123,205,162)" fill-opacity="0.500"/>
    <rect x="2" y="0" width="1" height="1" fill="rgb(35,203,71)" fill-opacity="0.500"/>
    <rect x="0" y="1" width="1" height="1" fill="rgb(91,184,33)" fill-opacity="0.500"/>
    <rect x="2" y="1" width="1" height="1" fill="rgb(74,167,114)" fill-opacity="0.500"/>
    <rect x="0" y="2" width="1" height="1" fill="rgb(58,177,87)" fill-opacity="0.500"/>
    <rect x="2" y="2" width="1" height="1" fill="rgb(38,239,161)" fill-opacity="0.500"/>
    <rect x="0" y="3" width="1" height="1" fill="rgb(112,204,152)" fill-opacity="0.500"/>
    <rect x="1" y="3" width="1" height="1" fill="rgb(85,248,38)" fill-opacity="0.500"/>
    <rect x="2" y="3" width="1" height="1" fill="rgb(51,242,171)" fill-opacity="0.500"/>
    <rect x="0" y="4" width="1" height="1" fill="rgb(91,162,127)" fill-opacity="0.500"/>
    <rect x="2" y="4" width="1" height="1" fill="rgb(29,209,190)" fill-opacity="0.500"/>
    <rect x="0" y="5" width="1" height="1" fill="rgb(36,217,23)" fill-opacity="0.500"/>
    <rect x="2" y="5" width="1" height="1" fill="rgb(102,211,50)" fill-opacity="0.500"/>
    <rect x="0" y="6" width="1" height="1" fill="rgb(60,157,64)" fill-opacity="0.500"/>
    <rect x="2" y="6" width="1" height="1" fill="rgb(55,184,126)" fill-opacity="0.500"/>
  </g>
</svg>
