<?xml version="1.0" encoding="UTF-8"?>
<svg xmlns="http://www.w3.org/2000/svg" width="120" height="216" viewBox="0 0 5 9" shape-rendering="crispEdges">
  <title>U+2626 (☦)</title>
  
  <g>
    <rect x="2" y="0" width="1" height="1" fill="rgb(81,207,169)" fill-opacity="0.500"/>
    <rect x="1" y="1" width="1" height="1" fill="rgb(79,129,70)" fill-opacity="0.500"/>
    <rect x="2" y="1" width="1" height="1" fill="rgb(66,187,58)" fill-opacity="0.500"/>
    <rect x="3" y="1" width="1" height="1" fill="rgb(117,180,137)" fill-opacity="0.500"/>
    <rect x="2" y="2" width="1" height="1" fill="rgb(2,214,1)" fill-opacity="0.500"/>
    <rect x="0" y="3" width="1" height="1" fill="rgb(31,245,121)" fill-opacity="0.500"/>
    <rect x="1" y="3" width="1" height="1" fill="rgb(67,176,114)" fill-opacity="0.500"/>
    <rect x="2" y="3" width="1" height="1" fill="rgb(109,233,70)" fill-opacity="0.500"/>
    <rect x="3" y="3" width="1" height="1" fill="rgb(85,236,177)" fill-opacity="0.500"/>
    <rect x="4" y="3" width="1" height="1" fill="rgb(1,153,36)" fill-opacity="0.500"/>
    <rect x="2" y="4" width="1" height="1" fill="rgb(56,220,19)" fill-opacity="0.500"/>
    <rect x="1" y="5" width="1" height="1" fill="rgb(102,184,28)" fill-opacity="0.500"/>
    <rect x="2" y="5" width="1" height="1" fill="rgb(22,159,127)" fill-opacity="0.500"/>
    <rect x="2" y="6" width="1" height="1" fill="rgb(120,206,79)" fill-opacity="0.500"/>
    <rect x="3" y="6" width="1" height="1" fill="rgb(95,132,104)" fill-opacity="0.500"/>
    <rect x="2" y="7" width="1" height="1" fill="rgb(96,214,3)" fill-opacity="0.500"/>
    <rect x="2" y="8" width="1" height="1" fill="rgb(84,243,21)" fill-opacity="0.500"/>
  </g>
</svg>
