<?xml version="1.0" encoding="UTF-8"?>
<svg xmlns="http://www.w3.org/2000/svg" width="120" height="216" viewBox="0 0 5 9" shape-rendering="crispEdges">
  <title>U+0057 (W)</title>
  
  <g>
    <rect x="0" y="0" width="1" height="1" fill="rgb(32,206,173)" fill-opacity="0.500"/>
    <rect x="2" y="0" width="1" height="1" fill="rgb(104,139,152)" fill-opacity="0.500"/>
    <rect x="4" y="0" width="1" height="1" fill="rgb(48,193,103)" fill-opacity="0.500"/>
    <rect x="0" y="1" width="1" height="1" fill="rgb(72,146,76)" fill-opacity="0.500"/>
    <rect x="2" y="1" width="1" height="1" fill="rgb(67,178,93)" fill-opacity="0.500"/>
    <rect x="4" y="1" width="1" height="1" fill="rgb(108,144,96)" fill-opacity="0.500"/>
    <rect x="0" y="2" width="1" height="1" fill="rgb(125,181,25)" fill-opacity="0.500"/>
    <rect x="2" y="2" width="1" height="1" fill="rgb(78,237,85)" fill-opacity="0.500"/>
    <rect x="4" y="2" width="1" height="1" fill="rgb(103,212,103)" fill-opacity="0.500"/>
    <rect x="0" y="3" width="1" height="1" fill="rgb(116,201,61)" fill-opacity="0.500"/>
    <rect x="2" y="3" width="1" height="1" fill="rgb(63,184,153)" fill-opacity="0.500"/>
    <rect x="4" y="3" width="1" height="1" fill="rgb(61,182,82)" fill-opacity="0.500"/>
    <rect x="0" y="4" width="1" height="1" fill="rgb(125,251,31)" fill-opacity="0.500"/>
    <rect x="2" y="4" width="1" height="1" fill="rgb(124,217,70)" fill-opacity="0.500"/>
    <rect x="4" y="4" width="1" height="1" fill="rgb(88,149,64)" fill-opacity="0.500"/>
    <rect x="0" y="5" width="1" height="1" fill="rgb(22,139,16)" fill-opacity="0.500"/>
    <rect x="2" y="5" width="1" height="1" fill="rgb(94,192,52)" fill-opacity="0.500"/>
    <rect x="4" y="5" width="1" height="1" fill="rgb(113,251,126)" fill-opacity="0.500"/>
    <rect x="0" y="6" width="1" height="1" fill="rgb(71,136,187)" fill-opacity="0.500"/>
    <rect x="1" y="6" width="1" height="1" fill="rgb(64,251,23)" fill-opacity="0.500"/>
    <rect x="2" y="6" width="1" height="1" fill="rgb(3,146,112)" fill-opacity="0.500"/>
    <rect x="3" y="6" width="1" height="1" fill="rgb(98,213,72)" fill-opacity="0.500"/>
    <rect x="4" y="6" width="1" height="1" fill="rgb(38,255,2)" fill-opacity="0.500"/>
  </g>
</svg>
