<?xml version="1.0" encoding="UTF-8"?>
<svg xmlns="http://www.w3.org/2000/svg" width="120" height="216" viewBox="0 0 5 9" shape-rendering="crispEdges">
  <title>U+2665 (♥)</title>
  
  <g>
    <rect x="1" y="2" width="1" height="1" fill="rgb(11,132,70)" fill-opacity="0.500"/>
    <rect x="3" y="2" width="1" height="1" fill="rgb(14,220,7)" fill-opacity="0.500"/>
    <rect x="0" y="3" width="1" height="1" fill="rgb(66,242,177)" fill-opacity="0.500"/>
    <rect x="1" y="3" width="1" height="1" fill="rgb(52,220,164)" fill-opacity="0.500"/>
    <rect x="2" y="3" width="1" height="1" fill="rgb(65,242,85)" fill-opacity="0.500"/>
    <rect x="3" y="3" width="1" height="1" fill="rgb(9,176,45)" fill-opacity="0.500"/>
    <rect x="4" y="3" width="1" height="1" fill="rgb(40,251,46)" fill-opacity="0.500"/>
    <rect x="0" y="4" width="1" height="1" fill="rgb(113,220,30)" fill-opacity="0.500"/>
    <rect x="1" y="4" width="1" height="1" fill="rgb(79,167,189)" fill-opacity="0.500"/>
    <rect x="2" y="4" width="1" height="1" fill="rgb(68,249,57)" fill-opacity="0.500"/>
    <rect x="3" y="4" width="1" height="1" fill="rgb(105,199,45)" fill-opacity="0.500"/>
    <rect x="4" y="4" width="1" height="1" fill="rgb(78,174,156)" fill-opacity="0.500"/>
    <rect x="1" y="5" width="1" height="1" fill="rgb(64,198,50)" fill-opacity="0.500"/>
    <rect x="2" y="5" width="1" height="1" fill="rgb(118,164,172)" fill-opacity="0.500"/>
    <rect x="3" y="5" width="1" height="1" fill="rgb(106,145,18)" fill-opacity="0.500"/>
    <rect x="2" y="6" width="1" height="1" fill="rgb(11,236,145)" fill-opacity="0.500"/>
  </g>
</svg>
