<?xml version="1.0" encoding="UTF-8"?>
<svg xmlns="http://www.w3.org/2000/svg" width="72" height="216" viewBox="0 0 3 9" shape-rendering="crispEdges">
  <title>U+0038 (8)</title>
  
  <g>
    <rect x="0" y="0" width="1" height="1" fill="rgb(18,244,161)" fill-opacity="0.500"/>
    <rect x="1" y="0" width="1" height="1" fill="rgb(97,167,77)" fill-opacity="0.500"/>
    <rect x="2" y="0" width="1" height="1" fill="rgb(91,207,64)" fill-opacity="0.500"/>
    <rect x="0" y="1" width="1" height="1" fill="rgb(42,208,73)" fill-opacity="0.500"/>
    <rect x="2" y="1" width="1" height="1" fill="rgb(30,161,27)" fill-opacity="0.500"/>
    <rect x="0" y="2" width="1" height="1" fill="rgb(21,216,22)" fill-opacity="0.500"/>
    <rect x="2" y="2" width="1" height="1" fill="rgb(59,231,183)" fill-opacity="0.500"/>
    <rect x="0" y="3" width="1" height="1" fill="rgb(84,181,19)" fill-opacity="0.500"/>
    <rect x="1" y="3" width="1" height="1" fill="rgb(13,152,185)" fill-opacity="0.500"/>
    <rect x="2" y="3" width="1" height="1" fill="rgb(77,216,159)" fill-opacity="0.500"/>
    <rect x="0" y="4" width="1" height="1" fill="rgb(35,163,127)" fill-opacity="0.500"/>
    <rect x="2" y="4" width="1" height="1" fill="rgb(110,161,33)" fill-opacity="0.500"/>
    <rect x="0" y="5" width="1" height="1" fill="rgb(97,185,62)" fill-opacity="0.500"/>
    <rect x="2" y="5" width="1" height="1" fill="rgb(64,233,54)" fill-opacity="0.500"/>
    <rect x="0" y="6" width="1" height="1" fill="rgb(54,148,72)" fill-opacity="0.500"/>
    <rect x="1" y="6" width="1" height="1" fill="rgb(125,160,109)" fill-opacity="0.500"/>
    <rect x="2" y="6" width="1" height="1" fill="rgb(31,176,10)" fill-opacity="0.500"/>
  </g>
</svg>
