<?xml version="1.0" encoding="UTF-8"?>
<svg xmlns="http://www.w3.org/2000/svg" width="120" height="216" viewBox="0 0 5 9" shape-rendering="crispEdges">
  <title>U+20BF (₿)</title>
  
  <g>
    <rect x="1" y="1" width="1" height="1" fill="rgb(93,168,97)" fill-opacity="0.500"/>
    <rect x="3" y="1" width="1" height="1" fill="rgb(49,161,52)" fill-opacity="0.500"/>
    <rect x="0" y="2" width="1" height="1" fill="rgb(113,136,6)" fill-opacity="0.500"/>
    <rect x="1" y="2" width="1" height="1" fill="rgb(99,233,181)" fill-opacity="0.500"/>
    <rect x="2" y="2" width="1" height="1" fill="rgb(99,213,126)" fill-opacity="0.500"/>
    <rect x="3" y="2" width="1" height="1" fill="rgb(84,148,89)" fill-opacity="0.500"/>
    <rect x="0" y="3" width="1" height="1" fill="rgb(89,160,125)" fill-opacity="0.500"/>
    <rect x="4" y="3" width="1" height="1" fill="rgb(107,179,81)" fill-opacity="0.500"/>
    <rect x="0" y="4" width="1" height="1" fill="rgb(77,252,17)" fill-opacity="0.500"/>
    <rect x="1" y="4" width="1" height="1" fill="rgb(92,246,10)" fill-opacity="0.500"/>
    <rect x="2" y="4" width="1" height="1" fill="rgb(2,148,40)" fill-opacity="0.500"/>
    <rect x="3" y="4" width="1" height="1" fill="rgb(30,153,26)" fill-opacity="0.500"/>
    <rect x="0" y="5" width="1" height="1" fill="rgb(90,155,182)" fill-opacity="0.500"/>
    <rect x="4" y="5" width="1" height="1" fill="rgb(81,226,82)" fill-opacity="0.500"/>
    <rect x="0" y="6" width="1" height="1" fill="rgb(61,219,186)" fill-opacity="0.500"/>
    <rect x="1" y="6" width="1" height="1" fill="rgb(21,136,151)" fill-opacity="0.500"/>
    <rect x="2" y="6" width="1" height="1" fill="rgb(112,241,105)" fill-opacity="0.500"/>
    <rect x="3" y="6" width="1" height="1" fill="rgb(52,221,53)" fill-opacity="0.500"/>
    <rect x="1" y="7" width="1" height="1" fill="rgb(99,162,62)" fill-opacity="0.500"/>
    <rect x="3" y="7" width="1" height="1" fill="rgb(116,141,9)" fill-opacity="0.500"/>
  </g>
</svg>
