<?xml version="1.0" encoding="UTF-8"?>
<svg xmlns="http://www.w3.org/2000/svg" width="72" height="216" viewBox="0 0 3 9" shape-rendering="crispEdges">
  <title>U+0055 (U)</title>
  
  <g>
    <rect x="0" y="0" width="1" height="1" fill="rgb(54,194,66)" fill-opacity="0.500"/>
    <rect x="2" y="0" width="1" height="1" fill="rgb(75,254,167)" fill-opacity="0.500"/>
    <rect x="0" y="1" width="1" height="1" fill="rgb(100,185,79)" fill-opacity="0.500"/>
    <rect x="2" y="1" width="1" height="1" fill="rgb(95,194,82)" fill-opacity="0.500"/>
    <rect x="0" y="2" width="1" height="1" fill="rgb(3,209,66)" fill-opacity="0.500"/>
    <rect x="2" y="2" width="1" height="1" fill="rgb(126,181,67)" fill-opacity="0.500"/>
    <rect x="0" y="3" width="1" height="1" fill="rgb(73,156,179)" fill-opacity="0.500"/>
    <rect x="2" y="3" width="1" height="1" fill="rgb(22,162,49)" fill-opacity="0.500"/>
    <rect x="0" y="4" width="1" height="1" fill="rgb(18,215,2)" fill-opacity="0.500"/>
    <rect x="2" y="4" width="1" height="1" fill="rgb(49,238,102)" fill-opacity="0.500"/>
    <rect x="0" y="5" width="1" height="1" fill="rgb(57,229,71)" fill-opacity="0.500"/>
    <rect x="2" y="5" width="1" height="1" fill="rgb(110,175,120)" fill-opacity="0.500"/>
    <rect x="0" y="6" width="1" height="1" fill="rgb(110,166,178)" fill-opacity="0.500"/>
    <rect x="1" y="6" width="1" height="1" fill="rgb(18,132,101)" fill-opacity="0.500"/>
    <rect x="2" y="6" width="1" height="1" fill="rgb(110,129,49)" fill-opacity="0.500"/>
  </g>
</svg>
