<?xml version="1.0" encoding="UTF-8"?>
<svg xmlns="http://www.w3.org/2000/svg" width="120" height="216" viewBox="0 0 5 9" shape-rendering="crispEdges">
  <title>U+041C (лю)</title>
  
  <g>
    <rect x="0" y="0" width="1" height="1" fill="rgb(119,176,18)" fill-opacity="0.500"/>
    <rect x="1" y="0" width="1" height="1" fill="rgb(27,170,68)" fill-opacity="0.500"/>
    <rect x="2" y="0" width="1" height="1" fill="rgb(70,154,185)" fill-opacity="0.500"/>
    <rect x="3" y="0" width="1" height="1" fill="rgb(20,136,78)" fill-opacity="0.500"/>
    <rect x="4" y="0" width="1" height="1" fill="rgb(21,207,8)" fill-opacity="0.500"/>
    <rect x="0" y="1" width="1" height="1" fill="rgb(36,185,129)" fill-opacity="0.500"/>
    <rect x="2" y="1" width="1" height="1" fill="rgb(66,128,161)" fill-opacity="0.500"/>
    <rect x="4" y="1" width="1" height="1" fill="rgb(100,138,51)" fill-opacity="0.500"/>
    <rect x="0" y="2" width="1" height="1" fill="rgb(0,178,93)" fill-opacity="0.500"/>
    <rect x="2" y="2" width="1" height="1" fill="rgb(69,166,16)" fill-opacity="0.500"/>
    <rect x="4" y="2" width="1" height="1" fill="rgb(116,190,168)" fill-opacity="0.500"/>
    <rect x="0" y="3" width="1" height="1" fill="rgb(113,237,116)" fill-opacity="0.500"/>
    <rect x="2" y="3" width="1" height="1" fill="rgb(106,173,93)" fill-opacity="0.500"/>
    <rect x="4" y="3" width="1" height="1" fill="rgb(114,253,188)" fill-opacity="0.500"/>
    <rect x="0" y="4" width="1" height="1" fill="rgb(67,201,114)" fill-opacity="0.500"/>
    <rect x="2" y="4" width="1" height="1" fill="rgb(21,133,59)" fill-opacity="0.500"/>
    <rect x="4" y="4" width="1" height="1" fill="rgb(27,139,145)" fill-opacity="0.500"/>
    <rect x="0" y="5" width="1" height="1" fill="rgb(77,129,177)" fill-opacity="0.500"/>
    <rect x="2" y="5" width="1" height="1" fill="rgb(117,143,154)" fill-opacity="0.500"/>
    <rect x="4" y="5" width="1" height="1" fill="rgb(66,229,135)" fill-opacity="0.500"/>
    <rect x="0" y="6" width="1" height="1" fill="rgb(69,253,80)" fill-opacity="0.500"/>
    <rect x="2" y="6" width="1" height="1" fill="rgb(123,237,30)" fill-opacity="0.500"/>
    <rect x="4" y="6" width="1" height="1" fill="rgb(4,155,87)" fill-opacity="0.500"/>
  </g>
</svg>
