<?xml version="1.0" encoding="UTF-8"?>
<svg xmlns="http://www.w3.org/2000/svg" width="96" height="216" viewBox="0 0 4 9" shape-rendering="crispEdges">
  <title>U+0418 (И)</title>
  
  <g>
    <rect x="0" y="0" width="1" height="1" fill="rgb(118,155,57)" fill-opacity="0.500"/>
    <rect x="3" y="0" width="1" height="1" fill="rgb(97,199,147)" fill-opacity="0.500"/>
    <rect x="0" y="1" width="1" height="1" fill="rgb(113,181,56)" fill-opacity="0.500"/>
    <rect x="3" y="1" width="1" height="1" fill="rgb(46,134,122)" fill-opacity="0.500"/>
    <rect x="0" y="2" width="1" height="1" fill="rgb(18,227,146)" fill-opacity="0.500"/>
    <rect x="2" y="2" width="1" height="1" fill="rgb(72,230,113)" fill-opacity="0.500"/>
    <rect x="3" y="2" width="1" height="1" fill="rgb(114,209,100)" fill-opacity="0.500"/>
    <rect x="0" y="3" width="1" height="1" fill="rgb(126,232,125)" fill-opacity="0.500"/>
    <rect x="1" y="3" width="1" height="1" fill="rgb(22,227,76)" fill-opacity="0.500"/>
    <rect x="3" y="3" width="1" height="1" fill="rgb(90,239,32)" fill-opacity="0.500"/>
    <rect x="0" y="4" width="1" height="1" fill="rgb(115,130,121)" fill-opacity="0.500"/>
    <rect x="3" y="4" width="1" height="1" fill="rgb(98,219,28)" fill-opacity="0.500"/>
    <rect x="0" y="5" width="1" height="1" fill="rgb(124,137,134)" fill-opacity="0.500"/>
    <rect x="3" y="5" width="1" height="1" fill="rgb(24,182,46)" fill-opacity="0.500"/>
    <rect x="0" y="6" width="1" height="1" fill="rgb(91,223,172)" fill-opacity="0.500"/>
    <rect x="3" y="6" width="1" height="1" fill="rgb(10,221,45)" fill-opacity="0.500"/>
  </g>
</svg>
