<?xml version="1.0" encoding="UTF-8"?>
<svg xmlns="http://www.w3.org/2000/svg" width="120" height="216" viewBox="0 0 5 9" shape-rendering="crispEdges">
  <title>U+05E3 (ף)</title>
  
  <g>
    <rect x="0" y="0" width="1" height="1" fill="rgb(122,222,184)" fill-opacity="0.500"/>
    <rect x="1" y="0" width="1" height="1" fill="rgb(60,162,89)" fill-opacity="0.500"/>
    <rect x="2" y="0" width="1" height="1" fill="rgb(125,173,60)" fill-opacity="0.500"/>
    <rect x="3" y="0" width="1" height="1" fill="rgb(32,222,82)" fill-opacity="0.500"/>
    <rect x="0" y="1" width="1" height="1" fill="rgb(2,201,3)" fill-opacity="0.500"/>
    <rect x="4" y="1" width="1" height="1" fill="rgb(97,185,6)" fill-opacity="0.500"/>
    <rect x="0" y="2" width="1" height="1" fill="rgb(21,168,18)" fill-opacity="0.500"/>
    <rect x="4" y="2" width="1" height="1" fill="rgb(75,241,143)" fill-opacity="0.500"/>
    <rect x="0" y="3" width="1" height="1" fill="rgb(72,188,96)" fill-opacity="0.500"/>
    <rect x="1" y="3" width="1" height="1" fill="rgb(34,144,67)" fill-opacity="0.500"/>
    <rect x="2" y="3" width="1" height="1" fill="rgb(33,243,7)" fill-opacity="0.500"/>
    <rect x="3" y="3" width="1" height="1" fill="rgb(33,187,46)" fill-opacity="0.500"/>
    <rect x="0" y="4" width="1" height="1" fill="rgb(38,144,45)" fill-opacity="0.500"/>
    <rect x="0" y="5" width="1" height="1" fill="rgb(39,211,60)" fill-opacity="0.500"/>
    <rect x="0" y="6" width="1" height="1" fill="rgb(21,148,189)" fill-opacity="0.500"/>
    <rect x="0" y="7" width="1" height="1" fill="rgb(11,243,86)" fill-opacity="0.500"/>
    <rect x="0" y="8" width="1" height="1" fill="rgb(32,243,184)" fill-opacity="0.500"/>
    <rect x="1" y="8" width="1" height="1" fill="rgb(58,232,34)" fill-opacity="0.500"/>
    <rect x="2" y="8" width="1" height="1" fill="rgb(111,218,23)" fill-opacity="0.500"/>
  </g>
</svg>
