<?xml version="1.0" encoding="UTF-8"?>
<svg xmlns="http://www.w3.org/2000/svg" width="96" height="216" viewBox="0 0 4 9" shape-rendering="crispEdges">
  <title>U+0414 (Д)</title>
  
  <g>
    <rect x="1" y="0" width="1" height="1" fill="rgb(89,220,113)" fill-opacity="0.500"/>
    <rect x="2" y="0" width="1" height="1" fill="rgb(110,231,95)" fill-opacity="0.500"/>
    <rect x="0" y="1" width="1" height="1" fill="rgb(28,228,50)" fill-opacity="0.500"/>
    <rect x="3" y="1" width="1" height="1" fill="rgb(41,230,60)" fill-opacity="0.500"/>
    <rect x="0" y="2" width="1" height="1" fill="rgb(26,210,98)" fill-opacity="0.500"/>
    <rect x="3" y="2" width="1" height="1" fill="rgb(76,211,32)" fill-opacity="0.500"/>
    <rect x="0" y="3" width="1" height="1" fill="rgb(100,218,47)" fill-opacity="0.500"/>
    <rect x="3" y="3" width="1" height="1" fill="rgb(109,191,183)" fill-opacity="0.500"/>
    <rect x="0" y="4" width="1" height="1" fill="rgb(86,181,119)" fill-opacity="0.500"/>
    <rect x="3" y="4" width="1" height="1" fill="rgb(65,160,136)" fill-opacity="0.500"/>
    <rect x="0" y="5" width="1" height="1" fill="rgb(49,137,176)" fill-opacity="0.500"/>
    <rect x="3" y="5" width="1" height="1" fill="rgb(122,204,3)" fill-opacity="0.500"/>
    <rect x="0" y="6" width="1" height="1" fill="rgb(98,187,24)" fill-opacity="0.500"/>
    <rect x="1" y="6" width="1" height="1" fill="rgb(97,143,15)" fill-opacity="0.500"/>
    <rect x="2" y="6" width="1" height="1" fill="rgb(56,205,186)" fill-opacity="0.500"/>
    <rect x="3" y="6" width="1" height="1" fill="rgb(38,241,149)" fill-opacity="0.500"/>
    <rect x="0" y="7" width="1" height="1" fill="rgb(103,245,164)" fill-opacity="0.500"/>
    <rect x="3" y="7" width="1" height="1" fill="rgb(60,236,88)" fill-opacity="0.500"/>
  </g>
</svg>
