<?xml version="1.0" encoding="UTF-8"?>
<svg xmlns="http://www.w3.org/2000/svg" width="120" height="216" viewBox="0 0 5 9" shape-rendering="crispEdges">
  <title>U+0428 (ле)</title>
  
  <g>
    <rect x="0" y="0" width="1" height="1" fill="rgb(9,254,79)" fill-opacity="0.500"/>
    <rect x="2" y="0" width="1" height="1" fill="rgb(12,129,67)" fill-opacity="0.500"/>
    <rect x="4" y="0" width="1" height="1" fill="rgb(48,184,44)" fill-opacity="0.500"/>
    <rect x="0" y="1" width="1" height="1" fill="rgb(107,138,99)" fill-opacity="0.500"/>
    <rect x="2" y="1" width="1" height="1" fill="rgb(8,184,21)" fill-opacity="0.500"/>
    <rect x="4" y="1" width="1" height="1" fill="rgb(43,249,182)" fill-opacity="0.500"/>
    <rect x="0" y="2" width="1" height="1" fill="rgb(121,191,78)" fill-opacity="0.500"/>
    <rect x="2" y="2" width="1" height="1" fill="rgb(1,242,85)" fill-opacity="0.500"/>
    <rect x="4" y="2" width="1" height="1" fill="rgb(23,213,180)" fill-opacity="0.500"/>
    <rect x="0" y="3" width="1" height="1" fill="rgb(97,219,3)" fill-opacity="0.500"/>
    <rect x="2" y="3" width="1" height="1" fill="rgb(75,216,95)" fill-opacity="0.500"/>
    <rect x="4" y="3" width="1" height="1" fill="rgb(99,167,26)" fill-opacity="0.500"/>
    <rect x="0" y="4" width="1" height="1" fill="rgb(3,170,20)" fill-opacity="0.500"/>
    <rect x="2" y="4" width="1" height="1" fill="rgb(121,140,87)" fill-opacity="0.500"/>
    <rect x="4" y="4" width="1" height="1" fill="rgb(16,200,116)" fill-opacity="0.500"/>
    <rect x="0" y="5" width="1" height="1" fill="rgb(97,211,3)" fill-opacity="0.500"/>
    <rect x="2" y="5" width="1" height="1" fill="rgb(81,235,131)" fill-opacity="0.500"/>
    <rect x="4" y="5" width="1" height="1" fill="rgb(113,194,16)" fill-opacity="0.500"/>
    <rect x="0" y="6" width="1" height="1" fill="rgb(19,182,53)" fill-opacity="0.500"/>
    <rect x="1" y="6" width="1" height="1" fill="rgb(117,214,30)" fill-opacity="0.500"/>
    <rect x="2" y="6" width="1" height="1" fill="rgb(90,176,189)" fill-opacity="0.500"/>
    <rect x="3" y="6" width="1" height="1" fill="rgb(111,156,100)" fill-opacity="0.500"/>
    <rect x="4" y="6" width="1" height="1" fill="rgb(126,250,50)" fill-opacity="0.500"/>
  </g>
</svg>
