<?xml version="1.0" encoding="UTF-8"?>
<svg xmlns="http://www.w3.org/2000/svg" width="120" height="216" viewBox="0 0 5 9" shape-rendering="crispEdges">
  <title>U+042E (Ю)</title>
  
  <g>
    <rect x="0" y="0" width="1" height="1" fill="rgb(9,144,161)" fill-opacity="0.500"/>
    <rect x="2" y="0" width="1" height="1" fill="rgb(43,152,37)" fill-opacity="0.500"/>
    <rect x="3" y="0" width="1" height="1" fill="rgb(79,222,30)" fill-opacity="0.500"/>
    <rect x="0" y="1" width="1" height="1" fill="rgb(24,137,148)" fill-opacity="0.500"/>
    <rect x="2" y="1" width="1" height="1" fill="rgb(3,220,78)" fill-opacity="0.500"/>
    <rect x="4" y="1" width="1" height="1" fill="rgb(105,203,41)" fill-opacity="0.500"/>
    <rect x="0" y="2" width="1" height="1" fill="rgb(17,187,106)" fill-opacity="0.500"/>
    <rect x="1" y="2" width="1" height="1" fill="rgb(27,166,17)" fill-opacity="0.500"/>
    <rect x="2" y="2" width="1" height="1" fill="rgb(95,240,35)" fill-opacity="0.500"/>
    <rect x="4" y="2" width="1" height="1" fill="rgb(66,177,8)" fill-opacity="0.500"/>
    <rect x="0" y="3" width="1" height="1" fill="rgb(107,196,39)" fill-opacity="0.500"/>
    <rect x="2" y="3" width="1" height="1" fill="rgb(27,246,79)" fill-opacity="0.500"/>
    <rect x="4" y="3" width="1" height="1" fill="rgb(75,180,160)" fill-opacity="0.500"/>
    <rect x="0" y="4" width="1" height="1" fill="rgb(58,187,45)" fill-opacity="0.500"/>
    <rect x="2" y="4" width="1" height="1" fill="rgb(70,149,3)" fill-opacity="0.500"/>
    <rect x="4" y="4" width="1" height="1" fill="rgb(95,186,49)" fill-opacity="0.500"/>
    <rect x="0" y="5" width="1" height="1" fill="rgb(90,231,141)" fill-opacity="0.500"/>
    <rect x="2" y="5" width="1" height="1" fill="rgb(118,234,101)" fill-opacity="0.500"/>
    <rect x="4" y="5" width="1" height="1" fill="rgb(64,164,181)" fill-opacity="0.500"/>
    <rect x="0" y="6" width="1" height="1" fill="rgb(118,182,35)" fill-opacity="0.500"/>
    <rect x="2" y="6" width="1" height="1" fill="rgb(85,252,74)" fill-opacity="0.500"/>
    <rect x="3" y="6" width="1" height="1" fill="rgb(50,139,97)" fill-opacity="0.500"/>
  </g>
</svg>
