<?xml version="1.0" encoding="UTF-8"?>
<svg xmlns="http://www.w3.org/2000/svg" width="120" height="216" viewBox="0 0 5 9" shape-rendering="crispEdges">
  <title>U+0429 (Щ)</title>
  
  <g>
    <rect x="0" y="0" width="1" height="1" fill="rgb(46,146,187)" fill-opacity="0.500"/>
    <rect x="2" y="0" width="1" height="1" fill="rgb(118,133,21)" fill-opacity="0.500"/>
    <rect x="4" y="0" width="1" height="1" fill="rgb(35,206,129)" fill-opacity="0.500"/>
    <rect x="0" y="1" width="1" height="1" fill="rgb(42,190,58)" fill-opacity="0.500"/>
    <rect x="2" y="1" width="1" height="1" fill="rgb(67,137,79)" fill-opacity="0.500"/>
    <rect x="4" y="1" width="1" height="1" fill="rgb(42,196,183)" fill-opacity="0.500"/>
    <rect x="0" y="2" width="1" height="1" fill="rgb(111,137,170)" fill-opacity="0.500"/>
    <rect x="2" y="2" width="1" height="1" fill="rgb(14,248,107)" fill-opacity="0.500"/>
    <rect x="4" y="2" width="1" height="1" fill="rgb(98,172,95)" fill-opacity="0.500"/>
    <rect x="0" y="3" width="1" height="1" fill="rgb(70,207,153)" fill-opacity="0.500"/>
    <rect x="2" y="3" width="1" height="1" fill="rgb(103,235,172)" fill-opacity="0.500"/>
    <rect x="4" y="3" width="1" height="1" fill="rgb(122,236,186)" fill-opacity="0.500"/>
    <rect x="0" y="4" width="1" height="1" fill="rgb(34,156,168)" fill-opacity="0.500"/>
    <rect x="2" y="4" width="1" height="1" fill="rgb(10,186,138)" fill-opacity="0.500"/>
    <rect x="4" y="4" width="1" height="1" fill="rgb(56,196,18)" fill-opacity="0.500"/>
    <rect x="0" y="5" width="1" height="1" fill="rgb(27,231,16)" fill-opacity="0.500"/>
    <rect x="2" y="5" width="1" height="1" fill="rgb(22,212,33)" fill-opacity="0.500"/>
    <rect x="4" y="5" width="1" height="1" fill="rgb(96,206,148)" fill-opacity="0.500"/>
    <rect x="0" y="6" width="1" height="1" fill="rgb(43,244,54)" fill-opacity="0.500"/>
    <rect x="1" y="6" width="1" height="1" fill="rgb(46,229,180)" fill-opacity="0.500"/>
    <rect x="2" y="6" width="1" height="1" fill="rgb(20,140,179)" fill-opacity="0.500"/>
    <rect x="3" y="6" width="1" height="1" fill="rgb(37,241,0)" fill-opacity="0.500"/>
    <rect x="4" y="6" width="1" height="1" fill="rgb(59,160,75)" fill-opacity="0.500"/>
    <rect x="4" y="7" width="1" height="1" fill="rgb(123,185,168)" fill-opacity="0.500"/>
    <rect x="4" y="8" width="1" height="1" fill="rgb(99,205,48)" fill-opacity="0.500"/>
  </g>
</svg>
