<?xml version="1.0" encoding="UTF-8"?>
<svg xmlns="http://www.w3.org/2000/svg" width="120" height="216" viewBox="0 0 5 9" shape-rendering="crispEdges">
  <title>U+05E9 (ש)</title>
  
  <g>
    <rect x="0" y="0" width="1" height="1" fill="rgb(71,190,125)" fill-opacity="0.500"/>
    <rect x="2" y="0" width="1" height="1" fill="rgb(77,169,160)" fill-opacity="0.500"/>
    <rect x="4" y="0" width="1" height="1" fill="rgb(105,220,6)" fill-opacity="0.500"/>
    <rect x="0" y="1" width="1" height="1" fill="rgb(116,132,109)" fill-opacity="0.500"/>
    <rect x="2" y="1" width="1" height="1" fill="rgb(127,243,74)" fill-opacity="0.500"/>
    <rect x="4" y="1" width="1" height="1" fill="rgb(61,233,41)" fill-opacity="0.500"/>
    <rect x="0" y="2" width="1" height="1" fill="rgb(35,195,81)" fill-opacity="0.500"/>
    <rect x="2" y="2" width="1" height="1" fill="rgb(65,222,95)" fill-opacity="0.500"/>
    <rect x="4" y="2" width="1" height="1" fill="rgb(19,183,56)" fill-opacity="0.500"/>
    <rect x="0" y="3" width="1" height="1" fill="rgb(126,152,133)" fill-opacity="0.500"/>
    <rect x="1" y="3" width="1" height="1" fill="rgb(74,183,145)" fill-opacity="0.500"/>
    <rect x="2" y="3" width="1" height="1" fill="rgb(32,235,97)" fill-opacity="0.500"/>
    <rect x="3" y="3" width="1" height="1" fill="rgb(117,151,77)" fill-opacity="0.500"/>
    <rect x="4" y="3" width="1" height="1" fill="rgb(13,149,135)" fill-opacity="0.500"/>
    <rect x="0" y="4" width="1" height="1" fill="rgb(111,142,170)" fill-opacity="0.500"/>
    <rect x="2" y="4" width="1" height="1" fill="rgb(0,214,17)" fill-opacity="0.500"/>
    <rect x="4" y="4" width="1" height="1" fill="rgb(49,149,109)" fill-opacity="0.500"/>
    <rect x="0" y="5" width="1" height="1" fill="rgb(81,238,121)" fill-opacity="0.500"/>
    <rect x="2" y="5" width="1" height="1" fill="rgb(83,226,97)" fill-opacity="0.500"/>
    <rect x="4" y="5" width="1" height="1" fill="rgb(69,192,54)" fill-opacity="0.500"/>
    <rect x="1" y="6" width="1" height="1" fill="rgb(34,207,168)" fill-opacity="0.500"/>
    <rect x="2" y="6" width="1" height="1" fill="rgb(52,231,43)" fill-opacity="0.500"/>
    <rect x="3" y="6" width="1" height="1" fill="rgb(54,168,175)" fill-opacity="0.500"/>
  </g>
</svg>
