<?xml version="1.0" encoding="UTF-8"?>
<svg xmlns="http://www.w3.org/2000/svg" width="168" height="216" viewBox="0 0 7 9" shape-rendering="crispEdges">
  <title>U+203B (※)</title>
  
  <g>
    <rect x="0" y="0" width="1" height="1" fill="rgb(22,187,93)" fill-opacity="0.500"/>
    <rect x="3" y="0" width="1" height="1" fill="rgb(92,251,169)" fill-opacity="0.500"/>
    <rect x="6" y="0" width="1" height="1" fill="rgb(24,145,124)" fill-opacity="0.500"/>
    <rect x="1" y="1" width="1" height="1" fill="rgb(50,185,122)" fill-opacity="0.500"/>
    <rect x="5" y="1" width="1" height="1" fill="rgb(13,207,130)" fill-opacity="0.500"/>
    <rect x="2" y="2" width="1" height="1" fill="rgb(107,159,93)" fill-opacity="0.500"/>
    <rect x="4" y="2" width="1" height="1" fill="rgb(67,171,142)" fill-opacity="0.500"/>
    <rect x="0" y="3" width="1" height="1" fill="rgb(106,242,36)" fill-opacity="0.500"/>
    <rect x="3" y="3" width="1" height="1" fill="rgb(30,164,89)" fill-opacity="0.500"/>
    <rect x="6" y="3" width="1" height="1" fill="rgb(114,198,54)" fill-opacity="0.500"/>
    <rect x="2" y="4" width="1" height="1" fill="rgb(72,191,175)" fill-opacity="0.500"/>
    <rect x="4" y="4" width="1" height="1" fill="rgb(101,238,144)" fill-opacity="0.500"/>
    <rect x="1" y="5" width="1" height="1" fill="rgb(39,135,163)" fill-opacity="0.500"/>
    <rect x="5" y="5" width="1" height="1" fill="rgb(14,129,45)" fill-opacity="0.500"/>
    <rect x="0" y="6" width="1" height="1" fill="rgb(42,163,183)" fill-opacity="0.500"/>
    <rect x="3" y="6" width="1" height="1" fill="rgb(8,215,166)" fill-opacity="0.500"/>
    <rect x="6" y="6" width="1" height="1" fill="rgb(48,129,86)" fill-opacity="0.500"/>
  </g>
</svg>
