<?xml version="1.0" encoding="UTF-8"?>
<svg xmlns="http://www.w3.org/2000/svg" width="120" height="216" viewBox="0 0 5 9" shape-rendering="crispEdges">
  <title>U+05E1 (ס)</title>
  
  <g>
    <rect x="1" y="0" width="1" height="1" fill="rgb(31,195,171)" fill-opacity="0.500"/>
    <rect x="2" y="0" width="1" height="1" fill="rgb(111,158,154)" fill-opacity="0.500"/>
    <rect x="3" y="0" width="1" height="1" fill="rgb(14,229,84)" fill-opacity="0.500"/>
    <rect x="0" y="1" width="1" height="1" fill="rgb(110,136,135)" fill-opacity="0.500"/>
    <rect x="4" y="1" width="1" height="1" fill="rgb(7,141,130)" fill-opacity="0.500"/>
    <rect x="0" y="2" width="1" height="1" fill="rgb(113,231,8)" fill-opacity="0.500"/>
    <rect x="4" y="2" width="1" height="1" fill="rgb(121,219,148)" fill-opacity="0.500"/>
    <rect x="0" y="3" width="1" height="1" fill="rgb(47,237,24)" fill-opacity="0.500"/>
    <rect x="4" y="3" width="1" height="1" fill="rgb(42,235,153)" fill-opacity="0.500"/>
    <rect x="0" y="4" width="1" height="1" fill="rgb(12,134,183)" fill-opacity="0.500"/>
    <rect x="4" y="4" width="1" height="1" fill="rgb(26,159,138)" fill-opacity="0.500"/>
    <rect x="0" y="5" width="1" height="1" fill="rgb(66,245,172)" fill-opacity="0.500"/>
    <rect x="4" y="5" width="1" height="1" fill="rgb(37,168,32)" fill-opacity="0.500"/>
    <rect x="1" y="6" width="1" height="1" fill="rgb(61,249,168)" fill-opacity="0.500"/>
    <rect x="2" y="6" width="1" height="1" fill="rgb(39,216,80)" fill-opacity="0.500"/>
    <rect x="3" y="6" width="1" height="1" fill="rgb(39,241,101)" fill-opacity="0.500"/>
  </g>
</svg>
