<?xml version="1.0" encoding="UTF-8"?>
<svg xmlns="http://www.w3.org/2000/svg" width="216" height="216" viewBox="0 0 9 9" shape-rendering="crispEdges">
  <title>U+2682 (⚂)</title>
  
  <g>
    <rect x="0" y="0" width="1" height="1" fill="rgb(100,200,84)" fill-opacity="0.500"/>
    <rect x="1" y="0" width="1" height="1" fill="rgb(94,139,33)" fill-opacity="0.500"/>
    <rect x="2" y="0" width="1" height="1" fill="rgb(10,141,26)" fill-opacity="0.500"/>
    <rect x="3" y="0" width="1" height="1" fill="rgb(49,166,92)" fill-opacity="0.500"/>
    <rect x="4" y="0" width="1" height="1" fill="rgb(109,243,117)" fill-opacity="0.500"/>
    <rect x="5" y="0" width="1" height="1" fill="rgb(98,129,43)" fill-opacity="0.500"/>
    <rect x="6" y="0" width="1" height="1" fill="rgb(8,224,104)" fill-opacity="0.500"/>
    <rect x="7" y="0" width="1" height="1" fill="rgb(67,154,146)" fill-opacity="0.500"/>
    <rect x="8" y="0" width="1" height="1" fill="rgb(45,152,72)" fill-opacity="0.500"/>
    <rect x="0" y="1" width="1" height="1" fill="rgb(42,149,44)" fill-opacity="0.500"/>
    <rect x="8" y="1" width="1" height="1" fill="rgb(125,195,23)" fill-opacity="0.500"/>
    <rect x="0" y="2" width="1" height="1" fill="rgb(11,218,6)" fill-opacity="0.500"/>
    <rect x="2" y="2" width="1" height="1" fill="rgb(33,208,164)" fill-opacity="0.500"/>
    <rect x="8" y="2" width="1" height="1" fill="rgb(57,218,76)" fill-opacity="0.500"/>
    <rect x="0" y="3" width="1" height="1" fill="rgb(43,213,84)" fill-opacity="0.500"/>
    <rect x="8" y="3" width="1" height="1" fill="rgb(64,203,168)" fill-opacity="0.500"/>
    <rect x="0" y="4" width="1" height="1" fill="rgb(60,246,73)" fill-opacity="0.500"/>
    <rect x="4" y="4" width="1" height="1" fill="rgb(76,150,106)" fill-opacity="0.500"/>
    <rect x="8" y="4" width="1" height="1" fill="rgb(52,162,84)" fill-opacity="0.500"/>
    <rect x="0" y="5" width="1" height="1" fill="rgb(66,252,47)" fill-opacity="0.500"/>
    <rect x="8" y="5" width="1" height="1" fill="rgb(26,176,52)" fill-opacity="0.500"/>
    <rect x="0" y="6" width="1" height="1" fill="rgb(69,250,17)" fill-opacity="0.500"/>
    <rect x="6" y="6" width="1" height="1" fill="rgb(79,176,33)" fill-opacity="0.500"/>
    <rect x="8" y="6" width="1" height="1" fill="rgb(72,234,113)" fill-opacity="0.500"/>
    <rect x="0" y="7" width="1" height="1" fill="rgb(96,182,109)" fill-opacity="0.500"/>
    <rect x="8" y="7" width="1" height="1" fill="rgb(8,225,86)" fill-opacity="0.500"/>
    <rect x="0" y="8" width="1" height="1" fill="rgb(83,173,132)" fill-opacity="0.500"/>
    <rect x="1" y="8" width="1" height="1" fill="rgb(121,180,125)" fill-opacity="0.500"/>
    <rect x="2" y="8" width="1" height="1" fill="rgb(62,158,152)" fill-opacity="0.500"/>
    <rect x="3" y="8" width="1" height="1" fill="rgb(112,135,18)" fill-opacity="0.500"/>
    <rect x="4" y="8" width="1" height="1" fill="rgb(15,142,51)" fill-opacity="0.500"/>
    <rect x="5" y="8" width="1" height="1" fill="rgb(18,199,19)" fill-opacity="0.500"/>
    <rect x="6" y="8" width="1" height="1" fill="rgb(116,254,31)" fill-opacity="0.500"/>
    <rect x="7" y="8" width="1" height="1" fill="rgb(118,128,26)" fill-opacity="0.500"/>
    <rect x="8" y="8" width="1" height="1" fill="rgb(78,162,27)" fill-opacity="0.500"/>
  </g>
</svg>
