<?xml version="1.0" encoding="UTF-8"?>
<svg xmlns="http://www.w3.org/2000/svg" width="72" height="216" viewBox="0 0 3 9" shape-rendering="crispEdges">
  <title>U+0055 (U)</title>
  
  <g>
    <rect x="0" y="0" width="1" height="1" fill="rgb(68,193,83)" fill-opacity="0.500"/>
    <rect x="2" y="0" width="1" height="1" fill="rgb(125,242,174)" fill-opacity="0.500"/>
    <rect x="0" y="1" width="1" height="1" fill="rgb(33,219,42)" fill-opacity="0.500"/>
    <rect x="2" y="1" width="1" height="1" fill="rgb(73,142,73)" fill-opacity="0.500"/>
    <rect x="0" y="2" width="1" height="1" fill="rgb(17,169,157)" fill-opacity="0.500"/>
    <rect x="2" y="2" width="1" height="1" fill="rgb(109,148,103)" fill-opacity="0.500"/>
    <rect x="0" y="3" width="1" height="1" fill="rgb(7,161,37)" fill-opacity="0.500"/>
    <rect x="2" y="3" width="1" height="1" fill="rgb(123,251,139)" fill-opacity="0.500"/>
    <rect x="0" y="4" width="1" height="1" fill="rgb(98,231,60)" fill-opacity="0.500"/>
    <rect x="2" y="4" width="1" height="1" fill="rgb(119,180,152)" fill-opacity="0.500"/>
    <rect x="0" y="5" width="1" height="1" fill="rgb(103,155,190)" fill-opacity="0.500"/>
    <rect x="2" y="5" width="1" height="1" fill="rgb(37,131,76)" fill-opacity="0.500"/>
    <rect x="0" y="6" width="1" height="1" fill="rgb(106,199,102)" fill-opacity="0.500"/>
    <rect x="1" y="6" width="1" height="1" fill="rgb(95,149,161)" fill-opacity="0.500"/>
    <rect x="2" y="6" width="1" height="1" fill="rgb(60,232,23)" fill-opacity="0.500"/>
  </g>
</svg>
