<?xml version="1.0" encoding="UTF-8"?>
<svg xmlns="http://www.w3.org/2000/svg" width="96" height="216" viewBox="0 0 4 9" shape-rendering="crispEdges">
  <title>U+0418 (И)</title>
  
  <g>
    <rect x="0" y="0" width="1" height="1" fill="rgb(122,173,148)" fill-opacity="0.500"/>
    <rect x="3" y="0" width="1" height="1" fill="rgb(22,181,126)" fill-opacity="0.500"/>
    <rect x="0" y="1" width="1" height="1" fill="rgb(89,227,77)" fill-opacity="0.500"/>
    <rect x="3" y="1" width="1" height="1" fill="rgb(21,160,83)" fill-opacity="0.500"/>
    <rect x="0" y="2" width="1" height="1" fill="rgb(82,189,10)" fill-opacity="0.500"/>
    <rect x="2" y="2" width="1" height="1" fill="rgb(35,196,91)" fill-opacity="0.500"/>
    <rect x="3" y="2" width="1" height="1" fill="rgb(113,193,63)" fill-opacity="0.500"/>
    <rect x="0" y="3" width="1" height="1" fill="rgb(10,229,172)" fill-opacity="0.500"/>
    <rect x="1" y="3" width="1" height="1" fill="rgb(67,214,81)" fill-opacity="0.500"/>
    <rect x="3" y="3" width="1" height="1" fill="rgb(47,154,99)" fill-opacity="0.500"/>
    <rect x="0" y="4" width="1" height="1" fill="rgb(91,196,130)" fill-opacity="0.500"/>
    <rect x="3" y="4" width="1" height="1" fill="rgb(2,131,50)" fill-opacity="0.500"/>
    <rect x="0" y="5" width="1" height="1" fill="rgb(108,248,168)" fill-opacity="0.500"/>
    <rect x="3" y="5" width="1" height="1" fill="rgb(26,203,127)" fill-opacity="0.500"/>
    <rect x="0" y="6" width="1" height="1" fill="rgb(15,135,156)" fill-opacity="0.500"/>
    <rect x="3" y="6" width="1" height="1" fill="rgb(78,145,177)" fill-opacity="0.500"/>
  </g>
</svg>
