<?xml version="1.0" encoding="UTF-8"?>
<svg xmlns="http://www.w3.org/2000/svg" width="96" height="216" viewBox="0 0 4 9" shape-rendering="crispEdges">
  <title>U+0418 (И)</title>
  
  <g>
    <rect x="0" y="0" width="1" height="1" fill="rgb(29,131,7)" fill-opacity="0.500"/>
    <rect x="3" y="0" width="1" height="1" fill="rgb(123,180,126)" fill-opacity="0.500"/>
    <rect x="0" y="1" width="1" height="1" fill="rgb(17,212,96)" fill-opacity="0.500"/>
    <rect x="1" y="1" width="1" height="1" fill="rgb(79,213,27)" fill-opacity="0.500"/>
    <rect x="3" y="1" width="1" height="1" fill="rgb(43,132,171)" fill-opacity="0.500"/>
    <rect x="0" y="2" width="1" height="1" fill="rgb(15,208,54)" fill-opacity="0.500"/>
    <rect x="2" y="2" width="1" height="1" fill="rgb(6,183,134)" fill-opacity="0.500"/>
    <rect x="3" y="2" width="1" height="1" fill="rgb(122,234,190)" fill-opacity="0.500"/>
    <rect x="0" y="3" width="1" height="1" fill="rgb(11,242,81)" fill-opacity="0.500"/>
    <rect x="3" y="3" width="1" height="1" fill="rgb(15,245,97)" fill-opacity="0.500"/>
    <rect x="0" y="4" width="1" height="1" fill="rgb(17,249,90)" fill-opacity="0.500"/>
    <rect x="3" y="4" width="1" height="1" fill="rgb(50,217,175)" fill-opacity="0.500"/>
    <rect x="0" y="5" width="1" height="1" fill="rgb(46,191,179)" fill-opacity="0.500"/>
    <rect x="3" y="5" width="1" height="1" fill="rgb(60,158,188)" fill-opacity="0.500"/>
    <rect x="0" y="6" width="1" height="1" fill="rgb(60,245,27)" fill-opacity="0.500"/>
    <rect x="3" y="6" width="1" height="1" fill="rgb(76,240,64)" fill-opacity="0.500"/>
  </g>
</svg>
