<?xml version="1.0" encoding="UTF-8"?>
<svg xmlns="http://www.w3.org/2000/svg" width="120" height="216" viewBox="0 0 5 9" shape-rendering="crispEdges">
  <title>U+042E (Ю)</title>
  
  <g>
    <rect x="0" y="0" width="1" height="1" fill="rgb(102,156,25)" fill-opacity="0.500"/>
    <rect x="2" y="0" width="1" height="1" fill="rgb(44,225,97)" fill-opacity="0.500"/>
    <rect x="3" y="0" width="1" height="1" fill="rgb(33,184,59)" fill-opacity="0.500"/>
    <rect x="0" y="1" width="1" height="1" fill="rgb(8,225,3)" fill-opacity="0.500"/>
    <rect x="2" y="1" width="1" height="1" fill="rgb(95,136,130)" fill-opacity="0.500"/>
    <rect x="4" y="1" width="1" height="1" fill="rgb(2,223,116)" fill-opacity="0.500"/>
    <rect x="0" y="2" width="1" height="1" fill="rgb(118,226,19)" fill-opacity="0.500"/>
    <rect x="1" y="2" width="1" height="1" fill="rgb(7,176,57)" fill-opacity="0.500"/>
    <rect x="2" y="2" width="1" height="1" fill="rgb(27,247,119)" fill-opacity="0.500"/>
    <rect x="4" y="2" width="1" height="1" fill="rgb(28,180,154)" fill-opacity="0.500"/>
    <rect x="0" y="3" width="1" height="1" fill="rgb(37,203,65)" fill-opacity="0.500"/>
    <rect x="2" y="3" width="1" height="1" fill="rgb(88,209,33)" fill-opacity="0.500"/>
    <rect x="4" y="3" width="1" height="1" fill="rgb(53,195,24)" fill-opacity="0.500"/>
    <rect x="0" y="4" width="1" height="1" fill="rgb(55,158,48)" fill-opacity="0.500"/>
    <rect x="2" y="4" width="1" height="1" fill="rgb(99,191,33)" fill-opacity="0.500"/>
    <rect x="4" y="4" width="1" height="1" fill="rgb(124,234,79)" fill-opacity="0.500"/>
    <rect x="0" y="5" width="1" height="1" fill="rgb(116,150,171)" fill-opacity="0.500"/>
    <rect x="2" y="5" width="1" height="1" fill="rgb(75,137,13)" fill-opacity="0.500"/>
    <rect x="4" y="5" width="1" height="1" fill="rgb(127,233,29)" fill-opacity="0.500"/>
    <rect x="0" y="6" width="1" height="1" fill="rgb(66,148,83)" fill-opacity="0.500"/>
    <rect x="2" y="6" width="1" height="1" fill="rgb(99,249,2)" fill-opacity="0.500"/>
    <rect x="3" y="6" width="1" height="1" fill="rgb(53,171,138)" fill-opacity="0.500"/>
  </g>
</svg>
