<?xml version="1.0" encoding="UTF-8"?>
<svg xmlns="http://www.w3.org/2000/svg" width="72" height="216" viewBox="0 0 3 9" shape-rendering="crispEdges">
  <title>U+0411 (Б)</title>
  
  <g>
    <rect x="0" y="0" width="1" height="1" fill="rgb(52,130,173)" fill-opacity="0.500"/>
    <rect x="1" y="0" width="1" height="1" fill="rgb(118,138,26)" fill-opacity="0.500"/>
    <rect x="2" y="0" width="1" height="1" fill="rgb(99,153,150)" fill-opacity="0.500"/>
    <rect x="0" y="1" width="1" height="1" fill="rgb(74,185,136)" fill-opacity="0.500"/>
    <rect x="0" y="2" width="1" height="1" fill="rgb(3,254,176)" fill-opacity="0.500"/>
    <rect x="0" y="3" width="1" height="1" fill="rgb(105,193,63)" fill-opacity="0.500"/>
    <rect x="1" y="3" width="1" height="1" fill="rgb(124,214,76)" fill-opacity="0.500"/>
    <rect x="2" y="3" width="1" height="1" fill="rgb(50,210,131)" fill-opacity="0.500"/>
    <rect x="0" y="4" width="1" height="1" fill="rgb(50,201,157)" fill-opacity="0.500"/>
    <rect x="2" y="4" width="1" height="1" fill="rgb(127,232,164)" fill-opacity="0.500"/>
    <rect x="0" y="5" width="1" height="1" fill="rgb(106,233,89)" fill-opacity="0.500"/>
    <rect x="2" y="5" width="1" height="1" fill="rgb(59,232,62)" fill-opacity="0.500"/>
    <rect x="0" y="6" width="1" height="1" fill="rgb(47,225,187)" fill-opacity="0.500"/>
    <rect x="1" y="6" width="1" height="1" fill="rgb(11,129,140)" fill-opacity="0.500"/>
    <rect x="2" y="6" width="1" height="1" fill="rgb(32,157,177)" fill-opacity="0.500"/>
  </g>
</svg>
