<?xml version="1.0" encoding="UTF-8"?>
<svg xmlns="http://www.w3.org/2000/svg" width="120" height="216" viewBox="0 0 5 9" shape-rendering="crispEdges">
  <title>U+05E7 (ק)</title>
  
  <g>
    <rect x="1" y="0" width="1" height="1" fill="rgb(1,140,99)" fill-opacity="0.500"/>
    <rect x="2" y="0" width="1" height="1" fill="rgb(84,220,161)" fill-opacity="0.500"/>
    <rect x="3" y="0" width="1" height="1" fill="rgb(75,179,48)" fill-opacity="0.500"/>
    <rect x="0" y="1" width="1" height="1" fill="rgb(110,135,96)" fill-opacity="0.500"/>
    <rect x="4" y="1" width="1" height="1" fill="rgb(124,195,56)" fill-opacity="0.500"/>
    <rect x="0" y="2" width="1" height="1" fill="rgb(80,170,127)" fill-opacity="0.500"/>
    <rect x="4" y="2" width="1" height="1" fill="rgb(38,172,166)" fill-opacity="0.500"/>
    <rect x="0" y="3" width="1" height="1" fill="rgb(111,210,41)" fill-opacity="0.500"/>
    <rect x="4" y="3" width="1" height="1" fill="rgb(58,140,147)" fill-opacity="0.500"/>
    <rect x="0" y="4" width="1" height="1" fill="rgb(36,149,94)" fill-opacity="0.500"/>
    <rect x="4" y="4" width="1" height="1" fill="rgb(65,138,123)" fill-opacity="0.500"/>
    <rect x="1" y="5" width="1" height="1" fill="rgb(125,223,76)" fill-opacity="0.500"/>
    <rect x="2" y="5" width="1" height="1" fill="rgb(3,230,76)" fill-opacity="0.500"/>
    <rect x="3" y="5" width="1" height="1" fill="rgb(75,203,143)" fill-opacity="0.500"/>
    <rect x="3" y="6" width="1" height="1" fill="rgb(111,141,5)" fill-opacity="0.500"/>
    <rect x="3" y="7" width="1" height="1" fill="rgb(65,162,99)" fill-opacity="0.500"/>
  </g>
</svg>
