<?xml version="1.0" encoding="UTF-8"?>
<svg xmlns="http://www.w3.org/2000/svg" width="168" height="216" viewBox="0 0 7 9" shape-rendering="crispEdges">
  <title>U+2629 (☩)</title>
  
  <g>
    <rect x="2" y="0" width="1" height="1" fill="rgb(109,179,82)" fill-opacity="0.500"/>
    <rect x="3" y="0" width="1" height="1" fill="rgb(111,233,112)" fill-opacity="0.500"/>
    <rect x="4" y="0" width="1" height="1" fill="rgb(126,146,59)" fill-opacity="0.500"/>
    <rect x="3" y="1" width="1" height="1" fill="rgb(84,147,69)" fill-opacity="0.500"/>
    <rect x="0" y="2" width="1" height="1" fill="rgb(69,194,119)" fill-opacity="0.500"/>
    <rect x="3" y="2" width="1" height="1" fill="rgb(116,215,113)" fill-opacity="0.500"/>
    <rect x="6" y="2" width="1" height="1" fill="rgb(32,156,31)" fill-opacity="0.500"/>
    <rect x="0" y="3" width="1" height="1" fill="rgb(68,172,141)" fill-opacity="0.500"/>
    <rect x="1" y="3" width="1" height="1" fill="rgb(8,253,186)" fill-opacity="0.500"/>
    <rect x="2" y="3" width="1" height="1" fill="rgb(65,145,185)" fill-opacity="0.500"/>
    <rect x="3" y="3" width="1" height="1" fill="rgb(115,253,147)" fill-opacity="0.500"/>
    <rect x="4" y="3" width="1" height="1" fill="rgb(40,173,81)" fill-opacity="0.500"/>
    <rect x="5" y="3" width="1" height="1" fill="rgb(87,166,138)" fill-opacity="0.500"/>
    <rect x="6" y="3" width="1" height="1" fill="rgb(25,141,28)" fill-opacity="0.500"/>
    <rect x="0" y="4" width="1" height="1" fill="rgb(109,154,112)" fill-opacity="0.500"/>
    <rect x="3" y="4" width="1" height="1" fill="rgb(32,186,124)" fill-opacity="0.500"/>
    <rect x="6" y="4" width="1" height="1" fill="rgb(108,156,110)" fill-opacity="0.500"/>
    <rect x="3" y="5" width="1" height="1" fill="rgb(87,134,29)" fill-opacity="0.500"/>
    <rect x="2" y="6" width="1" height="1" fill="rgb(33,207,179)" fill-opacity="0.500"/>
    <rect x="3" y="6" width="1" height="1" fill="rgb(41,178,15)" fill-opacity="0.500"/>
    <rect x="4" y="6" width="1" height="1" fill="rgb(27,235,142)" fill-opacity="0.500"/>
  </g>
</svg>
