<?xml version="1.0" encoding="UTF-8"?>
<svg xmlns="http://www.w3.org/2000/svg" width="72" height="216" viewBox="0 0 3 9" shape-rendering="crispEdges">
  <title>U+004E (N)</title>
  
  <g>
    <rect x="0" y="0" width="1" height="1" fill="rgb(44,198,118)" fill-opacity="0.500"/>
    <rect x="1" y="0" width="1" height="1" fill="rgb(124,245,110)" fill-opacity="0.500"/>
    <rect x="2" y="0" width="1" height="1" fill="rgb(63,135,123)" fill-opacity="0.500"/>
    <rect x="0" y="1" width="1" height="1" fill="rgb(58,176,23)" fill-opacity="0.500"/>
    <rect x="2" y="1" width="1" height="1" fill="rgb(22,129,3)" fill-opacity="0.500"/>
    <rect x="0" y="2" width="1" height="1" fill="rgb(89,185,156)" fill-opacity="0.500"/>
    <rect x="2" y="2" width="1" height="1" fill="rgb(52,128,70)" fill-opacity="0.500"/>
    <rect x="0" y="3" width="1" height="1" fill="rgb(11,145,42)" fill-opacity="0.500"/>
    <rect x="2" y="3" width="1" height="1" fill="rgb(62,143,178)" fill-opacity="0.500"/>
    <rect x="0" y="4" width="1" height="1" fill="rgb(103,155,127)" fill-opacity="0.500"/>
    <rect x="2" y="4" width="1" height="1" fill="rgb(33,189,151)" fill-opacity="0.500"/>
    <rect x="0" y="5" width="1" height="1" fill="rgb(83,171,174)" fill-opacity="0.500"/>
    <rect x="2" y="5" width="1" height="1" fill="rgb(112,194,177)" fill-opacity="0.500"/>
    <rect x="0" y="6" width="1" height="1" fill="rgb(53,226,177)" fill-opacity="0.500"/>
    <rect x="2" y="6" width="1" height="1" fill="rgb(83,147,55)" fill-opacity="0.500"/>
  </g>
</svg>
