<?xml version="1.0" encoding="UTF-8"?>
<svg xmlns="http://www.w3.org/2000/svg" width="72" height="216" viewBox="0 0 3 9" shape-rendering="crispEdges">
  <title>U+00A7 (§)</title>
  
  <g>
    <rect x="0" y="0" width="1" height="1" fill="rgb(79,191,171)" fill-opacity="0.500"/>
    <rect x="1" y="0" width="1" height="1" fill="rgb(93,162,52)" fill-opacity="0.500"/>
    <rect x="2" y="0" width="1" height="1" fill="rgb(31,161,182)" fill-opacity="0.500"/>
    <rect x="0" y="1" width="1" height="1" fill="rgb(87,220,33)" fill-opacity="0.500"/>
    <rect x="0" y="2" width="1" height="1" fill="rgb(21,255,167)" fill-opacity="0.500"/>
    <rect x="0" y="3" width="1" height="1" fill="rgb(9,199,37)" fill-opacity="0.500"/>
    <rect x="1" y="3" width="1" height="1" fill="rgb(15,143,28)" fill-opacity="0.500"/>
    <rect x="2" y="3" width="1" height="1" fill="rgb(91,210,81)" fill-opacity="0.500"/>
    <rect x="0" y="4" width="1" height="1" fill="rgb(27,232,22)" fill-opacity="0.500"/>
    <rect x="2" y="4" width="1" height="1" fill="rgb(83,151,141)" fill-opacity="0.500"/>
    <rect x="0" y="5" width="1" height="1" fill="rgb(69,163,146)" fill-opacity="0.500"/>
    <rect x="1" y="5" width="1" height="1" fill="rgb(47,190,26)" fill-opacity="0.500"/>
    <rect x="2" y="5" width="1" height="1" fill="rgb(36,200,166)" fill-opacity="0.500"/>
    <rect x="2" y="6" width="1" height="1" fill="rgb(24,193,44)" fill-opacity="0.500"/>
    <rect x="2" y="7" width="1" height="1" fill="rgb(74,240,179)" fill-opacity="0.500"/>
    <rect x="0" y="8" width="1" height="1" fill="rgb(68,172,153)" fill-opacity="0.500"/>
    <rect x="1" y="8" width="1" height="1" fill="rgb(52,202,159)" fill-opacity="0.500"/>
    <rect x="2" y="8" width="1" height="1" fill="rgb(63,188,16)" fill-opacity="0.500"/>
  </g>
</svg>
