<?xml version="1.0" encoding="UTF-8"?>
<svg xmlns="http://www.w3.org/2000/svg" width="120" height="216" viewBox="0 0 5 9" shape-rendering="crispEdges">
  <title>U+2626 (☦)</title>
  
  <g>
    <rect x="2" y="0" width="1" height="1" fill="rgb(25,216,157)" fill-opacity="0.500"/>
    <rect x="1" y="1" width="1" height="1" fill="rgb(29,250,73)" fill-opacity="0.500"/>
    <rect x="2" y="1" width="1" height="1" fill="rgb(114,215,9)" fill-opacity="0.500"/>
    <rect x="3" y="1" width="1" height="1" fill="rgb(23,176,15)" fill-opacity="0.500"/>
    <rect x="2" y="2" width="1" height="1" fill="rgb(29,243,8)" fill-opacity="0.500"/>
    <rect x="0" y="3" width="1" height="1" fill="rgb(77,155,98)" fill-opacity="0.500"/>
    <rect x="1" y="3" width="1" height="1" fill="rgb(77,187,89)" fill-opacity="0.500"/>
    <rect x="2" y="3" width="1" height="1" fill="rgb(72,147,23)" fill-opacity="0.500"/>
    <rect x="3" y="3" width="1" height="1" fill="rgb(117,131,26)" fill-opacity="0.500"/>
    <rect x="4" y="3" width="1" height="1" fill="rgb(70,214,134)" fill-opacity="0.500"/>
    <rect x="2" y="4" width="1" height="1" fill="rgb(16,187,171)" fill-opacity="0.500"/>
    <rect x="1" y="5" width="1" height="1" fill="rgb(30,157,168)" fill-opacity="0.500"/>
    <rect x="2" y="5" width="1" height="1" fill="rgb(1,200,122)" fill-opacity="0.500"/>
    <rect x="2" y="6" width="1" height="1" fill="rgb(122,202,47)" fill-opacity="0.500"/>
    <rect x="3" y="6" width="1" height="1" fill="rgb(23,240,18)" fill-opacity="0.500"/>
    <rect x="2" y="7" width="1" height="1" fill="rgb(58,240,188)" fill-opacity="0.500"/>
    <rect x="2" y="8" width="1" height="1" fill="rgb(75,131,126)" fill-opacity="0.500"/>
  </g>
</svg>
