<?xml version="1.0" encoding="UTF-8"?>
<svg xmlns="http://www.w3.org/2000/svg" width="120" height="216" viewBox="0 0 5 9" shape-rendering="crispEdges">
  <title>U+2628 (☨)</title>
  
  <g>
    <rect x="2" y="0" width="1" height="1" fill="rgb(126,192,172)" fill-opacity="0.500"/>
    <rect x="1" y="1" width="1" height="1" fill="rgb(119,157,144)" fill-opacity="0.500"/>
    <rect x="2" y="1" width="1" height="1" fill="rgb(58,235,47)" fill-opacity="0.500"/>
    <rect x="3" y="1" width="1" height="1" fill="rgb(63,204,70)" fill-opacity="0.500"/>
    <rect x="2" y="2" width="1" height="1" fill="rgb(73,164,77)" fill-opacity="0.500"/>
    <rect x="0" y="3" width="1" height="1" fill="rgb(81,249,106)" fill-opacity="0.500"/>
    <rect x="1" y="3" width="1" height="1" fill="rgb(25,228,173)" fill-opacity="0.500"/>
    <rect x="2" y="3" width="1" height="1" fill="rgb(116,240,1)" fill-opacity="0.500"/>
    <rect x="3" y="3" width="1" height="1" fill="rgb(82,129,20)" fill-opacity="0.500"/>
    <rect x="4" y="3" width="1" height="1" fill="rgb(124,134,92)" fill-opacity="0.500"/>
    <rect x="2" y="4" width="1" height="1" fill="rgb(109,158,184)" fill-opacity="0.500"/>
    <rect x="2" y="5" width="1" height="1" fill="rgb(45,151,136)" fill-opacity="0.500"/>
    <rect x="2" y="6" width="1" height="1" fill="rgb(95,245,50)" fill-opacity="0.500"/>
    <rect x="2" y="7" width="1" height="1" fill="rgb(59,139,82)" fill-opacity="0.500"/>
    <rect x="2" y="8" width="1" height="1" fill="rgb(34,172,78)" fill-opacity="0.500"/>
  </g>
</svg>
