<?xml version="1.0" encoding="UTF-8"?>
<svg xmlns="http://www.w3.org/2000/svg" width="72" height="216" viewBox="0 0 3 9" shape-rendering="crispEdges">
  <title>U+004E (N)</title>
  
  <g>
    <rect x="0" y="0" width="1" height="1" fill="rgb(117,221,126)" fill-opacity="0.500"/>
    <rect x="1" y="0" width="1" height="1" fill="rgb(56,220,158)" fill-opacity="0.500"/>
    <rect x="2" y="0" width="1" height="1" fill="rgb(89,182,27)" fill-opacity="0.500"/>
    <rect x="0" y="1" width="1" height="1" fill="rgb(21,208,24)" fill-opacity="0.500"/>
    <rect x="2" y="1" width="1" height="1" fill="rgb(58,168,28)" fill-opacity="0.500"/>
    <rect x="0" y="2" width="1" height="1" fill="rgb(83,169,63)" fill-opacity="0.500"/>
    <rect x="2" y="2" width="1" height="1" fill="rgb(111,160,178)" fill-opacity="0.500"/>
    <rect x="0" y="3" width="1" height="1" fill="rgb(90,229,100)" fill-opacity="0.500"/>
    <rect x="2" y="3" width="1" height="1" fill="rgb(3,182,136)" fill-opacity="0.500"/>
    <rect x="0" y="4" width="1" height="1" fill="rgb(123,219,19)" fill-opacity="0.500"/>
    <rect x="2" y="4" width="1" height="1" fill="rgb(17,190,155)" fill-opacity="0.500"/>
    <rect x="0" y="5" width="1" height="1" fill="rgb(6,188,175)" fill-opacity="0.500"/>
    <rect x="2" y="5" width="1" height="1" fill="rgb(53,253,87)" fill-opacity="0.500"/>
    <rect x="0" y="6" width="1" height="1" fill="rgb(115,204,10)" fill-opacity="0.500"/>
    <rect x="2" y="6" width="1" height="1" fill="rgb(17,131,79)" fill-opacity="0.500"/>
  </g>
</svg>
