<?xml version="1.0" encoding="UTF-8"?>
<svg xmlns="http://www.w3.org/2000/svg" width="120" height="216" viewBox="0 0 5 9" shape-rendering="crispEdges">
  <title>U+05E6 (צ)</title>
  
  <g>
    <rect x="2" y="0" width="1" height="1" fill="rgb(75,138,175)" fill-opacity="0.500"/>
    <rect x="2" y="1" width="1" height="1" fill="rgb(55,222,189)" fill-opacity="0.500"/>
    <rect x="3" y="1" width="1" height="1" fill="rgb(56,168,62)" fill-opacity="0.500"/>
    <rect x="1" y="2" width="1" height="1" fill="rgb(53,251,20)" fill-opacity="0.500"/>
    <rect x="3" y="2" width="1" height="1" fill="rgb(53,176,156)" fill-opacity="0.500"/>
    <rect x="0" y="3" width="1" height="1" fill="rgb(104,158,127)" fill-opacity="0.500"/>
    <rect x="3" y="3" width="1" height="1" fill="rgb(73,234,127)" fill-opacity="0.500"/>
    <rect x="0" y="4" width="1" height="1" fill="rgb(2,158,67)" fill-opacity="0.500"/>
    <rect x="3" y="4" width="1" height="1" fill="rgb(55,189,44)" fill-opacity="0.500"/>
    <rect x="0" y="5" width="1" height="1" fill="rgb(67,179,34)" fill-opacity="0.500"/>
    <rect x="3" y="5" width="1" height="1" fill="rgb(89,247,184)" fill-opacity="0.500"/>
    <rect x="0" y="6" width="1" height="1" fill="rgb(116,212,156)" fill-opacity="0.500"/>
    <rect x="1" y="6" width="1" height="1" fill="rgb(96,219,51)" fill-opacity="0.500"/>
    <rect x="2" y="6" width="1" height="1" fill="rgb(90,135,123)" fill-opacity="0.500"/>
    <rect x="3" y="6" width="1" height="1" fill="rgb(64,223,155)" fill-opacity="0.500"/>
  </g>
</svg>
