<?xml version="1.0" encoding="UTF-8"?>
<svg xmlns="http://www.w3.org/2000/svg" width="120" height="216" viewBox="0 0 5 9" shape-rendering="crispEdges">
  <title>U+05D8 (ט)</title>
  
  <g>
    <rect x="1" y="0" width="1" height="1" fill="rgb(90,144,72)" fill-opacity="0.500"/>
    <rect x="2" y="0" width="1" height="1" fill="rgb(72,207,74)" fill-opacity="0.500"/>
    <rect x="3" y="0" width="1" height="1" fill="rgb(42,203,134)" fill-opacity="0.500"/>
    <rect x="0" y="1" width="1" height="1" fill="rgb(71,213,57)" fill-opacity="0.500"/>
    <rect x="4" y="1" width="1" height="1" fill="rgb(114,249,145)" fill-opacity="0.500"/>
    <rect x="0" y="2" width="1" height="1" fill="rgb(5,181,107)" fill-opacity="0.500"/>
    <rect x="2" y="2" width="1" height="1" fill="rgb(33,160,49)" fill-opacity="0.500"/>
    <rect x="4" y="2" width="1" height="1" fill="rgb(95,159,28)" fill-opacity="0.500"/>
    <rect x="0" y="3" width="1" height="1" fill="rgb(122,248,27)" fill-opacity="0.500"/>
    <rect x="2" y="3" width="1" height="1" fill="rgb(28,136,11)" fill-opacity="0.500"/>
    <rect x="4" y="3" width="1" height="1" fill="rgb(87,216,183)" fill-opacity="0.500"/>
    <rect x="0" y="4" width="1" height="1" fill="rgb(3,227,71)" fill-opacity="0.500"/>
    <rect x="4" y="4" width="1" height="1" fill="rgb(75,218,46)" fill-opacity="0.500"/>
    <rect x="0" y="5" width="1" height="1" fill="rgb(97,219,182)" fill-opacity="0.500"/>
    <rect x="4" y="5" width="1" height="1" fill="rgb(125,172,183)" fill-opacity="0.500"/>
    <rect x="1" y="6" width="1" height="1" fill="rgb(72,202,50)" fill-opacity="0.500"/>
    <rect x="2" y="6" width="1" height="1" fill="rgb(91,207,185)" fill-opacity="0.500"/>
    <rect x="3" y="6" width="1" height="1" fill="rgb(70,210,52)" fill-opacity="0.500"/>
  </g>
</svg>
