<?xml version="1.0" encoding="UTF-8"?>
<svg xmlns="http://www.w3.org/2000/svg" width="120" height="216" viewBox="0 0 5 9" shape-rendering="crispEdges">
  <title>U+004D (M)</title>
  
  <g>
    <rect x="0" y="0" width="1" height="1" fill="rgb(53,172,61)" fill-opacity="0.500"/>
    <rect x="1" y="0" width="1" height="1" fill="rgb(103,214,164)" fill-opacity="0.500"/>
    <rect x="2" y="0" width="1" height="1" fill="rgb(119,199,102)" fill-opacity="0.500"/>
    <rect x="3" y="0" width="1" height="1" fill="rgb(59,135,111)" fill-opacity="0.500"/>
    <rect x="4" y="0" width="1" height="1" fill="rgb(24,212,76)" fill-opacity="0.500"/>
    <rect x="0" y="1" width="1" height="1" fill="rgb(23,134,131)" fill-opacity="0.500"/>
    <rect x="2" y="1" width="1" height="1" fill="rgb(85,202,25)" fill-opacity="0.500"/>
    <rect x="4" y="1" width="1" height="1" fill="rgb(34,131,142)" fill-opacity="0.500"/>
    <rect x="0" y="2" width="1" height="1" fill="rgb(43,255,35)" fill-opacity="0.500"/>
    <rect x="2" y="2" width="1" height="1" fill="rgb(34,144,176)" fill-opacity="0.500"/>
    <rect x="4" y="2" width="1" height="1" fill="rgb(97,186,186)" fill-opacity="0.500"/>
    <rect x="0" y="3" width="1" height="1" fill="rgb(116,151,81)" fill-opacity="0.500"/>
    <rect x="2" y="3" width="1" height="1" fill="rgb(42,242,48)" fill-opacity="0.500"/>
    <rect x="4" y="3" width="1" height="1" fill="rgb(57,189,182)" fill-opacity="0.500"/>
    <rect x="0" y="4" width="1" height="1" fill="rgb(15,179,55)" fill-opacity="0.500"/>
    <rect x="2" y="4" width="1" height="1" fill="rgb(48,150,41)" fill-opacity="0.500"/>
    <rect x="4" y="4" width="1" height="1" fill="rgb(127,133,171)" fill-opacity="0.500"/>
    <rect x="0" y="5" width="1" height="1" fill="rgb(87,222,31)" fill-opacity="0.500"/>
    <rect x="2" y="5" width="1" height="1" fill="rgb(70,225,80)" fill-opacity="0.500"/>
    <rect x="4" y="5" width="1" height="1" fill="rgb(43,210,74)" fill-opacity="0.500"/>
    <rect x="0" y="6" width="1" height="1" fill="rgb(4,174,44)" fill-opacity="0.500"/>
    <rect x="2" y="6" width="1" height="1" fill="rgb(30,147,149)" fill-opacity="0.500"/>
    <rect x="4" y="6" width="1" height="1" fill="rgb(83,154,153)" fill-opacity="0.500"/>
  </g>
</svg>
