<?xml version="1.0" encoding="UTF-8"?>
<svg xmlns="http://www.w3.org/2000/svg" width="168" height="216" viewBox="0 0 7 9" shape-rendering="crispEdges">
  <title>U+203B (※)</title>
  
  <g>
    <rect x="0" y="0" width="1" height="1" fill="rgb(6,140,11)" fill-opacity="0.500"/>
    <rect x="3" y="0" width="1" height="1" fill="rgb(72,225,13)" fill-opacity="0.500"/>
    <rect x="6" y="0" width="1" height="1" fill="rgb(75,176,64)" fill-opacity="0.500"/>
    <rect x="1" y="1" width="1" height="1" fill="rgb(126,193,153)" fill-opacity="0.500"/>
    <rect x="5" y="1" width="1" height="1" fill="rgb(4,170,44)" fill-opacity="0.500"/>
    <rect x="2" y="2" width="1" height="1" fill="rgb(57,181,55)" fill-opacity="0.500"/>
    <rect x="4" y="2" width="1" height="1" fill="rgb(85,165,60)" fill-opacity="0.500"/>
    <rect x="0" y="3" width="1" height="1" fill="rgb(112,230,190)" fill-opacity="0.500"/>
    <rect x="3" y="3" width="1" height="1" fill="rgb(56,223,136)" fill-opacity="0.500"/>
    <rect x="6" y="3" width="1" height="1" fill="rgb(57,137,128)" fill-opacity="0.500"/>
    <rect x="2" y="4" width="1" height="1" fill="rgb(113,193,104)" fill-opacity="0.500"/>
    <rect x="4" y="4" width="1" height="1" fill="rgb(96,213,73)" fill-opacity="0.500"/>
    <rect x="1" y="5" width="1" height="1" fill="rgb(85,247,150)" fill-opacity="0.500"/>
    <rect x="5" y="5" width="1" height="1" fill="rgb(91,161,140)" fill-opacity="0.500"/>
    <rect x="0" y="6" width="1" height="1" fill="rgb(35,172,80)" fill-opacity="0.500"/>
    <rect x="3" y="6" width="1" height="1" fill="rgb(71,232,125)" fill-opacity="0.500"/>
    <rect x="6" y="6" width="1" height="1" fill="rgb(34,246,131)" fill-opacity="0.500"/>
  </g>
</svg>
