<?xml version="1.0" encoding="UTF-8"?>
<svg xmlns="http://www.w3.org/2000/svg" width="72" height="216" viewBox="0 0 3 9" shape-rendering="crispEdges">
  <title>U+0410 (А)</title>
  
  <g>
    <rect x="0" y="0" width="1" height="1" fill="rgb(92,205,64)" fill-opacity="0.500"/>
    <rect x="1" y="0" width="1" height="1" fill="rgb(82,247,156)" fill-opacity="0.500"/>
    <rect x="2" y="0" width="1" height="1" fill="rgb(56,169,6)" fill-opacity="0.500"/>
    <rect x="0" y="1" width="1" height="1" fill="rgb(124,150,86)" fill-opacity="0.500"/>
    <rect x="2" y="1" width="1" height="1" fill="rgb(93,243,166)" fill-opacity="0.500"/>
    <rect x="0" y="2" width="1" height="1" fill="rgb(82,202,142)" fill-opacity="0.500"/>
    <rect x="2" y="2" width="1" height="1" fill="rgb(25,135,98)" fill-opacity="0.500"/>
    <rect x="0" y="3" width="1" height="1" fill="rgb(46,163,123)" fill-opacity="0.500"/>
    <rect x="1" y="3" width="1" height="1" fill="rgb(87,250,175)" fill-opacity="0.500"/>
    <rect x="2" y="3" width="1" height="1" fill="rgb(34,225,169)" fill-opacity="0.500"/>
    <rect x="0" y="4" width="1" height="1" fill="rgb(20,245,84)" fill-opacity="0.500"/>
    <rect x="2" y="4" width="1" height="1" fill="rgb(100,239,23)" fill-opacity="0.500"/>
    <rect x="0" y="5" width="1" height="1" fill="rgb(104,133,186)" fill-opacity="0.500"/>
    <rect x="2" y="5" width="1" height="1" fill="rgb(35,188,104)" fill-opacity="0.500"/>
    <rect x="0" y="6" width="1" height="1" fill="rgb(31,133,39)" fill-opacity="0.500"/>
    <rect x="2" y="6" width="1" height="1" fill="rgb(23,249,144)" fill-opacity="0.500"/>
  </g>
</svg>
