<?xml version="1.0" encoding="UTF-8"?>
<svg xmlns="http://www.w3.org/2000/svg" width="144" height="216" viewBox="0 0 6 9" shape-rendering="crispEdges">
  <title>U+00A9 (©)</title>
  
  <g>
    <rect x="0" y="1" width="1" height="1" fill="rgb(91,252,172)" fill-opacity="0.500"/>
    <rect x="1" y="1" width="1" height="1" fill="rgb(74,218,168)" fill-opacity="0.500"/>
    <rect x="2" y="1" width="1" height="1" fill="rgb(47,245,140)" fill-opacity="0.500"/>
    <rect x="3" y="1" width="1" height="1" fill="rgb(19,160,115)" fill-opacity="0.500"/>
    <rect x="4" y="1" width="1" height="1" fill="rgb(15,244,116)" fill-opacity="0.500"/>
    <rect x="5" y="1" width="1" height="1" fill="rgb(26,155,27)" fill-opacity="0.500"/>
    <rect x="0" y="2" width="1" height="1" fill="rgb(78,157,71)" fill-opacity="0.500"/>
    <rect x="5" y="2" width="1" height="1" fill="rgb(47,148,69)" fill-opacity="0.500"/>
    <rect x="0" y="3" width="1" height="1" fill="rgb(99,220,38)" fill-opacity="0.500"/>
    <rect x="2" y="3" width="1" height="1" fill="rgb(16,253,158)" fill-opacity="0.500"/>
    <rect x="3" y="3" width="1" height="1" fill="rgb(8,163,4)" fill-opacity="0.500"/>
    <rect x="5" y="3" width="1" height="1" fill="rgb(43,239,81)" fill-opacity="0.500"/>
    <rect x="0" y="4" width="1" height="1" fill="rgb(63,168,73)" fill-opacity="0.500"/>
    <rect x="2" y="4" width="1" height="1" fill="rgb(24,230,134)" fill-opacity="0.500"/>
    <rect x="5" y="4" width="1" height="1" fill="rgb(41,159,40)" fill-opacity="0.500"/>
    <rect x="0" y="5" width="1" height="1" fill="rgb(126,128,72)" fill-opacity="0.500"/>
    <rect x="2" y="5" width="1" height="1" fill="rgb(118,169,124)" fill-opacity="0.500"/>
    <rect x="3" y="5" width="1" height="1" fill="rgb(47,222,171)" fill-opacity="0.500"/>
    <rect x="5" y="5" width="1" height="1" fill="rgb(12,172,161)" fill-opacity="0.500"/>
    <rect x="0" y="6" width="1" height="1" fill="rgb(29,209,177)" fill-opacity="0.500"/>
    <rect x="5" y="6" width="1" height="1" fill="rgb(66,179,61)" fill-opacity="0.500"/>
    <rect x="0" y="7" width="1" height="1" fill="rgb(77,214,77)" fill-opacity="0.500"/>
    <rect x="1" y="7" width="1" height="1" fill="rgb(45,150,115)" fill-opacity="0.500"/>
    <rect x="2" y="7" width="1" height="1" fill="rgb(113,183,109)" fill-opacity="0.500"/>
    <rect x="3" y="7" width="1" height="1" fill="rgb(47,230,129)" fill-opacity="0.500"/>
    <rect x="4" y="7" width="1" height="1" fill="rgb(50,192,83)" fill-opacity="0.500"/>
    <rect x="5" y="7" width="1" height="1" fill="rgb(50,128,91)" fill-opacity="0.500"/>
  </g>
</svg>
