<?xml version="1.0" encoding="UTF-8"?>
<svg xmlns="http://www.w3.org/2000/svg" width="120" height="216" viewBox="0 0 5 9" shape-rendering="crispEdges">
  <title>U+0077 (w)</title>
  
  <g>
    <rect x="0" y="2" width="1" height="1" fill="rgb(95,231,20)" fill-opacity="0.500"/>
    <rect x="2" y="2" width="1" height="1" fill="rgb(109,160,149)" fill-opacity="0.500"/>
    <rect x="4" y="2" width="1" height="1" fill="rgb(33,150,3)" fill-opacity="0.500"/>
    <rect x="0" y="3" width="1" height="1" fill="rgb(82,191,151)" fill-opacity="0.500"/>
    <rect x="2" y="3" width="1" height="1" fill="rgb(13,225,147)" fill-opacity="0.500"/>
    <rect x="4" y="3" width="1" height="1" fill="rgb(7,160,68)" fill-opacity="0.500"/>
    <rect x="0" y="4" width="1" height="1" fill="rgb(52,232,86)" fill-opacity="0.500"/>
    <rect x="2" y="4" width="1" height="1" fill="rgb(81,198,31)" fill-opacity="0.500"/>
    <rect x="4" y="4" width="1" height="1" fill="rgb(98,200,138)" fill-opacity="0.500"/>
    <rect x="0" y="5" width="1" height="1" fill="rgb(80,253,101)" fill-opacity="0.500"/>
    <rect x="2" y="5" width="1" height="1" fill="rgb(21,222,146)" fill-opacity="0.500"/>
    <rect x="4" y="5" width="1" height="1" fill="rgb(97,254,52)" fill-opacity="0.500"/>
    <rect x="0" y="6" width="1" height="1" fill="rgb(127,183,47)" fill-opacity="0.500"/>
    <rect x="1" y="6" width="1" height="1" fill="rgb(66,156,108)" fill-opacity="0.500"/>
    <rect x="2" y="6" width="1" height="1" fill="rgb(51,203,9)" fill-opacity="0.500"/>
    <rect x="3" y="6" width="1" height="1" fill="rgb(70,149,110)" fill-opacity="0.500"/>
    <rect x="4" y="6" width="1" height="1" fill="rgb(56,242,174)" fill-opacity="0.500"/>
  </g>
</svg>
