<?xml version="1.0" encoding="UTF-8"?>
<svg xmlns="http://www.w3.org/2000/svg" width="120" height="216" viewBox="0 0 5 9" shape-rendering="crispEdges">
  <title>U+05E3 (ף)</title>
  
  <g>
    <rect x="0" y="0" width="1" height="1" fill="rgb(71,180,9)" fill-opacity="0.500"/>
    <rect x="1" y="0" width="1" height="1" fill="rgb(70,208,189)" fill-opacity="0.500"/>
    <rect x="2" y="0" width="1" height="1" fill="rgb(123,128,185)" fill-opacity="0.500"/>
    <rect x="3" y="0" width="1" height="1" fill="rgb(17,177,106)" fill-opacity="0.500"/>
    <rect x="0" y="1" width="1" height="1" fill="rgb(93,139,81)" fill-opacity="0.500"/>
    <rect x="4" y="1" width="1" height="1" fill="rgb(77,179,125)" fill-opacity="0.500"/>
    <rect x="0" y="2" width="1" height="1" fill="rgb(90,175,12)" fill-opacity="0.500"/>
    <rect x="4" y="2" width="1" height="1" fill="rgb(15,148,160)" fill-opacity="0.500"/>
    <rect x="0" y="3" width="1" height="1" fill="rgb(81,230,167)" fill-opacity="0.500"/>
    <rect x="1" y="3" width="1" height="1" fill="rgb(121,182,9)" fill-opacity="0.500"/>
    <rect x="2" y="3" width="1" height="1" fill="rgb(25,152,55)" fill-opacity="0.500"/>
    <rect x="3" y="3" width="1" height="1" fill="rgb(38,142,127)" fill-opacity="0.500"/>
    <rect x="0" y="4" width="1" height="1" fill="rgb(77,178,109)" fill-opacity="0.500"/>
    <rect x="0" y="5" width="1" height="1" fill="rgb(111,129,177)" fill-opacity="0.500"/>
    <rect x="0" y="6" width="1" height="1" fill="rgb(24,243,10)" fill-opacity="0.500"/>
    <rect x="0" y="7" width="1" height="1" fill="rgb(124,252,103)" fill-opacity="0.500"/>
    <rect x="0" y="8" width="1" height="1" fill="rgb(77,254,167)" fill-opacity="0.500"/>
    <rect x="1" y="8" width="1" height="1" fill="rgb(123,150,159)" fill-opacity="0.500"/>
    <rect x="2" y="8" width="1" height="1" fill="rgb(127,133,13)" fill-opacity="0.500"/>
  </g>
</svg>
