<?xml version="1.0" encoding="UTF-8"?>
<svg xmlns="http://www.w3.org/2000/svg" width="96" height="216" viewBox="0 0 4 9" shape-rendering="crispEdges">
  <title>U+0419 (Й)</title>
  
  <g>
    <rect x="1" y="0" width="1" height="1" fill="rgb(102,167,39)" fill-opacity="0.500"/>
    <rect x="2" y="0" width="1" height="1" fill="rgb(94,234,69)" fill-opacity="0.500"/>
    <rect x="0" y="1" width="1" height="1" fill="rgb(0,242,19)" fill-opacity="0.500"/>
    <rect x="3" y="1" width="1" height="1" fill="rgb(43,186,19)" fill-opacity="0.500"/>
    <rect x="0" y="2" width="1" height="1" fill="rgb(99,138,70)" fill-opacity="0.500"/>
    <rect x="1" y="2" width="1" height="1" fill="rgb(24,243,106)" fill-opacity="0.500"/>
    <rect x="3" y="2" width="1" height="1" fill="rgb(32,246,176)" fill-opacity="0.500"/>
    <rect x="0" y="3" width="1" height="1" fill="rgb(17,129,115)" fill-opacity="0.500"/>
    <rect x="2" y="3" width="1" height="1" fill="rgb(120,182,39)" fill-opacity="0.500"/>
    <rect x="3" y="3" width="1" height="1" fill="rgb(61,172,115)" fill-opacity="0.500"/>
    <rect x="0" y="4" width="1" height="1" fill="rgb(22,155,180)" fill-opacity="0.500"/>
    <rect x="3" y="4" width="1" height="1" fill="rgb(54,149,56)" fill-opacity="0.500"/>
    <rect x="0" y="5" width="1" height="1" fill="rgb(83,165,111)" fill-opacity="0.500"/>
    <rect x="3" y="5" width="1" height="1" fill="rgb(67,200,2)" fill-opacity="0.500"/>
    <rect x="0" y="6" width="1" height="1" fill="rgb(108,234,30)" fill-opacity="0.500"/>
    <rect x="3" y="6" width="1" height="1" fill="rgb(29,240,37)" fill-opacity="0.500"/>
  </g>
</svg>
