<?xml version="1.0" encoding="UTF-8"?>
<svg xmlns="http://www.w3.org/2000/svg" width="120" height="216" viewBox="0 0 5 9" shape-rendering="crispEdges">
  <title>U+004D (M)</title>
  
  <g>
    <rect x="0" y="0" width="1" height="1" fill="rgb(9,244,171)" fill-opacity="0.500"/>
    <rect x="1" y="0" width="1" height="1" fill="rgb(32,209,52)" fill-opacity="0.500"/>
    <rect x="2" y="0" width="1" height="1" fill="rgb(67,198,123)" fill-opacity="0.500"/>
    <rect x="3" y="0" width="1" height="1" fill="rgb(104,206,148)" fill-opacity="0.500"/>
    <rect x="4" y="0" width="1" height="1" fill="rgb(18,233,22)" fill-opacity="0.500"/>
    <rect x="0" y="1" width="1" height="1" fill="rgb(47,202,115)" fill-opacity="0.500"/>
    <rect x="2" y="1" width="1" height="1" fill="rgb(74,192,129)" fill-opacity="0.500"/>
    <rect x="4" y="1" width="1" height="1" fill="rgb(79,228,78)" fill-opacity="0.500"/>
    <rect x="0" y="2" width="1" height="1" fill="rgb(111,136,47)" fill-opacity="0.500"/>
    <rect x="2" y="2" width="1" height="1" fill="rgb(108,186,124)" fill-opacity="0.500"/>
    <rect x="4" y="2" width="1" height="1" fill="rgb(35,137,165)" fill-opacity="0.500"/>
    <rect x="0" y="3" width="1" height="1" fill="rgb(32,225,183)" fill-opacity="0.500"/>
    <rect x="2" y="3" width="1" height="1" fill="rgb(22,214,5)" fill-opacity="0.500"/>
    <rect x="4" y="3" width="1" height="1" fill="rgb(42,149,91)" fill-opacity="0.500"/>
    <rect x="0" y="4" width="1" height="1" fill="rgb(42,164,125)" fill-opacity="0.500"/>
    <rect x="2" y="4" width="1" height="1" fill="rgb(37,133,167)" fill-opacity="0.500"/>
    <rect x="4" y="4" width="1" height="1" fill="rgb(32,235,187)" fill-opacity="0.500"/>
    <rect x="0" y="5" width="1" height="1" fill="rgb(7,129,111)" fill-opacity="0.500"/>
    <rect x="2" y="5" width="1" height="1" fill="rgb(88,140,153)" fill-opacity="0.500"/>
    <rect x="4" y="5" width="1" height="1" fill="rgb(121,205,156)" fill-opacity="0.500"/>
    <rect x="0" y="6" width="1" height="1" fill="rgb(17,173,86)" fill-opacity="0.500"/>
    <rect x="2" y="6" width="1" height="1" fill="rgb(40,198,122)" fill-opacity="0.500"/>
    <rect x="4" y="6" width="1" height="1" fill="rgb(43,232,119)" fill-opacity="0.500"/>
  </g>
</svg>
