<?xml version="1.0" encoding="UTF-8"?>
<svg xmlns="http://www.w3.org/2000/svg" width="120" height="216" viewBox="0 0 5 9" shape-rendering="crispEdges">
  <title>U+05D4 (ה)</title>
  
  <g>
    <rect x="0" y="0" width="1" height="1" fill="rgb(37,239,125)" fill-opacity="0.500"/>
    <rect x="1" y="0" width="1" height="1" fill="rgb(34,212,4)" fill-opacity="0.500"/>
    <rect x="2" y="0" width="1" height="1" fill="rgb(87,208,98)" fill-opacity="0.500"/>
    <rect x="3" y="0" width="1" height="1" fill="rgb(117,243,116)" fill-opacity="0.500"/>
    <rect x="4" y="0" width="1" height="1" fill="rgb(127,156,66)" fill-opacity="0.500"/>
    <rect x="4" y="1" width="1" height="1" fill="rgb(17,135,67)" fill-opacity="0.500"/>
    <rect x="1" y="2" width="1" height="1" fill="rgb(38,130,92)" fill-opacity="0.500"/>
    <rect x="2" y="2" width="1" height="1" fill="rgb(80,235,97)" fill-opacity="0.500"/>
    <rect x="3" y="2" width="1" height="1" fill="rgb(119,251,57)" fill-opacity="0.500"/>
    <rect x="4" y="2" width="1" height="1" fill="rgb(1,177,153)" fill-opacity="0.500"/>
    <rect x="1" y="3" width="1" height="1" fill="rgb(82,190,85)" fill-opacity="0.500"/>
    <rect x="4" y="3" width="1" height="1" fill="rgb(122,138,43)" fill-opacity="0.500"/>
    <rect x="1" y="4" width="1" height="1" fill="rgb(79,251,73)" fill-opacity="0.500"/>
    <rect x="4" y="4" width="1" height="1" fill="rgb(28,199,182)" fill-opacity="0.500"/>
    <rect x="1" y="5" width="1" height="1" fill="rgb(53,133,59)" fill-opacity="0.500"/>
    <rect x="4" y="5" width="1" height="1" fill="rgb(79,141,58)" fill-opacity="0.500"/>
    <rect x="1" y="6" width="1" height="1" fill="rgb(31,211,20)" fill-opacity="0.500"/>
    <rect x="4" y="6" width="1" height="1" fill="rgb(8,175,98)" fill-opacity="0.500"/>
  </g>
</svg>
