<?xml version="1.0" encoding="UTF-8"?>
<svg xmlns="http://www.w3.org/2000/svg" width="72" height="216" viewBox="0 0 3 9" shape-rendering="crispEdges">
  <title>U+0410 (А)</title>
  
  <g>
    <rect x="0" y="0" width="1" height="1" fill="rgb(1,135,108)" fill-opacity="0.500"/>
    <rect x="1" y="0" width="1" height="1" fill="rgb(125,146,126)" fill-opacity="0.500"/>
    <rect x="2" y="0" width="1" height="1" fill="rgb(46,207,100)" fill-opacity="0.500"/>
    <rect x="0" y="1" width="1" height="1" fill="rgb(22,156,68)" fill-opacity="0.500"/>
    <rect x="2" y="1" width="1" height="1" fill="rgb(67,171,41)" fill-opacity="0.500"/>
    <rect x="0" y="2" width="1" height="1" fill="rgb(24,250,79)" fill-opacity="0.500"/>
    <rect x="2" y="2" width="1" height="1" fill="rgb(21,221,105)" fill-opacity="0.500"/>
    <rect x="0" y="3" width="1" height="1" fill="rgb(116,248,42)" fill-opacity="0.500"/>
    <rect x="1" y="3" width="1" height="1" fill="rgb(89,223,107)" fill-opacity="0.500"/>
    <rect x="2" y="3" width="1" height="1" fill="rgb(113,254,186)" fill-opacity="0.500"/>
    <rect x="0" y="4" width="1" height="1" fill="rgb(117,128,134)" fill-opacity="0.500"/>
    <rect x="2" y="4" width="1" height="1" fill="rgb(102,181,123)" fill-opacity="0.500"/>
    <rect x="0" y="5" width="1" height="1" fill="rgb(111,155,35)" fill-opacity="0.500"/>
    <rect x="2" y="5" width="1" height="1" fill="rgb(67,216,122)" fill-opacity="0.500"/>
    <rect x="0" y="6" width="1" height="1" fill="rgb(16,243,86)" fill-opacity="0.500"/>
    <rect x="2" y="6" width="1" height="1" fill="rgb(65,254,26)" fill-opacity="0.500"/>
  </g>
</svg>
