<?xml version="1.0" encoding="UTF-8"?>
<svg xmlns="http://www.w3.org/2000/svg" width="120" height="216" viewBox="0 0 5 9" shape-rendering="crispEdges">
  <title>U+004D (M)</title>
  
  <g>
    <rect x="0" y="0" width="1" height="1" fill="rgb(39,140,82)" fill-opacity="0.500"/>
    <rect x="1" y="0" width="1" height="1" fill="rgb(53,185,103)" fill-opacity="0.500"/>
    <rect x="2" y="0" width="1" height="1" fill="rgb(86,219,170)" fill-opacity="0.500"/>
    <rect x="3" y="0" width="1" height="1" fill="rgb(93,190,25)" fill-opacity="0.500"/>
    <rect x="4" y="0" width="1" height="1" fill="rgb(122,139,176)" fill-opacity="0.500"/>
    <rect x="0" y="1" width="1" height="1" fill="rgb(30,213,54)" fill-opacity="0.500"/>
    <rect x="2" y="1" width="1" height="1" fill="rgb(71,185,184)" fill-opacity="0.500"/>
    <rect x="4" y="1" width="1" height="1" fill="rgb(97,213,136)" fill-opacity="0.500"/>
    <rect x="0" y="2" width="1" height="1" fill="rgb(88,228,71)" fill-opacity="0.500"/>
    <rect x="2" y="2" width="1" height="1" fill="rgb(46,254,33)" fill-opacity="0.500"/>
    <rect x="4" y="2" width="1" height="1" fill="rgb(99,206,58)" fill-opacity="0.500"/>
    <rect x="0" y="3" width="1" height="1" fill="rgb(60,181,24)" fill-opacity="0.500"/>
    <rect x="2" y="3" width="1" height="1" fill="rgb(26,167,109)" fill-opacity="0.500"/>
    <rect x="4" y="3" width="1" height="1" fill="rgb(70,215,30)" fill-opacity="0.500"/>
    <rect x="0" y="4" width="1" height="1" fill="rgb(93,226,12)" fill-opacity="0.500"/>
    <rect x="2" y="4" width="1" height="1" fill="rgb(51,247,131)" fill-opacity="0.500"/>
    <rect x="4" y="4" width="1" height="1" fill="rgb(91,208,61)" fill-opacity="0.500"/>
    <rect x="0" y="5" width="1" height="1" fill="rgb(122,178,8)" fill-opacity="0.500"/>
    <rect x="2" y="5" width="1" height="1" fill="rgb(16,136,55)" fill-opacity="0.500"/>
    <rect x="4" y="5" width="1" height="1" fill="rgb(48,191,147)" fill-opacity="0.500"/>
    <rect x="0" y="6" width="1" height="1" fill="rgb(2,238,111)" fill-opacity="0.500"/>
    <rect x="2" y="6" width="1" height="1" fill="rgb(11,163,126)" fill-opacity="0.500"/>
    <rect x="4" y="6" width="1" height="1" fill="rgb(3,159,116)" fill-opacity="0.500"/>
  </g>
</svg>
