<?xml version="1.0" encoding="UTF-8"?>
<svg xmlns="http://www.w3.org/2000/svg" width="120" height="216" viewBox="0 0 5 9" shape-rendering="crispEdges">
  <title>U+0077 (w)</title>
  
  <g>
    <rect x="0" y="2" width="1" height="1" fill="rgb(100,164,42)" fill-opacity="0.500"/>
    <rect x="2" y="2" width="1" height="1" fill="rgb(98,245,12)" fill-opacity="0.500"/>
    <rect x="4" y="2" width="1" height="1" fill="rgb(30,210,134)" fill-opacity="0.500"/>
    <rect x="0" y="3" width="1" height="1" fill="rgb(93,160,186)" fill-opacity="0.500"/>
    <rect x="2" y="3" width="1" height="1" fill="rgb(15,245,128)" fill-opacity="0.500"/>
    <rect x="4" y="3" width="1" height="1" fill="rgb(91,169,160)" fill-opacity="0.500"/>
    <rect x="0" y="4" width="1" height="1" fill="rgb(107,156,75)" fill-opacity="0.500"/>
    <rect x="2" y="4" width="1" height="1" fill="rgb(24,143,65)" fill-opacity="0.500"/>
    <rect x="4" y="4" width="1" height="1" fill="rgb(123,250,186)" fill-opacity="0.500"/>
    <rect x="0" y="5" width="1" height="1" fill="rgb(3,239,172)" fill-opacity="0.500"/>
    <rect x="2" y="5" width="1" height="1" fill="rgb(115,191,186)" fill-opacity="0.500"/>
    <rect x="4" y="5" width="1" height="1" fill="rgb(126,223,53)" fill-opacity="0.500"/>
    <rect x="0" y="6" width="1" height="1" fill="rgb(66,167,9)" fill-opacity="0.500"/>
    <rect x="1" y="6" width="1" height="1" fill="rgb(12,158,27)" fill-opacity="0.500"/>
    <rect x="2" y="6" width="1" height="1" fill="rgb(125,187,128)" fill-opacity="0.500"/>
    <rect x="3" y="6" width="1" height="1" fill="rgb(18,163,69)" fill-opacity="0.500"/>
    <rect x="4" y="6" width="1" height="1" fill="rgb(102,211,12)" fill-opacity="0.500"/>
  </g>
</svg>
