<?xml version="1.0" encoding="UTF-8"?>
<svg xmlns="http://www.w3.org/2000/svg" width="72" height="216" viewBox="0 0 3 9" shape-rendering="crispEdges">
  <title>U+004F (O)</title>
  
  <g>
    <rect x="0" y="0" width="1" height="1" fill="rgb(91,131,81)" fill-opacity="0.500"/>
    <rect x="1" y="0" width="1" height="1" fill="rgb(63,172,21)" fill-opacity="0.500"/>
    <rect x="2" y="0" width="1" height="1" fill="rgb(54,203,142)" fill-opacity="0.500"/>
    <rect x="0" y="1" width="1" height="1" fill="rgb(81,134,26)" fill-opacity="0.500"/>
    <rect x="2" y="1" width="1" height="1" fill="rgb(28,250,85)" fill-opacity="0.500"/>
    <rect x="0" y="2" width="1" height="1" fill="rgb(76,254,177)" fill-opacity="0.500"/>
    <rect x="2" y="2" width="1" height="1" fill="rgb(6,224,63)" fill-opacity="0.500"/>
    <rect x="0" y="3" width="1" height="1" fill="rgb(58,141,47)" fill-opacity="0.500"/>
    <rect x="2" y="3" width="1" height="1" fill="rgb(28,171,94)" fill-opacity="0.500"/>
    <rect x="0" y="4" width="1" height="1" fill="rgb(94,153,92)" fill-opacity="0.500"/>
    <rect x="2" y="4" width="1" height="1" fill="rgb(12,205,68)" fill-opacity="0.500"/>
    <rect x="0" y="5" width="1" height="1" fill="rgb(99,182,185)" fill-opacity="0.500"/>
    <rect x="2" y="5" width="1" height="1" fill="rgb(10,157,62)" fill-opacity="0.500"/>
    <rect x="0" y="6" width="1" height="1" fill="rgb(90,168,96)" fill-opacity="0.500"/>
    <rect x="1" y="6" width="1" height="1" fill="rgb(19,148,71)" fill-opacity="0.500"/>
    <rect x="2" y="6" width="1" height="1" fill="rgb(75,190,140)" fill-opacity="0.500"/>
  </g>
</svg>
