<?xml version="1.0" encoding="UTF-8"?>
<svg xmlns="http://www.w3.org/2000/svg" width="96" height="216" viewBox="0 0 4 9" shape-rendering="crispEdges">
  <title>U+042F (Я)</title>
  
  <g>
    <rect x="1" y="0" width="1" height="1" fill="rgb(123,205,116)" fill-opacity="0.500"/>
    <rect x="2" y="0" width="1" height="1" fill="rgb(49,247,108)" fill-opacity="0.500"/>
    <rect x="3" y="0" width="1" height="1" fill="rgb(84,185,89)" fill-opacity="0.500"/>
    <rect x="0" y="1" width="1" height="1" fill="rgb(38,247,107)" fill-opacity="0.500"/>
    <rect x="3" y="1" width="1" height="1" fill="rgb(23,145,191)" fill-opacity="0.500"/>
    <rect x="0" y="2" width="1" height="1" fill="rgb(95,204,144)" fill-opacity="0.500"/>
    <rect x="3" y="2" width="1" height="1" fill="rgb(22,235,106)" fill-opacity="0.500"/>
    <rect x="1" y="3" width="1" height="1" fill="rgb(72,242,140)" fill-opacity="0.500"/>
    <rect x="2" y="3" width="1" height="1" fill="rgb(14,175,184)" fill-opacity="0.500"/>
    <rect x="3" y="3" width="1" height="1" fill="rgb(122,206,157)" fill-opacity="0.500"/>
    <rect x="2" y="4" width="1" height="1" fill="rgb(59,222,42)" fill-opacity="0.500"/>
    <rect x="1" y="5" width="1" height="1" fill="rgb(64,213,149)" fill-opacity="0.500"/>
    <rect x="3" y="5" width="1" height="1" fill="rgb(99,227,14)" fill-opacity="0.500"/>
    <rect x="0" y="6" width="1" height="1" fill="rgb(29,175,3)" fill-opacity="0.500"/>
    <rect x="3" y="6" width="1" height="1" fill="rgb(24,242,71)" fill-opacity="0.500"/>
  </g>
</svg>
