<?xml version="1.0" encoding="UTF-8"?>
<svg xmlns="http://www.w3.org/2000/svg" width="120" height="216" viewBox="0 0 5 9" shape-rendering="crispEdges">
  <title>U+0424 (Ф)</title>
  
  <g>
    <rect x="2" y="0" width="1" height="1" fill="rgb(27,203,49)" fill-opacity="0.500"/>
    <rect x="1" y="1" width="1" height="1" fill="rgb(15,212,114)" fill-opacity="0.500"/>
    <rect x="2" y="1" width="1" height="1" fill="rgb(65,136,96)" fill-opacity="0.500"/>
    <rect x="3" y="1" width="1" height="1" fill="rgb(0,177,27)" fill-opacity="0.500"/>
    <rect x="0" y="2" width="1" height="1" fill="rgb(105,169,181)" fill-opacity="0.500"/>
    <rect x="2" y="2" width="1" height="1" fill="rgb(73,192,27)" fill-opacity="0.500"/>
    <rect x="4" y="2" width="1" height="1" fill="rgb(27,199,73)" fill-opacity="0.500"/>
    <rect x="0" y="3" width="1" height="1" fill="rgb(126,147,63)" fill-opacity="0.500"/>
    <rect x="2" y="3" width="1" height="1" fill="rgb(66,240,162)" fill-opacity="0.500"/>
    <rect x="4" y="3" width="1" height="1" fill="rgb(95,143,190)" fill-opacity="0.500"/>
    <rect x="1" y="4" width="1" height="1" fill="rgb(91,228,25)" fill-opacity="0.500"/>
    <rect x="2" y="4" width="1" height="1" fill="rgb(80,228,107)" fill-opacity="0.500"/>
    <rect x="3" y="4" width="1" height="1" fill="rgb(108,143,82)" fill-opacity="0.500"/>
    <rect x="2" y="5" width="1" height="1" fill="rgb(3,214,149)" fill-opacity="0.500"/>
    <rect x="2" y="6" width="1" height="1" fill="rgb(69,226,133)" fill-opacity="0.500"/>
  </g>
</svg>
