<?xml version="1.0" encoding="UTF-8"?>
<svg xmlns="http://www.w3.org/2000/svg" width="72" height="216" viewBox="0 0 3 9" shape-rendering="crispEdges">
  <title>U+042D (Э)</title>
  
  <g>
    <rect x="0" y="0" width="1" height="1" fill="rgb(35,208,30)" fill-opacity="0.500"/>
    <rect x="1" y="0" width="1" height="1" fill="rgb(64,181,115)" fill-opacity="0.500"/>
    <rect x="2" y="0" width="1" height="1" fill="rgb(72,233,89)" fill-opacity="0.500"/>
    <rect x="2" y="1" width="1" height="1" fill="rgb(21,187,69)" fill-opacity="0.500"/>
    <rect x="2" y="2" width="1" height="1" fill="rgb(107,235,142)" fill-opacity="0.500"/>
    <rect x="0" y="3" width="1" height="1" fill="rgb(115,251,35)" fill-opacity="0.500"/>
    <rect x="1" y="3" width="1" height="1" fill="rgb(3,129,174)" fill-opacity="0.500"/>
    <rect x="2" y="3" width="1" height="1" fill="rgb(37,159,127)" fill-opacity="0.500"/>
    <rect x="0" y="4" width="1" height="1" fill="rgb(16,137,3)" fill-opacity="0.500"/>
    <rect x="2" y="4" width="1" height="1" fill="rgb(80,236,123)" fill-opacity="0.500"/>
    <rect x="0" y="5" width="1" height="1" fill="rgb(12,238,144)" fill-opacity="0.500"/>
    <rect x="2" y="5" width="1" height="1" fill="rgb(76,214,170)" fill-opacity="0.500"/>
    <rect x="0" y="6" width="1" height="1" fill="rgb(103,176,8)" fill-opacity="0.500"/>
    <rect x="1" y="6" width="1" height="1" fill="rgb(31,206,123)" fill-opacity="0.500"/>
    <rect x="2" y="6" width="1" height="1" fill="rgb(14,168,38)" fill-opacity="0.500"/>
  </g>
</svg>
