<?xml version="1.0" encoding="UTF-8"?>
<svg xmlns="http://www.w3.org/2000/svg" width="72" height="216" viewBox="0 0 3 9" shape-rendering="crispEdges">
  <title>U+041F (П)</title>
  
  <g>
    <rect x="0" y="0" width="1" height="1" fill="rgb(117,204,81)" fill-opacity="0.500"/>
    <rect x="1" y="0" width="1" height="1" fill="rgb(14,238,106)" fill-opacity="0.500"/>
    <rect x="2" y="0" width="1" height="1" fill="rgb(61,145,72)" fill-opacity="0.500"/>
    <rect x="0" y="1" width="1" height="1" fill="rgb(125,131,141)" fill-opacity="0.500"/>
    <rect x="2" y="1" width="1" height="1" fill="rgb(78,132,65)" fill-opacity="0.500"/>
    <rect x="0" y="2" width="1" height="1" fill="rgb(59,149,3)" fill-opacity="0.500"/>
    <rect x="2" y="2" width="1" height="1" fill="rgb(93,245,15)" fill-opacity="0.500"/>
    <rect x="0" y="3" width="1" height="1" fill="rgb(67,177,111)" fill-opacity="0.500"/>
    <rect x="2" y="3" width="1" height="1" fill="rgb(65,136,9)" fill-opacity="0.500"/>
    <rect x="0" y="4" width="1" height="1" fill="rgb(11,199,145)" fill-opacity="0.500"/>
    <rect x="2" y="4" width="1" height="1" fill="rgb(78,217,151)" fill-opacity="0.500"/>
    <rect x="0" y="5" width="1" height="1" fill="rgb(51,142,50)" fill-opacity="0.500"/>
    <rect x="2" y="5" width="1" height="1" fill="rgb(103,190,166)" fill-opacity="0.500"/>
    <rect x="0" y="6" width="1" height="1" fill="rgb(13,163,122)" fill-opacity="0.500"/>
    <rect x="2" y="6" width="1" height="1" fill="rgb(58,165,133)" fill-opacity="0.500"/>
  </g>
</svg>
