<?xml version="1.0" encoding="UTF-8"?>
<svg xmlns="http://www.w3.org/2000/svg" width="120" height="216" viewBox="0 0 5 9" shape-rendering="crispEdges">
  <title>U+05D8 (ט)</title>
  
  <g>
    <rect x="1" y="0" width="1" height="1" fill="rgb(92,242,22)" fill-opacity="0.500"/>
    <rect x="2" y="0" width="1" height="1" fill="rgb(55,188,175)" fill-opacity="0.500"/>
    <rect x="3" y="0" width="1" height="1" fill="rgb(96,144,101)" fill-opacity="0.500"/>
    <rect x="0" y="1" width="1" height="1" fill="rgb(47,180,47)" fill-opacity="0.500"/>
    <rect x="4" y="1" width="1" height="1" fill="rgb(11,148,141)" fill-opacity="0.500"/>
    <rect x="0" y="2" width="1" height="1" fill="rgb(92,242,181)" fill-opacity="0.500"/>
    <rect x="2" y="2" width="1" height="1" fill="rgb(14,184,40)" fill-opacity="0.500"/>
    <rect x="4" y="2" width="1" height="1" fill="rgb(5,145,108)" fill-opacity="0.500"/>
    <rect x="0" y="3" width="1" height="1" fill="rgb(34,156,117)" fill-opacity="0.500"/>
    <rect x="2" y="3" width="1" height="1" fill="rgb(95,252,61)" fill-opacity="0.500"/>
    <rect x="4" y="3" width="1" height="1" fill="rgb(88,245,189)" fill-opacity="0.500"/>
    <rect x="0" y="4" width="1" height="1" fill="rgb(58,235,118)" fill-opacity="0.500"/>
    <rect x="4" y="4" width="1" height="1" fill="rgb(32,181,101)" fill-opacity="0.500"/>
    <rect x="0" y="5" width="1" height="1" fill="rgb(77,171,59)" fill-opacity="0.500"/>
    <rect x="4" y="5" width="1" height="1" fill="rgb(122,139,161)" fill-opacity="0.500"/>
    <rect x="1" y="6" width="1" height="1" fill="rgb(85,134,174)" fill-opacity="0.500"/>
    <rect x="2" y="6" width="1" height="1" fill="rgb(94,195,98)" fill-opacity="0.500"/>
    <rect x="3" y="6" width="1" height="1" fill="rgb(64,199,30)" fill-opacity="0.500"/>
  </g>
</svg>
