<?xml version="1.0" encoding="UTF-8"?>
<svg xmlns="http://www.w3.org/2000/svg" width="120" height="216" viewBox="0 0 5 9" shape-rendering="crispEdges">
  <title>U+05D4 (ה)</title>
  
  <g>
    <rect x="0" y="0" width="1" height="1" fill="rgb(66,248,22)" fill-opacity="0.500"/>
    <rect x="1" y="0" width="1" height="1" fill="rgb(85,159,79)" fill-opacity="0.500"/>
    <rect x="2" y="0" width="1" height="1" fill="rgb(13,163,79)" fill-opacity="0.500"/>
    <rect x="3" y="0" width="1" height="1" fill="rgb(69,197,105)" fill-opacity="0.500"/>
    <rect x="4" y="0" width="1" height="1" fill="rgb(107,168,174)" fill-opacity="0.500"/>
    <rect x="4" y="1" width="1" height="1" fill="rgb(62,211,64)" fill-opacity="0.500"/>
    <rect x="1" y="2" width="1" height="1" fill="rgb(83,149,33)" fill-opacity="0.500"/>
    <rect x="2" y="2" width="1" height="1" fill="rgb(111,183,45)" fill-opacity="0.500"/>
    <rect x="3" y="2" width="1" height="1" fill="rgb(51,135,11)" fill-opacity="0.500"/>
    <rect x="4" y="2" width="1" height="1" fill="rgb(57,186,96)" fill-opacity="0.500"/>
    <rect x="1" y="3" width="1" height="1" fill="rgb(7,237,160)" fill-opacity="0.500"/>
    <rect x="4" y="3" width="1" height="1" fill="rgb(50,193,95)" fill-opacity="0.500"/>
    <rect x="1" y="4" width="1" height="1" fill="rgb(50,160,41)" fill-opacity="0.500"/>
    <rect x="4" y="4" width="1" height="1" fill="rgb(35,204,188)" fill-opacity="0.500"/>
    <rect x="1" y="5" width="1" height="1" fill="rgb(92,141,66)" fill-opacity="0.500"/>
    <rect x="4" y="5" width="1" height="1" fill="rgb(13,220,10)" fill-opacity="0.500"/>
    <rect x="1" y="6" width="1" height="1" fill="rgb(66,246,45)" fill-opacity="0.500"/>
    <rect x="4" y="6" width="1" height="1" fill="rgb(37,131,67)" fill-opacity="0.500"/>
  </g>
</svg>
