<?xml version="1.0" encoding="UTF-8"?>
<svg xmlns="http://www.w3.org/2000/svg" width="120" height="216" viewBox="0 0 5 9" shape-rendering="crispEdges">
  <title>U+05DE (מ)</title>
  
  <g>
    <rect x="0" y="0" width="1" height="1" fill="rgb(122,217,104)" fill-opacity="0.500"/>
    <rect x="1" y="0" width="1" height="1" fill="rgb(106,192,40)" fill-opacity="0.500"/>
    <rect x="2" y="0" width="1" height="1" fill="rgb(68,136,136)" fill-opacity="0.500"/>
    <rect x="3" y="0" width="1" height="1" fill="rgb(44,202,1)" fill-opacity="0.500"/>
    <rect x="4" y="0" width="1" height="1" fill="rgb(120,193,99)" fill-opacity="0.500"/>
    <rect x="0" y="1" width="1" height="1" fill="rgb(60,184,171)" fill-opacity="0.500"/>
    <rect x="4" y="1" width="1" height="1" fill="rgb(23,223,187)" fill-opacity="0.500"/>
    <rect x="0" y="2" width="1" height="1" fill="rgb(121,184,126)" fill-opacity="0.500"/>
    <rect x="2" y="2" width="1" height="1" fill="rgb(96,205,27)" fill-opacity="0.500"/>
    <rect x="4" y="2" width="1" height="1" fill="rgb(23,176,34)" fill-opacity="0.500"/>
    <rect x="0" y="3" width="1" height="1" fill="rgb(100,200,69)" fill-opacity="0.500"/>
    <rect x="4" y="3" width="1" height="1" fill="rgb(92,239,39)" fill-opacity="0.500"/>
    <rect x="0" y="4" width="1" height="1" fill="rgb(17,159,34)" fill-opacity="0.500"/>
    <rect x="4" y="4" width="1" height="1" fill="rgb(23,208,33)" fill-opacity="0.500"/>
    <rect x="0" y="5" width="1" height="1" fill="rgb(50,199,143)" fill-opacity="0.500"/>
    <rect x="4" y="5" width="1" height="1" fill="rgb(33,227,6)" fill-opacity="0.500"/>
    <rect x="1" y="6" width="1" height="1" fill="rgb(46,197,158)" fill-opacity="0.500"/>
    <rect x="2" y="6" width="1" height="1" fill="rgb(76,141,134)" fill-opacity="0.500"/>
    <rect x="3" y="6" width="1" height="1" fill="rgb(52,236,27)" fill-opacity="0.500"/>
    <rect x="4" y="6" width="1" height="1" fill="rgb(44,155,68)" fill-opacity="0.500"/>
  </g>
</svg>
