<?xml version="1.0" encoding="UTF-8"?>
<svg xmlns="http://www.w3.org/2000/svg" width="120" height="216" viewBox="0 0 5 9" shape-rendering="crispEdges">
  <title>U+05D0 (א)</title>
  
  <g>
    <rect x="0" y="0" width="1" height="1" fill="rgb(54,143,153)" fill-opacity="0.500"/>
    <rect x="4" y="0" width="1" height="1" fill="rgb(63,220,44)" fill-opacity="0.500"/>
    <rect x="0" y="1" width="1" height="1" fill="rgb(116,156,5)" fill-opacity="0.500"/>
    <rect x="1" y="1" width="1" height="1" fill="rgb(99,193,51)" fill-opacity="0.500"/>
    <rect x="4" y="1" width="1" height="1" fill="rgb(95,172,1)" fill-opacity="0.500"/>
    <rect x="0" y="2" width="1" height="1" fill="rgb(69,130,15)" fill-opacity="0.500"/>
    <rect x="2" y="2" width="1" height="1" fill="rgb(48,204,78)" fill-opacity="0.500"/>
    <rect x="4" y="2" width="1" height="1" fill="rgb(76,242,122)" fill-opacity="0.500"/>
    <rect x="0" y="3" width="1" height="1" fill="rgb(19,180,167)" fill-opacity="0.500"/>
    <rect x="3" y="3" width="1" height="1" fill="rgb(22,175,189)" fill-opacity="0.500"/>
    <rect x="4" y="3" width="1" height="1" fill="rgb(52,161,188)" fill-opacity="0.500"/>
    <rect x="0" y="4" width="1" height="1" fill="rgb(3,141,168)" fill-opacity="0.500"/>
    <rect x="4" y="4" width="1" height="1" fill="rgb(23,236,166)" fill-opacity="0.500"/>
    <rect x="4" y="5" width="1" height="1" fill="rgb(25,202,185)" fill-opacity="0.500"/>
    <rect x="4" y="6" width="1" height="1" fill="rgb(116,253,2)" fill-opacity="0.500"/>
  </g>
</svg>
