<?xml version="1.0" encoding="UTF-8"?>
<svg xmlns="http://www.w3.org/2000/svg" width="72" height="216" viewBox="0 0 3 9" shape-rendering="crispEdges">
  <title>U+0052 (R)</title>
  
  <g>
    <rect x="0" y="0" width="1" height="1" fill="rgb(2,156,159)" fill-opacity="0.500"/>
    <rect x="1" y="0" width="1" height="1" fill="rgb(67,140,89)" fill-opacity="0.500"/>
    <rect x="2" y="0" width="1" height="1" fill="rgb(82,130,17)" fill-opacity="0.500"/>
    <rect x="0" y="1" width="1" height="1" fill="rgb(70,139,12)" fill-opacity="0.500"/>
    <rect x="2" y="1" width="1" height="1" fill="rgb(23,143,109)" fill-opacity="0.500"/>
    <rect x="0" y="2" width="1" height="1" fill="rgb(65,140,48)" fill-opacity="0.500"/>
    <rect x="2" y="2" width="1" height="1" fill="rgb(42,228,74)" fill-opacity="0.500"/>
    <rect x="0" y="3" width="1" height="1" fill="rgb(41,153,72)" fill-opacity="0.500"/>
    <rect x="1" y="3" width="1" height="1" fill="rgb(30,228,40)" fill-opacity="0.500"/>
    <rect x="0" y="4" width="1" height="1" fill="rgb(78,240,93)" fill-opacity="0.500"/>
    <rect x="2" y="4" width="1" height="1" fill="rgb(71,252,50)" fill-opacity="0.500"/>
    <rect x="0" y="5" width="1" height="1" fill="rgb(93,202,177)" fill-opacity="0.500"/>
    <rect x="2" y="5" width="1" height="1" fill="rgb(51,168,85)" fill-opacity="0.500"/>
    <rect x="0" y="6" width="1" height="1" fill="rgb(16,212,4)" fill-opacity="0.500"/>
    <rect x="2" y="6" width="1" height="1" fill="rgb(60,130,69)" fill-opacity="0.500"/>
  </g>
</svg>
