<?xml version="1.0" encoding="UTF-8"?>
<svg xmlns="http://www.w3.org/2000/svg" width="168" height="216" viewBox="0 0 7 9" shape-rendering="crispEdges">
  <title>U+2629 (☩)</title>
  
  <g>
    <rect x="2" y="0" width="1" height="1" fill="rgb(95,244,45)" fill-opacity="0.500"/>
    <rect x="3" y="0" width="1" height="1" fill="rgb(56,189,163)" fill-opacity="0.500"/>
    <rect x="4" y="0" width="1" height="1" fill="rgb(89,197,9)" fill-opacity="0.500"/>
    <rect x="3" y="1" width="1" height="1" fill="rgb(75,181,75)" fill-opacity="0.500"/>
    <rect x="0" y="2" width="1" height="1" fill="rgb(81,246,128)" fill-opacity="0.500"/>
    <rect x="3" y="2" width="1" height="1" fill="rgb(113,148,99)" fill-opacity="0.500"/>
    <rect x="6" y="2" width="1" height="1" fill="rgb(27,149,75)" fill-opacity="0.500"/>
    <rect x="0" y="3" width="1" height="1" fill="rgb(123,164,25)" fill-opacity="0.500"/>
    <rect x="1" y="3" width="1" height="1" fill="rgb(116,214,134)" fill-opacity="0.500"/>
    <rect x="2" y="3" width="1" height="1" fill="rgb(20,129,142)" fill-opacity="0.500"/>
    <rect x="3" y="3" width="1" height="1" fill="rgb(27,219,131)" fill-opacity="0.500"/>
    <rect x="4" y="3" width="1" height="1" fill="rgb(44,206,83)" fill-opacity="0.500"/>
    <rect x="5" y="3" width="1" height="1" fill="rgb(22,232,102)" fill-opacity="0.500"/>
    <rect x="6" y="3" width="1" height="1" fill="rgb(33,249,71)" fill-opacity="0.500"/>
    <rect x="0" y="4" width="1" height="1" fill="rgb(52,139,93)" fill-opacity="0.500"/>
    <rect x="3" y="4" width="1" height="1" fill="rgb(100,202,134)" fill-opacity="0.500"/>
    <rect x="6" y="4" width="1" height="1" fill="rgb(105,157,76)" fill-opacity="0.500"/>
    <rect x="3" y="5" width="1" height="1" fill="rgb(120,223,180)" fill-opacity="0.500"/>
    <rect x="2" y="6" width="1" height="1" fill="rgb(63,196,142)" fill-opacity="0.500"/>
    <rect x="3" y="6" width="1" height="1" fill="rgb(3,238,79)" fill-opacity="0.500"/>
    <rect x="4" y="6" width="1" height="1" fill="rgb(86,248,91)" fill-opacity="0.500"/>
  </g>
</svg>
