<?xml version="1.0" encoding="UTF-8"?>
<svg xmlns="http://www.w3.org/2000/svg" width="120" height="216" viewBox="0 0 5 9" shape-rendering="crispEdges">
  <title>U+05E5 (ץ)</title>
  
  <g>
    <rect x="2" y="0" width="1" height="1" fill="rgb(124,195,11)" fill-opacity="0.500"/>
    <rect x="2" y="1" width="1" height="1" fill="rgb(120,218,119)" fill-opacity="0.500"/>
    <rect x="3" y="1" width="1" height="1" fill="rgb(16,149,121)" fill-opacity="0.500"/>
    <rect x="1" y="2" width="1" height="1" fill="rgb(65,210,23)" fill-opacity="0.500"/>
    <rect x="3" y="2" width="1" height="1" fill="rgb(11,184,83)" fill-opacity="0.500"/>
    <rect x="0" y="3" width="1" height="1" fill="rgb(46,224,59)" fill-opacity="0.500"/>
    <rect x="3" y="3" width="1" height="1" fill="rgb(109,154,42)" fill-opacity="0.500"/>
    <rect x="0" y="4" width="1" height="1" fill="rgb(101,174,155)" fill-opacity="0.500"/>
    <rect x="3" y="4" width="1" height="1" fill="rgb(73,198,114)" fill-opacity="0.500"/>
    <rect x="0" y="5" width="1" height="1" fill="rgb(40,145,146)" fill-opacity="0.500"/>
    <rect x="3" y="5" width="1" height="1" fill="rgb(41,215,102)" fill-opacity="0.500"/>
    <rect x="0" y="6" width="1" height="1" fill="rgb(44,162,34)" fill-opacity="0.500"/>
    <rect x="1" y="6" width="1" height="1" fill="rgb(39,162,1)" fill-opacity="0.500"/>
    <rect x="2" y="6" width="1" height="1" fill="rgb(64,135,111)" fill-opacity="0.500"/>
    <rect x="3" y="6" width="1" height="1" fill="rgb(12,142,90)" fill-opacity="0.500"/>
    <rect x="2" y="7" width="1" height="1" fill="rgb(101,171,191)" fill-opacity="0.500"/>
    <rect x="2" y="8" width="1" height="1" fill="rgb(15,151,24)" fill-opacity="0.500"/>
  </g>
</svg>
