<?xml version="1.0" encoding="UTF-8"?>
<svg xmlns="http://www.w3.org/2000/svg" width="72" height="216" viewBox="0 0 3 9" shape-rendering="crispEdges">
  <title>U+041D (Н)</title>
  
  <g>
    <rect x="0" y="0" width="1" height="1" fill="rgb(63,194,120)" fill-opacity="0.500"/>
    <rect x="2" y="0" width="1" height="1" fill="rgb(118,250,163)" fill-opacity="0.500"/>
    <rect x="0" y="1" width="1" height="1" fill="rgb(22,234,160)" fill-opacity="0.500"/>
    <rect x="2" y="1" width="1" height="1" fill="rgb(107,163,129)" fill-opacity="0.500"/>
    <rect x="0" y="2" width="1" height="1" fill="rgb(96,178,49)" fill-opacity="0.500"/>
    <rect x="2" y="2" width="1" height="1" fill="rgb(27,229,155)" fill-opacity="0.500"/>
    <rect x="0" y="3" width="1" height="1" fill="rgb(35,146,94)" fill-opacity="0.500"/>
    <rect x="1" y="3" width="1" height="1" fill="rgb(35,232,8)" fill-opacity="0.500"/>
    <rect x="2" y="3" width="1" height="1" fill="rgb(21,239,91)" fill-opacity="0.500"/>
    <rect x="0" y="4" width="1" height="1" fill="rgb(111,255,157)" fill-opacity="0.500"/>
    <rect x="2" y="4" width="1" height="1" fill="rgb(4,183,76)" fill-opacity="0.500"/>
    <rect x="0" y="5" width="1" height="1" fill="rgb(100,131,113)" fill-opacity="0.500"/>
    <rect x="2" y="5" width="1" height="1" fill="rgb(121,160,78)" fill-opacity="0.500"/>
    <rect x="0" y="6" width="1" height="1" fill="rgb(63,195,0)" fill-opacity="0.500"/>
    <rect x="2" y="6" width="1" height="1" fill="rgb(6,211,102)" fill-opacity="0.500"/>
  </g>
</svg>
