<?xml version="1.0" encoding="UTF-8"?>
<svg xmlns="http://www.w3.org/2000/svg" width="72" height="216" viewBox="0 0 3 9" shape-rendering="crispEdges">
  <title>U+041F (П)</title>
  
  <g>
    <rect x="0" y="0" width="1" height="1" fill="rgb(11,221,2)" fill-opacity="0.500"/>
    <rect x="1" y="0" width="1" height="1" fill="rgb(75,224,139)" fill-opacity="0.500"/>
    <rect x="2" y="0" width="1" height="1" fill="rgb(120,232,65)" fill-opacity="0.500"/>
    <rect x="0" y="1" width="1" height="1" fill="rgb(27,190,56)" fill-opacity="0.500"/>
    <rect x="2" y="1" width="1" height="1" fill="rgb(40,195,91)" fill-opacity="0.500"/>
    <rect x="0" y="2" width="1" height="1" fill="rgb(54,140,69)" fill-opacity="0.500"/>
    <rect x="2" y="2" width="1" height="1" fill="rgb(23,197,177)" fill-opacity="0.500"/>
    <rect x="0" y="3" width="1" height="1" fill="rgb(3,129,147)" fill-opacity="0.500"/>
    <rect x="2" y="3" width="1" height="1" fill="rgb(110,181,85)" fill-opacity="0.500"/>
    <rect x="0" y="4" width="1" height="1" fill="rgb(102,241,42)" fill-opacity="0.500"/>
    <rect x="2" y="4" width="1" height="1" fill="rgb(72,176,172)" fill-opacity="0.500"/>
    <rect x="0" y="5" width="1" height="1" fill="rgb(92,251,34)" fill-opacity="0.500"/>
    <rect x="2" y="5" width="1" height="1" fill="rgb(35,229,189)" fill-opacity="0.500"/>
    <rect x="0" y="6" width="1" height="1" fill="rgb(30,148,79)" fill-opacity="0.500"/>
    <rect x="2" y="6" width="1" height="1" fill="rgb(7,227,54)" fill-opacity="0.500"/>
  </g>
</svg>
