<?xml version="1.0" encoding="UTF-8"?>
<svg xmlns="http://www.w3.org/2000/svg" width="120" height="216" viewBox="0 0 5 9" shape-rendering="crispEdges">
  <title>U+2626 (☦)</title>
  
  <g>
    <rect x="2" y="0" width="1" height="1" fill="rgb(76,176,75)" fill-opacity="0.500"/>
    <rect x="1" y="1" width="1" height="1" fill="rgb(57,223,14)" fill-opacity="0.500"/>
    <rect x="2" y="1" width="1" height="1" fill="rgb(39,238,66)" fill-opacity="0.500"/>
    <rect x="3" y="1" width="1" height="1" fill="rgb(28,252,149)" fill-opacity="0.500"/>
    <rect x="2" y="2" width="1" height="1" fill="rgb(67,250,48)" fill-opacity="0.500"/>
    <rect x="0" y="3" width="1" height="1" fill="rgb(32,224,19)" fill-opacity="0.500"/>
    <rect x="1" y="3" width="1" height="1" fill="rgb(82,250,155)" fill-opacity="0.500"/>
    <rect x="2" y="3" width="1" height="1" fill="rgb(45,191,96)" fill-opacity="0.500"/>
    <rect x="3" y="3" width="1" height="1" fill="rgb(104,129,166)" fill-opacity="0.500"/>
    <rect x="4" y="3" width="1" height="1" fill="rgb(36,186,99)" fill-opacity="0.500"/>
    <rect x="2" y="4" width="1" height="1" fill="rgb(14,224,28)" fill-opacity="0.500"/>
    <rect x="1" y="5" width="1" height="1" fill="rgb(110,162,40)" fill-opacity="0.500"/>
    <rect x="2" y="5" width="1" height="1" fill="rgb(13,235,37)" fill-opacity="0.500"/>
    <rect x="2" y="6" width="1" height="1" fill="rgb(92,227,20)" fill-opacity="0.500"/>
    <rect x="3" y="6" width="1" height="1" fill="rgb(31,246,101)" fill-opacity="0.500"/>
    <rect x="2" y="7" width="1" height="1" fill="rgb(18,251,150)" fill-opacity="0.500"/>
    <rect x="2" y="8" width="1" height="1" fill="rgb(1,152,9)" fill-opacity="0.500"/>
  </g>
</svg>
