<?xml version="1.0" encoding="UTF-8"?>
<svg xmlns="http://www.w3.org/2000/svg" width="120" height="216" viewBox="0 0 5 9" shape-rendering="crispEdges">
  <title>U+0429 (Щ)</title>
  
  <g>
    <rect x="0" y="0" width="1" height="1" fill="rgb(65,165,17)" fill-opacity="0.500"/>
    <rect x="2" y="0" width="1" height="1" fill="rgb(77,216,61)" fill-opacity="0.500"/>
    <rect x="4" y="0" width="1" height="1" fill="rgb(108,229,27)" fill-opacity="0.500"/>
    <rect x="0" y="1" width="1" height="1" fill="rgb(29,239,76)" fill-opacity="0.500"/>
    <rect x="2" y="1" width="1" height="1" fill="rgb(78,174,143)" fill-opacity="0.500"/>
    <rect x="4" y="1" width="1" height="1" fill="rgb(104,151,112)" fill-opacity="0.500"/>
    <rect x="0" y="2" width="1" height="1" fill="rgb(52,132,160)" fill-opacity="0.500"/>
    <rect x="2" y="2" width="1" height="1" fill="rgb(95,233,170)" fill-opacity="0.500"/>
    <rect x="4" y="2" width="1" height="1" fill="rgb(84,225,131)" fill-opacity="0.500"/>
    <rect x="0" y="3" width="1" height="1" fill="rgb(102,240,39)" fill-opacity="0.500"/>
    <rect x="2" y="3" width="1" height="1" fill="rgb(4,203,10)" fill-opacity="0.500"/>
    <rect x="4" y="3" width="1" height="1" fill="rgb(3,239,114)" fill-opacity="0.500"/>
    <rect x="0" y="4" width="1" height="1" fill="rgb(116,200,155)" fill-opacity="0.500"/>
    <rect x="2" y="4" width="1" height="1" fill="rgb(66,224,107)" fill-opacity="0.500"/>
    <rect x="4" y="4" width="1" height="1" fill="rgb(60,219,138)" fill-opacity="0.500"/>
    <rect x="0" y="5" width="1" height="1" fill="rgb(23,238,99)" fill-opacity="0.500"/>
    <rect x="2" y="5" width="1" height="1" fill="rgb(122,217,44)" fill-opacity="0.500"/>
    <rect x="4" y="5" width="1" height="1" fill="rgb(88,231,122)" fill-opacity="0.500"/>
    <rect x="0" y="6" width="1" height="1" fill="rgb(125,172,132)" fill-opacity="0.500"/>
    <rect x="1" y="6" width="1" height="1" fill="rgb(115,130,91)" fill-opacity="0.500"/>
    <rect x="2" y="6" width="1" height="1" fill="rgb(46,233,92)" fill-opacity="0.500"/>
    <rect x="3" y="6" width="1" height="1" fill="rgb(121,180,38)" fill-opacity="0.500"/>
    <rect x="4" y="6" width="1" height="1" fill="rgb(104,244,83)" fill-opacity="0.500"/>
    <rect x="4" y="7" width="1" height="1" fill="rgb(104,134,126)" fill-opacity="0.500"/>
    <rect x="4" y="8" width="1" height="1" fill="rgb(35,168,170)" fill-opacity="0.500"/>
  </g>
</svg>
