<?xml version="1.0" encoding="UTF-8"?>
<svg xmlns="http://www.w3.org/2000/svg" width="120" height="216" viewBox="0 0 5 9" shape-rendering="crispEdges">
  <title>U+2665 (♥)</title>
  
  <g>
    <rect x="1" y="2" width="1" height="1" fill="rgb(84,220,69)" fill-opacity="0.500"/>
    <rect x="3" y="2" width="1" height="1" fill="rgb(126,167,10)" fill-opacity="0.500"/>
    <rect x="0" y="3" width="1" height="1" fill="rgb(75,138,123)" fill-opacity="0.500"/>
    <rect x="1" y="3" width="1" height="1" fill="rgb(92,137,141)" fill-opacity="0.500"/>
    <rect x="2" y="3" width="1" height="1" fill="rgb(64,213,65)" fill-opacity="0.500"/>
    <rect x="3" y="3" width="1" height="1" fill="rgb(88,128,79)" fill-opacity="0.500"/>
    <rect x="4" y="3" width="1" height="1" fill="rgb(119,189,141)" fill-opacity="0.500"/>
    <rect x="0" y="4" width="1" height="1" fill="rgb(35,171,117)" fill-opacity="0.500"/>
    <rect x="1" y="4" width="1" height="1" fill="rgb(95,160,128)" fill-opacity="0.500"/>
    <rect x="2" y="4" width="1" height="1" fill="rgb(69,173,133)" fill-opacity="0.500"/>
    <rect x="3" y="4" width="1" height="1" fill="rgb(89,177,137)" fill-opacity="0.500"/>
    <rect x="4" y="4" width="1" height="1" fill="rgb(69,185,136)" fill-opacity="0.500"/>
    <rect x="1" y="5" width="1" height="1" fill="rgb(5,232,114)" fill-opacity="0.500"/>
    <rect x="2" y="5" width="1" height="1" fill="rgb(120,185,191)" fill-opacity="0.500"/>
    <rect x="3" y="5" width="1" height="1" fill="rgb(26,167,179)" fill-opacity="0.500"/>
    <rect x="2" y="6" width="1" height="1" fill="rgb(13,250,53)" fill-opacity="0.500"/>
  </g>
</svg>
