<?xml version="1.0" encoding="UTF-8"?>
<svg xmlns="http://www.w3.org/2000/svg" width="72" height="216" viewBox="0 0 3 9" shape-rendering="crispEdges">
  <title>U+041E (О)</title>
  
  <g>
    <rect x="0" y="0" width="1" height="1" fill="rgb(122,210,134)" fill-opacity="0.500"/>
    <rect x="1" y="0" width="1" height="1" fill="rgb(103,147,27)" fill-opacity="0.500"/>
    <rect x="2" y="0" width="1" height="1" fill="rgb(0,255,108)" fill-opacity="0.500"/>
    <rect x="0" y="1" width="1" height="1" fill="rgb(10,137,13)" fill-opacity="0.500"/>
    <rect x="2" y="1" width="1" height="1" fill="rgb(21,220,25)" fill-opacity="0.500"/>
    <rect x="0" y="2" width="1" height="1" fill="rgb(75,151,126)" fill-opacity="0.500"/>
    <rect x="2" y="2" width="1" height="1" fill="rgb(73,149,111)" fill-opacity="0.500"/>
    <rect x="0" y="3" width="1" height="1" fill="rgb(11,205,109)" fill-opacity="0.500"/>
    <rect x="2" y="3" width="1" height="1" fill="rgb(5,192,86)" fill-opacity="0.500"/>
    <rect x="0" y="4" width="1" height="1" fill="rgb(122,168,46)" fill-opacity="0.500"/>
    <rect x="2" y="4" width="1" height="1" fill="rgb(120,155,183)" fill-opacity="0.500"/>
    <rect x="0" y="5" width="1" height="1" fill="rgb(77,244,10)" fill-opacity="0.500"/>
    <rect x="2" y="5" width="1" height="1" fill="rgb(12,148,84)" fill-opacity="0.500"/>
    <rect x="0" y="6" width="1" height="1" fill="rgb(110,223,72)" fill-opacity="0.500"/>
    <rect x="1" y="6" width="1" height="1" fill="rgb(26,218,131)" fill-opacity="0.500"/>
    <rect x="2" y="6" width="1" height="1" fill="rgb(38,130,111)" fill-opacity="0.500"/>
  </g>
</svg>
