<?xml version="1.0" encoding="UTF-8"?>
<svg xmlns="http://www.w3.org/2000/svg" width="72" height="216" viewBox="0 0 3 9" shape-rendering="crispEdges">
  <title>U+0030 (0)</title>
  
  <g>
    <rect x="0" y="0" width="1" height="1" fill="rgb(34,145,174)" fill-opacity="0.500"/>
    <rect x="1" y="0" width="1" height="1" fill="rgb(120,245,15)" fill-opacity="0.500"/>
    <rect x="2" y="0" width="1" height="1" fill="rgb(26,195,124)" fill-opacity="0.500"/>
    <rect x="0" y="1" width="1" height="1" fill="rgb(13,170,123)" fill-opacity="0.500"/>
    <rect x="2" y="1" width="1" height="1" fill="rgb(46,222,80)" fill-opacity="0.500"/>
    <rect x="0" y="2" width="1" height="1" fill="rgb(32,222,153)" fill-opacity="0.500"/>
    <rect x="2" y="2" width="1" height="1" fill="rgb(34,240,59)" fill-opacity="0.500"/>
    <rect x="0" y="3" width="1" height="1" fill="rgb(52,150,162)" fill-opacity="0.500"/>
    <rect x="2" y="3" width="1" height="1" fill="rgb(26,210,143)" fill-opacity="0.500"/>
    <rect x="0" y="4" width="1" height="1" fill="rgb(50,251,123)" fill-opacity="0.500"/>
    <rect x="2" y="4" width="1" height="1" fill="rgb(85,184,107)" fill-opacity="0.500"/>
    <rect x="0" y="5" width="1" height="1" fill="rgb(27,135,60)" fill-opacity="0.500"/>
    <rect x="2" y="5" width="1" height="1" fill="rgb(41,248,35)" fill-opacity="0.500"/>
    <rect x="0" y="6" width="1" height="1" fill="rgb(119,254,57)" fill-opacity="0.500"/>
    <rect x="1" y="6" width="1" height="1" fill="rgb(10,227,49)" fill-opacity="0.500"/>
    <rect x="2" y="6" width="1" height="1" fill="rgb(35,167,129)" fill-opacity="0.500"/>
  </g>
</svg>
