<?xml version="1.0" encoding="UTF-8"?>
<svg xmlns="http://www.w3.org/2000/svg" width="120" height="216" viewBox="0 0 5 9" shape-rendering="crispEdges">
  <title>U+0429 (Щ)</title>
  
  <g>
    <rect x="0" y="0" width="1" height="1" fill="rgb(104,234,64)" fill-opacity="0.500"/>
    <rect x="2" y="0" width="1" height="1" fill="rgb(36,159,136)" fill-opacity="0.500"/>
    <rect x="4" y="0" width="1" height="1" fill="rgb(69,255,72)" fill-opacity="0.500"/>
    <rect x="0" y="1" width="1" height="1" fill="rgb(99,176,104)" fill-opacity="0.500"/>
    <rect x="2" y="1" width="1" height="1" fill="rgb(38,148,35)" fill-opacity="0.500"/>
    <rect x="4" y="1" width="1" height="1" fill="rgb(60,204,90)" fill-opacity="0.500"/>
    <rect x="0" y="2" width="1" height="1" fill="rgb(96,211,117)" fill-opacity="0.500"/>
    <rect x="2" y="2" width="1" height="1" fill="rgb(53,225,8)" fill-opacity="0.500"/>
    <rect x="4" y="2" width="1" height="1" fill="rgb(102,220,49)" fill-opacity="0.500"/>
    <rect x="0" y="3" width="1" height="1" fill="rgb(42,159,66)" fill-opacity="0.500"/>
    <rect x="2" y="3" width="1" height="1" fill="rgb(71,150,55)" fill-opacity="0.500"/>
    <rect x="4" y="3" width="1" height="1" fill="rgb(43,241,72)" fill-opacity="0.500"/>
    <rect x="0" y="4" width="1" height="1" fill="rgb(8,162,26)" fill-opacity="0.500"/>
    <rect x="2" y="4" width="1" height="1" fill="rgb(22,133,150)" fill-opacity="0.500"/>
    <rect x="4" y="4" width="1" height="1" fill="rgb(45,171,167)" fill-opacity="0.500"/>
    <rect x="0" y="5" width="1" height="1" fill="rgb(81,187,134)" fill-opacity="0.500"/>
    <rect x="2" y="5" width="1" height="1" fill="rgb(48,172,109)" fill-opacity="0.500"/>
    <rect x="4" y="5" width="1" height="1" fill="rgb(16,168,171)" fill-opacity="0.500"/>
    <rect x="0" y="6" width="1" height="1" fill="rgb(68,133,147)" fill-opacity="0.500"/>
    <rect x="1" y="6" width="1" height="1" fill="rgb(104,225,172)" fill-opacity="0.500"/>
    <rect x="2" y="6" width="1" height="1" fill="rgb(30,153,7)" fill-opacity="0.500"/>
    <rect x="3" y="6" width="1" height="1" fill="rgb(86,235,55)" fill-opacity="0.500"/>
    <rect x="4" y="6" width="1" height="1" fill="rgb(71,239,191)" fill-opacity="0.500"/>
    <rect x="4" y="7" width="1" height="1" fill="rgb(89,227,100)" fill-opacity="0.500"/>
    <rect x="4" y="8" width="1" height="1" fill="rgb(63,149,83)" fill-opacity="0.500"/>
  </g>
</svg>
