<?xml version="1.0" encoding="UTF-8"?>
<svg xmlns="http://www.w3.org/2000/svg" width="120" height="216" viewBox="0 0 5 9" shape-rendering="crispEdges">
  <title>U+042E (Ю)</title>
  
  <g>
    <rect x="0" y="0" width="1" height="1" fill="rgb(120,137,15)" fill-opacity="0.500"/>
    <rect x="2" y="0" width="1" height="1" fill="rgb(117,191,84)" fill-opacity="0.500"/>
    <rect x="3" y="0" width="1" height="1" fill="rgb(70,205,168)" fill-opacity="0.500"/>
    <rect x="0" y="1" width="1" height="1" fill="rgb(54,130,56)" fill-opacity="0.500"/>
    <rect x="2" y="1" width="1" height="1" fill="rgb(50,220,1)" fill-opacity="0.500"/>
    <rect x="4" y="1" width="1" height="1" fill="rgb(19,202,52)" fill-opacity="0.500"/>
    <rect x="0" y="2" width="1" height="1" fill="rgb(120,223,64)" fill-opacity="0.500"/>
    <rect x="1" y="2" width="1" height="1" fill="rgb(96,226,144)" fill-opacity="0.500"/>
    <rect x="2" y="2" width="1" height="1" fill="rgb(81,145,188)" fill-opacity="0.500"/>
    <rect x="4" y="2" width="1" height="1" fill="rgb(107,190,33)" fill-opacity="0.500"/>
    <rect x="0" y="3" width="1" height="1" fill="rgb(112,147,6)" fill-opacity="0.500"/>
    <rect x="2" y="3" width="1" height="1" fill="rgb(28,251,128)" fill-opacity="0.500"/>
    <rect x="4" y="3" width="1" height="1" fill="rgb(84,248,185)" fill-opacity="0.500"/>
    <rect x="0" y="4" width="1" height="1" fill="rgb(123,195,5)" fill-opacity="0.500"/>
    <rect x="2" y="4" width="1" height="1" fill="rgb(96,206,138)" fill-opacity="0.500"/>
    <rect x="4" y="4" width="1" height="1" fill="rgb(92,213,178)" fill-opacity="0.500"/>
    <rect x="0" y="5" width="1" height="1" fill="rgb(33,244,8)" fill-opacity="0.500"/>
    <rect x="2" y="5" width="1" height="1" fill="rgb(92,174,45)" fill-opacity="0.500"/>
    <rect x="4" y="5" width="1" height="1" fill="rgb(122,188,41)" fill-opacity="0.500"/>
    <rect x="0" y="6" width="1" height="1" fill="rgb(10,227,169)" fill-opacity="0.500"/>
    <rect x="2" y="6" width="1" height="1" fill="rgb(96,145,57)" fill-opacity="0.500"/>
    <rect x="3" y="6" width="1" height="1" fill="rgb(89,170,93)" fill-opacity="0.500"/>
  </g>
</svg>
