<?xml version="1.0" encoding="UTF-8"?>
<svg xmlns="http://www.w3.org/2000/svg" width="72" height="216" viewBox="0 0 3 9" shape-rendering="crispEdges">
  <title>U+0048 (H)</title>
  
  <g>
    <rect x="0" y="0" width="1" height="1" fill="rgb(13,207,44)" fill-opacity="0.500"/>
    <rect x="2" y="0" width="1" height="1" fill="rgb(67,224,36)" fill-opacity="0.500"/>
    <rect x="0" y="1" width="1" height="1" fill="rgb(90,221,160)" fill-opacity="0.500"/>
    <rect x="2" y="1" width="1" height="1" fill="rgb(63,142,114)" fill-opacity="0.500"/>
    <rect x="0" y="2" width="1" height="1" fill="rgb(33,176,164)" fill-opacity="0.500"/>
    <rect x="2" y="2" width="1" height="1" fill="rgb(9,152,159)" fill-opacity="0.500"/>
    <rect x="0" y="3" width="1" height="1" fill="rgb(33,215,141)" fill-opacity="0.500"/>
    <rect x="1" y="3" width="1" height="1" fill="rgb(105,143,8)" fill-opacity="0.500"/>
    <rect x="2" y="3" width="1" height="1" fill="rgb(39,178,140)" fill-opacity="0.500"/>
    <rect x="0" y="4" width="1" height="1" fill="rgb(48,180,48)" fill-opacity="0.500"/>
    <rect x="2" y="4" width="1" height="1" fill="rgb(19,130,100)" fill-opacity="0.500"/>
    <rect x="0" y="5" width="1" height="1" fill="rgb(96,226,178)" fill-opacity="0.500"/>
    <rect x="2" y="5" width="1" height="1" fill="rgb(35,251,60)" fill-opacity="0.500"/>
    <rect x="0" y="6" width="1" height="1" fill="rgb(123,178,119)" fill-opacity="0.500"/>
    <rect x="2" y="6" width="1" height="1" fill="rgb(82,176,121)" fill-opacity="0.500"/>
  </g>
</svg>
