<?xml version="1.0" encoding="UTF-8"?>
<svg xmlns="http://www.w3.org/2000/svg" width="120" height="216" viewBox="0 0 5 9" shape-rendering="crispEdges">
  <title>U+0416 (Ж)</title>
  
  <g>
    <rect x="0" y="0" width="1" height="1" fill="rgb(72,162,58)" fill-opacity="0.500"/>
    <rect x="2" y="0" width="1" height="1" fill="rgb(127,194,143)" fill-opacity="0.500"/>
    <rect x="4" y="0" width="1" height="1" fill="rgb(16,209,171)" fill-opacity="0.500"/>
    <rect x="0" y="1" width="1" height="1" fill="rgb(76,166,191)" fill-opacity="0.500"/>
    <rect x="2" y="1" width="1" height="1" fill="rgb(118,249,175)" fill-opacity="0.500"/>
    <rect x="4" y="1" width="1" height="1" fill="rgb(74,220,126)" fill-opacity="0.500"/>
    <rect x="1" y="2" width="1" height="1" fill="rgb(54,196,21)" fill-opacity="0.500"/>
    <rect x="2" y="2" width="1" height="1" fill="rgb(73,214,173)" fill-opacity="0.500"/>
    <rect x="3" y="2" width="1" height="1" fill="rgb(35,199,65)" fill-opacity="0.500"/>
    <rect x="2" y="3" width="1" height="1" fill="rgb(110,167,16)" fill-opacity="0.500"/>
    <rect x="1" y="4" width="1" height="1" fill="rgb(74,212,145)" fill-opacity="0.500"/>
    <rect x="2" y="4" width="1" height="1" fill="rgb(4,187,123)" fill-opacity="0.500"/>
    <rect x="3" y="4" width="1" height="1" fill="rgb(100,230,149)" fill-opacity="0.500"/>
    <rect x="0" y="5" width="1" height="1" fill="rgb(94,234,177)" fill-opacity="0.500"/>
    <rect x="2" y="5" width="1" height="1" fill="rgb(7,213,75)" fill-opacity="0.500"/>
    <rect x="4" y="5" width="1" height="1" fill="rgb(109,145,80)" fill-opacity="0.500"/>
    <rect x="0" y="6" width="1" height="1" fill="rgb(105,229,185)" fill-opacity="0.500"/>
    <rect x="2" y="6" width="1" height="1" fill="rgb(102,219,2)" fill-opacity="0.500"/>
    <rect x="4" y="6" width="1" height="1" fill="rgb(27,173,125)" fill-opacity="0.500"/>
  </g>
</svg>
