<?xml version="1.0" encoding="UTF-8"?>
<svg xmlns="http://www.w3.org/2000/svg" width="72" height="216" viewBox="0 0 3 9" shape-rendering="crispEdges">
  <title>U+0410 (А)</title>
  
  <g>
    <rect x="0" y="0" width="1" height="1" fill="rgb(58,192,95)" fill-opacity="0.500"/>
    <rect x="1" y="0" width="1" height="1" fill="rgb(117,197,33)" fill-opacity="0.500"/>
    <rect x="2" y="0" width="1" height="1" fill="rgb(102,215,77)" fill-opacity="0.500"/>
    <rect x="0" y="1" width="1" height="1" fill="rgb(21,128,134)" fill-opacity="0.500"/>
    <rect x="2" y="1" width="1" height="1" fill="rgb(62,171,176)" fill-opacity="0.500"/>
    <rect x="0" y="2" width="1" height="1" fill="rgb(65,140,26)" fill-opacity="0.500"/>
    <rect x="2" y="2" width="1" height="1" fill="rgb(70,180,29)" fill-opacity="0.500"/>
    <rect x="0" y="3" width="1" height="1" fill="rgb(44,251,158)" fill-opacity="0.500"/>
    <rect x="1" y="3" width="1" height="1" fill="rgb(87,226,3)" fill-opacity="0.500"/>
    <rect x="2" y="3" width="1" height="1" fill="rgb(126,137,80)" fill-opacity="0.500"/>
    <rect x="0" y="4" width="1" height="1" fill="rgb(38,170,19)" fill-opacity="0.500"/>
    <rect x="2" y="4" width="1" height="1" fill="rgb(50,210,108)" fill-opacity="0.500"/>
    <rect x="0" y="5" width="1" height="1" fill="rgb(33,206,23)" fill-opacity="0.500"/>
    <rect x="2" y="5" width="1" height="1" fill="rgb(114,184,49)" fill-opacity="0.500"/>
    <rect x="0" y="6" width="1" height="1" fill="rgb(88,136,171)" fill-opacity="0.500"/>
    <rect x="2" y="6" width="1" height="1" fill="rgb(66,145,64)" fill-opacity="0.500"/>
  </g>
</svg>
