<?xml version="1.0" encoding="UTF-8"?>
<svg xmlns="http://www.w3.org/2000/svg" width="72" height="216" viewBox="0 0 3 9" shape-rendering="crispEdges">
  <title>U+004F (O)</title>
  
  <g>
    <rect x="0" y="0" width="1" height="1" fill="rgb(41,211,173)" fill-opacity="0.500"/>
    <rect x="1" y="0" width="1" height="1" fill="rgb(65,228,150)" fill-opacity="0.500"/>
    <rect x="2" y="0" width="1" height="1" fill="rgb(29,221,18)" fill-opacity="0.500"/>
    <rect x="0" y="1" width="1" height="1" fill="rgb(112,225,174)" fill-opacity="0.500"/>
    <rect x="2" y="1" width="1" height="1" fill="rgb(89,142,158)" fill-opacity="0.500"/>
    <rect x="0" y="2" width="1" height="1" fill="rgb(51,217,21)" fill-opacity="0.500"/>
    <rect x="2" y="2" width="1" height="1" fill="rgb(84,187,191)" fill-opacity="0.500"/>
    <rect x="0" y="3" width="1" height="1" fill="rgb(125,156,169)" fill-opacity="0.500"/>
    <rect x="2" y="3" width="1" height="1" fill="rgb(16,165,60)" fill-opacity="0.500"/>
    <rect x="0" y="4" width="1" height="1" fill="rgb(119,131,61)" fill-opacity="0.500"/>
    <rect x="2" y="4" width="1" height="1" fill="rgb(35,174,76)" fill-opacity="0.500"/>
    <rect x="0" y="5" width="1" height="1" fill="rgb(107,184,55)" fill-opacity="0.500"/>
    <rect x="2" y="5" width="1" height="1" fill="rgb(6,235,49)" fill-opacity="0.500"/>
    <rect x="0" y="6" width="1" height="1" fill="rgb(76,163,100)" fill-opacity="0.500"/>
    <rect x="1" y="6" width="1" height="1" fill="rgb(94,203,77)" fill-opacity="0.500"/>
    <rect x="2" y="6" width="1" height="1" fill="rgb(34,217,9)" fill-opacity="0.500"/>
  </g>
</svg>
