<?xml version="1.0" encoding="UTF-8"?>
<svg xmlns="http://www.w3.org/2000/svg" width="120" height="216" viewBox="0 0 5 9" shape-rendering="crispEdges">
  <title>U+0645 (م)</title>
  
  <g>
    <rect x="1" y="1" width="1" height="1" fill="rgb(59,181,50)" fill-opacity="0.500"/>
    <rect x="2" y="1" width="1" height="1" fill="rgb(87,174,33)" fill-opacity="0.500"/>
    <rect x="3" y="1" width="1" height="1" fill="rgb(8,170,85)" fill-opacity="0.500"/>
    <rect x="0" y="2" width="1" height="1" fill="rgb(72,186,40)" fill-opacity="0.500"/>
    <rect x="4" y="2" width="1" height="1" fill="rgb(50,156,58)" fill-opacity="0.500"/>
    <rect x="0" y="3" width="1" height="1" fill="rgb(103,142,179)" fill-opacity="0.500"/>
    <rect x="2" y="3" width="1" height="1" fill="rgb(10,168,114)" fill-opacity="0.500"/>
    <rect x="4" y="3" width="1" height="1" fill="rgb(40,175,161)" fill-opacity="0.500"/>
    <rect x="0" y="4" width="1" height="1" fill="rgb(73,194,3)" fill-opacity="0.500"/>
    <rect x="4" y="4" width="1" height="1" fill="rgb(40,229,152)" fill-opacity="0.500"/>
    <rect x="0" y="5" width="1" height="1" fill="rgb(83,240,42)" fill-opacity="0.500"/>
    <rect x="4" y="5" width="1" height="1" fill="rgb(33,166,124)" fill-opacity="0.500"/>
    <rect x="1" y="6" width="1" height="1" fill="rgb(56,135,87)" fill-opacity="0.500"/>
    <rect x="2" y="6" width="1" height="1" fill="rgb(76,244,70)" fill-opacity="0.500"/>
    <rect x="3" y="6" width="1" height="1" fill="rgb(111,171,103)" fill-opacity="0.500"/>
    <rect x="2" y="7" width="1" height="1" fill="rgb(85,187,43)" fill-opacity="0.500"/>
  </g>
</svg>
