<?xml version="1.0" encoding="UTF-8"?>
<svg xmlns="http://www.w3.org/2000/svg" width="120" height="216" viewBox="0 0 5 9" shape-rendering="crispEdges">
  <title>U+0428 (ле)</title>
  
  <g>
    <rect x="0" y="0" width="1" height="1" fill="rgb(99,224,172)" fill-opacity="0.500"/>
    <rect x="2" y="0" width="1" height="1" fill="rgb(24,174,98)" fill-opacity="0.500"/>
    <rect x="4" y="0" width="1" height="1" fill="rgb(69,221,82)" fill-opacity="0.500"/>
    <rect x="0" y="1" width="1" height="1" fill="rgb(1,191,122)" fill-opacity="0.500"/>
    <rect x="2" y="1" width="1" height="1" fill="rgb(47,139,105)" fill-opacity="0.500"/>
    <rect x="4" y="1" width="1" height="1" fill="rgb(107,161,92)" fill-opacity="0.500"/>
    <rect x="0" y="2" width="1" height="1" fill="rgb(126,219,13)" fill-opacity="0.500"/>
    <rect x="2" y="2" width="1" height="1" fill="rgb(66,149,13)" fill-opacity="0.500"/>
    <rect x="4" y="2" width="1" height="1" fill="rgb(68,150,136)" fill-opacity="0.500"/>
    <rect x="0" y="3" width="1" height="1" fill="rgb(96,141,77)" fill-opacity="0.500"/>
    <rect x="2" y="3" width="1" height="1" fill="rgb(79,189,31)" fill-opacity="0.500"/>
    <rect x="4" y="3" width="1" height="1" fill="rgb(125,173,56)" fill-opacity="0.500"/>
    <rect x="0" y="4" width="1" height="1" fill="rgb(46,208,123)" fill-opacity="0.500"/>
    <rect x="2" y="4" width="1" height="1" fill="rgb(111,172,58)" fill-opacity="0.500"/>
    <rect x="4" y="4" width="1" height="1" fill="rgb(8,193,25)" fill-opacity="0.500"/>
    <rect x="0" y="5" width="1" height="1" fill="rgb(110,181,80)" fill-opacity="0.500"/>
    <rect x="2" y="5" width="1" height="1" fill="rgb(117,245,131)" fill-opacity="0.500"/>
    <rect x="4" y="5" width="1" height="1" fill="rgb(63,239,106)" fill-opacity="0.500"/>
    <rect x="0" y="6" width="1" height="1" fill="rgb(115,146,186)" fill-opacity="0.500"/>
    <rect x="1" y="6" width="1" height="1" fill="rgb(34,185,118)" fill-opacity="0.500"/>
    <rect x="2" y="6" width="1" height="1" fill="rgb(28,191,2)" fill-opacity="0.500"/>
    <rect x="3" y="6" width="1" height="1" fill="rgb(87,217,95)" fill-opacity="0.500"/>
    <rect x="4" y="6" width="1" height="1" fill="rgb(106,231,145)" fill-opacity="0.500"/>
  </g>
</svg>
