<?xml version="1.0" encoding="UTF-8"?>
<svg xmlns="http://www.w3.org/2000/svg" width="120" height="216" viewBox="0 0 5 9" shape-rendering="crispEdges">
  <title>U+042B (Ы)</title>
  
  <g>
    <rect x="0" y="0" width="1" height="1" fill="rgb(34,217,34)" fill-opacity="0.500"/>
    <rect x="4" y="0" width="1" height="1" fill="rgb(39,215,59)" fill-opacity="0.500"/>
    <rect x="0" y="1" width="1" height="1" fill="rgb(25,131,2)" fill-opacity="0.500"/>
    <rect x="4" y="1" width="1" height="1" fill="rgb(40,242,165)" fill-opacity="0.500"/>
    <rect x="0" y="2" width="1" height="1" fill="rgb(46,191,51)" fill-opacity="0.500"/>
    <rect x="4" y="2" width="1" height="1" fill="rgb(118,153,74)" fill-opacity="0.500"/>
    <rect x="0" y="3" width="1" height="1" fill="rgb(89,204,145)" fill-opacity="0.500"/>
    <rect x="1" y="3" width="1" height="1" fill="rgb(104,156,35)" fill-opacity="0.500"/>
    <rect x="4" y="3" width="1" height="1" fill="rgb(68,156,92)" fill-opacity="0.500"/>
    <rect x="0" y="4" width="1" height="1" fill="rgb(124,205,30)" fill-opacity="0.500"/>
    <rect x="2" y="4" width="1" height="1" fill="rgb(24,168,22)" fill-opacity="0.500"/>
    <rect x="4" y="4" width="1" height="1" fill="rgb(31,146,10)" fill-opacity="0.500"/>
    <rect x="0" y="5" width="1" height="1" fill="rgb(70,241,132)" fill-opacity="0.500"/>
    <rect x="2" y="5" width="1" height="1" fill="rgb(26,179,189)" fill-opacity="0.500"/>
    <rect x="4" y="5" width="1" height="1" fill="rgb(57,178,171)" fill-opacity="0.500"/>
    <rect x="0" y="6" width="1" height="1" fill="rgb(7,202,64)" fill-opacity="0.500"/>
    <rect x="1" y="6" width="1" height="1" fill="rgb(2,141,71)" fill-opacity="0.500"/>
    <rect x="4" y="6" width="1" height="1" fill="rgb(38,129,53)" fill-opacity="0.500"/>
  </g>
</svg>
