<?xml version="1.0" encoding="UTF-8"?>
<svg xmlns="http://www.w3.org/2000/svg" width="72" height="216" viewBox="0 0 3 9" shape-rendering="crispEdges">
  <title>U+041D (Н)</title>
  
  <g>
    <rect x="0" y="0" width="1" height="1" fill="rgb(101,175,36)" fill-opacity="0.500"/>
    <rect x="2" y="0" width="1" height="1" fill="rgb(115,139,138)" fill-opacity="0.500"/>
    <rect x="0" y="1" width="1" height="1" fill="rgb(108,191,27)" fill-opacity="0.500"/>
    <rect x="2" y="1" width="1" height="1" fill="rgb(111,207,70)" fill-opacity="0.500"/>
    <rect x="0" y="2" width="1" height="1" fill="rgb(80,138,5)" fill-opacity="0.500"/>
    <rect x="2" y="2" width="1" height="1" fill="rgb(81,180,170)" fill-opacity="0.500"/>
    <rect x="0" y="3" width="1" height="1" fill="rgb(78,244,12)" fill-opacity="0.500"/>
    <rect x="1" y="3" width="1" height="1" fill="rgb(114,159,23)" fill-opacity="0.500"/>
    <rect x="2" y="3" width="1" height="1" fill="rgb(113,220,172)" fill-opacity="0.500"/>
    <rect x="0" y="4" width="1" height="1" fill="rgb(91,241,32)" fill-opacity="0.500"/>
    <rect x="2" y="4" width="1" height="1" fill="rgb(47,183,108)" fill-opacity="0.500"/>
    <rect x="0" y="5" width="1" height="1" fill="rgb(89,204,95)" fill-opacity="0.500"/>
    <rect x="2" y="5" width="1" height="1" fill="rgb(81,241,159)" fill-opacity="0.500"/>
    <rect x="0" y="6" width="1" height="1" fill="rgb(105,136,119)" fill-opacity="0.500"/>
    <rect x="2" y="6" width="1" height="1" fill="rgb(29,253,179)" fill-opacity="0.500"/>
  </g>
</svg>
