<?xml version="1.0" encoding="UTF-8"?>
<svg xmlns="http://www.w3.org/2000/svg" width="120" height="216" viewBox="0 0 5 9" shape-rendering="crispEdges">
  <title>U+0647 (ه)</title>
  
  <g>
    <rect x="1" y="1" width="1" height="1" fill="rgb(16,244,159)" fill-opacity="0.500"/>
    <rect x="2" y="1" width="1" height="1" fill="rgb(118,175,8)" fill-opacity="0.500"/>
    <rect x="3" y="1" width="1" height="1" fill="rgb(51,146,165)" fill-opacity="0.500"/>
    <rect x="0" y="2" width="1" height="1" fill="rgb(46,138,52)" fill-opacity="0.500"/>
    <rect x="4" y="2" width="1" height="1" fill="rgb(32,220,93)" fill-opacity="0.500"/>
    <rect x="0" y="3" width="1" height="1" fill="rgb(83,254,110)" fill-opacity="0.500"/>
    <rect x="2" y="3" width="1" height="1" fill="rgb(2,208,152)" fill-opacity="0.500"/>
    <rect x="4" y="3" width="1" height="1" fill="rgb(85,255,27)" fill-opacity="0.500"/>
    <rect x="0" y="4" width="1" height="1" fill="rgb(101,221,124)" fill-opacity="0.500"/>
    <rect x="4" y="4" width="1" height="1" fill="rgb(19,134,12)" fill-opacity="0.500"/>
    <rect x="0" y="5" width="1" height="1" fill="rgb(78,249,11)" fill-opacity="0.500"/>
    <rect x="4" y="5" width="1" height="1" fill="rgb(113,163,46)" fill-opacity="0.500"/>
    <rect x="1" y="6" width="1" height="1" fill="rgb(16,245,12)" fill-opacity="0.500"/>
    <rect x="2" y="6" width="1" height="1" fill="rgb(25,241,3)" fill-opacity="0.500"/>
    <rect x="3" y="6" width="1" height="1" fill="rgb(33,153,177)" fill-opacity="0.500"/>
  </g>
</svg>
