<?xml version="1.0" encoding="UTF-8"?>
<svg xmlns="http://www.w3.org/2000/svg" width="120" height="216" viewBox="0 0 5 9" shape-rendering="crispEdges">
  <title>U+006D (m)</title>
  
  <g>
    <rect x="0" y="2" width="1" height="1" fill="rgb(107,200,20)" fill-opacity="0.500"/>
    <rect x="1" y="2" width="1" height="1" fill="rgb(61,212,61)" fill-opacity="0.500"/>
    <rect x="2" y="2" width="1" height="1" fill="rgb(19,164,176)" fill-opacity="0.500"/>
    <rect x="3" y="2" width="1" height="1" fill="rgb(39,244,190)" fill-opacity="0.500"/>
    <rect x="4" y="2" width="1" height="1" fill="rgb(97,211,135)" fill-opacity="0.500"/>
    <rect x="0" y="3" width="1" height="1" fill="rgb(111,169,101)" fill-opacity="0.500"/>
    <rect x="2" y="3" width="1" height="1" fill="rgb(21,156,64)" fill-opacity="0.500"/>
    <rect x="4" y="3" width="1" height="1" fill="rgb(115,228,116)" fill-opacity="0.500"/>
    <rect x="0" y="4" width="1" height="1" fill="rgb(120,133,172)" fill-opacity="0.500"/>
    <rect x="2" y="4" width="1" height="1" fill="rgb(105,244,180)" fill-opacity="0.500"/>
    <rect x="4" y="4" width="1" height="1" fill="rgb(96,176,46)" fill-opacity="0.500"/>
    <rect x="0" y="5" width="1" height="1" fill="rgb(37,202,16)" fill-opacity="0.500"/>
    <rect x="2" y="5" width="1" height="1" fill="rgb(10,158,155)" fill-opacity="0.500"/>
    <rect x="4" y="5" width="1" height="1" fill="rgb(10,128,88)" fill-opacity="0.500"/>
    <rect x="0" y="6" width="1" height="1" fill="rgb(114,151,102)" fill-opacity="0.500"/>
    <rect x="2" y="6" width="1" height="1" fill="rgb(40,133,16)" fill-opacity="0.500"/>
    <rect x="4" y="6" width="1" height="1" fill="rgb(84,245,40)" fill-opacity="0.500"/>
  </g>
</svg>
