<?xml version="1.0" encoding="UTF-8"?>
<svg xmlns="http://www.w3.org/2000/svg" width="216" height="216" viewBox="0 0 9 9" shape-rendering="crispEdges">
  <title>U+2685 (⚅)</title>
  
  <g>
    <rect x="0" y="0" width="1" height="1" fill="rgb(23,248,7)" fill-opacity="0.500"/>
    <rect x="1" y="0" width="1" height="1" fill="rgb(23,180,25)" fill-opacity="0.500"/>
    <rect x="2" y="0" width="1" height="1" fill="rgb(126,165,139)" fill-opacity="0.500"/>
    <rect x="3" y="0" width="1" height="1" fill="rgb(40,153,105)" fill-opacity="0.500"/>
    <rect x="4" y="0" width="1" height="1" fill="rgb(124,223,35)" fill-opacity="0.500"/>
    <rect x="5" y="0" width="1" height="1" fill="rgb(44,170,174)" fill-opacity="0.500"/>
    <rect x="6" y="0" width="1" height="1" fill="rgb(109,136,107)" fill-opacity="0.500"/>
    <rect x="7" y="0" width="1" height="1" fill="rgb(6,133,76)" fill-opacity="0.500"/>
    <rect x="8" y="0" width="1" height="1" fill="rgb(69,161,10)" fill-opacity="0.500"/>
    <rect x="0" y="1" width="1" height="1" fill="rgb(27,130,83)" fill-opacity="0.500"/>
    <rect x="8" y="1" width="1" height="1" fill="rgb(47,158,107)" fill-opacity="0.500"/>
    <rect x="0" y="2" width="1" height="1" fill="rgb(44,170,141)" fill-opacity="0.500"/>
    <rect x="2" y="2" width="1" height="1" fill="rgb(68,252,118)" fill-opacity="0.500"/>
    <rect x="6" y="2" width="1" height="1" fill="rgb(58,179,72)" fill-opacity="0.500"/>
    <rect x="8" y="2" width="1" height="1" fill="rgb(77,193,191)" fill-opacity="0.500"/>
    <rect x="0" y="3" width="1" height="1" fill="rgb(73,204,80)" fill-opacity="0.500"/>
    <rect x="8" y="3" width="1" height="1" fill="rgb(103,207,137)" fill-opacity="0.500"/>
    <rect x="0" y="4" width="1" height="1" fill="rgb(14,184,190)" fill-opacity="0.500"/>
    <rect x="2" y="4" width="1" height="1" fill="rgb(11,201,33)" fill-opacity="0.500"/>
    <rect x="6" y="4" width="1" height="1" fill="rgb(32,162,17)" fill-opacity="0.500"/>
    <rect x="8" y="4" width="1" height="1" fill="rgb(15,194,40)" fill-opacity="0.500"/>
    <rect x="0" y="5" width="1" height="1" fill="rgb(82,196,20)" fill-opacity="0.500"/>
    <rect x="8" y="5" width="1" height="1" fill="rgb(30,129,26)" fill-opacity="0.500"/>
    <rect x="0" y="6" width="1" height="1" fill="rgb(20,157,102)" fill-opacity="0.500"/>
    <rect x="2" y="6" width="1" height="1" fill="rgb(56,214,65)" fill-opacity="0.500"/>
    <rect x="6" y="6" width="1" height="1" fill="rgb(1,192,40)" fill-opacity="0.500"/>
    <rect x="8" y="6" width="1" height="1" fill="rgb(38,198,103)" fill-opacity="0.500"/>
    <rect x="0" y="7" width="1" height="1" fill="rgb(82,141,190)" fill-opacity="0.500"/>
    <rect x="8" y="7" width="1" height="1" fill="rgb(103,244,128)" fill-opacity="0.500"/>
    <rect x="0" y="8" width="1" height="1" fill="rgb(64,136,165)" fill-opacity="0.500"/>
    <rect x="1" y="8" width="1" height="1" fill="rgb(121,223,78)" fill-opacity="0.500"/>
    <rect x="2" y="8" width="1" height="1" fill="rgb(49,218,184)" fill-opacity="0.500"/>
    <rect x="3" y="8" width="1" height="1" fill="rgb(48,185,64)" fill-opacity="0.500"/>
    <rect x="4" y="8" width="1" height="1" fill="rgb(106,211,166)" fill-opacity="0.500"/>
    <rect x="5" y="8" width="1" height="1" fill="rgb(2,169,18)" fill-opacity="0.500"/>
    <rect x="6" y="8" width="1" height="1" fill="rgb(102,177,190)" fill-opacity="0.500"/>
    <rect x="7" y="8" width="1" height="1" fill="rgb(90,129,90)" fill-opacity="0.500"/>
    <rect x="8" y="8" width="1" height="1" fill="rgb(17,215,91)" fill-opacity="0.500"/>
  </g>
</svg>
