<?xml version="1.0" encoding="UTF-8"?>
<svg xmlns="http://www.w3.org/2000/svg" width="120" height="216" viewBox="0 0 5 9" shape-rendering="crispEdges">
  <title>U+0647 (ه)</title>
  
  <g>
    <rect x="1" y="1" width="1" height="1" fill="rgb(19,150,27)" fill-opacity="0.500"/>
    <rect x="2" y="1" width="1" height="1" fill="rgb(123,131,186)" fill-opacity="0.500"/>
    <rect x="3" y="1" width="1" height="1" fill="rgb(23,186,178)" fill-opacity="0.500"/>
    <rect x="0" y="2" width="1" height="1" fill="rgb(103,234,126)" fill-opacity="0.500"/>
    <rect x="4" y="2" width="1" height="1" fill="rgb(23,133,139)" fill-opacity="0.500"/>
    <rect x="0" y="3" width="1" height="1" fill="rgb(126,206,34)" fill-opacity="0.500"/>
    <rect x="2" y="3" width="1" height="1" fill="rgb(112,147,186)" fill-opacity="0.500"/>
    <rect x="4" y="3" width="1" height="1" fill="rgb(9,136,61)" fill-opacity="0.500"/>
    <rect x="0" y="4" width="1" height="1" fill="rgb(48,220,88)" fill-opacity="0.500"/>
    <rect x="4" y="4" width="1" height="1" fill="rgb(105,207,104)" fill-opacity="0.500"/>
    <rect x="0" y="5" width="1" height="1" fill="rgb(6,239,105)" fill-opacity="0.500"/>
    <rect x="4" y="5" width="1" height="1" fill="rgb(43,209,25)" fill-opacity="0.500"/>
    <rect x="1" y="6" width="1" height="1" fill="rgb(122,217,153)" fill-opacity="0.500"/>
    <rect x="2" y="6" width="1" height="1" fill="rgb(23,148,106)" fill-opacity="0.500"/>
    <rect x="3" y="6" width="1" height="1" fill="rgb(94,192,171)" fill-opacity="0.500"/>
  </g>
</svg>
