<?xml version="1.0" encoding="UTF-8"?>
<svg xmlns="http://www.w3.org/2000/svg" width="168" height="216" viewBox="0 0 7 9" shape-rendering="crispEdges">
  <title>U+2629 (☩)</title>
  
  <g>
    <rect x="2" y="0" width="1" height="1" fill="rgb(23,161,127)" fill-opacity="0.500"/>
    <rect x="3" y="0" width="1" height="1" fill="rgb(60,172,153)" fill-opacity="0.500"/>
    <rect x="4" y="0" width="1" height="1" fill="rgb(118,131,10)" fill-opacity="0.500"/>
    <rect x="3" y="1" width="1" height="1" fill="rgb(109,175,177)" fill-opacity="0.500"/>
    <rect x="0" y="2" width="1" height="1" fill="rgb(95,253,101)" fill-opacity="0.500"/>
    <rect x="3" y="2" width="1" height="1" fill="rgb(105,237,107)" fill-opacity="0.500"/>
    <rect x="6" y="2" width="1" height="1" fill="rgb(80,178,51)" fill-opacity="0.500"/>
    <rect x="0" y="3" width="1" height="1" fill="rgb(44,162,51)" fill-opacity="0.500"/>
    <rect x="1" y="3" width="1" height="1" fill="rgb(103,185,7)" fill-opacity="0.500"/>
    <rect x="2" y="3" width="1" height="1" fill="rgb(50,243,157)" fill-opacity="0.500"/>
    <rect x="3" y="3" width="1" height="1" fill="rgb(88,156,53)" fill-opacity="0.500"/>
    <rect x="4" y="3" width="1" height="1" fill="rgb(34,154,72)" fill-opacity="0.500"/>
    <rect x="5" y="3" width="1" height="1" fill="rgb(43,246,145)" fill-opacity="0.500"/>
    <rect x="6" y="3" width="1" height="1" fill="rgb(12,249,83)" fill-opacity="0.500"/>
    <rect x="0" y="4" width="1" height="1" fill="rgb(19,188,2)" fill-opacity="0.500"/>
    <rect x="3" y="4" width="1" height="1" fill="rgb(90,216,174)" fill-opacity="0.500"/>
    <rect x="6" y="4" width="1" height="1" fill="rgb(71,216,141)" fill-opacity="0.500"/>
    <rect x="3" y="5" width="1" height="1" fill="rgb(85,222,157)" fill-opacity="0.500"/>
    <rect x="2" y="6" width="1" height="1" fill="rgb(97,187,168)" fill-opacity="0.500"/>
    <rect x="3" y="6" width="1" height="1" fill="rgb(106,185,38)" fill-opacity="0.500"/>
    <rect x="4" y="6" width="1" height="1" fill="rgb(28,222,92)" fill-opacity="0.500"/>
  </g>
</svg>
