<?xml version="1.0" encoding="UTF-8"?>
<svg xmlns="http://www.w3.org/2000/svg" width="72" height="216" viewBox="0 0 3 9" shape-rendering="crispEdges">
  <title>U+0067 (g)</title>
  
  <g>
    <rect x="0" y="2" width="1" height="1" fill="rgb(97,180,99)" fill-opacity="0.500"/>
    <rect x="1" y="2" width="1" height="1" fill="rgb(20,164,97)" fill-opacity="0.500"/>
    <rect x="2" y="2" width="1" height="1" fill="rgb(84,182,93)" fill-opacity="0.500"/>
    <rect x="0" y="3" width="1" height="1" fill="rgb(99,254,81)" fill-opacity="0.500"/>
    <rect x="2" y="3" width="1" height="1" fill="rgb(12,129,67)" fill-opacity="0.500"/>
    <rect x="0" y="4" width="1" height="1" fill="rgb(63,248,60)" fill-opacity="0.500"/>
    <rect x="2" y="4" width="1" height="1" fill="rgb(89,210,41)" fill-opacity="0.500"/>
    <rect x="0" y="5" width="1" height="1" fill="rgb(81,173,190)" fill-opacity="0.500"/>
    <rect x="2" y="5" width="1" height="1" fill="rgb(108,179,75)" fill-opacity="0.500"/>
    <rect x="0" y="6" width="1" height="1" fill="rgb(20,224,75)" fill-opacity="0.500"/>
    <rect x="1" y="6" width="1" height="1" fill="rgb(46,239,148)" fill-opacity="0.500"/>
    <rect x="2" y="6" width="1" height="1" fill="rgb(79,193,10)" fill-opacity="0.500"/>
    <rect x="2" y="7" width="1" height="1" fill="rgb(122,202,43)" fill-opacity="0.500"/>
    <rect x="0" y="8" width="1" height="1" fill="rgb(16,218,60)" fill-opacity="0.500"/>
    <rect x="1" y="8" width="1" height="1" fill="rgb(98,156,75)" fill-opacity="0.500"/>
    <rect x="2" y="8" width="1" height="1" fill="rgb(109,162,27)" fill-opacity="0.500"/>
  </g>
</svg>
