<?xml version="1.0" encoding="UTF-8"?>
<svg xmlns="http://www.w3.org/2000/svg" width="120" height="216" viewBox="0 0 5 9" shape-rendering="crispEdges">
  <title>U+05D8 (ט)</title>
  
  <g>
    <rect x="1" y="0" width="1" height="1" fill="rgb(42,197,90)" fill-opacity="0.500"/>
    <rect x="2" y="0" width="1" height="1" fill="rgb(96,154,72)" fill-opacity="0.500"/>
    <rect x="3" y="0" width="1" height="1" fill="rgb(28,155,141)" fill-opacity="0.500"/>
    <rect x="0" y="1" width="1" height="1" fill="rgb(89,220,146)" fill-opacity="0.500"/>
    <rect x="4" y="1" width="1" height="1" fill="rgb(94,177,133)" fill-opacity="0.500"/>
    <rect x="0" y="2" width="1" height="1" fill="rgb(91,233,106)" fill-opacity="0.500"/>
    <rect x="2" y="2" width="1" height="1" fill="rgb(44,209,102)" fill-opacity="0.500"/>
    <rect x="4" y="2" width="1" height="1" fill="rgb(6,230,147)" fill-opacity="0.500"/>
    <rect x="0" y="3" width="1" height="1" fill="rgb(76,158,12)" fill-opacity="0.500"/>
    <rect x="2" y="3" width="1" height="1" fill="rgb(31,159,123)" fill-opacity="0.500"/>
    <rect x="4" y="3" width="1" height="1" fill="rgb(56,234,189)" fill-opacity="0.500"/>
    <rect x="0" y="4" width="1" height="1" fill="rgb(33,206,187)" fill-opacity="0.500"/>
    <rect x="4" y="4" width="1" height="1" fill="rgb(31,234,150)" fill-opacity="0.500"/>
    <rect x="0" y="5" width="1" height="1" fill="rgb(97,171,104)" fill-opacity="0.500"/>
    <rect x="4" y="5" width="1" height="1" fill="rgb(29,232,136)" fill-opacity="0.500"/>
    <rect x="1" y="6" width="1" height="1" fill="rgb(98,142,187)" fill-opacity="0.500"/>
    <rect x="2" y="6" width="1" height="1" fill="rgb(47,222,102)" fill-opacity="0.500"/>
    <rect x="3" y="6" width="1" height="1" fill="rgb(31,175,85)" fill-opacity="0.500"/>
  </g>
</svg>
