<?xml version="1.0" encoding="UTF-8"?>
<svg xmlns="http://www.w3.org/2000/svg" width="72" height="216" viewBox="0 0 3 9" shape-rendering="crispEdges">
  <title>U+041F (П)</title>
  
  <g>
    <rect x="0" y="0" width="1" height="1" fill="rgb(74,152,93)" fill-opacity="0.500"/>
    <rect x="1" y="0" width="1" height="1" fill="rgb(69,245,47)" fill-opacity="0.500"/>
    <rect x="2" y="0" width="1" height="1" fill="rgb(115,176,78)" fill-opacity="0.500"/>
    <rect x="0" y="1" width="1" height="1" fill="rgb(127,251,71)" fill-opacity="0.500"/>
    <rect x="2" y="1" width="1" height="1" fill="rgb(94,199,126)" fill-opacity="0.500"/>
    <rect x="0" y="2" width="1" height="1" fill="rgb(100,146,142)" fill-opacity="0.500"/>
    <rect x="2" y="2" width="1" height="1" fill="rgb(60,194,53)" fill-opacity="0.500"/>
    <rect x="0" y="3" width="1" height="1" fill="rgb(28,131,123)" fill-opacity="0.500"/>
    <rect x="2" y="3" width="1" height="1" fill="rgb(35,236,23)" fill-opacity="0.500"/>
    <rect x="0" y="4" width="1" height="1" fill="rgb(66,173,11)" fill-opacity="0.500"/>
    <rect x="2" y="4" width="1" height="1" fill="rgb(103,143,128)" fill-opacity="0.500"/>
    <rect x="0" y="5" width="1" height="1" fill="rgb(2,223,36)" fill-opacity="0.500"/>
    <rect x="2" y="5" width="1" height="1" fill="rgb(68,129,176)" fill-opacity="0.500"/>
    <rect x="0" y="6" width="1" height="1" fill="rgb(17,146,68)" fill-opacity="0.500"/>
    <rect x="2" y="6" width="1" height="1" fill="rgb(96,250,42)" fill-opacity="0.500"/>
  </g>
</svg>
