<?xml version="1.0" encoding="UTF-8"?>
<svg xmlns="http://www.w3.org/2000/svg" width="120" height="216" viewBox="0 0 5 9" shape-rendering="crispEdges">
  <title>U+05E4 (פ)</title>
  
  <g>
    <rect x="0" y="0" width="1" height="1" fill="rgb(98,195,85)" fill-opacity="0.500"/>
    <rect x="1" y="0" width="1" height="1" fill="rgb(78,251,113)" fill-opacity="0.500"/>
    <rect x="2" y="0" width="1" height="1" fill="rgb(87,251,184)" fill-opacity="0.500"/>
    <rect x="3" y="0" width="1" height="1" fill="rgb(25,147,111)" fill-opacity="0.500"/>
    <rect x="0" y="1" width="1" height="1" fill="rgb(122,171,164)" fill-opacity="0.500"/>
    <rect x="4" y="1" width="1" height="1" fill="rgb(7,191,73)" fill-opacity="0.500"/>
    <rect x="0" y="2" width="1" height="1" fill="rgb(25,252,153)" fill-opacity="0.500"/>
    <rect x="4" y="2" width="1" height="1" fill="rgb(75,168,145)" fill-opacity="0.500"/>
    <rect x="0" y="3" width="1" height="1" fill="rgb(48,132,146)" fill-opacity="0.500"/>
    <rect x="1" y="3" width="1" height="1" fill="rgb(65,234,39)" fill-opacity="0.500"/>
    <rect x="2" y="3" width="1" height="1" fill="rgb(123,187,13)" fill-opacity="0.500"/>
    <rect x="3" y="3" width="1" height="1" fill="rgb(97,216,16)" fill-opacity="0.500"/>
    <rect x="0" y="4" width="1" height="1" fill="rgb(64,234,63)" fill-opacity="0.500"/>
    <rect x="0" y="5" width="1" height="1" fill="rgb(26,236,71)" fill-opacity="0.500"/>
    <rect x="0" y="6" width="1" height="1" fill="rgb(40,158,71)" fill-opacity="0.500"/>
  </g>
</svg>
