<?xml version="1.0" encoding="UTF-8"?>
<svg xmlns="http://www.w3.org/2000/svg" width="120" height="216" viewBox="0 0 5 9" shape-rendering="crispEdges">
  <title>U+05E7 (ק)</title>
  
  <g>
    <rect x="1" y="0" width="1" height="1" fill="rgb(68,166,47)" fill-opacity="0.500"/>
    <rect x="2" y="0" width="1" height="1" fill="rgb(104,209,134)" fill-opacity="0.500"/>
    <rect x="3" y="0" width="1" height="1" fill="rgb(120,210,10)" fill-opacity="0.500"/>
    <rect x="0" y="1" width="1" height="1" fill="rgb(63,199,13)" fill-opacity="0.500"/>
    <rect x="4" y="1" width="1" height="1" fill="rgb(77,235,3)" fill-opacity="0.500"/>
    <rect x="0" y="2" width="1" height="1" fill="rgb(115,238,164)" fill-opacity="0.500"/>
    <rect x="4" y="2" width="1" height="1" fill="rgb(113,128,47)" fill-opacity="0.500"/>
    <rect x="0" y="3" width="1" height="1" fill="rgb(8,177,2)" fill-opacity="0.500"/>
    <rect x="4" y="3" width="1" height="1" fill="rgb(94,165,43)" fill-opacity="0.500"/>
    <rect x="0" y="4" width="1" height="1" fill="rgb(13,206,30)" fill-opacity="0.500"/>
    <rect x="4" y="4" width="1" height="1" fill="rgb(79,178,184)" fill-opacity="0.500"/>
    <rect x="1" y="5" width="1" height="1" fill="rgb(43,198,166)" fill-opacity="0.500"/>
    <rect x="2" y="5" width="1" height="1" fill="rgb(88,249,13)" fill-opacity="0.500"/>
    <rect x="3" y="5" width="1" height="1" fill="rgb(106,243,113)" fill-opacity="0.500"/>
    <rect x="3" y="6" width="1" height="1" fill="rgb(6,167,75)" fill-opacity="0.500"/>
    <rect x="3" y="7" width="1" height="1" fill="rgb(83,248,58)" fill-opacity="0.500"/>
  </g>
</svg>
