<?xml version="1.0" encoding="UTF-8"?>
<svg xmlns="http://www.w3.org/2000/svg" width="168" height="216" viewBox="0 0 7 9" shape-rendering="crispEdges">
  <title>U+2709 (✉)</title>
  
  <g fill="black">
    <rect x="0" y="2" width="1" height="1"/>
    <rect x="1" y="2" width="1" height="1"/>
    <rect x="2" y="2" width="1" height="1"/>
    <rect x="3" y="2" width="1" height="1"/>
    <rect x="4" y="2" width="1" height="1"/>
    <rect x="5" y="2" width="1" height="1"/>
    <rect x="6" y="2" width="1" height="1"/>
    <rect x="0" y="3" width="1" height="1"/>
    <rect x="1" y="3" width="1" height="1"/>
    <rect x="5" y="3" width="1" height="1"/>
    <rect x="6" y="3" width="1" height="1"/>
    <rect x="0" y="4" width="1" height="1"/>
    <rect x="2" y="4" width="1" height="1"/>
    <rect x="4" y="4" width="1" height="1"/>
    <rect x="6" y="4" width="1" height="1"/>
    <rect x="0" y="5" width="1" height="1"/>
    <rect x="3" y="5" width="1" height="1"/>
    <rect x="6" y="5" width="1" height="1"/>
    <rect x="0" y="6" width="1" height="1"/>
    <rect x="1" y="6" width="1" height="1"/>
    <rect x="2" y="6" width="1" height="1"/>
    <rect x="3" y="6" width="1" height="1"/>
    <rect x="4" y="6" width="1" height="1"/>
    <rect x="5" y="6" width="1" height="1"/>
    <rect x="6" y="6" width="1" height="1"/>
  </g>
</svg>
