<?xml version="1.0" encoding="UTF-8"?>
<svg xmlns="http://www.w3.org/2000/svg" width="120" height="216" viewBox="0 0 5 9" shape-rendering="crispEdges">
  <title>U+05EA (ת)</title>
  
  <g>
    <rect x="0" y="0" width="1" height="1" fill="rgb(83,152,52)" fill-opacity="0.500"/>
    <rect x="1" y="0" width="1" height="1" fill="rgb(21,213,61)" fill-opacity="0.500"/>
    <rect x="2" y="0" width="1" height="1" fill="rgb(109,229,111)" fill-opacity="0.500"/>
    <rect x="3" y="0" width="1" height="1" fill="rgb(30,235,172)" fill-opacity="0.500"/>
    <rect x="4" y="0" width="1" height="1" fill="rgb(51,189,31)" fill-opacity="0.500"/>
    <rect x="2" y="1" width="1" height="1" fill="rgb(50,185,58)" fill-opacity="0.500"/>
    <rect x="2" y="2" width="1" height="1" fill="rgb(14,156,75)" fill-opacity="0.500"/>
    <rect x="0" y="3" width="1" height="1" fill="rgb(120,136,78)" fill-opacity="0.500"/>
    <rect x="1" y="3" width="1" height="1" fill="rgb(21,144,41)" fill-opacity="0.500"/>
    <rect x="2" y="3" width="1" height="1" fill="rgb(14,158,49)" fill-opacity="0.500"/>
    <rect x="3" y="3" width="1" height="1" fill="rgb(36,238,132)" fill-opacity="0.500"/>
    <rect x="4" y="3" width="1" height="1" fill="rgb(105,150,129)" fill-opacity="0.500"/>
    <rect x="2" y="4" width="1" height="1" fill="rgb(109,249,17)" fill-opacity="0.500"/>
    <rect x="2" y="5" width="1" height="1" fill="rgb(32,249,85)" fill-opacity="0.500"/>
    <rect x="2" y="6" width="1" height="1" fill="rgb(53,154,57)" fill-opacity="0.500"/>
  </g>
</svg>
