<?xml version="1.0" encoding="UTF-8"?>
<svg xmlns="http://www.w3.org/2000/svg" width="72" height="216" viewBox="0 0 3 9" shape-rendering="crispEdges">
  <title>U+0411 (Б)</title>
  
  <g>
    <rect x="0" y="0" width="1" height="1" fill="rgb(124,207,72)" fill-opacity="0.500"/>
    <rect x="1" y="0" width="1" height="1" fill="rgb(100,188,101)" fill-opacity="0.500"/>
    <rect x="2" y="0" width="1" height="1" fill="rgb(67,129,13)" fill-opacity="0.500"/>
    <rect x="0" y="1" width="1" height="1" fill="rgb(85,203,51)" fill-opacity="0.500"/>
    <rect x="0" y="2" width="1" height="1" fill="rgb(11,200,80)" fill-opacity="0.500"/>
    <rect x="0" y="3" width="1" height="1" fill="rgb(120,136,135)" fill-opacity="0.500"/>
    <rect x="1" y="3" width="1" height="1" fill="rgb(105,236,43)" fill-opacity="0.500"/>
    <rect x="2" y="3" width="1" height="1" fill="rgb(42,190,2)" fill-opacity="0.500"/>
    <rect x="0" y="4" width="1" height="1" fill="rgb(87,185,177)" fill-opacity="0.500"/>
    <rect x="2" y="4" width="1" height="1" fill="rgb(97,174,189)" fill-opacity="0.500"/>
    <rect x="0" y="5" width="1" height="1" fill="rgb(73,248,186)" fill-opacity="0.500"/>
    <rect x="2" y="5" width="1" height="1" fill="rgb(79,224,183)" fill-opacity="0.500"/>
    <rect x="0" y="6" width="1" height="1" fill="rgb(23,235,137)" fill-opacity="0.500"/>
    <rect x="1" y="6" width="1" height="1" fill="rgb(26,143,181)" fill-opacity="0.500"/>
    <rect x="2" y="6" width="1" height="1" fill="rgb(76,152,123)" fill-opacity="0.500"/>
  </g>
</svg>
