<?xml version="1.0" encoding="UTF-8"?>
<svg xmlns="http://www.w3.org/2000/svg" width="120" height="216" viewBox="0 0 5 9" shape-rendering="crispEdges">
  <title>U+05E1 (ס)</title>
  
  <g>
    <rect x="1" y="0" width="1" height="1" fill="rgb(87,219,47)" fill-opacity="0.500"/>
    <rect x="2" y="0" width="1" height="1" fill="rgb(11,145,156)" fill-opacity="0.500"/>
    <rect x="3" y="0" width="1" height="1" fill="rgb(73,249,18)" fill-opacity="0.500"/>
    <rect x="0" y="1" width="1" height="1" fill="rgb(29,208,174)" fill-opacity="0.500"/>
    <rect x="4" y="1" width="1" height="1" fill="rgb(47,231,49)" fill-opacity="0.500"/>
    <rect x="0" y="2" width="1" height="1" fill="rgb(116,221,62)" fill-opacity="0.500"/>
    <rect x="4" y="2" width="1" height="1" fill="rgb(87,211,167)" fill-opacity="0.500"/>
    <rect x="0" y="3" width="1" height="1" fill="rgb(1,243,13)" fill-opacity="0.500"/>
    <rect x="4" y="3" width="1" height="1" fill="rgb(119,163,3)" fill-opacity="0.500"/>
    <rect x="0" y="4" width="1" height="1" fill="rgb(66,169,172)" fill-opacity="0.500"/>
    <rect x="4" y="4" width="1" height="1" fill="rgb(81,239,134)" fill-opacity="0.500"/>
    <rect x="0" y="5" width="1" height="1" fill="rgb(18,147,131)" fill-opacity="0.500"/>
    <rect x="4" y="5" width="1" height="1" fill="rgb(91,201,148)" fill-opacity="0.500"/>
    <rect x="1" y="6" width="1" height="1" fill="rgb(23,234,99)" fill-opacity="0.500"/>
    <rect x="2" y="6" width="1" height="1" fill="rgb(116,140,123)" fill-opacity="0.500"/>
    <rect x="3" y="6" width="1" height="1" fill="rgb(78,171,174)" fill-opacity="0.500"/>
  </g>
</svg>
