<?xml version="1.0" encoding="UTF-8"?>
<svg xmlns="http://www.w3.org/2000/svg" width="120" height="216" viewBox="0 0 5 9" shape-rendering="crispEdges">
  <title>U+0645 (م)</title>
  
  <g>
    <rect x="1" y="1" width="1" height="1" fill="rgb(3,187,130)" fill-opacity="0.500"/>
    <rect x="2" y="1" width="1" height="1" fill="rgb(20,254,93)" fill-opacity="0.500"/>
    <rect x="3" y="1" width="1" height="1" fill="rgb(29,172,178)" fill-opacity="0.500"/>
    <rect x="0" y="2" width="1" height="1" fill="rgb(7,129,93)" fill-opacity="0.500"/>
    <rect x="4" y="2" width="1" height="1" fill="rgb(47,250,26)" fill-opacity="0.500"/>
    <rect x="0" y="3" width="1" height="1" fill="rgb(26,205,127)" fill-opacity="0.500"/>
    <rect x="2" y="3" width="1" height="1" fill="rgb(92,209,144)" fill-opacity="0.500"/>
    <rect x="4" y="3" width="1" height="1" fill="rgb(35,182,70)" fill-opacity="0.500"/>
    <rect x="0" y="4" width="1" height="1" fill="rgb(39,190,96)" fill-opacity="0.500"/>
    <rect x="4" y="4" width="1" height="1" fill="rgb(9,253,55)" fill-opacity="0.500"/>
    <rect x="0" y="5" width="1" height="1" fill="rgb(107,140,7)" fill-opacity="0.500"/>
    <rect x="4" y="5" width="1" height="1" fill="rgb(11,196,18)" fill-opacity="0.500"/>
    <rect x="1" y="6" width="1" height="1" fill="rgb(22,162,160)" fill-opacity="0.500"/>
    <rect x="2" y="6" width="1" height="1" fill="rgb(124,254,156)" fill-opacity="0.500"/>
    <rect x="3" y="6" width="1" height="1" fill="rgb(33,148,180)" fill-opacity="0.500"/>
    <rect x="2" y="7" width="1" height="1" fill="rgb(23,224,88)" fill-opacity="0.500"/>
  </g>
</svg>
