<?xml version="1.0" encoding="UTF-8"?>
<svg xmlns="http://www.w3.org/2000/svg" width="72" height="216" viewBox="0 0 3 9" shape-rendering="crispEdges">
  <title>U+0041 (A)</title>
  
  <g>
    <rect x="0" y="0" width="1" height="1" fill="rgb(104,158,76)" fill-opacity="0.500"/>
    <rect x="1" y="0" width="1" height="1" fill="rgb(116,215,129)" fill-opacity="0.500"/>
    <rect x="2" y="0" width="1" height="1" fill="rgb(79,232,139)" fill-opacity="0.500"/>
    <rect x="0" y="1" width="1" height="1" fill="rgb(24,144,98)" fill-opacity="0.500"/>
    <rect x="2" y="1" width="1" height="1" fill="rgb(48,244,26)" fill-opacity="0.500"/>
    <rect x="0" y="2" width="1" height="1" fill="rgb(24,221,131)" fill-opacity="0.500"/>
    <rect x="2" y="2" width="1" height="1" fill="rgb(85,152,167)" fill-opacity="0.500"/>
    <rect x="0" y="3" width="1" height="1" fill="rgb(56,227,119)" fill-opacity="0.500"/>
    <rect x="1" y="3" width="1" height="1" fill="rgb(97,155,31)" fill-opacity="0.500"/>
    <rect x="2" y="3" width="1" height="1" fill="rgb(37,200,175)" fill-opacity="0.500"/>
    <rect x="0" y="4" width="1" height="1" fill="rgb(28,171,117)" fill-opacity="0.500"/>
    <rect x="2" y="4" width="1" height="1" fill="rgb(78,229,95)" fill-opacity="0.500"/>
    <rect x="0" y="5" width="1" height="1" fill="rgb(107,252,58)" fill-opacity="0.500"/>
    <rect x="2" y="5" width="1" height="1" fill="rgb(104,222,128)" fill-opacity="0.500"/>
    <rect x="0" y="6" width="1" height="1" fill="rgb(95,232,106)" fill-opacity="0.500"/>
    <rect x="2" y="6" width="1" height="1" fill="rgb(106,216,152)" fill-opacity="0.500"/>
  </g>
</svg>
