<?xml version="1.0" encoding="UTF-8"?>
<svg xmlns="http://www.w3.org/2000/svg" width="216" height="216" viewBox="0 0 9 9" shape-rendering="crispEdges">
  <title>U+2683 (⚃)</title>
  
  <g>
    <rect x="0" y="0" width="1" height="1" fill="rgb(94,245,152)" fill-opacity="0.500"/>
    <rect x="1" y="0" width="1" height="1" fill="rgb(61,208,144)" fill-opacity="0.500"/>
    <rect x="2" y="0" width="1" height="1" fill="rgb(96,255,85)" fill-opacity="0.500"/>
    <rect x="3" y="0" width="1" height="1" fill="rgb(71,157,104)" fill-opacity="0.500"/>
    <rect x="4" y="0" width="1" height="1" fill="rgb(101,168,39)" fill-opacity="0.500"/>
    <rect x="5" y="0" width="1" height="1" fill="rgb(123,143,17)" fill-opacity="0.500"/>
    <rect x="6" y="0" width="1" height="1" fill="rgb(60,181,29)" fill-opacity="0.500"/>
    <rect x="7" y="0" width="1" height="1" fill="rgb(122,190,92)" fill-opacity="0.500"/>
    <rect x="8" y="0" width="1" height="1" fill="rgb(102,167,187)" fill-opacity="0.500"/>
    <rect x="0" y="1" width="1" height="1" fill="rgb(54,143,181)" fill-opacity="0.500"/>
    <rect x="8" y="1" width="1" height="1" fill="rgb(8,179,96)" fill-opacity="0.500"/>
    <rect x="0" y="2" width="1" height="1" fill="rgb(40,166,108)" fill-opacity="0.500"/>
    <rect x="2" y="2" width="1" height="1" fill="rgb(60,197,150)" fill-opacity="0.500"/>
    <rect x="6" y="2" width="1" height="1" fill="rgb(4,129,18)" fill-opacity="0.500"/>
    <rect x="8" y="2" width="1" height="1" fill="rgb(10,204,26)" fill-opacity="0.500"/>
    <rect x="0" y="3" width="1" height="1" fill="rgb(42,166,65)" fill-opacity="0.500"/>
    <rect x="8" y="3" width="1" height="1" fill="rgb(65,142,116)" fill-opacity="0.500"/>
    <rect x="0" y="4" width="1" height="1" fill="rgb(74,216,44)" fill-opacity="0.500"/>
    <rect x="8" y="4" width="1" height="1" fill="rgb(85,185,146)" fill-opacity="0.500"/>
    <rect x="0" y="5" width="1" height="1" fill="rgb(110,180,115)" fill-opacity="0.500"/>
    <rect x="8" y="5" width="1" height="1" fill="rgb(9,166,52)" fill-opacity="0.500"/>
    <rect x="0" y="6" width="1" height="1" fill="rgb(32,202,183)" fill-opacity="0.500"/>
    <rect x="2" y="6" width="1" height="1" fill="rgb(16,203,75)" fill-opacity="0.500"/>
    <rect x="6" y="6" width="1" height="1" fill="rgb(73,221,173)" fill-opacity="0.500"/>
    <rect x="8" y="6" width="1" height="1" fill="rgb(11,178,179)" fill-opacity="0.500"/>
    <rect x="0" y="7" width="1" height="1" fill="rgb(53,198,3)" fill-opacity="0.500"/>
    <rect x="8" y="7" width="1" height="1" fill="rgb(52,184,190)" fill-opacity="0.500"/>
    <rect x="0" y="8" width="1" height="1" fill="rgb(75,231,123)" fill-opacity="0.500"/>
    <rect x="1" y="8" width="1" height="1" fill="rgb(9,230,188)" fill-opacity="0.500"/>
    <rect x="2" y="8" width="1" height="1" fill="rgb(52,130,54)" fill-opacity="0.500"/>
    <rect x="3" y="8" width="1" height="1" fill="rgb(78,234,118)" fill-opacity="0.500"/>
    <rect x="4" y="8" width="1" height="1" fill="rgb(22,218,161)" fill-opacity="0.500"/>
    <rect x="5" y="8" width="1" height="1" fill="rgb(52,246,139)" fill-opacity="0.500"/>
    <rect x="6" y="8" width="1" height="1" fill="rgb(99,210,64)" fill-opacity="0.500"/>
    <rect x="7" y="8" width="1" height="1" fill="rgb(18,143,151)" fill-opacity="0.500"/>
    <rect x="8" y="8" width="1" height="1" fill="rgb(81,252,17)" fill-opacity="0.500"/>
  </g>
</svg>
