<?xml version="1.0" encoding="UTF-8"?>
<svg xmlns="http://www.w3.org/2000/svg" width="120" height="216" viewBox="0 0 5 9" shape-rendering="crispEdges">
  <title>U+2665 (♥)</title>
  
  <g>
    <rect x="1" y="2" width="1" height="1" fill="rgb(59,199,63)" fill-opacity="0.500"/>
    <rect x="3" y="2" width="1" height="1" fill="rgb(45,226,89)" fill-opacity="0.500"/>
    <rect x="0" y="3" width="1" height="1" fill="rgb(19,173,117)" fill-opacity="0.500"/>
    <rect x="1" y="3" width="1" height="1" fill="rgb(94,174,174)" fill-opacity="0.500"/>
    <rect x="2" y="3" width="1" height="1" fill="rgb(120,200,72)" fill-opacity="0.500"/>
    <rect x="3" y="3" width="1" height="1" fill="rgb(14,249,3)" fill-opacity="0.500"/>
    <rect x="4" y="3" width="1" height="1" fill="rgb(32,198,27)" fill-opacity="0.500"/>
    <rect x="0" y="4" width="1" height="1" fill="rgb(25,204,154)" fill-opacity="0.500"/>
    <rect x="1" y="4" width="1" height="1" fill="rgb(19,142,90)" fill-opacity="0.500"/>
    <rect x="2" y="4" width="1" height="1" fill="rgb(78,164,167)" fill-opacity="0.500"/>
    <rect x="3" y="4" width="1" height="1" fill="rgb(106,207,167)" fill-opacity="0.500"/>
    <rect x="4" y="4" width="1" height="1" fill="rgb(119,237,185)" fill-opacity="0.500"/>
    <rect x="1" y="5" width="1" height="1" fill="rgb(30,160,94)" fill-opacity="0.500"/>
    <rect x="2" y="5" width="1" height="1" fill="rgb(37,203,137)" fill-opacity="0.500"/>
    <rect x="3" y="5" width="1" height="1" fill="rgb(52,186,161)" fill-opacity="0.500"/>
    <rect x="2" y="6" width="1" height="1" fill="rgb(105,203,157)" fill-opacity="0.500"/>
  </g>
</svg>
