<?xml version="1.0" encoding="UTF-8"?>
<svg xmlns="http://www.w3.org/2000/svg" width="72" height="216" viewBox="0 0 3 9" shape-rendering="crispEdges">
  <title>U+0067 (g)</title>
  
  <g>
    <rect x="0" y="2" width="1" height="1" fill="rgb(18,135,163)" fill-opacity="0.500"/>
    <rect x="1" y="2" width="1" height="1" fill="rgb(114,202,101)" fill-opacity="0.500"/>
    <rect x="2" y="2" width="1" height="1" fill="rgb(62,254,66)" fill-opacity="0.500"/>
    <rect x="0" y="3" width="1" height="1" fill="rgb(48,239,94)" fill-opacity="0.500"/>
    <rect x="2" y="3" width="1" height="1" fill="rgb(102,194,150)" fill-opacity="0.500"/>
    <rect x="0" y="4" width="1" height="1" fill="rgb(111,187,177)" fill-opacity="0.500"/>
    <rect x="2" y="4" width="1" height="1" fill="rgb(27,129,184)" fill-opacity="0.500"/>
    <rect x="0" y="5" width="1" height="1" fill="rgb(10,240,72)" fill-opacity="0.500"/>
    <rect x="2" y="5" width="1" height="1" fill="rgb(106,187,49)" fill-opacity="0.500"/>
    <rect x="0" y="6" width="1" height="1" fill="rgb(119,178,150)" fill-opacity="0.500"/>
    <rect x="1" y="6" width="1" height="1" fill="rgb(21,192,92)" fill-opacity="0.500"/>
    <rect x="2" y="6" width="1" height="1" fill="rgb(72,150,151)" fill-opacity="0.500"/>
    <rect x="2" y="7" width="1" height="1" fill="rgb(78,237,166)" fill-opacity="0.500"/>
    <rect x="0" y="8" width="1" height="1" fill="rgb(111,235,90)" fill-opacity="0.500"/>
    <rect x="1" y="8" width="1" height="1" fill="rgb(32,200,170)" fill-opacity="0.500"/>
    <rect x="2" y="8" width="1" height="1" fill="rgb(1,149,161)" fill-opacity="0.500"/>
  </g>
</svg>
