<?xml version="1.0" encoding="UTF-8"?>
<svg xmlns="http://www.w3.org/2000/svg" width="120" height="216" viewBox="0 0 5 9" shape-rendering="crispEdges">
  <title>U+041C (лю)</title>
  
  <g>
    <rect x="0" y="0" width="1" height="1" fill="rgb(120,170,126)" fill-opacity="0.500"/>
    <rect x="1" y="0" width="1" height="1" fill="rgb(66,216,43)" fill-opacity="0.500"/>
    <rect x="2" y="0" width="1" height="1" fill="rgb(14,180,10)" fill-opacity="0.500"/>
    <rect x="3" y="0" width="1" height="1" fill="rgb(25,150,139)" fill-opacity="0.500"/>
    <rect x="4" y="0" width="1" height="1" fill="rgb(89,164,126)" fill-opacity="0.500"/>
    <rect x="0" y="1" width="1" height="1" fill="rgb(85,168,162)" fill-opacity="0.500"/>
    <rect x="2" y="1" width="1" height="1" fill="rgb(73,162,107)" fill-opacity="0.500"/>
    <rect x="4" y="1" width="1" height="1" fill="rgb(125,194,150)" fill-opacity="0.500"/>
    <rect x="0" y="2" width="1" height="1" fill="rgb(99,230,8)" fill-opacity="0.500"/>
    <rect x="2" y="2" width="1" height="1" fill="rgb(59,134,1)" fill-opacity="0.500"/>
    <rect x="4" y="2" width="1" height="1" fill="rgb(20,163,42)" fill-opacity="0.500"/>
    <rect x="0" y="3" width="1" height="1" fill="rgb(3,183,156)" fill-opacity="0.500"/>
    <rect x="2" y="3" width="1" height="1" fill="rgb(71,146,148)" fill-opacity="0.500"/>
    <rect x="4" y="3" width="1" height="1" fill="rgb(101,198,103)" fill-opacity="0.500"/>
    <rect x="0" y="4" width="1" height="1" fill="rgb(40,245,179)" fill-opacity="0.500"/>
    <rect x="2" y="4" width="1" height="1" fill="rgb(56,135,61)" fill-opacity="0.500"/>
    <rect x="4" y="4" width="1" height="1" fill="rgb(2,147,8)" fill-opacity="0.500"/>
    <rect x="0" y="5" width="1" height="1" fill="rgb(101,254,150)" fill-opacity="0.500"/>
    <rect x="2" y="5" width="1" height="1" fill="rgb(33,226,53)" fill-opacity="0.500"/>
    <rect x="4" y="5" width="1" height="1" fill="rgb(30,209,135)" fill-opacity="0.500"/>
    <rect x="0" y="6" width="1" height="1" fill="rgb(58,240,35)" fill-opacity="0.500"/>
    <rect x="2" y="6" width="1" height="1" fill="rgb(22,222,154)" fill-opacity="0.500"/>
    <rect x="4" y="6" width="1" height="1" fill="rgb(106,222,102)" fill-opacity="0.500"/>
  </g>
</svg>
