<?xml version="1.0" encoding="UTF-8"?>
<svg xmlns="http://www.w3.org/2000/svg" width="120" height="216" viewBox="0 0 5 9" shape-rendering="crispEdges">
  <title>U+05DD (ם)</title>
  
  <g>
    <rect x="0" y="0" width="1" height="1" fill="rgb(121,215,10)" fill-opacity="0.500"/>
    <rect x="1" y="0" width="1" height="1" fill="rgb(103,179,129)" fill-opacity="0.500"/>
    <rect x="2" y="0" width="1" height="1" fill="rgb(73,131,110)" fill-opacity="0.500"/>
    <rect x="3" y="0" width="1" height="1" fill="rgb(26,143,120)" fill-opacity="0.500"/>
    <rect x="4" y="0" width="1" height="1" fill="rgb(120,252,83)" fill-opacity="0.500"/>
    <rect x="0" y="1" width="1" height="1" fill="rgb(126,177,137)" fill-opacity="0.500"/>
    <rect x="4" y="1" width="1" height="1" fill="rgb(4,172,43)" fill-opacity="0.500"/>
    <rect x="0" y="2" width="1" height="1" fill="rgb(70,141,131)" fill-opacity="0.500"/>
    <rect x="2" y="2" width="1" height="1" fill="rgb(16,211,16)" fill-opacity="0.500"/>
    <rect x="4" y="2" width="1" height="1" fill="rgb(118,148,130)" fill-opacity="0.500"/>
    <rect x="0" y="3" width="1" height="1" fill="rgb(122,141,77)" fill-opacity="0.500"/>
    <rect x="4" y="3" width="1" height="1" fill="rgb(98,231,105)" fill-opacity="0.500"/>
    <rect x="0" y="4" width="1" height="1" fill="rgb(107,163,117)" fill-opacity="0.500"/>
    <rect x="4" y="4" width="1" height="1" fill="rgb(52,173,28)" fill-opacity="0.500"/>
    <rect x="0" y="5" width="1" height="1" fill="rgb(119,146,56)" fill-opacity="0.500"/>
    <rect x="4" y="5" width="1" height="1" fill="rgb(38,164,173)" fill-opacity="0.500"/>
    <rect x="0" y="6" width="1" height="1" fill="rgb(11,153,1)" fill-opacity="0.500"/>
    <rect x="1" y="6" width="1" height="1" fill="rgb(10,252,143)" fill-opacity="0.500"/>
    <rect x="2" y="6" width="1" height="1" fill="rgb(46,166,122)" fill-opacity="0.500"/>
    <rect x="3" y="6" width="1" height="1" fill="rgb(99,233,168)" fill-opacity="0.500"/>
    <rect x="4" y="6" width="1" height="1" fill="rgb(109,246,137)" fill-opacity="0.500"/>
  </g>
</svg>
