<?xml version="1.0" encoding="UTF-8"?>
<svg xmlns="http://www.w3.org/2000/svg" width="72" height="216" viewBox="0 0 3 9" shape-rendering="crispEdges">
  <title>U+0038 (8)</title>
  
  <g>
    <rect x="0" y="0" width="1" height="1" fill="rgb(120,208,190)" fill-opacity="0.500"/>
    <rect x="1" y="0" width="1" height="1" fill="rgb(40,246,181)" fill-opacity="0.500"/>
    <rect x="2" y="0" width="1" height="1" fill="rgb(105,163,45)" fill-opacity="0.500"/>
    <rect x="0" y="1" width="1" height="1" fill="rgb(78,159,24)" fill-opacity="0.500"/>
    <rect x="2" y="1" width="1" height="1" fill="rgb(11,222,54)" fill-opacity="0.500"/>
    <rect x="0" y="2" width="1" height="1" fill="rgb(10,142,34)" fill-opacity="0.500"/>
    <rect x="2" y="2" width="1" height="1" fill="rgb(110,158,57)" fill-opacity="0.500"/>
    <rect x="0" y="3" width="1" height="1" fill="rgb(25,242,37)" fill-opacity="0.500"/>
    <rect x="1" y="3" width="1" height="1" fill="rgb(6,207,62)" fill-opacity="0.500"/>
    <rect x="2" y="3" width="1" height="1" fill="rgb(61,231,58)" fill-opacity="0.500"/>
    <rect x="0" y="4" width="1" height="1" fill="rgb(2,171,44)" fill-opacity="0.500"/>
    <rect x="2" y="4" width="1" height="1" fill="rgb(63,219,59)" fill-opacity="0.500"/>
    <rect x="0" y="5" width="1" height="1" fill="rgb(32,165,76)" fill-opacity="0.500"/>
    <rect x="2" y="5" width="1" height="1" fill="rgb(79,187,28)" fill-opacity="0.500"/>
    <rect x="0" y="6" width="1" height="1" fill="rgb(5,199,12)" fill-opacity="0.500"/>
    <rect x="1" y="6" width="1" height="1" fill="rgb(118,154,96)" fill-opacity="0.500"/>
    <rect x="2" y="6" width="1" height="1" fill="rgb(75,156,104)" fill-opacity="0.500"/>
  </g>
</svg>
