<?xml version="1.0" encoding="UTF-8"?>
<svg xmlns="http://www.w3.org/2000/svg" width="72" height="216" viewBox="0 0 3 9" shape-rendering="crispEdges">
  <title>U+041D (Н)</title>
  
  <g>
    <rect x="0" y="0" width="1" height="1" fill="rgb(58,225,11)" fill-opacity="0.500"/>
    <rect x="2" y="0" width="1" height="1" fill="rgb(46,238,170)" fill-opacity="0.500"/>
    <rect x="0" y="1" width="1" height="1" fill="rgb(12,245,106)" fill-opacity="0.500"/>
    <rect x="2" y="1" width="1" height="1" fill="rgb(23,172,125)" fill-opacity="0.500"/>
    <rect x="0" y="2" width="1" height="1" fill="rgb(79,237,7)" fill-opacity="0.500"/>
    <rect x="2" y="2" width="1" height="1" fill="rgb(122,165,71)" fill-opacity="0.500"/>
    <rect x="0" y="3" width="1" height="1" fill="rgb(91,233,127)" fill-opacity="0.500"/>
    <rect x="1" y="3" width="1" height="1" fill="rgb(11,173,180)" fill-opacity="0.500"/>
    <rect x="2" y="3" width="1" height="1" fill="rgb(71,227,107)" fill-opacity="0.500"/>
    <rect x="0" y="4" width="1" height="1" fill="rgb(119,233,132)" fill-opacity="0.500"/>
    <rect x="2" y="4" width="1" height="1" fill="rgb(93,173,61)" fill-opacity="0.500"/>
    <rect x="0" y="5" width="1" height="1" fill="rgb(39,203,98)" fill-opacity="0.500"/>
    <rect x="2" y="5" width="1" height="1" fill="rgb(41,225,158)" fill-opacity="0.500"/>
    <rect x="0" y="6" width="1" height="1" fill="rgb(14,253,26)" fill-opacity="0.500"/>
    <rect x="2" y="6" width="1" height="1" fill="rgb(56,212,27)" fill-opacity="0.500"/>
  </g>
</svg>
