<?xml version="1.0" encoding="UTF-8"?>
<svg xmlns="http://www.w3.org/2000/svg" width="120" height="216" viewBox="0 0 5 9" shape-rendering="crispEdges">
  <title>U+00C6 (Æ)</title>
  
  <g>
    <rect x="0" y="0" width="1" height="1" fill="rgb(77,244,116)" fill-opacity="0.500"/>
    <rect x="1" y="0" width="1" height="1" fill="rgb(58,248,190)" fill-opacity="0.500"/>
    <rect x="2" y="0" width="1" height="1" fill="rgb(34,192,42)" fill-opacity="0.500"/>
    <rect x="3" y="0" width="1" height="1" fill="rgb(65,250,107)" fill-opacity="0.500"/>
    <rect x="4" y="0" width="1" height="1" fill="rgb(35,171,183)" fill-opacity="0.500"/>
    <rect x="0" y="1" width="1" height="1" fill="rgb(53,162,15)" fill-opacity="0.500"/>
    <rect x="2" y="1" width="1" height="1" fill="rgb(62,173,131)" fill-opacity="0.500"/>
    <rect x="0" y="2" width="1" height="1" fill="rgb(97,222,134)" fill-opacity="0.500"/>
    <rect x="2" y="2" width="1" height="1" fill="rgb(112,143,11)" fill-opacity="0.500"/>
    <rect x="0" y="3" width="1" height="1" fill="rgb(70,235,122)" fill-opacity="0.500"/>
    <rect x="1" y="3" width="1" height="1" fill="rgb(27,145,176)" fill-opacity="0.500"/>
    <rect x="2" y="3" width="1" height="1" fill="rgb(34,239,87)" fill-opacity="0.500"/>
    <rect x="3" y="3" width="1" height="1" fill="rgb(80,192,114)" fill-opacity="0.500"/>
    <rect x="4" y="3" width="1" height="1" fill="rgb(36,145,57)" fill-opacity="0.500"/>
    <rect x="0" y="4" width="1" height="1" fill="rgb(98,128,39)" fill-opacity="0.500"/>
    <rect x="2" y="4" width="1" height="1" fill="rgb(123,202,3)" fill-opacity="0.500"/>
    <rect x="0" y="5" width="1" height="1" fill="rgb(105,142,82)" fill-opacity="0.500"/>
    <rect x="2" y="5" width="1" height="1" fill="rgb(27,177,137)" fill-opacity="0.500"/>
    <rect x="0" y="6" width="1" height="1" fill="rgb(34,141,113)" fill-opacity="0.500"/>
    <rect x="2" y="6" width="1" height="1" fill="rgb(104,232,53)" fill-opacity="0.500"/>
    <rect x="3" y="6" width="1" height="1" fill="rgb(122,255,110)" fill-opacity="0.500"/>
    <rect x="4" y="6" width="1" height="1" fill="rgb(122,184,139)" fill-opacity="0.500"/>
  </g>
</svg>
