<?xml version="1.0" encoding="UTF-8"?>
<svg xmlns="http://www.w3.org/2000/svg" width="72" height="216" viewBox="0 0 3 9" shape-rendering="crispEdges">
  <title>.notdef</title>
  
  <g>
    <rect x="0" y="0" width="1" height="1" fill="rgb(23,140,130)" fill-opacity="0.500"/>
    <rect x="1" y="0" width="1" height="1" fill="rgb(63,192,154)" fill-opacity="0.500"/>
    <rect x="2" y="0" width="1" height="1" fill="rgb(31,165,53)" fill-opacity="0.500"/>
    <rect x="0" y="1" width="1" height="1" fill="rgb(30,220,69)" fill-opacity="0.500"/>
    <rect x="2" y="1" width="1" height="1" fill="rgb(112,182,114)" fill-opacity="0.500"/>
    <rect x="0" y="2" width="1" height="1" fill="rgb(67,253,188)" fill-opacity="0.500"/>
    <rect x="2" y="2" width="1" height="1" fill="rgb(94,146,171)" fill-opacity="0.500"/>
    <rect x="0" y="3" width="1" height="1" fill="rgb(61,141,85)" fill-opacity="0.500"/>
    <rect x="2" y="3" width="1" height="1" fill="rgb(40,155,0)" fill-opacity="0.500"/>
    <rect x="0" y="4" width="1" height="1" fill="rgb(111,206,57)" fill-opacity="0.500"/>
    <rect x="2" y="4" width="1" height="1" fill="rgb(80,151,136)" fill-opacity="0.500"/>
    <rect x="0" y="5" width="1" height="1" fill="rgb(36,156,27)" fill-opacity="0.500"/>
    <rect x="2" y="5" width="1" height="1" fill="rgb(38,176,59)" fill-opacity="0.500"/>
    <rect x="0" y="6" width="1" height="1" fill="rgb(75,130,174)" fill-opacity="0.500"/>
    <rect x="2" y="6" width="1" height="1" fill="rgb(52,252,86)" fill-opacity="0.500"/>
    <rect x="0" y="7" width="1" height="1" fill="rgb(93,235,25)" fill-opacity="0.500"/>
    <rect x="2" y="7" width="1" height="1" fill="rgb(95,176,109)" fill-opacity="0.500"/>
    <rect x="0" y="8" width="1" height="1" fill="rgb(87,205,177)" fill-opacity="0.500"/>
    <rect x="1" y="8" width="1" height="1" fill="rgb(1,230,123)" fill-opacity="0.500"/>
    <rect x="2" y="8" width="1" height="1" fill="rgb(65,237,22)" fill-opacity="0.500"/>
  </g>
</svg>
