<?xml version="1.0" encoding="UTF-8"?>
<svg xmlns="http://www.w3.org/2000/svg" width="120" height="216" viewBox="0 0 5 9" shape-rendering="crispEdges">
  <title>U+05D0 (א)</title>
  
  <g>
    <rect x="0" y="0" width="1" height="1" fill="rgb(19,151,123)" fill-opacity="0.500"/>
    <rect x="4" y="0" width="1" height="1" fill="rgb(95,184,164)" fill-opacity="0.500"/>
    <rect x="0" y="1" width="1" height="1" fill="rgb(77,208,189)" fill-opacity="0.500"/>
    <rect x="1" y="1" width="1" height="1" fill="rgb(81,188,144)" fill-opacity="0.500"/>
    <rect x="4" y="1" width="1" height="1" fill="rgb(79,152,127)" fill-opacity="0.500"/>
    <rect x="0" y="2" width="1" height="1" fill="rgb(113,204,79)" fill-opacity="0.500"/>
    <rect x="2" y="2" width="1" height="1" fill="rgb(107,161,129)" fill-opacity="0.500"/>
    <rect x="4" y="2" width="1" height="1" fill="rgb(91,244,60)" fill-opacity="0.500"/>
    <rect x="0" y="3" width="1" height="1" fill="rgb(116,144,114)" fill-opacity="0.500"/>
    <rect x="3" y="3" width="1" height="1" fill="rgb(18,136,14)" fill-opacity="0.500"/>
    <rect x="4" y="3" width="1" height="1" fill="rgb(33,219,127)" fill-opacity="0.500"/>
    <rect x="0" y="4" width="1" height="1" fill="rgb(36,203,58)" fill-opacity="0.500"/>
    <rect x="4" y="4" width="1" height="1" fill="rgb(48,235,109)" fill-opacity="0.500"/>
    <rect x="4" y="5" width="1" height="1" fill="rgb(20,237,6)" fill-opacity="0.500"/>
    <rect x="4" y="6" width="1" height="1" fill="rgb(40,177,41)" fill-opacity="0.500"/>
  </g>
</svg>
