<?xml version="1.0" encoding="UTF-8"?>
<svg xmlns="http://www.w3.org/2000/svg" width="120" height="216" viewBox="0 0 5 9" shape-rendering="crispEdges">
  <title>U+0077 (w)</title>
  
  <g>
    <rect x="0" y="2" width="1" height="1" fill="rgb(45,139,158)" fill-opacity="0.500"/>
    <rect x="2" y="2" width="1" height="1" fill="rgb(79,169,73)" fill-opacity="0.500"/>
    <rect x="4" y="2" width="1" height="1" fill="rgb(127,245,180)" fill-opacity="0.500"/>
    <rect x="0" y="3" width="1" height="1" fill="rgb(56,179,4)" fill-opacity="0.500"/>
    <rect x="2" y="3" width="1" height="1" fill="rgb(110,211,65)" fill-opacity="0.500"/>
    <rect x="4" y="3" width="1" height="1" fill="rgb(24,154,17)" fill-opacity="0.500"/>
    <rect x="0" y="4" width="1" height="1" fill="rgb(94,155,29)" fill-opacity="0.500"/>
    <rect x="2" y="4" width="1" height="1" fill="rgb(66,252,1)" fill-opacity="0.500"/>
    <rect x="4" y="4" width="1" height="1" fill="rgb(65,223,78)" fill-opacity="0.500"/>
    <rect x="0" y="5" width="1" height="1" fill="rgb(26,136,138)" fill-opacity="0.500"/>
    <rect x="2" y="5" width="1" height="1" fill="rgb(40,230,39)" fill-opacity="0.500"/>
    <rect x="4" y="5" width="1" height="1" fill="rgb(66,214,136)" fill-opacity="0.500"/>
    <rect x="0" y="6" width="1" height="1" fill="rgb(24,180,30)" fill-opacity="0.500"/>
    <rect x="1" y="6" width="1" height="1" fill="rgb(4,170,14)" fill-opacity="0.500"/>
    <rect x="2" y="6" width="1" height="1" fill="rgb(14,132,155)" fill-opacity="0.500"/>
    <rect x="3" y="6" width="1" height="1" fill="rgb(63,202,95)" fill-opacity="0.500"/>
    <rect x="4" y="6" width="1" height="1" fill="rgb(81,235,112)" fill-opacity="0.500"/>
  </g>
</svg>
