<?xml version="1.0" encoding="UTF-8"?>
<svg xmlns="http://www.w3.org/2000/svg" width="120" height="216" viewBox="0 0 5 9" shape-rendering="crispEdges">
  <title>U+0428 (ле)</title>
  
  <g>
    <rect x="0" y="0" width="1" height="1" fill="rgb(7,187,11)" fill-opacity="0.500"/>
    <rect x="2" y="0" width="1" height="1" fill="rgb(31,225,82)" fill-opacity="0.500"/>
    <rect x="4" y="0" width="1" height="1" fill="rgb(109,231,5)" fill-opacity="0.500"/>
    <rect x="0" y="1" width="1" height="1" fill="rgb(15,223,92)" fill-opacity="0.500"/>
    <rect x="2" y="1" width="1" height="1" fill="rgb(95,214,119)" fill-opacity="0.500"/>
    <rect x="4" y="1" width="1" height="1" fill="rgb(14,221,81)" fill-opacity="0.500"/>
    <rect x="0" y="2" width="1" height="1" fill="rgb(87,144,89)" fill-opacity="0.500"/>
    <rect x="2" y="2" width="1" height="1" fill="rgb(49,254,130)" fill-opacity="0.500"/>
    <rect x="4" y="2" width="1" height="1" fill="rgb(37,175,71)" fill-opacity="0.500"/>
    <rect x="0" y="3" width="1" height="1" fill="rgb(124,193,171)" fill-opacity="0.500"/>
    <rect x="2" y="3" width="1" height="1" fill="rgb(112,253,21)" fill-opacity="0.500"/>
    <rect x="4" y="3" width="1" height="1" fill="rgb(49,192,60)" fill-opacity="0.500"/>
    <rect x="0" y="4" width="1" height="1" fill="rgb(4,158,7)" fill-opacity="0.500"/>
    <rect x="2" y="4" width="1" height="1" fill="rgb(15,202,8)" fill-opacity="0.500"/>
    <rect x="4" y="4" width="1" height="1" fill="rgb(50,235,77)" fill-opacity="0.500"/>
    <rect x="0" y="5" width="1" height="1" fill="rgb(61,154,103)" fill-opacity="0.500"/>
    <rect x="2" y="5" width="1" height="1" fill="rgb(10,176,77)" fill-opacity="0.500"/>
    <rect x="4" y="5" width="1" height="1" fill="rgb(6,214,45)" fill-opacity="0.500"/>
    <rect x="0" y="6" width="1" height="1" fill="rgb(103,148,43)" fill-opacity="0.500"/>
    <rect x="1" y="6" width="1" height="1" fill="rgb(16,146,90)" fill-opacity="0.500"/>
    <rect x="2" y="6" width="1" height="1" fill="rgb(66,143,36)" fill-opacity="0.500"/>
    <rect x="3" y="6" width="1" height="1" fill="rgb(35,171,85)" fill-opacity="0.500"/>
    <rect x="4" y="6" width="1" height="1" fill="rgb(115,209,31)" fill-opacity="0.500"/>
  </g>
</svg>
