<?xml version="1.0" encoding="UTF-8"?>
<svg xmlns="http://www.w3.org/2000/svg" width="72" height="216" viewBox="0 0 3 9" shape-rendering="crispEdges">
  <title>U+0030 (0)</title>
  
  <g>
    <rect x="0" y="0" width="1" height="1" fill="rgb(105,135,168)" fill-opacity="0.500"/>
    <rect x="1" y="0" width="1" height="1" fill="rgb(23,163,151)" fill-opacity="0.500"/>
    <rect x="2" y="0" width="1" height="1" fill="rgb(101,172,116)" fill-opacity="0.500"/>
    <rect x="0" y="1" width="1" height="1" fill="rgb(126,166,77)" fill-opacity="0.500"/>
    <rect x="2" y="1" width="1" height="1" fill="rgb(69,209,170)" fill-opacity="0.500"/>
    <rect x="0" y="2" width="1" height="1" fill="rgb(86,142,155)" fill-opacity="0.500"/>
    <rect x="2" y="2" width="1" height="1" fill="rgb(116,186,156)" fill-opacity="0.500"/>
    <rect x="0" y="3" width="1" height="1" fill="rgb(30,241,34)" fill-opacity="0.500"/>
    <rect x="2" y="3" width="1" height="1" fill="rgb(60,194,156)" fill-opacity="0.500"/>
    <rect x="0" y="4" width="1" height="1" fill="rgb(82,189,76)" fill-opacity="0.500"/>
    <rect x="2" y="4" width="1" height="1" fill="rgb(24,205,67)" fill-opacity="0.500"/>
    <rect x="0" y="5" width="1" height="1" fill="rgb(102,156,82)" fill-opacity="0.500"/>
    <rect x="2" y="5" width="1" height="1" fill="rgb(115,232,146)" fill-opacity="0.500"/>
    <rect x="0" y="6" width="1" height="1" fill="rgb(107,167,141)" fill-opacity="0.500"/>
    <rect x="1" y="6" width="1" height="1" fill="rgb(71,219,3)" fill-opacity="0.500"/>
    <rect x="2" y="6" width="1" height="1" fill="rgb(56,132,97)" fill-opacity="0.500"/>
  </g>
</svg>
