<?xml version="1.0" encoding="UTF-8"?>
<svg xmlns="http://www.w3.org/2000/svg" width="72" height="216" viewBox="0 0 3 9" shape-rendering="crispEdges">
  <title>U+0067 (g)</title>
  
  <g>
    <rect x="0" y="2" width="1" height="1" fill="rgb(59,149,26)" fill-opacity="0.500"/>
    <rect x="1" y="2" width="1" height="1" fill="rgb(112,204,30)" fill-opacity="0.500"/>
    <rect x="2" y="2" width="1" height="1" fill="rgb(0,156,33)" fill-opacity="0.500"/>
    <rect x="0" y="3" width="1" height="1" fill="rgb(62,179,147)" fill-opacity="0.500"/>
    <rect x="2" y="3" width="1" height="1" fill="rgb(84,135,87)" fill-opacity="0.500"/>
    <rect x="0" y="4" width="1" height="1" fill="rgb(84,144,180)" fill-opacity="0.500"/>
    <rect x="2" y="4" width="1" height="1" fill="rgb(37,245,171)" fill-opacity="0.500"/>
    <rect x="0" y="5" width="1" height="1" fill="rgb(79,148,66)" fill-opacity="0.500"/>
    <rect x="2" y="5" width="1" height="1" fill="rgb(55,190,168)" fill-opacity="0.500"/>
    <rect x="0" y="6" width="1" height="1" fill="rgb(4,148,170)" fill-opacity="0.500"/>
    <rect x="1" y="6" width="1" height="1" fill="rgb(112,167,166)" fill-opacity="0.500"/>
    <rect x="2" y="6" width="1" height="1" fill="rgb(76,234,173)" fill-opacity="0.500"/>
    <rect x="2" y="7" width="1" height="1" fill="rgb(6,243,72)" fill-opacity="0.500"/>
    <rect x="0" y="8" width="1" height="1" fill="rgb(114,157,35)" fill-opacity="0.500"/>
    <rect x="1" y="8" width="1" height="1" fill="rgb(115,229,42)" fill-opacity="0.500"/>
    <rect x="2" y="8" width="1" height="1" fill="rgb(80,223,148)" fill-opacity="0.500"/>
  </g>
</svg>
