<?xml version="1.0" encoding="UTF-8"?>
<svg xmlns="http://www.w3.org/2000/svg" width="120" height="216" viewBox="0 0 5 9" shape-rendering="crispEdges">
  <title>U+05E4 (פ)</title>
  
  <g>
    <rect x="0" y="0" width="1" height="1" fill="rgb(75,159,121)" fill-opacity="0.500"/>
    <rect x="1" y="0" width="1" height="1" fill="rgb(113,249,85)" fill-opacity="0.500"/>
    <rect x="2" y="0" width="1" height="1" fill="rgb(93,200,4)" fill-opacity="0.500"/>
    <rect x="3" y="0" width="1" height="1" fill="rgb(17,245,139)" fill-opacity="0.500"/>
    <rect x="0" y="1" width="1" height="1" fill="rgb(8,167,94)" fill-opacity="0.500"/>
    <rect x="4" y="1" width="1" height="1" fill="rgb(82,142,175)" fill-opacity="0.500"/>
    <rect x="0" y="2" width="1" height="1" fill="rgb(23,188,66)" fill-opacity="0.500"/>
    <rect x="4" y="2" width="1" height="1" fill="rgb(7,251,65)" fill-opacity="0.500"/>
    <rect x="0" y="3" width="1" height="1" fill="rgb(46,224,178)" fill-opacity="0.500"/>
    <rect x="1" y="3" width="1" height="1" fill="rgb(113,132,191)" fill-opacity="0.500"/>
    <rect x="2" y="3" width="1" height="1" fill="rgb(12,250,183)" fill-opacity="0.500"/>
    <rect x="3" y="3" width="1" height="1" fill="rgb(14,188,176)" fill-opacity="0.500"/>
    <rect x="0" y="4" width="1" height="1" fill="rgb(116,148,48)" fill-opacity="0.500"/>
    <rect x="0" y="5" width="1" height="1" fill="rgb(118,160,61)" fill-opacity="0.500"/>
    <rect x="0" y="6" width="1" height="1" fill="rgb(26,251,191)" fill-opacity="0.500"/>
  </g>
</svg>
