<?xml version="1.0" encoding="UTF-8"?>
<svg xmlns="http://www.w3.org/2000/svg" width="120" height="216" viewBox="0 0 5 9" shape-rendering="crispEdges">
  <title>U+2626 (☦)</title>
  
  <g>
    <rect x="2" y="0" width="1" height="1" fill="rgb(95,153,144)" fill-opacity="0.500"/>
    <rect x="1" y="1" width="1" height="1" fill="rgb(15,254,159)" fill-opacity="0.500"/>
    <rect x="2" y="1" width="1" height="1" fill="rgb(0,136,30)" fill-opacity="0.500"/>
    <rect x="3" y="1" width="1" height="1" fill="rgb(6,185,99)" fill-opacity="0.500"/>
    <rect x="2" y="2" width="1" height="1" fill="rgb(87,243,55)" fill-opacity="0.500"/>
    <rect x="0" y="3" width="1" height="1" fill="rgb(5,140,175)" fill-opacity="0.500"/>
    <rect x="1" y="3" width="1" height="1" fill="rgb(2,249,116)" fill-opacity="0.500"/>
    <rect x="2" y="3" width="1" height="1" fill="rgb(111,213,51)" fill-opacity="0.500"/>
    <rect x="3" y="3" width="1" height="1" fill="rgb(54,172,73)" fill-opacity="0.500"/>
    <rect x="4" y="3" width="1" height="1" fill="rgb(74,169,133)" fill-opacity="0.500"/>
    <rect x="2" y="4" width="1" height="1" fill="rgb(32,224,74)" fill-opacity="0.500"/>
    <rect x="1" y="5" width="1" height="1" fill="rgb(51,155,7)" fill-opacity="0.500"/>
    <rect x="2" y="5" width="1" height="1" fill="rgb(44,158,37)" fill-opacity="0.500"/>
    <rect x="2" y="6" width="1" height="1" fill="rgb(105,203,111)" fill-opacity="0.500"/>
    <rect x="3" y="6" width="1" height="1" fill="rgb(14,132,190)" fill-opacity="0.500"/>
    <rect x="2" y="7" width="1" height="1" fill="rgb(105,137,179)" fill-opacity="0.500"/>
    <rect x="2" y="8" width="1" height="1" fill="rgb(61,147,174)" fill-opacity="0.500"/>
  </g>
</svg>
