<?xml version="1.0" encoding="UTF-8"?>
<svg xmlns="http://www.w3.org/2000/svg" width="120" height="216" viewBox="0 0 5 9" shape-rendering="crispEdges">
  <title>U+05E5 (ץ)</title>
  
  <g>
    <rect x="2" y="0" width="1" height="1" fill="rgb(84,213,54)" fill-opacity="0.500"/>
    <rect x="2" y="1" width="1" height="1" fill="rgb(29,250,2)" fill-opacity="0.500"/>
    <rect x="3" y="1" width="1" height="1" fill="rgb(30,160,135)" fill-opacity="0.500"/>
    <rect x="1" y="2" width="1" height="1" fill="rgb(68,184,109)" fill-opacity="0.500"/>
    <rect x="3" y="2" width="1" height="1" fill="rgb(49,232,0)" fill-opacity="0.500"/>
    <rect x="0" y="3" width="1" height="1" fill="rgb(105,245,76)" fill-opacity="0.500"/>
    <rect x="3" y="3" width="1" height="1" fill="rgb(92,210,103)" fill-opacity="0.500"/>
    <rect x="0" y="4" width="1" height="1" fill="rgb(114,150,94)" fill-opacity="0.500"/>
    <rect x="3" y="4" width="1" height="1" fill="rgb(100,188,173)" fill-opacity="0.500"/>
    <rect x="0" y="5" width="1" height="1" fill="rgb(69,137,125)" fill-opacity="0.500"/>
    <rect x="3" y="5" width="1" height="1" fill="rgb(73,166,28)" fill-opacity="0.500"/>
    <rect x="0" y="6" width="1" height="1" fill="rgb(83,203,43)" fill-opacity="0.500"/>
    <rect x="1" y="6" width="1" height="1" fill="rgb(57,192,173)" fill-opacity="0.500"/>
    <rect x="2" y="6" width="1" height="1" fill="rgb(41,210,85)" fill-opacity="0.500"/>
    <rect x="3" y="6" width="1" height="1" fill="rgb(1,191,182)" fill-opacity="0.500"/>
    <rect x="2" y="7" width="1" height="1" fill="rgb(73,183,1)" fill-opacity="0.500"/>
    <rect x="2" y="8" width="1" height="1" fill="rgb(29,173,135)" fill-opacity="0.500"/>
  </g>
</svg>
