<?xml version="1.0" encoding="UTF-8"?>
<svg xmlns="http://www.w3.org/2000/svg" width="120" height="216" viewBox="0 0 5 9" shape-rendering="crispEdges">
  <title>U+05DD (ם)</title>
  
  <g>
    <rect x="0" y="0" width="1" height="1" fill="rgb(67,244,60)" fill-opacity="0.500"/>
    <rect x="1" y="0" width="1" height="1" fill="rgb(99,174,167)" fill-opacity="0.500"/>
    <rect x="2" y="0" width="1" height="1" fill="rgb(107,240,163)" fill-opacity="0.500"/>
    <rect x="3" y="0" width="1" height="1" fill="rgb(7,180,183)" fill-opacity="0.500"/>
    <rect x="4" y="0" width="1" height="1" fill="rgb(79,214,131)" fill-opacity="0.500"/>
    <rect x="0" y="1" width="1" height="1" fill="rgb(44,233,83)" fill-opacity="0.500"/>
    <rect x="4" y="1" width="1" height="1" fill="rgb(54,178,185)" fill-opacity="0.500"/>
    <rect x="0" y="2" width="1" height="1" fill="rgb(65,236,124)" fill-opacity="0.500"/>
    <rect x="2" y="2" width="1" height="1" fill="rgb(29,219,35)" fill-opacity="0.500"/>
    <rect x="4" y="2" width="1" height="1" fill="rgb(45,188,23)" fill-opacity="0.500"/>
    <rect x="0" y="3" width="1" height="1" fill="rgb(60,176,182)" fill-opacity="0.500"/>
    <rect x="4" y="3" width="1" height="1" fill="rgb(48,249,67)" fill-opacity="0.500"/>
    <rect x="0" y="4" width="1" height="1" fill="rgb(82,228,135)" fill-opacity="0.500"/>
    <rect x="4" y="4" width="1" height="1" fill="rgb(108,202,142)" fill-opacity="0.500"/>
    <rect x="0" y="5" width="1" height="1" fill="rgb(27,238,14)" fill-opacity="0.500"/>
    <rect x="4" y="5" width="1" height="1" fill="rgb(71,232,94)" fill-opacity="0.500"/>
    <rect x="0" y="6" width="1" height="1" fill="rgb(7,251,153)" fill-opacity="0.500"/>
    <rect x="1" y="6" width="1" height="1" fill="rgb(90,166,171)" fill-opacity="0.500"/>
    <rect x="2" y="6" width="1" height="1" fill="rgb(115,236,78)" fill-opacity="0.500"/>
    <rect x="3" y="6" width="1" height="1" fill="rgb(28,207,112)" fill-opacity="0.500"/>
    <rect x="4" y="6" width="1" height="1" fill="rgb(39,157,137)" fill-opacity="0.500"/>
  </g>
</svg>
