<?xml version="1.0" encoding="UTF-8"?>
<svg xmlns="http://www.w3.org/2000/svg" width="72" height="216" viewBox="0 0 3 9" shape-rendering="crispEdges">
  <title>U+004F (O)</title>
  
  <g>
    <rect x="0" y="0" width="1" height="1" fill="rgb(85,158,119)" fill-opacity="0.500"/>
    <rect x="1" y="0" width="1" height="1" fill="rgb(38,159,132)" fill-opacity="0.500"/>
    <rect x="2" y="0" width="1" height="1" fill="rgb(40,157,28)" fill-opacity="0.500"/>
    <rect x="0" y="1" width="1" height="1" fill="rgb(0,240,37)" fill-opacity="0.500"/>
    <rect x="2" y="1" width="1" height="1" fill="rgb(77,238,86)" fill-opacity="0.500"/>
    <rect x="0" y="2" width="1" height="1" fill="rgb(105,244,78)" fill-opacity="0.500"/>
    <rect x="2" y="2" width="1" height="1" fill="rgb(9,216,94)" fill-opacity="0.500"/>
    <rect x="0" y="3" width="1" height="1" fill="rgb(102,146,123)" fill-opacity="0.500"/>
    <rect x="2" y="3" width="1" height="1" fill="rgb(53,143,133)" fill-opacity="0.500"/>
    <rect x="0" y="4" width="1" height="1" fill="rgb(39,219,99)" fill-opacity="0.500"/>
    <rect x="2" y="4" width="1" height="1" fill="rgb(50,253,46)" fill-opacity="0.500"/>
    <rect x="0" y="5" width="1" height="1" fill="rgb(36,225,81)" fill-opacity="0.500"/>
    <rect x="2" y="5" width="1" height="1" fill="rgb(83,209,187)" fill-opacity="0.500"/>
    <rect x="0" y="6" width="1" height="1" fill="rgb(75,184,123)" fill-opacity="0.500"/>
    <rect x="1" y="6" width="1" height="1" fill="rgb(66,195,86)" fill-opacity="0.500"/>
    <rect x="2" y="6" width="1" height="1" fill="rgb(43,195,31)" fill-opacity="0.500"/>
  </g>
</svg>
