<?xml version="1.0" encoding="UTF-8"?>
<svg xmlns="http://www.w3.org/2000/svg" width="120" height="216" viewBox="0 0 5 9" shape-rendering="crispEdges">
  <title>U+0416 (Ж)</title>
  
  <g>
    <rect x="0" y="0" width="1" height="1" fill="rgb(64,224,66)" fill-opacity="0.500"/>
    <rect x="2" y="0" width="1" height="1" fill="rgb(80,247,128)" fill-opacity="0.500"/>
    <rect x="4" y="0" width="1" height="1" fill="rgb(31,180,69)" fill-opacity="0.500"/>
    <rect x="0" y="1" width="1" height="1" fill="rgb(90,141,85)" fill-opacity="0.500"/>
    <rect x="2" y="1" width="1" height="1" fill="rgb(75,213,124)" fill-opacity="0.500"/>
    <rect x="4" y="1" width="1" height="1" fill="rgb(56,249,153)" fill-opacity="0.500"/>
    <rect x="1" y="2" width="1" height="1" fill="rgb(17,246,153)" fill-opacity="0.500"/>
    <rect x="2" y="2" width="1" height="1" fill="rgb(39,177,26)" fill-opacity="0.500"/>
    <rect x="3" y="2" width="1" height="1" fill="rgb(49,149,186)" fill-opacity="0.500"/>
    <rect x="2" y="3" width="1" height="1" fill="rgb(122,182,64)" fill-opacity="0.500"/>
    <rect x="1" y="4" width="1" height="1" fill="rgb(98,191,112)" fill-opacity="0.500"/>
    <rect x="2" y="4" width="1" height="1" fill="rgb(73,181,109)" fill-opacity="0.500"/>
    <rect x="3" y="4" width="1" height="1" fill="rgb(111,255,47)" fill-opacity="0.500"/>
    <rect x="0" y="5" width="1" height="1" fill="rgb(98,230,174)" fill-opacity="0.500"/>
    <rect x="2" y="5" width="1" height="1" fill="rgb(120,237,14)" fill-opacity="0.500"/>
    <rect x="4" y="5" width="1" height="1" fill="rgb(27,252,147)" fill-opacity="0.500"/>
    <rect x="0" y="6" width="1" height="1" fill="rgb(31,227,179)" fill-opacity="0.500"/>
    <rect x="2" y="6" width="1" height="1" fill="rgb(32,211,44)" fill-opacity="0.500"/>
    <rect x="4" y="6" width="1" height="1" fill="rgb(108,155,104)" fill-opacity="0.500"/>
  </g>
</svg>
