<?xml version="1.0" encoding="UTF-8"?>
<svg xmlns="http://www.w3.org/2000/svg" width="72" height="216" viewBox="0 0 3 9" shape-rendering="crispEdges">
  <title>U+0411 (Б)</title>
  
  <g>
    <rect x="0" y="0" width="1" height="1" fill="rgb(50,151,47)" fill-opacity="0.500"/>
    <rect x="1" y="0" width="1" height="1" fill="rgb(91,162,191)" fill-opacity="0.500"/>
    <rect x="2" y="0" width="1" height="1" fill="rgb(107,234,17)" fill-opacity="0.500"/>
    <rect x="0" y="1" width="1" height="1" fill="rgb(2,252,88)" fill-opacity="0.500"/>
    <rect x="0" y="2" width="1" height="1" fill="rgb(106,202,46)" fill-opacity="0.500"/>
    <rect x="0" y="3" width="1" height="1" fill="rgb(74,207,145)" fill-opacity="0.500"/>
    <rect x="1" y="3" width="1" height="1" fill="rgb(5,242,180)" fill-opacity="0.500"/>
    <rect x="2" y="3" width="1" height="1" fill="rgb(74,213,176)" fill-opacity="0.500"/>
    <rect x="0" y="4" width="1" height="1" fill="rgb(120,213,169)" fill-opacity="0.500"/>
    <rect x="2" y="4" width="1" height="1" fill="rgb(51,147,37)" fill-opacity="0.500"/>
    <rect x="0" y="5" width="1" height="1" fill="rgb(43,171,124)" fill-opacity="0.500"/>
    <rect x="2" y="5" width="1" height="1" fill="rgb(6,227,12)" fill-opacity="0.500"/>
    <rect x="0" y="6" width="1" height="1" fill="rgb(26,209,164)" fill-opacity="0.500"/>
    <rect x="1" y="6" width="1" height="1" fill="rgb(45,197,127)" fill-opacity="0.500"/>
    <rect x="2" y="6" width="1" height="1" fill="rgb(16,171,70)" fill-opacity="0.500"/>
  </g>
</svg>
