<?xml version="1.0" encoding="UTF-8"?>
<svg xmlns="http://www.w3.org/2000/svg" width="120" height="216" viewBox="0 0 5 9" shape-rendering="crispEdges">
  <title>U+0429 (Щ)</title>
  
  <g>
    <rect x="0" y="0" width="1" height="1" fill="rgb(3,205,154)" fill-opacity="0.500"/>
    <rect x="2" y="0" width="1" height="1" fill="rgb(98,177,114)" fill-opacity="0.500"/>
    <rect x="4" y="0" width="1" height="1" fill="rgb(63,190,54)" fill-opacity="0.500"/>
    <rect x="0" y="1" width="1" height="1" fill="rgb(22,251,159)" fill-opacity="0.500"/>
    <rect x="2" y="1" width="1" height="1" fill="rgb(76,209,179)" fill-opacity="0.500"/>
    <rect x="4" y="1" width="1" height="1" fill="rgb(70,214,72)" fill-opacity="0.500"/>
    <rect x="0" y="2" width="1" height="1" fill="rgb(43,210,166)" fill-opacity="0.500"/>
    <rect x="2" y="2" width="1" height="1" fill="rgb(79,186,15)" fill-opacity="0.500"/>
    <rect x="4" y="2" width="1" height="1" fill="rgb(91,241,170)" fill-opacity="0.500"/>
    <rect x="0" y="3" width="1" height="1" fill="rgb(34,233,20)" fill-opacity="0.500"/>
    <rect x="2" y="3" width="1" height="1" fill="rgb(27,177,21)" fill-opacity="0.500"/>
    <rect x="4" y="3" width="1" height="1" fill="rgb(25,234,97)" fill-opacity="0.500"/>
    <rect x="0" y="4" width="1" height="1" fill="rgb(121,248,152)" fill-opacity="0.500"/>
    <rect x="2" y="4" width="1" height="1" fill="rgb(72,220,40)" fill-opacity="0.500"/>
    <rect x="4" y="4" width="1" height="1" fill="rgb(8,172,6)" fill-opacity="0.500"/>
    <rect x="0" y="5" width="1" height="1" fill="rgb(125,201,84)" fill-opacity="0.500"/>
    <rect x="2" y="5" width="1" height="1" fill="rgb(62,157,105)" fill-opacity="0.500"/>
    <rect x="4" y="5" width="1" height="1" fill="rgb(64,190,32)" fill-opacity="0.500"/>
    <rect x="0" y="6" width="1" height="1" fill="rgb(44,231,189)" fill-opacity="0.500"/>
    <rect x="1" y="6" width="1" height="1" fill="rgb(46,196,110)" fill-opacity="0.500"/>
    <rect x="2" y="6" width="1" height="1" fill="rgb(60,148,48)" fill-opacity="0.500"/>
    <rect x="3" y="6" width="1" height="1" fill="rgb(44,147,188)" fill-opacity="0.500"/>
    <rect x="4" y="6" width="1" height="1" fill="rgb(24,250,3)" fill-opacity="0.500"/>
    <rect x="4" y="7" width="1" height="1" fill="rgb(44,242,69)" fill-opacity="0.500"/>
    <rect x="4" y="8" width="1" height="1" fill="rgb(1,140,125)" fill-opacity="0.500"/>
  </g>
</svg>
