<?xml version="1.0" encoding="UTF-8"?>
<svg xmlns="http://www.w3.org/2000/svg" width="96" height="216" viewBox="0 0 4 9" shape-rendering="crispEdges">
  <title>U+042A (ะช)</title>
  
  <g>
    <rect x="0" y="0" width="1" height="1" fill="rgb(79,137,172)" fill-opacity="0.500"/>
    <rect x="1" y="0" width="1" height="1" fill="rgb(56,164,116)" fill-opacity="0.500"/>
    <rect x="2" y="0" width="1" height="1" fill="rgb(42,217,177)" fill-opacity="0.500"/>
    <rect x="0" y="1" width="1" height="1" fill="rgb(102,172,5)" fill-opacity="0.500"/>
    <rect x="0" y="2" width="1" height="1" fill="rgb(127,230,72)" fill-opacity="0.500"/>
    <rect x="0" y="3" width="1" height="1" fill="rgb(106,186,148)" fill-opacity="0.500"/>
    <rect x="1" y="3" width="1" height="1" fill="rgb(93,162,128)" fill-opacity="0.500"/>
    <rect x="2" y="3" width="1" height="1" fill="rgb(72,223,75)" fill-opacity="0.500"/>
    <rect x="0" y="4" width="1" height="1" fill="rgb(123,171,41)" fill-opacity="0.500"/>
    <rect x="3" y="4" width="1" height="1" fill="rgb(6,239,33)" fill-opacity="0.500"/>
    <rect x="0" y="5" width="1" height="1" fill="rgb(61,155,121)" fill-opacity="0.500"/>
    <rect x="3" y="5" width="1" height="1" fill="rgb(27,245,0)" fill-opacity="0.500"/>
    <rect x="0" y="6" width="1" height="1" fill="rgb(83,238,75)" fill-opacity="0.500"/>
    <rect x="1" y="6" width="1" height="1" fill="rgb(80,249,29)" fill-opacity="0.500"/>
    <rect x="2" y="6" width="1" height="1" fill="rgb(11,252,161)" fill-opacity="0.500"/>
  </g>
</svg>
