<?xml version="1.0" encoding="UTF-8"?>
<svg xmlns="http://www.w3.org/2000/svg" width="120" height="216" viewBox="0 0 5 9" shape-rendering="crispEdges">
  <title>U+05D4 (ה)</title>
  
  <g>
    <rect x="0" y="0" width="1" height="1" fill="rgb(45,231,82)" fill-opacity="0.500"/>
    <rect x="1" y="0" width="1" height="1" fill="rgb(109,134,158)" fill-opacity="0.500"/>
    <rect x="2" y="0" width="1" height="1" fill="rgb(28,141,28)" fill-opacity="0.500"/>
    <rect x="3" y="0" width="1" height="1" fill="rgb(38,145,130)" fill-opacity="0.500"/>
    <rect x="4" y="0" width="1" height="1" fill="rgb(115,185,35)" fill-opacity="0.500"/>
    <rect x="4" y="1" width="1" height="1" fill="rgb(20,245,181)" fill-opacity="0.500"/>
    <rect x="1" y="2" width="1" height="1" fill="rgb(115,239,97)" fill-opacity="0.500"/>
    <rect x="2" y="2" width="1" height="1" fill="rgb(44,232,39)" fill-opacity="0.500"/>
    <rect x="3" y="2" width="1" height="1" fill="rgb(30,141,173)" fill-opacity="0.500"/>
    <rect x="4" y="2" width="1" height="1" fill="rgb(57,151,4)" fill-opacity="0.500"/>
    <rect x="1" y="3" width="1" height="1" fill="rgb(87,207,111)" fill-opacity="0.500"/>
    <rect x="4" y="3" width="1" height="1" fill="rgb(98,244,86)" fill-opacity="0.500"/>
    <rect x="1" y="4" width="1" height="1" fill="rgb(3,237,25)" fill-opacity="0.500"/>
    <rect x="4" y="4" width="1" height="1" fill="rgb(64,155,84)" fill-opacity="0.500"/>
    <rect x="1" y="5" width="1" height="1" fill="rgb(109,167,171)" fill-opacity="0.500"/>
    <rect x="4" y="5" width="1" height="1" fill="rgb(108,168,162)" fill-opacity="0.500"/>
    <rect x="1" y="6" width="1" height="1" fill="rgb(88,170,68)" fill-opacity="0.500"/>
    <rect x="4" y="6" width="1" height="1" fill="rgb(49,138,33)" fill-opacity="0.500"/>
  </g>
</svg>
