<?xml version="1.0" encoding="UTF-8"?>
<svg xmlns="http://www.w3.org/2000/svg" width="120" height="216" viewBox="0 0 5 9" shape-rendering="crispEdges">
  <title>U+0429 (Щ)</title>
  
  <g>
    <rect x="0" y="0" width="1" height="1" fill="rgb(116,191,34)" fill-opacity="0.500"/>
    <rect x="2" y="0" width="1" height="1" fill="rgb(21,131,118)" fill-opacity="0.500"/>
    <rect x="4" y="0" width="1" height="1" fill="rgb(19,142,44)" fill-opacity="0.500"/>
    <rect x="0" y="1" width="1" height="1" fill="rgb(22,217,36)" fill-opacity="0.500"/>
    <rect x="2" y="1" width="1" height="1" fill="rgb(108,204,151)" fill-opacity="0.500"/>
    <rect x="4" y="1" width="1" height="1" fill="rgb(28,149,76)" fill-opacity="0.500"/>
    <rect x="0" y="2" width="1" height="1" fill="rgb(21,198,100)" fill-opacity="0.500"/>
    <rect x="2" y="2" width="1" height="1" fill="rgb(43,222,7)" fill-opacity="0.500"/>
    <rect x="4" y="2" width="1" height="1" fill="rgb(10,137,16)" fill-opacity="0.500"/>
    <rect x="0" y="3" width="1" height="1" fill="rgb(59,131,91)" fill-opacity="0.500"/>
    <rect x="2" y="3" width="1" height="1" fill="rgb(58,166,168)" fill-opacity="0.500"/>
    <rect x="4" y="3" width="1" height="1" fill="rgb(96,146,31)" fill-opacity="0.500"/>
    <rect x="0" y="4" width="1" height="1" fill="rgb(16,242,84)" fill-opacity="0.500"/>
    <rect x="2" y="4" width="1" height="1" fill="rgb(98,218,18)" fill-opacity="0.500"/>
    <rect x="4" y="4" width="1" height="1" fill="rgb(126,233,125)" fill-opacity="0.500"/>
    <rect x="0" y="5" width="1" height="1" fill="rgb(113,152,100)" fill-opacity="0.500"/>
    <rect x="2" y="5" width="1" height="1" fill="rgb(42,167,69)" fill-opacity="0.500"/>
    <rect x="4" y="5" width="1" height="1" fill="rgb(118,166,103)" fill-opacity="0.500"/>
    <rect x="0" y="6" width="1" height="1" fill="rgb(62,202,173)" fill-opacity="0.500"/>
    <rect x="1" y="6" width="1" height="1" fill="rgb(101,236,37)" fill-opacity="0.500"/>
    <rect x="2" y="6" width="1" height="1" fill="rgb(118,185,145)" fill-opacity="0.500"/>
    <rect x="3" y="6" width="1" height="1" fill="rgb(70,199,121)" fill-opacity="0.500"/>
    <rect x="4" y="6" width="1" height="1" fill="rgb(49,156,179)" fill-opacity="0.500"/>
    <rect x="4" y="7" width="1" height="1" fill="rgb(68,140,156)" fill-opacity="0.500"/>
    <rect x="4" y="8" width="1" height="1" fill="rgb(7,143,143)" fill-opacity="0.500"/>
  </g>
</svg>
