<?xml version="1.0" encoding="UTF-8"?>
<svg xmlns="http://www.w3.org/2000/svg" width="120" height="216" viewBox="0 0 5 9" shape-rendering="crispEdges">
  <title>U+2628 (☨)</title>
  
  <g>
    <rect x="2" y="0" width="1" height="1" fill="rgb(79,252,105)" fill-opacity="0.500"/>
    <rect x="1" y="1" width="1" height="1" fill="rgb(15,134,96)" fill-opacity="0.500"/>
    <rect x="2" y="1" width="1" height="1" fill="rgb(61,199,186)" fill-opacity="0.500"/>
    <rect x="3" y="1" width="1" height="1" fill="rgb(104,174,84)" fill-opacity="0.500"/>
    <rect x="2" y="2" width="1" height="1" fill="rgb(33,216,183)" fill-opacity="0.500"/>
    <rect x="0" y="3" width="1" height="1" fill="rgb(55,229,8)" fill-opacity="0.500"/>
    <rect x="1" y="3" width="1" height="1" fill="rgb(22,170,0)" fill-opacity="0.500"/>
    <rect x="2" y="3" width="1" height="1" fill="rgb(115,144,163)" fill-opacity="0.500"/>
    <rect x="3" y="3" width="1" height="1" fill="rgb(68,158,84)" fill-opacity="0.500"/>
    <rect x="4" y="3" width="1" height="1" fill="rgb(57,242,11)" fill-opacity="0.500"/>
    <rect x="2" y="4" width="1" height="1" fill="rgb(117,148,36)" fill-opacity="0.500"/>
    <rect x="2" y="5" width="1" height="1" fill="rgb(6,158,120)" fill-opacity="0.500"/>
    <rect x="2" y="6" width="1" height="1" fill="rgb(48,175,151)" fill-opacity="0.500"/>
    <rect x="2" y="7" width="1" height="1" fill="rgb(92,170,153)" fill-opacity="0.500"/>
    <rect x="2" y="8" width="1" height="1" fill="rgb(4,212,120)" fill-opacity="0.500"/>
  </g>
</svg>
