<?xml version="1.0" encoding="UTF-8"?>
<svg xmlns="http://www.w3.org/2000/svg" width="120" height="216" viewBox="0 0 5 9" shape-rendering="crispEdges">
  <title>U+05E4 (פ)</title>
  
  <g>
    <rect x="0" y="0" width="1" height="1" fill="rgb(110,244,33)" fill-opacity="0.500"/>
    <rect x="1" y="0" width="1" height="1" fill="rgb(80,190,175)" fill-opacity="0.500"/>
    <rect x="2" y="0" width="1" height="1" fill="rgb(68,232,178)" fill-opacity="0.500"/>
    <rect x="3" y="0" width="1" height="1" fill="rgb(32,191,99)" fill-opacity="0.500"/>
    <rect x="0" y="1" width="1" height="1" fill="rgb(96,179,37)" fill-opacity="0.500"/>
    <rect x="4" y="1" width="1" height="1" fill="rgb(58,164,122)" fill-opacity="0.500"/>
    <rect x="0" y="2" width="1" height="1" fill="rgb(114,247,135)" fill-opacity="0.500"/>
    <rect x="4" y="2" width="1" height="1" fill="rgb(81,159,30)" fill-opacity="0.500"/>
    <rect x="0" y="3" width="1" height="1" fill="rgb(51,156,187)" fill-opacity="0.500"/>
    <rect x="1" y="3" width="1" height="1" fill="rgb(70,246,114)" fill-opacity="0.500"/>
    <rect x="2" y="3" width="1" height="1" fill="rgb(32,151,157)" fill-opacity="0.500"/>
    <rect x="3" y="3" width="1" height="1" fill="rgb(111,185,137)" fill-opacity="0.500"/>
    <rect x="0" y="4" width="1" height="1" fill="rgb(114,187,101)" fill-opacity="0.500"/>
    <rect x="0" y="5" width="1" height="1" fill="rgb(121,198,75)" fill-opacity="0.500"/>
    <rect x="0" y="6" width="1" height="1" fill="rgb(104,176,29)" fill-opacity="0.500"/>
  </g>
</svg>
