<?xml version="1.0" encoding="UTF-8"?>
<svg xmlns="http://www.w3.org/2000/svg" width="120" height="216" viewBox="0 0 5 9" shape-rendering="crispEdges">
  <title>U+05E7 (ק)</title>
  
  <g>
    <rect x="1" y="0" width="1" height="1" fill="rgb(123,128,175)" fill-opacity="0.500"/>
    <rect x="2" y="0" width="1" height="1" fill="rgb(1,150,61)" fill-opacity="0.500"/>
    <rect x="3" y="0" width="1" height="1" fill="rgb(110,183,182)" fill-opacity="0.500"/>
    <rect x="0" y="1" width="1" height="1" fill="rgb(6,136,89)" fill-opacity="0.500"/>
    <rect x="4" y="1" width="1" height="1" fill="rgb(50,196,182)" fill-opacity="0.500"/>
    <rect x="0" y="2" width="1" height="1" fill="rgb(122,225,77)" fill-opacity="0.500"/>
    <rect x="4" y="2" width="1" height="1" fill="rgb(14,222,93)" fill-opacity="0.500"/>
    <rect x="0" y="3" width="1" height="1" fill="rgb(29,177,53)" fill-opacity="0.500"/>
    <rect x="4" y="3" width="1" height="1" fill="rgb(22,178,174)" fill-opacity="0.500"/>
    <rect x="0" y="4" width="1" height="1" fill="rgb(73,221,34)" fill-opacity="0.500"/>
    <rect x="4" y="4" width="1" height="1" fill="rgb(108,220,189)" fill-opacity="0.500"/>
    <rect x="1" y="5" width="1" height="1" fill="rgb(80,152,28)" fill-opacity="0.500"/>
    <rect x="2" y="5" width="1" height="1" fill="rgb(14,145,117)" fill-opacity="0.500"/>
    <rect x="3" y="5" width="1" height="1" fill="rgb(46,181,28)" fill-opacity="0.500"/>
    <rect x="3" y="6" width="1" height="1" fill="rgb(113,214,43)" fill-opacity="0.500"/>
    <rect x="3" y="7" width="1" height="1" fill="rgb(17,139,142)" fill-opacity="0.500"/>
  </g>
</svg>
