<?xml version="1.0" encoding="UTF-8"?>
<svg xmlns="http://www.w3.org/2000/svg" width="72" height="216" viewBox="0 0 3 9" shape-rendering="crispEdges">
  <title>U+0055 (U)</title>
  
  <g>
    <rect x="0" y="0" width="1" height="1" fill="rgb(22,238,26)" fill-opacity="0.500"/>
    <rect x="2" y="0" width="1" height="1" fill="rgb(47,213,29)" fill-opacity="0.500"/>
    <rect x="0" y="1" width="1" height="1" fill="rgb(68,128,14)" fill-opacity="0.500"/>
    <rect x="2" y="1" width="1" height="1" fill="rgb(42,201,190)" fill-opacity="0.500"/>
    <rect x="0" y="2" width="1" height="1" fill="rgb(71,184,1)" fill-opacity="0.500"/>
    <rect x="2" y="2" width="1" height="1" fill="rgb(60,207,175)" fill-opacity="0.500"/>
    <rect x="0" y="3" width="1" height="1" fill="rgb(34,143,63)" fill-opacity="0.500"/>
    <rect x="2" y="3" width="1" height="1" fill="rgb(18,203,27)" fill-opacity="0.500"/>
    <rect x="0" y="4" width="1" height="1" fill="rgb(112,221,123)" fill-opacity="0.500"/>
    <rect x="2" y="4" width="1" height="1" fill="rgb(62,175,50)" fill-opacity="0.500"/>
    <rect x="0" y="5" width="1" height="1" fill="rgb(93,130,7)" fill-opacity="0.500"/>
    <rect x="2" y="5" width="1" height="1" fill="rgb(112,172,99)" fill-opacity="0.500"/>
    <rect x="0" y="6" width="1" height="1" fill="rgb(55,134,53)" fill-opacity="0.500"/>
    <rect x="1" y="6" width="1" height="1" fill="rgb(92,131,54)" fill-opacity="0.500"/>
    <rect x="2" y="6" width="1" height="1" fill="rgb(101,177,127)" fill-opacity="0.500"/>
  </g>
</svg>
