<?xml version="1.0" encoding="UTF-8"?>
<svg xmlns="http://www.w3.org/2000/svg" width="120" height="216" viewBox="0 0 5 9" shape-rendering="crispEdges">
  <title>U+05E9 (ש)</title>
  
  <g>
    <rect x="0" y="0" width="1" height="1" fill="rgb(32,227,155)" fill-opacity="0.500"/>
    <rect x="2" y="0" width="1" height="1" fill="rgb(10,200,115)" fill-opacity="0.500"/>
    <rect x="4" y="0" width="1" height="1" fill="rgb(10,206,132)" fill-opacity="0.500"/>
    <rect x="0" y="1" width="1" height="1" fill="rgb(23,150,143)" fill-opacity="0.500"/>
    <rect x="2" y="1" width="1" height="1" fill="rgb(100,243,9)" fill-opacity="0.500"/>
    <rect x="4" y="1" width="1" height="1" fill="rgb(107,178,83)" fill-opacity="0.500"/>
    <rect x="0" y="2" width="1" height="1" fill="rgb(54,206,29)" fill-opacity="0.500"/>
    <rect x="2" y="2" width="1" height="1" fill="rgb(93,205,152)" fill-opacity="0.500"/>
    <rect x="4" y="2" width="1" height="1" fill="rgb(42,146,59)" fill-opacity="0.500"/>
    <rect x="0" y="3" width="1" height="1" fill="rgb(50,153,165)" fill-opacity="0.500"/>
    <rect x="1" y="3" width="1" height="1" fill="rgb(47,214,8)" fill-opacity="0.500"/>
    <rect x="2" y="3" width="1" height="1" fill="rgb(81,159,9)" fill-opacity="0.500"/>
    <rect x="3" y="3" width="1" height="1" fill="rgb(83,165,100)" fill-opacity="0.500"/>
    <rect x="4" y="3" width="1" height="1" fill="rgb(30,149,96)" fill-opacity="0.500"/>
    <rect x="0" y="4" width="1" height="1" fill="rgb(70,239,89)" fill-opacity="0.500"/>
    <rect x="2" y="4" width="1" height="1" fill="rgb(51,232,78)" fill-opacity="0.500"/>
    <rect x="4" y="4" width="1" height="1" fill="rgb(3,244,18)" fill-opacity="0.500"/>
    <rect x="0" y="5" width="1" height="1" fill="rgb(45,163,30)" fill-opacity="0.500"/>
    <rect x="2" y="5" width="1" height="1" fill="rgb(44,241,84)" fill-opacity="0.500"/>
    <rect x="4" y="5" width="1" height="1" fill="rgb(112,237,161)" fill-opacity="0.500"/>
    <rect x="1" y="6" width="1" height="1" fill="rgb(78,185,177)" fill-opacity="0.500"/>
    <rect x="2" y="6" width="1" height="1" fill="rgb(76,191,115)" fill-opacity="0.500"/>
    <rect x="3" y="6" width="1" height="1" fill="rgb(69,178,144)" fill-opacity="0.500"/>
  </g>
</svg>
