<?xml version="1.0" encoding="UTF-8"?>
<svg xmlns="http://www.w3.org/2000/svg" width="120" height="216" viewBox="0 0 5 9" shape-rendering="crispEdges">
  <title>U+05EA (ת)</title>
  
  <g>
    <rect x="0" y="0" width="1" height="1" fill="rgb(15,197,19)" fill-opacity="0.500"/>
    <rect x="1" y="0" width="1" height="1" fill="rgb(66,223,68)" fill-opacity="0.500"/>
    <rect x="2" y="0" width="1" height="1" fill="rgb(10,140,94)" fill-opacity="0.500"/>
    <rect x="3" y="0" width="1" height="1" fill="rgb(23,244,10)" fill-opacity="0.500"/>
    <rect x="4" y="0" width="1" height="1" fill="rgb(4,150,20)" fill-opacity="0.500"/>
    <rect x="2" y="1" width="1" height="1" fill="rgb(22,151,99)" fill-opacity="0.500"/>
    <rect x="2" y="2" width="1" height="1" fill="rgb(32,204,149)" fill-opacity="0.500"/>
    <rect x="0" y="3" width="1" height="1" fill="rgb(31,203,37)" fill-opacity="0.500"/>
    <rect x="1" y="3" width="1" height="1" fill="rgb(100,135,175)" fill-opacity="0.500"/>
    <rect x="2" y="3" width="1" height="1" fill="rgb(55,234,18)" fill-opacity="0.500"/>
    <rect x="3" y="3" width="1" height="1" fill="rgb(16,216,47)" fill-opacity="0.500"/>
    <rect x="4" y="3" width="1" height="1" fill="rgb(70,156,67)" fill-opacity="0.500"/>
    <rect x="2" y="4" width="1" height="1" fill="rgb(29,129,143)" fill-opacity="0.500"/>
    <rect x="2" y="5" width="1" height="1" fill="rgb(33,212,113)" fill-opacity="0.500"/>
    <rect x="2" y="6" width="1" height="1" fill="rgb(83,158,49)" fill-opacity="0.500"/>
  </g>
</svg>
