<?xml version="1.0" encoding="UTF-8"?>
<svg xmlns="http://www.w3.org/2000/svg" width="120" height="216" viewBox="0 0 5 9" shape-rendering="crispEdges">
  <title>U+05EA (ת)</title>
  
  <g>
    <rect x="0" y="0" width="1" height="1" fill="rgb(108,226,171)" fill-opacity="0.500"/>
    <rect x="1" y="0" width="1" height="1" fill="rgb(30,225,21)" fill-opacity="0.500"/>
    <rect x="2" y="0" width="1" height="1" fill="rgb(123,189,156)" fill-opacity="0.500"/>
    <rect x="3" y="0" width="1" height="1" fill="rgb(104,173,68)" fill-opacity="0.500"/>
    <rect x="4" y="0" width="1" height="1" fill="rgb(88,163,172)" fill-opacity="0.500"/>
    <rect x="2" y="1" width="1" height="1" fill="rgb(23,201,22)" fill-opacity="0.500"/>
    <rect x="2" y="2" width="1" height="1" fill="rgb(118,188,162)" fill-opacity="0.500"/>
    <rect x="0" y="3" width="1" height="1" fill="rgb(4,202,105)" fill-opacity="0.500"/>
    <rect x="1" y="3" width="1" height="1" fill="rgb(29,190,61)" fill-opacity="0.500"/>
    <rect x="2" y="3" width="1" height="1" fill="rgb(120,151,86)" fill-opacity="0.500"/>
    <rect x="3" y="3" width="1" height="1" fill="rgb(118,254,155)" fill-opacity="0.500"/>
    <rect x="4" y="3" width="1" height="1" fill="rgb(123,165,59)" fill-opacity="0.500"/>
    <rect x="2" y="4" width="1" height="1" fill="rgb(76,205,85)" fill-opacity="0.500"/>
    <rect x="2" y="5" width="1" height="1" fill="rgb(82,133,18)" fill-opacity="0.500"/>
    <rect x="2" y="6" width="1" height="1" fill="rgb(111,200,106)" fill-opacity="0.500"/>
  </g>
</svg>
