<?xml version="1.0" encoding="UTF-8"?>
<svg xmlns="http://www.w3.org/2000/svg" width="72" height="216" viewBox="0 0 3 9" shape-rendering="crispEdges">
  <title>.notdef</title>
  
  <g>
    <rect x="0" y="0" width="1" height="1" fill="rgb(39,180,27)" fill-opacity="0.500"/>
    <rect x="1" y="0" width="1" height="1" fill="rgb(46,134,92)" fill-opacity="0.500"/>
    <rect x="2" y="0" width="1" height="1" fill="rgb(52,143,184)" fill-opacity="0.500"/>
    <rect x="0" y="1" width="1" height="1" fill="rgb(78,206,13)" fill-opacity="0.500"/>
    <rect x="2" y="1" width="1" height="1" fill="rgb(126,131,26)" fill-opacity="0.500"/>
    <rect x="0" y="2" width="1" height="1" fill="rgb(55,147,5)" fill-opacity="0.500"/>
    <rect x="2" y="2" width="1" height="1" fill="rgb(72,254,189)" fill-opacity="0.500"/>
    <rect x="0" y="3" width="1" height="1" fill="rgb(50,133,104)" fill-opacity="0.500"/>
    <rect x="2" y="3" width="1" height="1" fill="rgb(59,225,32)" fill-opacity="0.500"/>
    <rect x="0" y="4" width="1" height="1" fill="rgb(13,205,189)" fill-opacity="0.500"/>
    <rect x="2" y="4" width="1" height="1" fill="rgb(12,159,96)" fill-opacity="0.500"/>
    <rect x="0" y="5" width="1" height="1" fill="rgb(87,140,136)" fill-opacity="0.500"/>
    <rect x="2" y="5" width="1" height="1" fill="rgb(51,236,135)" fill-opacity="0.500"/>
    <rect x="0" y="6" width="1" height="1" fill="rgb(50,248,174)" fill-opacity="0.500"/>
    <rect x="2" y="6" width="1" height="1" fill="rgb(86,234,71)" fill-opacity="0.500"/>
    <rect x="0" y="7" width="1" height="1" fill="rgb(77,131,56)" fill-opacity="0.500"/>
    <rect x="2" y="7" width="1" height="1" fill="rgb(81,252,92)" fill-opacity="0.500"/>
    <rect x="0" y="8" width="1" height="1" fill="rgb(33,224,36)" fill-opacity="0.500"/>
    <rect x="1" y="8" width="1" height="1" fill="rgb(121,206,145)" fill-opacity="0.500"/>
    <rect x="2" y="8" width="1" height="1" fill="rgb(71,171,169)" fill-opacity="0.500"/>
  </g>
</svg>
