<?xml version="1.0" encoding="UTF-8"?>
<svg xmlns="http://www.w3.org/2000/svg" width="72" height="216" viewBox="0 0 3 9" shape-rendering="crispEdges">
  <title>U+041F (П)</title>
  
  <g>
    <rect x="0" y="0" width="1" height="1" fill="rgb(45,233,93)" fill-opacity="0.500"/>
    <rect x="1" y="0" width="1" height="1" fill="rgb(8,245,137)" fill-opacity="0.500"/>
    <rect x="2" y="0" width="1" height="1" fill="rgb(80,160,154)" fill-opacity="0.500"/>
    <rect x="0" y="1" width="1" height="1" fill="rgb(18,180,169)" fill-opacity="0.500"/>
    <rect x="2" y="1" width="1" height="1" fill="rgb(39,159,98)" fill-opacity="0.500"/>
    <rect x="0" y="2" width="1" height="1" fill="rgb(47,169,19)" fill-opacity="0.500"/>
    <rect x="2" y="2" width="1" height="1" fill="rgb(39,177,129)" fill-opacity="0.500"/>
    <rect x="0" y="3" width="1" height="1" fill="rgb(2,147,23)" fill-opacity="0.500"/>
    <rect x="2" y="3" width="1" height="1" fill="rgb(2,161,105)" fill-opacity="0.500"/>
    <rect x="0" y="4" width="1" height="1" fill="rgb(15,147,189)" fill-opacity="0.500"/>
    <rect x="2" y="4" width="1" height="1" fill="rgb(71,254,7)" fill-opacity="0.500"/>
    <rect x="0" y="5" width="1" height="1" fill="rgb(16,231,33)" fill-opacity="0.500"/>
    <rect x="2" y="5" width="1" height="1" fill="rgb(60,243,117)" fill-opacity="0.500"/>
    <rect x="0" y="6" width="1" height="1" fill="rgb(46,136,109)" fill-opacity="0.500"/>
    <rect x="2" y="6" width="1" height="1" fill="rgb(115,155,19)" fill-opacity="0.500"/>
  </g>
</svg>
