<?xml version="1.0" encoding="UTF-8"?>
<svg xmlns="http://www.w3.org/2000/svg" width="120" height="216" viewBox="0 0 5 9" shape-rendering="crispEdges">
  <title>U+0428 (Ш)</title>
  
  <g>
    <rect x="0" y="0" width="1" height="1" fill="rgb(124,175,105)" fill-opacity="0.500"/>
    <rect x="2" y="0" width="1" height="1" fill="rgb(80,238,176)" fill-opacity="0.500"/>
    <rect x="4" y="0" width="1" height="1" fill="rgb(71,253,43)" fill-opacity="0.500"/>
    <rect x="0" y="1" width="1" height="1" fill="rgb(121,185,44)" fill-opacity="0.500"/>
    <rect x="2" y="1" width="1" height="1" fill="rgb(57,156,50)" fill-opacity="0.500"/>
    <rect x="4" y="1" width="1" height="1" fill="rgb(78,132,9)" fill-opacity="0.500"/>
    <rect x="0" y="2" width="1" height="1" fill="rgb(82,168,190)" fill-opacity="0.500"/>
    <rect x="2" y="2" width="1" height="1" fill="rgb(41,204,178)" fill-opacity="0.500"/>
    <rect x="4" y="2" width="1" height="1" fill="rgb(4,217,138)" fill-opacity="0.500"/>
    <rect x="0" y="3" width="1" height="1" fill="rgb(86,148,120)" fill-opacity="0.500"/>
    <rect x="2" y="3" width="1" height="1" fill="rgb(66,182,52)" fill-opacity="0.500"/>
    <rect x="4" y="3" width="1" height="1" fill="rgb(109,199,80)" fill-opacity="0.500"/>
    <rect x="0" y="4" width="1" height="1" fill="rgb(71,183,84)" fill-opacity="0.500"/>
    <rect x="2" y="4" width="1" height="1" fill="rgb(106,234,36)" fill-opacity="0.500"/>
    <rect x="4" y="4" width="1" height="1" fill="rgb(127,146,161)" fill-opacity="0.500"/>
    <rect x="0" y="5" width="1" height="1" fill="rgb(101,214,128)" fill-opacity="0.500"/>
    <rect x="2" y="5" width="1" height="1" fill="rgb(106,190,179)" fill-opacity="0.500"/>
    <rect x="4" y="5" width="1" height="1" fill="rgb(103,156,132)" fill-opacity="0.500"/>
    <rect x="0" y="6" width="1" height="1" fill="rgb(96,255,173)" fill-opacity="0.500"/>
    <rect x="1" y="6" width="1" height="1" fill="rgb(95,222,8)" fill-opacity="0.500"/>
    <rect x="2" y="6" width="1" height="1" fill="rgb(83,134,119)" fill-opacity="0.500"/>
    <rect x="3" y="6" width="1" height="1" fill="rgb(77,193,185)" fill-opacity="0.500"/>
    <rect x="4" y="6" width="1" height="1" fill="rgb(14,167,178)" fill-opacity="0.500"/>
  </g>
</svg>
