<?xml version="1.0" encoding="UTF-8"?>
<svg xmlns="http://www.w3.org/2000/svg" width="120" height="216" viewBox="0 0 5 9" shape-rendering="crispEdges">
  <title>U+0424 (Ф)</title>
  
  <g>
    <rect x="2" y="0" width="1" height="1" fill="rgb(24,222,161)" fill-opacity="0.500"/>
    <rect x="1" y="1" width="1" height="1" fill="rgb(11,201,49)" fill-opacity="0.500"/>
    <rect x="2" y="1" width="1" height="1" fill="rgb(116,190,80)" fill-opacity="0.500"/>
    <rect x="3" y="1" width="1" height="1" fill="rgb(30,212,176)" fill-opacity="0.500"/>
    <rect x="0" y="2" width="1" height="1" fill="rgb(5,161,123)" fill-opacity="0.500"/>
    <rect x="2" y="2" width="1" height="1" fill="rgb(0,184,171)" fill-opacity="0.500"/>
    <rect x="4" y="2" width="1" height="1" fill="rgb(105,216,46)" fill-opacity="0.500"/>
    <rect x="0" y="3" width="1" height="1" fill="rgb(123,217,174)" fill-opacity="0.500"/>
    <rect x="2" y="3" width="1" height="1" fill="rgb(6,206,2)" fill-opacity="0.500"/>
    <rect x="4" y="3" width="1" height="1" fill="rgb(15,130,178)" fill-opacity="0.500"/>
    <rect x="1" y="4" width="1" height="1" fill="rgb(41,254,64)" fill-opacity="0.500"/>
    <rect x="2" y="4" width="1" height="1" fill="rgb(37,251,6)" fill-opacity="0.500"/>
    <rect x="3" y="4" width="1" height="1" fill="rgb(96,171,10)" fill-opacity="0.500"/>
    <rect x="2" y="5" width="1" height="1" fill="rgb(111,207,38)" fill-opacity="0.500"/>
    <rect x="2" y="6" width="1" height="1" fill="rgb(68,168,113)" fill-opacity="0.500"/>
  </g>
</svg>
