<?xml version="1.0" encoding="UTF-8"?>
<svg xmlns="http://www.w3.org/2000/svg" width="120" height="216" viewBox="0 0 5 9" shape-rendering="crispEdges">
  <title>U+05E9 (ש)</title>
  
  <g>
    <rect x="0" y="0" width="1" height="1" fill="rgb(1,193,19)" fill-opacity="0.500"/>
    <rect x="2" y="0" width="1" height="1" fill="rgb(14,229,172)" fill-opacity="0.500"/>
    <rect x="4" y="0" width="1" height="1" fill="rgb(90,231,49)" fill-opacity="0.500"/>
    <rect x="0" y="1" width="1" height="1" fill="rgb(44,235,176)" fill-opacity="0.500"/>
    <rect x="2" y="1" width="1" height="1" fill="rgb(72,241,133)" fill-opacity="0.500"/>
    <rect x="4" y="1" width="1" height="1" fill="rgb(3,135,64)" fill-opacity="0.500"/>
    <rect x="0" y="2" width="1" height="1" fill="rgb(120,249,88)" fill-opacity="0.500"/>
    <rect x="2" y="2" width="1" height="1" fill="rgb(62,200,106)" fill-opacity="0.500"/>
    <rect x="4" y="2" width="1" height="1" fill="rgb(73,151,46)" fill-opacity="0.500"/>
    <rect x="0" y="3" width="1" height="1" fill="rgb(2,162,8)" fill-opacity="0.500"/>
    <rect x="1" y="3" width="1" height="1" fill="rgb(82,244,157)" fill-opacity="0.500"/>
    <rect x="2" y="3" width="1" height="1" fill="rgb(123,250,129)" fill-opacity="0.500"/>
    <rect x="3" y="3" width="1" height="1" fill="rgb(55,161,39)" fill-opacity="0.500"/>
    <rect x="4" y="3" width="1" height="1" fill="rgb(90,216,106)" fill-opacity="0.500"/>
    <rect x="0" y="4" width="1" height="1" fill="rgb(50,175,15)" fill-opacity="0.500"/>
    <rect x="2" y="4" width="1" height="1" fill="rgb(84,150,6)" fill-opacity="0.500"/>
    <rect x="4" y="4" width="1" height="1" fill="rgb(107,210,133)" fill-opacity="0.500"/>
    <rect x="0" y="5" width="1" height="1" fill="rgb(98,252,10)" fill-opacity="0.500"/>
    <rect x="2" y="5" width="1" height="1" fill="rgb(55,246,86)" fill-opacity="0.500"/>
    <rect x="4" y="5" width="1" height="1" fill="rgb(78,245,174)" fill-opacity="0.500"/>
    <rect x="1" y="6" width="1" height="1" fill="rgb(59,239,185)" fill-opacity="0.500"/>
    <rect x="2" y="6" width="1" height="1" fill="rgb(26,170,108)" fill-opacity="0.500"/>
    <rect x="3" y="6" width="1" height="1" fill="rgb(37,249,34)" fill-opacity="0.500"/>
  </g>
</svg>
