<?xml version="1.0" encoding="UTF-8"?>
<svg xmlns="http://www.w3.org/2000/svg" width="120" height="216" viewBox="0 0 5 9" shape-rendering="crispEdges">
  <title>U+05DE (מ)</title>
  
  <g>
    <rect x="0" y="0" width="1" height="1" fill="rgb(51,188,41)" fill-opacity="0.500"/>
    <rect x="1" y="0" width="1" height="1" fill="rgb(67,193,185)" fill-opacity="0.500"/>
    <rect x="2" y="0" width="1" height="1" fill="rgb(21,213,40)" fill-opacity="0.500"/>
    <rect x="3" y="0" width="1" height="1" fill="rgb(64,135,61)" fill-opacity="0.500"/>
    <rect x="4" y="0" width="1" height="1" fill="rgb(42,194,5)" fill-opacity="0.500"/>
    <rect x="0" y="1" width="1" height="1" fill="rgb(45,229,150)" fill-opacity="0.500"/>
    <rect x="4" y="1" width="1" height="1" fill="rgb(23,229,30)" fill-opacity="0.500"/>
    <rect x="0" y="2" width="1" height="1" fill="rgb(42,179,176)" fill-opacity="0.500"/>
    <rect x="2" y="2" width="1" height="1" fill="rgb(101,163,58)" fill-opacity="0.500"/>
    <rect x="4" y="2" width="1" height="1" fill="rgb(86,163,73)" fill-opacity="0.500"/>
    <rect x="0" y="3" width="1" height="1" fill="rgb(43,212,74)" fill-opacity="0.500"/>
    <rect x="4" y="3" width="1" height="1" fill="rgb(64,153,120)" fill-opacity="0.500"/>
    <rect x="0" y="4" width="1" height="1" fill="rgb(106,152,151)" fill-opacity="0.500"/>
    <rect x="4" y="4" width="1" height="1" fill="rgb(16,246,76)" fill-opacity="0.500"/>
    <rect x="0" y="5" width="1" height="1" fill="rgb(68,164,184)" fill-opacity="0.500"/>
    <rect x="4" y="5" width="1" height="1" fill="rgb(109,176,98)" fill-opacity="0.500"/>
    <rect x="1" y="6" width="1" height="1" fill="rgb(48,135,22)" fill-opacity="0.500"/>
    <rect x="2" y="6" width="1" height="1" fill="rgb(126,141,88)" fill-opacity="0.500"/>
    <rect x="3" y="6" width="1" height="1" fill="rgb(121,169,185)" fill-opacity="0.500"/>
    <rect x="4" y="6" width="1" height="1" fill="rgb(122,219,25)" fill-opacity="0.500"/>
  </g>
</svg>
