<?xml version="1.0" encoding="UTF-8"?>
<svg xmlns="http://www.w3.org/2000/svg" width="120" height="216" viewBox="0 0 5 9" shape-rendering="crispEdges">
  <title>U+041C (лю)</title>
  
  <g>
    <rect x="0" y="0" width="1" height="1" fill="rgb(11,191,94)" fill-opacity="0.500"/>
    <rect x="1" y="0" width="1" height="1" fill="rgb(91,135,154)" fill-opacity="0.500"/>
    <rect x="2" y="0" width="1" height="1" fill="rgb(110,233,50)" fill-opacity="0.500"/>
    <rect x="3" y="0" width="1" height="1" fill="rgb(20,248,81)" fill-opacity="0.500"/>
    <rect x="4" y="0" width="1" height="1" fill="rgb(77,146,106)" fill-opacity="0.500"/>
    <rect x="0" y="1" width="1" height="1" fill="rgb(23,208,14)" fill-opacity="0.500"/>
    <rect x="2" y="1" width="1" height="1" fill="rgb(63,149,27)" fill-opacity="0.500"/>
    <rect x="4" y="1" width="1" height="1" fill="rgb(31,205,165)" fill-opacity="0.500"/>
    <rect x="0" y="2" width="1" height="1" fill="rgb(4,165,123)" fill-opacity="0.500"/>
    <rect x="2" y="2" width="1" height="1" fill="rgb(29,244,161)" fill-opacity="0.500"/>
    <rect x="4" y="2" width="1" height="1" fill="rgb(81,177,181)" fill-opacity="0.500"/>
    <rect x="0" y="3" width="1" height="1" fill="rgb(115,234,173)" fill-opacity="0.500"/>
    <rect x="2" y="3" width="1" height="1" fill="rgb(81,140,127)" fill-opacity="0.500"/>
    <rect x="4" y="3" width="1" height="1" fill="rgb(66,129,122)" fill-opacity="0.500"/>
    <rect x="0" y="4" width="1" height="1" fill="rgb(120,130,109)" fill-opacity="0.500"/>
    <rect x="2" y="4" width="1" height="1" fill="rgb(7,139,97)" fill-opacity="0.500"/>
    <rect x="4" y="4" width="1" height="1" fill="rgb(69,202,69)" fill-opacity="0.500"/>
    <rect x="0" y="5" width="1" height="1" fill="rgb(61,205,78)" fill-opacity="0.500"/>
    <rect x="2" y="5" width="1" height="1" fill="rgb(35,160,178)" fill-opacity="0.500"/>
    <rect x="4" y="5" width="1" height="1" fill="rgb(50,152,85)" fill-opacity="0.500"/>
    <rect x="0" y="6" width="1" height="1" fill="rgb(109,166,173)" fill-opacity="0.500"/>
    <rect x="2" y="6" width="1" height="1" fill="rgb(69,158,74)" fill-opacity="0.500"/>
    <rect x="4" y="6" width="1" height="1" fill="rgb(81,226,44)" fill-opacity="0.500"/>
  </g>
</svg>
