<?xml version="1.0" encoding="UTF-8"?>
<svg xmlns="http://www.w3.org/2000/svg" width="120" height="216" viewBox="0 0 5 9" shape-rendering="crispEdges">
  <title>U+05E7 (ק)</title>
  
  <g>
    <rect x="1" y="0" width="1" height="1" fill="rgb(69,137,87)" fill-opacity="0.500"/>
    <rect x="2" y="0" width="1" height="1" fill="rgb(122,147,151)" fill-opacity="0.500"/>
    <rect x="3" y="0" width="1" height="1" fill="rgb(90,164,104)" fill-opacity="0.500"/>
    <rect x="0" y="1" width="1" height="1" fill="rgb(37,200,189)" fill-opacity="0.500"/>
    <rect x="4" y="1" width="1" height="1" fill="rgb(46,200,59)" fill-opacity="0.500"/>
    <rect x="0" y="2" width="1" height="1" fill="rgb(108,217,42)" fill-opacity="0.500"/>
    <rect x="4" y="2" width="1" height="1" fill="rgb(100,239,131)" fill-opacity="0.500"/>
    <rect x="0" y="3" width="1" height="1" fill="rgb(82,152,164)" fill-opacity="0.500"/>
    <rect x="4" y="3" width="1" height="1" fill="rgb(125,201,89)" fill-opacity="0.500"/>
    <rect x="0" y="4" width="1" height="1" fill="rgb(67,188,186)" fill-opacity="0.500"/>
    <rect x="4" y="4" width="1" height="1" fill="rgb(54,138,39)" fill-opacity="0.500"/>
    <rect x="1" y="5" width="1" height="1" fill="rgb(18,164,173)" fill-opacity="0.500"/>
    <rect x="2" y="5" width="1" height="1" fill="rgb(126,233,168)" fill-opacity="0.500"/>
    <rect x="3" y="5" width="1" height="1" fill="rgb(81,218,174)" fill-opacity="0.500"/>
    <rect x="3" y="6" width="1" height="1" fill="rgb(127,197,132)" fill-opacity="0.500"/>
    <rect x="3" y="7" width="1" height="1" fill="rgb(48,150,15)" fill-opacity="0.500"/>
  </g>
</svg>
