<?xml version="1.0" encoding="UTF-8"?>
<svg xmlns="http://www.w3.org/2000/svg" width="72" height="216" viewBox="0 0 3 9" shape-rendering="crispEdges">
  <title>U+041E (О)</title>
  
  <g>
    <rect x="0" y="0" width="1" height="1" fill="rgb(36,174,92)" fill-opacity="0.500"/>
    <rect x="1" y="0" width="1" height="1" fill="rgb(126,150,124)" fill-opacity="0.500"/>
    <rect x="2" y="0" width="1" height="1" fill="rgb(120,243,78)" fill-opacity="0.500"/>
    <rect x="0" y="1" width="1" height="1" fill="rgb(115,230,138)" fill-opacity="0.500"/>
    <rect x="2" y="1" width="1" height="1" fill="rgb(100,235,148)" fill-opacity="0.500"/>
    <rect x="0" y="2" width="1" height="1" fill="rgb(51,195,78)" fill-opacity="0.500"/>
    <rect x="2" y="2" width="1" height="1" fill="rgb(54,215,157)" fill-opacity="0.500"/>
    <rect x="0" y="3" width="1" height="1" fill="rgb(46,252,60)" fill-opacity="0.500"/>
    <rect x="2" y="3" width="1" height="1" fill="rgb(107,144,4)" fill-opacity="0.500"/>
    <rect x="0" y="4" width="1" height="1" fill="rgb(98,143,191)" fill-opacity="0.500"/>
    <rect x="2" y="4" width="1" height="1" fill="rgb(90,181,122)" fill-opacity="0.500"/>
    <rect x="0" y="5" width="1" height="1" fill="rgb(117,161,112)" fill-opacity="0.500"/>
    <rect x="2" y="5" width="1" height="1" fill="rgb(17,228,15)" fill-opacity="0.500"/>
    <rect x="0" y="6" width="1" height="1" fill="rgb(85,215,168)" fill-opacity="0.500"/>
    <rect x="1" y="6" width="1" height="1" fill="rgb(84,166,182)" fill-opacity="0.500"/>
    <rect x="2" y="6" width="1" height="1" fill="rgb(84,212,20)" fill-opacity="0.500"/>
  </g>
</svg>
