<?xml version="1.0" encoding="UTF-8"?>
<svg xmlns="http://www.w3.org/2000/svg" width="168" height="216" viewBox="0 0 7 9" shape-rendering="crispEdges">
  <title>U+2709 (✉)</title>
  
  <g>
    <rect x="0" y="2" width="1" height="1" fill="rgb(28,224,94)" fill-opacity="0.500"/>
    <rect x="1" y="2" width="1" height="1" fill="rgb(11,134,49)" fill-opacity="0.500"/>
    <rect x="2" y="2" width="1" height="1" fill="rgb(69,241,187)" fill-opacity="0.500"/>
    <rect x="3" y="2" width="1" height="1" fill="rgb(68,156,47)" fill-opacity="0.500"/>
    <rect x="4" y="2" width="1" height="1" fill="rgb(92,245,82)" fill-opacity="0.500"/>
    <rect x="5" y="2" width="1" height="1" fill="rgb(69,130,59)" fill-opacity="0.500"/>
    <rect x="6" y="2" width="1" height="1" fill="rgb(5,152,182)" fill-opacity="0.500"/>
    <rect x="0" y="3" width="1" height="1" fill="rgb(86,184,16)" fill-opacity="0.500"/>
    <rect x="1" y="3" width="1" height="1" fill="rgb(39,130,28)" fill-opacity="0.500"/>
    <rect x="5" y="3" width="1" height="1" fill="rgb(47,223,40)" fill-opacity="0.500"/>
    <rect x="6" y="3" width="1" height="1" fill="rgb(21,190,27)" fill-opacity="0.500"/>
    <rect x="0" y="4" width="1" height="1" fill="rgb(45,227,81)" fill-opacity="0.500"/>
    <rect x="2" y="4" width="1" height="1" fill="rgb(57,180,144)" fill-opacity="0.500"/>
    <rect x="4" y="4" width="1" height="1" fill="rgb(77,138,125)" fill-opacity="0.500"/>
    <rect x="6" y="4" width="1" height="1" fill="rgb(51,147,135)" fill-opacity="0.500"/>
    <rect x="0" y="5" width="1" height="1" fill="rgb(17,202,149)" fill-opacity="0.500"/>
    <rect x="3" y="5" width="1" height="1" fill="rgb(45,132,46)" fill-opacity="0.500"/>
    <rect x="6" y="5" width="1" height="1" fill="rgb(58,133,0)" fill-opacity="0.500"/>
    <rect x="0" y="6" width="1" height="1" fill="rgb(65,231,57)" fill-opacity="0.500"/>
    <rect x="1" y="6" width="1" height="1" fill="rgb(67,166,140)" fill-opacity="0.500"/>
    <rect x="2" y="6" width="1" height="1" fill="rgb(14,132,191)" fill-opacity="0.500"/>
    <rect x="3" y="6" width="1" height="1" fill="rgb(23,233,40)" fill-opacity="0.500"/>
    <rect x="4" y="6" width="1" height="1" fill="rgb(50,233,128)" fill-opacity="0.500"/>
    <rect x="5" y="6" width="1" height="1" fill="rgb(76,230,109)" fill-opacity="0.500"/>
    <rect x="6" y="6" width="1" height="1" fill="rgb(30,198,101)" fill-opacity="0.500"/>
  </g>
</svg>
