<?xml version="1.0" encoding="UTF-8"?>
<svg xmlns="http://www.w3.org/2000/svg" width="168" height="216" viewBox="0 0 7 9" shape-rendering="crispEdges">
  <title>U+0040 (@)</title>
  
  <g>
    <rect x="0" y="0" width="1" height="1" fill="rgb(98,176,111)" fill-opacity="0.500"/>
    <rect x="1" y="0" width="1" height="1" fill="rgb(78,254,94)" fill-opacity="0.500"/>
    <rect x="2" y="0" width="1" height="1" fill="rgb(102,161,137)" fill-opacity="0.500"/>
    <rect x="3" y="0" width="1" height="1" fill="rgb(96,194,13)" fill-opacity="0.500"/>
    <rect x="4" y="0" width="1" height="1" fill="rgb(127,244,77)" fill-opacity="0.500"/>
    <rect x="5" y="0" width="1" height="1" fill="rgb(59,186,123)" fill-opacity="0.500"/>
    <rect x="6" y="0" width="1" height="1" fill="rgb(27,210,145)" fill-opacity="0.500"/>
    <rect x="6" y="1" width="1" height="1" fill="rgb(13,214,137)" fill-opacity="0.500"/>
    <rect x="0" y="2" width="1" height="1" fill="rgb(106,247,96)" fill-opacity="0.500"/>
    <rect x="1" y="2" width="1" height="1" fill="rgb(26,226,169)" fill-opacity="0.500"/>
    <rect x="2" y="2" width="1" height="1" fill="rgb(64,254,175)" fill-opacity="0.500"/>
    <rect x="3" y="2" width="1" height="1" fill="rgb(123,164,156)" fill-opacity="0.500"/>
    <rect x="4" y="2" width="1" height="1" fill="rgb(13,233,107)" fill-opacity="0.500"/>
    <rect x="6" y="2" width="1" height="1" fill="rgb(74,181,80)" fill-opacity="0.500"/>
    <rect x="0" y="3" width="1" height="1" fill="rgb(51,129,158)" fill-opacity="0.500"/>
    <rect x="4" y="3" width="1" height="1" fill="rgb(93,233,19)" fill-opacity="0.500"/>
    <rect x="6" y="3" width="1" height="1" fill="rgb(100,215,47)" fill-opacity="0.500"/>
    <rect x="0" y="4" width="1" height="1" fill="rgb(80,243,130)" fill-opacity="0.500"/>
    <rect x="2" y="4" width="1" height="1" fill="rgb(91,160,61)" fill-opacity="0.500"/>
    <rect x="3" y="4" width="1" height="1" fill="rgb(24,202,145)" fill-opacity="0.500"/>
    <rect x="4" y="4" width="1" height="1" fill="rgb(94,211,131)" fill-opacity="0.500"/>
    <rect x="6" y="4" width="1" height="1" fill="rgb(9,223,40)" fill-opacity="0.500"/>
    <rect x="0" y="5" width="1" height="1" fill="rgb(108,213,184)" fill-opacity="0.500"/>
    <rect x="2" y="5" width="1" height="1" fill="rgb(16,149,135)" fill-opacity="0.500"/>
    <rect x="4" y="5" width="1" height="1" fill="rgb(45,213,46)" fill-opacity="0.500"/>
    <rect x="6" y="5" width="1" height="1" fill="rgb(115,170,176)" fill-opacity="0.500"/>
    <rect x="0" y="6" width="1" height="1" fill="rgb(9,213,77)" fill-opacity="0.500"/>
    <rect x="2" y="6" width="1" height="1" fill="rgb(113,226,52)" fill-opacity="0.500"/>
    <rect x="3" y="6" width="1" height="1" fill="rgb(82,179,116)" fill-opacity="0.500"/>
    <rect x="4" y="6" width="1" height="1" fill="rgb(111,232,183)" fill-opacity="0.500"/>
    <rect x="6" y="6" width="1" height="1" fill="rgb(35,219,138)" fill-opacity="0.500"/>
    <rect x="0" y="7" width="1" height="1" fill="rgb(64,232,160)" fill-opacity="0.500"/>
    <rect x="6" y="7" width="1" height="1" fill="rgb(39,249,117)" fill-opacity="0.500"/>
    <rect x="0" y="8" width="1" height="1" fill="rgb(92,228,42)" fill-opacity="0.500"/>
    <rect x="1" y="8" width="1" height="1" fill="rgb(46,200,72)" fill-opacity="0.500"/>
    <rect x="2" y="8" width="1" height="1" fill="rgb(66,248,76)" fill-opacity="0.500"/>
    <rect x="3" y="8" width="1" height="1" fill="rgb(63,189,97)" fill-opacity="0.500"/>
    <rect x="4" y="8" width="1" height="1" fill="rgb(72,151,42)" fill-opacity="0.500"/>
    <rect x="5" y="8" width="1" height="1" fill="rgb(92,242,96)" fill-opacity="0.500"/>
    <rect x="6" y="8" width="1" height="1" fill="rgb(43,251,162)" fill-opacity="0.500"/>
  </g>
</svg>
