<?xml version="1.0" encoding="UTF-8"?>
<svg xmlns="http://www.w3.org/2000/svg" width="120" height="216" viewBox="0 0 5 9" shape-rendering="crispEdges">
  <title>U+042B (Ы)</title>
  
  <g>
    <rect x="0" y="0" width="1" height="1" fill="rgb(101,235,75)" fill-opacity="0.500"/>
    <rect x="4" y="0" width="1" height="1" fill="rgb(44,160,131)" fill-opacity="0.500"/>
    <rect x="0" y="1" width="1" height="1" fill="rgb(100,225,119)" fill-opacity="0.500"/>
    <rect x="4" y="1" width="1" height="1" fill="rgb(45,164,40)" fill-opacity="0.500"/>
    <rect x="0" y="2" width="1" height="1" fill="rgb(114,167,28)" fill-opacity="0.500"/>
    <rect x="4" y="2" width="1" height="1" fill="rgb(96,171,159)" fill-opacity="0.500"/>
    <rect x="0" y="3" width="1" height="1" fill="rgb(21,211,10)" fill-opacity="0.500"/>
    <rect x="1" y="3" width="1" height="1" fill="rgb(5,171,1)" fill-opacity="0.500"/>
    <rect x="4" y="3" width="1" height="1" fill="rgb(60,164,100)" fill-opacity="0.500"/>
    <rect x="0" y="4" width="1" height="1" fill="rgb(120,137,106)" fill-opacity="0.500"/>
    <rect x="2" y="4" width="1" height="1" fill="rgb(28,186,96)" fill-opacity="0.500"/>
    <rect x="4" y="4" width="1" height="1" fill="rgb(113,187,8)" fill-opacity="0.500"/>
    <rect x="0" y="5" width="1" height="1" fill="rgb(8,195,81)" fill-opacity="0.500"/>
    <rect x="2" y="5" width="1" height="1" fill="rgb(106,156,50)" fill-opacity="0.500"/>
    <rect x="4" y="5" width="1" height="1" fill="rgb(5,232,20)" fill-opacity="0.500"/>
    <rect x="0" y="6" width="1" height="1" fill="rgb(31,197,22)" fill-opacity="0.500"/>
    <rect x="1" y="6" width="1" height="1" fill="rgb(68,161,93)" fill-opacity="0.500"/>
    <rect x="4" y="6" width="1" height="1" fill="rgb(81,244,135)" fill-opacity="0.500"/>
  </g>
</svg>
