<?xml version="1.0" encoding="UTF-8"?>
<svg xmlns="http://www.w3.org/2000/svg" width="120" height="216" viewBox="0 0 5 9" shape-rendering="crispEdges">
  <title>U+2628 (☨)</title>
  
  <g>
    <rect x="2" y="0" width="1" height="1" fill="rgb(121,249,178)" fill-opacity="0.500"/>
    <rect x="1" y="1" width="1" height="1" fill="rgb(70,136,30)" fill-opacity="0.500"/>
    <rect x="2" y="1" width="1" height="1" fill="rgb(3,149,89)" fill-opacity="0.500"/>
    <rect x="3" y="1" width="1" height="1" fill="rgb(24,128,36)" fill-opacity="0.500"/>
    <rect x="2" y="2" width="1" height="1" fill="rgb(105,172,170)" fill-opacity="0.500"/>
    <rect x="0" y="3" width="1" height="1" fill="rgb(117,166,82)" fill-opacity="0.500"/>
    <rect x="1" y="3" width="1" height="1" fill="rgb(38,151,51)" fill-opacity="0.500"/>
    <rect x="2" y="3" width="1" height="1" fill="rgb(17,243,0)" fill-opacity="0.500"/>
    <rect x="3" y="3" width="1" height="1" fill="rgb(25,229,32)" fill-opacity="0.500"/>
    <rect x="4" y="3" width="1" height="1" fill="rgb(4,242,121)" fill-opacity="0.500"/>
    <rect x="2" y="4" width="1" height="1" fill="rgb(100,132,114)" fill-opacity="0.500"/>
    <rect x="2" y="5" width="1" height="1" fill="rgb(4,196,29)" fill-opacity="0.500"/>
    <rect x="2" y="6" width="1" height="1" fill="rgb(50,167,179)" fill-opacity="0.500"/>
    <rect x="2" y="7" width="1" height="1" fill="rgb(109,166,31)" fill-opacity="0.500"/>
    <rect x="2" y="8" width="1" height="1" fill="rgb(5,188,116)" fill-opacity="0.500"/>
  </g>
</svg>
