<?xml version="1.0" encoding="UTF-8"?>
<svg xmlns="http://www.w3.org/2000/svg" width="120" height="216" viewBox="0 0 5 9" shape-rendering="crispEdges">
  <title>U+05EA (ת)</title>
  
  <g>
    <rect x="0" y="0" width="1" height="1" fill="rgb(44,198,151)" fill-opacity="0.500"/>
    <rect x="1" y="0" width="1" height="1" fill="rgb(118,243,138)" fill-opacity="0.500"/>
    <rect x="2" y="0" width="1" height="1" fill="rgb(51,170,165)" fill-opacity="0.500"/>
    <rect x="3" y="0" width="1" height="1" fill="rgb(77,186,180)" fill-opacity="0.500"/>
    <rect x="4" y="0" width="1" height="1" fill="rgb(89,240,58)" fill-opacity="0.500"/>
    <rect x="2" y="1" width="1" height="1" fill="rgb(122,138,188)" fill-opacity="0.500"/>
    <rect x="2" y="2" width="1" height="1" fill="rgb(17,190,186)" fill-opacity="0.500"/>
    <rect x="0" y="3" width="1" height="1" fill="rgb(4,255,186)" fill-opacity="0.500"/>
    <rect x="1" y="3" width="1" height="1" fill="rgb(22,181,133)" fill-opacity="0.500"/>
    <rect x="2" y="3" width="1" height="1" fill="rgb(95,207,118)" fill-opacity="0.500"/>
    <rect x="3" y="3" width="1" height="1" fill="rgb(8,254,171)" fill-opacity="0.500"/>
    <rect x="4" y="3" width="1" height="1" fill="rgb(92,136,41)" fill-opacity="0.500"/>
    <rect x="2" y="4" width="1" height="1" fill="rgb(36,227,86)" fill-opacity="0.500"/>
    <rect x="2" y="5" width="1" height="1" fill="rgb(39,192,112)" fill-opacity="0.500"/>
    <rect x="2" y="6" width="1" height="1" fill="rgb(85,132,126)" fill-opacity="0.500"/>
  </g>
</svg>
