<?xml version="1.0" encoding="UTF-8"?>
<svg xmlns="http://www.w3.org/2000/svg" width="120" height="216" viewBox="0 0 5 9" shape-rendering="crispEdges">
  <title>U+041C (М)</title>
  
  <g>
    <rect x="0" y="0" width="1" height="1" fill="rgb(81,228,167)" fill-opacity="0.500"/>
    <rect x="1" y="0" width="1" height="1" fill="rgb(62,207,160)" fill-opacity="0.500"/>
    <rect x="2" y="0" width="1" height="1" fill="rgb(48,201,155)" fill-opacity="0.500"/>
    <rect x="3" y="0" width="1" height="1" fill="rgb(89,229,112)" fill-opacity="0.500"/>
    <rect x="4" y="0" width="1" height="1" fill="rgb(121,131,108)" fill-opacity="0.500"/>
    <rect x="0" y="1" width="1" height="1" fill="rgb(109,152,35)" fill-opacity="0.500"/>
    <rect x="2" y="1" width="1" height="1" fill="rgb(65,172,19)" fill-opacity="0.500"/>
    <rect x="4" y="1" width="1" height="1" fill="rgb(2,168,172)" fill-opacity="0.500"/>
    <rect x="0" y="2" width="1" height="1" fill="rgb(18,199,100)" fill-opacity="0.500"/>
    <rect x="2" y="2" width="1" height="1" fill="rgb(29,144,84)" fill-opacity="0.500"/>
    <rect x="4" y="2" width="1" height="1" fill="rgb(73,221,19)" fill-opacity="0.500"/>
    <rect x="0" y="3" width="1" height="1" fill="rgb(55,242,126)" fill-opacity="0.500"/>
    <rect x="2" y="3" width="1" height="1" fill="rgb(73,249,67)" fill-opacity="0.500"/>
    <rect x="4" y="3" width="1" height="1" fill="rgb(51,143,159)" fill-opacity="0.500"/>
    <rect x="0" y="4" width="1" height="1" fill="rgb(78,229,26)" fill-opacity="0.500"/>
    <rect x="2" y="4" width="1" height="1" fill="rgb(34,190,76)" fill-opacity="0.500"/>
    <rect x="4" y="4" width="1" height="1" fill="rgb(16,242,165)" fill-opacity="0.500"/>
    <rect x="0" y="5" width="1" height="1" fill="rgb(25,196,150)" fill-opacity="0.500"/>
    <rect x="2" y="5" width="1" height="1" fill="rgb(119,205,166)" fill-opacity="0.500"/>
    <rect x="4" y="5" width="1" height="1" fill="rgb(25,145,130)" fill-opacity="0.500"/>
    <rect x="0" y="6" width="1" height="1" fill="rgb(120,152,31)" fill-opacity="0.500"/>
    <rect x="2" y="6" width="1" height="1" fill="rgb(95,161,118)" fill-opacity="0.500"/>
    <rect x="4" y="6" width="1" height="1" fill="rgb(82,229,88)" fill-opacity="0.500"/>
  </g>
</svg>
