<?xml version="1.0" encoding="UTF-8"?>
<svg xmlns="http://www.w3.org/2000/svg" width="96" height="216" viewBox="0 0 4 9" shape-rendering="crispEdges">
  <title>U+042D (Э)</title>
  
  <g>
    <rect x="0" y="0" width="1" height="1" fill="rgb(36,227,88)" fill-opacity="0.500"/>
    <rect x="1" y="0" width="1" height="1" fill="rgb(100,191,46)" fill-opacity="0.500"/>
    <rect x="2" y="0" width="1" height="1" fill="rgb(20,176,118)" fill-opacity="0.500"/>
    <rect x="3" y="0" width="1" height="1" fill="rgb(45,145,89)" fill-opacity="0.500"/>
    <rect x="3" y="1" width="1" height="1" fill="rgb(127,136,75)" fill-opacity="0.500"/>
    <rect x="3" y="2" width="1" height="1" fill="rgb(77,201,189)" fill-opacity="0.500"/>
    <rect x="1" y="3" width="1" height="1" fill="rgb(113,174,116)" fill-opacity="0.500"/>
    <rect x="2" y="3" width="1" height="1" fill="rgb(77,225,41)" fill-opacity="0.500"/>
    <rect x="3" y="3" width="1" height="1" fill="rgb(36,159,160)" fill-opacity="0.500"/>
    <rect x="3" y="4" width="1" height="1" fill="rgb(55,208,147)" fill-opacity="0.500"/>
    <rect x="3" y="5" width="1" height="1" fill="rgb(119,245,34)" fill-opacity="0.500"/>
    <rect x="0" y="6" width="1" height="1" fill="rgb(42,202,186)" fill-opacity="0.500"/>
    <rect x="1" y="6" width="1" height="1" fill="rgb(24,171,39)" fill-opacity="0.500"/>
    <rect x="2" y="6" width="1" height="1" fill="rgb(17,155,112)" fill-opacity="0.500"/>
    <rect x="3" y="6" width="1" height="1" fill="rgb(68,219,119)" fill-opacity="0.500"/>
  </g>
</svg>
