<?xml version="1.0" encoding="UTF-8"?>
<svg xmlns="http://www.w3.org/2000/svg" width="120" height="216" viewBox="0 0 5 9" shape-rendering="crispEdges">
  <title>U+05E5 (ץ)</title>
  
  <g>
    <rect x="2" y="0" width="1" height="1" fill="rgb(96,208,72)" fill-opacity="0.500"/>
    <rect x="2" y="1" width="1" height="1" fill="rgb(11,210,90)" fill-opacity="0.500"/>
    <rect x="3" y="1" width="1" height="1" fill="rgb(15,198,143)" fill-opacity="0.500"/>
    <rect x="1" y="2" width="1" height="1" fill="rgb(115,133,173)" fill-opacity="0.500"/>
    <rect x="3" y="2" width="1" height="1" fill="rgb(60,230,75)" fill-opacity="0.500"/>
    <rect x="0" y="3" width="1" height="1" fill="rgb(123,247,11)" fill-opacity="0.500"/>
    <rect x="3" y="3" width="1" height="1" fill="rgb(123,167,155)" fill-opacity="0.500"/>
    <rect x="0" y="4" width="1" height="1" fill="rgb(13,193,5)" fill-opacity="0.500"/>
    <rect x="3" y="4" width="1" height="1" fill="rgb(2,249,82)" fill-opacity="0.500"/>
    <rect x="0" y="5" width="1" height="1" fill="rgb(51,171,97)" fill-opacity="0.500"/>
    <rect x="3" y="5" width="1" height="1" fill="rgb(106,241,139)" fill-opacity="0.500"/>
    <rect x="0" y="6" width="1" height="1" fill="rgb(36,240,186)" fill-opacity="0.500"/>
    <rect x="1" y="6" width="1" height="1" fill="rgb(64,172,165)" fill-opacity="0.500"/>
    <rect x="2" y="6" width="1" height="1" fill="rgb(85,153,102)" fill-opacity="0.500"/>
    <rect x="3" y="6" width="1" height="1" fill="rgb(125,216,143)" fill-opacity="0.500"/>
    <rect x="2" y="7" width="1" height="1" fill="rgb(9,136,107)" fill-opacity="0.500"/>
    <rect x="2" y="8" width="1" height="1" fill="rgb(124,224,142)" fill-opacity="0.500"/>
  </g>
</svg>
