<?xml version="1.0" encoding="UTF-8"?>
<svg xmlns="http://www.w3.org/2000/svg" width="120" height="216" viewBox="0 0 5 9" shape-rendering="crispEdges">
  <title>U+2628 (☨)</title>
  
  <g>
    <rect x="2" y="0" width="1" height="1" fill="rgb(24,196,68)" fill-opacity="0.500"/>
    <rect x="1" y="1" width="1" height="1" fill="rgb(91,197,156)" fill-opacity="0.500"/>
    <rect x="2" y="1" width="1" height="1" fill="rgb(85,148,10)" fill-opacity="0.500"/>
    <rect x="3" y="1" width="1" height="1" fill="rgb(103,187,48)" fill-opacity="0.500"/>
    <rect x="2" y="2" width="1" height="1" fill="rgb(115,140,60)" fill-opacity="0.500"/>
    <rect x="0" y="3" width="1" height="1" fill="rgb(90,152,34)" fill-opacity="0.500"/>
    <rect x="1" y="3" width="1" height="1" fill="rgb(96,203,136)" fill-opacity="0.500"/>
    <rect x="2" y="3" width="1" height="1" fill="rgb(120,226,100)" fill-opacity="0.500"/>
    <rect x="3" y="3" width="1" height="1" fill="rgb(33,179,29)" fill-opacity="0.500"/>
    <rect x="4" y="3" width="1" height="1" fill="rgb(111,196,82)" fill-opacity="0.500"/>
    <rect x="2" y="4" width="1" height="1" fill="rgb(69,131,8)" fill-opacity="0.500"/>
    <rect x="2" y="5" width="1" height="1" fill="rgb(111,185,80)" fill-opacity="0.500"/>
    <rect x="2" y="6" width="1" height="1" fill="rgb(29,184,157)" fill-opacity="0.500"/>
    <rect x="2" y="7" width="1" height="1" fill="rgb(93,213,60)" fill-opacity="0.500"/>
    <rect x="2" y="8" width="1" height="1" fill="rgb(110,144,182)" fill-opacity="0.500"/>
  </g>
</svg>
