<?xml version="1.0" encoding="UTF-8"?>
<svg xmlns="http://www.w3.org/2000/svg" width="72" height="216" viewBox="0 0 3 9" shape-rendering="crispEdges">
  <title>U+041E (О)</title>
  
  <g>
    <rect x="0" y="0" width="1" height="1" fill="rgb(77,166,60)" fill-opacity="0.500"/>
    <rect x="1" y="0" width="1" height="1" fill="rgb(88,224,164)" fill-opacity="0.500"/>
    <rect x="2" y="0" width="1" height="1" fill="rgb(1,243,134)" fill-opacity="0.500"/>
    <rect x="0" y="1" width="1" height="1" fill="rgb(31,208,107)" fill-opacity="0.500"/>
    <rect x="2" y="1" width="1" height="1" fill="rgb(10,209,104)" fill-opacity="0.500"/>
    <rect x="0" y="2" width="1" height="1" fill="rgb(81,149,112)" fill-opacity="0.500"/>
    <rect x="2" y="2" width="1" height="1" fill="rgb(49,190,49)" fill-opacity="0.500"/>
    <rect x="0" y="3" width="1" height="1" fill="rgb(88,198,154)" fill-opacity="0.500"/>
    <rect x="2" y="3" width="1" height="1" fill="rgb(40,177,108)" fill-opacity="0.500"/>
    <rect x="0" y="4" width="1" height="1" fill="rgb(127,166,156)" fill-opacity="0.500"/>
    <rect x="2" y="4" width="1" height="1" fill="rgb(32,180,93)" fill-opacity="0.500"/>
    <rect x="0" y="5" width="1" height="1" fill="rgb(20,232,181)" fill-opacity="0.500"/>
    <rect x="2" y="5" width="1" height="1" fill="rgb(50,131,70)" fill-opacity="0.500"/>
    <rect x="0" y="6" width="1" height="1" fill="rgb(82,181,24)" fill-opacity="0.500"/>
    <rect x="1" y="6" width="1" height="1" fill="rgb(28,239,112)" fill-opacity="0.500"/>
    <rect x="2" y="6" width="1" height="1" fill="rgb(67,229,84)" fill-opacity="0.500"/>
  </g>
</svg>
