<?xml version="1.0" encoding="UTF-8"?>
<svg xmlns="http://www.w3.org/2000/svg" width="120" height="216" viewBox="0 0 5 9" shape-rendering="crispEdges">
  <title>U+0428 (ле)</title>
  
  <g>
    <rect x="0" y="0" width="1" height="1" fill="rgb(65,134,152)" fill-opacity="0.500"/>
    <rect x="2" y="0" width="1" height="1" fill="rgb(57,144,146)" fill-opacity="0.500"/>
    <rect x="4" y="0" width="1" height="1" fill="rgb(91,145,6)" fill-opacity="0.500"/>
    <rect x="0" y="1" width="1" height="1" fill="rgb(33,229,142)" fill-opacity="0.500"/>
    <rect x="2" y="1" width="1" height="1" fill="rgb(93,251,45)" fill-opacity="0.500"/>
    <rect x="4" y="1" width="1" height="1" fill="rgb(62,252,138)" fill-opacity="0.500"/>
    <rect x="0" y="2" width="1" height="1" fill="rgb(53,223,75)" fill-opacity="0.500"/>
    <rect x="2" y="2" width="1" height="1" fill="rgb(103,138,104)" fill-opacity="0.500"/>
    <rect x="4" y="2" width="1" height="1" fill="rgb(50,192,190)" fill-opacity="0.500"/>
    <rect x="0" y="3" width="1" height="1" fill="rgb(104,165,84)" fill-opacity="0.500"/>
    <rect x="2" y="3" width="1" height="1" fill="rgb(28,135,131)" fill-opacity="0.500"/>
    <rect x="4" y="3" width="1" height="1" fill="rgb(16,219,45)" fill-opacity="0.500"/>
    <rect x="0" y="4" width="1" height="1" fill="rgb(113,212,118)" fill-opacity="0.500"/>
    <rect x="2" y="4" width="1" height="1" fill="rgb(65,254,57)" fill-opacity="0.500"/>
    <rect x="4" y="4" width="1" height="1" fill="rgb(24,228,75)" fill-opacity="0.500"/>
    <rect x="0" y="5" width="1" height="1" fill="rgb(99,155,165)" fill-opacity="0.500"/>
    <rect x="2" y="5" width="1" height="1" fill="rgb(27,146,126)" fill-opacity="0.500"/>
    <rect x="4" y="5" width="1" height="1" fill="rgb(90,140,18)" fill-opacity="0.500"/>
    <rect x="0" y="6" width="1" height="1" fill="rgb(116,244,139)" fill-opacity="0.500"/>
    <rect x="1" y="6" width="1" height="1" fill="rgb(10,222,141)" fill-opacity="0.500"/>
    <rect x="2" y="6" width="1" height="1" fill="rgb(115,132,85)" fill-opacity="0.500"/>
    <rect x="3" y="6" width="1" height="1" fill="rgb(53,241,95)" fill-opacity="0.500"/>
    <rect x="4" y="6" width="1" height="1" fill="rgb(35,245,165)" fill-opacity="0.500"/>
  </g>
</svg>
