<?xml version="1.0" encoding="UTF-8"?>
<svg xmlns="http://www.w3.org/2000/svg" width="168" height="216" viewBox="0 0 7 9" shape-rendering="crispEdges">
  <title>U+2709 (✉)</title>
  
  <g>
    <rect x="0" y="2" width="1" height="1" fill="rgb(12,248,43)" fill-opacity="0.500"/>
    <rect x="1" y="2" width="1" height="1" fill="rgb(25,225,156)" fill-opacity="0.500"/>
    <rect x="2" y="2" width="1" height="1" fill="rgb(56,216,90)" fill-opacity="0.500"/>
    <rect x="3" y="2" width="1" height="1" fill="rgb(43,196,26)" fill-opacity="0.500"/>
    <rect x="4" y="2" width="1" height="1" fill="rgb(77,212,4)" fill-opacity="0.500"/>
    <rect x="5" y="2" width="1" height="1" fill="rgb(127,212,11)" fill-opacity="0.500"/>
    <rect x="6" y="2" width="1" height="1" fill="rgb(119,240,77)" fill-opacity="0.500"/>
    <rect x="0" y="3" width="1" height="1" fill="rgb(109,147,84)" fill-opacity="0.500"/>
    <rect x="1" y="3" width="1" height="1" fill="rgb(15,188,13)" fill-opacity="0.500"/>
    <rect x="5" y="3" width="1" height="1" fill="rgb(104,174,13)" fill-opacity="0.500"/>
    <rect x="6" y="3" width="1" height="1" fill="rgb(66,252,42)" fill-opacity="0.500"/>
    <rect x="0" y="4" width="1" height="1" fill="rgb(31,176,117)" fill-opacity="0.500"/>
    <rect x="2" y="4" width="1" height="1" fill="rgb(99,200,172)" fill-opacity="0.500"/>
    <rect x="4" y="4" width="1" height="1" fill="rgb(102,155,103)" fill-opacity="0.500"/>
    <rect x="6" y="4" width="1" height="1" fill="rgb(83,189,37)" fill-opacity="0.500"/>
    <rect x="0" y="5" width="1" height="1" fill="rgb(112,199,189)" fill-opacity="0.500"/>
    <rect x="3" y="5" width="1" height="1" fill="rgb(54,199,54)" fill-opacity="0.500"/>
    <rect x="6" y="5" width="1" height="1" fill="rgb(17,237,74)" fill-opacity="0.500"/>
    <rect x="0" y="6" width="1" height="1" fill="rgb(76,203,181)" fill-opacity="0.500"/>
    <rect x="1" y="6" width="1" height="1" fill="rgb(31,214,136)" fill-opacity="0.500"/>
    <rect x="2" y="6" width="1" height="1" fill="rgb(40,143,3)" fill-opacity="0.500"/>
    <rect x="3" y="6" width="1" height="1" fill="rgb(82,241,43)" fill-opacity="0.500"/>
    <rect x="4" y="6" width="1" height="1" fill="rgb(43,139,121)" fill-opacity="0.500"/>
    <rect x="5" y="6" width="1" height="1" fill="rgb(63,166,149)" fill-opacity="0.500"/>
    <rect x="6" y="6" width="1" height="1" fill="rgb(56,202,39)" fill-opacity="0.500"/>
  </g>
</svg>
