<?xml version="1.0" encoding="UTF-8"?>
<svg xmlns="http://www.w3.org/2000/svg" width="120" height="216" viewBox="0 0 5 9" shape-rendering="crispEdges">
  <title>U+05E4 (פ)</title>
  
  <g>
    <rect x="0" y="0" width="1" height="1" fill="rgb(109,240,30)" fill-opacity="0.500"/>
    <rect x="1" y="0" width="1" height="1" fill="rgb(22,139,104)" fill-opacity="0.500"/>
    <rect x="2" y="0" width="1" height="1" fill="rgb(41,214,62)" fill-opacity="0.500"/>
    <rect x="3" y="0" width="1" height="1" fill="rgb(105,240,91)" fill-opacity="0.500"/>
    <rect x="0" y="1" width="1" height="1" fill="rgb(85,202,15)" fill-opacity="0.500"/>
    <rect x="4" y="1" width="1" height="1" fill="rgb(22,221,58)" fill-opacity="0.500"/>
    <rect x="0" y="2" width="1" height="1" fill="rgb(28,174,24)" fill-opacity="0.500"/>
    <rect x="4" y="2" width="1" height="1" fill="rgb(113,198,137)" fill-opacity="0.500"/>
    <rect x="0" y="3" width="1" height="1" fill="rgb(6,208,60)" fill-opacity="0.500"/>
    <rect x="1" y="3" width="1" height="1" fill="rgb(77,201,34)" fill-opacity="0.500"/>
    <rect x="2" y="3" width="1" height="1" fill="rgb(84,209,36)" fill-opacity="0.500"/>
    <rect x="3" y="3" width="1" height="1" fill="rgb(78,194,61)" fill-opacity="0.500"/>
    <rect x="0" y="4" width="1" height="1" fill="rgb(47,156,88)" fill-opacity="0.500"/>
    <rect x="0" y="5" width="1" height="1" fill="rgb(100,201,13)" fill-opacity="0.500"/>
    <rect x="0" y="6" width="1" height="1" fill="rgb(37,174,121)" fill-opacity="0.500"/>
  </g>
</svg>
