<?xml version="1.0" encoding="UTF-8"?>
<svg xmlns="http://www.w3.org/2000/svg" width="120" height="216" viewBox="0 0 5 9" shape-rendering="crispEdges">
  <title>U+20BF (₿)</title>
  
  <g>
    <rect x="1" y="1" width="1" height="1" fill="rgb(59,137,164)" fill-opacity="0.500"/>
    <rect x="3" y="1" width="1" height="1" fill="rgb(26,209,11)" fill-opacity="0.500"/>
    <rect x="0" y="2" width="1" height="1" fill="rgb(107,130,161)" fill-opacity="0.500"/>
    <rect x="1" y="2" width="1" height="1" fill="rgb(126,144,107)" fill-opacity="0.500"/>
    <rect x="2" y="2" width="1" height="1" fill="rgb(39,237,32)" fill-opacity="0.500"/>
    <rect x="3" y="2" width="1" height="1" fill="rgb(33,185,42)" fill-opacity="0.500"/>
    <rect x="0" y="3" width="1" height="1" fill="rgb(123,150,96)" fill-opacity="0.500"/>
    <rect x="4" y="3" width="1" height="1" fill="rgb(78,195,78)" fill-opacity="0.500"/>
    <rect x="0" y="4" width="1" height="1" fill="rgb(93,223,64)" fill-opacity="0.500"/>
    <rect x="1" y="4" width="1" height="1" fill="rgb(8,138,19)" fill-opacity="0.500"/>
    <rect x="2" y="4" width="1" height="1" fill="rgb(55,195,5)" fill-opacity="0.500"/>
    <rect x="3" y="4" width="1" height="1" fill="rgb(92,184,73)" fill-opacity="0.500"/>
    <rect x="0" y="5" width="1" height="1" fill="rgb(124,135,90)" fill-opacity="0.500"/>
    <rect x="4" y="5" width="1" height="1" fill="rgb(88,185,145)" fill-opacity="0.500"/>
    <rect x="0" y="6" width="1" height="1" fill="rgb(18,192,11)" fill-opacity="0.500"/>
    <rect x="1" y="6" width="1" height="1" fill="rgb(85,167,120)" fill-opacity="0.500"/>
    <rect x="2" y="6" width="1" height="1" fill="rgb(20,205,179)" fill-opacity="0.500"/>
    <rect x="3" y="6" width="1" height="1" fill="rgb(120,147,68)" fill-opacity="0.500"/>
    <rect x="1" y="7" width="1" height="1" fill="rgb(67,152,4)" fill-opacity="0.500"/>
    <rect x="3" y="7" width="1" height="1" fill="rgb(82,253,157)" fill-opacity="0.500"/>
  </g>
</svg>
