<?xml version="1.0" encoding="UTF-8"?>
<svg xmlns="http://www.w3.org/2000/svg" width="168" height="216" viewBox="0 0 7 9" shape-rendering="crispEdges">
  <title>U+2709 (✉)</title>
  
  <g>
    <rect x="0" y="2" width="1" height="1" fill="rgb(31,215,152)" fill-opacity="0.500"/>
    <rect x="1" y="2" width="1" height="1" fill="rgb(94,186,103)" fill-opacity="0.500"/>
    <rect x="2" y="2" width="1" height="1" fill="rgb(68,206,47)" fill-opacity="0.500"/>
    <rect x="3" y="2" width="1" height="1" fill="rgb(29,250,53)" fill-opacity="0.500"/>
    <rect x="4" y="2" width="1" height="1" fill="rgb(112,215,101)" fill-opacity="0.500"/>
    <rect x="5" y="2" width="1" height="1" fill="rgb(81,129,146)" fill-opacity="0.500"/>
    <rect x="6" y="2" width="1" height="1" fill="rgb(71,198,118)" fill-opacity="0.500"/>
    <rect x="0" y="3" width="1" height="1" fill="rgb(127,209,26)" fill-opacity="0.500"/>
    <rect x="1" y="3" width="1" height="1" fill="rgb(93,202,75)" fill-opacity="0.500"/>
    <rect x="5" y="3" width="1" height="1" fill="rgb(66,228,102)" fill-opacity="0.500"/>
    <rect x="6" y="3" width="1" height="1" fill="rgb(54,244,174)" fill-opacity="0.500"/>
    <rect x="0" y="4" width="1" height="1" fill="rgb(17,132,97)" fill-opacity="0.500"/>
    <rect x="2" y="4" width="1" height="1" fill="rgb(9,238,176)" fill-opacity="0.500"/>
    <rect x="4" y="4" width="1" height="1" fill="rgb(121,243,23)" fill-opacity="0.500"/>
    <rect x="6" y="4" width="1" height="1" fill="rgb(73,175,42)" fill-opacity="0.500"/>
    <rect x="0" y="5" width="1" height="1" fill="rgb(103,145,10)" fill-opacity="0.500"/>
    <rect x="3" y="5" width="1" height="1" fill="rgb(119,242,134)" fill-opacity="0.500"/>
    <rect x="6" y="5" width="1" height="1" fill="rgb(52,135,144)" fill-opacity="0.500"/>
    <rect x="0" y="6" width="1" height="1" fill="rgb(21,189,150)" fill-opacity="0.500"/>
    <rect x="1" y="6" width="1" height="1" fill="rgb(104,220,82)" fill-opacity="0.500"/>
    <rect x="2" y="6" width="1" height="1" fill="rgb(63,160,177)" fill-opacity="0.500"/>
    <rect x="3" y="6" width="1" height="1" fill="rgb(12,180,188)" fill-opacity="0.500"/>
    <rect x="4" y="6" width="1" height="1" fill="rgb(79,215,153)" fill-opacity="0.500"/>
    <rect x="5" y="6" width="1" height="1" fill="rgb(65,251,116)" fill-opacity="0.500"/>
    <rect x="6" y="6" width="1" height="1" fill="rgb(36,206,29)" fill-opacity="0.500"/>
  </g>
</svg>
