<?xml version="1.0" encoding="UTF-8"?>
<svg xmlns="http://www.w3.org/2000/svg" width="120" height="216" viewBox="0 0 5 9" shape-rendering="crispEdges">
  <title>U+0428 (Ш)</title>
  
  <g>
    <rect x="0" y="0" width="1" height="1" fill="rgb(118,252,67)" fill-opacity="0.500"/>
    <rect x="2" y="0" width="1" height="1" fill="rgb(70,198,176)" fill-opacity="0.500"/>
    <rect x="4" y="0" width="1" height="1" fill="rgb(100,200,162)" fill-opacity="0.500"/>
    <rect x="0" y="1" width="1" height="1" fill="rgb(93,169,48)" fill-opacity="0.500"/>
    <rect x="2" y="1" width="1" height="1" fill="rgb(7,251,11)" fill-opacity="0.500"/>
    <rect x="4" y="1" width="1" height="1" fill="rgb(28,230,62)" fill-opacity="0.500"/>
    <rect x="0" y="2" width="1" height="1" fill="rgb(35,163,160)" fill-opacity="0.500"/>
    <rect x="2" y="2" width="1" height="1" fill="rgb(84,225,176)" fill-opacity="0.500"/>
    <rect x="4" y="2" width="1" height="1" fill="rgb(125,148,123)" fill-opacity="0.500"/>
    <rect x="0" y="3" width="1" height="1" fill="rgb(69,199,66)" fill-opacity="0.500"/>
    <rect x="2" y="3" width="1" height="1" fill="rgb(42,245,190)" fill-opacity="0.500"/>
    <rect x="4" y="3" width="1" height="1" fill="rgb(86,224,105)" fill-opacity="0.500"/>
    <rect x="0" y="4" width="1" height="1" fill="rgb(87,235,126)" fill-opacity="0.500"/>
    <rect x="2" y="4" width="1" height="1" fill="rgb(54,164,7)" fill-opacity="0.500"/>
    <rect x="4" y="4" width="1" height="1" fill="rgb(95,224,166)" fill-opacity="0.500"/>
    <rect x="0" y="5" width="1" height="1" fill="rgb(83,196,108)" fill-opacity="0.500"/>
    <rect x="2" y="5" width="1" height="1" fill="rgb(35,183,92)" fill-opacity="0.500"/>
    <rect x="4" y="5" width="1" height="1" fill="rgb(126,245,149)" fill-opacity="0.500"/>
    <rect x="0" y="6" width="1" height="1" fill="rgb(115,189,125)" fill-opacity="0.500"/>
    <rect x="1" y="6" width="1" height="1" fill="rgb(85,148,140)" fill-opacity="0.500"/>
    <rect x="2" y="6" width="1" height="1" fill="rgb(98,188,14)" fill-opacity="0.500"/>
    <rect x="3" y="6" width="1" height="1" fill="rgb(112,198,29)" fill-opacity="0.500"/>
    <rect x="4" y="6" width="1" height="1" fill="rgb(108,236,87)" fill-opacity="0.500"/>
  </g>
</svg>
