<?xml version="1.0" encoding="UTF-8"?>
<svg xmlns="http://www.w3.org/2000/svg" width="120" height="216" viewBox="0 0 5 9" shape-rendering="crispEdges">
  <title>U+0645 (م)</title>
  
  <g>
    <rect x="1" y="1" width="1" height="1" fill="rgb(107,219,81)" fill-opacity="0.500"/>
    <rect x="2" y="1" width="1" height="1" fill="rgb(97,241,92)" fill-opacity="0.500"/>
    <rect x="3" y="1" width="1" height="1" fill="rgb(68,166,40)" fill-opacity="0.500"/>
    <rect x="0" y="2" width="1" height="1" fill="rgb(45,231,133)" fill-opacity="0.500"/>
    <rect x="4" y="2" width="1" height="1" fill="rgb(62,165,186)" fill-opacity="0.500"/>
    <rect x="0" y="3" width="1" height="1" fill="rgb(102,137,117)" fill-opacity="0.500"/>
    <rect x="2" y="3" width="1" height="1" fill="rgb(13,158,47)" fill-opacity="0.500"/>
    <rect x="4" y="3" width="1" height="1" fill="rgb(3,251,189)" fill-opacity="0.500"/>
    <rect x="0" y="4" width="1" height="1" fill="rgb(108,214,183)" fill-opacity="0.500"/>
    <rect x="4" y="4" width="1" height="1" fill="rgb(75,218,160)" fill-opacity="0.500"/>
    <rect x="0" y="5" width="1" height="1" fill="rgb(1,231,76)" fill-opacity="0.500"/>
    <rect x="4" y="5" width="1" height="1" fill="rgb(66,164,16)" fill-opacity="0.500"/>
    <rect x="1" y="6" width="1" height="1" fill="rgb(10,220,152)" fill-opacity="0.500"/>
    <rect x="2" y="6" width="1" height="1" fill="rgb(118,217,71)" fill-opacity="0.500"/>
    <rect x="3" y="6" width="1" height="1" fill="rgb(11,170,121)" fill-opacity="0.500"/>
    <rect x="2" y="7" width="1" height="1" fill="rgb(101,255,117)" fill-opacity="0.500"/>
  </g>
</svg>
