<?xml version="1.0" encoding="UTF-8"?>
<svg xmlns="http://www.w3.org/2000/svg" width="96" height="216" viewBox="0 0 4 9" shape-rendering="crispEdges">
  <title>U+0418 (И)</title>
  
  <g>
    <rect x="0" y="0" width="1" height="1" fill="rgb(89,131,140)" fill-opacity="0.500"/>
    <rect x="3" y="0" width="1" height="1" fill="rgb(77,235,21)" fill-opacity="0.500"/>
    <rect x="0" y="1" width="1" height="1" fill="rgb(31,198,58)" fill-opacity="0.500"/>
    <rect x="3" y="1" width="1" height="1" fill="rgb(70,132,5)" fill-opacity="0.500"/>
    <rect x="0" y="2" width="1" height="1" fill="rgb(16,149,69)" fill-opacity="0.500"/>
    <rect x="2" y="2" width="1" height="1" fill="rgb(77,244,88)" fill-opacity="0.500"/>
    <rect x="3" y="2" width="1" height="1" fill="rgb(67,167,9)" fill-opacity="0.500"/>
    <rect x="0" y="3" width="1" height="1" fill="rgb(78,237,38)" fill-opacity="0.500"/>
    <rect x="1" y="3" width="1" height="1" fill="rgb(112,214,100)" fill-opacity="0.500"/>
    <rect x="3" y="3" width="1" height="1" fill="rgb(70,134,156)" fill-opacity="0.500"/>
    <rect x="0" y="4" width="1" height="1" fill="rgb(5,135,77)" fill-opacity="0.500"/>
    <rect x="3" y="4" width="1" height="1" fill="rgb(8,177,15)" fill-opacity="0.500"/>
    <rect x="0" y="5" width="1" height="1" fill="rgb(89,163,22)" fill-opacity="0.500"/>
    <rect x="3" y="5" width="1" height="1" fill="rgb(21,213,28)" fill-opacity="0.500"/>
    <rect x="0" y="6" width="1" height="1" fill="rgb(103,236,147)" fill-opacity="0.500"/>
    <rect x="3" y="6" width="1" height="1" fill="rgb(97,228,161)" fill-opacity="0.500"/>
  </g>
</svg>
