<?xml version="1.0" encoding="UTF-8"?>
<svg xmlns="http://www.w3.org/2000/svg" width="216" height="216" viewBox="0 0 9 9" shape-rendering="crispEdges">
  <title>U+2681 (⚁)</title>
  
  <g>
    <rect x="0" y="0" width="1" height="1" fill="rgb(114,144,169)" fill-opacity="0.500"/>
    <rect x="1" y="0" width="1" height="1" fill="rgb(105,173,14)" fill-opacity="0.500"/>
    <rect x="2" y="0" width="1" height="1" fill="rgb(55,215,42)" fill-opacity="0.500"/>
    <rect x="3" y="0" width="1" height="1" fill="rgb(8,184,178)" fill-opacity="0.500"/>
    <rect x="4" y="0" width="1" height="1" fill="rgb(16,211,59)" fill-opacity="0.500"/>
    <rect x="5" y="0" width="1" height="1" fill="rgb(115,147,67)" fill-opacity="0.500"/>
    <rect x="6" y="0" width="1" height="1" fill="rgb(17,190,137)" fill-opacity="0.500"/>
    <rect x="7" y="0" width="1" height="1" fill="rgb(115,203,175)" fill-opacity="0.500"/>
    <rect x="8" y="0" width="1" height="1" fill="rgb(49,253,29)" fill-opacity="0.500"/>
    <rect x="0" y="1" width="1" height="1" fill="rgb(38,185,180)" fill-opacity="0.500"/>
    <rect x="8" y="1" width="1" height="1" fill="rgb(41,227,103)" fill-opacity="0.500"/>
    <rect x="0" y="2" width="1" height="1" fill="rgb(78,166,182)" fill-opacity="0.500"/>
    <rect x="2" y="2" width="1" height="1" fill="rgb(30,225,10)" fill-opacity="0.500"/>
    <rect x="8" y="2" width="1" height="1" fill="rgb(104,251,18)" fill-opacity="0.500"/>
    <rect x="0" y="3" width="1" height="1" fill="rgb(10,149,148)" fill-opacity="0.500"/>
    <rect x="8" y="3" width="1" height="1" fill="rgb(104,214,48)" fill-opacity="0.500"/>
    <rect x="0" y="4" width="1" height="1" fill="rgb(71,249,152)" fill-opacity="0.500"/>
    <rect x="8" y="4" width="1" height="1" fill="rgb(57,134,137)" fill-opacity="0.500"/>
    <rect x="0" y="5" width="1" height="1" fill="rgb(60,218,139)" fill-opacity="0.500"/>
    <rect x="8" y="5" width="1" height="1" fill="rgb(20,139,116)" fill-opacity="0.500"/>
    <rect x="0" y="6" width="1" height="1" fill="rgb(65,193,149)" fill-opacity="0.500"/>
    <rect x="6" y="6" width="1" height="1" fill="rgb(61,253,188)" fill-opacity="0.500"/>
    <rect x="8" y="6" width="1" height="1" fill="rgb(96,208,10)" fill-opacity="0.500"/>
    <rect x="0" y="7" width="1" height="1" fill="rgb(104,165,74)" fill-opacity="0.500"/>
    <rect x="8" y="7" width="1" height="1" fill="rgb(44,163,42)" fill-opacity="0.500"/>
    <rect x="0" y="8" width="1" height="1" fill="rgb(49,223,138)" fill-opacity="0.500"/>
    <rect x="1" y="8" width="1" height="1" fill="rgb(14,144,138)" fill-opacity="0.500"/>
    <rect x="2" y="8" width="1" height="1" fill="rgb(47,253,112)" fill-opacity="0.500"/>
    <rect x="3" y="8" width="1" height="1" fill="rgb(112,177,84)" fill-opacity="0.500"/>
    <rect x="4" y="8" width="1" height="1" fill="rgb(37,136,70)" fill-opacity="0.500"/>
    <rect x="5" y="8" width="1" height="1" fill="rgb(29,227,92)" fill-opacity="0.500"/>
    <rect x="6" y="8" width="1" height="1" fill="rgb(71,224,57)" fill-opacity="0.500"/>
    <rect x="7" y="8" width="1" height="1" fill="rgb(82,190,81)" fill-opacity="0.500"/>
    <rect x="8" y="8" width="1" height="1" fill="rgb(28,169,123)" fill-opacity="0.500"/>
  </g>
</svg>
