<?xml version="1.0" encoding="UTF-8"?>
<svg xmlns="http://www.w3.org/2000/svg" width="120" height="216" viewBox="0 0 5 9" shape-rendering="crispEdges">
  <title>U+05E5 (ץ)</title>
  
  <g>
    <rect x="2" y="0" width="1" height="1" fill="rgb(70,190,36)" fill-opacity="0.500"/>
    <rect x="2" y="1" width="1" height="1" fill="rgb(113,215,132)" fill-opacity="0.500"/>
    <rect x="3" y="1" width="1" height="1" fill="rgb(23,226,108)" fill-opacity="0.500"/>
    <rect x="1" y="2" width="1" height="1" fill="rgb(104,143,136)" fill-opacity="0.500"/>
    <rect x="3" y="2" width="1" height="1" fill="rgb(51,157,2)" fill-opacity="0.500"/>
    <rect x="0" y="3" width="1" height="1" fill="rgb(113,143,58)" fill-opacity="0.500"/>
    <rect x="3" y="3" width="1" height="1" fill="rgb(24,231,132)" fill-opacity="0.500"/>
    <rect x="0" y="4" width="1" height="1" fill="rgb(101,129,168)" fill-opacity="0.500"/>
    <rect x="3" y="4" width="1" height="1" fill="rgb(21,138,179)" fill-opacity="0.500"/>
    <rect x="0" y="5" width="1" height="1" fill="rgb(27,145,35)" fill-opacity="0.500"/>
    <rect x="3" y="5" width="1" height="1" fill="rgb(60,185,80)" fill-opacity="0.500"/>
    <rect x="0" y="6" width="1" height="1" fill="rgb(33,159,152)" fill-opacity="0.500"/>
    <rect x="1" y="6" width="1" height="1" fill="rgb(103,232,50)" fill-opacity="0.500"/>
    <rect x="2" y="6" width="1" height="1" fill="rgb(80,245,78)" fill-opacity="0.500"/>
    <rect x="3" y="6" width="1" height="1" fill="rgb(87,230,155)" fill-opacity="0.500"/>
    <rect x="2" y="7" width="1" height="1" fill="rgb(11,191,13)" fill-opacity="0.500"/>
    <rect x="2" y="8" width="1" height="1" fill="rgb(47,247,135)" fill-opacity="0.500"/>
  </g>
</svg>
