<?xml version="1.0" encoding="UTF-8"?>
<svg xmlns="http://www.w3.org/2000/svg" width="120" height="216" viewBox="0 0 5 9" shape-rendering="crispEdges">
  <title>U+05D0 (א)</title>
  
  <g>
    <rect x="0" y="0" width="1" height="1" fill="rgb(63,242,187)" fill-opacity="0.500"/>
    <rect x="4" y="0" width="1" height="1" fill="rgb(41,189,181)" fill-opacity="0.500"/>
    <rect x="0" y="1" width="1" height="1" fill="rgb(63,235,143)" fill-opacity="0.500"/>
    <rect x="1" y="1" width="1" height="1" fill="rgb(5,169,59)" fill-opacity="0.500"/>
    <rect x="4" y="1" width="1" height="1" fill="rgb(1,196,25)" fill-opacity="0.500"/>
    <rect x="0" y="2" width="1" height="1" fill="rgb(11,248,20)" fill-opacity="0.500"/>
    <rect x="2" y="2" width="1" height="1" fill="rgb(43,186,159)" fill-opacity="0.500"/>
    <rect x="4" y="2" width="1" height="1" fill="rgb(59,162,82)" fill-opacity="0.500"/>
    <rect x="0" y="3" width="1" height="1" fill="rgb(70,152,98)" fill-opacity="0.500"/>
    <rect x="3" y="3" width="1" height="1" fill="rgb(59,139,4)" fill-opacity="0.500"/>
    <rect x="4" y="3" width="1" height="1" fill="rgb(8,255,150)" fill-opacity="0.500"/>
    <rect x="0" y="4" width="1" height="1" fill="rgb(52,208,135)" fill-opacity="0.500"/>
    <rect x="4" y="4" width="1" height="1" fill="rgb(94,144,181)" fill-opacity="0.500"/>
    <rect x="4" y="5" width="1" height="1" fill="rgb(67,250,79)" fill-opacity="0.500"/>
    <rect x="4" y="6" width="1" height="1" fill="rgb(97,207,72)" fill-opacity="0.500"/>
  </g>
</svg>
