<?xml version="1.0" encoding="UTF-8"?>
<svg xmlns="http://www.w3.org/2000/svg" width="120" height="216" viewBox="0 0 5 9" shape-rendering="crispEdges">
  <title>U+042E (Ю)</title>
  
  <g>
    <rect x="0" y="0" width="1" height="1" fill="rgb(47,168,30)" fill-opacity="0.500"/>
    <rect x="2" y="0" width="1" height="1" fill="rgb(105,177,27)" fill-opacity="0.500"/>
    <rect x="3" y="0" width="1" height="1" fill="rgb(90,133,99)" fill-opacity="0.500"/>
    <rect x="0" y="1" width="1" height="1" fill="rgb(81,141,119)" fill-opacity="0.500"/>
    <rect x="2" y="1" width="1" height="1" fill="rgb(93,134,118)" fill-opacity="0.500"/>
    <rect x="4" y="1" width="1" height="1" fill="rgb(32,214,82)" fill-opacity="0.500"/>
    <rect x="0" y="2" width="1" height="1" fill="rgb(110,241,106)" fill-opacity="0.500"/>
    <rect x="1" y="2" width="1" height="1" fill="rgb(63,216,142)" fill-opacity="0.500"/>
    <rect x="2" y="2" width="1" height="1" fill="rgb(49,147,10)" fill-opacity="0.500"/>
    <rect x="4" y="2" width="1" height="1" fill="rgb(67,246,154)" fill-opacity="0.500"/>
    <rect x="0" y="3" width="1" height="1" fill="rgb(37,182,50)" fill-opacity="0.500"/>
    <rect x="2" y="3" width="1" height="1" fill="rgb(35,148,88)" fill-opacity="0.500"/>
    <rect x="4" y="3" width="1" height="1" fill="rgb(18,252,19)" fill-opacity="0.500"/>
    <rect x="0" y="4" width="1" height="1" fill="rgb(115,207,147)" fill-opacity="0.500"/>
    <rect x="2" y="4" width="1" height="1" fill="rgb(127,144,63)" fill-opacity="0.500"/>
    <rect x="4" y="4" width="1" height="1" fill="rgb(27,137,119)" fill-opacity="0.500"/>
    <rect x="0" y="5" width="1" height="1" fill="rgb(122,207,16)" fill-opacity="0.500"/>
    <rect x="2" y="5" width="1" height="1" fill="rgb(71,191,187)" fill-opacity="0.500"/>
    <rect x="4" y="5" width="1" height="1" fill="rgb(124,212,45)" fill-opacity="0.500"/>
    <rect x="0" y="6" width="1" height="1" fill="rgb(68,254,113)" fill-opacity="0.500"/>
    <rect x="2" y="6" width="1" height="1" fill="rgb(25,202,146)" fill-opacity="0.500"/>
    <rect x="3" y="6" width="1" height="1" fill="rgb(74,142,148)" fill-opacity="0.500"/>
  </g>
</svg>
