<?xml version="1.0" encoding="UTF-8"?>
<svg xmlns="http://www.w3.org/2000/svg" width="120" height="216" viewBox="0 0 5 9" shape-rendering="crispEdges">
  <title>U+0077 (w)</title>
  
  <g>
    <rect x="0" y="2" width="1" height="1" fill="rgb(89,132,178)" fill-opacity="0.500"/>
    <rect x="2" y="2" width="1" height="1" fill="rgb(115,208,53)" fill-opacity="0.500"/>
    <rect x="4" y="2" width="1" height="1" fill="rgb(113,211,2)" fill-opacity="0.500"/>
    <rect x="0" y="3" width="1" height="1" fill="rgb(22,171,167)" fill-opacity="0.500"/>
    <rect x="2" y="3" width="1" height="1" fill="rgb(58,204,153)" fill-opacity="0.500"/>
    <rect x="4" y="3" width="1" height="1" fill="rgb(46,152,16)" fill-opacity="0.500"/>
    <rect x="0" y="4" width="1" height="1" fill="rgb(2,232,71)" fill-opacity="0.500"/>
    <rect x="2" y="4" width="1" height="1" fill="rgb(63,232,62)" fill-opacity="0.500"/>
    <rect x="4" y="4" width="1" height="1" fill="rgb(88,235,160)" fill-opacity="0.500"/>
    <rect x="0" y="5" width="1" height="1" fill="rgb(109,252,156)" fill-opacity="0.500"/>
    <rect x="2" y="5" width="1" height="1" fill="rgb(2,148,167)" fill-opacity="0.500"/>
    <rect x="4" y="5" width="1" height="1" fill="rgb(37,163,17)" fill-opacity="0.500"/>
    <rect x="0" y="6" width="1" height="1" fill="rgb(113,188,47)" fill-opacity="0.500"/>
    <rect x="1" y="6" width="1" height="1" fill="rgb(60,142,64)" fill-opacity="0.500"/>
    <rect x="2" y="6" width="1" height="1" fill="rgb(34,248,124)" fill-opacity="0.500"/>
    <rect x="3" y="6" width="1" height="1" fill="rgb(15,185,128)" fill-opacity="0.500"/>
    <rect x="4" y="6" width="1" height="1" fill="rgb(113,180,115)" fill-opacity="0.500"/>
  </g>
</svg>
