<?xml version="1.0" encoding="UTF-8"?>
<svg xmlns="http://www.w3.org/2000/svg" width="120" height="216" viewBox="0 0 5 9" shape-rendering="crispEdges">
  <title>U+0057 (W)</title>
  
  <g>
    <rect x="0" y="0" width="1" height="1" fill="rgb(127,232,73)" fill-opacity="0.500"/>
    <rect x="2" y="0" width="1" height="1" fill="rgb(40,202,43)" fill-opacity="0.500"/>
    <rect x="4" y="0" width="1" height="1" fill="rgb(45,193,127)" fill-opacity="0.500"/>
    <rect x="0" y="1" width="1" height="1" fill="rgb(35,219,100)" fill-opacity="0.500"/>
    <rect x="2" y="1" width="1" height="1" fill="rgb(123,136,44)" fill-opacity="0.500"/>
    <rect x="4" y="1" width="1" height="1" fill="rgb(24,202,34)" fill-opacity="0.500"/>
    <rect x="0" y="2" width="1" height="1" fill="rgb(51,204,104)" fill-opacity="0.500"/>
    <rect x="2" y="2" width="1" height="1" fill="rgb(103,175,14)" fill-opacity="0.500"/>
    <rect x="4" y="2" width="1" height="1" fill="rgb(26,213,91)" fill-opacity="0.500"/>
    <rect x="0" y="3" width="1" height="1" fill="rgb(47,136,143)" fill-opacity="0.500"/>
    <rect x="2" y="3" width="1" height="1" fill="rgb(20,232,87)" fill-opacity="0.500"/>
    <rect x="4" y="3" width="1" height="1" fill="rgb(36,239,43)" fill-opacity="0.500"/>
    <rect x="0" y="4" width="1" height="1" fill="rgb(107,230,142)" fill-opacity="0.500"/>
    <rect x="2" y="4" width="1" height="1" fill="rgb(123,166,55)" fill-opacity="0.500"/>
    <rect x="4" y="4" width="1" height="1" fill="rgb(33,240,71)" fill-opacity="0.500"/>
    <rect x="0" y="5" width="1" height="1" fill="rgb(66,249,114)" fill-opacity="0.500"/>
    <rect x="2" y="5" width="1" height="1" fill="rgb(125,200,31)" fill-opacity="0.500"/>
    <rect x="4" y="5" width="1" height="1" fill="rgb(70,251,181)" fill-opacity="0.500"/>
    <rect x="0" y="6" width="1" height="1" fill="rgb(64,199,177)" fill-opacity="0.500"/>
    <rect x="1" y="6" width="1" height="1" fill="rgb(26,227,169)" fill-opacity="0.500"/>
    <rect x="2" y="6" width="1" height="1" fill="rgb(26,218,49)" fill-opacity="0.500"/>
    <rect x="3" y="6" width="1" height="1" fill="rgb(23,230,25)" fill-opacity="0.500"/>
    <rect x="4" y="6" width="1" height="1" fill="rgb(99,179,89)" fill-opacity="0.500"/>
  </g>
</svg>
