<?xml version="1.0" encoding="UTF-8"?>
<svg xmlns="http://www.w3.org/2000/svg" width="72" height="216" viewBox="0 0 3 9" shape-rendering="crispEdges">
  <title>U+0030 (0)</title>
  
  <g>
    <rect x="0" y="0" width="1" height="1" fill="rgb(24,254,81)" fill-opacity="0.500"/>
    <rect x="1" y="0" width="1" height="1" fill="rgb(83,218,186)" fill-opacity="0.500"/>
    <rect x="2" y="0" width="1" height="1" fill="rgb(81,204,190)" fill-opacity="0.500"/>
    <rect x="0" y="1" width="1" height="1" fill="rgb(119,138,3)" fill-opacity="0.500"/>
    <rect x="2" y="1" width="1" height="1" fill="rgb(64,159,87)" fill-opacity="0.500"/>
    <rect x="0" y="2" width="1" height="1" fill="rgb(79,200,89)" fill-opacity="0.500"/>
    <rect x="2" y="2" width="1" height="1" fill="rgb(58,147,56)" fill-opacity="0.500"/>
    <rect x="0" y="3" width="1" height="1" fill="rgb(56,216,168)" fill-opacity="0.500"/>
    <rect x="2" y="3" width="1" height="1" fill="rgb(100,250,103)" fill-opacity="0.500"/>
    <rect x="0" y="4" width="1" height="1" fill="rgb(17,205,84)" fill-opacity="0.500"/>
    <rect x="2" y="4" width="1" height="1" fill="rgb(119,204,80)" fill-opacity="0.500"/>
    <rect x="0" y="5" width="1" height="1" fill="rgb(121,191,136)" fill-opacity="0.500"/>
    <rect x="2" y="5" width="1" height="1" fill="rgb(119,153,124)" fill-opacity="0.500"/>
    <rect x="0" y="6" width="1" height="1" fill="rgb(48,200,106)" fill-opacity="0.500"/>
    <rect x="1" y="6" width="1" height="1" fill="rgb(56,166,56)" fill-opacity="0.500"/>
    <rect x="2" y="6" width="1" height="1" fill="rgb(79,248,119)" fill-opacity="0.500"/>
  </g>
</svg>
