<?xml version="1.0" encoding="UTF-8"?>
<svg xmlns="http://www.w3.org/2000/svg" width="120" height="216" viewBox="0 0 5 9" shape-rendering="crispEdges">
  <title>U+05E3 (ף)</title>
  
  <g>
    <rect x="0" y="0" width="1" height="1" fill="rgb(83,222,174)" fill-opacity="0.500"/>
    <rect x="1" y="0" width="1" height="1" fill="rgb(59,249,138)" fill-opacity="0.500"/>
    <rect x="2" y="0" width="1" height="1" fill="rgb(41,177,124)" fill-opacity="0.500"/>
    <rect x="3" y="0" width="1" height="1" fill="rgb(107,164,36)" fill-opacity="0.500"/>
    <rect x="0" y="1" width="1" height="1" fill="rgb(103,178,28)" fill-opacity="0.500"/>
    <rect x="4" y="1" width="1" height="1" fill="rgb(62,168,49)" fill-opacity="0.500"/>
    <rect x="0" y="2" width="1" height="1" fill="rgb(72,244,87)" fill-opacity="0.500"/>
    <rect x="4" y="2" width="1" height="1" fill="rgb(2,150,165)" fill-opacity="0.500"/>
    <rect x="0" y="3" width="1" height="1" fill="rgb(20,199,29)" fill-opacity="0.500"/>
    <rect x="1" y="3" width="1" height="1" fill="rgb(74,221,63)" fill-opacity="0.500"/>
    <rect x="2" y="3" width="1" height="1" fill="rgb(66,201,39)" fill-opacity="0.500"/>
    <rect x="3" y="3" width="1" height="1" fill="rgb(27,178,68)" fill-opacity="0.500"/>
    <rect x="0" y="4" width="1" height="1" fill="rgb(115,225,154)" fill-opacity="0.500"/>
    <rect x="0" y="5" width="1" height="1" fill="rgb(43,204,38)" fill-opacity="0.500"/>
    <rect x="0" y="6" width="1" height="1" fill="rgb(126,142,99)" fill-opacity="0.500"/>
    <rect x="0" y="7" width="1" height="1" fill="rgb(39,187,76)" fill-opacity="0.500"/>
    <rect x="0" y="8" width="1" height="1" fill="rgb(51,137,48)" fill-opacity="0.500"/>
    <rect x="1" y="8" width="1" height="1" fill="rgb(92,177,16)" fill-opacity="0.500"/>
    <rect x="2" y="8" width="1" height="1" fill="rgb(43,149,48)" fill-opacity="0.500"/>
  </g>
</svg>
