<?xml version="1.0" encoding="UTF-8"?>
<svg xmlns="http://www.w3.org/2000/svg" width="120" height="216" viewBox="0 0 5 9" shape-rendering="crispEdges">
  <title>U+05E3 (ף)</title>
  
  <g>
    <rect x="0" y="0" width="1" height="1" fill="rgb(93,133,62)" fill-opacity="0.500"/>
    <rect x="1" y="0" width="1" height="1" fill="rgb(14,230,157)" fill-opacity="0.500"/>
    <rect x="2" y="0" width="1" height="1" fill="rgb(77,204,143)" fill-opacity="0.500"/>
    <rect x="3" y="0" width="1" height="1" fill="rgb(123,231,18)" fill-opacity="0.500"/>
    <rect x="0" y="1" width="1" height="1" fill="rgb(113,154,173)" fill-opacity="0.500"/>
    <rect x="4" y="1" width="1" height="1" fill="rgb(76,244,92)" fill-opacity="0.500"/>
    <rect x="0" y="2" width="1" height="1" fill="rgb(80,175,115)" fill-opacity="0.500"/>
    <rect x="4" y="2" width="1" height="1" fill="rgb(60,236,2)" fill-opacity="0.500"/>
    <rect x="0" y="3" width="1" height="1" fill="rgb(111,157,1)" fill-opacity="0.500"/>
    <rect x="1" y="3" width="1" height="1" fill="rgb(58,170,140)" fill-opacity="0.500"/>
    <rect x="2" y="3" width="1" height="1" fill="rgb(73,154,112)" fill-opacity="0.500"/>
    <rect x="3" y="3" width="1" height="1" fill="rgb(48,190,118)" fill-opacity="0.500"/>
    <rect x="0" y="4" width="1" height="1" fill="rgb(5,179,161)" fill-opacity="0.500"/>
    <rect x="0" y="5" width="1" height="1" fill="rgb(42,187,47)" fill-opacity="0.500"/>
    <rect x="0" y="6" width="1" height="1" fill="rgb(33,252,91)" fill-opacity="0.500"/>
    <rect x="0" y="7" width="1" height="1" fill="rgb(84,201,127)" fill-opacity="0.500"/>
    <rect x="0" y="8" width="1" height="1" fill="rgb(113,214,178)" fill-opacity="0.500"/>
    <rect x="1" y="8" width="1" height="1" fill="rgb(73,143,18)" fill-opacity="0.500"/>
    <rect x="2" y="8" width="1" height="1" fill="rgb(44,146,69)" fill-opacity="0.500"/>
  </g>
</svg>
