<?xml version="1.0" encoding="UTF-8"?>
<svg xmlns="http://www.w3.org/2000/svg" width="96" height="216" viewBox="0 0 4 9" shape-rendering="crispEdges">
  <title>U+042F (Я)</title>
  
  <g>
    <rect x="1" y="0" width="1" height="1" fill="rgb(94,214,27)" fill-opacity="0.500"/>
    <rect x="2" y="0" width="1" height="1" fill="rgb(82,175,69)" fill-opacity="0.500"/>
    <rect x="3" y="0" width="1" height="1" fill="rgb(57,146,101)" fill-opacity="0.500"/>
    <rect x="0" y="1" width="1" height="1" fill="rgb(65,157,25)" fill-opacity="0.500"/>
    <rect x="3" y="1" width="1" height="1" fill="rgb(103,222,127)" fill-opacity="0.500"/>
    <rect x="0" y="2" width="1" height="1" fill="rgb(32,221,104)" fill-opacity="0.500"/>
    <rect x="3" y="2" width="1" height="1" fill="rgb(74,163,190)" fill-opacity="0.500"/>
    <rect x="1" y="3" width="1" height="1" fill="rgb(83,167,122)" fill-opacity="0.500"/>
    <rect x="2" y="3" width="1" height="1" fill="rgb(103,179,96)" fill-opacity="0.500"/>
    <rect x="3" y="3" width="1" height="1" fill="rgb(16,172,169)" fill-opacity="0.500"/>
    <rect x="2" y="4" width="1" height="1" fill="rgb(86,243,150)" fill-opacity="0.500"/>
    <rect x="1" y="5" width="1" height="1" fill="rgb(91,241,52)" fill-opacity="0.500"/>
    <rect x="3" y="5" width="1" height="1" fill="rgb(49,182,58)" fill-opacity="0.500"/>
    <rect x="0" y="6" width="1" height="1" fill="rgb(20,236,12)" fill-opacity="0.500"/>
    <rect x="3" y="6" width="1" height="1" fill="rgb(125,197,41)" fill-opacity="0.500"/>
  </g>
</svg>
