<?xml version="1.0" encoding="UTF-8"?>
<svg xmlns="http://www.w3.org/2000/svg" width="72" height="216" viewBox="0 0 3 9" shape-rendering="crispEdges">
  <title>U+0048 (H)</title>
  
  <g>
    <rect x="0" y="0" width="1" height="1" fill="rgb(116,221,133)" fill-opacity="0.500"/>
    <rect x="2" y="0" width="1" height="1" fill="rgb(56,201,174)" fill-opacity="0.500"/>
    <rect x="0" y="1" width="1" height="1" fill="rgb(60,188,174)" fill-opacity="0.500"/>
    <rect x="2" y="1" width="1" height="1" fill="rgb(50,230,174)" fill-opacity="0.500"/>
    <rect x="0" y="2" width="1" height="1" fill="rgb(125,218,21)" fill-opacity="0.500"/>
    <rect x="2" y="2" width="1" height="1" fill="rgb(118,170,189)" fill-opacity="0.500"/>
    <rect x="0" y="3" width="1" height="1" fill="rgb(90,240,45)" fill-opacity="0.500"/>
    <rect x="1" y="3" width="1" height="1" fill="rgb(76,202,13)" fill-opacity="0.500"/>
    <rect x="2" y="3" width="1" height="1" fill="rgb(126,208,48)" fill-opacity="0.500"/>
    <rect x="0" y="4" width="1" height="1" fill="rgb(8,188,119)" fill-opacity="0.500"/>
    <rect x="2" y="4" width="1" height="1" fill="rgb(73,181,138)" fill-opacity="0.500"/>
    <rect x="0" y="5" width="1" height="1" fill="rgb(49,148,3)" fill-opacity="0.500"/>
    <rect x="2" y="5" width="1" height="1" fill="rgb(42,231,19)" fill-opacity="0.500"/>
    <rect x="0" y="6" width="1" height="1" fill="rgb(16,230,35)" fill-opacity="0.500"/>
    <rect x="2" y="6" width="1" height="1" fill="rgb(77,252,185)" fill-opacity="0.500"/>
  </g>
</svg>
