<?xml version="1.0" encoding="UTF-8"?>
<svg xmlns="http://www.w3.org/2000/svg" width="120" height="216" viewBox="0 0 5 9" shape-rendering="crispEdges">
  <title>U+05E9 (ש)</title>
  
  <g>
    <rect x="0" y="0" width="1" height="1" fill="rgb(83,189,142)" fill-opacity="0.500"/>
    <rect x="2" y="0" width="1" height="1" fill="rgb(3,225,88)" fill-opacity="0.500"/>
    <rect x="4" y="0" width="1" height="1" fill="rgb(63,253,122)" fill-opacity="0.500"/>
    <rect x="0" y="1" width="1" height="1" fill="rgb(115,234,168)" fill-opacity="0.500"/>
    <rect x="2" y="1" width="1" height="1" fill="rgb(36,146,21)" fill-opacity="0.500"/>
    <rect x="4" y="1" width="1" height="1" fill="rgb(97,133,107)" fill-opacity="0.500"/>
    <rect x="0" y="2" width="1" height="1" fill="rgb(31,205,162)" fill-opacity="0.500"/>
    <rect x="2" y="2" width="1" height="1" fill="rgb(57,242,18)" fill-opacity="0.500"/>
    <rect x="4" y="2" width="1" height="1" fill="rgb(36,128,52)" fill-opacity="0.500"/>
    <rect x="0" y="3" width="1" height="1" fill="rgb(67,140,45)" fill-opacity="0.500"/>
    <rect x="1" y="3" width="1" height="1" fill="rgb(73,140,87)" fill-opacity="0.500"/>
    <rect x="2" y="3" width="1" height="1" fill="rgb(3,136,81)" fill-opacity="0.500"/>
    <rect x="3" y="3" width="1" height="1" fill="rgb(13,164,138)" fill-opacity="0.500"/>
    <rect x="4" y="3" width="1" height="1" fill="rgb(50,238,54)" fill-opacity="0.500"/>
    <rect x="0" y="4" width="1" height="1" fill="rgb(41,152,126)" fill-opacity="0.500"/>
    <rect x="2" y="4" width="1" height="1" fill="rgb(89,186,64)" fill-opacity="0.500"/>
    <rect x="4" y="4" width="1" height="1" fill="rgb(104,196,169)" fill-opacity="0.500"/>
    <rect x="0" y="5" width="1" height="1" fill="rgb(120,221,186)" fill-opacity="0.500"/>
    <rect x="2" y="5" width="1" height="1" fill="rgb(69,220,52)" fill-opacity="0.500"/>
    <rect x="4" y="5" width="1" height="1" fill="rgb(38,223,116)" fill-opacity="0.500"/>
    <rect x="1" y="6" width="1" height="1" fill="rgb(39,220,25)" fill-opacity="0.500"/>
    <rect x="2" y="6" width="1" height="1" fill="rgb(48,244,61)" fill-opacity="0.500"/>
    <rect x="3" y="6" width="1" height="1" fill="rgb(93,250,57)" fill-opacity="0.500"/>
  </g>
</svg>
