<?xml version="1.0" encoding="UTF-8"?>
<svg xmlns="http://www.w3.org/2000/svg" width="144" height="216" viewBox="0 0 6 9" shape-rendering="crispEdges">
  <title>U+00A9 (©)</title>
  
  <g>
    <rect x="0" y="1" width="1" height="1" fill="rgb(98,250,140)" fill-opacity="0.500"/>
    <rect x="1" y="1" width="1" height="1" fill="rgb(4,197,180)" fill-opacity="0.500"/>
    <rect x="2" y="1" width="1" height="1" fill="rgb(103,211,187)" fill-opacity="0.500"/>
    <rect x="3" y="1" width="1" height="1" fill="rgb(49,138,191)" fill-opacity="0.500"/>
    <rect x="4" y="1" width="1" height="1" fill="rgb(40,143,174)" fill-opacity="0.500"/>
    <rect x="5" y="1" width="1" height="1" fill="rgb(97,184,29)" fill-opacity="0.500"/>
    <rect x="0" y="2" width="1" height="1" fill="rgb(70,133,15)" fill-opacity="0.500"/>
    <rect x="5" y="2" width="1" height="1" fill="rgb(35,147,171)" fill-opacity="0.500"/>
    <rect x="0" y="3" width="1" height="1" fill="rgb(98,140,125)" fill-opacity="0.500"/>
    <rect x="2" y="3" width="1" height="1" fill="rgb(102,214,182)" fill-opacity="0.500"/>
    <rect x="3" y="3" width="1" height="1" fill="rgb(96,203,148)" fill-opacity="0.500"/>
    <rect x="5" y="3" width="1" height="1" fill="rgb(110,239,182)" fill-opacity="0.500"/>
    <rect x="0" y="4" width="1" height="1" fill="rgb(24,133,21)" fill-opacity="0.500"/>
    <rect x="2" y="4" width="1" height="1" fill="rgb(100,146,173)" fill-opacity="0.500"/>
    <rect x="5" y="4" width="1" height="1" fill="rgb(42,235,45)" fill-opacity="0.500"/>
    <rect x="0" y="5" width="1" height="1" fill="rgb(123,187,103)" fill-opacity="0.500"/>
    <rect x="2" y="5" width="1" height="1" fill="rgb(112,217,51)" fill-opacity="0.500"/>
    <rect x="3" y="5" width="1" height="1" fill="rgb(119,167,111)" fill-opacity="0.500"/>
    <rect x="5" y="5" width="1" height="1" fill="rgb(25,236,82)" fill-opacity="0.500"/>
    <rect x="0" y="6" width="1" height="1" fill="rgb(35,202,12)" fill-opacity="0.500"/>
    <rect x="5" y="6" width="1" height="1" fill="rgb(101,219,159)" fill-opacity="0.500"/>
    <rect x="0" y="7" width="1" height="1" fill="rgb(80,204,157)" fill-opacity="0.500"/>
    <rect x="1" y="7" width="1" height="1" fill="rgb(81,171,56)" fill-opacity="0.500"/>
    <rect x="2" y="7" width="1" height="1" fill="rgb(64,224,82)" fill-opacity="0.500"/>
    <rect x="3" y="7" width="1" height="1" fill="rgb(53,228,99)" fill-opacity="0.500"/>
    <rect x="4" y="7" width="1" height="1" fill="rgb(13,190,54)" fill-opacity="0.500"/>
    <rect x="5" y="7" width="1" height="1" fill="rgb(92,243,4)" fill-opacity="0.500"/>
  </g>
</svg>
