<?xml version="1.0" encoding="UTF-8"?>
<svg xmlns="http://www.w3.org/2000/svg" width="120" height="216" viewBox="0 0 5 9" shape-rendering="crispEdges">
  <title>U+0429 (Щ)</title>
  
  <g>
    <rect x="0" y="0" width="1" height="1" fill="rgb(123,215,174)" fill-opacity="0.500"/>
    <rect x="2" y="0" width="1" height="1" fill="rgb(49,219,120)" fill-opacity="0.500"/>
    <rect x="4" y="0" width="1" height="1" fill="rgb(13,194,74)" fill-opacity="0.500"/>
    <rect x="0" y="1" width="1" height="1" fill="rgb(77,238,92)" fill-opacity="0.500"/>
    <rect x="2" y="1" width="1" height="1" fill="rgb(4,217,10)" fill-opacity="0.500"/>
    <rect x="4" y="1" width="1" height="1" fill="rgb(22,194,108)" fill-opacity="0.500"/>
    <rect x="0" y="2" width="1" height="1" fill="rgb(53,194,180)" fill-opacity="0.500"/>
    <rect x="2" y="2" width="1" height="1" fill="rgb(32,203,6)" fill-opacity="0.500"/>
    <rect x="4" y="2" width="1" height="1" fill="rgb(57,244,22)" fill-opacity="0.500"/>
    <rect x="0" y="3" width="1" height="1" fill="rgb(103,236,48)" fill-opacity="0.500"/>
    <rect x="2" y="3" width="1" height="1" fill="rgb(9,221,58)" fill-opacity="0.500"/>
    <rect x="4" y="3" width="1" height="1" fill="rgb(46,174,122)" fill-opacity="0.500"/>
    <rect x="0" y="4" width="1" height="1" fill="rgb(48,152,67)" fill-opacity="0.500"/>
    <rect x="2" y="4" width="1" height="1" fill="rgb(94,229,89)" fill-opacity="0.500"/>
    <rect x="4" y="4" width="1" height="1" fill="rgb(116,128,51)" fill-opacity="0.500"/>
    <rect x="0" y="5" width="1" height="1" fill="rgb(11,220,54)" fill-opacity="0.500"/>
    <rect x="2" y="5" width="1" height="1" fill="rgb(13,199,110)" fill-opacity="0.500"/>
    <rect x="4" y="5" width="1" height="1" fill="rgb(18,219,95)" fill-opacity="0.500"/>
    <rect x="0" y="6" width="1" height="1" fill="rgb(55,179,117)" fill-opacity="0.500"/>
    <rect x="1" y="6" width="1" height="1" fill="rgb(22,183,162)" fill-opacity="0.500"/>
    <rect x="2" y="6" width="1" height="1" fill="rgb(18,232,105)" fill-opacity="0.500"/>
    <rect x="3" y="6" width="1" height="1" fill="rgb(31,139,130)" fill-opacity="0.500"/>
    <rect x="4" y="6" width="1" height="1" fill="rgb(0,251,89)" fill-opacity="0.500"/>
    <rect x="4" y="7" width="1" height="1" fill="rgb(13,230,88)" fill-opacity="0.500"/>
    <rect x="4" y="8" width="1" height="1" fill="rgb(61,237,113)" fill-opacity="0.500"/>
  </g>
</svg>
