<?xml version="1.0" encoding="UTF-8"?>
<svg xmlns="http://www.w3.org/2000/svg" width="120" height="216" viewBox="0 0 5 9" shape-rendering="crispEdges">
  <title>U+05E1 (ס)</title>
  
  <g>
    <rect x="1" y="0" width="1" height="1" fill="rgb(16,159,43)" fill-opacity="0.500"/>
    <rect x="2" y="0" width="1" height="1" fill="rgb(117,145,137)" fill-opacity="0.500"/>
    <rect x="3" y="0" width="1" height="1" fill="rgb(58,133,114)" fill-opacity="0.500"/>
    <rect x="0" y="1" width="1" height="1" fill="rgb(100,169,99)" fill-opacity="0.500"/>
    <rect x="4" y="1" width="1" height="1" fill="rgb(63,169,154)" fill-opacity="0.500"/>
    <rect x="0" y="2" width="1" height="1" fill="rgb(16,187,163)" fill-opacity="0.500"/>
    <rect x="4" y="2" width="1" height="1" fill="rgb(115,192,159)" fill-opacity="0.500"/>
    <rect x="0" y="3" width="1" height="1" fill="rgb(95,132,110)" fill-opacity="0.500"/>
    <rect x="4" y="3" width="1" height="1" fill="rgb(69,232,80)" fill-opacity="0.500"/>
    <rect x="0" y="4" width="1" height="1" fill="rgb(50,142,178)" fill-opacity="0.500"/>
    <rect x="4" y="4" width="1" height="1" fill="rgb(89,171,118)" fill-opacity="0.500"/>
    <rect x="0" y="5" width="1" height="1" fill="rgb(64,173,182)" fill-opacity="0.500"/>
    <rect x="4" y="5" width="1" height="1" fill="rgb(44,225,118)" fill-opacity="0.500"/>
    <rect x="1" y="6" width="1" height="1" fill="rgb(62,234,70)" fill-opacity="0.500"/>
    <rect x="2" y="6" width="1" height="1" fill="rgb(4,155,3)" fill-opacity="0.500"/>
    <rect x="3" y="6" width="1" height="1" fill="rgb(87,188,153)" fill-opacity="0.500"/>
  </g>
</svg>
