<?xml version="1.0" encoding="UTF-8"?>
<svg xmlns="http://www.w3.org/2000/svg" width="120" height="216" viewBox="0 0 5 9" shape-rendering="crispEdges">
  <title>U+05E9 (ש)</title>
  
  <g>
    <rect x="0" y="0" width="1" height="1" fill="rgb(105,245,134)" fill-opacity="0.500"/>
    <rect x="2" y="0" width="1" height="1" fill="rgb(42,243,108)" fill-opacity="0.500"/>
    <rect x="4" y="0" width="1" height="1" fill="rgb(1,166,179)" fill-opacity="0.500"/>
    <rect x="0" y="1" width="1" height="1" fill="rgb(60,202,116)" fill-opacity="0.500"/>
    <rect x="2" y="1" width="1" height="1" fill="rgb(38,242,80)" fill-opacity="0.500"/>
    <rect x="4" y="1" width="1" height="1" fill="rgb(119,196,8)" fill-opacity="0.500"/>
    <rect x="0" y="2" width="1" height="1" fill="rgb(23,153,129)" fill-opacity="0.500"/>
    <rect x="2" y="2" width="1" height="1" fill="rgb(79,137,157)" fill-opacity="0.500"/>
    <rect x="4" y="2" width="1" height="1" fill="rgb(78,172,167)" fill-opacity="0.500"/>
    <rect x="0" y="3" width="1" height="1" fill="rgb(113,222,159)" fill-opacity="0.500"/>
    <rect x="1" y="3" width="1" height="1" fill="rgb(39,234,7)" fill-opacity="0.500"/>
    <rect x="2" y="3" width="1" height="1" fill="rgb(125,194,59)" fill-opacity="0.500"/>
    <rect x="3" y="3" width="1" height="1" fill="rgb(113,186,97)" fill-opacity="0.500"/>
    <rect x="4" y="3" width="1" height="1" fill="rgb(114,248,176)" fill-opacity="0.500"/>
    <rect x="0" y="4" width="1" height="1" fill="rgb(5,168,57)" fill-opacity="0.500"/>
    <rect x="2" y="4" width="1" height="1" fill="rgb(45,247,68)" fill-opacity="0.500"/>
    <rect x="4" y="4" width="1" height="1" fill="rgb(79,202,162)" fill-opacity="0.500"/>
    <rect x="0" y="5" width="1" height="1" fill="rgb(53,248,91)" fill-opacity="0.500"/>
    <rect x="2" y="5" width="1" height="1" fill="rgb(38,191,133)" fill-opacity="0.500"/>
    <rect x="4" y="5" width="1" height="1" fill="rgb(63,187,39)" fill-opacity="0.500"/>
    <rect x="1" y="6" width="1" height="1" fill="rgb(76,147,18)" fill-opacity="0.500"/>
    <rect x="2" y="6" width="1" height="1" fill="rgb(32,245,140)" fill-opacity="0.500"/>
    <rect x="3" y="6" width="1" height="1" fill="rgb(105,194,91)" fill-opacity="0.500"/>
  </g>
</svg>
