<?xml version="1.0" encoding="UTF-8"?>
<svg xmlns="http://www.w3.org/2000/svg" width="120" height="216" viewBox="0 0 5 9" shape-rendering="crispEdges">
  <title>U+0424 (Ф)</title>
  
  <g>
    <rect x="2" y="0" width="1" height="1" fill="rgb(52,179,39)" fill-opacity="0.500"/>
    <rect x="1" y="1" width="1" height="1" fill="rgb(126,172,20)" fill-opacity="0.500"/>
    <rect x="2" y="1" width="1" height="1" fill="rgb(49,227,82)" fill-opacity="0.500"/>
    <rect x="3" y="1" width="1" height="1" fill="rgb(104,230,30)" fill-opacity="0.500"/>
    <rect x="0" y="2" width="1" height="1" fill="rgb(54,159,55)" fill-opacity="0.500"/>
    <rect x="2" y="2" width="1" height="1" fill="rgb(40,139,139)" fill-opacity="0.500"/>
    <rect x="4" y="2" width="1" height="1" fill="rgb(22,193,28)" fill-opacity="0.500"/>
    <rect x="0" y="3" width="1" height="1" fill="rgb(92,226,48)" fill-opacity="0.500"/>
    <rect x="2" y="3" width="1" height="1" fill="rgb(118,166,79)" fill-opacity="0.500"/>
    <rect x="4" y="3" width="1" height="1" fill="rgb(95,218,123)" fill-opacity="0.500"/>
    <rect x="1" y="4" width="1" height="1" fill="rgb(40,223,55)" fill-opacity="0.500"/>
    <rect x="2" y="4" width="1" height="1" fill="rgb(17,172,170)" fill-opacity="0.500"/>
    <rect x="3" y="4" width="1" height="1" fill="rgb(55,239,10)" fill-opacity="0.500"/>
    <rect x="2" y="5" width="1" height="1" fill="rgb(82,234,30)" fill-opacity="0.500"/>
    <rect x="2" y="6" width="1" height="1" fill="rgb(15,243,135)" fill-opacity="0.500"/>
  </g>
</svg>
