<?xml version="1.0" encoding="UTF-8"?>
<svg xmlns="http://www.w3.org/2000/svg" width="120" height="216" viewBox="0 0 5 9" shape-rendering="crispEdges">
  <title>U+05D8 (ט)</title>
  
  <g>
    <rect x="1" y="0" width="1" height="1" fill="rgb(87,146,100)" fill-opacity="0.500"/>
    <rect x="2" y="0" width="1" height="1" fill="rgb(34,248,124)" fill-opacity="0.500"/>
    <rect x="3" y="0" width="1" height="1" fill="rgb(15,190,12)" fill-opacity="0.500"/>
    <rect x="0" y="1" width="1" height="1" fill="rgb(38,236,127)" fill-opacity="0.500"/>
    <rect x="4" y="1" width="1" height="1" fill="rgb(5,213,43)" fill-opacity="0.500"/>
    <rect x="0" y="2" width="1" height="1" fill="rgb(48,210,98)" fill-opacity="0.500"/>
    <rect x="2" y="2" width="1" height="1" fill="rgb(99,224,97)" fill-opacity="0.500"/>
    <rect x="4" y="2" width="1" height="1" fill="rgb(4,156,120)" fill-opacity="0.500"/>
    <rect x="0" y="3" width="1" height="1" fill="rgb(66,189,37)" fill-opacity="0.500"/>
    <rect x="2" y="3" width="1" height="1" fill="rgb(8,234,170)" fill-opacity="0.500"/>
    <rect x="4" y="3" width="1" height="1" fill="rgb(98,152,102)" fill-opacity="0.500"/>
    <rect x="0" y="4" width="1" height="1" fill="rgb(9,156,166)" fill-opacity="0.500"/>
    <rect x="4" y="4" width="1" height="1" fill="rgb(16,175,38)" fill-opacity="0.500"/>
    <rect x="0" y="5" width="1" height="1" fill="rgb(14,200,170)" fill-opacity="0.500"/>
    <rect x="4" y="5" width="1" height="1" fill="rgb(121,177,87)" fill-opacity="0.500"/>
    <rect x="1" y="6" width="1" height="1" fill="rgb(25,214,80)" fill-opacity="0.500"/>
    <rect x="2" y="6" width="1" height="1" fill="rgb(68,133,54)" fill-opacity="0.500"/>
    <rect x="3" y="6" width="1" height="1" fill="rgb(109,186,114)" fill-opacity="0.500"/>
  </g>
</svg>
