<?xml version="1.0" encoding="UTF-8"?>
<svg xmlns="http://www.w3.org/2000/svg" width="216" height="216" viewBox="0 0 9 9" shape-rendering="crispEdges">
  <title>U+2682 (⚂)</title>
  
  <g>
    <rect x="0" y="0" width="1" height="1" fill="rgb(30,189,169)" fill-opacity="0.500"/>
    <rect x="1" y="0" width="1" height="1" fill="rgb(28,238,104)" fill-opacity="0.500"/>
    <rect x="2" y="0" width="1" height="1" fill="rgb(100,188,56)" fill-opacity="0.500"/>
    <rect x="3" y="0" width="1" height="1" fill="rgb(24,253,123)" fill-opacity="0.500"/>
    <rect x="4" y="0" width="1" height="1" fill="rgb(123,252,107)" fill-opacity="0.500"/>
    <rect x="5" y="0" width="1" height="1" fill="rgb(112,159,187)" fill-opacity="0.500"/>
    <rect x="6" y="0" width="1" height="1" fill="rgb(36,131,80)" fill-opacity="0.500"/>
    <rect x="7" y="0" width="1" height="1" fill="rgb(29,185,42)" fill-opacity="0.500"/>
    <rect x="8" y="0" width="1" height="1" fill="rgb(40,211,175)" fill-opacity="0.500"/>
    <rect x="0" y="1" width="1" height="1" fill="rgb(97,208,24)" fill-opacity="0.500"/>
    <rect x="8" y="1" width="1" height="1" fill="rgb(118,229,144)" fill-opacity="0.500"/>
    <rect x="0" y="2" width="1" height="1" fill="rgb(14,200,140)" fill-opacity="0.500"/>
    <rect x="2" y="2" width="1" height="1" fill="rgb(91,216,112)" fill-opacity="0.500"/>
    <rect x="8" y="2" width="1" height="1" fill="rgb(86,141,104)" fill-opacity="0.500"/>
    <rect x="0" y="3" width="1" height="1" fill="rgb(32,174,75)" fill-opacity="0.500"/>
    <rect x="8" y="3" width="1" height="1" fill="rgb(122,152,123)" fill-opacity="0.500"/>
    <rect x="0" y="4" width="1" height="1" fill="rgb(7,242,163)" fill-opacity="0.500"/>
    <rect x="4" y="4" width="1" height="1" fill="rgb(86,163,36)" fill-opacity="0.500"/>
    <rect x="8" y="4" width="1" height="1" fill="rgb(2,212,46)" fill-opacity="0.500"/>
    <rect x="0" y="5" width="1" height="1" fill="rgb(123,215,156)" fill-opacity="0.500"/>
    <rect x="8" y="5" width="1" height="1" fill="rgb(85,134,47)" fill-opacity="0.500"/>
    <rect x="0" y="6" width="1" height="1" fill="rgb(43,252,66)" fill-opacity="0.500"/>
    <rect x="6" y="6" width="1" height="1" fill="rgb(47,202,16)" fill-opacity="0.500"/>
    <rect x="8" y="6" width="1" height="1" fill="rgb(6,172,150)" fill-opacity="0.500"/>
    <rect x="0" y="7" width="1" height="1" fill="rgb(77,128,20)" fill-opacity="0.500"/>
    <rect x="8" y="7" width="1" height="1" fill="rgb(49,231,107)" fill-opacity="0.500"/>
    <rect x="0" y="8" width="1" height="1" fill="rgb(8,145,92)" fill-opacity="0.500"/>
    <rect x="1" y="8" width="1" height="1" fill="rgb(8,246,138)" fill-opacity="0.500"/>
    <rect x="2" y="8" width="1" height="1" fill="rgb(85,171,151)" fill-opacity="0.500"/>
    <rect x="3" y="8" width="1" height="1" fill="rgb(72,164,7)" fill-opacity="0.500"/>
    <rect x="4" y="8" width="1" height="1" fill="rgb(77,191,24)" fill-opacity="0.500"/>
    <rect x="5" y="8" width="1" height="1" fill="rgb(107,244,161)" fill-opacity="0.500"/>
    <rect x="6" y="8" width="1" height="1" fill="rgb(48,185,68)" fill-opacity="0.500"/>
    <rect x="7" y="8" width="1" height="1" fill="rgb(125,133,106)" fill-opacity="0.500"/>
    <rect x="8" y="8" width="1" height="1" fill="rgb(95,218,117)" fill-opacity="0.500"/>
  </g>
</svg>
