<?xml version="1.0" encoding="UTF-8"?>
<svg xmlns="http://www.w3.org/2000/svg" width="72" height="216" viewBox="0 0 3 9" shape-rendering="crispEdges">
  <title>U+004F (O)</title>
  
  <g>
    <rect x="0" y="0" width="1" height="1" fill="rgb(98,153,94)" fill-opacity="0.500"/>
    <rect x="1" y="0" width="1" height="1" fill="rgb(111,145,91)" fill-opacity="0.500"/>
    <rect x="2" y="0" width="1" height="1" fill="rgb(75,169,8)" fill-opacity="0.500"/>
    <rect x="0" y="1" width="1" height="1" fill="rgb(1,128,56)" fill-opacity="0.500"/>
    <rect x="2" y="1" width="1" height="1" fill="rgb(96,183,142)" fill-opacity="0.500"/>
    <rect x="0" y="2" width="1" height="1" fill="rgb(103,230,61)" fill-opacity="0.500"/>
    <rect x="2" y="2" width="1" height="1" fill="rgb(4,225,140)" fill-opacity="0.500"/>
    <rect x="0" y="3" width="1" height="1" fill="rgb(120,186,4)" fill-opacity="0.500"/>
    <rect x="2" y="3" width="1" height="1" fill="rgb(65,198,101)" fill-opacity="0.500"/>
    <rect x="0" y="4" width="1" height="1" fill="rgb(93,142,83)" fill-opacity="0.500"/>
    <rect x="2" y="4" width="1" height="1" fill="rgb(20,249,102)" fill-opacity="0.500"/>
    <rect x="0" y="5" width="1" height="1" fill="rgb(76,133,128)" fill-opacity="0.500"/>
    <rect x="2" y="5" width="1" height="1" fill="rgb(57,234,179)" fill-opacity="0.500"/>
    <rect x="0" y="6" width="1" height="1" fill="rgb(58,137,191)" fill-opacity="0.500"/>
    <rect x="1" y="6" width="1" height="1" fill="rgb(72,166,101)" fill-opacity="0.500"/>
    <rect x="2" y="6" width="1" height="1" fill="rgb(84,140,169)" fill-opacity="0.500"/>
  </g>
</svg>
