<?xml version="1.0" encoding="UTF-8"?>
<svg xmlns="http://www.w3.org/2000/svg" width="120" height="216" viewBox="0 0 5 9" shape-rendering="crispEdges">
  <title>U+0416 (Ж)</title>
  
  <g>
    <rect x="0" y="0" width="1" height="1" fill="rgb(37,191,115)" fill-opacity="0.500"/>
    <rect x="2" y="0" width="1" height="1" fill="rgb(20,197,121)" fill-opacity="0.500"/>
    <rect x="4" y="0" width="1" height="1" fill="rgb(127,253,100)" fill-opacity="0.500"/>
    <rect x="0" y="1" width="1" height="1" fill="rgb(81,227,60)" fill-opacity="0.500"/>
    <rect x="2" y="1" width="1" height="1" fill="rgb(109,145,63)" fill-opacity="0.500"/>
    <rect x="4" y="1" width="1" height="1" fill="rgb(50,174,172)" fill-opacity="0.500"/>
    <rect x="1" y="2" width="1" height="1" fill="rgb(91,167,98)" fill-opacity="0.500"/>
    <rect x="2" y="2" width="1" height="1" fill="rgb(114,195,41)" fill-opacity="0.500"/>
    <rect x="3" y="2" width="1" height="1" fill="rgb(55,164,91)" fill-opacity="0.500"/>
    <rect x="2" y="3" width="1" height="1" fill="rgb(73,174,93)" fill-opacity="0.500"/>
    <rect x="1" y="4" width="1" height="1" fill="rgb(21,144,77)" fill-opacity="0.500"/>
    <rect x="2" y="4" width="1" height="1" fill="rgb(20,132,121)" fill-opacity="0.500"/>
    <rect x="3" y="4" width="1" height="1" fill="rgb(4,241,91)" fill-opacity="0.500"/>
    <rect x="0" y="5" width="1" height="1" fill="rgb(105,207,8)" fill-opacity="0.500"/>
    <rect x="2" y="5" width="1" height="1" fill="rgb(23,132,82)" fill-opacity="0.500"/>
    <rect x="4" y="5" width="1" height="1" fill="rgb(53,233,116)" fill-opacity="0.500"/>
    <rect x="0" y="6" width="1" height="1" fill="rgb(65,254,18)" fill-opacity="0.500"/>
    <rect x="2" y="6" width="1" height="1" fill="rgb(78,247,71)" fill-opacity="0.500"/>
    <rect x="4" y="6" width="1" height="1" fill="rgb(87,198,121)" fill-opacity="0.500"/>
  </g>
</svg>
