<?xml version="1.0" encoding="UTF-8"?>
<svg xmlns="http://www.w3.org/2000/svg" width="120" height="216" viewBox="0 0 5 9" shape-rendering="crispEdges">
  <title>U+05E4 (פ)</title>
  
  <g>
    <rect x="0" y="0" width="1" height="1" fill="rgb(29,226,133)" fill-opacity="0.500"/>
    <rect x="1" y="0" width="1" height="1" fill="rgb(81,201,49)" fill-opacity="0.500"/>
    <rect x="2" y="0" width="1" height="1" fill="rgb(99,158,172)" fill-opacity="0.500"/>
    <rect x="3" y="0" width="1" height="1" fill="rgb(121,146,38)" fill-opacity="0.500"/>
    <rect x="0" y="1" width="1" height="1" fill="rgb(56,136,163)" fill-opacity="0.500"/>
    <rect x="4" y="1" width="1" height="1" fill="rgb(113,173,135)" fill-opacity="0.500"/>
    <rect x="0" y="2" width="1" height="1" fill="rgb(39,232,179)" fill-opacity="0.500"/>
    <rect x="4" y="2" width="1" height="1" fill="rgb(22,254,44)" fill-opacity="0.500"/>
    <rect x="0" y="3" width="1" height="1" fill="rgb(58,177,70)" fill-opacity="0.500"/>
    <rect x="1" y="3" width="1" height="1" fill="rgb(62,186,153)" fill-opacity="0.500"/>
    <rect x="2" y="3" width="1" height="1" fill="rgb(124,234,94)" fill-opacity="0.500"/>
    <rect x="3" y="3" width="1" height="1" fill="rgb(84,192,137)" fill-opacity="0.500"/>
    <rect x="0" y="4" width="1" height="1" fill="rgb(42,142,124)" fill-opacity="0.500"/>
    <rect x="0" y="5" width="1" height="1" fill="rgb(123,247,137)" fill-opacity="0.500"/>
    <rect x="0" y="6" width="1" height="1" fill="rgb(118,185,110)" fill-opacity="0.500"/>
  </g>
</svg>
