<?xml version="1.0" encoding="UTF-8"?>
<svg xmlns="http://www.w3.org/2000/svg" width="120" height="216" viewBox="0 0 5 9" shape-rendering="crispEdges">
  <title>U+0645 (م)</title>
  
  <g>
    <rect x="1" y="1" width="1" height="1" fill="rgb(109,151,134)" fill-opacity="0.500"/>
    <rect x="2" y="1" width="1" height="1" fill="rgb(30,224,112)" fill-opacity="0.500"/>
    <rect x="3" y="1" width="1" height="1" fill="rgb(120,135,47)" fill-opacity="0.500"/>
    <rect x="0" y="2" width="1" height="1" fill="rgb(84,164,11)" fill-opacity="0.500"/>
    <rect x="4" y="2" width="1" height="1" fill="rgb(34,170,30)" fill-opacity="0.500"/>
    <rect x="0" y="3" width="1" height="1" fill="rgb(110,150,139)" fill-opacity="0.500"/>
    <rect x="2" y="3" width="1" height="1" fill="rgb(104,162,175)" fill-opacity="0.500"/>
    <rect x="4" y="3" width="1" height="1" fill="rgb(109,224,96)" fill-opacity="0.500"/>
    <rect x="0" y="4" width="1" height="1" fill="rgb(116,211,87)" fill-opacity="0.500"/>
    <rect x="4" y="4" width="1" height="1" fill="rgb(25,229,15)" fill-opacity="0.500"/>
    <rect x="0" y="5" width="1" height="1" fill="rgb(40,237,188)" fill-opacity="0.500"/>
    <rect x="4" y="5" width="1" height="1" fill="rgb(91,144,129)" fill-opacity="0.500"/>
    <rect x="1" y="6" width="1" height="1" fill="rgb(43,140,153)" fill-opacity="0.500"/>
    <rect x="2" y="6" width="1" height="1" fill="rgb(18,227,117)" fill-opacity="0.500"/>
    <rect x="3" y="6" width="1" height="1" fill="rgb(54,161,166)" fill-opacity="0.500"/>
    <rect x="2" y="7" width="1" height="1" fill="rgb(47,132,126)" fill-opacity="0.500"/>
  </g>
</svg>
