<?xml version="1.0" encoding="UTF-8"?>
<svg xmlns="http://www.w3.org/2000/svg" width="120" height="216" viewBox="0 0 5 9" shape-rendering="crispEdges">
  <title>U+0024 ($)</title>
  
  <g>
    <rect x="2" y="0" width="1" height="1" fill="rgb(74,234,153)" fill-opacity="0.500"/>
    <rect x="0" y="1" width="1" height="1" fill="rgb(51,144,162)" fill-opacity="0.500"/>
    <rect x="1" y="1" width="1" height="1" fill="rgb(34,189,37)" fill-opacity="0.500"/>
    <rect x="2" y="1" width="1" height="1" fill="rgb(108,235,167)" fill-opacity="0.500"/>
    <rect x="3" y="1" width="1" height="1" fill="rgb(112,146,115)" fill-opacity="0.500"/>
    <rect x="4" y="1" width="1" height="1" fill="rgb(38,162,98)" fill-opacity="0.500"/>
    <rect x="0" y="2" width="1" height="1" fill="rgb(125,129,168)" fill-opacity="0.500"/>
    <rect x="2" y="2" width="1" height="1" fill="rgb(123,213,91)" fill-opacity="0.500"/>
    <rect x="0" y="3" width="1" height="1" fill="rgb(111,214,65)" fill-opacity="0.500"/>
    <rect x="2" y="3" width="1" height="1" fill="rgb(53,175,102)" fill-opacity="0.500"/>
    <rect x="0" y="4" width="1" height="1" fill="rgb(98,228,9)" fill-opacity="0.500"/>
    <rect x="1" y="4" width="1" height="1" fill="rgb(65,184,126)" fill-opacity="0.500"/>
    <rect x="2" y="4" width="1" height="1" fill="rgb(13,226,12)" fill-opacity="0.500"/>
    <rect x="3" y="4" width="1" height="1" fill="rgb(31,250,31)" fill-opacity="0.500"/>
    <rect x="4" y="4" width="1" height="1" fill="rgb(123,170,78)" fill-opacity="0.500"/>
    <rect x="2" y="5" width="1" height="1" fill="rgb(40,148,106)" fill-opacity="0.500"/>
    <rect x="4" y="5" width="1" height="1" fill="rgb(94,231,61)" fill-opacity="0.500"/>
    <rect x="2" y="6" width="1" height="1" fill="rgb(113,217,123)" fill-opacity="0.500"/>
    <rect x="4" y="6" width="1" height="1" fill="rgb(67,144,25)" fill-opacity="0.500"/>
    <rect x="0" y="7" width="1" height="1" fill="rgb(94,231,101)" fill-opacity="0.500"/>
    <rect x="1" y="7" width="1" height="1" fill="rgb(42,131,146)" fill-opacity="0.500"/>
    <rect x="2" y="7" width="1" height="1" fill="rgb(84,207,153)" fill-opacity="0.500"/>
    <rect x="3" y="7" width="1" height="1" fill="rgb(18,151,134)" fill-opacity="0.500"/>
    <rect x="4" y="7" width="1" height="1" fill="rgb(110,165,167)" fill-opacity="0.500"/>
    <rect x="2" y="8" width="1" height="1" fill="rgb(103,238,173)" fill-opacity="0.500"/>
  </g>
</svg>
