<?xml version="1.0" encoding="UTF-8"?>
<svg xmlns="http://www.w3.org/2000/svg" width="96" height="216" viewBox="0 0 4 9" shape-rendering="crispEdges">
  <title>U+0414 (Д)</title>
  
  <g>
    <rect x="1" y="0" width="1" height="1" fill="rgb(3,248,181)" fill-opacity="0.500"/>
    <rect x="2" y="0" width="1" height="1" fill="rgb(109,176,111)" fill-opacity="0.500"/>
    <rect x="0" y="1" width="1" height="1" fill="rgb(79,142,184)" fill-opacity="0.500"/>
    <rect x="3" y="1" width="1" height="1" fill="rgb(33,224,17)" fill-opacity="0.500"/>
    <rect x="0" y="2" width="1" height="1" fill="rgb(100,163,109)" fill-opacity="0.500"/>
    <rect x="3" y="2" width="1" height="1" fill="rgb(19,215,131)" fill-opacity="0.500"/>
    <rect x="0" y="3" width="1" height="1" fill="rgb(87,251,101)" fill-opacity="0.500"/>
    <rect x="3" y="3" width="1" height="1" fill="rgb(22,159,63)" fill-opacity="0.500"/>
    <rect x="0" y="4" width="1" height="1" fill="rgb(114,170,89)" fill-opacity="0.500"/>
    <rect x="3" y="4" width="1" height="1" fill="rgb(85,238,1)" fill-opacity="0.500"/>
    <rect x="0" y="5" width="1" height="1" fill="rgb(79,153,3)" fill-opacity="0.500"/>
    <rect x="3" y="5" width="1" height="1" fill="rgb(29,173,179)" fill-opacity="0.500"/>
    <rect x="0" y="6" width="1" height="1" fill="rgb(79,223,42)" fill-opacity="0.500"/>
    <rect x="1" y="6" width="1" height="1" fill="rgb(25,248,108)" fill-opacity="0.500"/>
    <rect x="2" y="6" width="1" height="1" fill="rgb(86,145,126)" fill-opacity="0.500"/>
    <rect x="3" y="6" width="1" height="1" fill="rgb(48,203,66)" fill-opacity="0.500"/>
    <rect x="0" y="7" width="1" height="1" fill="rgb(21,157,185)" fill-opacity="0.500"/>
    <rect x="3" y="7" width="1" height="1" fill="rgb(108,202,95)" fill-opacity="0.500"/>
  </g>
</svg>
