<?xml version="1.0" encoding="UTF-8"?>
<svg xmlns="http://www.w3.org/2000/svg" width="96" height="216" viewBox="0 0 4 9" shape-rendering="crispEdges">
  <title>U+042D (Э)</title>
  
  <g>
    <rect x="0" y="0" width="1" height="1" fill="rgb(89,214,37)" fill-opacity="0.500"/>
    <rect x="1" y="0" width="1" height="1" fill="rgb(52,215,154)" fill-opacity="0.500"/>
    <rect x="2" y="0" width="1" height="1" fill="rgb(6,223,182)" fill-opacity="0.500"/>
    <rect x="3" y="0" width="1" height="1" fill="rgb(74,187,128)" fill-opacity="0.500"/>
    <rect x="3" y="1" width="1" height="1" fill="rgb(112,217,49)" fill-opacity="0.500"/>
    <rect x="3" y="2" width="1" height="1" fill="rgb(118,245,40)" fill-opacity="0.500"/>
    <rect x="1" y="3" width="1" height="1" fill="rgb(107,156,64)" fill-opacity="0.500"/>
    <rect x="2" y="3" width="1" height="1" fill="rgb(47,196,125)" fill-opacity="0.500"/>
    <rect x="3" y="3" width="1" height="1" fill="rgb(39,229,169)" fill-opacity="0.500"/>
    <rect x="3" y="4" width="1" height="1" fill="rgb(30,155,108)" fill-opacity="0.500"/>
    <rect x="3" y="5" width="1" height="1" fill="rgb(65,146,147)" fill-opacity="0.500"/>
    <rect x="0" y="6" width="1" height="1" fill="rgb(30,228,49)" fill-opacity="0.500"/>
    <rect x="1" y="6" width="1" height="1" fill="rgb(76,144,31)" fill-opacity="0.500"/>
    <rect x="2" y="6" width="1" height="1" fill="rgb(25,169,132)" fill-opacity="0.500"/>
    <rect x="3" y="6" width="1" height="1" fill="rgb(72,182,87)" fill-opacity="0.500"/>
  </g>
</svg>
