<?xml version="1.0" encoding="UTF-8"?>
<svg xmlns="http://www.w3.org/2000/svg" width="120" height="216" viewBox="0 0 5 9" shape-rendering="crispEdges">
  <title>U+05E6 (צ)</title>
  
  <g>
    <rect x="2" y="0" width="1" height="1" fill="rgb(5,161,82)" fill-opacity="0.500"/>
    <rect x="2" y="1" width="1" height="1" fill="rgb(28,158,58)" fill-opacity="0.500"/>
    <rect x="3" y="1" width="1" height="1" fill="rgb(87,171,177)" fill-opacity="0.500"/>
    <rect x="1" y="2" width="1" height="1" fill="rgb(2,138,158)" fill-opacity="0.500"/>
    <rect x="3" y="2" width="1" height="1" fill="rgb(54,199,61)" fill-opacity="0.500"/>
    <rect x="0" y="3" width="1" height="1" fill="rgb(43,159,42)" fill-opacity="0.500"/>
    <rect x="3" y="3" width="1" height="1" fill="rgb(47,221,147)" fill-opacity="0.500"/>
    <rect x="0" y="4" width="1" height="1" fill="rgb(100,174,7)" fill-opacity="0.500"/>
    <rect x="3" y="4" width="1" height="1" fill="rgb(84,217,188)" fill-opacity="0.500"/>
    <rect x="0" y="5" width="1" height="1" fill="rgb(52,241,75)" fill-opacity="0.500"/>
    <rect x="3" y="5" width="1" height="1" fill="rgb(67,134,73)" fill-opacity="0.500"/>
    <rect x="0" y="6" width="1" height="1" fill="rgb(14,241,146)" fill-opacity="0.500"/>
    <rect x="1" y="6" width="1" height="1" fill="rgb(72,215,53)" fill-opacity="0.500"/>
    <rect x="2" y="6" width="1" height="1" fill="rgb(69,219,1)" fill-opacity="0.500"/>
    <rect x="3" y="6" width="1" height="1" fill="rgb(61,204,24)" fill-opacity="0.500"/>
  </g>
</svg>
