<?xml version="1.0" encoding="UTF-8"?>
<svg xmlns="http://www.w3.org/2000/svg" width="96" height="216" viewBox="0 0 4 9" shape-rendering="crispEdges">
  <title>U+042F (Я)</title>
  
  <g>
    <rect x="1" y="0" width="1" height="1" fill="rgb(100,235,75)" fill-opacity="0.500"/>
    <rect x="2" y="0" width="1" height="1" fill="rgb(119,198,98)" fill-opacity="0.500"/>
    <rect x="3" y="0" width="1" height="1" fill="rgb(60,178,15)" fill-opacity="0.500"/>
    <rect x="0" y="1" width="1" height="1" fill="rgb(60,160,23)" fill-opacity="0.500"/>
    <rect x="3" y="1" width="1" height="1" fill="rgb(117,237,133)" fill-opacity="0.500"/>
    <rect x="0" y="2" width="1" height="1" fill="rgb(43,226,29)" fill-opacity="0.500"/>
    <rect x="3" y="2" width="1" height="1" fill="rgb(101,150,75)" fill-opacity="0.500"/>
    <rect x="1" y="3" width="1" height="1" fill="rgb(86,229,40)" fill-opacity="0.500"/>
    <rect x="2" y="3" width="1" height="1" fill="rgb(41,180,146)" fill-opacity="0.500"/>
    <rect x="3" y="3" width="1" height="1" fill="rgb(68,251,98)" fill-opacity="0.500"/>
    <rect x="2" y="4" width="1" height="1" fill="rgb(105,195,178)" fill-opacity="0.500"/>
    <rect x="1" y="5" width="1" height="1" fill="rgb(121,130,91)" fill-opacity="0.500"/>
    <rect x="3" y="5" width="1" height="1" fill="rgb(2,213,141)" fill-opacity="0.500"/>
    <rect x="0" y="6" width="1" height="1" fill="rgb(84,248,84)" fill-opacity="0.500"/>
    <rect x="3" y="6" width="1" height="1" fill="rgb(106,151,95)" fill-opacity="0.500"/>
  </g>
</svg>
