<?xml version="1.0" encoding="UTF-8"?>
<svg xmlns="http://www.w3.org/2000/svg" width="120" height="216" viewBox="0 0 5 9" shape-rendering="crispEdges">
  <title>U+05E7 (ק)</title>
  
  <g>
    <rect x="1" y="0" width="1" height="1" fill="rgb(43,151,101)" fill-opacity="0.500"/>
    <rect x="2" y="0" width="1" height="1" fill="rgb(95,208,6)" fill-opacity="0.500"/>
    <rect x="3" y="0" width="1" height="1" fill="rgb(101,220,42)" fill-opacity="0.500"/>
    <rect x="0" y="1" width="1" height="1" fill="rgb(106,199,134)" fill-opacity="0.500"/>
    <rect x="4" y="1" width="1" height="1" fill="rgb(42,174,176)" fill-opacity="0.500"/>
    <rect x="0" y="2" width="1" height="1" fill="rgb(59,183,142)" fill-opacity="0.500"/>
    <rect x="4" y="2" width="1" height="1" fill="rgb(112,138,16)" fill-opacity="0.500"/>
    <rect x="0" y="3" width="1" height="1" fill="rgb(121,232,10)" fill-opacity="0.500"/>
    <rect x="4" y="3" width="1" height="1" fill="rgb(22,148,58)" fill-opacity="0.500"/>
    <rect x="0" y="4" width="1" height="1" fill="rgb(11,188,191)" fill-opacity="0.500"/>
    <rect x="4" y="4" width="1" height="1" fill="rgb(99,173,160)" fill-opacity="0.500"/>
    <rect x="1" y="5" width="1" height="1" fill="rgb(79,142,74)" fill-opacity="0.500"/>
    <rect x="2" y="5" width="1" height="1" fill="rgb(74,229,13)" fill-opacity="0.500"/>
    <rect x="3" y="5" width="1" height="1" fill="rgb(89,181,90)" fill-opacity="0.500"/>
    <rect x="3" y="6" width="1" height="1" fill="rgb(13,249,157)" fill-opacity="0.500"/>
    <rect x="3" y="7" width="1" height="1" fill="rgb(19,208,135)" fill-opacity="0.500"/>
  </g>
</svg>
