<?xml version="1.0" encoding="UTF-8"?>
<svg xmlns="http://www.w3.org/2000/svg" width="120" height="216" viewBox="0 0 5 9" shape-rendering="crispEdges">
  <title>U+042B (Ы)</title>
  
  <g>
    <rect x="0" y="0" width="1" height="1" fill="rgb(76,233,62)" fill-opacity="0.500"/>
    <rect x="4" y="0" width="1" height="1" fill="rgb(83,159,184)" fill-opacity="0.500"/>
    <rect x="0" y="1" width="1" height="1" fill="rgb(46,245,128)" fill-opacity="0.500"/>
    <rect x="4" y="1" width="1" height="1" fill="rgb(68,235,99)" fill-opacity="0.500"/>
    <rect x="0" y="2" width="1" height="1" fill="rgb(83,159,31)" fill-opacity="0.500"/>
    <rect x="4" y="2" width="1" height="1" fill="rgb(112,131,97)" fill-opacity="0.500"/>
    <rect x="0" y="3" width="1" height="1" fill="rgb(10,158,73)" fill-opacity="0.500"/>
    <rect x="1" y="3" width="1" height="1" fill="rgb(33,133,96)" fill-opacity="0.500"/>
    <rect x="4" y="3" width="1" height="1" fill="rgb(72,244,188)" fill-opacity="0.500"/>
    <rect x="0" y="4" width="1" height="1" fill="rgb(19,222,139)" fill-opacity="0.500"/>
    <rect x="2" y="4" width="1" height="1" fill="rgb(50,137,29)" fill-opacity="0.500"/>
    <rect x="4" y="4" width="1" height="1" fill="rgb(91,174,16)" fill-opacity="0.500"/>
    <rect x="0" y="5" width="1" height="1" fill="rgb(85,245,139)" fill-opacity="0.500"/>
    <rect x="2" y="5" width="1" height="1" fill="rgb(31,171,116)" fill-opacity="0.500"/>
    <rect x="4" y="5" width="1" height="1" fill="rgb(38,225,178)" fill-opacity="0.500"/>
    <rect x="0" y="6" width="1" height="1" fill="rgb(2,234,13)" fill-opacity="0.500"/>
    <rect x="1" y="6" width="1" height="1" fill="rgb(91,255,151)" fill-opacity="0.500"/>
    <rect x="4" y="6" width="1" height="1" fill="rgb(14,175,136)" fill-opacity="0.500"/>
  </g>
</svg>
