<?xml version="1.0" encoding="UTF-8"?>
<svg xmlns="http://www.w3.org/2000/svg" width="72" height="216" viewBox="0 0 3 9" shape-rendering="crispEdges">
  <title>U+0067 (g)</title>
  
  <g>
    <rect x="0" y="2" width="1" height="1" fill="rgb(29,188,146)" fill-opacity="0.500"/>
    <rect x="1" y="2" width="1" height="1" fill="rgb(63,199,45)" fill-opacity="0.500"/>
    <rect x="2" y="2" width="1" height="1" fill="rgb(11,204,100)" fill-opacity="0.500"/>
    <rect x="0" y="3" width="1" height="1" fill="rgb(11,224,11)" fill-opacity="0.500"/>
    <rect x="2" y="3" width="1" height="1" fill="rgb(16,249,190)" fill-opacity="0.500"/>
    <rect x="0" y="4" width="1" height="1" fill="rgb(103,236,147)" fill-opacity="0.500"/>
    <rect x="2" y="4" width="1" height="1" fill="rgb(122,244,143)" fill-opacity="0.500"/>
    <rect x="0" y="5" width="1" height="1" fill="rgb(117,131,10)" fill-opacity="0.500"/>
    <rect x="2" y="5" width="1" height="1" fill="rgb(125,181,92)" fill-opacity="0.500"/>
    <rect x="0" y="6" width="1" height="1" fill="rgb(21,205,54)" fill-opacity="0.500"/>
    <rect x="1" y="6" width="1" height="1" fill="rgb(111,130,29)" fill-opacity="0.500"/>
    <rect x="2" y="6" width="1" height="1" fill="rgb(36,166,63)" fill-opacity="0.500"/>
    <rect x="2" y="7" width="1" height="1" fill="rgb(54,237,75)" fill-opacity="0.500"/>
    <rect x="0" y="8" width="1" height="1" fill="rgb(60,143,72)" fill-opacity="0.500"/>
    <rect x="1" y="8" width="1" height="1" fill="rgb(67,234,67)" fill-opacity="0.500"/>
    <rect x="2" y="8" width="1" height="1" fill="rgb(26,138,123)" fill-opacity="0.500"/>
  </g>
</svg>
