<?xml version="1.0" encoding="UTF-8"?>
<svg xmlns="http://www.w3.org/2000/svg" width="72" height="216" viewBox="0 0 3 9" shape-rendering="crispEdges">
  <title>U+0055 (U)</title>
  
  <g>
    <rect x="0" y="0" width="1" height="1" fill="rgb(29,167,65)" fill-opacity="0.500"/>
    <rect x="2" y="0" width="1" height="1" fill="rgb(46,212,146)" fill-opacity="0.500"/>
    <rect x="0" y="1" width="1" height="1" fill="rgb(41,230,45)" fill-opacity="0.500"/>
    <rect x="2" y="1" width="1" height="1" fill="rgb(60,202,190)" fill-opacity="0.500"/>
    <rect x="0" y="2" width="1" height="1" fill="rgb(60,171,186)" fill-opacity="0.500"/>
    <rect x="2" y="2" width="1" height="1" fill="rgb(109,150,175)" fill-opacity="0.500"/>
    <rect x="0" y="3" width="1" height="1" fill="rgb(102,197,177)" fill-opacity="0.500"/>
    <rect x="2" y="3" width="1" height="1" fill="rgb(10,150,183)" fill-opacity="0.500"/>
    <rect x="0" y="4" width="1" height="1" fill="rgb(71,137,13)" fill-opacity="0.500"/>
    <rect x="2" y="4" width="1" height="1" fill="rgb(100,162,37)" fill-opacity="0.500"/>
    <rect x="0" y="5" width="1" height="1" fill="rgb(94,163,51)" fill-opacity="0.500"/>
    <rect x="2" y="5" width="1" height="1" fill="rgb(1,220,168)" fill-opacity="0.500"/>
    <rect x="0" y="6" width="1" height="1" fill="rgb(119,237,172)" fill-opacity="0.500"/>
    <rect x="1" y="6" width="1" height="1" fill="rgb(103,187,120)" fill-opacity="0.500"/>
    <rect x="2" y="6" width="1" height="1" fill="rgb(86,182,21)" fill-opacity="0.500"/>
  </g>
</svg>
