<?xml version="1.0" encoding="UTF-8"?>
<svg xmlns="http://www.w3.org/2000/svg" width="120" height="216" viewBox="0 0 5 9" shape-rendering="crispEdges">
  <title>U+0647 (ه)</title>
  
  <g>
    <rect x="1" y="1" width="1" height="1" fill="rgb(56,239,88)" fill-opacity="0.500"/>
    <rect x="2" y="1" width="1" height="1" fill="rgb(125,206,180)" fill-opacity="0.500"/>
    <rect x="3" y="1" width="1" height="1" fill="rgb(81,157,85)" fill-opacity="0.500"/>
    <rect x="0" y="2" width="1" height="1" fill="rgb(92,137,17)" fill-opacity="0.500"/>
    <rect x="4" y="2" width="1" height="1" fill="rgb(18,248,91)" fill-opacity="0.500"/>
    <rect x="0" y="3" width="1" height="1" fill="rgb(77,196,10)" fill-opacity="0.500"/>
    <rect x="2" y="3" width="1" height="1" fill="rgb(11,204,84)" fill-opacity="0.500"/>
    <rect x="4" y="3" width="1" height="1" fill="rgb(79,224,109)" fill-opacity="0.500"/>
    <rect x="0" y="4" width="1" height="1" fill="rgb(3,229,15)" fill-opacity="0.500"/>
    <rect x="4" y="4" width="1" height="1" fill="rgb(116,152,61)" fill-opacity="0.500"/>
    <rect x="0" y="5" width="1" height="1" fill="rgb(1,139,11)" fill-opacity="0.500"/>
    <rect x="4" y="5" width="1" height="1" fill="rgb(98,184,2)" fill-opacity="0.500"/>
    <rect x="1" y="6" width="1" height="1" fill="rgb(2,255,4)" fill-opacity="0.500"/>
    <rect x="2" y="6" width="1" height="1" fill="rgb(93,254,10)" fill-opacity="0.500"/>
    <rect x="3" y="6" width="1" height="1" fill="rgb(35,209,22)" fill-opacity="0.500"/>
  </g>
</svg>
