<?xml version="1.0" encoding="UTF-8"?>
<svg xmlns="http://www.w3.org/2000/svg" width="120" height="216" viewBox="0 0 5 9" shape-rendering="crispEdges">
  <title>U+0057 (W)</title>
  
  <g>
    <rect x="0" y="0" width="1" height="1" fill="rgb(56,154,11)" fill-opacity="0.500"/>
    <rect x="2" y="0" width="1" height="1" fill="rgb(119,176,63)" fill-opacity="0.500"/>
    <rect x="4" y="0" width="1" height="1" fill="rgb(12,137,92)" fill-opacity="0.500"/>
    <rect x="0" y="1" width="1" height="1" fill="rgb(22,167,102)" fill-opacity="0.500"/>
    <rect x="2" y="1" width="1" height="1" fill="rgb(38,213,170)" fill-opacity="0.500"/>
    <rect x="4" y="1" width="1" height="1" fill="rgb(63,239,15)" fill-opacity="0.500"/>
    <rect x="0" y="2" width="1" height="1" fill="rgb(114,177,114)" fill-opacity="0.500"/>
    <rect x="2" y="2" width="1" height="1" fill="rgb(76,187,187)" fill-opacity="0.500"/>
    <rect x="4" y="2" width="1" height="1" fill="rgb(106,128,126)" fill-opacity="0.500"/>
    <rect x="0" y="3" width="1" height="1" fill="rgb(98,248,157)" fill-opacity="0.500"/>
    <rect x="2" y="3" width="1" height="1" fill="rgb(52,203,77)" fill-opacity="0.500"/>
    <rect x="4" y="3" width="1" height="1" fill="rgb(78,215,183)" fill-opacity="0.500"/>
    <rect x="0" y="4" width="1" height="1" fill="rgb(67,240,91)" fill-opacity="0.500"/>
    <rect x="2" y="4" width="1" height="1" fill="rgb(38,141,76)" fill-opacity="0.500"/>
    <rect x="4" y="4" width="1" height="1" fill="rgb(106,185,136)" fill-opacity="0.500"/>
    <rect x="0" y="5" width="1" height="1" fill="rgb(97,191,66)" fill-opacity="0.500"/>
    <rect x="2" y="5" width="1" height="1" fill="rgb(6,168,8)" fill-opacity="0.500"/>
    <rect x="4" y="5" width="1" height="1" fill="rgb(24,238,108)" fill-opacity="0.500"/>
    <rect x="0" y="6" width="1" height="1" fill="rgb(114,245,23)" fill-opacity="0.500"/>
    <rect x="1" y="6" width="1" height="1" fill="rgb(63,249,167)" fill-opacity="0.500"/>
    <rect x="2" y="6" width="1" height="1" fill="rgb(23,249,177)" fill-opacity="0.500"/>
    <rect x="3" y="6" width="1" height="1" fill="rgb(127,190,73)" fill-opacity="0.500"/>
    <rect x="4" y="6" width="1" height="1" fill="rgb(100,161,10)" fill-opacity="0.500"/>
  </g>
</svg>
