<?xml version="1.0" encoding="UTF-8"?>
<svg xmlns="http://www.w3.org/2000/svg" width="96" height="216" viewBox="0 0 4 9" shape-rendering="crispEdges">
  <title>U+042F (Я)</title>
  
  <g>
    <rect x="1" y="0" width="1" height="1" fill="rgb(64,208,84)" fill-opacity="0.500"/>
    <rect x="2" y="0" width="1" height="1" fill="rgb(37,246,169)" fill-opacity="0.500"/>
    <rect x="3" y="0" width="1" height="1" fill="rgb(16,220,157)" fill-opacity="0.500"/>
    <rect x="0" y="1" width="1" height="1" fill="rgb(46,171,133)" fill-opacity="0.500"/>
    <rect x="3" y="1" width="1" height="1" fill="rgb(79,183,18)" fill-opacity="0.500"/>
    <rect x="0" y="2" width="1" height="1" fill="rgb(44,198,163)" fill-opacity="0.500"/>
    <rect x="3" y="2" width="1" height="1" fill="rgb(52,214,76)" fill-opacity="0.500"/>
    <rect x="1" y="3" width="1" height="1" fill="rgb(120,203,48)" fill-opacity="0.500"/>
    <rect x="2" y="3" width="1" height="1" fill="rgb(74,159,37)" fill-opacity="0.500"/>
    <rect x="3" y="3" width="1" height="1" fill="rgb(71,239,92)" fill-opacity="0.500"/>
    <rect x="2" y="4" width="1" height="1" fill="rgb(28,198,32)" fill-opacity="0.500"/>
    <rect x="1" y="5" width="1" height="1" fill="rgb(24,140,181)" fill-opacity="0.500"/>
    <rect x="3" y="5" width="1" height="1" fill="rgb(86,168,126)" fill-opacity="0.500"/>
    <rect x="0" y="6" width="1" height="1" fill="rgb(66,156,189)" fill-opacity="0.500"/>
    <rect x="3" y="6" width="1" height="1" fill="rgb(116,187,134)" fill-opacity="0.500"/>
  </g>
</svg>
