<?xml version="1.0" encoding="UTF-8"?>
<svg xmlns="http://www.w3.org/2000/svg" width="120" height="216" viewBox="0 0 5 9" shape-rendering="crispEdges">
  <title>U+05E1 (ס)</title>
  
  <g>
    <rect x="1" y="0" width="1" height="1" fill="rgb(104,229,79)" fill-opacity="0.500"/>
    <rect x="2" y="0" width="1" height="1" fill="rgb(122,160,1)" fill-opacity="0.500"/>
    <rect x="3" y="0" width="1" height="1" fill="rgb(9,245,56)" fill-opacity="0.500"/>
    <rect x="0" y="1" width="1" height="1" fill="rgb(35,205,124)" fill-opacity="0.500"/>
    <rect x="4" y="1" width="1" height="1" fill="rgb(104,221,16)" fill-opacity="0.500"/>
    <rect x="0" y="2" width="1" height="1" fill="rgb(36,173,184)" fill-opacity="0.500"/>
    <rect x="4" y="2" width="1" height="1" fill="rgb(83,222,103)" fill-opacity="0.500"/>
    <rect x="0" y="3" width="1" height="1" fill="rgb(50,163,111)" fill-opacity="0.500"/>
    <rect x="4" y="3" width="1" height="1" fill="rgb(54,180,110)" fill-opacity="0.500"/>
    <rect x="0" y="4" width="1" height="1" fill="rgb(29,160,148)" fill-opacity="0.500"/>
    <rect x="4" y="4" width="1" height="1" fill="rgb(31,238,18)" fill-opacity="0.500"/>
    <rect x="0" y="5" width="1" height="1" fill="rgb(29,173,106)" fill-opacity="0.500"/>
    <rect x="4" y="5" width="1" height="1" fill="rgb(77,142,139)" fill-opacity="0.500"/>
    <rect x="1" y="6" width="1" height="1" fill="rgb(44,170,186)" fill-opacity="0.500"/>
    <rect x="2" y="6" width="1" height="1" fill="rgb(40,145,32)" fill-opacity="0.500"/>
    <rect x="3" y="6" width="1" height="1" fill="rgb(37,214,63)" fill-opacity="0.500"/>
  </g>
</svg>
