<?xml version="1.0" encoding="UTF-8"?>
<svg xmlns="http://www.w3.org/2000/svg" width="144" height="216" viewBox="0 0 6 9" shape-rendering="crispEdges">
  <title>U+00A9 (©)</title>
  
  <g>
    <rect x="0" y="1" width="1" height="1" fill="rgb(44,254,115)" fill-opacity="0.500"/>
    <rect x="1" y="1" width="1" height="1" fill="rgb(101,208,152)" fill-opacity="0.500"/>
    <rect x="2" y="1" width="1" height="1" fill="rgb(64,135,159)" fill-opacity="0.500"/>
    <rect x="3" y="1" width="1" height="1" fill="rgb(62,160,161)" fill-opacity="0.500"/>
    <rect x="4" y="1" width="1" height="1" fill="rgb(82,142,20)" fill-opacity="0.500"/>
    <rect x="5" y="1" width="1" height="1" fill="rgb(84,254,121)" fill-opacity="0.500"/>
    <rect x="0" y="2" width="1" height="1" fill="rgb(127,151,3)" fill-opacity="0.500"/>
    <rect x="5" y="2" width="1" height="1" fill="rgb(94,139,143)" fill-opacity="0.500"/>
    <rect x="0" y="3" width="1" height="1" fill="rgb(55,192,166)" fill-opacity="0.500"/>
    <rect x="2" y="3" width="1" height="1" fill="rgb(42,216,173)" fill-opacity="0.500"/>
    <rect x="3" y="3" width="1" height="1" fill="rgb(23,147,51)" fill-opacity="0.500"/>
    <rect x="5" y="3" width="1" height="1" fill="rgb(51,216,25)" fill-opacity="0.500"/>
    <rect x="0" y="4" width="1" height="1" fill="rgb(44,215,53)" fill-opacity="0.500"/>
    <rect x="2" y="4" width="1" height="1" fill="rgb(101,129,183)" fill-opacity="0.500"/>
    <rect x="5" y="4" width="1" height="1" fill="rgb(90,157,144)" fill-opacity="0.500"/>
    <rect x="0" y="5" width="1" height="1" fill="rgb(104,217,181)" fill-opacity="0.500"/>
    <rect x="2" y="5" width="1" height="1" fill="rgb(73,217,132)" fill-opacity="0.500"/>
    <rect x="3" y="5" width="1" height="1" fill="rgb(71,155,153)" fill-opacity="0.500"/>
    <rect x="5" y="5" width="1" height="1" fill="rgb(27,130,24)" fill-opacity="0.500"/>
    <rect x="0" y="6" width="1" height="1" fill="rgb(124,241,10)" fill-opacity="0.500"/>
    <rect x="5" y="6" width="1" height="1" fill="rgb(41,171,52)" fill-opacity="0.500"/>
    <rect x="0" y="7" width="1" height="1" fill="rgb(40,168,170)" fill-opacity="0.500"/>
    <rect x="1" y="7" width="1" height="1" fill="rgb(115,148,98)" fill-opacity="0.500"/>
    <rect x="2" y="7" width="1" height="1" fill="rgb(68,250,60)" fill-opacity="0.500"/>
    <rect x="3" y="7" width="1" height="1" fill="rgb(39,185,117)" fill-opacity="0.500"/>
    <rect x="4" y="7" width="1" height="1" fill="rgb(122,251,115)" fill-opacity="0.500"/>
    <rect x="5" y="7" width="1" height="1" fill="rgb(26,150,131)" fill-opacity="0.500"/>
  </g>
</svg>
