<?xml version="1.0" encoding="UTF-8"?>
<svg xmlns="http://www.w3.org/2000/svg" width="96" height="216" viewBox="0 0 4 9" shape-rendering="crispEdges">
  <title>U+0418 (И)</title>
  
  <g>
    <rect x="0" y="0" width="1" height="1" fill="rgb(11,232,77)" fill-opacity="0.500"/>
    <rect x="3" y="0" width="1" height="1" fill="rgb(52,225,81)" fill-opacity="0.500"/>
    <rect x="0" y="1" width="1" height="1" fill="rgb(40,138,170)" fill-opacity="0.500"/>
    <rect x="1" y="1" width="1" height="1" fill="rgb(97,210,38)" fill-opacity="0.500"/>
    <rect x="3" y="1" width="1" height="1" fill="rgb(25,187,53)" fill-opacity="0.500"/>
    <rect x="0" y="2" width="1" height="1" fill="rgb(71,236,66)" fill-opacity="0.500"/>
    <rect x="2" y="2" width="1" height="1" fill="rgb(47,244,179)" fill-opacity="0.500"/>
    <rect x="3" y="2" width="1" height="1" fill="rgb(117,147,110)" fill-opacity="0.500"/>
    <rect x="0" y="3" width="1" height="1" fill="rgb(75,182,80)" fill-opacity="0.500"/>
    <rect x="3" y="3" width="1" height="1" fill="rgb(96,242,90)" fill-opacity="0.500"/>
    <rect x="0" y="4" width="1" height="1" fill="rgb(28,167,33)" fill-opacity="0.500"/>
    <rect x="3" y="4" width="1" height="1" fill="rgb(45,216,83)" fill-opacity="0.500"/>
    <rect x="0" y="5" width="1" height="1" fill="rgb(23,212,56)" fill-opacity="0.500"/>
    <rect x="3" y="5" width="1" height="1" fill="rgb(20,184,142)" fill-opacity="0.500"/>
    <rect x="0" y="6" width="1" height="1" fill="rgb(3,203,64)" fill-opacity="0.500"/>
    <rect x="3" y="6" width="1" height="1" fill="rgb(63,167,26)" fill-opacity="0.500"/>
  </g>
</svg>
