<?xml version="1.0" encoding="UTF-8"?>
<svg xmlns="http://www.w3.org/2000/svg" width="120" height="216" viewBox="0 0 5 9" shape-rendering="crispEdges">
  <title>U+041C (лю)</title>
  
  <g>
    <rect x="0" y="0" width="1" height="1" fill="rgb(26,242,46)" fill-opacity="0.500"/>
    <rect x="1" y="0" width="1" height="1" fill="rgb(21,184,37)" fill-opacity="0.500"/>
    <rect x="2" y="0" width="1" height="1" fill="rgb(112,242,130)" fill-opacity="0.500"/>
    <rect x="3" y="0" width="1" height="1" fill="rgb(74,231,29)" fill-opacity="0.500"/>
    <rect x="4" y="0" width="1" height="1" fill="rgb(123,146,48)" fill-opacity="0.500"/>
    <rect x="0" y="1" width="1" height="1" fill="rgb(3,221,40)" fill-opacity="0.500"/>
    <rect x="2" y="1" width="1" height="1" fill="rgb(46,136,122)" fill-opacity="0.500"/>
    <rect x="4" y="1" width="1" height="1" fill="rgb(101,243,165)" fill-opacity="0.500"/>
    <rect x="0" y="2" width="1" height="1" fill="rgb(101,208,81)" fill-opacity="0.500"/>
    <rect x="2" y="2" width="1" height="1" fill="rgb(20,197,54)" fill-opacity="0.500"/>
    <rect x="4" y="2" width="1" height="1" fill="rgb(125,196,148)" fill-opacity="0.500"/>
    <rect x="0" y="3" width="1" height="1" fill="rgb(79,130,46)" fill-opacity="0.500"/>
    <rect x="2" y="3" width="1" height="1" fill="rgb(55,153,40)" fill-opacity="0.500"/>
    <rect x="4" y="3" width="1" height="1" fill="rgb(111,165,29)" fill-opacity="0.500"/>
    <rect x="0" y="4" width="1" height="1" fill="rgb(8,174,86)" fill-opacity="0.500"/>
    <rect x="2" y="4" width="1" height="1" fill="rgb(68,150,76)" fill-opacity="0.500"/>
    <rect x="4" y="4" width="1" height="1" fill="rgb(38,147,22)" fill-opacity="0.500"/>
    <rect x="0" y="5" width="1" height="1" fill="rgb(117,166,8)" fill-opacity="0.500"/>
    <rect x="2" y="5" width="1" height="1" fill="rgb(120,229,104)" fill-opacity="0.500"/>
    <rect x="4" y="5" width="1" height="1" fill="rgb(78,157,116)" fill-opacity="0.500"/>
    <rect x="0" y="6" width="1" height="1" fill="rgb(87,230,174)" fill-opacity="0.500"/>
    <rect x="2" y="6" width="1" height="1" fill="rgb(20,206,72)" fill-opacity="0.500"/>
    <rect x="4" y="6" width="1" height="1" fill="rgb(28,177,186)" fill-opacity="0.500"/>
  </g>
</svg>
