<?xml version="1.0" encoding="UTF-8"?>
<svg xmlns="http://www.w3.org/2000/svg" width="120" height="216" viewBox="0 0 5 9" shape-rendering="crispEdges">
  <title>U+0424 (Ф)</title>
  
  <g>
    <rect x="2" y="0" width="1" height="1" fill="rgb(65,224,113)" fill-opacity="0.500"/>
    <rect x="1" y="1" width="1" height="1" fill="rgb(81,238,48)" fill-opacity="0.500"/>
    <rect x="2" y="1" width="1" height="1" fill="rgb(26,183,82)" fill-opacity="0.500"/>
    <rect x="3" y="1" width="1" height="1" fill="rgb(53,217,190)" fill-opacity="0.500"/>
    <rect x="0" y="2" width="1" height="1" fill="rgb(47,161,166)" fill-opacity="0.500"/>
    <rect x="2" y="2" width="1" height="1" fill="rgb(53,187,134)" fill-opacity="0.500"/>
    <rect x="4" y="2" width="1" height="1" fill="rgb(11,183,162)" fill-opacity="0.500"/>
    <rect x="0" y="3" width="1" height="1" fill="rgb(44,138,94)" fill-opacity="0.500"/>
    <rect x="2" y="3" width="1" height="1" fill="rgb(70,153,33)" fill-opacity="0.500"/>
    <rect x="4" y="3" width="1" height="1" fill="rgb(21,251,163)" fill-opacity="0.500"/>
    <rect x="1" y="4" width="1" height="1" fill="rgb(105,222,37)" fill-opacity="0.500"/>
    <rect x="2" y="4" width="1" height="1" fill="rgb(10,229,84)" fill-opacity="0.500"/>
    <rect x="3" y="4" width="1" height="1" fill="rgb(41,244,9)" fill-opacity="0.500"/>
    <rect x="2" y="5" width="1" height="1" fill="rgb(55,249,73)" fill-opacity="0.500"/>
    <rect x="2" y="6" width="1" height="1" fill="rgb(27,236,54)" fill-opacity="0.500"/>
  </g>
</svg>
