<?xml version="1.0" encoding="UTF-8"?>
<svg xmlns="http://www.w3.org/2000/svg" width="120" height="216" viewBox="0 0 5 9" shape-rendering="crispEdges">
  <title>U+05E7 (ק)</title>
  
  <g>
    <rect x="1" y="0" width="1" height="1" fill="rgb(48,175,100)" fill-opacity="0.500"/>
    <rect x="2" y="0" width="1" height="1" fill="rgb(18,142,64)" fill-opacity="0.500"/>
    <rect x="3" y="0" width="1" height="1" fill="rgb(69,130,144)" fill-opacity="0.500"/>
    <rect x="0" y="1" width="1" height="1" fill="rgb(39,224,116)" fill-opacity="0.500"/>
    <rect x="4" y="1" width="1" height="1" fill="rgb(87,168,111)" fill-opacity="0.500"/>
    <rect x="0" y="2" width="1" height="1" fill="rgb(36,242,106)" fill-opacity="0.500"/>
    <rect x="4" y="2" width="1" height="1" fill="rgb(36,234,65)" fill-opacity="0.500"/>
    <rect x="0" y="3" width="1" height="1" fill="rgb(13,133,36)" fill-opacity="0.500"/>
    <rect x="4" y="3" width="1" height="1" fill="rgb(45,143,179)" fill-opacity="0.500"/>
    <rect x="0" y="4" width="1" height="1" fill="rgb(108,249,52)" fill-opacity="0.500"/>
    <rect x="4" y="4" width="1" height="1" fill="rgb(77,225,74)" fill-opacity="0.500"/>
    <rect x="1" y="5" width="1" height="1" fill="rgb(80,179,93)" fill-opacity="0.500"/>
    <rect x="2" y="5" width="1" height="1" fill="rgb(71,191,175)" fill-opacity="0.500"/>
    <rect x="3" y="5" width="1" height="1" fill="rgb(69,187,90)" fill-opacity="0.500"/>
    <rect x="3" y="6" width="1" height="1" fill="rgb(25,216,149)" fill-opacity="0.500"/>
    <rect x="3" y="7" width="1" height="1" fill="rgb(101,225,109)" fill-opacity="0.500"/>
  </g>
</svg>
