<?xml version="1.0" encoding="UTF-8"?>
<svg xmlns="http://www.w3.org/2000/svg" width="168" height="216" viewBox="0 0 7 9" shape-rendering="crispEdges">
  <title>U+0040 (@)</title>
  
  <g>
    <rect x="0" y="0" width="1" height="1" fill="rgb(70,228,5)" fill-opacity="0.500"/>
    <rect x="1" y="0" width="1" height="1" fill="rgb(37,231,101)" fill-opacity="0.500"/>
    <rect x="2" y="0" width="1" height="1" fill="rgb(64,164,110)" fill-opacity="0.500"/>
    <rect x="3" y="0" width="1" height="1" fill="rgb(115,216,182)" fill-opacity="0.500"/>
    <rect x="4" y="0" width="1" height="1" fill="rgb(23,188,56)" fill-opacity="0.500"/>
    <rect x="5" y="0" width="1" height="1" fill="rgb(22,153,58)" fill-opacity="0.500"/>
    <rect x="6" y="0" width="1" height="1" fill="rgb(101,173,56)" fill-opacity="0.500"/>
    <rect x="6" y="1" width="1" height="1" fill="rgb(17,206,60)" fill-opacity="0.500"/>
    <rect x="0" y="2" width="1" height="1" fill="rgb(68,183,111)" fill-opacity="0.500"/>
    <rect x="1" y="2" width="1" height="1" fill="rgb(16,195,17)" fill-opacity="0.500"/>
    <rect x="2" y="2" width="1" height="1" fill="rgb(8,149,156)" fill-opacity="0.500"/>
    <rect x="3" y="2" width="1" height="1" fill="rgb(2,237,40)" fill-opacity="0.500"/>
    <rect x="4" y="2" width="1" height="1" fill="rgb(16,158,96)" fill-opacity="0.500"/>
    <rect x="6" y="2" width="1" height="1" fill="rgb(10,201,168)" fill-opacity="0.500"/>
    <rect x="0" y="3" width="1" height="1" fill="rgb(58,233,48)" fill-opacity="0.500"/>
    <rect x="4" y="3" width="1" height="1" fill="rgb(31,254,106)" fill-opacity="0.500"/>
    <rect x="6" y="3" width="1" height="1" fill="rgb(98,200,162)" fill-opacity="0.500"/>
    <rect x="0" y="4" width="1" height="1" fill="rgb(95,216,28)" fill-opacity="0.500"/>
    <rect x="2" y="4" width="1" height="1" fill="rgb(56,182,42)" fill-opacity="0.500"/>
    <rect x="3" y="4" width="1" height="1" fill="rgb(30,241,177)" fill-opacity="0.500"/>
    <rect x="4" y="4" width="1" height="1" fill="rgb(114,187,40)" fill-opacity="0.500"/>
    <rect x="6" y="4" width="1" height="1" fill="rgb(77,176,176)" fill-opacity="0.500"/>
    <rect x="0" y="5" width="1" height="1" fill="rgb(37,224,186)" fill-opacity="0.500"/>
    <rect x="2" y="5" width="1" height="1" fill="rgb(102,188,29)" fill-opacity="0.500"/>
    <rect x="4" y="5" width="1" height="1" fill="rgb(55,170,155)" fill-opacity="0.500"/>
    <rect x="6" y="5" width="1" height="1" fill="rgb(37,192,89)" fill-opacity="0.500"/>
    <rect x="0" y="6" width="1" height="1" fill="rgb(35,142,6)" fill-opacity="0.500"/>
    <rect x="2" y="6" width="1" height="1" fill="rgb(112,197,146)" fill-opacity="0.500"/>
    <rect x="3" y="6" width="1" height="1" fill="rgb(32,132,168)" fill-opacity="0.500"/>
    <rect x="4" y="6" width="1" height="1" fill="rgb(54,151,164)" fill-opacity="0.500"/>
    <rect x="6" y="6" width="1" height="1" fill="rgb(63,212,40)" fill-opacity="0.500"/>
    <rect x="0" y="7" width="1" height="1" fill="rgb(41,201,158)" fill-opacity="0.500"/>
    <rect x="6" y="7" width="1" height="1" fill="rgb(115,213,150)" fill-opacity="0.500"/>
    <rect x="0" y="8" width="1" height="1" fill="rgb(14,167,144)" fill-opacity="0.500"/>
    <rect x="1" y="8" width="1" height="1" fill="rgb(47,250,156)" fill-opacity="0.500"/>
    <rect x="2" y="8" width="1" height="1" fill="rgb(95,198,99)" fill-opacity="0.500"/>
    <rect x="3" y="8" width="1" height="1" fill="rgb(39,190,73)" fill-opacity="0.500"/>
    <rect x="4" y="8" width="1" height="1" fill="rgb(93,216,184)" fill-opacity="0.500"/>
    <rect x="5" y="8" width="1" height="1" fill="rgb(50,215,103)" fill-opacity="0.500"/>
    <rect x="6" y="8" width="1" height="1" fill="rgb(99,145,70)" fill-opacity="0.500"/>
  </g>
</svg>
