<?xml version="1.0" encoding="UTF-8"?>
<svg xmlns="http://www.w3.org/2000/svg" width="120" height="216" viewBox="0 0 5 9" shape-rendering="crispEdges">
  <title>U+05E1 (ס)</title>
  
  <g>
    <rect x="1" y="0" width="1" height="1" fill="rgb(3,155,52)" fill-opacity="0.500"/>
    <rect x="2" y="0" width="1" height="1" fill="rgb(99,206,182)" fill-opacity="0.500"/>
    <rect x="3" y="0" width="1" height="1" fill="rgb(32,220,35)" fill-opacity="0.500"/>
    <rect x="0" y="1" width="1" height="1" fill="rgb(37,176,34)" fill-opacity="0.500"/>
    <rect x="4" y="1" width="1" height="1" fill="rgb(52,199,61)" fill-opacity="0.500"/>
    <rect x="0" y="2" width="1" height="1" fill="rgb(11,183,4)" fill-opacity="0.500"/>
    <rect x="4" y="2" width="1" height="1" fill="rgb(9,248,165)" fill-opacity="0.500"/>
    <rect x="0" y="3" width="1" height="1" fill="rgb(68,187,86)" fill-opacity="0.500"/>
    <rect x="4" y="3" width="1" height="1" fill="rgb(63,220,108)" fill-opacity="0.500"/>
    <rect x="0" y="4" width="1" height="1" fill="rgb(33,198,167)" fill-opacity="0.500"/>
    <rect x="4" y="4" width="1" height="1" fill="rgb(71,240,82)" fill-opacity="0.500"/>
    <rect x="0" y="5" width="1" height="1" fill="rgb(89,228,69)" fill-opacity="0.500"/>
    <rect x="4" y="5" width="1" height="1" fill="rgb(6,235,97)" fill-opacity="0.500"/>
    <rect x="1" y="6" width="1" height="1" fill="rgb(65,169,147)" fill-opacity="0.500"/>
    <rect x="2" y="6" width="1" height="1" fill="rgb(77,160,108)" fill-opacity="0.500"/>
    <rect x="3" y="6" width="1" height="1" fill="rgb(114,143,147)" fill-opacity="0.500"/>
  </g>
</svg>
