<?xml version="1.0" encoding="UTF-8"?>
<svg xmlns="http://www.w3.org/2000/svg" width="72" height="216" viewBox="0 0 3 9" shape-rendering="crispEdges">
  <title>U+042D (Э)</title>
  
  <g>
    <rect x="0" y="0" width="1" height="1" fill="rgb(15,202,131)" fill-opacity="0.500"/>
    <rect x="1" y="0" width="1" height="1" fill="rgb(88,136,115)" fill-opacity="0.500"/>
    <rect x="2" y="0" width="1" height="1" fill="rgb(16,158,42)" fill-opacity="0.500"/>
    <rect x="2" y="1" width="1" height="1" fill="rgb(36,154,162)" fill-opacity="0.500"/>
    <rect x="2" y="2" width="1" height="1" fill="rgb(59,228,107)" fill-opacity="0.500"/>
    <rect x="0" y="3" width="1" height="1" fill="rgb(17,235,110)" fill-opacity="0.500"/>
    <rect x="1" y="3" width="1" height="1" fill="rgb(112,128,173)" fill-opacity="0.500"/>
    <rect x="2" y="3" width="1" height="1" fill="rgb(68,250,84)" fill-opacity="0.500"/>
    <rect x="0" y="4" width="1" height="1" fill="rgb(92,244,41)" fill-opacity="0.500"/>
    <rect x="2" y="4" width="1" height="1" fill="rgb(122,155,18)" fill-opacity="0.500"/>
    <rect x="0" y="5" width="1" height="1" fill="rgb(80,236,50)" fill-opacity="0.500"/>
    <rect x="2" y="5" width="1" height="1" fill="rgb(40,212,177)" fill-opacity="0.500"/>
    <rect x="0" y="6" width="1" height="1" fill="rgb(110,226,121)" fill-opacity="0.500"/>
    <rect x="1" y="6" width="1" height="1" fill="rgb(17,204,78)" fill-opacity="0.500"/>
    <rect x="2" y="6" width="1" height="1" fill="rgb(114,155,36)" fill-opacity="0.500"/>
  </g>
</svg>
