<?xml version="1.0" encoding="UTF-8"?>
<svg xmlns="http://www.w3.org/2000/svg" width="96" height="216" viewBox="0 0 4 9" shape-rendering="crispEdges">
  <title>U+042D (Э)</title>
  
  <g>
    <rect x="0" y="0" width="1" height="1" fill="rgb(43,156,132)" fill-opacity="0.500"/>
    <rect x="1" y="0" width="1" height="1" fill="rgb(71,172,50)" fill-opacity="0.500"/>
    <rect x="2" y="0" width="1" height="1" fill="rgb(19,203,0)" fill-opacity="0.500"/>
    <rect x="3" y="0" width="1" height="1" fill="rgb(0,220,70)" fill-opacity="0.500"/>
    <rect x="3" y="1" width="1" height="1" fill="rgb(12,229,151)" fill-opacity="0.500"/>
    <rect x="3" y="2" width="1" height="1" fill="rgb(112,192,124)" fill-opacity="0.500"/>
    <rect x="1" y="3" width="1" height="1" fill="rgb(38,238,95)" fill-opacity="0.500"/>
    <rect x="2" y="3" width="1" height="1" fill="rgb(116,194,96)" fill-opacity="0.500"/>
    <rect x="3" y="3" width="1" height="1" fill="rgb(82,168,29)" fill-opacity="0.500"/>
    <rect x="3" y="4" width="1" height="1" fill="rgb(62,236,112)" fill-opacity="0.500"/>
    <rect x="3" y="5" width="1" height="1" fill="rgb(14,178,9)" fill-opacity="0.500"/>
    <rect x="0" y="6" width="1" height="1" fill="rgb(104,178,4)" fill-opacity="0.500"/>
    <rect x="1" y="6" width="1" height="1" fill="rgb(88,236,36)" fill-opacity="0.500"/>
    <rect x="2" y="6" width="1" height="1" fill="rgb(20,210,22)" fill-opacity="0.500"/>
    <rect x="3" y="6" width="1" height="1" fill="rgb(100,216,90)" fill-opacity="0.500"/>
  </g>
</svg>
