<?xml version="1.0" encoding="UTF-8"?>
<svg xmlns="http://www.w3.org/2000/svg" width="120" height="216" viewBox="0 0 5 9" shape-rendering="crispEdges">
  <title>U+2628 (☨)</title>
  
  <g>
    <rect x="2" y="0" width="1" height="1" fill="rgb(10,130,30)" fill-opacity="0.500"/>
    <rect x="1" y="1" width="1" height="1" fill="rgb(123,220,148)" fill-opacity="0.500"/>
    <rect x="2" y="1" width="1" height="1" fill="rgb(99,190,164)" fill-opacity="0.500"/>
    <rect x="3" y="1" width="1" height="1" fill="rgb(90,246,6)" fill-opacity="0.500"/>
    <rect x="2" y="2" width="1" height="1" fill="rgb(73,164,73)" fill-opacity="0.500"/>
    <rect x="0" y="3" width="1" height="1" fill="rgb(74,176,185)" fill-opacity="0.500"/>
    <rect x="1" y="3" width="1" height="1" fill="rgb(72,234,102)" fill-opacity="0.500"/>
    <rect x="2" y="3" width="1" height="1" fill="rgb(90,184,77)" fill-opacity="0.500"/>
    <rect x="3" y="3" width="1" height="1" fill="rgb(57,246,105)" fill-opacity="0.500"/>
    <rect x="4" y="3" width="1" height="1" fill="rgb(54,202,9)" fill-opacity="0.500"/>
    <rect x="2" y="4" width="1" height="1" fill="rgb(126,162,185)" fill-opacity="0.500"/>
    <rect x="2" y="5" width="1" height="1" fill="rgb(94,232,85)" fill-opacity="0.500"/>
    <rect x="2" y="6" width="1" height="1" fill="rgb(8,248,101)" fill-opacity="0.500"/>
    <rect x="2" y="7" width="1" height="1" fill="rgb(120,237,146)" fill-opacity="0.500"/>
    <rect x="2" y="8" width="1" height="1" fill="rgb(22,194,122)" fill-opacity="0.500"/>
  </g>
</svg>
