<?xml version="1.0" encoding="UTF-8"?>
<svg xmlns="http://www.w3.org/2000/svg" width="120" height="216" viewBox="0 0 5 9" shape-rendering="crispEdges">
  <title>U+2626 (☦)</title>
  
  <g>
    <rect x="2" y="0" width="1" height="1" fill="rgb(42,253,125)" fill-opacity="0.500"/>
    <rect x="1" y="1" width="1" height="1" fill="rgb(7,192,53)" fill-opacity="0.500"/>
    <rect x="2" y="1" width="1" height="1" fill="rgb(81,193,166)" fill-opacity="0.500"/>
    <rect x="3" y="1" width="1" height="1" fill="rgb(106,169,187)" fill-opacity="0.500"/>
    <rect x="2" y="2" width="1" height="1" fill="rgb(61,186,42)" fill-opacity="0.500"/>
    <rect x="0" y="3" width="1" height="1" fill="rgb(52,169,62)" fill-opacity="0.500"/>
    <rect x="1" y="3" width="1" height="1" fill="rgb(6,158,158)" fill-opacity="0.500"/>
    <rect x="2" y="3" width="1" height="1" fill="rgb(65,169,37)" fill-opacity="0.500"/>
    <rect x="3" y="3" width="1" height="1" fill="rgb(119,134,113)" fill-opacity="0.500"/>
    <rect x="4" y="3" width="1" height="1" fill="rgb(14,133,31)" fill-opacity="0.500"/>
    <rect x="2" y="4" width="1" height="1" fill="rgb(113,240,67)" fill-opacity="0.500"/>
    <rect x="1" y="5" width="1" height="1" fill="rgb(109,191,188)" fill-opacity="0.500"/>
    <rect x="2" y="5" width="1" height="1" fill="rgb(28,237,94)" fill-opacity="0.500"/>
    <rect x="2" y="6" width="1" height="1" fill="rgb(38,169,171)" fill-opacity="0.500"/>
    <rect x="3" y="6" width="1" height="1" fill="rgb(106,218,71)" fill-opacity="0.500"/>
    <rect x="2" y="7" width="1" height="1" fill="rgb(31,165,107)" fill-opacity="0.500"/>
    <rect x="2" y="8" width="1" height="1" fill="rgb(25,221,40)" fill-opacity="0.500"/>
  </g>
</svg>
