<?xml version="1.0" encoding="UTF-8"?>
<svg xmlns="http://www.w3.org/2000/svg" width="120" height="216" viewBox="0 0 5 9" shape-rendering="crispEdges">
  <title>U+2665 (♥)</title>
  
  <g>
    <rect x="1" y="2" width="1" height="1" fill="rgb(14,238,153)" fill-opacity="0.500"/>
    <rect x="3" y="2" width="1" height="1" fill="rgb(92,200,58)" fill-opacity="0.500"/>
    <rect x="0" y="3" width="1" height="1" fill="rgb(67,186,172)" fill-opacity="0.500"/>
    <rect x="1" y="3" width="1" height="1" fill="rgb(49,238,88)" fill-opacity="0.500"/>
    <rect x="2" y="3" width="1" height="1" fill="rgb(118,185,158)" fill-opacity="0.500"/>
    <rect x="3" y="3" width="1" height="1" fill="rgb(72,181,143)" fill-opacity="0.500"/>
    <rect x="4" y="3" width="1" height="1" fill="rgb(31,136,3)" fill-opacity="0.500"/>
    <rect x="0" y="4" width="1" height="1" fill="rgb(123,179,107)" fill-opacity="0.500"/>
    <rect x="1" y="4" width="1" height="1" fill="rgb(117,140,133)" fill-opacity="0.500"/>
    <rect x="2" y="4" width="1" height="1" fill="rgb(43,189,34)" fill-opacity="0.500"/>
    <rect x="3" y="4" width="1" height="1" fill="rgb(19,185,131)" fill-opacity="0.500"/>
    <rect x="4" y="4" width="1" height="1" fill="rgb(92,216,68)" fill-opacity="0.500"/>
    <rect x="1" y="5" width="1" height="1" fill="rgb(78,254,182)" fill-opacity="0.500"/>
    <rect x="2" y="5" width="1" height="1" fill="rgb(102,164,71)" fill-opacity="0.500"/>
    <rect x="3" y="5" width="1" height="1" fill="rgb(64,142,138)" fill-opacity="0.500"/>
    <rect x="2" y="6" width="1" height="1" fill="rgb(50,237,26)" fill-opacity="0.500"/>
  </g>
</svg>
