<?xml version="1.0" encoding="UTF-8"?>
<svg xmlns="http://www.w3.org/2000/svg" width="72" height="216" viewBox="0 0 3 9" shape-rendering="crispEdges">
  <title>U+0410 (А)</title>
  
  <g>
    <rect x="0" y="0" width="1" height="1" fill="rgb(45,209,150)" fill-opacity="0.500"/>
    <rect x="1" y="0" width="1" height="1" fill="rgb(95,196,120)" fill-opacity="0.500"/>
    <rect x="2" y="0" width="1" height="1" fill="rgb(120,181,28)" fill-opacity="0.500"/>
    <rect x="0" y="1" width="1" height="1" fill="rgb(31,150,103)" fill-opacity="0.500"/>
    <rect x="2" y="1" width="1" height="1" fill="rgb(91,142,16)" fill-opacity="0.500"/>
    <rect x="0" y="2" width="1" height="1" fill="rgb(84,217,109)" fill-opacity="0.500"/>
    <rect x="2" y="2" width="1" height="1" fill="rgb(82,225,83)" fill-opacity="0.500"/>
    <rect x="0" y="3" width="1" height="1" fill="rgb(5,203,108)" fill-opacity="0.500"/>
    <rect x="1" y="3" width="1" height="1" fill="rgb(120,212,116)" fill-opacity="0.500"/>
    <rect x="2" y="3" width="1" height="1" fill="rgb(99,234,114)" fill-opacity="0.500"/>
    <rect x="0" y="4" width="1" height="1" fill="rgb(55,217,26)" fill-opacity="0.500"/>
    <rect x="2" y="4" width="1" height="1" fill="rgb(99,210,54)" fill-opacity="0.500"/>
    <rect x="0" y="5" width="1" height="1" fill="rgb(81,223,48)" fill-opacity="0.500"/>
    <rect x="2" y="5" width="1" height="1" fill="rgb(58,209,118)" fill-opacity="0.500"/>
    <rect x="0" y="6" width="1" height="1" fill="rgb(122,217,45)" fill-opacity="0.500"/>
    <rect x="2" y="6" width="1" height="1" fill="rgb(44,166,36)" fill-opacity="0.500"/>
  </g>
</svg>
