<?xml version="1.0" encoding="UTF-8"?>
<svg xmlns="http://www.w3.org/2000/svg" width="120" height="216" viewBox="0 0 5 9" shape-rendering="crispEdges">
  <title>U+05D1 (ב)</title>
  
  <g>
    <rect x="0" y="0" width="1" height="1" fill="rgb(126,218,17)" fill-opacity="0.500"/>
    <rect x="1" y="0" width="1" height="1" fill="rgb(35,239,101)" fill-opacity="0.500"/>
    <rect x="2" y="0" width="1" height="1" fill="rgb(122,247,171)" fill-opacity="0.500"/>
    <rect x="3" y="0" width="1" height="1" fill="rgb(124,129,106)" fill-opacity="0.500"/>
    <rect x="4" y="0" width="1" height="1" fill="rgb(123,152,93)" fill-opacity="0.500"/>
    <rect x="4" y="1" width="1" height="1" fill="rgb(23,182,18)" fill-opacity="0.500"/>
    <rect x="4" y="2" width="1" height="1" fill="rgb(73,150,45)" fill-opacity="0.500"/>
    <rect x="4" y="3" width="1" height="1" fill="rgb(39,141,121)" fill-opacity="0.500"/>
    <rect x="4" y="4" width="1" height="1" fill="rgb(105,166,150)" fill-opacity="0.500"/>
    <rect x="4" y="5" width="1" height="1" fill="rgb(75,244,102)" fill-opacity="0.500"/>
    <rect x="0" y="6" width="1" height="1" fill="rgb(112,185,95)" fill-opacity="0.500"/>
    <rect x="1" y="6" width="1" height="1" fill="rgb(123,158,164)" fill-opacity="0.500"/>
    <rect x="2" y="6" width="1" height="1" fill="rgb(2,153,107)" fill-opacity="0.500"/>
    <rect x="3" y="6" width="1" height="1" fill="rgb(58,206,178)" fill-opacity="0.500"/>
    <rect x="4" y="6" width="1" height="1" fill="rgb(68,248,81)" fill-opacity="0.500"/>
  </g>
</svg>
