<?xml version="1.0" encoding="UTF-8"?>
<svg xmlns="http://www.w3.org/2000/svg" width="120" height="216" viewBox="0 0 5 9" shape-rendering="crispEdges">
  <title>U+05D8 (ט)</title>
  
  <g>
    <rect x="1" y="0" width="1" height="1" fill="rgb(91,208,18)" fill-opacity="0.500"/>
    <rect x="2" y="0" width="1" height="1" fill="rgb(1,189,172)" fill-opacity="0.500"/>
    <rect x="3" y="0" width="1" height="1" fill="rgb(82,191,62)" fill-opacity="0.500"/>
    <rect x="0" y="1" width="1" height="1" fill="rgb(100,129,76)" fill-opacity="0.500"/>
    <rect x="4" y="1" width="1" height="1" fill="rgb(77,142,69)" fill-opacity="0.500"/>
    <rect x="0" y="2" width="1" height="1" fill="rgb(1,160,39)" fill-opacity="0.500"/>
    <rect x="2" y="2" width="1" height="1" fill="rgb(33,129,46)" fill-opacity="0.500"/>
    <rect x="4" y="2" width="1" height="1" fill="rgb(62,139,83)" fill-opacity="0.500"/>
    <rect x="0" y="3" width="1" height="1" fill="rgb(121,193,96)" fill-opacity="0.500"/>
    <rect x="2" y="3" width="1" height="1" fill="rgb(111,180,166)" fill-opacity="0.500"/>
    <rect x="4" y="3" width="1" height="1" fill="rgb(12,164,14)" fill-opacity="0.500"/>
    <rect x="0" y="4" width="1" height="1" fill="rgb(48,132,178)" fill-opacity="0.500"/>
    <rect x="4" y="4" width="1" height="1" fill="rgb(79,229,165)" fill-opacity="0.500"/>
    <rect x="0" y="5" width="1" height="1" fill="rgb(73,220,91)" fill-opacity="0.500"/>
    <rect x="4" y="5" width="1" height="1" fill="rgb(40,160,181)" fill-opacity="0.500"/>
    <rect x="1" y="6" width="1" height="1" fill="rgb(34,163,98)" fill-opacity="0.500"/>
    <rect x="2" y="6" width="1" height="1" fill="rgb(41,236,100)" fill-opacity="0.500"/>
    <rect x="3" y="6" width="1" height="1" fill="rgb(108,233,186)" fill-opacity="0.500"/>
  </g>
</svg>
