<?xml version="1.0" encoding="UTF-8"?>
<svg xmlns="http://www.w3.org/2000/svg" width="72" height="216" viewBox="0 0 3 9" shape-rendering="crispEdges">
  <title>U+004E (N)</title>
  
  <g>
    <rect x="0" y="0" width="1" height="1" fill="rgb(34,177,129)" fill-opacity="0.500"/>
    <rect x="1" y="0" width="1" height="1" fill="rgb(118,219,63)" fill-opacity="0.500"/>
    <rect x="2" y="0" width="1" height="1" fill="rgb(53,229,12)" fill-opacity="0.500"/>
    <rect x="0" y="1" width="1" height="1" fill="rgb(73,155,138)" fill-opacity="0.500"/>
    <rect x="2" y="1" width="1" height="1" fill="rgb(40,252,110)" fill-opacity="0.500"/>
    <rect x="0" y="2" width="1" height="1" fill="rgb(87,251,110)" fill-opacity="0.500"/>
    <rect x="2" y="2" width="1" height="1" fill="rgb(21,249,140)" fill-opacity="0.500"/>
    <rect x="0" y="3" width="1" height="1" fill="rgb(61,253,147)" fill-opacity="0.500"/>
    <rect x="2" y="3" width="1" height="1" fill="rgb(121,229,124)" fill-opacity="0.500"/>
    <rect x="0" y="4" width="1" height="1" fill="rgb(69,160,81)" fill-opacity="0.500"/>
    <rect x="2" y="4" width="1" height="1" fill="rgb(46,229,152)" fill-opacity="0.500"/>
    <rect x="0" y="5" width="1" height="1" fill="rgb(30,211,126)" fill-opacity="0.500"/>
    <rect x="2" y="5" width="1" height="1" fill="rgb(70,140,103)" fill-opacity="0.500"/>
    <rect x="0" y="6" width="1" height="1" fill="rgb(13,228,14)" fill-opacity="0.500"/>
    <rect x="2" y="6" width="1" height="1" fill="rgb(122,223,4)" fill-opacity="0.500"/>
  </g>
</svg>
