<?xml version="1.0" encoding="UTF-8"?>
<svg xmlns="http://www.w3.org/2000/svg" width="96" height="216" viewBox="0 0 4 9" shape-rendering="crispEdges">
  <title>U+042F (Я)</title>
  
  <g>
    <rect x="1" y="0" width="1" height="1" fill="rgb(14,175,36)" fill-opacity="0.500"/>
    <rect x="2" y="0" width="1" height="1" fill="rgb(49,156,102)" fill-opacity="0.500"/>
    <rect x="3" y="0" width="1" height="1" fill="rgb(38,138,94)" fill-opacity="0.500"/>
    <rect x="0" y="1" width="1" height="1" fill="rgb(119,225,98)" fill-opacity="0.500"/>
    <rect x="3" y="1" width="1" height="1" fill="rgb(74,179,81)" fill-opacity="0.500"/>
    <rect x="0" y="2" width="1" height="1" fill="rgb(43,238,163)" fill-opacity="0.500"/>
    <rect x="3" y="2" width="1" height="1" fill="rgb(76,215,159)" fill-opacity="0.500"/>
    <rect x="1" y="3" width="1" height="1" fill="rgb(104,182,28)" fill-opacity="0.500"/>
    <rect x="2" y="3" width="1" height="1" fill="rgb(120,253,148)" fill-opacity="0.500"/>
    <rect x="3" y="3" width="1" height="1" fill="rgb(100,176,12)" fill-opacity="0.500"/>
    <rect x="2" y="4" width="1" height="1" fill="rgb(29,152,59)" fill-opacity="0.500"/>
    <rect x="1" y="5" width="1" height="1" fill="rgb(53,177,20)" fill-opacity="0.500"/>
    <rect x="3" y="5" width="1" height="1" fill="rgb(90,246,67)" fill-opacity="0.500"/>
    <rect x="0" y="6" width="1" height="1" fill="rgb(67,241,124)" fill-opacity="0.500"/>
    <rect x="3" y="6" width="1" height="1" fill="rgb(89,147,127)" fill-opacity="0.500"/>
  </g>
</svg>
