<?xml version="1.0" encoding="UTF-8"?>
<svg xmlns="http://www.w3.org/2000/svg" width="72" height="216" viewBox="0 0 3 9" shape-rendering="crispEdges">
  <title>U+0048 (H)</title>
  
  <g>
    <rect x="0" y="0" width="1" height="1" fill="rgb(77,243,76)" fill-opacity="0.500"/>
    <rect x="2" y="0" width="1" height="1" fill="rgb(96,250,0)" fill-opacity="0.500"/>
    <rect x="0" y="1" width="1" height="1" fill="rgb(53,168,119)" fill-opacity="0.500"/>
    <rect x="2" y="1" width="1" height="1" fill="rgb(26,171,183)" fill-opacity="0.500"/>
    <rect x="0" y="2" width="1" height="1" fill="rgb(115,220,135)" fill-opacity="0.500"/>
    <rect x="2" y="2" width="1" height="1" fill="rgb(24,249,94)" fill-opacity="0.500"/>
    <rect x="0" y="3" width="1" height="1" fill="rgb(11,192,79)" fill-opacity="0.500"/>
    <rect x="1" y="3" width="1" height="1" fill="rgb(40,169,49)" fill-opacity="0.500"/>
    <rect x="2" y="3" width="1" height="1" fill="rgb(9,157,26)" fill-opacity="0.500"/>
    <rect x="0" y="4" width="1" height="1" fill="rgb(91,130,118)" fill-opacity="0.500"/>
    <rect x="2" y="4" width="1" height="1" fill="rgb(122,133,3)" fill-opacity="0.500"/>
    <rect x="0" y="5" width="1" height="1" fill="rgb(28,155,129)" fill-opacity="0.500"/>
    <rect x="2" y="5" width="1" height="1" fill="rgb(121,232,159)" fill-opacity="0.500"/>
    <rect x="0" y="6" width="1" height="1" fill="rgb(52,173,155)" fill-opacity="0.500"/>
    <rect x="2" y="6" width="1" height="1" fill="rgb(66,240,127)" fill-opacity="0.500"/>
  </g>
</svg>
