<?xml version="1.0" encoding="UTF-8"?>
<svg xmlns="http://www.w3.org/2000/svg" width="168" height="216" viewBox="0 0 7 9" shape-rendering="crispEdges">
  <title>U+2709 (✉)</title>
  
  <g>
    <rect x="0" y="2" width="1" height="1" fill="rgb(88,253,153)" fill-opacity="0.500"/>
    <rect x="1" y="2" width="1" height="1" fill="rgb(111,210,110)" fill-opacity="0.500"/>
    <rect x="2" y="2" width="1" height="1" fill="rgb(118,175,188)" fill-opacity="0.500"/>
    <rect x="3" y="2" width="1" height="1" fill="rgb(54,147,157)" fill-opacity="0.500"/>
    <rect x="4" y="2" width="1" height="1" fill="rgb(58,156,147)" fill-opacity="0.500"/>
    <rect x="5" y="2" width="1" height="1" fill="rgb(45,208,177)" fill-opacity="0.500"/>
    <rect x="6" y="2" width="1" height="1" fill="rgb(70,247,79)" fill-opacity="0.500"/>
    <rect x="0" y="3" width="1" height="1" fill="rgb(60,176,97)" fill-opacity="0.500"/>
    <rect x="1" y="3" width="1" height="1" fill="rgb(114,248,138)" fill-opacity="0.500"/>
    <rect x="5" y="3" width="1" height="1" fill="rgb(82,200,97)" fill-opacity="0.500"/>
    <rect x="6" y="3" width="1" height="1" fill="rgb(108,210,167)" fill-opacity="0.500"/>
    <rect x="0" y="4" width="1" height="1" fill="rgb(30,140,120)" fill-opacity="0.500"/>
    <rect x="2" y="4" width="1" height="1" fill="rgb(35,130,111)" fill-opacity="0.500"/>
    <rect x="4" y="4" width="1" height="1" fill="rgb(53,177,111)" fill-opacity="0.500"/>
    <rect x="6" y="4" width="1" height="1" fill="rgb(39,137,10)" fill-opacity="0.500"/>
    <rect x="0" y="5" width="1" height="1" fill="rgb(16,145,117)" fill-opacity="0.500"/>
    <rect x="3" y="5" width="1" height="1" fill="rgb(34,144,68)" fill-opacity="0.500"/>
    <rect x="6" y="5" width="1" height="1" fill="rgb(36,134,49)" fill-opacity="0.500"/>
    <rect x="0" y="6" width="1" height="1" fill="rgb(114,135,142)" fill-opacity="0.500"/>
    <rect x="1" y="6" width="1" height="1" fill="rgb(113,174,95)" fill-opacity="0.500"/>
    <rect x="2" y="6" width="1" height="1" fill="rgb(16,159,68)" fill-opacity="0.500"/>
    <rect x="3" y="6" width="1" height="1" fill="rgb(97,172,88)" fill-opacity="0.500"/>
    <rect x="4" y="6" width="1" height="1" fill="rgb(75,196,37)" fill-opacity="0.500"/>
    <rect x="5" y="6" width="1" height="1" fill="rgb(81,160,96)" fill-opacity="0.500"/>
    <rect x="6" y="6" width="1" height="1" fill="rgb(32,137,186)" fill-opacity="0.500"/>
  </g>
</svg>
