<?xml version="1.0" encoding="UTF-8"?>
<svg xmlns="http://www.w3.org/2000/svg" width="72" height="216" viewBox="0 0 3 9" shape-rendering="crispEdges">
  <title>U+041F (П)</title>
  
  <g>
    <rect x="0" y="0" width="1" height="1" fill="rgb(121,175,36)" fill-opacity="0.500"/>
    <rect x="1" y="0" width="1" height="1" fill="rgb(34,252,123)" fill-opacity="0.500"/>
    <rect x="2" y="0" width="1" height="1" fill="rgb(90,205,147)" fill-opacity="0.500"/>
    <rect x="0" y="1" width="1" height="1" fill="rgb(106,168,14)" fill-opacity="0.500"/>
    <rect x="2" y="1" width="1" height="1" fill="rgb(89,193,155)" fill-opacity="0.500"/>
    <rect x="0" y="2" width="1" height="1" fill="rgb(45,216,139)" fill-opacity="0.500"/>
    <rect x="2" y="2" width="1" height="1" fill="rgb(103,138,70)" fill-opacity="0.500"/>
    <rect x="0" y="3" width="1" height="1" fill="rgb(93,177,157)" fill-opacity="0.500"/>
    <rect x="2" y="3" width="1" height="1" fill="rgb(112,141,50)" fill-opacity="0.500"/>
    <rect x="0" y="4" width="1" height="1" fill="rgb(14,211,28)" fill-opacity="0.500"/>
    <rect x="2" y="4" width="1" height="1" fill="rgb(68,142,90)" fill-opacity="0.500"/>
    <rect x="0" y="5" width="1" height="1" fill="rgb(98,197,96)" fill-opacity="0.500"/>
    <rect x="2" y="5" width="1" height="1" fill="rgb(7,147,92)" fill-opacity="0.500"/>
    <rect x="0" y="6" width="1" height="1" fill="rgb(117,210,12)" fill-opacity="0.500"/>
    <rect x="2" y="6" width="1" height="1" fill="rgb(43,241,185)" fill-opacity="0.500"/>
  </g>
</svg>
