<?xml version="1.0" encoding="UTF-8"?>
<svg xmlns="http://www.w3.org/2000/svg" width="120" height="216" viewBox="0 0 5 9" shape-rendering="crispEdges">
  <title>U+05E9 (ש)</title>
  
  <g>
    <rect x="0" y="0" width="1" height="1" fill="rgb(18,170,146)" fill-opacity="0.500"/>
    <rect x="2" y="0" width="1" height="1" fill="rgb(25,138,154)" fill-opacity="0.500"/>
    <rect x="4" y="0" width="1" height="1" fill="rgb(96,249,79)" fill-opacity="0.500"/>
    <rect x="0" y="1" width="1" height="1" fill="rgb(14,142,190)" fill-opacity="0.500"/>
    <rect x="2" y="1" width="1" height="1" fill="rgb(39,188,74)" fill-opacity="0.500"/>
    <rect x="4" y="1" width="1" height="1" fill="rgb(110,158,81)" fill-opacity="0.500"/>
    <rect x="0" y="2" width="1" height="1" fill="rgb(37,143,3)" fill-opacity="0.500"/>
    <rect x="2" y="2" width="1" height="1" fill="rgb(119,201,69)" fill-opacity="0.500"/>
    <rect x="4" y="2" width="1" height="1" fill="rgb(91,145,46)" fill-opacity="0.500"/>
    <rect x="0" y="3" width="1" height="1" fill="rgb(89,249,161)" fill-opacity="0.500"/>
    <rect x="1" y="3" width="1" height="1" fill="rgb(100,167,79)" fill-opacity="0.500"/>
    <rect x="2" y="3" width="1" height="1" fill="rgb(123,186,59)" fill-opacity="0.500"/>
    <rect x="3" y="3" width="1" height="1" fill="rgb(67,172,69)" fill-opacity="0.500"/>
    <rect x="4" y="3" width="1" height="1" fill="rgb(40,152,53)" fill-opacity="0.500"/>
    <rect x="0" y="4" width="1" height="1" fill="rgb(112,138,78)" fill-opacity="0.500"/>
    <rect x="2" y="4" width="1" height="1" fill="rgb(41,226,108)" fill-opacity="0.500"/>
    <rect x="4" y="4" width="1" height="1" fill="rgb(100,128,8)" fill-opacity="0.500"/>
    <rect x="0" y="5" width="1" height="1" fill="rgb(46,233,116)" fill-opacity="0.500"/>
    <rect x="2" y="5" width="1" height="1" fill="rgb(12,143,162)" fill-opacity="0.500"/>
    <rect x="4" y="5" width="1" height="1" fill="rgb(7,134,28)" fill-opacity="0.500"/>
    <rect x="1" y="6" width="1" height="1" fill="rgb(31,157,127)" fill-opacity="0.500"/>
    <rect x="2" y="6" width="1" height="1" fill="rgb(117,203,182)" fill-opacity="0.500"/>
    <rect x="3" y="6" width="1" height="1" fill="rgb(50,146,54)" fill-opacity="0.500"/>
  </g>
</svg>
