<?xml version="1.0" encoding="UTF-8"?>
<svg xmlns="http://www.w3.org/2000/svg" width="120" height="216" viewBox="0 0 5 9" shape-rendering="crispEdges">
  <title>U+2630 (☰)</title>
  
  <g>
    <rect x="0" y="1" width="1" height="1" fill="rgb(93,209,3)" fill-opacity="0.500"/>
    <rect x="1" y="1" width="1" height="1" fill="rgb(48,253,165)" fill-opacity="0.500"/>
    <rect x="2" y="1" width="1" height="1" fill="rgb(99,144,62)" fill-opacity="0.500"/>
    <rect x="3" y="1" width="1" height="1" fill="rgb(90,148,175)" fill-opacity="0.500"/>
    <rect x="4" y="1" width="1" height="1" fill="rgb(103,158,118)" fill-opacity="0.500"/>
    <rect x="0" y="4" width="1" height="1" fill="rgb(89,176,136)" fill-opacity="0.500"/>
    <rect x="1" y="4" width="1" height="1" fill="rgb(100,179,188)" fill-opacity="0.500"/>
    <rect x="2" y="4" width="1" height="1" fill="rgb(92,216,97)" fill-opacity="0.500"/>
    <rect x="3" y="4" width="1" height="1" fill="rgb(92,228,182)" fill-opacity="0.500"/>
    <rect x="4" y="4" width="1" height="1" fill="rgb(59,216,143)" fill-opacity="0.500"/>
    <rect x="0" y="7" width="1" height="1" fill="rgb(43,239,183)" fill-opacity="0.500"/>
    <rect x="1" y="7" width="1" height="1" fill="rgb(20,187,186)" fill-opacity="0.500"/>
    <rect x="2" y="7" width="1" height="1" fill="rgb(103,208,74)" fill-opacity="0.500"/>
    <rect x="3" y="7" width="1" height="1" fill="rgb(75,191,133)" fill-opacity="0.500"/>
    <rect x="4" y="7" width="1" height="1" fill="rgb(93,238,122)" fill-opacity="0.500"/>
  </g>
</svg>
