<?xml version="1.0" encoding="UTF-8"?>
<svg xmlns="http://www.w3.org/2000/svg" width="120" height="216" viewBox="0 0 5 9" shape-rendering="crispEdges">
  <title>U+004D (M)</title>
  
  <g>
    <rect x="0" y="0" width="1" height="1" fill="rgb(82,213,170)" fill-opacity="0.500"/>
    <rect x="1" y="0" width="1" height="1" fill="rgb(110,244,157)" fill-opacity="0.500"/>
    <rect x="2" y="0" width="1" height="1" fill="rgb(114,166,136)" fill-opacity="0.500"/>
    <rect x="3" y="0" width="1" height="1" fill="rgb(87,158,137)" fill-opacity="0.500"/>
    <rect x="4" y="0" width="1" height="1" fill="rgb(89,221,171)" fill-opacity="0.500"/>
    <rect x="0" y="1" width="1" height="1" fill="rgb(1,229,133)" fill-opacity="0.500"/>
    <rect x="2" y="1" width="1" height="1" fill="rgb(24,250,11)" fill-opacity="0.500"/>
    <rect x="4" y="1" width="1" height="1" fill="rgb(18,217,182)" fill-opacity="0.500"/>
    <rect x="0" y="2" width="1" height="1" fill="rgb(35,177,65)" fill-opacity="0.500"/>
    <rect x="2" y="2" width="1" height="1" fill="rgb(107,134,55)" fill-opacity="0.500"/>
    <rect x="4" y="2" width="1" height="1" fill="rgb(109,193,84)" fill-opacity="0.500"/>
    <rect x="0" y="3" width="1" height="1" fill="rgb(88,153,159)" fill-opacity="0.500"/>
    <rect x="2" y="3" width="1" height="1" fill="rgb(12,186,125)" fill-opacity="0.500"/>
    <rect x="4" y="3" width="1" height="1" fill="rgb(64,252,176)" fill-opacity="0.500"/>
    <rect x="0" y="4" width="1" height="1" fill="rgb(86,179,157)" fill-opacity="0.500"/>
    <rect x="2" y="4" width="1" height="1" fill="rgb(70,231,131)" fill-opacity="0.500"/>
    <rect x="4" y="4" width="1" height="1" fill="rgb(14,148,51)" fill-opacity="0.500"/>
    <rect x="0" y="5" width="1" height="1" fill="rgb(21,131,175)" fill-opacity="0.500"/>
    <rect x="2" y="5" width="1" height="1" fill="rgb(102,224,107)" fill-opacity="0.500"/>
    <rect x="4" y="5" width="1" height="1" fill="rgb(38,197,155)" fill-opacity="0.500"/>
    <rect x="0" y="6" width="1" height="1" fill="rgb(59,174,120)" fill-opacity="0.500"/>
    <rect x="2" y="6" width="1" height="1" fill="rgb(121,170,47)" fill-opacity="0.500"/>
    <rect x="4" y="6" width="1" height="1" fill="rgb(79,196,160)" fill-opacity="0.500"/>
  </g>
</svg>
