<?xml version="1.0" encoding="UTF-8"?>
<svg xmlns="http://www.w3.org/2000/svg" width="120" height="216" viewBox="0 0 5 9" shape-rendering="crispEdges">
  <title>U+0402 (Ђ)</title>
  
  <g>
    <rect x="0" y="0" width="1" height="1" fill="rgb(95,238,4)" fill-opacity="0.500"/>
    <rect x="1" y="0" width="1" height="1" fill="rgb(39,133,67)" fill-opacity="0.500"/>
    <rect x="2" y="0" width="1" height="1" fill="rgb(7,251,132)" fill-opacity="0.500"/>
    <rect x="1" y="1" width="1" height="1" fill="rgb(97,171,80)" fill-opacity="0.500"/>
    <rect x="1" y="2" width="1" height="1" fill="rgb(124,188,68)" fill-opacity="0.500"/>
    <rect x="1" y="3" width="1" height="1" fill="rgb(60,222,110)" fill-opacity="0.500"/>
    <rect x="2" y="3" width="1" height="1" fill="rgb(18,141,3)" fill-opacity="0.500"/>
    <rect x="3" y="3" width="1" height="1" fill="rgb(110,250,187)" fill-opacity="0.500"/>
    <rect x="4" y="3" width="1" height="1" fill="rgb(34,213,37)" fill-opacity="0.500"/>
    <rect x="1" y="4" width="1" height="1" fill="rgb(50,152,115)" fill-opacity="0.500"/>
    <rect x="4" y="4" width="1" height="1" fill="rgb(124,174,111)" fill-opacity="0.500"/>
    <rect x="1" y="5" width="1" height="1" fill="rgb(64,206,188)" fill-opacity="0.500"/>
    <rect x="4" y="5" width="1" height="1" fill="rgb(50,181,62)" fill-opacity="0.500"/>
    <rect x="1" y="6" width="1" height="1" fill="rgb(14,159,185)" fill-opacity="0.500"/>
    <rect x="3" y="6" width="1" height="1" fill="rgb(44,142,22)" fill-opacity="0.500"/>
    <rect x="4" y="6" width="1" height="1" fill="rgb(51,240,127)" fill-opacity="0.500"/>
  </g>
</svg>
