<?xml version="1.0" encoding="UTF-8"?>
<svg xmlns="http://www.w3.org/2000/svg" width="120" height="216" viewBox="0 0 5 9" shape-rendering="crispEdges">
  <title>U+05D7 (ח)</title>
  
  <g>
    <rect x="0" y="0" width="1" height="1" fill="rgb(97,238,106)" fill-opacity="0.500"/>
    <rect x="1" y="0" width="1" height="1" fill="rgb(37,196,34)" fill-opacity="0.500"/>
    <rect x="2" y="0" width="1" height="1" fill="rgb(113,156,188)" fill-opacity="0.500"/>
    <rect x="3" y="0" width="1" height="1" fill="rgb(17,150,33)" fill-opacity="0.500"/>
    <rect x="4" y="0" width="1" height="1" fill="rgb(85,137,78)" fill-opacity="0.500"/>
    <rect x="0" y="1" width="1" height="1" fill="rgb(116,161,98)" fill-opacity="0.500"/>
    <rect x="4" y="1" width="1" height="1" fill="rgb(121,187,21)" fill-opacity="0.500"/>
    <rect x="0" y="2" width="1" height="1" fill="rgb(16,212,9)" fill-opacity="0.500"/>
    <rect x="4" y="2" width="1" height="1" fill="rgb(99,175,164)" fill-opacity="0.500"/>
    <rect x="0" y="3" width="1" height="1" fill="rgb(111,141,137)" fill-opacity="0.500"/>
    <rect x="4" y="3" width="1" height="1" fill="rgb(74,134,23)" fill-opacity="0.500"/>
    <rect x="0" y="4" width="1" height="1" fill="rgb(51,213,99)" fill-opacity="0.500"/>
    <rect x="4" y="4" width="1" height="1" fill="rgb(50,231,49)" fill-opacity="0.500"/>
    <rect x="0" y="5" width="1" height="1" fill="rgb(18,188,77)" fill-opacity="0.500"/>
    <rect x="4" y="5" width="1" height="1" fill="rgb(34,210,185)" fill-opacity="0.500"/>
    <rect x="0" y="6" width="1" height="1" fill="rgb(69,200,24)" fill-opacity="0.500"/>
    <rect x="4" y="6" width="1" height="1" fill="rgb(4,157,158)" fill-opacity="0.500"/>
  </g>
</svg>
