<?xml version="1.0" encoding="UTF-8"?>
<svg xmlns="http://www.w3.org/2000/svg" width="120" height="216" viewBox="0 0 5 9" shape-rendering="crispEdges">
  <title>U+05E6 (צ)</title>
  
  <g>
    <rect x="2" y="0" width="1" height="1" fill="rgb(37,215,103)" fill-opacity="0.500"/>
    <rect x="2" y="1" width="1" height="1" fill="rgb(90,194,94)" fill-opacity="0.500"/>
    <rect x="3" y="1" width="1" height="1" fill="rgb(91,197,118)" fill-opacity="0.500"/>
    <rect x="1" y="2" width="1" height="1" fill="rgb(105,203,68)" fill-opacity="0.500"/>
    <rect x="3" y="2" width="1" height="1" fill="rgb(43,176,21)" fill-opacity="0.500"/>
    <rect x="0" y="3" width="1" height="1" fill="rgb(126,253,114)" fill-opacity="0.500"/>
    <rect x="3" y="3" width="1" height="1" fill="rgb(13,219,82)" fill-opacity="0.500"/>
    <rect x="0" y="4" width="1" height="1" fill="rgb(34,231,178)" fill-opacity="0.500"/>
    <rect x="3" y="4" width="1" height="1" fill="rgb(76,221,130)" fill-opacity="0.500"/>
    <rect x="0" y="5" width="1" height="1" fill="rgb(111,240,146)" fill-opacity="0.500"/>
    <rect x="3" y="5" width="1" height="1" fill="rgb(85,131,173)" fill-opacity="0.500"/>
    <rect x="0" y="6" width="1" height="1" fill="rgb(38,150,135)" fill-opacity="0.500"/>
    <rect x="1" y="6" width="1" height="1" fill="rgb(57,241,64)" fill-opacity="0.500"/>
    <rect x="2" y="6" width="1" height="1" fill="rgb(52,136,0)" fill-opacity="0.500"/>
    <rect x="3" y="6" width="1" height="1" fill="rgb(28,247,121)" fill-opacity="0.500"/>
  </g>
</svg>
