<?xml version="1.0" encoding="UTF-8"?>
<svg xmlns="http://www.w3.org/2000/svg" width="120" height="216" viewBox="0 0 5 9" shape-rendering="crispEdges">
  <title>U+042E (Ю)</title>
  
  <g>
    <rect x="0" y="0" width="1" height="1" fill="rgb(44,225,16)" fill-opacity="0.500"/>
    <rect x="2" y="0" width="1" height="1" fill="rgb(14,235,84)" fill-opacity="0.500"/>
    <rect x="3" y="0" width="1" height="1" fill="rgb(54,173,76)" fill-opacity="0.500"/>
    <rect x="0" y="1" width="1" height="1" fill="rgb(47,211,141)" fill-opacity="0.500"/>
    <rect x="2" y="1" width="1" height="1" fill="rgb(16,140,148)" fill-opacity="0.500"/>
    <rect x="4" y="1" width="1" height="1" fill="rgb(89,252,6)" fill-opacity="0.500"/>
    <rect x="0" y="2" width="1" height="1" fill="rgb(113,226,183)" fill-opacity="0.500"/>
    <rect x="1" y="2" width="1" height="1" fill="rgb(19,197,113)" fill-opacity="0.500"/>
    <rect x="2" y="2" width="1" height="1" fill="rgb(85,210,28)" fill-opacity="0.500"/>
    <rect x="4" y="2" width="1" height="1" fill="rgb(123,213,189)" fill-opacity="0.500"/>
    <rect x="0" y="3" width="1" height="1" fill="rgb(81,149,123)" fill-opacity="0.500"/>
    <rect x="2" y="3" width="1" height="1" fill="rgb(18,177,157)" fill-opacity="0.500"/>
    <rect x="4" y="3" width="1" height="1" fill="rgb(65,160,127)" fill-opacity="0.500"/>
    <rect x="0" y="4" width="1" height="1" fill="rgb(126,162,108)" fill-opacity="0.500"/>
    <rect x="2" y="4" width="1" height="1" fill="rgb(39,211,112)" fill-opacity="0.500"/>
    <rect x="4" y="4" width="1" height="1" fill="rgb(36,246,36)" fill-opacity="0.500"/>
    <rect x="0" y="5" width="1" height="1" fill="rgb(127,162,61)" fill-opacity="0.500"/>
    <rect x="2" y="5" width="1" height="1" fill="rgb(35,174,126)" fill-opacity="0.500"/>
    <rect x="4" y="5" width="1" height="1" fill="rgb(104,206,15)" fill-opacity="0.500"/>
    <rect x="0" y="6" width="1" height="1" fill="rgb(59,228,56)" fill-opacity="0.500"/>
    <rect x="2" y="6" width="1" height="1" fill="rgb(18,182,64)" fill-opacity="0.500"/>
    <rect x="3" y="6" width="1" height="1" fill="rgb(121,197,86)" fill-opacity="0.500"/>
  </g>
</svg>
