<?xml version="1.0" encoding="UTF-8"?>
<svg xmlns="http://www.w3.org/2000/svg" width="120" height="216" viewBox="0 0 5 9" shape-rendering="crispEdges">
  <title>U+2630 (☰)</title>
  
  <g>
    <rect x="0" y="2" width="1" height="1" fill="rgb(29,225,4)" fill-opacity="0.500"/>
    <rect x="1" y="2" width="1" height="1" fill="rgb(67,195,157)" fill-opacity="0.500"/>
    <rect x="2" y="2" width="1" height="1" fill="rgb(59,167,131)" fill-opacity="0.500"/>
    <rect x="3" y="2" width="1" height="1" fill="rgb(86,247,131)" fill-opacity="0.500"/>
    <rect x="4" y="2" width="1" height="1" fill="rgb(86,203,95)" fill-opacity="0.500"/>
    <rect x="0" y="4" width="1" height="1" fill="rgb(125,152,84)" fill-opacity="0.500"/>
    <rect x="1" y="4" width="1" height="1" fill="rgb(9,238,88)" fill-opacity="0.500"/>
    <rect x="2" y="4" width="1" height="1" fill="rgb(9,142,176)" fill-opacity="0.500"/>
    <rect x="3" y="4" width="1" height="1" fill="rgb(72,171,80)" fill-opacity="0.500"/>
    <rect x="4" y="4" width="1" height="1" fill="rgb(88,167,81)" fill-opacity="0.500"/>
    <rect x="0" y="6" width="1" height="1" fill="rgb(64,215,92)" fill-opacity="0.500"/>
    <rect x="1" y="6" width="1" height="1" fill="rgb(67,172,103)" fill-opacity="0.500"/>
    <rect x="2" y="6" width="1" height="1" fill="rgb(88,240,12)" fill-opacity="0.500"/>
    <rect x="3" y="6" width="1" height="1" fill="rgb(85,181,55)" fill-opacity="0.500"/>
    <rect x="4" y="6" width="1" height="1" fill="rgb(85,220,71)" fill-opacity="0.500"/>
  </g>
</svg>
