<?xml version="1.0" encoding="UTF-8"?>
<svg xmlns="http://www.w3.org/2000/svg" width="120" height="216" viewBox="0 0 5 9" shape-rendering="crispEdges">
  <title>U+0424 (Ф)</title>
  
  <g>
    <rect x="2" y="0" width="1" height="1" fill="rgb(118,178,190)" fill-opacity="0.500"/>
    <rect x="1" y="1" width="1" height="1" fill="rgb(26,247,44)" fill-opacity="0.500"/>
    <rect x="2" y="1" width="1" height="1" fill="rgb(98,143,111)" fill-opacity="0.500"/>
    <rect x="3" y="1" width="1" height="1" fill="rgb(0,182,51)" fill-opacity="0.500"/>
    <rect x="0" y="2" width="1" height="1" fill="rgb(117,159,182)" fill-opacity="0.500"/>
    <rect x="2" y="2" width="1" height="1" fill="rgb(99,177,126)" fill-opacity="0.500"/>
    <rect x="4" y="2" width="1" height="1" fill="rgb(69,202,69)" fill-opacity="0.500"/>
    <rect x="0" y="3" width="1" height="1" fill="rgb(26,158,112)" fill-opacity="0.500"/>
    <rect x="2" y="3" width="1" height="1" fill="rgb(110,128,59)" fill-opacity="0.500"/>
    <rect x="4" y="3" width="1" height="1" fill="rgb(35,168,89)" fill-opacity="0.500"/>
    <rect x="1" y="4" width="1" height="1" fill="rgb(71,143,125)" fill-opacity="0.500"/>
    <rect x="2" y="4" width="1" height="1" fill="rgb(99,160,190)" fill-opacity="0.500"/>
    <rect x="3" y="4" width="1" height="1" fill="rgb(47,172,121)" fill-opacity="0.500"/>
    <rect x="2" y="5" width="1" height="1" fill="rgb(109,204,63)" fill-opacity="0.500"/>
    <rect x="2" y="6" width="1" height="1" fill="rgb(50,230,53)" fill-opacity="0.500"/>
  </g>
</svg>
