<?xml version="1.0" encoding="UTF-8"?>
<svg xmlns="http://www.w3.org/2000/svg" width="120" height="216" viewBox="0 0 5 9" shape-rendering="crispEdges">
  <title>U+05D7 (ח)</title>
  
  <g>
    <rect x="0" y="0" width="1" height="1" fill="rgb(120,140,175)" fill-opacity="0.500"/>
    <rect x="1" y="0" width="1" height="1" fill="rgb(90,161,81)" fill-opacity="0.500"/>
    <rect x="2" y="0" width="1" height="1" fill="rgb(26,202,122)" fill-opacity="0.500"/>
    <rect x="3" y="0" width="1" height="1" fill="rgb(107,133,14)" fill-opacity="0.500"/>
    <rect x="4" y="0" width="1" height="1" fill="rgb(105,163,120)" fill-opacity="0.500"/>
    <rect x="0" y="1" width="1" height="1" fill="rgb(6,149,18)" fill-opacity="0.500"/>
    <rect x="4" y="1" width="1" height="1" fill="rgb(16,134,18)" fill-opacity="0.500"/>
    <rect x="0" y="2" width="1" height="1" fill="rgb(12,232,91)" fill-opacity="0.500"/>
    <rect x="4" y="2" width="1" height="1" fill="rgb(122,141,173)" fill-opacity="0.500"/>
    <rect x="0" y="3" width="1" height="1" fill="rgb(43,233,36)" fill-opacity="0.500"/>
    <rect x="4" y="3" width="1" height="1" fill="rgb(15,196,152)" fill-opacity="0.500"/>
    <rect x="0" y="4" width="1" height="1" fill="rgb(105,157,110)" fill-opacity="0.500"/>
    <rect x="4" y="4" width="1" height="1" fill="rgb(69,178,29)" fill-opacity="0.500"/>
    <rect x="0" y="5" width="1" height="1" fill="rgb(72,129,20)" fill-opacity="0.500"/>
    <rect x="4" y="5" width="1" height="1" fill="rgb(124,201,170)" fill-opacity="0.500"/>
    <rect x="0" y="6" width="1" height="1" fill="rgb(122,166,11)" fill-opacity="0.500"/>
    <rect x="4" y="6" width="1" height="1" fill="rgb(97,216,79)" fill-opacity="0.500"/>
  </g>
</svg>
