<?xml version="1.0" encoding="UTF-8"?>
<svg xmlns="http://www.w3.org/2000/svg" width="168" height="216" viewBox="0 0 7 9" shape-rendering="crispEdges">
  <title>U+203B (※)</title>
  
  <g>
    <rect x="0" y="0" width="1" height="1" fill="rgb(67,253,153)" fill-opacity="0.500"/>
    <rect x="3" y="0" width="1" height="1" fill="rgb(70,153,39)" fill-opacity="0.500"/>
    <rect x="6" y="0" width="1" height="1" fill="rgb(42,142,138)" fill-opacity="0.500"/>
    <rect x="1" y="1" width="1" height="1" fill="rgb(98,201,88)" fill-opacity="0.500"/>
    <rect x="5" y="1" width="1" height="1" fill="rgb(103,163,184)" fill-opacity="0.500"/>
    <rect x="2" y="2" width="1" height="1" fill="rgb(89,214,5)" fill-opacity="0.500"/>
    <rect x="4" y="2" width="1" height="1" fill="rgb(19,231,92)" fill-opacity="0.500"/>
    <rect x="0" y="3" width="1" height="1" fill="rgb(67,206,69)" fill-opacity="0.500"/>
    <rect x="3" y="3" width="1" height="1" fill="rgb(26,140,72)" fill-opacity="0.500"/>
    <rect x="6" y="3" width="1" height="1" fill="rgb(40,253,14)" fill-opacity="0.500"/>
    <rect x="2" y="4" width="1" height="1" fill="rgb(26,246,82)" fill-opacity="0.500"/>
    <rect x="4" y="4" width="1" height="1" fill="rgb(64,168,68)" fill-opacity="0.500"/>
    <rect x="1" y="5" width="1" height="1" fill="rgb(56,131,30)" fill-opacity="0.500"/>
    <rect x="5" y="5" width="1" height="1" fill="rgb(117,214,13)" fill-opacity="0.500"/>
    <rect x="0" y="6" width="1" height="1" fill="rgb(31,214,81)" fill-opacity="0.500"/>
    <rect x="3" y="6" width="1" height="1" fill="rgb(33,241,114)" fill-opacity="0.500"/>
    <rect x="6" y="6" width="1" height="1" fill="rgb(14,218,181)" fill-opacity="0.500"/>
  </g>
</svg>
