<?xml version="1.0" encoding="UTF-8"?>
<svg xmlns="http://www.w3.org/2000/svg" width="120" height="216" viewBox="0 0 5 9" shape-rendering="crispEdges">
  <title>U+05E6 (צ)</title>
  
  <g>
    <rect x="2" y="0" width="1" height="1" fill="rgb(104,139,28)" fill-opacity="0.500"/>
    <rect x="2" y="1" width="1" height="1" fill="rgb(37,204,153)" fill-opacity="0.500"/>
    <rect x="3" y="1" width="1" height="1" fill="rgb(56,138,121)" fill-opacity="0.500"/>
    <rect x="1" y="2" width="1" height="1" fill="rgb(8,254,39)" fill-opacity="0.500"/>
    <rect x="3" y="2" width="1" height="1" fill="rgb(59,132,13)" fill-opacity="0.500"/>
    <rect x="0" y="3" width="1" height="1" fill="rgb(28,189,190)" fill-opacity="0.500"/>
    <rect x="3" y="3" width="1" height="1" fill="rgb(102,176,70)" fill-opacity="0.500"/>
    <rect x="0" y="4" width="1" height="1" fill="rgb(67,254,141)" fill-opacity="0.500"/>
    <rect x="3" y="4" width="1" height="1" fill="rgb(30,155,43)" fill-opacity="0.500"/>
    <rect x="0" y="5" width="1" height="1" fill="rgb(36,192,109)" fill-opacity="0.500"/>
    <rect x="3" y="5" width="1" height="1" fill="rgb(96,222,67)" fill-opacity="0.500"/>
    <rect x="0" y="6" width="1" height="1" fill="rgb(73,253,155)" fill-opacity="0.500"/>
    <rect x="1" y="6" width="1" height="1" fill="rgb(102,224,78)" fill-opacity="0.500"/>
    <rect x="2" y="6" width="1" height="1" fill="rgb(75,247,176)" fill-opacity="0.500"/>
    <rect x="3" y="6" width="1" height="1" fill="rgb(46,164,105)" fill-opacity="0.500"/>
  </g>
</svg>
