<?xml version="1.0" encoding="UTF-8"?>
<svg xmlns="http://www.w3.org/2000/svg" width="72" height="216" viewBox="0 0 3 9" shape-rendering="crispEdges">
  <title>U+0052 (R)</title>
  
  <g>
    <rect x="0" y="0" width="1" height="1" fill="rgb(1,229,53)" fill-opacity="0.500"/>
    <rect x="1" y="0" width="1" height="1" fill="rgb(27,128,85)" fill-opacity="0.500"/>
    <rect x="2" y="0" width="1" height="1" fill="rgb(15,143,93)" fill-opacity="0.500"/>
    <rect x="0" y="1" width="1" height="1" fill="rgb(52,171,44)" fill-opacity="0.500"/>
    <rect x="2" y="1" width="1" height="1" fill="rgb(90,191,162)" fill-opacity="0.500"/>
    <rect x="0" y="2" width="1" height="1" fill="rgb(85,168,78)" fill-opacity="0.500"/>
    <rect x="2" y="2" width="1" height="1" fill="rgb(4,131,163)" fill-opacity="0.500"/>
    <rect x="0" y="3" width="1" height="1" fill="rgb(109,219,27)" fill-opacity="0.500"/>
    <rect x="1" y="3" width="1" height="1" fill="rgb(112,183,60)" fill-opacity="0.500"/>
    <rect x="0" y="4" width="1" height="1" fill="rgb(61,255,78)" fill-opacity="0.500"/>
    <rect x="2" y="4" width="1" height="1" fill="rgb(51,211,171)" fill-opacity="0.500"/>
    <rect x="0" y="5" width="1" height="1" fill="rgb(77,220,125)" fill-opacity="0.500"/>
    <rect x="2" y="5" width="1" height="1" fill="rgb(32,153,102)" fill-opacity="0.500"/>
    <rect x="0" y="6" width="1" height="1" fill="rgb(99,186,17)" fill-opacity="0.500"/>
    <rect x="2" y="6" width="1" height="1" fill="rgb(126,213,44)" fill-opacity="0.500"/>
  </g>
</svg>
