<?xml version="1.0" encoding="UTF-8"?>
<svg xmlns="http://www.w3.org/2000/svg" width="216" height="216" viewBox="0 0 9 9" shape-rendering="crispEdges">
  <title>U+2683 (⚃)</title>
  
  <g>
    <rect x="0" y="0" width="1" height="1" fill="rgb(56,217,146)" fill-opacity="0.500"/>
    <rect x="1" y="0" width="1" height="1" fill="rgb(24,149,137)" fill-opacity="0.500"/>
    <rect x="2" y="0" width="1" height="1" fill="rgb(102,221,51)" fill-opacity="0.500"/>
    <rect x="3" y="0" width="1" height="1" fill="rgb(60,240,172)" fill-opacity="0.500"/>
    <rect x="4" y="0" width="1" height="1" fill="rgb(52,133,162)" fill-opacity="0.500"/>
    <rect x="5" y="0" width="1" height="1" fill="rgb(55,151,127)" fill-opacity="0.500"/>
    <rect x="6" y="0" width="1" height="1" fill="rgb(121,159,57)" fill-opacity="0.500"/>
    <rect x="7" y="0" width="1" height="1" fill="rgb(33,246,179)" fill-opacity="0.500"/>
    <rect x="8" y="0" width="1" height="1" fill="rgb(65,201,103)" fill-opacity="0.500"/>
    <rect x="0" y="1" width="1" height="1" fill="rgb(51,202,73)" fill-opacity="0.500"/>
    <rect x="8" y="1" width="1" height="1" fill="rgb(94,214,174)" fill-opacity="0.500"/>
    <rect x="0" y="2" width="1" height="1" fill="rgb(59,169,133)" fill-opacity="0.500"/>
    <rect x="2" y="2" width="1" height="1" fill="rgb(30,174,12)" fill-opacity="0.500"/>
    <rect x="6" y="2" width="1" height="1" fill="rgb(61,195,56)" fill-opacity="0.500"/>
    <rect x="8" y="2" width="1" height="1" fill="rgb(29,203,22)" fill-opacity="0.500"/>
    <rect x="0" y="3" width="1" height="1" fill="rgb(114,240,150)" fill-opacity="0.500"/>
    <rect x="8" y="3" width="1" height="1" fill="rgb(35,246,88)" fill-opacity="0.500"/>
    <rect x="0" y="4" width="1" height="1" fill="rgb(14,242,177)" fill-opacity="0.500"/>
    <rect x="8" y="4" width="1" height="1" fill="rgb(33,223,73)" fill-opacity="0.500"/>
    <rect x="0" y="5" width="1" height="1" fill="rgb(83,208,89)" fill-opacity="0.500"/>
    <rect x="8" y="5" width="1" height="1" fill="rgb(123,243,175)" fill-opacity="0.500"/>
    <rect x="0" y="6" width="1" height="1" fill="rgb(48,185,81)" fill-opacity="0.500"/>
    <rect x="2" y="6" width="1" height="1" fill="rgb(18,159,65)" fill-opacity="0.500"/>
    <rect x="6" y="6" width="1" height="1" fill="rgb(38,216,168)" fill-opacity="0.500"/>
    <rect x="8" y="6" width="1" height="1" fill="rgb(120,200,163)" fill-opacity="0.500"/>
    <rect x="0" y="7" width="1" height="1" fill="rgb(104,250,190)" fill-opacity="0.500"/>
    <rect x="8" y="7" width="1" height="1" fill="rgb(20,228,22)" fill-opacity="0.500"/>
    <rect x="0" y="8" width="1" height="1" fill="rgb(125,226,137)" fill-opacity="0.500"/>
    <rect x="1" y="8" width="1" height="1" fill="rgb(102,211,161)" fill-opacity="0.500"/>
    <rect x="2" y="8" width="1" height="1" fill="rgb(83,180,22)" fill-opacity="0.500"/>
    <rect x="3" y="8" width="1" height="1" fill="rgb(114,193,166)" fill-opacity="0.500"/>
    <rect x="4" y="8" width="1" height="1" fill="rgb(88,231,161)" fill-opacity="0.500"/>
    <rect x="5" y="8" width="1" height="1" fill="rgb(46,128,184)" fill-opacity="0.500"/>
    <rect x="6" y="8" width="1" height="1" fill="rgb(10,216,127)" fill-opacity="0.500"/>
    <rect x="7" y="8" width="1" height="1" fill="rgb(2,240,4)" fill-opacity="0.500"/>
    <rect x="8" y="8" width="1" height="1" fill="rgb(68,221,30)" fill-opacity="0.500"/>
  </g>
</svg>
