<?xml version="1.0" encoding="UTF-8"?>
<svg xmlns="http://www.w3.org/2000/svg" width="120" height="216" viewBox="0 0 5 9" shape-rendering="crispEdges">
  <title>U+05D0 (א)</title>
  
  <g>
    <rect x="0" y="0" width="1" height="1" fill="rgb(64,208,108)" fill-opacity="0.500"/>
    <rect x="4" y="0" width="1" height="1" fill="rgb(122,210,127)" fill-opacity="0.500"/>
    <rect x="0" y="1" width="1" height="1" fill="rgb(121,229,171)" fill-opacity="0.500"/>
    <rect x="1" y="1" width="1" height="1" fill="rgb(7,169,141)" fill-opacity="0.500"/>
    <rect x="4" y="1" width="1" height="1" fill="rgb(105,173,22)" fill-opacity="0.500"/>
    <rect x="0" y="2" width="1" height="1" fill="rgb(70,247,181)" fill-opacity="0.500"/>
    <rect x="2" y="2" width="1" height="1" fill="rgb(106,215,117)" fill-opacity="0.500"/>
    <rect x="4" y="2" width="1" height="1" fill="rgb(30,200,175)" fill-opacity="0.500"/>
    <rect x="0" y="3" width="1" height="1" fill="rgb(60,226,71)" fill-opacity="0.500"/>
    <rect x="3" y="3" width="1" height="1" fill="rgb(11,203,164)" fill-opacity="0.500"/>
    <rect x="4" y="3" width="1" height="1" fill="rgb(64,221,112)" fill-opacity="0.500"/>
    <rect x="0" y="4" width="1" height="1" fill="rgb(53,182,169)" fill-opacity="0.500"/>
    <rect x="4" y="4" width="1" height="1" fill="rgb(34,189,155)" fill-opacity="0.500"/>
    <rect x="4" y="5" width="1" height="1" fill="rgb(20,163,176)" fill-opacity="0.500"/>
    <rect x="4" y="6" width="1" height="1" fill="rgb(17,253,117)" fill-opacity="0.500"/>
  </g>
</svg>
