<?xml version="1.0" encoding="UTF-8"?>
<svg xmlns="http://www.w3.org/2000/svg" width="120" height="216" viewBox="0 0 5 9" shape-rendering="crispEdges">
  <title>U+05DD (ם)</title>
  
  <g>
    <rect x="0" y="0" width="1" height="1" fill="rgb(87,194,111)" fill-opacity="0.500"/>
    <rect x="1" y="0" width="1" height="1" fill="rgb(126,230,162)" fill-opacity="0.500"/>
    <rect x="2" y="0" width="1" height="1" fill="rgb(98,223,93)" fill-opacity="0.500"/>
    <rect x="3" y="0" width="1" height="1" fill="rgb(59,251,73)" fill-opacity="0.500"/>
    <rect x="4" y="0" width="1" height="1" fill="rgb(116,134,30)" fill-opacity="0.500"/>
    <rect x="0" y="1" width="1" height="1" fill="rgb(91,227,109)" fill-opacity="0.500"/>
    <rect x="4" y="1" width="1" height="1" fill="rgb(88,204,110)" fill-opacity="0.500"/>
    <rect x="0" y="2" width="1" height="1" fill="rgb(117,227,190)" fill-opacity="0.500"/>
    <rect x="2" y="2" width="1" height="1" fill="rgb(125,143,3)" fill-opacity="0.500"/>
    <rect x="4" y="2" width="1" height="1" fill="rgb(77,201,129)" fill-opacity="0.500"/>
    <rect x="0" y="3" width="1" height="1" fill="rgb(107,181,70)" fill-opacity="0.500"/>
    <rect x="4" y="3" width="1" height="1" fill="rgb(56,195,88)" fill-opacity="0.500"/>
    <rect x="0" y="4" width="1" height="1" fill="rgb(13,179,179)" fill-opacity="0.500"/>
    <rect x="4" y="4" width="1" height="1" fill="rgb(79,162,65)" fill-opacity="0.500"/>
    <rect x="0" y="5" width="1" height="1" fill="rgb(44,177,126)" fill-opacity="0.500"/>
    <rect x="4" y="5" width="1" height="1" fill="rgb(0,138,191)" fill-opacity="0.500"/>
    <rect x="0" y="6" width="1" height="1" fill="rgb(59,143,134)" fill-opacity="0.500"/>
    <rect x="1" y="6" width="1" height="1" fill="rgb(60,181,66)" fill-opacity="0.500"/>
    <rect x="2" y="6" width="1" height="1" fill="rgb(4,215,82)" fill-opacity="0.500"/>
    <rect x="3" y="6" width="1" height="1" fill="rgb(100,218,40)" fill-opacity="0.500"/>
    <rect x="4" y="6" width="1" height="1" fill="rgb(121,144,187)" fill-opacity="0.500"/>
  </g>
</svg>
