<?xml version="1.0" encoding="UTF-8"?>
<svg xmlns="http://www.w3.org/2000/svg" width="120" height="216" viewBox="0 0 5 9" shape-rendering="crispEdges">
  <title>U+0429 (Щ)</title>
  
  <g>
    <rect x="0" y="0" width="1" height="1" fill="rgb(87,177,178)" fill-opacity="0.500"/>
    <rect x="2" y="0" width="1" height="1" fill="rgb(123,156,144)" fill-opacity="0.500"/>
    <rect x="4" y="0" width="1" height="1" fill="rgb(32,235,66)" fill-opacity="0.500"/>
    <rect x="0" y="1" width="1" height="1" fill="rgb(9,168,108)" fill-opacity="0.500"/>
    <rect x="2" y="1" width="1" height="1" fill="rgb(113,216,11)" fill-opacity="0.500"/>
    <rect x="4" y="1" width="1" height="1" fill="rgb(34,194,136)" fill-opacity="0.500"/>
    <rect x="0" y="2" width="1" height="1" fill="rgb(118,156,92)" fill-opacity="0.500"/>
    <rect x="2" y="2" width="1" height="1" fill="rgb(39,233,44)" fill-opacity="0.500"/>
    <rect x="4" y="2" width="1" height="1" fill="rgb(72,205,66)" fill-opacity="0.500"/>
    <rect x="0" y="3" width="1" height="1" fill="rgb(71,252,154)" fill-opacity="0.500"/>
    <rect x="2" y="3" width="1" height="1" fill="rgb(29,174,47)" fill-opacity="0.500"/>
    <rect x="4" y="3" width="1" height="1" fill="rgb(116,146,100)" fill-opacity="0.500"/>
    <rect x="0" y="4" width="1" height="1" fill="rgb(44,185,147)" fill-opacity="0.500"/>
    <rect x="2" y="4" width="1" height="1" fill="rgb(71,192,83)" fill-opacity="0.500"/>
    <rect x="4" y="4" width="1" height="1" fill="rgb(35,169,89)" fill-opacity="0.500"/>
    <rect x="0" y="5" width="1" height="1" fill="rgb(70,220,164)" fill-opacity="0.500"/>
    <rect x="2" y="5" width="1" height="1" fill="rgb(56,146,120)" fill-opacity="0.500"/>
    <rect x="4" y="5" width="1" height="1" fill="rgb(0,132,111)" fill-opacity="0.500"/>
    <rect x="0" y="6" width="1" height="1" fill="rgb(72,222,132)" fill-opacity="0.500"/>
    <rect x="1" y="6" width="1" height="1" fill="rgb(64,140,119)" fill-opacity="0.500"/>
    <rect x="2" y="6" width="1" height="1" fill="rgb(127,146,83)" fill-opacity="0.500"/>
    <rect x="3" y="6" width="1" height="1" fill="rgb(12,227,148)" fill-opacity="0.500"/>
    <rect x="4" y="6" width="1" height="1" fill="rgb(15,162,183)" fill-opacity="0.500"/>
    <rect x="4" y="7" width="1" height="1" fill="rgb(39,255,40)" fill-opacity="0.500"/>
    <rect x="4" y="8" width="1" height="1" fill="rgb(22,150,54)" fill-opacity="0.500"/>
  </g>
</svg>
