<?xml version="1.0" encoding="UTF-8"?>
<svg xmlns="http://www.w3.org/2000/svg" width="120" height="216" viewBox="0 0 5 9" shape-rendering="crispEdges">
  <title>U+05E5 (ץ)</title>
  
  <g>
    <rect x="2" y="0" width="1" height="1" fill="rgb(3,235,46)" fill-opacity="0.500"/>
    <rect x="2" y="1" width="1" height="1" fill="rgb(5,135,127)" fill-opacity="0.500"/>
    <rect x="3" y="1" width="1" height="1" fill="rgb(85,214,129)" fill-opacity="0.500"/>
    <rect x="1" y="2" width="1" height="1" fill="rgb(110,247,28)" fill-opacity="0.500"/>
    <rect x="3" y="2" width="1" height="1" fill="rgb(79,163,80)" fill-opacity="0.500"/>
    <rect x="0" y="3" width="1" height="1" fill="rgb(77,221,74)" fill-opacity="0.500"/>
    <rect x="3" y="3" width="1" height="1" fill="rgb(106,209,14)" fill-opacity="0.500"/>
    <rect x="0" y="4" width="1" height="1" fill="rgb(39,135,38)" fill-opacity="0.500"/>
    <rect x="3" y="4" width="1" height="1" fill="rgb(78,137,47)" fill-opacity="0.500"/>
    <rect x="0" y="5" width="1" height="1" fill="rgb(62,161,50)" fill-opacity="0.500"/>
    <rect x="3" y="5" width="1" height="1" fill="rgb(19,157,32)" fill-opacity="0.500"/>
    <rect x="0" y="6" width="1" height="1" fill="rgb(35,131,29)" fill-opacity="0.500"/>
    <rect x="1" y="6" width="1" height="1" fill="rgb(83,239,187)" fill-opacity="0.500"/>
    <rect x="2" y="6" width="1" height="1" fill="rgb(118,162,0)" fill-opacity="0.500"/>
    <rect x="3" y="6" width="1" height="1" fill="rgb(55,249,7)" fill-opacity="0.500"/>
    <rect x="2" y="7" width="1" height="1" fill="rgb(103,210,23)" fill-opacity="0.500"/>
    <rect x="2" y="8" width="1" height="1" fill="rgb(113,208,26)" fill-opacity="0.500"/>
  </g>
</svg>
