<?xml version="1.0" encoding="UTF-8"?>
<svg xmlns="http://www.w3.org/2000/svg" width="144" height="216" viewBox="0 0 6 9" shape-rendering="crispEdges">
  <title>U+00A9 (©)</title>
  
  <g>
    <rect x="0" y="1" width="1" height="1" fill="rgb(26,194,190)" fill-opacity="0.500"/>
    <rect x="1" y="1" width="1" height="1" fill="rgb(87,250,162)" fill-opacity="0.500"/>
    <rect x="2" y="1" width="1" height="1" fill="rgb(95,180,2)" fill-opacity="0.500"/>
    <rect x="3" y="1" width="1" height="1" fill="rgb(55,172,4)" fill-opacity="0.500"/>
    <rect x="4" y="1" width="1" height="1" fill="rgb(34,227,2)" fill-opacity="0.500"/>
    <rect x="5" y="1" width="1" height="1" fill="rgb(69,189,94)" fill-opacity="0.500"/>
    <rect x="0" y="2" width="1" height="1" fill="rgb(24,135,90)" fill-opacity="0.500"/>
    <rect x="5" y="2" width="1" height="1" fill="rgb(54,132,25)" fill-opacity="0.500"/>
    <rect x="0" y="3" width="1" height="1" fill="rgb(125,251,28)" fill-opacity="0.500"/>
    <rect x="2" y="3" width="1" height="1" fill="rgb(0,137,190)" fill-opacity="0.500"/>
    <rect x="3" y="3" width="1" height="1" fill="rgb(103,229,174)" fill-opacity="0.500"/>
    <rect x="5" y="3" width="1" height="1" fill="rgb(121,152,161)" fill-opacity="0.500"/>
    <rect x="0" y="4" width="1" height="1" fill="rgb(78,227,158)" fill-opacity="0.500"/>
    <rect x="2" y="4" width="1" height="1" fill="rgb(115,193,52)" fill-opacity="0.500"/>
    <rect x="5" y="4" width="1" height="1" fill="rgb(107,159,48)" fill-opacity="0.500"/>
    <rect x="0" y="5" width="1" height="1" fill="rgb(76,247,49)" fill-opacity="0.500"/>
    <rect x="2" y="5" width="1" height="1" fill="rgb(88,246,162)" fill-opacity="0.500"/>
    <rect x="3" y="5" width="1" height="1" fill="rgb(46,201,101)" fill-opacity="0.500"/>
    <rect x="5" y="5" width="1" height="1" fill="rgb(106,213,172)" fill-opacity="0.500"/>
    <rect x="0" y="6" width="1" height="1" fill="rgb(77,173,176)" fill-opacity="0.500"/>
    <rect x="5" y="6" width="1" height="1" fill="rgb(113,242,63)" fill-opacity="0.500"/>
    <rect x="0" y="7" width="1" height="1" fill="rgb(63,212,98)" fill-opacity="0.500"/>
    <rect x="1" y="7" width="1" height="1" fill="rgb(26,159,90)" fill-opacity="0.500"/>
    <rect x="2" y="7" width="1" height="1" fill="rgb(109,137,168)" fill-opacity="0.500"/>
    <rect x="3" y="7" width="1" height="1" fill="rgb(8,167,21)" fill-opacity="0.500"/>
    <rect x="4" y="7" width="1" height="1" fill="rgb(53,244,125)" fill-opacity="0.500"/>
    <rect x="5" y="7" width="1" height="1" fill="rgb(59,172,52)" fill-opacity="0.500"/>
  </g>
</svg>
