<?xml version="1.0" encoding="UTF-8"?>
<svg xmlns="http://www.w3.org/2000/svg" width="72" height="216" viewBox="0 0 3 9" shape-rendering="crispEdges">
  <title>U+0041 (A)</title>
  
  <g>
    <rect x="0" y="0" width="1" height="1" fill="rgb(79,246,21)" fill-opacity="0.500"/>
    <rect x="1" y="0" width="1" height="1" fill="rgb(34,166,10)" fill-opacity="0.500"/>
    <rect x="2" y="0" width="1" height="1" fill="rgb(67,228,71)" fill-opacity="0.500"/>
    <rect x="0" y="1" width="1" height="1" fill="rgb(6,158,152)" fill-opacity="0.500"/>
    <rect x="2" y="1" width="1" height="1" fill="rgb(113,183,140)" fill-opacity="0.500"/>
    <rect x="0" y="2" width="1" height="1" fill="rgb(123,250,106)" fill-opacity="0.500"/>
    <rect x="2" y="2" width="1" height="1" fill="rgb(98,243,140)" fill-opacity="0.500"/>
    <rect x="0" y="3" width="1" height="1" fill="rgb(37,174,38)" fill-opacity="0.500"/>
    <rect x="1" y="3" width="1" height="1" fill="rgb(58,129,8)" fill-opacity="0.500"/>
    <rect x="2" y="3" width="1" height="1" fill="rgb(15,133,168)" fill-opacity="0.500"/>
    <rect x="0" y="4" width="1" height="1" fill="rgb(16,226,90)" fill-opacity="0.500"/>
    <rect x="2" y="4" width="1" height="1" fill="rgb(54,227,147)" fill-opacity="0.500"/>
    <rect x="0" y="5" width="1" height="1" fill="rgb(108,203,137)" fill-opacity="0.500"/>
    <rect x="2" y="5" width="1" height="1" fill="rgb(126,221,53)" fill-opacity="0.500"/>
    <rect x="0" y="6" width="1" height="1" fill="rgb(83,252,54)" fill-opacity="0.500"/>
    <rect x="2" y="6" width="1" height="1" fill="rgb(32,196,7)" fill-opacity="0.500"/>
  </g>
</svg>
