<?xml version="1.0" encoding="UTF-8"?>
<svg xmlns="http://www.w3.org/2000/svg" width="96" height="216" viewBox="0 0 4 9" shape-rendering="crispEdges">
  <title>U+0414 (Д)</title>
  
  <g>
    <rect x="1" y="0" width="1" height="1" fill="rgb(92,191,166)" fill-opacity="0.500"/>
    <rect x="2" y="0" width="1" height="1" fill="rgb(101,163,133)" fill-opacity="0.500"/>
    <rect x="0" y="1" width="1" height="1" fill="rgb(71,148,78)" fill-opacity="0.500"/>
    <rect x="3" y="1" width="1" height="1" fill="rgb(116,147,97)" fill-opacity="0.500"/>
    <rect x="0" y="2" width="1" height="1" fill="rgb(26,190,94)" fill-opacity="0.500"/>
    <rect x="3" y="2" width="1" height="1" fill="rgb(23,243,155)" fill-opacity="0.500"/>
    <rect x="0" y="3" width="1" height="1" fill="rgb(41,253,179)" fill-opacity="0.500"/>
    <rect x="3" y="3" width="1" height="1" fill="rgb(86,226,161)" fill-opacity="0.500"/>
    <rect x="0" y="4" width="1" height="1" fill="rgb(49,176,151)" fill-opacity="0.500"/>
    <rect x="3" y="4" width="1" height="1" fill="rgb(70,136,4)" fill-opacity="0.500"/>
    <rect x="0" y="5" width="1" height="1" fill="rgb(48,173,127)" fill-opacity="0.500"/>
    <rect x="3" y="5" width="1" height="1" fill="rgb(103,161,86)" fill-opacity="0.500"/>
    <rect x="0" y="6" width="1" height="1" fill="rgb(110,235,21)" fill-opacity="0.500"/>
    <rect x="1" y="6" width="1" height="1" fill="rgb(88,140,174)" fill-opacity="0.500"/>
    <rect x="2" y="6" width="1" height="1" fill="rgb(36,245,152)" fill-opacity="0.500"/>
    <rect x="3" y="6" width="1" height="1" fill="rgb(86,222,55)" fill-opacity="0.500"/>
    <rect x="0" y="7" width="1" height="1" fill="rgb(50,187,71)" fill-opacity="0.500"/>
    <rect x="3" y="7" width="1" height="1" fill="rgb(126,247,67)" fill-opacity="0.500"/>
  </g>
</svg>
