<?xml version="1.0" encoding="UTF-8"?>
<svg xmlns="http://www.w3.org/2000/svg" width="72" height="216" viewBox="0 0 3 9" shape-rendering="crispEdges">
  <title>U+0055 (U)</title>
  
  <g>
    <rect x="0" y="0" width="1" height="1" fill="rgb(45,152,68)" fill-opacity="0.500"/>
    <rect x="2" y="0" width="1" height="1" fill="rgb(110,182,162)" fill-opacity="0.500"/>
    <rect x="0" y="1" width="1" height="1" fill="rgb(98,175,177)" fill-opacity="0.500"/>
    <rect x="2" y="1" width="1" height="1" fill="rgb(13,135,156)" fill-opacity="0.500"/>
    <rect x="0" y="2" width="1" height="1" fill="rgb(66,242,111)" fill-opacity="0.500"/>
    <rect x="2" y="2" width="1" height="1" fill="rgb(6,206,111)" fill-opacity="0.500"/>
    <rect x="0" y="3" width="1" height="1" fill="rgb(71,178,38)" fill-opacity="0.500"/>
    <rect x="2" y="3" width="1" height="1" fill="rgb(80,222,62)" fill-opacity="0.500"/>
    <rect x="0" y="4" width="1" height="1" fill="rgb(45,180,88)" fill-opacity="0.500"/>
    <rect x="2" y="4" width="1" height="1" fill="rgb(118,196,103)" fill-opacity="0.500"/>
    <rect x="0" y="5" width="1" height="1" fill="rgb(21,204,184)" fill-opacity="0.500"/>
    <rect x="2" y="5" width="1" height="1" fill="rgb(94,136,140)" fill-opacity="0.500"/>
    <rect x="0" y="6" width="1" height="1" fill="rgb(108,154,180)" fill-opacity="0.500"/>
    <rect x="1" y="6" width="1" height="1" fill="rgb(11,249,14)" fill-opacity="0.500"/>
    <rect x="2" y="6" width="1" height="1" fill="rgb(51,165,90)" fill-opacity="0.500"/>
  </g>
</svg>
