<?xml version="1.0" encoding="UTF-8"?>
<svg xmlns="http://www.w3.org/2000/svg" width="168" height="216" viewBox="0 0 7 9" shape-rendering="crispEdges">
  <title>U+0040 (@)</title>
  
  <g>
    <rect x="0" y="0" width="1" height="1" fill="rgb(31,225,80)" fill-opacity="0.500"/>
    <rect x="1" y="0" width="1" height="1" fill="rgb(72,179,13)" fill-opacity="0.500"/>
    <rect x="2" y="0" width="1" height="1" fill="rgb(82,216,83)" fill-opacity="0.500"/>
    <rect x="3" y="0" width="1" height="1" fill="rgb(102,162,172)" fill-opacity="0.500"/>
    <rect x="4" y="0" width="1" height="1" fill="rgb(107,203,14)" fill-opacity="0.500"/>
    <rect x="5" y="0" width="1" height="1" fill="rgb(49,230,75)" fill-opacity="0.500"/>
    <rect x="6" y="0" width="1" height="1" fill="rgb(36,201,148)" fill-opacity="0.500"/>
    <rect x="6" y="1" width="1" height="1" fill="rgb(95,190,9)" fill-opacity="0.500"/>
    <rect x="0" y="2" width="1" height="1" fill="rgb(105,149,159)" fill-opacity="0.500"/>
    <rect x="1" y="2" width="1" height="1" fill="rgb(86,205,57)" fill-opacity="0.500"/>
    <rect x="2" y="2" width="1" height="1" fill="rgb(101,175,84)" fill-opacity="0.500"/>
    <rect x="3" y="2" width="1" height="1" fill="rgb(109,246,147)" fill-opacity="0.500"/>
    <rect x="4" y="2" width="1" height="1" fill="rgb(23,160,28)" fill-opacity="0.500"/>
    <rect x="6" y="2" width="1" height="1" fill="rgb(58,180,116)" fill-opacity="0.500"/>
    <rect x="0" y="3" width="1" height="1" fill="rgb(119,236,143)" fill-opacity="0.500"/>
    <rect x="4" y="3" width="1" height="1" fill="rgb(54,153,173)" fill-opacity="0.500"/>
    <rect x="6" y="3" width="1" height="1" fill="rgb(103,173,32)" fill-opacity="0.500"/>
    <rect x="0" y="4" width="1" height="1" fill="rgb(68,140,100)" fill-opacity="0.500"/>
    <rect x="2" y="4" width="1" height="1" fill="rgb(36,132,100)" fill-opacity="0.500"/>
    <rect x="3" y="4" width="1" height="1" fill="rgb(35,196,20)" fill-opacity="0.500"/>
    <rect x="4" y="4" width="1" height="1" fill="rgb(18,172,155)" fill-opacity="0.500"/>
    <rect x="6" y="4" width="1" height="1" fill="rgb(32,226,102)" fill-opacity="0.500"/>
    <rect x="0" y="5" width="1" height="1" fill="rgb(71,170,184)" fill-opacity="0.500"/>
    <rect x="2" y="5" width="1" height="1" fill="rgb(37,225,53)" fill-opacity="0.500"/>
    <rect x="4" y="5" width="1" height="1" fill="rgb(121,204,29)" fill-opacity="0.500"/>
    <rect x="6" y="5" width="1" height="1" fill="rgb(39,189,180)" fill-opacity="0.500"/>
    <rect x="0" y="6" width="1" height="1" fill="rgb(60,153,87)" fill-opacity="0.500"/>
    <rect x="2" y="6" width="1" height="1" fill="rgb(20,247,29)" fill-opacity="0.500"/>
    <rect x="3" y="6" width="1" height="1" fill="rgb(20,246,127)" fill-opacity="0.500"/>
    <rect x="4" y="6" width="1" height="1" fill="rgb(16,142,35)" fill-opacity="0.500"/>
    <rect x="6" y="6" width="1" height="1" fill="rgb(9,222,188)" fill-opacity="0.500"/>
    <rect x="0" y="7" width="1" height="1" fill="rgb(125,221,32)" fill-opacity="0.500"/>
    <rect x="6" y="7" width="1" height="1" fill="rgb(75,130,172)" fill-opacity="0.500"/>
    <rect x="0" y="8" width="1" height="1" fill="rgb(101,233,37)" fill-opacity="0.500"/>
    <rect x="1" y="8" width="1" height="1" fill="rgb(46,206,18)" fill-opacity="0.500"/>
    <rect x="2" y="8" width="1" height="1" fill="rgb(66,237,191)" fill-opacity="0.500"/>
    <rect x="3" y="8" width="1" height="1" fill="rgb(62,176,56)" fill-opacity="0.500"/>
    <rect x="4" y="8" width="1" height="1" fill="rgb(72,217,59)" fill-opacity="0.500"/>
    <rect x="5" y="8" width="1" height="1" fill="rgb(17,195,160)" fill-opacity="0.500"/>
    <rect x="6" y="8" width="1" height="1" fill="rgb(19,176,65)" fill-opacity="0.500"/>
  </g>
</svg>
