<?xml version="1.0" encoding="UTF-8"?>
<svg xmlns="http://www.w3.org/2000/svg" width="120" height="216" viewBox="0 0 5 9" shape-rendering="crispEdges">
  <title>U+006D (m)</title>
  
  <g>
    <rect x="0" y="2" width="1" height="1" fill="rgb(8,200,128)" fill-opacity="0.500"/>
    <rect x="1" y="2" width="1" height="1" fill="rgb(15,239,96)" fill-opacity="0.500"/>
    <rect x="2" y="2" width="1" height="1" fill="rgb(96,146,50)" fill-opacity="0.500"/>
    <rect x="3" y="2" width="1" height="1" fill="rgb(51,204,57)" fill-opacity="0.500"/>
    <rect x="4" y="2" width="1" height="1" fill="rgb(90,204,82)" fill-opacity="0.500"/>
    <rect x="0" y="3" width="1" height="1" fill="rgb(8,147,54)" fill-opacity="0.500"/>
    <rect x="2" y="3" width="1" height="1" fill="rgb(119,158,159)" fill-opacity="0.500"/>
    <rect x="4" y="3" width="1" height="1" fill="rgb(45,213,47)" fill-opacity="0.500"/>
    <rect x="0" y="4" width="1" height="1" fill="rgb(2,153,84)" fill-opacity="0.500"/>
    <rect x="2" y="4" width="1" height="1" fill="rgb(48,234,69)" fill-opacity="0.500"/>
    <rect x="4" y="4" width="1" height="1" fill="rgb(110,233,169)" fill-opacity="0.500"/>
    <rect x="0" y="5" width="1" height="1" fill="rgb(57,188,17)" fill-opacity="0.500"/>
    <rect x="2" y="5" width="1" height="1" fill="rgb(124,160,41)" fill-opacity="0.500"/>
    <rect x="4" y="5" width="1" height="1" fill="rgb(60,250,4)" fill-opacity="0.500"/>
    <rect x="0" y="6" width="1" height="1" fill="rgb(97,205,122)" fill-opacity="0.500"/>
    <rect x="2" y="6" width="1" height="1" fill="rgb(27,245,80)" fill-opacity="0.500"/>
    <rect x="4" y="6" width="1" height="1" fill="rgb(113,182,187)" fill-opacity="0.500"/>
  </g>
</svg>
