<?xml version="1.0" encoding="UTF-8"?>
<svg xmlns="http://www.w3.org/2000/svg" width="72" height="216" viewBox="0 0 3 9" shape-rendering="crispEdges">
  <title>U+041D (Н)</title>
  
  <g>
    <rect x="0" y="0" width="1" height="1" fill="rgb(63,188,104)" fill-opacity="0.500"/>
    <rect x="2" y="0" width="1" height="1" fill="rgb(33,233,80)" fill-opacity="0.500"/>
    <rect x="0" y="1" width="1" height="1" fill="rgb(109,142,160)" fill-opacity="0.500"/>
    <rect x="2" y="1" width="1" height="1" fill="rgb(124,209,112)" fill-opacity="0.500"/>
    <rect x="0" y="2" width="1" height="1" fill="rgb(75,215,100)" fill-opacity="0.500"/>
    <rect x="2" y="2" width="1" height="1" fill="rgb(123,184,66)" fill-opacity="0.500"/>
    <rect x="0" y="3" width="1" height="1" fill="rgb(89,237,89)" fill-opacity="0.500"/>
    <rect x="1" y="3" width="1" height="1" fill="rgb(50,212,130)" fill-opacity="0.500"/>
    <rect x="2" y="3" width="1" height="1" fill="rgb(108,221,159)" fill-opacity="0.500"/>
    <rect x="0" y="4" width="1" height="1" fill="rgb(39,253,172)" fill-opacity="0.500"/>
    <rect x="2" y="4" width="1" height="1" fill="rgb(2,210,68)" fill-opacity="0.500"/>
    <rect x="0" y="5" width="1" height="1" fill="rgb(72,177,169)" fill-opacity="0.500"/>
    <rect x="2" y="5" width="1" height="1" fill="rgb(80,160,92)" fill-opacity="0.500"/>
    <rect x="0" y="6" width="1" height="1" fill="rgb(68,253,48)" fill-opacity="0.500"/>
    <rect x="2" y="6" width="1" height="1" fill="rgb(121,234,37)" fill-opacity="0.500"/>
  </g>
</svg>
