<?xml version="1.0" encoding="UTF-8"?>
<svg xmlns="http://www.w3.org/2000/svg" width="72" height="216" viewBox="0 0 3 9" shape-rendering="crispEdges">
  <title>U+0038 (8)</title>
  
  <g>
    <rect x="0" y="0" width="1" height="1" fill="rgb(43,137,9)" fill-opacity="0.500"/>
    <rect x="1" y="0" width="1" height="1" fill="rgb(110,214,123)" fill-opacity="0.500"/>
    <rect x="2" y="0" width="1" height="1" fill="rgb(49,133,144)" fill-opacity="0.500"/>
    <rect x="0" y="1" width="1" height="1" fill="rgb(34,236,107)" fill-opacity="0.500"/>
    <rect x="2" y="1" width="1" height="1" fill="rgb(40,205,0)" fill-opacity="0.500"/>
    <rect x="0" y="2" width="1" height="1" fill="rgb(126,228,162)" fill-opacity="0.500"/>
    <rect x="2" y="2" width="1" height="1" fill="rgb(28,204,49)" fill-opacity="0.500"/>
    <rect x="0" y="3" width="1" height="1" fill="rgb(17,171,93)" fill-opacity="0.500"/>
    <rect x="1" y="3" width="1" height="1" fill="rgb(4,145,114)" fill-opacity="0.500"/>
    <rect x="2" y="3" width="1" height="1" fill="rgb(92,174,146)" fill-opacity="0.500"/>
    <rect x="0" y="4" width="1" height="1" fill="rgb(104,131,113)" fill-opacity="0.500"/>
    <rect x="2" y="4" width="1" height="1" fill="rgb(109,189,2)" fill-opacity="0.500"/>
    <rect x="0" y="5" width="1" height="1" fill="rgb(103,198,71)" fill-opacity="0.500"/>
    <rect x="2" y="5" width="1" height="1" fill="rgb(124,196,30)" fill-opacity="0.500"/>
    <rect x="0" y="6" width="1" height="1" fill="rgb(26,185,183)" fill-opacity="0.500"/>
    <rect x="1" y="6" width="1" height="1" fill="rgb(64,251,92)" fill-opacity="0.500"/>
    <rect x="2" y="6" width="1" height="1" fill="rgb(101,128,183)" fill-opacity="0.500"/>
  </g>
</svg>
