<?xml version="1.0" encoding="UTF-8"?>
<svg xmlns="http://www.w3.org/2000/svg" width="120" height="216" viewBox="0 0 5 9" shape-rendering="crispEdges">
  <title>U+0077 (w)</title>
  
  <g>
    <rect x="0" y="2" width="1" height="1" fill="rgb(71,226,160)" fill-opacity="0.500"/>
    <rect x="2" y="2" width="1" height="1" fill="rgb(17,202,104)" fill-opacity="0.500"/>
    <rect x="4" y="2" width="1" height="1" fill="rgb(117,248,162)" fill-opacity="0.500"/>
    <rect x="0" y="3" width="1" height="1" fill="rgb(80,211,46)" fill-opacity="0.500"/>
    <rect x="2" y="3" width="1" height="1" fill="rgb(100,205,98)" fill-opacity="0.500"/>
    <rect x="4" y="3" width="1" height="1" fill="rgb(52,154,123)" fill-opacity="0.500"/>
    <rect x="0" y="4" width="1" height="1" fill="rgb(73,149,146)" fill-opacity="0.500"/>
    <rect x="2" y="4" width="1" height="1" fill="rgb(32,146,1)" fill-opacity="0.500"/>
    <rect x="4" y="4" width="1" height="1" fill="rgb(107,130,25)" fill-opacity="0.500"/>
    <rect x="0" y="5" width="1" height="1" fill="rgb(79,217,41)" fill-opacity="0.500"/>
    <rect x="2" y="5" width="1" height="1" fill="rgb(92,205,127)" fill-opacity="0.500"/>
    <rect x="4" y="5" width="1" height="1" fill="rgb(46,172,26)" fill-opacity="0.500"/>
    <rect x="0" y="6" width="1" height="1" fill="rgb(79,199,92)" fill-opacity="0.500"/>
    <rect x="1" y="6" width="1" height="1" fill="rgb(17,158,184)" fill-opacity="0.500"/>
    <rect x="2" y="6" width="1" height="1" fill="rgb(112,240,178)" fill-opacity="0.500"/>
    <rect x="3" y="6" width="1" height="1" fill="rgb(90,250,2)" fill-opacity="0.500"/>
    <rect x="4" y="6" width="1" height="1" fill="rgb(2,156,88)" fill-opacity="0.500"/>
  </g>
</svg>
