<?xml version="1.0" encoding="UTF-8"?>
<svg xmlns="http://www.w3.org/2000/svg" width="216" height="216" viewBox="0 0 9 9" shape-rendering="crispEdges">
  <title>U+2680 (⚀)</title>
  
  <g>
    <rect x="0" y="0" width="1" height="1" fill="rgb(95,247,189)" fill-opacity="0.500"/>
    <rect x="1" y="0" width="1" height="1" fill="rgb(18,227,42)" fill-opacity="0.500"/>
    <rect x="2" y="0" width="1" height="1" fill="rgb(118,131,56)" fill-opacity="0.500"/>
    <rect x="3" y="0" width="1" height="1" fill="rgb(111,230,105)" fill-opacity="0.500"/>
    <rect x="4" y="0" width="1" height="1" fill="rgb(49,168,142)" fill-opacity="0.500"/>
    <rect x="5" y="0" width="1" height="1" fill="rgb(77,216,51)" fill-opacity="0.500"/>
    <rect x="6" y="0" width="1" height="1" fill="rgb(112,212,154)" fill-opacity="0.500"/>
    <rect x="7" y="0" width="1" height="1" fill="rgb(63,203,155)" fill-opacity="0.500"/>
    <rect x="8" y="0" width="1" height="1" fill="rgb(33,227,176)" fill-opacity="0.500"/>
    <rect x="0" y="1" width="1" height="1" fill="rgb(49,221,64)" fill-opacity="0.500"/>
    <rect x="8" y="1" width="1" height="1" fill="rgb(21,158,15)" fill-opacity="0.500"/>
    <rect x="0" y="2" width="1" height="1" fill="rgb(54,130,110)" fill-opacity="0.500"/>
    <rect x="8" y="2" width="1" height="1" fill="rgb(65,217,106)" fill-opacity="0.500"/>
    <rect x="0" y="3" width="1" height="1" fill="rgb(78,153,15)" fill-opacity="0.500"/>
    <rect x="8" y="3" width="1" height="1" fill="rgb(33,137,154)" fill-opacity="0.500"/>
    <rect x="0" y="4" width="1" height="1" fill="rgb(62,144,59)" fill-opacity="0.500"/>
    <rect x="4" y="4" width="1" height="1" fill="rgb(98,166,18)" fill-opacity="0.500"/>
    <rect x="8" y="4" width="1" height="1" fill="rgb(34,162,66)" fill-opacity="0.500"/>
    <rect x="0" y="5" width="1" height="1" fill="rgb(57,138,163)" fill-opacity="0.500"/>
    <rect x="8" y="5" width="1" height="1" fill="rgb(99,204,95)" fill-opacity="0.500"/>
    <rect x="0" y="6" width="1" height="1" fill="rgb(38,169,85)" fill-opacity="0.500"/>
    <rect x="8" y="6" width="1" height="1" fill="rgb(102,144,163)" fill-opacity="0.500"/>
    <rect x="0" y="7" width="1" height="1" fill="rgb(100,161,51)" fill-opacity="0.500"/>
    <rect x="8" y="7" width="1" height="1" fill="rgb(65,130,4)" fill-opacity="0.500"/>
    <rect x="0" y="8" width="1" height="1" fill="rgb(59,194,167)" fill-opacity="0.500"/>
    <rect x="1" y="8" width="1" height="1" fill="rgb(53,207,21)" fill-opacity="0.500"/>
    <rect x="2" y="8" width="1" height="1" fill="rgb(82,246,180)" fill-opacity="0.500"/>
    <rect x="3" y="8" width="1" height="1" fill="rgb(78,255,0)" fill-opacity="0.500"/>
    <rect x="4" y="8" width="1" height="1" fill="rgb(86,220,37)" fill-opacity="0.500"/>
    <rect x="5" y="8" width="1" height="1" fill="rgb(22,207,91)" fill-opacity="0.500"/>
    <rect x="6" y="8" width="1" height="1" fill="rgb(122,202,63)" fill-opacity="0.500"/>
    <rect x="7" y="8" width="1" height="1" fill="rgb(9,252,134)" fill-opacity="0.500"/>
    <rect x="8" y="8" width="1" height="1" fill="rgb(1,225,142)" fill-opacity="0.500"/>
  </g>
</svg>
