<?xml version="1.0" encoding="UTF-8"?>
<svg xmlns="http://www.w3.org/2000/svg" width="72" height="216" viewBox="0 0 3 9" shape-rendering="crispEdges">
  <title>.notdef</title>
  
  <g>
    <rect x="0" y="0" width="1" height="1" fill="rgb(58,242,105)" fill-opacity="0.500"/>
    <rect x="1" y="0" width="1" height="1" fill="rgb(65,129,17)" fill-opacity="0.500"/>
    <rect x="2" y="0" width="1" height="1" fill="rgb(47,198,182)" fill-opacity="0.500"/>
    <rect x="0" y="1" width="1" height="1" fill="rgb(56,237,97)" fill-opacity="0.500"/>
    <rect x="2" y="1" width="1" height="1" fill="rgb(76,201,64)" fill-opacity="0.500"/>
    <rect x="0" y="2" width="1" height="1" fill="rgb(100,163,81)" fill-opacity="0.500"/>
    <rect x="2" y="2" width="1" height="1" fill="rgb(82,247,22)" fill-opacity="0.500"/>
    <rect x="0" y="3" width="1" height="1" fill="rgb(122,169,95)" fill-opacity="0.500"/>
    <rect x="2" y="3" width="1" height="1" fill="rgb(109,155,128)" fill-opacity="0.500"/>
    <rect x="0" y="4" width="1" height="1" fill="rgb(67,130,62)" fill-opacity="0.500"/>
    <rect x="2" y="4" width="1" height="1" fill="rgb(84,159,69)" fill-opacity="0.500"/>
    <rect x="0" y="5" width="1" height="1" fill="rgb(109,167,190)" fill-opacity="0.500"/>
    <rect x="2" y="5" width="1" height="1" fill="rgb(66,254,157)" fill-opacity="0.500"/>
    <rect x="0" y="6" width="1" height="1" fill="rgb(50,141,185)" fill-opacity="0.500"/>
    <rect x="2" y="6" width="1" height="1" fill="rgb(50,171,127)" fill-opacity="0.500"/>
    <rect x="0" y="7" width="1" height="1" fill="rgb(111,150,134)" fill-opacity="0.500"/>
    <rect x="2" y="7" width="1" height="1" fill="rgb(54,163,119)" fill-opacity="0.500"/>
    <rect x="0" y="8" width="1" height="1" fill="rgb(119,143,98)" fill-opacity="0.500"/>
    <rect x="1" y="8" width="1" height="1" fill="rgb(83,130,62)" fill-opacity="0.500"/>
    <rect x="2" y="8" width="1" height="1" fill="rgb(75,170,87)" fill-opacity="0.500"/>
  </g>
</svg>
