<?xml version="1.0" encoding="UTF-8"?>
<svg xmlns="http://www.w3.org/2000/svg" width="72" height="216" viewBox="0 0 3 9" shape-rendering="crispEdges">
  <title>U+0052 (R)</title>
  
  <g>
    <rect x="0" y="0" width="1" height="1" fill="rgb(124,243,2)" fill-opacity="0.500"/>
    <rect x="1" y="0" width="1" height="1" fill="rgb(25,177,22)" fill-opacity="0.500"/>
    <rect x="2" y="0" width="1" height="1" fill="rgb(116,220,50)" fill-opacity="0.500"/>
    <rect x="0" y="1" width="1" height="1" fill="rgb(68,142,15)" fill-opacity="0.500"/>
    <rect x="2" y="1" width="1" height="1" fill="rgb(56,221,40)" fill-opacity="0.500"/>
    <rect x="0" y="2" width="1" height="1" fill="rgb(112,234,99)" fill-opacity="0.500"/>
    <rect x="2" y="2" width="1" height="1" fill="rgb(30,215,165)" fill-opacity="0.500"/>
    <rect x="0" y="3" width="1" height="1" fill="rgb(50,132,88)" fill-opacity="0.500"/>
    <rect x="1" y="3" width="1" height="1" fill="rgb(64,145,83)" fill-opacity="0.500"/>
    <rect x="0" y="4" width="1" height="1" fill="rgb(19,158,117)" fill-opacity="0.500"/>
    <rect x="2" y="4" width="1" height="1" fill="rgb(23,229,22)" fill-opacity="0.500"/>
    <rect x="0" y="5" width="1" height="1" fill="rgb(101,211,90)" fill-opacity="0.500"/>
    <rect x="2" y="5" width="1" height="1" fill="rgb(49,155,71)" fill-opacity="0.500"/>
    <rect x="0" y="6" width="1" height="1" fill="rgb(11,179,115)" fill-opacity="0.500"/>
    <rect x="2" y="6" width="1" height="1" fill="rgb(98,135,53)" fill-opacity="0.500"/>
  </g>
</svg>
