<?xml version="1.0" encoding="UTF-8"?>
<svg xmlns="http://www.w3.org/2000/svg" width="72" height="216" viewBox="0 0 3 9" shape-rendering="crispEdges">
  <title>U+0067 (g)</title>
  
  <g>
    <rect x="0" y="2" width="1" height="1" fill="rgb(3,206,10)" fill-opacity="0.500"/>
    <rect x="1" y="2" width="1" height="1" fill="rgb(39,141,179)" fill-opacity="0.500"/>
    <rect x="2" y="2" width="1" height="1" fill="rgb(65,245,150)" fill-opacity="0.500"/>
    <rect x="0" y="3" width="1" height="1" fill="rgb(80,213,77)" fill-opacity="0.500"/>
    <rect x="2" y="3" width="1" height="1" fill="rgb(93,219,46)" fill-opacity="0.500"/>
    <rect x="0" y="4" width="1" height="1" fill="rgb(61,153,114)" fill-opacity="0.500"/>
    <rect x="2" y="4" width="1" height="1" fill="rgb(52,193,160)" fill-opacity="0.500"/>
    <rect x="0" y="5" width="1" height="1" fill="rgb(45,183,45)" fill-opacity="0.500"/>
    <rect x="2" y="5" width="1" height="1" fill="rgb(74,144,127)" fill-opacity="0.500"/>
    <rect x="0" y="6" width="1" height="1" fill="rgb(47,250,90)" fill-opacity="0.500"/>
    <rect x="1" y="6" width="1" height="1" fill="rgb(27,128,7)" fill-opacity="0.500"/>
    <rect x="2" y="6" width="1" height="1" fill="rgb(32,132,95)" fill-opacity="0.500"/>
    <rect x="2" y="7" width="1" height="1" fill="rgb(83,245,84)" fill-opacity="0.500"/>
    <rect x="0" y="8" width="1" height="1" fill="rgb(40,196,133)" fill-opacity="0.500"/>
    <rect x="1" y="8" width="1" height="1" fill="rgb(107,252,107)" fill-opacity="0.500"/>
    <rect x="2" y="8" width="1" height="1" fill="rgb(18,190,113)" fill-opacity="0.500"/>
  </g>
</svg>
