<?xml version="1.0" encoding="UTF-8"?>
<svg xmlns="http://www.w3.org/2000/svg" width="120" height="216" viewBox="0 0 5 9" shape-rendering="crispEdges">
  <title>U+2195 (↕)</title>
  
  <g>
    <rect x="2" y="0" width="1" height="1" fill="rgb(53,215,132)" fill-opacity="0.500"/>
    <rect x="1" y="1" width="1" height="1" fill="rgb(9,235,137)" fill-opacity="0.500"/>
    <rect x="2" y="1" width="1" height="1" fill="rgb(86,232,30)" fill-opacity="0.500"/>
    <rect x="3" y="1" width="1" height="1" fill="rgb(119,231,86)" fill-opacity="0.500"/>
    <rect x="0" y="2" width="1" height="1" fill="rgb(38,128,188)" fill-opacity="0.500"/>
    <rect x="2" y="2" width="1" height="1" fill="rgb(121,245,15)" fill-opacity="0.500"/>
    <rect x="4" y="2" width="1" height="1" fill="rgb(64,235,134)" fill-opacity="0.500"/>
    <rect x="2" y="3" width="1" height="1" fill="rgb(65,254,30)" fill-opacity="0.500"/>
    <rect x="2" y="4" width="1" height="1" fill="rgb(1,132,115)" fill-opacity="0.500"/>
    <rect x="2" y="5" width="1" height="1" fill="rgb(36,250,130)" fill-opacity="0.500"/>
    <rect x="0" y="6" width="1" height="1" fill="rgb(100,237,79)" fill-opacity="0.500"/>
    <rect x="2" y="6" width="1" height="1" fill="rgb(83,187,118)" fill-opacity="0.500"/>
    <rect x="4" y="6" width="1" height="1" fill="rgb(50,241,164)" fill-opacity="0.500"/>
    <rect x="1" y="7" width="1" height="1" fill="rgb(51,225,65)" fill-opacity="0.500"/>
    <rect x="2" y="7" width="1" height="1" fill="rgb(71,143,24)" fill-opacity="0.500"/>
    <rect x="3" y="7" width="1" height="1" fill="rgb(93,155,108)" fill-opacity="0.500"/>
    <rect x="2" y="8" width="1" height="1" fill="rgb(64,165,147)" fill-opacity="0.500"/>
  </g>
</svg>
