<?xml version="1.0" encoding="UTF-8"?>
<svg xmlns="http://www.w3.org/2000/svg" width="72" height="216" viewBox="0 0 3 9" shape-rendering="crispEdges">
  <title>U+0030 (0)</title>
  
  <g>
    <rect x="0" y="0" width="1" height="1" fill="rgb(118,177,151)" fill-opacity="0.500"/>
    <rect x="1" y="0" width="1" height="1" fill="rgb(123,134,125)" fill-opacity="0.500"/>
    <rect x="2" y="0" width="1" height="1" fill="rgb(63,154,25)" fill-opacity="0.500"/>
    <rect x="0" y="1" width="1" height="1" fill="rgb(82,190,185)" fill-opacity="0.500"/>
    <rect x="2" y="1" width="1" height="1" fill="rgb(29,163,175)" fill-opacity="0.500"/>
    <rect x="0" y="2" width="1" height="1" fill="rgb(25,193,81)" fill-opacity="0.500"/>
    <rect x="2" y="2" width="1" height="1" fill="rgb(116,166,121)" fill-opacity="0.500"/>
    <rect x="0" y="3" width="1" height="1" fill="rgb(78,146,157)" fill-opacity="0.500"/>
    <rect x="2" y="3" width="1" height="1" fill="rgb(38,255,61)" fill-opacity="0.500"/>
    <rect x="0" y="4" width="1" height="1" fill="rgb(28,208,11)" fill-opacity="0.500"/>
    <rect x="2" y="4" width="1" height="1" fill="rgb(113,226,163)" fill-opacity="0.500"/>
    <rect x="0" y="5" width="1" height="1" fill="rgb(20,232,93)" fill-opacity="0.500"/>
    <rect x="2" y="5" width="1" height="1" fill="rgb(13,186,182)" fill-opacity="0.500"/>
    <rect x="0" y="6" width="1" height="1" fill="rgb(52,219,175)" fill-opacity="0.500"/>
    <rect x="1" y="6" width="1" height="1" fill="rgb(67,131,15)" fill-opacity="0.500"/>
    <rect x="2" y="6" width="1" height="1" fill="rgb(84,233,64)" fill-opacity="0.500"/>
  </g>
</svg>
