<?xml version="1.0" encoding="UTF-8"?>
<svg xmlns="http://www.w3.org/2000/svg" width="120" height="216" viewBox="0 0 5 9" shape-rendering="crispEdges">
  <title>U+05EA (ת)</title>
  
  <g>
    <rect x="0" y="0" width="1" height="1" fill="rgb(117,211,81)" fill-opacity="0.500"/>
    <rect x="1" y="0" width="1" height="1" fill="rgb(56,130,26)" fill-opacity="0.500"/>
    <rect x="2" y="0" width="1" height="1" fill="rgb(30,205,64)" fill-opacity="0.500"/>
    <rect x="3" y="0" width="1" height="1" fill="rgb(18,234,161)" fill-opacity="0.500"/>
    <rect x="4" y="0" width="1" height="1" fill="rgb(18,133,120)" fill-opacity="0.500"/>
    <rect x="2" y="1" width="1" height="1" fill="rgb(84,150,80)" fill-opacity="0.500"/>
    <rect x="2" y="2" width="1" height="1" fill="rgb(106,249,114)" fill-opacity="0.500"/>
    <rect x="0" y="3" width="1" height="1" fill="rgb(53,152,122)" fill-opacity="0.500"/>
    <rect x="1" y="3" width="1" height="1" fill="rgb(125,158,21)" fill-opacity="0.500"/>
    <rect x="2" y="3" width="1" height="1" fill="rgb(54,218,127)" fill-opacity="0.500"/>
    <rect x="3" y="3" width="1" height="1" fill="rgb(12,216,42)" fill-opacity="0.500"/>
    <rect x="4" y="3" width="1" height="1" fill="rgb(18,242,4)" fill-opacity="0.500"/>
    <rect x="2" y="4" width="1" height="1" fill="rgb(104,154,100)" fill-opacity="0.500"/>
    <rect x="2" y="5" width="1" height="1" fill="rgb(29,150,181)" fill-opacity="0.500"/>
    <rect x="2" y="6" width="1" height="1" fill="rgb(41,147,113)" fill-opacity="0.500"/>
  </g>
</svg>
