<?xml version="1.0" encoding="UTF-8"?>
<svg xmlns="http://www.w3.org/2000/svg" width="144" height="216" viewBox="0 0 6 9" shape-rendering="crispEdges">
  <title>U+0026 (&amp;)</title>
  
  <g>
    <rect x="4" y="0" width="1" height="1" fill="rgb(2,189,69)" fill-opacity="0.500"/>
    <rect x="4" y="1" width="1" height="1" fill="rgb(87,163,184)" fill-opacity="0.500"/>
    <rect x="0" y="2" width="1" height="1" fill="rgb(104,157,74)" fill-opacity="0.500"/>
    <rect x="1" y="2" width="1" height="1" fill="rgb(19,163,26)" fill-opacity="0.500"/>
    <rect x="2" y="2" width="1" height="1" fill="rgb(51,251,180)" fill-opacity="0.500"/>
    <rect x="4" y="2" width="1" height="1" fill="rgb(60,196,9)" fill-opacity="0.500"/>
    <rect x="5" y="2" width="1" height="1" fill="rgb(44,253,100)" fill-opacity="0.500"/>
    <rect x="0" y="3" width="1" height="1" fill="rgb(123,179,5)" fill-opacity="0.500"/>
    <rect x="2" y="3" width="1" height="1" fill="rgb(55,246,111)" fill-opacity="0.500"/>
    <rect x="4" y="3" width="1" height="1" fill="rgb(9,223,43)" fill-opacity="0.500"/>
    <rect x="0" y="4" width="1" height="1" fill="rgb(37,170,92)" fill-opacity="0.500"/>
    <rect x="1" y="4" width="1" height="1" fill="rgb(32,253,163)" fill-opacity="0.500"/>
    <rect x="2" y="4" width="1" height="1" fill="rgb(35,147,5)" fill-opacity="0.500"/>
    <rect x="4" y="4" width="1" height="1" fill="rgb(32,229,160)" fill-opacity="0.500"/>
    <rect x="0" y="5" width="1" height="1" fill="rgb(61,249,20)" fill-opacity="0.500"/>
    <rect x="4" y="5" width="1" height="1" fill="rgb(24,151,161)" fill-opacity="0.500"/>
    <rect x="0" y="6" width="1" height="1" fill="rgb(112,181,56)" fill-opacity="0.500"/>
    <rect x="1" y="6" width="1" height="1" fill="rgb(90,172,92)" fill-opacity="0.500"/>
    <rect x="2" y="6" width="1" height="1" fill="rgb(103,198,118)" fill-opacity="0.500"/>
    <rect x="3" y="6" width="1" height="1" fill="rgb(0,246,40)" fill-opacity="0.500"/>
    <rect x="4" y="6" width="1" height="1" fill="rgb(59,201,112)" fill-opacity="0.500"/>
  </g>
</svg>
