<?xml version="1.0" encoding="UTF-8"?>
<svg xmlns="http://www.w3.org/2000/svg" width="120" height="216" viewBox="0 0 5 9" shape-rendering="crispEdges">
  <title>U+042B (Ы)</title>
  
  <g>
    <rect x="0" y="0" width="1" height="1" fill="rgb(28,220,99)" fill-opacity="0.500"/>
    <rect x="1" y="0" width="1" height="1" fill="rgb(50,207,80)" fill-opacity="0.500"/>
    <rect x="4" y="0" width="1" height="1" fill="rgb(113,217,42)" fill-opacity="0.500"/>
    <rect x="0" y="1" width="1" height="1" fill="rgb(124,165,150)" fill-opacity="0.500"/>
    <rect x="4" y="1" width="1" height="1" fill="rgb(20,134,40)" fill-opacity="0.500"/>
    <rect x="0" y="2" width="1" height="1" fill="rgb(6,129,16)" fill-opacity="0.500"/>
    <rect x="4" y="2" width="1" height="1" fill="rgb(93,138,16)" fill-opacity="0.500"/>
    <rect x="0" y="3" width="1" height="1" fill="rgb(25,144,148)" fill-opacity="0.500"/>
    <rect x="1" y="3" width="1" height="1" fill="rgb(50,199,33)" fill-opacity="0.500"/>
    <rect x="4" y="3" width="1" height="1" fill="rgb(19,244,78)" fill-opacity="0.500"/>
    <rect x="0" y="4" width="1" height="1" fill="rgb(5,254,100)" fill-opacity="0.500"/>
    <rect x="2" y="4" width="1" height="1" fill="rgb(65,150,4)" fill-opacity="0.500"/>
    <rect x="4" y="4" width="1" height="1" fill="rgb(84,138,164)" fill-opacity="0.500"/>
    <rect x="0" y="5" width="1" height="1" fill="rgb(83,239,122)" fill-opacity="0.500"/>
    <rect x="2" y="5" width="1" height="1" fill="rgb(33,129,97)" fill-opacity="0.500"/>
    <rect x="4" y="5" width="1" height="1" fill="rgb(96,194,12)" fill-opacity="0.500"/>
    <rect x="0" y="6" width="1" height="1" fill="rgb(2,171,39)" fill-opacity="0.500"/>
    <rect x="1" y="6" width="1" height="1" fill="rgb(52,194,14)" fill-opacity="0.500"/>
    <rect x="4" y="6" width="1" height="1" fill="rgb(74,236,101)" fill-opacity="0.500"/>
  </g>
</svg>
