<?xml version="1.0" encoding="UTF-8"?>
<svg xmlns="http://www.w3.org/2000/svg" width="72" height="216" viewBox="0 0 3 9" shape-rendering="crispEdges">
  <title>U+0030 (0)</title>
  
  <g>
    <rect x="0" y="0" width="1" height="1" fill="rgb(36,217,95)" fill-opacity="0.500"/>
    <rect x="1" y="0" width="1" height="1" fill="rgb(5,236,187)" fill-opacity="0.500"/>
    <rect x="2" y="0" width="1" height="1" fill="rgb(1,178,47)" fill-opacity="0.500"/>
    <rect x="0" y="1" width="1" height="1" fill="rgb(8,141,145)" fill-opacity="0.500"/>
    <rect x="2" y="1" width="1" height="1" fill="rgb(88,146,48)" fill-opacity="0.500"/>
    <rect x="0" y="2" width="1" height="1" fill="rgb(127,152,48)" fill-opacity="0.500"/>
    <rect x="2" y="2" width="1" height="1" fill="rgb(36,165,70)" fill-opacity="0.500"/>
    <rect x="0" y="3" width="1" height="1" fill="rgb(70,148,37)" fill-opacity="0.500"/>
    <rect x="2" y="3" width="1" height="1" fill="rgb(27,246,34)" fill-opacity="0.500"/>
    <rect x="0" y="4" width="1" height="1" fill="rgb(21,199,129)" fill-opacity="0.500"/>
    <rect x="2" y="4" width="1" height="1" fill="rgb(16,208,139)" fill-opacity="0.500"/>
    <rect x="0" y="5" width="1" height="1" fill="rgb(0,234,120)" fill-opacity="0.500"/>
    <rect x="2" y="5" width="1" height="1" fill="rgb(42,211,77)" fill-opacity="0.500"/>
    <rect x="0" y="6" width="1" height="1" fill="rgb(73,254,35)" fill-opacity="0.500"/>
    <rect x="1" y="6" width="1" height="1" fill="rgb(96,205,85)" fill-opacity="0.500"/>
    <rect x="2" y="6" width="1" height="1" fill="rgb(6,216,90)" fill-opacity="0.500"/>
  </g>
</svg>
