<?xml version="1.0" encoding="UTF-8"?>
<svg xmlns="http://www.w3.org/2000/svg" width="168" height="216" viewBox="0 0 7 9" shape-rendering="crispEdges">
  <title>U+2629 (☩)</title>
  
  <g>
    <rect x="2" y="0" width="1" height="1" fill="rgb(66,221,33)" fill-opacity="0.500"/>
    <rect x="3" y="0" width="1" height="1" fill="rgb(73,163,46)" fill-opacity="0.500"/>
    <rect x="4" y="0" width="1" height="1" fill="rgb(111,141,107)" fill-opacity="0.500"/>
    <rect x="3" y="1" width="1" height="1" fill="rgb(98,246,61)" fill-opacity="0.500"/>
    <rect x="0" y="2" width="1" height="1" fill="rgb(102,142,78)" fill-opacity="0.500"/>
    <rect x="3" y="2" width="1" height="1" fill="rgb(52,195,15)" fill-opacity="0.500"/>
    <rect x="6" y="2" width="1" height="1" fill="rgb(47,159,119)" fill-opacity="0.500"/>
    <rect x="0" y="3" width="1" height="1" fill="rgb(74,188,117)" fill-opacity="0.500"/>
    <rect x="1" y="3" width="1" height="1" fill="rgb(27,169,130)" fill-opacity="0.500"/>
    <rect x="2" y="3" width="1" height="1" fill="rgb(9,174,117)" fill-opacity="0.500"/>
    <rect x="3" y="3" width="1" height="1" fill="rgb(27,228,52)" fill-opacity="0.500"/>
    <rect x="4" y="3" width="1" height="1" fill="rgb(42,206,107)" fill-opacity="0.500"/>
    <rect x="5" y="3" width="1" height="1" fill="rgb(32,221,150)" fill-opacity="0.500"/>
    <rect x="6" y="3" width="1" height="1" fill="rgb(70,130,109)" fill-opacity="0.500"/>
    <rect x="0" y="4" width="1" height="1" fill="rgb(29,219,59)" fill-opacity="0.500"/>
    <rect x="3" y="4" width="1" height="1" fill="rgb(50,250,178)" fill-opacity="0.500"/>
    <rect x="6" y="4" width="1" height="1" fill="rgb(4,167,93)" fill-opacity="0.500"/>
    <rect x="3" y="5" width="1" height="1" fill="rgb(93,215,167)" fill-opacity="0.500"/>
    <rect x="2" y="6" width="1" height="1" fill="rgb(120,155,152)" fill-opacity="0.500"/>
    <rect x="3" y="6" width="1" height="1" fill="rgb(32,180,183)" fill-opacity="0.500"/>
    <rect x="4" y="6" width="1" height="1" fill="rgb(127,186,75)" fill-opacity="0.500"/>
  </g>
</svg>
