<?xml version="1.0" encoding="UTF-8"?>
<svg xmlns="http://www.w3.org/2000/svg" width="120" height="216" viewBox="0 0 5 9" shape-rendering="crispEdges">
  <title>U+05DE (מ)</title>
  
  <g>
    <rect x="0" y="0" width="1" height="1" fill="rgb(99,180,27)" fill-opacity="0.500"/>
    <rect x="1" y="0" width="1" height="1" fill="rgb(107,181,168)" fill-opacity="0.500"/>
    <rect x="2" y="0" width="1" height="1" fill="rgb(56,140,27)" fill-opacity="0.500"/>
    <rect x="3" y="0" width="1" height="1" fill="rgb(72,183,179)" fill-opacity="0.500"/>
    <rect x="4" y="0" width="1" height="1" fill="rgb(10,157,129)" fill-opacity="0.500"/>
    <rect x="0" y="1" width="1" height="1" fill="rgb(68,238,160)" fill-opacity="0.500"/>
    <rect x="4" y="1" width="1" height="1" fill="rgb(76,142,59)" fill-opacity="0.500"/>
    <rect x="0" y="2" width="1" height="1" fill="rgb(59,207,82)" fill-opacity="0.500"/>
    <rect x="2" y="2" width="1" height="1" fill="rgb(8,143,111)" fill-opacity="0.500"/>
    <rect x="4" y="2" width="1" height="1" fill="rgb(24,177,96)" fill-opacity="0.500"/>
    <rect x="0" y="3" width="1" height="1" fill="rgb(28,215,191)" fill-opacity="0.500"/>
    <rect x="4" y="3" width="1" height="1" fill="rgb(71,190,181)" fill-opacity="0.500"/>
    <rect x="0" y="4" width="1" height="1" fill="rgb(36,224,24)" fill-opacity="0.500"/>
    <rect x="4" y="4" width="1" height="1" fill="rgb(1,228,187)" fill-opacity="0.500"/>
    <rect x="0" y="5" width="1" height="1" fill="rgb(48,166,90)" fill-opacity="0.500"/>
    <rect x="4" y="5" width="1" height="1" fill="rgb(121,222,132)" fill-opacity="0.500"/>
    <rect x="1" y="6" width="1" height="1" fill="rgb(23,164,112)" fill-opacity="0.500"/>
    <rect x="2" y="6" width="1" height="1" fill="rgb(92,211,43)" fill-opacity="0.500"/>
    <rect x="3" y="6" width="1" height="1" fill="rgb(81,195,135)" fill-opacity="0.500"/>
    <rect x="4" y="6" width="1" height="1" fill="rgb(16,236,135)" fill-opacity="0.500"/>
  </g>
</svg>
