<?xml version="1.0" encoding="UTF-8"?>
<svg xmlns="http://www.w3.org/2000/svg" width="96" height="216" viewBox="0 0 4 9" shape-rendering="crispEdges">
  <title>U+0414 (Д)</title>
  
  <g>
    <rect x="1" y="0" width="1" height="1" fill="rgb(28,165,49)" fill-opacity="0.500"/>
    <rect x="2" y="0" width="1" height="1" fill="rgb(119,160,93)" fill-opacity="0.500"/>
    <rect x="0" y="1" width="1" height="1" fill="rgb(46,178,81)" fill-opacity="0.500"/>
    <rect x="3" y="1" width="1" height="1" fill="rgb(33,216,146)" fill-opacity="0.500"/>
    <rect x="0" y="2" width="1" height="1" fill="rgb(34,159,101)" fill-opacity="0.500"/>
    <rect x="3" y="2" width="1" height="1" fill="rgb(60,161,104)" fill-opacity="0.500"/>
    <rect x="0" y="3" width="1" height="1" fill="rgb(86,236,118)" fill-opacity="0.500"/>
    <rect x="3" y="3" width="1" height="1" fill="rgb(52,212,111)" fill-opacity="0.500"/>
    <rect x="0" y="4" width="1" height="1" fill="rgb(80,164,109)" fill-opacity="0.500"/>
    <rect x="3" y="4" width="1" height="1" fill="rgb(71,138,181)" fill-opacity="0.500"/>
    <rect x="0" y="5" width="1" height="1" fill="rgb(78,151,155)" fill-opacity="0.500"/>
    <rect x="3" y="5" width="1" height="1" fill="rgb(83,189,89)" fill-opacity="0.500"/>
    <rect x="0" y="6" width="1" height="1" fill="rgb(107,243,12)" fill-opacity="0.500"/>
    <rect x="1" y="6" width="1" height="1" fill="rgb(36,244,125)" fill-opacity="0.500"/>
    <rect x="2" y="6" width="1" height="1" fill="rgb(104,248,6)" fill-opacity="0.500"/>
    <rect x="3" y="6" width="1" height="1" fill="rgb(44,194,38)" fill-opacity="0.500"/>
    <rect x="0" y="7" width="1" height="1" fill="rgb(97,160,25)" fill-opacity="0.500"/>
    <rect x="3" y="7" width="1" height="1" fill="rgb(123,242,98)" fill-opacity="0.500"/>
  </g>
</svg>
