<?xml version="1.0" encoding="UTF-8"?>
<svg xmlns="http://www.w3.org/2000/svg" width="120" height="216" viewBox="0 0 5 9" shape-rendering="crispEdges">
  <title>U+2628 (☨)</title>
  
  <g>
    <rect x="2" y="0" width="1" height="1" fill="rgb(57,242,48)" fill-opacity="0.500"/>
    <rect x="1" y="1" width="1" height="1" fill="rgb(96,242,81)" fill-opacity="0.500"/>
    <rect x="2" y="1" width="1" height="1" fill="rgb(82,162,127)" fill-opacity="0.500"/>
    <rect x="3" y="1" width="1" height="1" fill="rgb(22,147,159)" fill-opacity="0.500"/>
    <rect x="2" y="2" width="1" height="1" fill="rgb(55,231,83)" fill-opacity="0.500"/>
    <rect x="0" y="3" width="1" height="1" fill="rgb(107,141,69)" fill-opacity="0.500"/>
    <rect x="1" y="3" width="1" height="1" fill="rgb(100,209,190)" fill-opacity="0.500"/>
    <rect x="2" y="3" width="1" height="1" fill="rgb(25,223,12)" fill-opacity="0.500"/>
    <rect x="3" y="3" width="1" height="1" fill="rgb(93,181,107)" fill-opacity="0.500"/>
    <rect x="4" y="3" width="1" height="1" fill="rgb(95,220,79)" fill-opacity="0.500"/>
    <rect x="2" y="4" width="1" height="1" fill="rgb(80,198,101)" fill-opacity="0.500"/>
    <rect x="2" y="5" width="1" height="1" fill="rgb(28,203,101)" fill-opacity="0.500"/>
    <rect x="2" y="6" width="1" height="1" fill="rgb(62,197,31)" fill-opacity="0.500"/>
    <rect x="2" y="7" width="1" height="1" fill="rgb(10,213,30)" fill-opacity="0.500"/>
    <rect x="2" y="8" width="1" height="1" fill="rgb(21,140,121)" fill-opacity="0.500"/>
  </g>
</svg>
