<?xml version="1.0" encoding="UTF-8"?>
<svg xmlns="http://www.w3.org/2000/svg" width="120" height="216" viewBox="0 0 5 9" shape-rendering="crispEdges">
  <title>U+0057 (W)</title>
  
  <g>
    <rect x="0" y="0" width="1" height="1" fill="rgb(46,255,105)" fill-opacity="0.500"/>
    <rect x="2" y="0" width="1" height="1" fill="rgb(86,249,164)" fill-opacity="0.500"/>
    <rect x="4" y="0" width="1" height="1" fill="rgb(40,139,124)" fill-opacity="0.500"/>
    <rect x="0" y="1" width="1" height="1" fill="rgb(44,252,132)" fill-opacity="0.500"/>
    <rect x="2" y="1" width="1" height="1" fill="rgb(121,175,47)" fill-opacity="0.500"/>
    <rect x="4" y="1" width="1" height="1" fill="rgb(0,233,133)" fill-opacity="0.500"/>
    <rect x="0" y="2" width="1" height="1" fill="rgb(90,137,49)" fill-opacity="0.500"/>
    <rect x="2" y="2" width="1" height="1" fill="rgb(89,204,113)" fill-opacity="0.500"/>
    <rect x="4" y="2" width="1" height="1" fill="rgb(32,177,149)" fill-opacity="0.500"/>
    <rect x="0" y="3" width="1" height="1" fill="rgb(19,148,185)" fill-opacity="0.500"/>
    <rect x="2" y="3" width="1" height="1" fill="rgb(78,236,138)" fill-opacity="0.500"/>
    <rect x="4" y="3" width="1" height="1" fill="rgb(32,251,167)" fill-opacity="0.500"/>
    <rect x="0" y="4" width="1" height="1" fill="rgb(114,182,19)" fill-opacity="0.500"/>
    <rect x="2" y="4" width="1" height="1" fill="rgb(16,129,190)" fill-opacity="0.500"/>
    <rect x="4" y="4" width="1" height="1" fill="rgb(0,157,77)" fill-opacity="0.500"/>
    <rect x="0" y="5" width="1" height="1" fill="rgb(3,217,38)" fill-opacity="0.500"/>
    <rect x="2" y="5" width="1" height="1" fill="rgb(11,231,101)" fill-opacity="0.500"/>
    <rect x="4" y="5" width="1" height="1" fill="rgb(20,144,116)" fill-opacity="0.500"/>
    <rect x="0" y="6" width="1" height="1" fill="rgb(116,173,138)" fill-opacity="0.500"/>
    <rect x="1" y="6" width="1" height="1" fill="rgb(109,167,37)" fill-opacity="0.500"/>
    <rect x="2" y="6" width="1" height="1" fill="rgb(126,220,169)" fill-opacity="0.500"/>
    <rect x="3" y="6" width="1" height="1" fill="rgb(126,240,112)" fill-opacity="0.500"/>
    <rect x="4" y="6" width="1" height="1" fill="rgb(105,209,13)" fill-opacity="0.500"/>
  </g>
</svg>
