<?xml version="1.0" encoding="UTF-8"?>
<svg xmlns="http://www.w3.org/2000/svg" width="168" height="216" viewBox="0 0 7 9" shape-rendering="crispEdges">
  <title>U+2629 (☩)</title>
  
  <g>
    <rect x="2" y="0" width="1" height="1" fill="rgb(20,213,97)" fill-opacity="0.500"/>
    <rect x="3" y="0" width="1" height="1" fill="rgb(93,154,140)" fill-opacity="0.500"/>
    <rect x="4" y="0" width="1" height="1" fill="rgb(105,208,84)" fill-opacity="0.500"/>
    <rect x="3" y="1" width="1" height="1" fill="rgb(60,217,6)" fill-opacity="0.500"/>
    <rect x="0" y="2" width="1" height="1" fill="rgb(75,231,71)" fill-opacity="0.500"/>
    <rect x="3" y="2" width="1" height="1" fill="rgb(4,214,49)" fill-opacity="0.500"/>
    <rect x="6" y="2" width="1" height="1" fill="rgb(42,164,47)" fill-opacity="0.500"/>
    <rect x="0" y="3" width="1" height="1" fill="rgb(96,170,103)" fill-opacity="0.500"/>
    <rect x="1" y="3" width="1" height="1" fill="rgb(100,147,137)" fill-opacity="0.500"/>
    <rect x="2" y="3" width="1" height="1" fill="rgb(67,175,36)" fill-opacity="0.500"/>
    <rect x="3" y="3" width="1" height="1" fill="rgb(115,130,36)" fill-opacity="0.500"/>
    <rect x="4" y="3" width="1" height="1" fill="rgb(69,173,4)" fill-opacity="0.500"/>
    <rect x="5" y="3" width="1" height="1" fill="rgb(60,173,78)" fill-opacity="0.500"/>
    <rect x="6" y="3" width="1" height="1" fill="rgb(115,140,135)" fill-opacity="0.500"/>
    <rect x="0" y="4" width="1" height="1" fill="rgb(75,252,148)" fill-opacity="0.500"/>
    <rect x="3" y="4" width="1" height="1" fill="rgb(72,190,158)" fill-opacity="0.500"/>
    <rect x="6" y="4" width="1" height="1" fill="rgb(16,234,14)" fill-opacity="0.500"/>
    <rect x="3" y="5" width="1" height="1" fill="rgb(115,196,153)" fill-opacity="0.500"/>
    <rect x="2" y="6" width="1" height="1" fill="rgb(73,168,35)" fill-opacity="0.500"/>
    <rect x="3" y="6" width="1" height="1" fill="rgb(4,160,153)" fill-opacity="0.500"/>
    <rect x="4" y="6" width="1" height="1" fill="rgb(9,228,107)" fill-opacity="0.500"/>
  </g>
</svg>
