<?xml version="1.0" encoding="UTF-8"?>
<svg xmlns="http://www.w3.org/2000/svg" width="120" height="216" viewBox="0 0 5 9" shape-rendering="crispEdges">
  <title>U+05E6 (צ)</title>
  
  <g>
    <rect x="2" y="0" width="1" height="1" fill="rgb(5,147,146)" fill-opacity="0.500"/>
    <rect x="2" y="1" width="1" height="1" fill="rgb(19,202,159)" fill-opacity="0.500"/>
    <rect x="3" y="1" width="1" height="1" fill="rgb(39,188,99)" fill-opacity="0.500"/>
    <rect x="1" y="2" width="1" height="1" fill="rgb(99,152,138)" fill-opacity="0.500"/>
    <rect x="3" y="2" width="1" height="1" fill="rgb(26,198,10)" fill-opacity="0.500"/>
    <rect x="0" y="3" width="1" height="1" fill="rgb(111,216,189)" fill-opacity="0.500"/>
    <rect x="3" y="3" width="1" height="1" fill="rgb(53,234,82)" fill-opacity="0.500"/>
    <rect x="0" y="4" width="1" height="1" fill="rgb(22,173,51)" fill-opacity="0.500"/>
    <rect x="3" y="4" width="1" height="1" fill="rgb(107,208,147)" fill-opacity="0.500"/>
    <rect x="0" y="5" width="1" height="1" fill="rgb(119,224,0)" fill-opacity="0.500"/>
    <rect x="3" y="5" width="1" height="1" fill="rgb(9,161,94)" fill-opacity="0.500"/>
    <rect x="0" y="6" width="1" height="1" fill="rgb(69,173,5)" fill-opacity="0.500"/>
    <rect x="1" y="6" width="1" height="1" fill="rgb(49,136,92)" fill-opacity="0.500"/>
    <rect x="2" y="6" width="1" height="1" fill="rgb(116,219,61)" fill-opacity="0.500"/>
    <rect x="3" y="6" width="1" height="1" fill="rgb(85,218,67)" fill-opacity="0.500"/>
  </g>
</svg>
