<?xml version="1.0" encoding="UTF-8"?>
<svg xmlns="http://www.w3.org/2000/svg" width="120" height="216" viewBox="0 0 5 9" shape-rendering="crispEdges">
  <title>U+05D1 (ב)</title>
  
  <g>
    <rect x="0" y="0" width="1" height="1" fill="rgb(116,199,129)" fill-opacity="0.500"/>
    <rect x="1" y="0" width="1" height="1" fill="rgb(93,138,30)" fill-opacity="0.500"/>
    <rect x="2" y="0" width="1" height="1" fill="rgb(36,154,130)" fill-opacity="0.500"/>
    <rect x="3" y="0" width="1" height="1" fill="rgb(27,180,64)" fill-opacity="0.500"/>
    <rect x="4" y="0" width="1" height="1" fill="rgb(86,238,51)" fill-opacity="0.500"/>
    <rect x="4" y="1" width="1" height="1" fill="rgb(91,208,143)" fill-opacity="0.500"/>
    <rect x="4" y="2" width="1" height="1" fill="rgb(41,173,153)" fill-opacity="0.500"/>
    <rect x="4" y="3" width="1" height="1" fill="rgb(16,181,91)" fill-opacity="0.500"/>
    <rect x="4" y="4" width="1" height="1" fill="rgb(22,189,14)" fill-opacity="0.500"/>
    <rect x="4" y="5" width="1" height="1" fill="rgb(19,176,7)" fill-opacity="0.500"/>
    <rect x="0" y="6" width="1" height="1" fill="rgb(53,221,70)" fill-opacity="0.500"/>
    <rect x="1" y="6" width="1" height="1" fill="rgb(122,160,150)" fill-opacity="0.500"/>
    <rect x="2" y="6" width="1" height="1" fill="rgb(57,221,170)" fill-opacity="0.500"/>
    <rect x="3" y="6" width="1" height="1" fill="rgb(86,145,72)" fill-opacity="0.500"/>
    <rect x="4" y="6" width="1" height="1" fill="rgb(58,252,66)" fill-opacity="0.500"/>
  </g>
</svg>
