<?xml version="1.0" encoding="UTF-8"?>
<svg xmlns="http://www.w3.org/2000/svg" width="120" height="216" viewBox="0 0 5 9" shape-rendering="crispEdges">
  <title>U+05E1 (ס)</title>
  
  <g>
    <rect x="1" y="0" width="1" height="1" fill="rgb(44,227,53)" fill-opacity="0.500"/>
    <rect x="2" y="0" width="1" height="1" fill="rgb(9,180,118)" fill-opacity="0.500"/>
    <rect x="3" y="0" width="1" height="1" fill="rgb(14,168,25)" fill-opacity="0.500"/>
    <rect x="0" y="1" width="1" height="1" fill="rgb(117,157,35)" fill-opacity="0.500"/>
    <rect x="4" y="1" width="1" height="1" fill="rgb(86,225,94)" fill-opacity="0.500"/>
    <rect x="0" y="2" width="1" height="1" fill="rgb(67,138,55)" fill-opacity="0.500"/>
    <rect x="4" y="2" width="1" height="1" fill="rgb(21,206,71)" fill-opacity="0.500"/>
    <rect x="0" y="3" width="1" height="1" fill="rgb(120,184,111)" fill-opacity="0.500"/>
    <rect x="4" y="3" width="1" height="1" fill="rgb(37,201,122)" fill-opacity="0.500"/>
    <rect x="0" y="4" width="1" height="1" fill="rgb(49,139,70)" fill-opacity="0.500"/>
    <rect x="4" y="4" width="1" height="1" fill="rgb(23,130,79)" fill-opacity="0.500"/>
    <rect x="0" y="5" width="1" height="1" fill="rgb(89,243,162)" fill-opacity="0.500"/>
    <rect x="4" y="5" width="1" height="1" fill="rgb(99,176,117)" fill-opacity="0.500"/>
    <rect x="1" y="6" width="1" height="1" fill="rgb(29,212,188)" fill-opacity="0.500"/>
    <rect x="2" y="6" width="1" height="1" fill="rgb(0,134,37)" fill-opacity="0.500"/>
    <rect x="3" y="6" width="1" height="1" fill="rgb(40,202,115)" fill-opacity="0.500"/>
  </g>
</svg>
