<?xml version="1.0" encoding="UTF-8"?>
<svg xmlns="http://www.w3.org/2000/svg" width="96" height="216" viewBox="0 0 4 9" shape-rendering="crispEdges">
  <title>U+0414 (Д)</title>
  
  <g>
    <rect x="1" y="0" width="1" height="1" fill="rgb(11,196,22)" fill-opacity="0.500"/>
    <rect x="2" y="0" width="1" height="1" fill="rgb(106,146,40)" fill-opacity="0.500"/>
    <rect x="0" y="1" width="1" height="1" fill="rgb(4,145,67)" fill-opacity="0.500"/>
    <rect x="3" y="1" width="1" height="1" fill="rgb(25,198,115)" fill-opacity="0.500"/>
    <rect x="0" y="2" width="1" height="1" fill="rgb(90,184,150)" fill-opacity="0.500"/>
    <rect x="3" y="2" width="1" height="1" fill="rgb(123,237,42)" fill-opacity="0.500"/>
    <rect x="0" y="3" width="1" height="1" fill="rgb(95,251,157)" fill-opacity="0.500"/>
    <rect x="3" y="3" width="1" height="1" fill="rgb(60,223,9)" fill-opacity="0.500"/>
    <rect x="0" y="4" width="1" height="1" fill="rgb(125,223,50)" fill-opacity="0.500"/>
    <rect x="3" y="4" width="1" height="1" fill="rgb(103,234,74)" fill-opacity="0.500"/>
    <rect x="0" y="5" width="1" height="1" fill="rgb(89,159,1)" fill-opacity="0.500"/>
    <rect x="3" y="5" width="1" height="1" fill="rgb(93,135,62)" fill-opacity="0.500"/>
    <rect x="0" y="6" width="1" height="1" fill="rgb(62,227,71)" fill-opacity="0.500"/>
    <rect x="1" y="6" width="1" height="1" fill="rgb(83,140,117)" fill-opacity="0.500"/>
    <rect x="2" y="6" width="1" height="1" fill="rgb(91,180,137)" fill-opacity="0.500"/>
    <rect x="3" y="6" width="1" height="1" fill="rgb(126,192,105)" fill-opacity="0.500"/>
    <rect x="0" y="7" width="1" height="1" fill="rgb(112,145,108)" fill-opacity="0.500"/>
    <rect x="3" y="7" width="1" height="1" fill="rgb(42,186,165)" fill-opacity="0.500"/>
  </g>
</svg>
