<?xml version="1.0" encoding="UTF-8"?>
<svg xmlns="http://www.w3.org/2000/svg" width="120" height="216" viewBox="0 0 5 9" shape-rendering="crispEdges">
  <title>U+0057 (W)</title>
  
  <g>
    <rect x="0" y="0" width="1" height="1" fill="rgb(89,150,166)" fill-opacity="0.500"/>
    <rect x="2" y="0" width="1" height="1" fill="rgb(103,214,53)" fill-opacity="0.500"/>
    <rect x="4" y="0" width="1" height="1" fill="rgb(83,242,142)" fill-opacity="0.500"/>
    <rect x="0" y="1" width="1" height="1" fill="rgb(51,244,110)" fill-opacity="0.500"/>
    <rect x="2" y="1" width="1" height="1" fill="rgb(93,252,61)" fill-opacity="0.500"/>
    <rect x="4" y="1" width="1" height="1" fill="rgb(109,240,66)" fill-opacity="0.500"/>
    <rect x="0" y="2" width="1" height="1" fill="rgb(59,244,152)" fill-opacity="0.500"/>
    <rect x="2" y="2" width="1" height="1" fill="rgb(105,189,183)" fill-opacity="0.500"/>
    <rect x="4" y="2" width="1" height="1" fill="rgb(66,156,125)" fill-opacity="0.500"/>
    <rect x="0" y="3" width="1" height="1" fill="rgb(73,151,97)" fill-opacity="0.500"/>
    <rect x="2" y="3" width="1" height="1" fill="rgb(75,167,85)" fill-opacity="0.500"/>
    <rect x="4" y="3" width="1" height="1" fill="rgb(58,241,40)" fill-opacity="0.500"/>
    <rect x="0" y="4" width="1" height="1" fill="rgb(119,185,161)" fill-opacity="0.500"/>
    <rect x="2" y="4" width="1" height="1" fill="rgb(103,174,30)" fill-opacity="0.500"/>
    <rect x="4" y="4" width="1" height="1" fill="rgb(25,152,134)" fill-opacity="0.500"/>
    <rect x="0" y="5" width="1" height="1" fill="rgb(113,187,134)" fill-opacity="0.500"/>
    <rect x="2" y="5" width="1" height="1" fill="rgb(93,240,7)" fill-opacity="0.500"/>
    <rect x="4" y="5" width="1" height="1" fill="rgb(7,158,129)" fill-opacity="0.500"/>
    <rect x="0" y="6" width="1" height="1" fill="rgb(90,195,146)" fill-opacity="0.500"/>
    <rect x="1" y="6" width="1" height="1" fill="rgb(15,222,34)" fill-opacity="0.500"/>
    <rect x="2" y="6" width="1" height="1" fill="rgb(65,203,162)" fill-opacity="0.500"/>
    <rect x="3" y="6" width="1" height="1" fill="rgb(19,140,143)" fill-opacity="0.500"/>
    <rect x="4" y="6" width="1" height="1" fill="rgb(11,154,130)" fill-opacity="0.500"/>
  </g>
</svg>
