<?xml version="1.0" encoding="UTF-8"?>
<svg xmlns="http://www.w3.org/2000/svg" width="120" height="216" viewBox="0 0 5 9" shape-rendering="crispEdges">
  <title>U+0402 (Ђ)</title>
  
  <g>
    <rect x="0" y="0" width="1" height="1" fill="rgb(62,169,9)" fill-opacity="0.500"/>
    <rect x="1" y="0" width="1" height="1" fill="rgb(43,160,92)" fill-opacity="0.500"/>
    <rect x="2" y="0" width="1" height="1" fill="rgb(62,216,54)" fill-opacity="0.500"/>
    <rect x="1" y="1" width="1" height="1" fill="rgb(60,194,145)" fill-opacity="0.500"/>
    <rect x="1" y="2" width="1" height="1" fill="rgb(95,157,62)" fill-opacity="0.500"/>
    <rect x="1" y="3" width="1" height="1" fill="rgb(46,133,25)" fill-opacity="0.500"/>
    <rect x="2" y="3" width="1" height="1" fill="rgb(45,225,182)" fill-opacity="0.500"/>
    <rect x="3" y="3" width="1" height="1" fill="rgb(99,253,47)" fill-opacity="0.500"/>
    <rect x="4" y="3" width="1" height="1" fill="rgb(57,211,147)" fill-opacity="0.500"/>
    <rect x="1" y="4" width="1" height="1" fill="rgb(16,139,106)" fill-opacity="0.500"/>
    <rect x="4" y="4" width="1" height="1" fill="rgb(78,140,154)" fill-opacity="0.500"/>
    <rect x="1" y="5" width="1" height="1" fill="rgb(11,161,50)" fill-opacity="0.500"/>
    <rect x="4" y="5" width="1" height="1" fill="rgb(123,148,29)" fill-opacity="0.500"/>
    <rect x="1" y="6" width="1" height="1" fill="rgb(28,178,163)" fill-opacity="0.500"/>
    <rect x="3" y="6" width="1" height="1" fill="rgb(93,247,89)" fill-opacity="0.500"/>
    <rect x="4" y="6" width="1" height="1" fill="rgb(110,129,27)" fill-opacity="0.500"/>
  </g>
</svg>
