<?xml version="1.0" encoding="UTF-8"?>
<svg xmlns="http://www.w3.org/2000/svg" width="120" height="216" viewBox="0 0 5 9" shape-rendering="crispEdges">
  <title>U+2630 (☰)</title>
  
  <g>
    <rect x="0" y="1" width="1" height="1" fill="rgb(76,215,54)" fill-opacity="0.500"/>
    <rect x="1" y="1" width="1" height="1" fill="rgb(114,136,132)" fill-opacity="0.500"/>
    <rect x="2" y="1" width="1" height="1" fill="rgb(23,195,21)" fill-opacity="0.500"/>
    <rect x="3" y="1" width="1" height="1" fill="rgb(3,216,80)" fill-opacity="0.500"/>
    <rect x="4" y="1" width="1" height="1" fill="rgb(38,173,151)" fill-opacity="0.500"/>
    <rect x="0" y="4" width="1" height="1" fill="rgb(14,192,118)" fill-opacity="0.500"/>
    <rect x="1" y="4" width="1" height="1" fill="rgb(111,153,113)" fill-opacity="0.500"/>
    <rect x="2" y="4" width="1" height="1" fill="rgb(127,184,174)" fill-opacity="0.500"/>
    <rect x="3" y="4" width="1" height="1" fill="rgb(42,134,32)" fill-opacity="0.500"/>
    <rect x="4" y="4" width="1" height="1" fill="rgb(27,238,78)" fill-opacity="0.500"/>
    <rect x="0" y="7" width="1" height="1" fill="rgb(6,157,155)" fill-opacity="0.500"/>
    <rect x="1" y="7" width="1" height="1" fill="rgb(19,163,91)" fill-opacity="0.500"/>
    <rect x="2" y="7" width="1" height="1" fill="rgb(120,189,165)" fill-opacity="0.500"/>
    <rect x="3" y="7" width="1" height="1" fill="rgb(85,190,108)" fill-opacity="0.500"/>
    <rect x="4" y="7" width="1" height="1" fill="rgb(25,238,160)" fill-opacity="0.500"/>
  </g>
</svg>
