<?xml version="1.0" encoding="UTF-8"?>
<svg xmlns="http://www.w3.org/2000/svg" width="120" height="216" viewBox="0 0 5 9" shape-rendering="crispEdges">
  <title>U+05E4 (פ)</title>
  
  <g>
    <rect x="0" y="0" width="1" height="1" fill="rgb(64,193,51)" fill-opacity="0.500"/>
    <rect x="1" y="0" width="1" height="1" fill="rgb(73,136,162)" fill-opacity="0.500"/>
    <rect x="2" y="0" width="1" height="1" fill="rgb(88,151,1)" fill-opacity="0.500"/>
    <rect x="3" y="0" width="1" height="1" fill="rgb(21,189,37)" fill-opacity="0.500"/>
    <rect x="0" y="1" width="1" height="1" fill="rgb(92,254,160)" fill-opacity="0.500"/>
    <rect x="4" y="1" width="1" height="1" fill="rgb(55,168,100)" fill-opacity="0.500"/>
    <rect x="0" y="2" width="1" height="1" fill="rgb(24,145,28)" fill-opacity="0.500"/>
    <rect x="4" y="2" width="1" height="1" fill="rgb(51,147,126)" fill-opacity="0.500"/>
    <rect x="0" y="3" width="1" height="1" fill="rgb(46,206,57)" fill-opacity="0.500"/>
    <rect x="1" y="3" width="1" height="1" fill="rgb(47,175,144)" fill-opacity="0.500"/>
    <rect x="2" y="3" width="1" height="1" fill="rgb(46,206,122)" fill-opacity="0.500"/>
    <rect x="3" y="3" width="1" height="1" fill="rgb(37,168,106)" fill-opacity="0.500"/>
    <rect x="0" y="4" width="1" height="1" fill="rgb(53,140,76)" fill-opacity="0.500"/>
    <rect x="0" y="5" width="1" height="1" fill="rgb(101,249,19)" fill-opacity="0.500"/>
    <rect x="0" y="6" width="1" height="1" fill="rgb(69,239,141)" fill-opacity="0.500"/>
  </g>
</svg>
