<?xml version="1.0" encoding="UTF-8"?>
<svg xmlns="http://www.w3.org/2000/svg" width="120" height="216" viewBox="0 0 5 9" shape-rendering="crispEdges">
  <title>U+05D8 (ט)</title>
  
  <g>
    <rect x="1" y="0" width="1" height="1" fill="rgb(51,152,11)" fill-opacity="0.500"/>
    <rect x="2" y="0" width="1" height="1" fill="rgb(92,188,176)" fill-opacity="0.500"/>
    <rect x="3" y="0" width="1" height="1" fill="rgb(77,196,124)" fill-opacity="0.500"/>
    <rect x="0" y="1" width="1" height="1" fill="rgb(125,195,131)" fill-opacity="0.500"/>
    <rect x="4" y="1" width="1" height="1" fill="rgb(115,191,3)" fill-opacity="0.500"/>
    <rect x="0" y="2" width="1" height="1" fill="rgb(59,191,148)" fill-opacity="0.500"/>
    <rect x="2" y="2" width="1" height="1" fill="rgb(104,171,28)" fill-opacity="0.500"/>
    <rect x="4" y="2" width="1" height="1" fill="rgb(98,145,151)" fill-opacity="0.500"/>
    <rect x="0" y="3" width="1" height="1" fill="rgb(46,192,154)" fill-opacity="0.500"/>
    <rect x="2" y="3" width="1" height="1" fill="rgb(77,161,29)" fill-opacity="0.500"/>
    <rect x="4" y="3" width="1" height="1" fill="rgb(107,214,155)" fill-opacity="0.500"/>
    <rect x="0" y="4" width="1" height="1" fill="rgb(35,237,164)" fill-opacity="0.500"/>
    <rect x="4" y="4" width="1" height="1" fill="rgb(81,251,62)" fill-opacity="0.500"/>
    <rect x="0" y="5" width="1" height="1" fill="rgb(105,249,124)" fill-opacity="0.500"/>
    <rect x="4" y="5" width="1" height="1" fill="rgb(85,213,16)" fill-opacity="0.500"/>
    <rect x="1" y="6" width="1" height="1" fill="rgb(29,130,115)" fill-opacity="0.500"/>
    <rect x="2" y="6" width="1" height="1" fill="rgb(68,196,48)" fill-opacity="0.500"/>
    <rect x="3" y="6" width="1" height="1" fill="rgb(126,219,23)" fill-opacity="0.500"/>
  </g>
</svg>
