<?xml version="1.0" encoding="UTF-8"?>
<svg xmlns="http://www.w3.org/2000/svg" width="120" height="216" viewBox="0 0 5 9" shape-rendering="crispEdges">
  <title>U+05D7 (ח)</title>
  
  <g>
    <rect x="0" y="0" width="1" height="1" fill="rgb(104,169,22)" fill-opacity="0.500"/>
    <rect x="1" y="0" width="1" height="1" fill="rgb(64,209,168)" fill-opacity="0.500"/>
    <rect x="2" y="0" width="1" height="1" fill="rgb(84,225,147)" fill-opacity="0.500"/>
    <rect x="3" y="0" width="1" height="1" fill="rgb(18,210,33)" fill-opacity="0.500"/>
    <rect x="4" y="0" width="1" height="1" fill="rgb(26,194,187)" fill-opacity="0.500"/>
    <rect x="0" y="1" width="1" height="1" fill="rgb(106,175,119)" fill-opacity="0.500"/>
    <rect x="4" y="1" width="1" height="1" fill="rgb(86,176,171)" fill-opacity="0.500"/>
    <rect x="0" y="2" width="1" height="1" fill="rgb(41,157,42)" fill-opacity="0.500"/>
    <rect x="4" y="2" width="1" height="1" fill="rgb(10,137,17)" fill-opacity="0.500"/>
    <rect x="0" y="3" width="1" height="1" fill="rgb(39,134,88)" fill-opacity="0.500"/>
    <rect x="4" y="3" width="1" height="1" fill="rgb(53,187,189)" fill-opacity="0.500"/>
    <rect x="0" y="4" width="1" height="1" fill="rgb(69,173,10)" fill-opacity="0.500"/>
    <rect x="4" y="4" width="1" height="1" fill="rgb(72,253,19)" fill-opacity="0.500"/>
    <rect x="0" y="5" width="1" height="1" fill="rgb(104,232,55)" fill-opacity="0.500"/>
    <rect x="4" y="5" width="1" height="1" fill="rgb(83,191,80)" fill-opacity="0.500"/>
    <rect x="0" y="6" width="1" height="1" fill="rgb(68,188,159)" fill-opacity="0.500"/>
    <rect x="4" y="6" width="1" height="1" fill="rgb(67,167,127)" fill-opacity="0.500"/>
  </g>
</svg>
