<?xml version="1.0" encoding="UTF-8"?>
<svg xmlns="http://www.w3.org/2000/svg" width="168" height="216" viewBox="0 0 7 9" shape-rendering="crispEdges">
  <title>U+2629 (☩)</title>
  
  <g>
    <rect x="2" y="0" width="1" height="1" fill="rgb(1,180,77)" fill-opacity="0.500"/>
    <rect x="3" y="0" width="1" height="1" fill="rgb(21,179,112)" fill-opacity="0.500"/>
    <rect x="4" y="0" width="1" height="1" fill="rgb(15,147,96)" fill-opacity="0.500"/>
    <rect x="3" y="1" width="1" height="1" fill="rgb(6,247,49)" fill-opacity="0.500"/>
    <rect x="0" y="2" width="1" height="1" fill="rgb(35,193,49)" fill-opacity="0.500"/>
    <rect x="3" y="2" width="1" height="1" fill="rgb(72,130,149)" fill-opacity="0.500"/>
    <rect x="6" y="2" width="1" height="1" fill="rgb(23,243,44)" fill-opacity="0.500"/>
    <rect x="0" y="3" width="1" height="1" fill="rgb(71,129,55)" fill-opacity="0.500"/>
    <rect x="1" y="3" width="1" height="1" fill="rgb(124,252,142)" fill-opacity="0.500"/>
    <rect x="2" y="3" width="1" height="1" fill="rgb(79,195,183)" fill-opacity="0.500"/>
    <rect x="3" y="3" width="1" height="1" fill="rgb(123,168,74)" fill-opacity="0.500"/>
    <rect x="4" y="3" width="1" height="1" fill="rgb(9,143,175)" fill-opacity="0.500"/>
    <rect x="5" y="3" width="1" height="1" fill="rgb(49,174,130)" fill-opacity="0.500"/>
    <rect x="6" y="3" width="1" height="1" fill="rgb(97,168,135)" fill-opacity="0.500"/>
    <rect x="0" y="4" width="1" height="1" fill="rgb(109,231,125)" fill-opacity="0.500"/>
    <rect x="3" y="4" width="1" height="1" fill="rgb(126,213,1)" fill-opacity="0.500"/>
    <rect x="6" y="4" width="1" height="1" fill="rgb(25,158,103)" fill-opacity="0.500"/>
    <rect x="3" y="5" width="1" height="1" fill="rgb(81,217,186)" fill-opacity="0.500"/>
    <rect x="2" y="6" width="1" height="1" fill="rgb(83,182,61)" fill-opacity="0.500"/>
    <rect x="3" y="6" width="1" height="1" fill="rgb(38,214,67)" fill-opacity="0.500"/>
    <rect x="4" y="6" width="1" height="1" fill="rgb(52,179,87)" fill-opacity="0.500"/>
  </g>
</svg>
