<?xml version="1.0" encoding="UTF-8"?>
<svg xmlns="http://www.w3.org/2000/svg" width="120" height="216" viewBox="0 0 5 9" shape-rendering="crispEdges">
  <title>U+006D (m)</title>
  
  <g>
    <rect x="0" y="2" width="1" height="1" fill="rgb(77,236,146)" fill-opacity="0.500"/>
    <rect x="1" y="2" width="1" height="1" fill="rgb(15,203,85)" fill-opacity="0.500"/>
    <rect x="2" y="2" width="1" height="1" fill="rgb(127,245,146)" fill-opacity="0.500"/>
    <rect x="3" y="2" width="1" height="1" fill="rgb(122,130,8)" fill-opacity="0.500"/>
    <rect x="4" y="2" width="1" height="1" fill="rgb(61,213,42)" fill-opacity="0.500"/>
    <rect x="0" y="3" width="1" height="1" fill="rgb(91,129,72)" fill-opacity="0.500"/>
    <rect x="2" y="3" width="1" height="1" fill="rgb(75,190,143)" fill-opacity="0.500"/>
    <rect x="4" y="3" width="1" height="1" fill="rgb(76,188,86)" fill-opacity="0.500"/>
    <rect x="0" y="4" width="1" height="1" fill="rgb(6,155,186)" fill-opacity="0.500"/>
    <rect x="2" y="4" width="1" height="1" fill="rgb(71,173,78)" fill-opacity="0.500"/>
    <rect x="4" y="4" width="1" height="1" fill="rgb(45,156,13)" fill-opacity="0.500"/>
    <rect x="0" y="5" width="1" height="1" fill="rgb(24,141,111)" fill-opacity="0.500"/>
    <rect x="2" y="5" width="1" height="1" fill="rgb(5,149,190)" fill-opacity="0.500"/>
    <rect x="4" y="5" width="1" height="1" fill="rgb(3,131,183)" fill-opacity="0.500"/>
    <rect x="0" y="6" width="1" height="1" fill="rgb(58,145,171)" fill-opacity="0.500"/>
    <rect x="2" y="6" width="1" height="1" fill="rgb(123,185,111)" fill-opacity="0.500"/>
    <rect x="4" y="6" width="1" height="1" fill="rgb(46,189,156)" fill-opacity="0.500"/>
  </g>
</svg>
