<?xml version="1.0" encoding="UTF-8"?>
<svg xmlns="http://www.w3.org/2000/svg" width="120" height="216" viewBox="0 0 5 9" shape-rendering="crispEdges">
  <title>U+05D0 (א)</title>
  
  <g>
    <rect x="0" y="0" width="1" height="1" fill="rgb(81,181,71)" fill-opacity="0.500"/>
    <rect x="4" y="0" width="1" height="1" fill="rgb(102,215,60)" fill-opacity="0.500"/>
    <rect x="0" y="1" width="1" height="1" fill="rgb(21,203,152)" fill-opacity="0.500"/>
    <rect x="1" y="1" width="1" height="1" fill="rgb(83,185,131)" fill-opacity="0.500"/>
    <rect x="4" y="1" width="1" height="1" fill="rgb(127,232,86)" fill-opacity="0.500"/>
    <rect x="0" y="2" width="1" height="1" fill="rgb(28,237,104)" fill-opacity="0.500"/>
    <rect x="2" y="2" width="1" height="1" fill="rgb(40,135,62)" fill-opacity="0.500"/>
    <rect x="4" y="2" width="1" height="1" fill="rgb(41,143,166)" fill-opacity="0.500"/>
    <rect x="0" y="3" width="1" height="1" fill="rgb(74,208,181)" fill-opacity="0.500"/>
    <rect x="3" y="3" width="1" height="1" fill="rgb(57,164,9)" fill-opacity="0.500"/>
    <rect x="4" y="3" width="1" height="1" fill="rgb(56,162,95)" fill-opacity="0.500"/>
    <rect x="0" y="4" width="1" height="1" fill="rgb(75,160,99)" fill-opacity="0.500"/>
    <rect x="4" y="4" width="1" height="1" fill="rgb(58,135,15)" fill-opacity="0.500"/>
    <rect x="4" y="5" width="1" height="1" fill="rgb(63,137,168)" fill-opacity="0.500"/>
    <rect x="4" y="6" width="1" height="1" fill="rgb(52,180,139)" fill-opacity="0.500"/>
  </g>
</svg>
