<?xml version="1.0" encoding="UTF-8"?>
<svg xmlns="http://www.w3.org/2000/svg" width="120" height="216" viewBox="0 0 5 9" shape-rendering="crispEdges">
  <title>U+2626 (☦)</title>
  
  <g>
    <rect x="2" y="0" width="1" height="1" fill="rgb(43,195,129)" fill-opacity="0.500"/>
    <rect x="1" y="1" width="1" height="1" fill="rgb(68,179,155)" fill-opacity="0.500"/>
    <rect x="2" y="1" width="1" height="1" fill="rgb(33,148,84)" fill-opacity="0.500"/>
    <rect x="3" y="1" width="1" height="1" fill="rgb(15,189,107)" fill-opacity="0.500"/>
    <rect x="2" y="2" width="1" height="1" fill="rgb(106,148,15)" fill-opacity="0.500"/>
    <rect x="0" y="3" width="1" height="1" fill="rgb(83,227,82)" fill-opacity="0.500"/>
    <rect x="1" y="3" width="1" height="1" fill="rgb(96,196,171)" fill-opacity="0.500"/>
    <rect x="2" y="3" width="1" height="1" fill="rgb(54,168,186)" fill-opacity="0.500"/>
    <rect x="3" y="3" width="1" height="1" fill="rgb(90,251,72)" fill-opacity="0.500"/>
    <rect x="4" y="3" width="1" height="1" fill="rgb(91,151,114)" fill-opacity="0.500"/>
    <rect x="2" y="4" width="1" height="1" fill="rgb(98,187,13)" fill-opacity="0.500"/>
    <rect x="1" y="5" width="1" height="1" fill="rgb(99,246,88)" fill-opacity="0.500"/>
    <rect x="2" y="5" width="1" height="1" fill="rgb(15,164,97)" fill-opacity="0.500"/>
    <rect x="2" y="6" width="1" height="1" fill="rgb(67,229,190)" fill-opacity="0.500"/>
    <rect x="3" y="6" width="1" height="1" fill="rgb(32,175,185)" fill-opacity="0.500"/>
    <rect x="2" y="7" width="1" height="1" fill="rgb(77,206,95)" fill-opacity="0.500"/>
    <rect x="2" y="8" width="1" height="1" fill="rgb(108,172,97)" fill-opacity="0.500"/>
  </g>
</svg>
