<?xml version="1.0" encoding="UTF-8"?>
<svg xmlns="http://www.w3.org/2000/svg" width="120" height="216" viewBox="0 0 5 9" shape-rendering="crispEdges">
  <title>U+0057 (W)</title>
  
  <g>
    <rect x="0" y="0" width="1" height="1" fill="rgb(97,218,133)" fill-opacity="0.500"/>
    <rect x="2" y="0" width="1" height="1" fill="rgb(18,214,146)" fill-opacity="0.500"/>
    <rect x="4" y="0" width="1" height="1" fill="rgb(101,234,29)" fill-opacity="0.500"/>
    <rect x="0" y="1" width="1" height="1" fill="rgb(97,177,23)" fill-opacity="0.500"/>
    <rect x="2" y="1" width="1" height="1" fill="rgb(30,204,180)" fill-opacity="0.500"/>
    <rect x="4" y="1" width="1" height="1" fill="rgb(106,130,168)" fill-opacity="0.500"/>
    <rect x="0" y="2" width="1" height="1" fill="rgb(80,211,180)" fill-opacity="0.500"/>
    <rect x="2" y="2" width="1" height="1" fill="rgb(66,220,166)" fill-opacity="0.500"/>
    <rect x="4" y="2" width="1" height="1" fill="rgb(118,128,152)" fill-opacity="0.500"/>
    <rect x="0" y="3" width="1" height="1" fill="rgb(41,227,148)" fill-opacity="0.500"/>
    <rect x="2" y="3" width="1" height="1" fill="rgb(81,200,37)" fill-opacity="0.500"/>
    <rect x="4" y="3" width="1" height="1" fill="rgb(121,131,125)" fill-opacity="0.500"/>
    <rect x="0" y="4" width="1" height="1" fill="rgb(23,199,115)" fill-opacity="0.500"/>
    <rect x="2" y="4" width="1" height="1" fill="rgb(67,170,43)" fill-opacity="0.500"/>
    <rect x="4" y="4" width="1" height="1" fill="rgb(17,212,110)" fill-opacity="0.500"/>
    <rect x="0" y="5" width="1" height="1" fill="rgb(57,203,59)" fill-opacity="0.500"/>
    <rect x="2" y="5" width="1" height="1" fill="rgb(95,211,179)" fill-opacity="0.500"/>
    <rect x="4" y="5" width="1" height="1" fill="rgb(50,198,47)" fill-opacity="0.500"/>
    <rect x="0" y="6" width="1" height="1" fill="rgb(41,138,158)" fill-opacity="0.500"/>
    <rect x="1" y="6" width="1" height="1" fill="rgb(62,170,64)" fill-opacity="0.500"/>
    <rect x="2" y="6" width="1" height="1" fill="rgb(54,132,186)" fill-opacity="0.500"/>
    <rect x="3" y="6" width="1" height="1" fill="rgb(50,234,160)" fill-opacity="0.500"/>
    <rect x="4" y="6" width="1" height="1" fill="rgb(23,243,92)" fill-opacity="0.500"/>
  </g>
</svg>
