<?xml version="1.0" encoding="UTF-8"?>
<svg xmlns="http://www.w3.org/2000/svg" width="120" height="216" viewBox="0 0 5 9" shape-rendering="crispEdges">
  <title>U+042B (Ы)</title>
  
  <g>
    <rect x="0" y="0" width="1" height="1" fill="rgb(79,241,9)" fill-opacity="0.500"/>
    <rect x="4" y="0" width="1" height="1" fill="rgb(122,196,107)" fill-opacity="0.500"/>
    <rect x="0" y="1" width="1" height="1" fill="rgb(82,162,139)" fill-opacity="0.500"/>
    <rect x="4" y="1" width="1" height="1" fill="rgb(43,235,128)" fill-opacity="0.500"/>
    <rect x="0" y="2" width="1" height="1" fill="rgb(116,168,48)" fill-opacity="0.500"/>
    <rect x="4" y="2" width="1" height="1" fill="rgb(40,149,61)" fill-opacity="0.500"/>
    <rect x="0" y="3" width="1" height="1" fill="rgb(34,174,123)" fill-opacity="0.500"/>
    <rect x="1" y="3" width="1" height="1" fill="rgb(68,206,33)" fill-opacity="0.500"/>
    <rect x="4" y="3" width="1" height="1" fill="rgb(49,207,29)" fill-opacity="0.500"/>
    <rect x="0" y="4" width="1" height="1" fill="rgb(50,237,89)" fill-opacity="0.500"/>
    <rect x="2" y="4" width="1" height="1" fill="rgb(41,231,97)" fill-opacity="0.500"/>
    <rect x="4" y="4" width="1" height="1" fill="rgb(88,205,44)" fill-opacity="0.500"/>
    <rect x="0" y="5" width="1" height="1" fill="rgb(52,161,141)" fill-opacity="0.500"/>
    <rect x="2" y="5" width="1" height="1" fill="rgb(114,171,101)" fill-opacity="0.500"/>
    <rect x="4" y="5" width="1" height="1" fill="rgb(65,224,39)" fill-opacity="0.500"/>
    <rect x="0" y="6" width="1" height="1" fill="rgb(52,202,59)" fill-opacity="0.500"/>
    <rect x="1" y="6" width="1" height="1" fill="rgb(91,142,154)" fill-opacity="0.500"/>
    <rect x="4" y="6" width="1" height="1" fill="rgb(4,128,38)" fill-opacity="0.500"/>
  </g>
</svg>
