<?xml version="1.0" encoding="UTF-8"?>
<svg xmlns="http://www.w3.org/2000/svg" width="96" height="216" viewBox="0 0 4 9" shape-rendering="crispEdges">
  <title>U+042F (Я)</title>
  
  <g>
    <rect x="1" y="0" width="1" height="1" fill="rgb(68,241,91)" fill-opacity="0.500"/>
    <rect x="2" y="0" width="1" height="1" fill="rgb(14,128,146)" fill-opacity="0.500"/>
    <rect x="3" y="0" width="1" height="1" fill="rgb(67,182,117)" fill-opacity="0.500"/>
    <rect x="0" y="1" width="1" height="1" fill="rgb(124,130,85)" fill-opacity="0.500"/>
    <rect x="3" y="1" width="1" height="1" fill="rgb(74,195,118)" fill-opacity="0.500"/>
    <rect x="0" y="2" width="1" height="1" fill="rgb(97,236,85)" fill-opacity="0.500"/>
    <rect x="3" y="2" width="1" height="1" fill="rgb(30,180,171)" fill-opacity="0.500"/>
    <rect x="1" y="3" width="1" height="1" fill="rgb(88,220,180)" fill-opacity="0.500"/>
    <rect x="2" y="3" width="1" height="1" fill="rgb(47,162,139)" fill-opacity="0.500"/>
    <rect x="3" y="3" width="1" height="1" fill="rgb(85,226,178)" fill-opacity="0.500"/>
    <rect x="2" y="4" width="1" height="1" fill="rgb(29,138,136)" fill-opacity="0.500"/>
    <rect x="1" y="5" width="1" height="1" fill="rgb(25,133,158)" fill-opacity="0.500"/>
    <rect x="3" y="5" width="1" height="1" fill="rgb(90,164,65)" fill-opacity="0.500"/>
    <rect x="0" y="6" width="1" height="1" fill="rgb(41,216,51)" fill-opacity="0.500"/>
    <rect x="3" y="6" width="1" height="1" fill="rgb(80,217,121)" fill-opacity="0.500"/>
  </g>
</svg>
