<?xml version="1.0" encoding="UTF-8"?>
<svg xmlns="http://www.w3.org/2000/svg" width="120" height="216" viewBox="0 0 5 9" shape-rendering="crispEdges">
  <title>U+05D7 (ח)</title>
  
  <g>
    <rect x="0" y="0" width="1" height="1" fill="rgb(47,143,1)" fill-opacity="0.500"/>
    <rect x="1" y="0" width="1" height="1" fill="rgb(11,160,45)" fill-opacity="0.500"/>
    <rect x="2" y="0" width="1" height="1" fill="rgb(9,181,164)" fill-opacity="0.500"/>
    <rect x="3" y="0" width="1" height="1" fill="rgb(14,202,190)" fill-opacity="0.500"/>
    <rect x="4" y="0" width="1" height="1" fill="rgb(65,194,149)" fill-opacity="0.500"/>
    <rect x="0" y="1" width="1" height="1" fill="rgb(102,221,160)" fill-opacity="0.500"/>
    <rect x="4" y="1" width="1" height="1" fill="rgb(42,137,2)" fill-opacity="0.500"/>
    <rect x="0" y="2" width="1" height="1" fill="rgb(127,178,63)" fill-opacity="0.500"/>
    <rect x="4" y="2" width="1" height="1" fill="rgb(110,138,114)" fill-opacity="0.500"/>
    <rect x="0" y="3" width="1" height="1" fill="rgb(117,222,83)" fill-opacity="0.500"/>
    <rect x="4" y="3" width="1" height="1" fill="rgb(19,166,43)" fill-opacity="0.500"/>
    <rect x="0" y="4" width="1" height="1" fill="rgb(17,222,122)" fill-opacity="0.500"/>
    <rect x="4" y="4" width="1" height="1" fill="rgb(4,181,168)" fill-opacity="0.500"/>
    <rect x="0" y="5" width="1" height="1" fill="rgb(63,235,141)" fill-opacity="0.500"/>
    <rect x="4" y="5" width="1" height="1" fill="rgb(20,242,83)" fill-opacity="0.500"/>
    <rect x="0" y="6" width="1" height="1" fill="rgb(46,226,81)" fill-opacity="0.500"/>
    <rect x="4" y="6" width="1" height="1" fill="rgb(89,130,3)" fill-opacity="0.500"/>
  </g>
</svg>
