<?xml version="1.0" encoding="UTF-8"?>
<svg xmlns="http://www.w3.org/2000/svg" width="120" height="216" viewBox="0 0 5 9" shape-rendering="crispEdges">
  <title>U+006D (m)</title>
  
  <g>
    <rect x="0" y="2" width="1" height="1" fill="rgb(9,134,68)" fill-opacity="0.500"/>
    <rect x="1" y="2" width="1" height="1" fill="rgb(32,240,55)" fill-opacity="0.500"/>
    <rect x="2" y="2" width="1" height="1" fill="rgb(117,206,75)" fill-opacity="0.500"/>
    <rect x="3" y="2" width="1" height="1" fill="rgb(107,233,32)" fill-opacity="0.500"/>
    <rect x="4" y="2" width="1" height="1" fill="rgb(64,138,162)" fill-opacity="0.500"/>
    <rect x="0" y="3" width="1" height="1" fill="rgb(104,135,78)" fill-opacity="0.500"/>
    <rect x="2" y="3" width="1" height="1" fill="rgb(69,138,48)" fill-opacity="0.500"/>
    <rect x="4" y="3" width="1" height="1" fill="rgb(94,240,2)" fill-opacity="0.500"/>
    <rect x="0" y="4" width="1" height="1" fill="rgb(60,218,11)" fill-opacity="0.500"/>
    <rect x="2" y="4" width="1" height="1" fill="rgb(125,231,122)" fill-opacity="0.500"/>
    <rect x="4" y="4" width="1" height="1" fill="rgb(112,198,38)" fill-opacity="0.500"/>
    <rect x="0" y="5" width="1" height="1" fill="rgb(93,172,86)" fill-opacity="0.500"/>
    <rect x="2" y="5" width="1" height="1" fill="rgb(33,241,74)" fill-opacity="0.500"/>
    <rect x="4" y="5" width="1" height="1" fill="rgb(57,189,147)" fill-opacity="0.500"/>
    <rect x="0" y="6" width="1" height="1" fill="rgb(96,136,185)" fill-opacity="0.500"/>
    <rect x="2" y="6" width="1" height="1" fill="rgb(105,226,111)" fill-opacity="0.500"/>
    <rect x="4" y="6" width="1" height="1" fill="rgb(80,233,156)" fill-opacity="0.500"/>
  </g>
</svg>
