<?xml version="1.0" encoding="UTF-8"?>
<svg xmlns="http://www.w3.org/2000/svg" width="120" height="216" viewBox="0 0 5 9" shape-rendering="crispEdges">
  <title>U+0424 (Ф)</title>
  
  <g>
    <rect x="2" y="0" width="1" height="1" fill="rgb(89,129,59)" fill-opacity="0.500"/>
    <rect x="1" y="1" width="1" height="1" fill="rgb(111,154,98)" fill-opacity="0.500"/>
    <rect x="2" y="1" width="1" height="1" fill="rgb(0,159,104)" fill-opacity="0.500"/>
    <rect x="3" y="1" width="1" height="1" fill="rgb(94,178,117)" fill-opacity="0.500"/>
    <rect x="0" y="2" width="1" height="1" fill="rgb(9,143,96)" fill-opacity="0.500"/>
    <rect x="2" y="2" width="1" height="1" fill="rgb(101,190,72)" fill-opacity="0.500"/>
    <rect x="4" y="2" width="1" height="1" fill="rgb(95,143,46)" fill-opacity="0.500"/>
    <rect x="0" y="3" width="1" height="1" fill="rgb(124,245,130)" fill-opacity="0.500"/>
    <rect x="2" y="3" width="1" height="1" fill="rgb(63,155,91)" fill-opacity="0.500"/>
    <rect x="4" y="3" width="1" height="1" fill="rgb(125,162,27)" fill-opacity="0.500"/>
    <rect x="1" y="4" width="1" height="1" fill="rgb(106,154,122)" fill-opacity="0.500"/>
    <rect x="2" y="4" width="1" height="1" fill="rgb(69,207,114)" fill-opacity="0.500"/>
    <rect x="3" y="4" width="1" height="1" fill="rgb(127,252,145)" fill-opacity="0.500"/>
    <rect x="2" y="5" width="1" height="1" fill="rgb(29,178,30)" fill-opacity="0.500"/>
    <rect x="2" y="6" width="1" height="1" fill="rgb(66,211,186)" fill-opacity="0.500"/>
  </g>
</svg>
