<?xml version="1.0" encoding="UTF-8"?>
<svg xmlns="http://www.w3.org/2000/svg" width="168" height="216" viewBox="0 0 7 9" shape-rendering="crispEdges">
  <title>U+0040 (@)</title>
  
  <g>
    <rect x="0" y="0" width="1" height="1" fill="rgb(39,244,172)" fill-opacity="0.500"/>
    <rect x="1" y="0" width="1" height="1" fill="rgb(120,175,115)" fill-opacity="0.500"/>
    <rect x="2" y="0" width="1" height="1" fill="rgb(94,146,159)" fill-opacity="0.500"/>
    <rect x="3" y="0" width="1" height="1" fill="rgb(42,179,27)" fill-opacity="0.500"/>
    <rect x="4" y="0" width="1" height="1" fill="rgb(122,162,145)" fill-opacity="0.500"/>
    <rect x="5" y="0" width="1" height="1" fill="rgb(107,210,175)" fill-opacity="0.500"/>
    <rect x="6" y="0" width="1" height="1" fill="rgb(7,244,20)" fill-opacity="0.500"/>
    <rect x="6" y="1" width="1" height="1" fill="rgb(108,217,105)" fill-opacity="0.500"/>
    <rect x="0" y="2" width="1" height="1" fill="rgb(103,147,120)" fill-opacity="0.500"/>
    <rect x="1" y="2" width="1" height="1" fill="rgb(117,220,61)" fill-opacity="0.500"/>
    <rect x="2" y="2" width="1" height="1" fill="rgb(77,173,66)" fill-opacity="0.500"/>
    <rect x="3" y="2" width="1" height="1" fill="rgb(38,133,79)" fill-opacity="0.500"/>
    <rect x="4" y="2" width="1" height="1" fill="rgb(25,170,5)" fill-opacity="0.500"/>
    <rect x="6" y="2" width="1" height="1" fill="rgb(81,250,56)" fill-opacity="0.500"/>
    <rect x="0" y="3" width="1" height="1" fill="rgb(111,154,69)" fill-opacity="0.500"/>
    <rect x="4" y="3" width="1" height="1" fill="rgb(81,153,156)" fill-opacity="0.500"/>
    <rect x="6" y="3" width="1" height="1" fill="rgb(49,246,132)" fill-opacity="0.500"/>
    <rect x="0" y="4" width="1" height="1" fill="rgb(104,238,45)" fill-opacity="0.500"/>
    <rect x="2" y="4" width="1" height="1" fill="rgb(106,195,42)" fill-opacity="0.500"/>
    <rect x="3" y="4" width="1" height="1" fill="rgb(122,147,109)" fill-opacity="0.500"/>
    <rect x="4" y="4" width="1" height="1" fill="rgb(74,231,18)" fill-opacity="0.500"/>
    <rect x="6" y="4" width="1" height="1" fill="rgb(59,188,61)" fill-opacity="0.500"/>
    <rect x="0" y="5" width="1" height="1" fill="rgb(60,230,13)" fill-opacity="0.500"/>
    <rect x="2" y="5" width="1" height="1" fill="rgb(2,221,143)" fill-opacity="0.500"/>
    <rect x="4" y="5" width="1" height="1" fill="rgb(4,176,77)" fill-opacity="0.500"/>
    <rect x="6" y="5" width="1" height="1" fill="rgb(70,190,119)" fill-opacity="0.500"/>
    <rect x="0" y="6" width="1" height="1" fill="rgb(97,178,109)" fill-opacity="0.500"/>
    <rect x="2" y="6" width="1" height="1" fill="rgb(24,144,93)" fill-opacity="0.500"/>
    <rect x="3" y="6" width="1" height="1" fill="rgb(5,233,121)" fill-opacity="0.500"/>
    <rect x="4" y="6" width="1" height="1" fill="rgb(65,143,8)" fill-opacity="0.500"/>
    <rect x="6" y="6" width="1" height="1" fill="rgb(71,140,167)" fill-opacity="0.500"/>
    <rect x="0" y="7" width="1" height="1" fill="rgb(30,130,176)" fill-opacity="0.500"/>
    <rect x="6" y="7" width="1" height="1" fill="rgb(56,194,136)" fill-opacity="0.500"/>
    <rect x="0" y="8" width="1" height="1" fill="rgb(45,133,36)" fill-opacity="0.500"/>
    <rect x="1" y="8" width="1" height="1" fill="rgb(13,223,59)" fill-opacity="0.500"/>
    <rect x="2" y="8" width="1" height="1" fill="rgb(62,150,126)" fill-opacity="0.500"/>
    <rect x="3" y="8" width="1" height="1" fill="rgb(126,143,160)" fill-opacity="0.500"/>
    <rect x="4" y="8" width="1" height="1" fill="rgb(46,227,103)" fill-opacity="0.500"/>
    <rect x="5" y="8" width="1" height="1" fill="rgb(64,137,129)" fill-opacity="0.500"/>
    <rect x="6" y="8" width="1" height="1" fill="rgb(55,245,142)" fill-opacity="0.500"/>
  </g>
</svg>
