<?xml version="1.0" encoding="UTF-8"?>
<svg xmlns="http://www.w3.org/2000/svg" width="120" height="216" viewBox="0 0 5 9" shape-rendering="crispEdges">
  <title>U+05D1 (ב)</title>
  
  <g>
    <rect x="0" y="0" width="1" height="1" fill="rgb(20,221,121)" fill-opacity="0.500"/>
    <rect x="1" y="0" width="1" height="1" fill="rgb(42,215,122)" fill-opacity="0.500"/>
    <rect x="2" y="0" width="1" height="1" fill="rgb(76,244,88)" fill-opacity="0.500"/>
    <rect x="3" y="0" width="1" height="1" fill="rgb(73,178,166)" fill-opacity="0.500"/>
    <rect x="4" y="0" width="1" height="1" fill="rgb(47,156,95)" fill-opacity="0.500"/>
    <rect x="4" y="1" width="1" height="1" fill="rgb(77,154,3)" fill-opacity="0.500"/>
    <rect x="4" y="2" width="1" height="1" fill="rgb(55,220,45)" fill-opacity="0.500"/>
    <rect x="4" y="3" width="1" height="1" fill="rgb(10,138,28)" fill-opacity="0.500"/>
    <rect x="4" y="4" width="1" height="1" fill="rgb(54,161,65)" fill-opacity="0.500"/>
    <rect x="4" y="5" width="1" height="1" fill="rgb(68,161,0)" fill-opacity="0.500"/>
    <rect x="0" y="6" width="1" height="1" fill="rgb(9,235,29)" fill-opacity="0.500"/>
    <rect x="1" y="6" width="1" height="1" fill="rgb(59,152,69)" fill-opacity="0.500"/>
    <rect x="2" y="6" width="1" height="1" fill="rgb(68,251,40)" fill-opacity="0.500"/>
    <rect x="3" y="6" width="1" height="1" fill="rgb(122,162,150)" fill-opacity="0.500"/>
    <rect x="4" y="6" width="1" height="1" fill="rgb(89,201,142)" fill-opacity="0.500"/>
  </g>
</svg>
