<?xml version="1.0" encoding="UTF-8"?>
<svg xmlns="http://www.w3.org/2000/svg" width="120" height="216" viewBox="0 0 5 9" shape-rendering="crispEdges">
  <title>U+05DD (ם)</title>
  
  <g>
    <rect x="0" y="0" width="1" height="1" fill="rgb(57,237,77)" fill-opacity="0.500"/>
    <rect x="1" y="0" width="1" height="1" fill="rgb(42,167,102)" fill-opacity="0.500"/>
    <rect x="2" y="0" width="1" height="1" fill="rgb(14,148,177)" fill-opacity="0.500"/>
    <rect x="3" y="0" width="1" height="1" fill="rgb(85,195,104)" fill-opacity="0.500"/>
    <rect x="4" y="0" width="1" height="1" fill="rgb(101,136,3)" fill-opacity="0.500"/>
    <rect x="0" y="1" width="1" height="1" fill="rgb(89,133,63)" fill-opacity="0.500"/>
    <rect x="4" y="1" width="1" height="1" fill="rgb(54,172,36)" fill-opacity="0.500"/>
    <rect x="0" y="2" width="1" height="1" fill="rgb(62,141,23)" fill-opacity="0.500"/>
    <rect x="2" y="2" width="1" height="1" fill="rgb(112,173,118)" fill-opacity="0.500"/>
    <rect x="4" y="2" width="1" height="1" fill="rgb(53,144,140)" fill-opacity="0.500"/>
    <rect x="0" y="3" width="1" height="1" fill="rgb(93,212,94)" fill-opacity="0.500"/>
    <rect x="4" y="3" width="1" height="1" fill="rgb(35,216,164)" fill-opacity="0.500"/>
    <rect x="0" y="4" width="1" height="1" fill="rgb(88,145,12)" fill-opacity="0.500"/>
    <rect x="4" y="4" width="1" height="1" fill="rgb(93,253,100)" fill-opacity="0.500"/>
    <rect x="0" y="5" width="1" height="1" fill="rgb(43,208,100)" fill-opacity="0.500"/>
    <rect x="4" y="5" width="1" height="1" fill="rgb(7,247,142)" fill-opacity="0.500"/>
    <rect x="0" y="6" width="1" height="1" fill="rgb(49,210,83)" fill-opacity="0.500"/>
    <rect x="1" y="6" width="1" height="1" fill="rgb(83,240,12)" fill-opacity="0.500"/>
    <rect x="2" y="6" width="1" height="1" fill="rgb(30,230,129)" fill-opacity="0.500"/>
    <rect x="3" y="6" width="1" height="1" fill="rgb(89,222,147)" fill-opacity="0.500"/>
    <rect x="4" y="6" width="1" height="1" fill="rgb(29,229,184)" fill-opacity="0.500"/>
  </g>
</svg>
