<?xml version="1.0" encoding="UTF-8"?>
<svg xmlns="http://www.w3.org/2000/svg" width="144" height="216" viewBox="0 0 6 9" shape-rendering="crispEdges">
  <title>U+00A9 (©)</title>
  
  <g>
    <rect x="0" y="1" width="1" height="1" fill="rgb(59,150,95)" fill-opacity="0.500"/>
    <rect x="1" y="1" width="1" height="1" fill="rgb(117,230,79)" fill-opacity="0.500"/>
    <rect x="2" y="1" width="1" height="1" fill="rgb(53,181,28)" fill-opacity="0.500"/>
    <rect x="3" y="1" width="1" height="1" fill="rgb(16,254,104)" fill-opacity="0.500"/>
    <rect x="4" y="1" width="1" height="1" fill="rgb(53,165,177)" fill-opacity="0.500"/>
    <rect x="5" y="1" width="1" height="1" fill="rgb(12,175,34)" fill-opacity="0.500"/>
    <rect x="0" y="2" width="1" height="1" fill="rgb(47,202,23)" fill-opacity="0.500"/>
    <rect x="5" y="2" width="1" height="1" fill="rgb(60,243,69)" fill-opacity="0.500"/>
    <rect x="0" y="3" width="1" height="1" fill="rgb(118,240,2)" fill-opacity="0.500"/>
    <rect x="2" y="3" width="1" height="1" fill="rgb(81,227,180)" fill-opacity="0.500"/>
    <rect x="3" y="3" width="1" height="1" fill="rgb(113,179,141)" fill-opacity="0.500"/>
    <rect x="5" y="3" width="1" height="1" fill="rgb(7,192,147)" fill-opacity="0.500"/>
    <rect x="0" y="4" width="1" height="1" fill="rgb(41,187,74)" fill-opacity="0.500"/>
    <rect x="2" y="4" width="1" height="1" fill="rgb(87,182,162)" fill-opacity="0.500"/>
    <rect x="5" y="4" width="1" height="1" fill="rgb(44,178,83)" fill-opacity="0.500"/>
    <rect x="0" y="5" width="1" height="1" fill="rgb(94,212,125)" fill-opacity="0.500"/>
    <rect x="2" y="5" width="1" height="1" fill="rgb(124,170,158)" fill-opacity="0.500"/>
    <rect x="3" y="5" width="1" height="1" fill="rgb(123,235,156)" fill-opacity="0.500"/>
    <rect x="5" y="5" width="1" height="1" fill="rgb(57,160,181)" fill-opacity="0.500"/>
    <rect x="0" y="6" width="1" height="1" fill="rgb(47,167,131)" fill-opacity="0.500"/>
    <rect x="5" y="6" width="1" height="1" fill="rgb(94,183,16)" fill-opacity="0.500"/>
    <rect x="0" y="7" width="1" height="1" fill="rgb(27,255,47)" fill-opacity="0.500"/>
    <rect x="1" y="7" width="1" height="1" fill="rgb(4,211,2)" fill-opacity="0.500"/>
    <rect x="2" y="7" width="1" height="1" fill="rgb(30,182,82)" fill-opacity="0.500"/>
    <rect x="3" y="7" width="1" height="1" fill="rgb(38,249,33)" fill-opacity="0.500"/>
    <rect x="4" y="7" width="1" height="1" fill="rgb(4,242,129)" fill-opacity="0.500"/>
    <rect x="5" y="7" width="1" height="1" fill="rgb(95,174,142)" fill-opacity="0.500"/>
  </g>
</svg>
