<?xml version="1.0" encoding="UTF-8"?>
<svg xmlns="http://www.w3.org/2000/svg" width="72" height="216" viewBox="0 0 3 9" shape-rendering="crispEdges">
  <title>U+041D (Н)</title>
  
  <g>
    <rect x="0" y="0" width="1" height="1" fill="rgb(1,151,45)" fill-opacity="0.500"/>
    <rect x="2" y="0" width="1" height="1" fill="rgb(20,142,177)" fill-opacity="0.500"/>
    <rect x="0" y="1" width="1" height="1" fill="rgb(105,254,139)" fill-opacity="0.500"/>
    <rect x="2" y="1" width="1" height="1" fill="rgb(56,170,128)" fill-opacity="0.500"/>
    <rect x="0" y="2" width="1" height="1" fill="rgb(62,197,121)" fill-opacity="0.500"/>
    <rect x="2" y="2" width="1" height="1" fill="rgb(71,238,188)" fill-opacity="0.500"/>
    <rect x="0" y="3" width="1" height="1" fill="rgb(57,137,160)" fill-opacity="0.500"/>
    <rect x="1" y="3" width="1" height="1" fill="rgb(34,238,142)" fill-opacity="0.500"/>
    <rect x="2" y="3" width="1" height="1" fill="rgb(90,163,140)" fill-opacity="0.500"/>
    <rect x="0" y="4" width="1" height="1" fill="rgb(5,250,161)" fill-opacity="0.500"/>
    <rect x="2" y="4" width="1" height="1" fill="rgb(101,197,8)" fill-opacity="0.500"/>
    <rect x="0" y="5" width="1" height="1" fill="rgb(55,176,129)" fill-opacity="0.500"/>
    <rect x="2" y="5" width="1" height="1" fill="rgb(11,209,185)" fill-opacity="0.500"/>
    <rect x="0" y="6" width="1" height="1" fill="rgb(51,246,189)" fill-opacity="0.500"/>
    <rect x="2" y="6" width="1" height="1" fill="rgb(70,155,163)" fill-opacity="0.500"/>
  </g>
</svg>
