<?xml version="1.0" encoding="UTF-8"?>
<svg xmlns="http://www.w3.org/2000/svg" width="120" height="216" viewBox="0 0 5 9" shape-rendering="crispEdges">
  <title>U+05D0 (א)</title>
  
  <g>
    <rect x="0" y="0" width="1" height="1" fill="rgb(98,237,13)" fill-opacity="0.500"/>
    <rect x="4" y="0" width="1" height="1" fill="rgb(32,239,89)" fill-opacity="0.500"/>
    <rect x="0" y="1" width="1" height="1" fill="rgb(8,240,113)" fill-opacity="0.500"/>
    <rect x="1" y="1" width="1" height="1" fill="rgb(77,211,50)" fill-opacity="0.500"/>
    <rect x="4" y="1" width="1" height="1" fill="rgb(39,200,36)" fill-opacity="0.500"/>
    <rect x="0" y="2" width="1" height="1" fill="rgb(55,238,70)" fill-opacity="0.500"/>
    <rect x="2" y="2" width="1" height="1" fill="rgb(88,185,128)" fill-opacity="0.500"/>
    <rect x="4" y="2" width="1" height="1" fill="rgb(63,154,86)" fill-opacity="0.500"/>
    <rect x="0" y="3" width="1" height="1" fill="rgb(17,224,142)" fill-opacity="0.500"/>
    <rect x="3" y="3" width="1" height="1" fill="rgb(38,224,150)" fill-opacity="0.500"/>
    <rect x="4" y="3" width="1" height="1" fill="rgb(78,237,110)" fill-opacity="0.500"/>
    <rect x="0" y="4" width="1" height="1" fill="rgb(49,141,52)" fill-opacity="0.500"/>
    <rect x="4" y="4" width="1" height="1" fill="rgb(118,144,156)" fill-opacity="0.500"/>
    <rect x="4" y="5" width="1" height="1" fill="rgb(36,166,140)" fill-opacity="0.500"/>
    <rect x="4" y="6" width="1" height="1" fill="rgb(37,194,55)" fill-opacity="0.500"/>
  </g>
</svg>
