<?xml version="1.0" encoding="UTF-8"?>
<svg xmlns="http://www.w3.org/2000/svg" width="120" height="216" viewBox="0 0 5 9" shape-rendering="crispEdges">
  <title>U+05DE (מ)</title>
  
  <g>
    <rect x="0" y="0" width="1" height="1" fill="rgb(104,140,170)" fill-opacity="0.500"/>
    <rect x="1" y="0" width="1" height="1" fill="rgb(37,170,71)" fill-opacity="0.500"/>
    <rect x="2" y="0" width="1" height="1" fill="rgb(109,186,56)" fill-opacity="0.500"/>
    <rect x="3" y="0" width="1" height="1" fill="rgb(67,239,67)" fill-opacity="0.500"/>
    <rect x="4" y="0" width="1" height="1" fill="rgb(67,151,157)" fill-opacity="0.500"/>
    <rect x="0" y="1" width="1" height="1" fill="rgb(19,148,15)" fill-opacity="0.500"/>
    <rect x="4" y="1" width="1" height="1" fill="rgb(44,226,138)" fill-opacity="0.500"/>
    <rect x="0" y="2" width="1" height="1" fill="rgb(85,201,182)" fill-opacity="0.500"/>
    <rect x="2" y="2" width="1" height="1" fill="rgb(29,163,130)" fill-opacity="0.500"/>
    <rect x="4" y="2" width="1" height="1" fill="rgb(115,228,87)" fill-opacity="0.500"/>
    <rect x="0" y="3" width="1" height="1" fill="rgb(42,150,87)" fill-opacity="0.500"/>
    <rect x="4" y="3" width="1" height="1" fill="rgb(81,135,28)" fill-opacity="0.500"/>
    <rect x="0" y="4" width="1" height="1" fill="rgb(116,231,37)" fill-opacity="0.500"/>
    <rect x="4" y="4" width="1" height="1" fill="rgb(34,186,99)" fill-opacity="0.500"/>
    <rect x="0" y="5" width="1" height="1" fill="rgb(98,251,180)" fill-opacity="0.500"/>
    <rect x="4" y="5" width="1" height="1" fill="rgb(3,162,116)" fill-opacity="0.500"/>
    <rect x="1" y="6" width="1" height="1" fill="rgb(126,238,22)" fill-opacity="0.500"/>
    <rect x="2" y="6" width="1" height="1" fill="rgb(126,250,39)" fill-opacity="0.500"/>
    <rect x="3" y="6" width="1" height="1" fill="rgb(63,247,125)" fill-opacity="0.500"/>
    <rect x="4" y="6" width="1" height="1" fill="rgb(73,131,124)" fill-opacity="0.500"/>
  </g>
</svg>
