<?xml version="1.0" encoding="UTF-8"?>
<svg xmlns="http://www.w3.org/2000/svg" width="120" height="216" viewBox="0 0 5 9" shape-rendering="crispEdges">
  <title>U+05EA (ת)</title>
  
  <g>
    <rect x="0" y="0" width="1" height="1" fill="rgb(54,228,66)" fill-opacity="0.500"/>
    <rect x="1" y="0" width="1" height="1" fill="rgb(65,160,122)" fill-opacity="0.500"/>
    <rect x="2" y="0" width="1" height="1" fill="rgb(73,162,98)" fill-opacity="0.500"/>
    <rect x="3" y="0" width="1" height="1" fill="rgb(100,142,15)" fill-opacity="0.500"/>
    <rect x="4" y="0" width="1" height="1" fill="rgb(42,155,71)" fill-opacity="0.500"/>
    <rect x="2" y="1" width="1" height="1" fill="rgb(117,133,41)" fill-opacity="0.500"/>
    <rect x="2" y="2" width="1" height="1" fill="rgb(4,140,24)" fill-opacity="0.500"/>
    <rect x="0" y="3" width="1" height="1" fill="rgb(39,241,159)" fill-opacity="0.500"/>
    <rect x="1" y="3" width="1" height="1" fill="rgb(2,198,84)" fill-opacity="0.500"/>
    <rect x="2" y="3" width="1" height="1" fill="rgb(15,240,75)" fill-opacity="0.500"/>
    <rect x="3" y="3" width="1" height="1" fill="rgb(62,203,183)" fill-opacity="0.500"/>
    <rect x="4" y="3" width="1" height="1" fill="rgb(118,158,89)" fill-opacity="0.500"/>
    <rect x="2" y="4" width="1" height="1" fill="rgb(51,179,76)" fill-opacity="0.500"/>
    <rect x="2" y="5" width="1" height="1" fill="rgb(91,202,24)" fill-opacity="0.500"/>
    <rect x="2" y="6" width="1" height="1" fill="rgb(82,179,147)" fill-opacity="0.500"/>
  </g>
</svg>
