<?xml version="1.0" encoding="UTF-8"?>
<svg xmlns="http://www.w3.org/2000/svg" width="120" height="216" viewBox="0 0 5 9" shape-rendering="crispEdges">
  <title>U+05E9 (ש)</title>
  
  <g>
    <rect x="0" y="0" width="1" height="1" fill="rgb(49,197,7)" fill-opacity="0.500"/>
    <rect x="2" y="0" width="1" height="1" fill="rgb(87,218,187)" fill-opacity="0.500"/>
    <rect x="4" y="0" width="1" height="1" fill="rgb(64,233,49)" fill-opacity="0.500"/>
    <rect x="0" y="1" width="1" height="1" fill="rgb(93,209,25)" fill-opacity="0.500"/>
    <rect x="2" y="1" width="1" height="1" fill="rgb(84,146,101)" fill-opacity="0.500"/>
    <rect x="4" y="1" width="1" height="1" fill="rgb(113,161,76)" fill-opacity="0.500"/>
    <rect x="0" y="2" width="1" height="1" fill="rgb(84,160,61)" fill-opacity="0.500"/>
    <rect x="2" y="2" width="1" height="1" fill="rgb(94,199,172)" fill-opacity="0.500"/>
    <rect x="4" y="2" width="1" height="1" fill="rgb(124,199,123)" fill-opacity="0.500"/>
    <rect x="0" y="3" width="1" height="1" fill="rgb(95,227,75)" fill-opacity="0.500"/>
    <rect x="1" y="3" width="1" height="1" fill="rgb(57,228,137)" fill-opacity="0.500"/>
    <rect x="2" y="3" width="1" height="1" fill="rgb(61,213,191)" fill-opacity="0.500"/>
    <rect x="3" y="3" width="1" height="1" fill="rgb(97,209,121)" fill-opacity="0.500"/>
    <rect x="4" y="3" width="1" height="1" fill="rgb(46,253,53)" fill-opacity="0.500"/>
    <rect x="0" y="4" width="1" height="1" fill="rgb(117,176,87)" fill-opacity="0.500"/>
    <rect x="2" y="4" width="1" height="1" fill="rgb(50,218,135)" fill-opacity="0.500"/>
    <rect x="4" y="4" width="1" height="1" fill="rgb(33,230,109)" fill-opacity="0.500"/>
    <rect x="0" y="5" width="1" height="1" fill="rgb(93,229,100)" fill-opacity="0.500"/>
    <rect x="2" y="5" width="1" height="1" fill="rgb(4,144,94)" fill-opacity="0.500"/>
    <rect x="4" y="5" width="1" height="1" fill="rgb(115,212,149)" fill-opacity="0.500"/>
    <rect x="1" y="6" width="1" height="1" fill="rgb(15,237,60)" fill-opacity="0.500"/>
    <rect x="2" y="6" width="1" height="1" fill="rgb(35,194,92)" fill-opacity="0.500"/>
    <rect x="3" y="6" width="1" height="1" fill="rgb(17,230,122)" fill-opacity="0.500"/>
  </g>
</svg>
