<?xml version="1.0" encoding="UTF-8"?>
<svg xmlns="http://www.w3.org/2000/svg" width="96" height="216" viewBox="0 0 4 9" shape-rendering="crispEdges">
  <title>U+0418 (И)</title>
  
  <g>
    <rect x="0" y="0" width="1" height="1" fill="rgb(80,194,43)" fill-opacity="0.500"/>
    <rect x="3" y="0" width="1" height="1" fill="rgb(20,237,68)" fill-opacity="0.500"/>
    <rect x="0" y="1" width="1" height="1" fill="rgb(61,198,185)" fill-opacity="0.500"/>
    <rect x="3" y="1" width="1" height="1" fill="rgb(48,188,135)" fill-opacity="0.500"/>
    <rect x="0" y="2" width="1" height="1" fill="rgb(15,148,31)" fill-opacity="0.500"/>
    <rect x="2" y="2" width="1" height="1" fill="rgb(118,220,172)" fill-opacity="0.500"/>
    <rect x="3" y="2" width="1" height="1" fill="rgb(32,194,130)" fill-opacity="0.500"/>
    <rect x="0" y="3" width="1" height="1" fill="rgb(16,248,110)" fill-opacity="0.500"/>
    <rect x="1" y="3" width="1" height="1" fill="rgb(71,255,38)" fill-opacity="0.500"/>
    <rect x="3" y="3" width="1" height="1" fill="rgb(106,197,41)" fill-opacity="0.500"/>
    <rect x="0" y="4" width="1" height="1" fill="rgb(66,163,73)" fill-opacity="0.500"/>
    <rect x="3" y="4" width="1" height="1" fill="rgb(113,201,49)" fill-opacity="0.500"/>
    <rect x="0" y="5" width="1" height="1" fill="rgb(122,206,35)" fill-opacity="0.500"/>
    <rect x="3" y="5" width="1" height="1" fill="rgb(17,175,131)" fill-opacity="0.500"/>
    <rect x="0" y="6" width="1" height="1" fill="rgb(78,144,154)" fill-opacity="0.500"/>
    <rect x="3" y="6" width="1" height="1" fill="rgb(87,139,92)" fill-opacity="0.500"/>
  </g>
</svg>
