<?xml version="1.0" encoding="UTF-8"?>
<svg xmlns="http://www.w3.org/2000/svg" width="120" height="216" viewBox="0 0 5 9" shape-rendering="crispEdges">
  <title>U+042E (Ю)</title>
  
  <g>
    <rect x="0" y="0" width="1" height="1" fill="rgb(30,199,119)" fill-opacity="0.500"/>
    <rect x="2" y="0" width="1" height="1" fill="rgb(99,208,59)" fill-opacity="0.500"/>
    <rect x="3" y="0" width="1" height="1" fill="rgb(16,207,89)" fill-opacity="0.500"/>
    <rect x="0" y="1" width="1" height="1" fill="rgb(94,174,188)" fill-opacity="0.500"/>
    <rect x="2" y="1" width="1" height="1" fill="rgb(6,231,151)" fill-opacity="0.500"/>
    <rect x="4" y="1" width="1" height="1" fill="rgb(43,187,101)" fill-opacity="0.500"/>
    <rect x="0" y="2" width="1" height="1" fill="rgb(31,187,117)" fill-opacity="0.500"/>
    <rect x="1" y="2" width="1" height="1" fill="rgb(89,225,183)" fill-opacity="0.500"/>
    <rect x="2" y="2" width="1" height="1" fill="rgb(52,168,61)" fill-opacity="0.500"/>
    <rect x="4" y="2" width="1" height="1" fill="rgb(53,245,151)" fill-opacity="0.500"/>
    <rect x="0" y="3" width="1" height="1" fill="rgb(63,139,37)" fill-opacity="0.500"/>
    <rect x="2" y="3" width="1" height="1" fill="rgb(45,166,18)" fill-opacity="0.500"/>
    <rect x="4" y="3" width="1" height="1" fill="rgb(36,140,121)" fill-opacity="0.500"/>
    <rect x="0" y="4" width="1" height="1" fill="rgb(90,239,118)" fill-opacity="0.500"/>
    <rect x="2" y="4" width="1" height="1" fill="rgb(51,228,185)" fill-opacity="0.500"/>
    <rect x="4" y="4" width="1" height="1" fill="rgb(61,234,136)" fill-opacity="0.500"/>
    <rect x="0" y="5" width="1" height="1" fill="rgb(107,248,120)" fill-opacity="0.500"/>
    <rect x="2" y="5" width="1" height="1" fill="rgb(2,201,119)" fill-opacity="0.500"/>
    <rect x="4" y="5" width="1" height="1" fill="rgb(71,129,57)" fill-opacity="0.500"/>
    <rect x="0" y="6" width="1" height="1" fill="rgb(73,164,79)" fill-opacity="0.500"/>
    <rect x="2" y="6" width="1" height="1" fill="rgb(67,144,178)" fill-opacity="0.500"/>
    <rect x="3" y="6" width="1" height="1" fill="rgb(92,171,162)" fill-opacity="0.500"/>
  </g>
</svg>
