<?xml version="1.0" encoding="UTF-8"?>
<svg xmlns="http://www.w3.org/2000/svg" width="72" height="216" viewBox="0 0 3 9" shape-rendering="crispEdges">
  <title>U+0411 (Б)</title>
  
  <g>
    <rect x="0" y="0" width="1" height="1" fill="rgb(112,153,101)" fill-opacity="0.500"/>
    <rect x="1" y="0" width="1" height="1" fill="rgb(94,217,60)" fill-opacity="0.500"/>
    <rect x="2" y="0" width="1" height="1" fill="rgb(80,168,49)" fill-opacity="0.500"/>
    <rect x="0" y="1" width="1" height="1" fill="rgb(72,221,125)" fill-opacity="0.500"/>
    <rect x="0" y="2" width="1" height="1" fill="rgb(119,226,11)" fill-opacity="0.500"/>
    <rect x="0" y="3" width="1" height="1" fill="rgb(5,130,58)" fill-opacity="0.500"/>
    <rect x="1" y="3" width="1" height="1" fill="rgb(65,151,53)" fill-opacity="0.500"/>
    <rect x="2" y="3" width="1" height="1" fill="rgb(59,139,37)" fill-opacity="0.500"/>
    <rect x="0" y="4" width="1" height="1" fill="rgb(15,231,161)" fill-opacity="0.500"/>
    <rect x="2" y="4" width="1" height="1" fill="rgb(27,252,183)" fill-opacity="0.500"/>
    <rect x="0" y="5" width="1" height="1" fill="rgb(127,226,96)" fill-opacity="0.500"/>
    <rect x="2" y="5" width="1" height="1" fill="rgb(33,138,118)" fill-opacity="0.500"/>
    <rect x="0" y="6" width="1" height="1" fill="rgb(55,137,137)" fill-opacity="0.500"/>
    <rect x="1" y="6" width="1" height="1" fill="rgb(66,246,76)" fill-opacity="0.500"/>
    <rect x="2" y="6" width="1" height="1" fill="rgb(97,142,191)" fill-opacity="0.500"/>
  </g>
</svg>
