<?xml version="1.0" encoding="UTF-8"?>
<svg xmlns="http://www.w3.org/2000/svg" width="120" height="216" viewBox="0 0 5 9" shape-rendering="crispEdges">
  <title>U+05D1 (ב)</title>
  
  <g>
    <rect x="0" y="0" width="1" height="1" fill="rgb(115,128,141)" fill-opacity="0.500"/>
    <rect x="1" y="0" width="1" height="1" fill="rgb(89,189,182)" fill-opacity="0.500"/>
    <rect x="2" y="0" width="1" height="1" fill="rgb(121,147,155)" fill-opacity="0.500"/>
    <rect x="3" y="0" width="1" height="1" fill="rgb(93,190,48)" fill-opacity="0.500"/>
    <rect x="4" y="0" width="1" height="1" fill="rgb(126,161,132)" fill-opacity="0.500"/>
    <rect x="4" y="1" width="1" height="1" fill="rgb(77,205,7)" fill-opacity="0.500"/>
    <rect x="4" y="2" width="1" height="1" fill="rgb(78,252,79)" fill-opacity="0.500"/>
    <rect x="4" y="3" width="1" height="1" fill="rgb(64,228,35)" fill-opacity="0.500"/>
    <rect x="4" y="4" width="1" height="1" fill="rgb(96,221,169)" fill-opacity="0.500"/>
    <rect x="4" y="5" width="1" height="1" fill="rgb(40,130,0)" fill-opacity="0.500"/>
    <rect x="0" y="6" width="1" height="1" fill="rgb(126,198,4)" fill-opacity="0.500"/>
    <rect x="1" y="6" width="1" height="1" fill="rgb(127,130,30)" fill-opacity="0.500"/>
    <rect x="2" y="6" width="1" height="1" fill="rgb(95,214,161)" fill-opacity="0.500"/>
    <rect x="3" y="6" width="1" height="1" fill="rgb(90,166,173)" fill-opacity="0.500"/>
    <rect x="4" y="6" width="1" height="1" fill="rgb(48,145,21)" fill-opacity="0.500"/>
  </g>
</svg>
